<?xml version="1.0" encoding="utf-8"?>
<!-- Generator: Adobe Illustrator 25.0.0, SVG Export Plug-In . SVG Version: 6.00 Build 0)  -->
<svg version="1.1" id="Layer_1" xmlns="http://www.w3.org/2000/svg" xmlns:xlink="http://www.w3.org/1999/xlink" x="0px" y="0px"
	 viewBox="0 0 954.2 263.5" style="enable-background:new 0 0 954.2 263.5;" xml:space="preserve">
<style type="text/css">
	.st0{fill:#F59F75;}
	.st1{fill:#FFC3A3;}
	.st2{fill:#1E2E35;}
	.st3{fill:#2D2D2D;}
	.st4{fill:#64CDD8;}
	.st5{opacity:0.3;}
	.st6{clip-path:url(#SVGID_2_);}
	.st7{clip-path:url(#SVGID_4_);}
	.st8{fill:#B21212;}
	.st9{fill:#E1E1E1;}
	.st10{fill:#ECECEC;}
	.st11{fill:#FAFAFA;}
	.st12{fill:#ED1818;}
	.st13{clip-path:url(#SVGID_6_);}
	.st14{fill:#E2E4E6;}
	.st15{fill:#B0B6BB;}
	.st16{fill:#CAD0D6;}
	.st17{fill:#DE614C;}
	.st18{fill:#FFFFFF;}
	.st19{fill:#DC7451;}
	.st20{fill:#EF9473;}
	.st21{fill:#C35A3B;}
	.st22{clip-path:url(#SVGID_8_);}
	.st23{fill:url(#Rectangle_320_1_);}
	.st24{fill:#F0F3F5;}
	.st25{fill:#2D5B3A;}
	.st26{fill:#4FA06B;}
	.st27{fill:#387A47;}
	.st28{opacity:0.1;}
	.st29{clip-path:url(#SVGID_10_);}
	.st30{opacity:0.2;}
	.st31{clip-path:url(#SVGID_12_);}
	.st32{clip-path:url(#SVGID_14_);}
	.st33{clip-path:url(#SVGID_16_);}
	.st34{clip-path:url(#SVGID_18_);}
	.st35{fill:url(#Rectangle_328_1_);}
	.st36{fill:#63C086;}
	.st37{clip-path:url(#SVGID_20_);}
	.st38{clip-path:url(#SVGID_22_);}
	.st39{clip-path:url(#SVGID_24_);}
	.st40{clip-path:url(#SVGID_26_);}
	.st41{clip-path:url(#SVGID_28_);}
	.st42{fill:url(#Rectangle_336_1_);}
	.st43{fill:#5DA2E7;}
	.st44{fill:#437ACC;}
	.st45{fill:#2C59B6;}
	.st46{fill:#1E3E8B;}
	.st47{clip-path:url(#SVGID_30_);}
	.st48{clip-path:url(#SVGID_32_);}
	.st49{clip-path:url(#SVGID_34_);}
	.st50{clip-path:url(#SVGID_36_);}
	.st51{clip-path:url(#SVGID_38_);}
	.st52{fill:url(#Rectangle_344_1_);}
	.st53{clip-path:url(#SVGID_40_);}
	.st54{clip-path:url(#SVGID_42_);}
	.st55{clip-path:url(#SVGID_44_);}
	.st56{clip-path:url(#SVGID_46_);}
	.st57{clip-path:url(#SVGID_48_);}
	.st58{fill:url(#Rectangle_351_1_);}
	.st59{clip-path:url(#SVGID_50_);}
	.st60{clip-path:url(#SVGID_52_);}
</style>
<path id="Path_1845" class="st0" d="M435.7,258c0.4,0,0.7,0.1,1.1,0.2c0.7,0.2,1.7,0.4,2.9,0.6c6.4,1.3,12.9,1.5,19.4,0.8
	c1.2-0.1,2.2-0.3,2.9-0.4c0.4-0.1,0.7-0.1,1.1-0.1c-0.3,0.1-0.7,0.2-1,0.3c-0.7,0.2-1.7,0.4-2.9,0.5c-6.5,1-13.1,0.7-19.5-0.8
	c-1.2-0.3-2.2-0.5-2.9-0.8C436.4,258.3,436,258.2,435.7,258"/>
<path id="Path_1846" class="st0" d="M438.1,254c0.4,0,0.7,0.1,1.1,0.2c0.7,0.2,1.7,0.4,2.9,0.6c3.2,0.6,6.5,1,9.8,1.1
	c3.3,0.1,6.6-0.1,9.9-0.5c1.3-0.1,2.3-0.3,3-0.4c0.4-0.1,0.7-0.1,1.1-0.1c-0.3,0.1-0.7,0.2-1.1,0.3c-0.7,0.2-1.7,0.4-3,0.5
	c-3.3,0.5-6.6,0.7-9.9,0.6s-6.6-0.5-9.9-1.2c-1.2-0.3-2.2-0.5-2.9-0.8C438.7,254.3,438.4,254.2,438.1,254"/>
<g>
	<path id="Path_1811" class="st1" d="M449.9,51.9l-0.8,65.8c-0.1,11.2,1.9,27.7,19.6,27.1c15.3-1.7,19.4-16.2,19.5-26.6
		c0.1-5,0.1-9.1,0.1-9.6c0,0,16.8-1.4,18.2-17.9c0.7-8,0.7-24.6,0.6-39.6C507,35,494.5,21.6,478.4,20.5l-1.6-0.1
		C459.5,20,449.6,34.6,449.9,51.9"/>
	<path id="Path_1812" class="st0" d="M488.4,108.5c0,0-10.5-0.1-21.1-8c0,0,4.4,12.5,21,12.2L488.4,108.5z"/>
	<path id="Path_1813" class="st2" d="M478.9,57.8c-0.3,0.3-2.2-1.2-5-1.3s-4.8,1.3-5.1,0.9c-0.1-0.2,0.2-0.8,1.1-1.4
		c1.2-0.8,2.7-1.2,4.1-1.2s2.8,0.5,4,1.4C478.7,57,479,57.6,478.9,57.8"/>
	<path id="Path_1814" class="st2" d="M478.3,63.5c-0.1,1.2-1.1,2.1-2.3,2.1c-1.2,0-2.2-0.9-2.2-2.1c0,0,0,0,0-0.1
		c0.1-1.2,1.1-2.1,2.3-2.1C477.3,61.3,478.3,62.3,478.3,63.5L478.3,63.5"/>
	<path id="Path_1815" class="st2" d="M485.8,77.1c0-0.1,1.6-0.3,4.2-0.4c0.7,0,1.3-0.1,1.4-0.5c0.1-0.7,0-1.4-0.3-2l-1.6-5.1
		c-2.2-7.2-3.7-13.2-3.4-13.3c0.3-0.1,2.3,5.7,4.4,13c0.5,1.8,1,3.5,1.5,5.1c0.4,0.8,0.4,1.7,0.1,2.6c-0.2,0.5-0.6,0.8-1.1,0.9
		c-0.4,0.1-0.7,0.1-1.1,0.1C487.4,77.3,485.8,77.2,485.8,77.1"/>
	<path id="Path_1816" class="st1" d="M450.3,64.3c-0.3-0.1-11.1-4.2-11.6,7.2s11,9.5,11.1,9.2C449.8,80.3,450.3,64.3,450.3,64.3"/>
	<path id="Path_1817" class="st0" d="M446.5,76.1c0,0-0.2,0.1-0.5,0.3c-0.5,0.2-1,0.2-1.5,0c-1.2-0.5-2.1-2.4-2.1-4.5
		c0-1,0.2-1.9,0.7-2.8c0.2-0.7,0.8-1.3,1.6-1.5c0.5-0.1,1,0.1,1.1,0.6c0.1,0.3,0.1,0.5,0.1,0.6c0,0,0.3-0.2,0.2-0.7
		c-0.1-0.3-0.2-0.5-0.4-0.7c-0.3-0.2-0.7-0.4-1.1-0.3c-1,0.1-1.8,0.8-2.1,1.7c-0.5,1-0.8,2-0.8,3.1c0,2.3,1.1,4.5,2.7,5
		c0.6,0.2,1.3,0.1,1.8-0.2C446.5,76.4,446.5,76.2,446.5,76.1"/>
	<path id="Path_1818" class="st2" d="M483.1,84.9c0.1-0.3-2.1-1-3.7-3c-0.7-0.9-1.2-1.9-1.6-3c-0.3-0.8-0.6-1.3-0.7-1.3
		s-0.1,0.6,0.1,1.5c0.2,1.2,0.7,2.3,1.5,3.3c0.7,1,1.7,1.8,2.9,2.2C482.5,85,483.1,85,483.1,84.9"/>
	<path id="Path_1819" class="st3" d="M529.2,36.1c-0.2-0.7-0.7-1.2-1.3-1.6c-1.3-0.8-2.8-0.7-4.2-0.7c-4.4-0.1-8.7-1.4-12.5-3.8
		c-1.7-2.5-3.7-4.8-5.8-7c-5-5.2-9.2-8.7-13.4-10.4c-5.5-2.2-14.8-3.1-20.5-1.6c-5.8,1.5-10.9,6.2-11.7,12.1
		c-3.2-2.7-8.1-2.7-12-1.1h-0.1c-4.4,1.6-6.9,6.2-8.2,10.7c-1.3,4.5-1.8,9.3-4.2,13.3c-0.5,0.8-1.1,1.8-0.6,2.7
		c0.4,0.7,1.2,1,1.9,0.8c0.7-0.2,1.4-0.5,2-0.9c-0.5,1.2-1,2.3-1.5,3.5c1.6,0.3,3.2,0.2,4.8-0.3c0.8,4,1.8,7.9,3.1,11.8
		c1.8,0,3.5,0.1,4.6,1.1c1.5,1.4,2.2,4,4.8,3c1.3-0.5,2.5-3.2,2.9-4.5c2.9-8.8,3.8-18.1,2.8-27.4c1.8-1.9,4-3.5,6.4-4.6l-0.2,0.2
		c4.6-1.6,9.9-3.2,14.3-1c3.4,1.7,5.4,5.2,8,8c4.8,5.3,11.4,8.4,18.5,8.6c0.2,4.7-0.1,11.3,0.1,15.9l3.9-7.5l0,0
		c0.3-0.5,0.6-1.1,0.8-1.7l0.1-0.2l0,0c0.4-0.9,0.8-1.8,1.3-2.7l0,0c2.5,2.2,6.2-1.2,4.3-3.9c-0.4-0.5-0.9-1-1.4-1.4
		c1.2,1.1,2.8,1.6,4.4,1.1c1.6-0.5,2.6-1.9,2.6-3.6c-0.1-1.1-0.8-2-1.8-2.5c2.1,0.2,4.1-0.3,5.9-1.3
		C528.4,38.7,529.6,37.6,529.2,36.1"/>
	<path id="Path_1820" class="st4" d="M464.9,25c-0.6,0.5-1.1,1-1.7,1.5c-1.3,1.6-2.2,3.5-2.5,5.5c-0.3,1.4-0.4,2.8-0.4,4.2
		c0,1.5,0.1,3.2,0.2,4.9c0.2,1.8,0.2,3.6,0.1,5.4c-0.1,1-0.2,1.9-0.4,2.9c-0.1,1-0.5,2-1.2,2.8c-0.6,0.7-1.5,1-2.3,0.8
		s-1.6-0.6-2.1-1.2c-1.1-1.2-1.3-2.8-1.6-4.2h0.3c-0.5,1.2-1.2,2.4-2,3.5c-0.8,1-2,1.6-3.2,1.8c-0.6,0.1-1.2,0-1.7-0.3
		s-0.9-0.7-1.2-1.1c-0.2-0.4-0.4-1-0.4-1.5s0.2-0.9,0.5-1.3l0.2,0.2c-1,1.1-2.2,2-3.6,2.7c-0.4,0.2-0.7,0.3-1.1,0.4
		c-0.1,0-0.3,0.1-0.4,0.1c0.1-0.1,0.2-0.1,0.4-0.2c0.2-0.1,0.6-0.2,1.1-0.5c1.3-0.7,2.5-1.6,3.4-2.7l0.2,0.2
		c-0.6,0.7-0.6,1.7-0.1,2.5c0.2,0.4,0.6,0.8,1,1c0.5,0.2,1,0.3,1.5,0.3c1.2-0.2,2.2-0.7,3-1.7s1.5-2.2,1.9-3.4l0.2-0.5l0.1,0.6
		c0.3,1.4,0.5,2.9,1.5,4c0.5,0.6,1.2,0.9,1.9,1.1c0.7,0.1,1.5-0.1,2-0.7c0.6-0.8,0.9-1.7,1.1-2.6c0.2-0.9,0.3-1.9,0.4-2.8
		c0.1-1.8,0-3.6-0.1-5.4c-0.1-1.7-0.2-3.4-0.2-4.9c0-1.4,0.2-2.9,0.5-4.3c0.4-2.1,1.3-4,2.7-5.5C463.7,25.9,464.3,25.4,464.9,25"/>
	<path id="Path_1821" class="st4" d="M516.2,41.1C516.2,41.1,516.2,41.1,516.2,41.1l-0.5,0.4c-0.2,0.2-0.5,0.3-0.7,0.4
		c-0.3,0.2-0.7,0.4-1,0.5c-2.2,1-4.7,1.4-7.1,1.3c-3.6-0.2-7.1-1.5-10-3.7c-3.5-2.7-6.4-6.1-8.6-9.9c-1.2-2-2.2-4.1-3.3-6
		c-1-1.8-2.2-3.5-3.7-5c-1.3-1.3-3-2.3-4.8-2.9c-0.8-0.2-1.7-0.3-2.5-0.3s-1.6,0.2-2.3,0.4c-2.3,0.8-4.2,2.4-5.3,4.5
		c-0.4,0.8-0.7,1.6-0.9,2.5c0-0.1,0-0.1,0-0.2s0-0.3,0.1-0.5c0.1-0.6,0.3-1.3,0.6-1.9c0.5-0.9,1.1-1.8,1.9-2.5c1-1,2.2-1.7,3.5-2.2
		c0.8-0.3,1.6-0.4,2.4-0.5c0.9,0,1.8,0,2.6,0.3c1.9,0.6,3.6,1.6,4.9,3c1.5,1.5,2.8,3.2,3.8,5.1c1.1,1.9,2.1,4,3.3,6
		c2.1,3.8,5,7.1,8.5,9.8c2.8,2.1,6.3,3.4,9.8,3.7c2.4,0.2,4.8-0.2,7-1.1C514.7,42,515.4,41.6,516.2,41.1"/>
	<path id="Path_1822" class="st4" d="M517.7,33.9c-0.2,0.2-0.4,0.3-0.6,0.4c-0.6,0.3-1.2,0.6-1.8,0.9c-0.9,0.4-1.8,0.7-2.8,0.9
		c-2.3,0.6-4.8,0.6-7.1,0.2c-1-0.2-1.9-0.4-2.8-0.7c-0.6-0.2-1.2-0.5-1.8-0.8c-0.2-0.1-0.4-0.2-0.6-0.4c0-0.1,0.9,0.4,2.5,0.9
		c0.9,0.3,1.9,0.5,2.8,0.6c2.3,0.4,4.7,0.3,7-0.2c0.9-0.2,1.9-0.5,2.8-0.8C516.8,34.3,517.7,33.8,517.7,33.9"/>
	<path id="Path_1823" class="st2" d="M504.2,58.8c-0.3,0.3-2.2-1.2-5-1.3s-4.8,1.3-5.1,0.9c-0.1-0.2,0.2-0.8,1.1-1.4
		c1.2-0.8,2.7-1.2,4.1-1.2s2.8,0.5,4,1.4C504,58,504.3,58.7,504.2,58.8"/>
	<path id="Path_1824" class="st2" d="M501.3,64.3c-0.1,1.2-1.1,2.1-2.3,2.1c-1.2,0-2.2-0.9-2.2-2.1c0,0,0,0,0-0.1
		c0.1-1.2,1.1-2.1,2.3-2.1C500.3,62.1,501.3,63.1,501.3,64.3L501.3,64.3"/>
	<path id="Path_1825" class="st1" d="M604.8,124.9c0-4.8-4.6-4.8-4.6-4.8c-1.8-2.3-3.7-1.5-3.7-1.5l-7.4,5c-1.1,1.9-8.3,9-8.3,9
		c-2-1.5-2-4.4-4.3-8c-2.4-3.6-7.7-3.1-7.7-3.1s4.2,9.4,4.6,15.3c0.4,5.9-3.2,22.2-3.2,22.2l21,5.9c0,0,1.3-9,3.7-9.7
		c2.8-0.9,4.4-5.1,4.4-5.1c3.1-6.2,9.3-15.3,10.2-19.9C610.3,125.7,604.8,124.9,604.8,124.9"/>
	<path id="Path_1826" class="st4" d="M448.3,114.5c13.4,8.4,26.9,11.6,40.6,6.1l20.6,5.3l20.2,135.2l-118.7,1l5.8-31.4l14.7-112.8
		L448.3,114.5z"/>
	<path id="Path_1827" class="st4" d="M509.5,125.9c0,0,16,6.6,22.1,18.3s15.9,44.3,15.9,44.3l18.1-33.2l33.6,8.6
		c0,0-25,68.9-31.2,75.2c-6.9,6.9-25.6,13.8-34.7,8.4s-11-25.6-11-25.6L509.5,125.9z"/>
	<path id="Path_1828" class="st2" d="M510.6,182.4c-0.1,0-0.2-6-0.2-13.4s0.1-13.4,0.2-13.4s0.2,6,0.2,13.4
		C510.7,176.4,510.7,182.4,510.6,182.4"/>
	<path id="Path_1829" class="st2" d="M516.8,133.6c-0.2,0.8-0.5,1.5-0.8,2.2c-0.5,1.4-1.2,3.2-1.8,5.4c-0.7,2.1-1.2,4-1.5,5.4
		c-0.2,0.8-0.4,1.5-0.6,2.3c0-0.2,0-0.4,0.1-0.6c0.1-0.4,0.2-1,0.3-1.7c0.3-1.4,0.8-3.4,1.4-5.5c0.7-2.1,1.4-4,1.9-5.3
		c0.3-0.7,0.5-1.2,0.7-1.6C516.6,134,516.7,133.8,516.8,133.6"/>
	<path id="Path_1830" class="st4" d="M429.4,168.5l3.7-50.9c0,0-27.9,2.6-37.2,22.3c-7.8,16.6-29.3,66.6-31.6,73.4
		c-6.8,20.1,3.8,47.6,47.3,46l5-27.3L429.4,168.5z"/>
	<path id="Path_1831" class="st2" d="M398.1,237.7c0.1-0.2,0.1-0.3,0.2-0.5l0.7-1.4c0.6-1.2,1.6-2.9,2.7-5l0.9-1.7
		c0.3-0.6,0.7-1.2,1.3-1.6c0.6-0.4,1.4-0.7,2.1-0.6c0.8,0,1.6,0.2,2.3,0.4c1.6,0.4,3.2,1,4.7,1.8c0.8,0.4,1.5,0.9,2.2,1.4l0.3,0.2
		c0.1,0.1,0.2,0.2,0.2,0.3c0.1,0.2,0.1,0.5,0.1,0.7c0,0.5,0,0.9,0,1.4c-0.1,1.8-0.3,3.6-0.5,5.3s-0.5,3.4-0.8,4.9
		c-0.5,3.1-1.1,5.9-1.5,8.3c-0.5,2.3-0.8,4.2-1.1,5.6c-0.1,0.6-0.2,1.1-0.3,1.5c0,0.2-0.1,0.4-0.1,0.5c0-0.2,0-0.4,0-0.5
		c0-0.4,0.1-0.9,0.2-1.5c0.2-1.4,0.6-3.3,1-5.6c0.4-2.4,0.9-5.2,1.4-8.3c0.3-1.6,0.5-3.2,0.7-4.9s0.4-3.5,0.5-5.3c0-0.4,0-0.9,0-1.3
		c0-0.2-0.1-0.4-0.1-0.6c0-0.1-0.1-0.2-0.1-0.2l-0.2-0.2c-0.7-0.5-1.4-1-2.2-1.4c-1.5-0.7-3-1.3-4.6-1.8c-0.7-0.2-1.5-0.3-2.2-0.4
		c-0.7,0-1.4,0.2-2,0.5c-0.5,0.4-0.9,0.9-1.2,1.5c-0.3,0.6-0.6,1.1-0.9,1.6l-2.8,5c-0.3,0.6-0.6,1-0.8,1.3
		C398.3,237.4,398.3,237.6,398.1,237.7"/>
	<path id="Path_1832" class="st2" d="M378,213.5c0.1,0,0.2,0,0.3,0h0.9c0.8,0,2,0.1,3.4,0.2c1.7,0.1,3.4,0.4,5.1,0.7
		c2.1,0.4,4.1,1.1,6,2s3.7,2.1,5.2,3.5c1.3,1.1,2.4,2.5,3.2,4c0.5,1,0.9,2.2,1,3.3c0,0.3,0,0.6,0,0.9c0,0.1,0,0.2,0,0.3
		c0,0,0-0.5-0.1-1.3c-0.1-1.1-0.5-2.2-1-3.2c-0.8-1.5-1.9-2.8-3.2-3.9c-1.6-1.4-3.3-2.5-5.2-3.4c-1.9-0.9-3.9-1.5-5.9-2
		c-1.7-0.4-3.3-0.6-5-0.8c-1.4-0.2-2.6-0.3-3.4-0.3l-0.9-0.1C378.2,213.6,378.1,213.5,378,213.5"/>
	<path id="Path_1833" class="st2" d="M407.8,210.9c-0.2,0.7-0.4,1.4-0.7,2c-0.5,1.2-1.2,2.9-2,4.7l-2.1,4.7
		c-0.3,0.7-0.6,1.3-0.9,1.9c0.2-0.7,0.4-1.4,0.7-2c0.5-1.2,1.2-2.9,2-4.7s1.5-3.4,2.1-4.7C407.2,212.2,407.5,211.6,407.8,210.9"/>
	<path id="Path_1834" class="st2" d="M423.3,170.8c-0.1,0-0.2-3.2-0.2-7.2s0.1-7.2,0.2-7.2s0.2,3.2,0.2,7.2S423.4,170.8,423.3,170.8
		"/>
	<g id="Group_475" transform="translate(164.938 305.165)" class="st5">
		<g id="Group_474">
			<g>
				<g>
					<defs>
						<rect id="SVGID_1_" x="223.6" y="-76.6" width="14.5" height="19.6"/>
					</defs>
					<clipPath id="SVGID_2_">
						<use xlink:href="#SVGID_1_"  style="overflow:visible;"/>
					</clipPath>
					<g id="Group_473" class="st6">
						<path id="Path_1835" d="M238.2-76.6c-7.3,2.6-12.3,9.2-14.3,16.7c-0.2,0.8-0.4,1.7,0.2,2.3c0.6,0.6,1.6,0.7,2.3,0.2
							s1.2-1.1,1.6-1.9C231.5-64.9,234.9-70.1,238.2-76.6"/>
					</g>
				</g>
			</g>
		</g>
	</g>
	<g id="Group_478" transform="translate(141.112 281.227)" class="st5">
		<g id="Group_477">
			<g>
				<g>
					<defs>
						<rect id="SVGID_3_" x="229.7" y="-70.5" width="31.3" height="13.5"/>
					</defs>
					<clipPath id="SVGID_4_">
						<use xlink:href="#SVGID_3_"  style="overflow:visible;"/>
					</clipPath>
					<g id="Group_476" class="st7">
						<path id="Path_1836" d="M252.9-67.2c-3.9-2-8.2-3.2-12.6-3.3c-1.7-0.1-3.4,0.1-5.1,0.4c-2.3,0.5-4.9,1.6-5.4,3.3
							c5.3-1.7,13-0.6,18.4,0.6c5.4,1.1,10.1,4.4,12.9,9.1C259.6-61.3,256.7-64.9,252.9-67.2"/>
					</g>
				</g>
			</g>
		</g>
	</g>
	<path id="Path_1837" class="st2" d="M419.2,149.1c-0.1-0.3-0.2-0.5-0.3-0.8c-0.1-0.5-0.4-1.3-0.7-2.2c-1.6-4.8-4.2-9.2-7.6-12.9
		c-0.7-0.7-1.2-1.3-1.6-1.6c-0.2-0.2-0.4-0.4-0.6-0.6c0.2,0.1,0.5,0.3,0.7,0.5c0.4,0.3,1,0.9,1.7,1.6c3.6,3.7,6.2,8.1,7.6,13
		c0.3,0.9,0.5,1.7,0.6,2.2C419.1,148.6,419.2,148.9,419.2,149.1"/>
	<path id="Path_1838" class="st8" d="M429.4,262.1L398.3,187c-1.4-3.4,0.4-6.2,4-6.2h6.3c2.6,0,4.3-1.4,4.5-3.6l0.2-2.8
		c0.2-2.2,1.9-3.6,4.5-3.6h29.8c2.6,0.1,5.1,1.2,6.9,3l2.4,2.3c1.8,1.8,4.3,2.9,6.9,3h37.9c3.6,0,7.7,2.8,9,6.2l30.9,76.6H429.4
		V262.1z"/>
	<path id="Path_1839" class="st9" d="M424.3,236.6l-11.7-45.4c-0.8-3,1.2-6,3.9-6h92c1.9,0.1,3.5,1.5,3.9,3.4l17.1,68.3
		c0.7,3-0.4,4.8-3.2,4.8h-92.6c-1.9-0.1-3.5-1.5-3.9-3.4L424.3,236.6z"/>
	<path id="Path_1840" class="st10" d="M430.7,260.1l-5-71.5c-0.2-2.4,1.7-4.5,4.1-4.7c0.1,0,0.2,0,0.3,0h95.3v76.2H430.7z"/>
	<path id="Path_1841" class="st11" d="M429.6,261.7l11.3-73.7c0.5-2.4,2.7-4.1,5.2-4.1h96.4c2.9,0,5.2,2.3,5.3,5.1
		c0,0.7-0.1,1.5-0.4,2.1l-20.8,67.4L429.6,261.7z"/>
	<path id="Path_1842" class="st12" d="M429.4,262.1l23.4-69c0.9-2.8,3.5-4.8,6.5-4.8h99.4c2.7,0.1,4.8,2.3,4.7,5
		c0,0.5-0.1,1-0.3,1.4l-21.8,67.4H429.4z"/>
	<g id="Group_481" transform="translate(222.355 294.844)" class="st5">
		<g id="Group_480">
			<g>
				<g>
					<defs>
						<rect id="SVGID_5_" x="209.1" y="-74" width="47.6" height="41.2"/>
					</defs>
					<clipPath id="SVGID_6_">
						<use xlink:href="#SVGID_5_"  style="overflow:visible;"/>
					</clipPath>
					<g id="Group_479" class="st13">
						<path id="Path_1843" d="M255.2-44.3c0,0-3.8,0.2-5.5,0.3c-8.3,0.6-16.6-0.9-24.2-4.3c-2.3-1-4.8-2.5-5.5-5
							c-0.8-2.8,1-5.6,3.2-7.5s4.8-3.2,6.7-5.4s2.8-5.6,0.9-7.8l-0.5,0.4c-1.3,3.4-5.1,5.1-8.2,7c-5.8,3.7-10.1,9.3-12.1,15.9
							c-1.1,3.6-1.4,7.7,0.8,10.8c1.5,2.2,4.1,3.4,6.5,4.3c7.5,2.8,15.6,2.9,23.6,2.9c2.5,0,10.3-0.1,10.3-0.1
							c2.4-0.7,3.3-1.9,4.7-4C257.2-38.7,256.9-42.8,255.2-44.3"/>
					</g>
				</g>
			</g>
		</g>
	</g>
	<path id="Path_1844" class="st1" d="M477.5,250.5l-25.9-3.9l-10.1-5.8c-1.3-0.7-2.2-2.1-2.3-3.7V237c-0.1-1.9,1.1-3.7,2.8-4.4
		c3.2-1.3,8.3-3.1,10.4-6.9c3.1-5.4,0-6.6,0-6.6l-21.7,8.7l-15.3,10.4l-3.1,17.4l21.4,7c0,0,23.8,1.3,30.4,0.6
		c6.6-0.7,6.6-3.8,6.6-3.8c1.2-0.4,3.7-2.5,3.7-4.6C477.6,251.9,477.5,250.5,477.5,250.5"/>
	<path id="Path_1848" class="st14" d="M546.3,94.3c-2.2,0.5-3.6,2.7-3.1,4.9l12.2,55.8c0.5,2.2,2.7,3.6,4.9,3.1l39.8-8.7
		c2.2-0.5,3.6-2.7,3.1-4.9l-9.5-43.8l-19.4-12.5L546.3,94.3z"/>
	<path id="Path_1849" class="st15" d="M581.6,103.3l11.9-2.6l-19.4-12.5l2.6,11.9C577.2,102.4,579.4,103.8,581.6,103.3"/>
	<path id="Path_1850" class="st16" d="M596.1,112.7l-14.6-9.3l11.9-2.6L596.1,112.7z"/>
	<path id="Path_1851" class="st17" d="M593.4,138.3c0.2,1.1-0.5,2.2-1.6,2.4l-43.8,9.5c-1.1,0.2-2.2-0.5-2.4-1.6l-4.3-19.9
		c-0.2-1.1,0.5-2.2,1.6-2.4l43.8-9.5c1.1-0.2,2.2,0.5,2.4,1.6L593.4,138.3z"/>
	<path id="Path_1852" class="st18" d="M551.2,132.8c-0.1-0.6,0.2-1.2,0.8-1.3l3.7-0.8c2.2-0.4,4.4,1,4.8,3.2
		c0.4,2.2-0.9,4.3-3.1,4.8l-2.7,0.6l0.5,2.1c0.2,0.5-0.1,1.1-0.7,1.3h-0.1c-0.6,0.1-1.2-0.2-1.3-0.8l0,0L551.2,132.8z M553.5,133.2
		l0.9,4l2.7-0.6c1.1-0.3,1.7-1.4,1.5-2.5c-0.3-1-1.3-1.7-2.3-1.5L553.5,133.2z"/>
	<path id="Path_1853" class="st18" d="M565.2,140.3c-0.5,0.2-1.1-0.1-1.3-0.6v-0.1l-2-9c-0.1-0.6,0.3-1.1,0.9-1.2l3.6-0.8
		c7.3-1.6,9.5,9.5,2.5,11L565.2,140.3z M564.3,131l1.6,7.1l2.6-0.6c4.3-0.9,2.9-8.1-1.6-7.1L564.3,131z"/>
	<path id="Path_1854" class="st18" d="M576.6,128.4l0.6,2.5l4.1-0.9c0.6-0.1,1.2,0.3,1.4,0.9c0,0.6-0.4,1.1-0.9,1.2l-4.1,0.9
		l0.7,3.3c0.1,0.5-0.2,1-0.7,1.2c0,0,0,0-0.1,0c-0.5,0.2-1.1-0.1-1.3-0.6v-0.1l-2-9c-0.1-0.6,0.2-1.1,0.8-1.2h0.1l5.6-1.2
		c0.5-0.2,1.1,0.1,1.3,0.6v0.1c0.1,0.6-0.3,1.2-0.9,1.3L576.6,128.4L576.6,128.4z"/>
	<path id="Path_1855" class="st16" d="M591.8,140.7L554,149l0.4,2l37.8-8.2c1.1-0.2,1.8-1.3,1.6-2.4l-0.4-2
		C593.6,139.4,592.9,140.5,591.8,140.7"/>
	<path id="Path_1856" class="st16" d="M596.1,112.7l-14.6-9.3l11.9-2.6L596.1,112.7z"/>
	<path id="Path_1857" class="st16" d="M591.8,140.7L554,149l0.4,2l37.8-8.2c1.1-0.2,1.8-1.3,1.6-2.4l-0.4-2
		C593.6,139.4,592.9,140.5,591.8,140.7"/>
	<path id="Path_1858" class="st1" d="M592.4,110.6c0,0,3.4-4.3,6-1.9s1.9,3.6-0.6,7.5c0,0,5.6-0.3,3.8,5.4c0,0,5.5-0.6,5,4.1
		c0,0,4.2,4.1,2,6.7c-2.2,2.6-10.1,7.4-12.1,6.6c-2-0.8-2-3.6-2-3.6s-2.4-1.1-3-2.3s0.5-3,0.5-3s-2-2-2.5-2.6s0.3-3.2,0.3-3.2
		l3.2-3.1c0,0-4.4,1.9-5.3,1.2c-0.9-0.7-1.9-1.4-1-2.7c1.4-1.5,2.9-3,4.5-4.3L592.4,110.6z"/>
	<path id="Path_1859" class="st0" d="M595,135.7c0.4-0.6,0.9-1.2,1.4-1.7c1.1-1.5,2.5-2.7,4.1-3.7c1.6-0.9,3.1-1.9,4.6-2.9
		c0.5-0.5,1.1-1,1.6-1.6c-0.2,0.7-0.7,1.4-1.3,1.9c-1.4,1.2-2.9,2.2-4.5,3.1c-1.5,1-2.9,2.2-4.1,3.5
		C596.2,134.8,595.6,135.3,595,135.7"/>
	<path id="Path_1860" class="st0" d="M591.9,130.9c-0.1-0.1,1.9-2.3,4.6-4.9c1.3-1.3,2.4-2.5,3.4-3.3c0.5-0.5,1.1-0.8,1.7-1
		c0,0.1-0.6,0.5-1.5,1.3s-2,2.1-3.3,3.4C594.2,128.9,592,131,591.9,130.9"/>
	<path id="Path_1861" class="st0" d="M592.9,121.1c-0.1-0.1,1.2-1.1,2.6-2.5c1.4-1.3,2.1-2.7,2.3-2.7c0.1,0-0.4,1.7-1.9,3.1
		C594.4,120.4,593,121.2,592.9,121.1"/>
	<path id="Path_1862" class="st0" d="M592.4,110.6c0,0.1,0,0.2-0.1,0.3c-0.1,0.2-0.1,0.5-0.2,0.9c-0.2,0.8-0.5,2-0.9,3.5l0,0l0,0
		c-0.6,0.6-1.4,1.2-2.1,1.9c-0.9,0.8-1.7,1.6-2.4,2.5c-0.2,0.2-0.3,0.5-0.2,0.8s0.2,0.6,0.4,0.8c0.2,0.2,0.5,0.4,0.8,0.6
		s0.6,0.2,0.9,0.2c1.5-0.3,2.9-0.7,4.3-1.3l1-0.4l-0.8,0.8l-3.2,3.1v-0.1c-0.5,1-0.6,2.2-0.2,3.2c0.7,1,1.5,1.9,2.5,2.6l0.2,0.2
		l-0.2,0.2c-0.7,0.8-1.2,2.1-0.3,2.9c0.9,0.8,1.9,1.5,3,2.1l-0.4,0.2v-0.1l0,0l0,0c0.1,0.1-0.1-0.2,0.1,0.2c0.7-0.3,0.2-0.1,0.4-0.2
		l0,0l0,0v0.1v0.3c0,0.2,0,0.3,0,0.5c0,0.3,0.1,0.7,0.3,1c0.1,0.3,0.3,0.6,0.6,0.8c0.2,0.2,0.5,0.4,0.8,0.5c0.7,0,1.4-0.1,2.1-0.4
		c0.7-0.3,1.4-0.6,2.1-0.9c1.3-0.7,2.5-1.4,3.7-2.2s2.3-1.7,3.3-2.7c0.5-0.4,0.8-1,0.8-1.7c0-0.6-0.1-1.3-0.3-1.9
		c-0.5-1.2-1.3-2.3-2.2-3.2l-0.1-0.1v-0.1c0.1-0.6,0-1.2-0.2-1.8c-0.2-0.6-0.6-1-1.1-1.3c-1.1-0.6-2.2-0.8-3.4-0.7h-0.3l0.1-0.3
		c0.1-0.3,0.2-0.7,0.3-1s0.1-0.7,0.1-1c0-0.7-0.2-1.3-0.6-1.8c-0.9-0.9-2.1-1.4-3.3-1.3h-0.4l0.2-0.3c0.7-0.9,1.2-1.9,1.8-2.9
		c0.2-0.5,0.4-0.9,0.5-1.4c0-0.5-0.1-0.9-0.3-1.3c-0.4-0.8-1-1.4-1.7-1.9c-0.6-0.4-1.4-0.4-2.1-0.2c-1,0.3-1.9,0.9-2.6,1.6
		C592.8,110.1,592.7,110.3,592.4,110.6C592.5,110.5,592.5,110.6,592.4,110.6c0-0.1,0.1-0.2,0.2-0.2c0.2-0.2,0.4-0.4,0.5-0.6
		c0.3-0.3,0.6-0.6,1-0.9c0.5-0.4,1-0.7,1.6-0.9c0.8-0.3,1.6-0.2,2.3,0.2l0.5,0.4l0.5,0.5c0.3,0.3,0.6,0.7,0.9,1.1
		c0.3,0.5,0.4,1,0.3,1.5c-0.1,0.5-0.2,1.1-0.5,1.6c-0.5,1-1.1,2-1.8,3l-0.2-0.3c0.7,0,1.3,0.1,1.9,0.3c0.7,0.2,1.3,0.6,1.7,1.1
		c0.5,0.6,0.7,1.3,0.7,2.1c0,0.4,0,0.7-0.1,1.1s-0.2,0.7-0.3,1.1l-0.2-0.3c1.3-0.1,2.6,0.1,3.7,0.7c0.6,0.4,1.1,0.9,1.3,1.6
		s0.3,1.4,0.2,2.1l-0.1-0.2c1,1,1.8,2.1,2.3,3.3c0.3,0.7,0.4,1.4,0.4,2.1c0,0.4-0.1,0.7-0.3,1.1c-0.2,0.3-0.4,0.6-0.7,0.9
		c-1,1-2.1,1.9-3.3,2.7s-2.5,1.6-3.8,2.3c-0.7,0.4-1.4,0.7-2.1,1c-0.7,0.3-1.6,0.5-2.4,0.4c-0.8-0.2-1.5-0.8-1.8-1.6
		c-0.2-0.4-0.3-0.7-0.3-1.1c0-0.2,0-0.4-0.1-0.6v-0.3v-0.2l0,0l0,0c0.2-0.1-0.4,0.1,0.4-0.2c0.3,0.4,0.1,0.1,0.1,0.2l0,0v0.1v0.1
		v0.4l-0.3-0.2c-1.2-0.6-2.2-1.3-3.2-2.2c-0.2-0.2-0.4-0.5-0.5-0.9c-0.1-0.3-0.1-0.7,0-1c0.1-0.6,0.4-1.2,0.9-1.7v0.4
		c-1.1-0.7-2-1.7-2.7-2.8c-0.3-0.6-0.4-1.2-0.3-1.9c0.1-0.6,0.2-1.2,0.5-1.8l0,0l0,0l3.2-3.1l0.2,0.4c-1.4,0.6-2.9,1.1-4.5,1.3
		c-0.4,0.1-0.8,0-1.1-0.3c-0.3-0.2-0.6-0.4-0.8-0.7c-0.3-0.3-0.5-0.6-0.5-1s0.1-0.7,0.3-1c0.7-0.9,1.6-1.8,2.5-2.6
		c0.8-0.7,1.5-1.4,2.2-1.9v0.1c0.4-1.5,0.8-2.6,1-3.5c0.1-0.4,0.2-0.7,0.3-0.9C592.3,110.8,592.3,110.7,592.4,110.6"/>
	<g>
		<rect id="Rectangle_304" x="359.8" y="12.1" class="st10" width="18.3" height="31.5"/>
		<rect id="Rectangle_305" x="308.9" y="4.8" class="st10" width="14.4" height="39.3"/>
		<path id="Path_1788" class="st11" d="M308.7,7.6c2.5-0.2,4.9-0.3,7.4-0.2c2.5-0.1,4.9,0,7.4,0.2c-2.5,0.2-4.9,0.3-7.4,0.2
			C313.6,7.9,311.1,7.8,308.7,7.6"/>
		<path id="Path_1789" class="st11" d="M309.5,9.5c2.3-0.2,4.6-0.3,7-0.2c2.3-0.1,4.7,0,7,0.2c-2.3,0.2-4.6,0.3-7,0.2
			C314.1,9.8,311.8,9.7,309.5,9.5"/>
		<path id="Path_1790" class="st11" d="M315.7,36.3c-0.1,0-0.2-5.2-0.2-11.6s0.1-11.6,0.2-11.6s0.2,5.2,0.2,11.6
			S315.8,36.3,315.7,36.3"/>
		<path id="Path_1791" class="st11" d="M308.9,39.9c2.3-0.2,4.7-0.3,7.1-0.2c2.4-0.1,4.7,0,7.1,0.2c-2.3,0.2-4.7,0.3-7.1,0.2
			C313.6,40.2,311.2,40.2,308.9,39.9"/>
		<path id="Path_1792" class="st11" d="M308.9,41.6c2.4-0.2,4.8-0.3,7.2-0.2c2.4-0.1,4.8,0,7.2,0.2c-2.4,0.2-4.8,0.3-7.2,0.2
			C313.7,41.9,311.3,41.9,308.9,41.6"/>
		<rect id="Rectangle_306" x="323.3" y="0.5" class="st9" width="11.6" height="43.6"/>
		<path id="Path_1793" class="st11" d="M323.2,20.5c0.6,0.4,1.2,0.8,1.8,1.2c1.2,0.9,2.6,2,4.2,3.2l4.2,3.2c0.6,0.4,1.2,0.9,1.7,1.4
			c-0.7-0.3-1.3-0.7-1.9-1.1c-1.1-0.8-2.6-1.8-4.3-3.1c-1.6-1.2-3.1-2.4-4.1-3.3C324.2,21.6,323.7,21.1,323.2,20.5"/>
		<path id="Path_1794" class="st11" d="M323.2,13.7c2.1,1.5,4,3.1,5.9,4.8c2,1.6,3.9,3.3,5.6,5.1c-2.1-1.5-4-3.1-5.9-4.8
			C326.8,17.2,324.9,15.5,323.2,13.7"/>
		<rect id="Rectangle_307" x="272.9" y="2.6" class="st10" width="5.5" height="41.5"/>
		<path id="Path_1795" class="st11" d="M273.1,8.3c0,0.1,1.2,0.3,2.6,0.3s2.6-0.1,2.6-0.3c0-0.1-1.2-0.3-2.6-0.3
			C274.3,8,273.1,8.1,273.1,8.3"/>
		<path id="Path_1796" class="st11" d="M273,7.4c0,0.1,1.2,0.3,2.6,0.3s2.6-0.1,2.6-0.3s-1.2-0.3-2.6-0.3S273,7.2,273,7.4"/>
		<path id="Path_1797" class="st11" d="M273.1,40.9c0,0.1,1.2,0.3,2.6,0.3s2.6-0.1,2.6-0.3s-1.2-0.3-2.6-0.3
			C274.3,40.7,273.1,40.8,273.1,40.9"/>
		<path id="Path_1798" class="st11" d="M273,40c0,0.1,1.2,0.3,2.6,0.3s2.6-0.1,2.6-0.3c0-0.1-1.2-0.3-2.6-0.3
			C274.2,39.8,273,39.9,273,40"/>
		<path id="Path_1799" class="st11" d="M275.8,34.6c0.1,0,0.3-4.8,0.3-10.6s-0.1-10.6-0.3-10.6s-0.3,4.8-0.3,10.6
			S275.7,34.6,275.8,34.6"/>
		<rect id="Rectangle_308" x="297.7" y="2.4" class="st9" width="11.1" height="41.5"/>
		<path id="Path_1800" class="st11" d="M305.7,44.4c0.1-0.1,0.1-0.1,0.1-0.2c0.1-0.1,0.2-0.4,0.3-0.7c0.4-0.9,0.7-1.8,0.8-2.8
			c0.3-1.6,0.1-3.2-0.6-4.6c-0.5-0.9-1.1-1.6-2-2.2c-0.9-0.6-2.1-0.9-3.2-0.8c-0.6,0.1-1.2,0.4-1.7,0.8c-0.5,0.4-0.8,1.1-0.8,1.7
			c0.1,0.7,0.4,1.3,0.9,1.8s1.2,0.7,1.9,0.8c1.5,0.1,2.9-0.4,3.9-1.4c1.1-1.1,1.8-2.5,1.9-4c0.2-1.6,0-3.1-0.6-4.6
			c-0.5-1.6-1.4-3-2.7-4c-0.7-0.5-1.5-0.9-2.4-0.9c-0.9-0.1-1.8,0.2-2.5,0.9c-0.3,0.4-0.5,0.8-0.6,1.3c0,0.5,0.1,1,0.4,1.4
			c0.5,0.8,1.3,1.3,2.2,1.5c1.8,0.4,3.7-0.3,4.9-1.6c1.1-1.3,1.8-3,1.9-4.7c0.2-1.6,0-3.3-0.5-4.8s-1.5-2.8-2.9-3.7
			c-1.3-0.8-2.9-1-4.4-0.5c-0.7,0.3-1.3,0.9-1.4,1.7c-0.1,0.7,0.1,1.5,0.5,2.1c0.9,1.1,2.4,1.4,3.7,1c1.2-0.4,2.2-1.1,2.9-2.1
			c1.3-1.6,2.1-3.6,2.2-5.7c0.1-1.6-0.3-3.1-1-4.5c-0.4-0.9-1-1.7-1.7-2.4c-0.2-0.2-0.4-0.3-0.6-0.5c-0.1-0.1-0.1-0.1-0.2-0.1
			c1,0.9,1.8,1.9,2.4,3.1c0.7,1.4,1,2.9,0.9,4.4c-0.1,2-0.9,3.9-2.2,5.5c-0.7,0.9-1.7,1.6-2.8,1.9c-1.2,0.4-2.5,0.1-3.3-0.9
			c-0.4-0.5-0.5-1.1-0.4-1.7c0.1-0.6,0.6-1.1,1.2-1.4c1.3-0.5,2.8-0.3,4,0.5c1.3,0.8,2.2,2,2.6,3.4c0.5,1.5,0.6,3.1,0.4,4.6
			c-0.1,1.6-0.7,3.1-1.8,4.4c-1.1,1.2-2.8,1.8-4.4,1.5c-0.8-0.2-1.5-0.6-1.9-1.3c-0.5-0.6-0.4-1.5,0.1-2c0.6-0.5,1.3-0.8,2.1-0.7
			c0.8,0.1,1.5,0.4,2.1,0.8c1.2,1,2.1,2.3,2.6,3.8c0.5,1.4,0.7,2.9,0.6,4.4c-0.1,1.4-0.8,2.7-1.8,3.7c-0.9,0.9-2.2,1.4-3.6,1.3
			c-1.2-0.1-2.3-0.9-2.5-2.2c0-0.6,0.2-1.1,0.6-1.4c0.4-0.4,0.9-0.6,1.5-0.7c1-0.1,2.1,0.1,3,0.7c0.8,0.5,1.4,1.2,1.9,2
			c0.7,1.4,0.9,2.9,0.7,4.4c-0.1,1-0.4,1.9-0.7,2.8C305.8,44.1,305.7,44.4,305.7,44.4"/>
		<rect id="Rectangle_309" x="278.4" y="6.1" class="st11" width="19.2" height="37.8"/>
		<path id="Path_1801" class="st9" d="M279,12.4c0,0.1,4.2,0.3,9.3,0.3s9.3-0.1,9.3-0.3s-4.2-0.3-9.3-0.3S279,12.2,279,12.4"/>
		<path id="Path_1802" class="st9" d="M278.8,15.2c0,0.1,4.1,0.3,9.2,0.3s9.2-0.1,9.2-0.3S293,15,288,15S278.8,15.1,278.8,15.2"/>
		<path id="Path_1803" class="st9" d="M278.2,39.6c0,0.1,4.3,0.3,9.7,0.3c5.3,0,9.7-0.1,9.7-0.3c0-0.1-4.3-0.3-9.7-0.3
			C282.5,39.4,278.2,39.5,278.2,39.6"/>
		<path id="Path_1804" class="st9" d="M278.4,36.2c0,0.1,4.2,0.3,9.4,0.3s9.4-0.1,9.4-0.3c0-0.1-4.2-0.3-9.4-0.3
			C282.6,36,278.4,36.1,278.4,36.2"/>
		<rect id="Rectangle_310" x="334.9" y="2.1" class="st10" width="11.1" height="41.5"/>
		<path id="Path_1805" class="st11" d="M342.8,44.1c0.1-0.1,0.1-0.1,0.1-0.2c0.1-0.1,0.2-0.4,0.3-0.7c0.4-0.9,0.7-1.8,0.8-2.8
			c0.3-1.6,0.1-3.2-0.6-4.6c-0.5-0.9-1.1-1.6-2-2.2c-0.9-0.6-2.1-0.9-3.2-0.8c-0.6,0.1-1.2,0.4-1.7,0.8c-0.5,0.4-0.8,1.1-0.8,1.7
			c0.1,0.7,0.4,1.3,0.9,1.8s1.2,0.7,1.9,0.8c1.5,0.1,2.9-0.4,3.9-1.4c1.1-1.1,1.8-2.5,1.9-4c0.2-1.6,0-3.1-0.6-4.6
			c-0.5-1.6-1.4-3-2.7-4c-0.7-0.5-1.5-0.9-2.4-0.9c-0.9-0.1-1.8,0.2-2.5,0.9c-0.3,0.4-0.5,0.8-0.6,1.3c0,0.5,0.1,1,0.4,1.4
			c0.5,0.8,1.3,1.3,2.2,1.5c1.8,0.4,3.7-0.3,4.9-1.6c1.1-1.3,1.8-3,1.9-4.7c0.2-1.6,0-3.3-0.5-4.8s-1.5-2.8-2.9-3.7
			c-1.3-0.8-2.9-1-4.4-0.5c-0.7,0.3-1.3,0.9-1.4,1.7c-0.1,0.7,0.1,1.5,0.5,2.1c0.9,1.1,2.4,1.4,3.7,1c1.2-0.4,2.2-1.1,2.9-2.1
			c1.3-1.6,2.1-3.6,2.2-5.7c0.1-1.6-0.3-3.1-1-4.5c-0.4-0.9-1-1.7-1.7-2.4c-0.2-0.2-0.4-0.3-0.6-0.5c-0.1-0.1-0.1-0.1-0.2-0.1
			c1,0.9,1.8,1.9,2.4,3.1c0.7,1.4,1,2.9,0.9,4.4c-0.1,2-0.9,3.9-2.2,5.5c-0.7,0.9-1.7,1.6-2.8,1.9c-1.2,0.4-2.5,0.1-3.3-0.9
			c-0.4-0.5-0.5-1.1-0.4-1.7c0.1-0.6,0.6-1.1,1.2-1.4c1.3-0.5,2.8-0.3,4,0.5c1.3,0.8,2.2,2,2.6,3.4c0.5,1.5,0.6,3.1,0.4,4.6
			c-0.1,1.6-0.7,3.1-1.8,4.4c-1.1,1.2-2.8,1.8-4.4,1.5c-0.8-0.2-1.5-0.6-1.9-1.3c-0.5-0.6-0.4-1.5,0.1-2c0.6-0.5,1.3-0.8,2.1-0.7
			c0.8,0.1,1.5,0.4,2.1,0.8c1.2,1,2.1,2.3,2.6,3.8c0.5,1.4,0.7,2.9,0.6,4.4c-0.1,1.4-0.8,2.7-1.8,3.7c-0.9,0.9-2.2,1.4-3.6,1.3
			c-1.2-0.1-2.3-0.9-2.5-2.2c0-0.6,0.2-1.1,0.6-1.4c0.4-0.4,0.9-0.6,1.5-0.7c1-0.1,2.1,0.1,3,0.7c0.8,0.5,1.4,1.2,1.9,2
			c0.7,1.4,0.9,2.9,0.7,4.4c-0.1,1-0.4,1.9-0.7,2.8C343,43.8,342.8,44.1,342.8,44.1"/>
		<rect id="Rectangle_311" x="257.5" y="0" class="st9" width="15.4" height="43.6"/>
		<rect id="Rectangle_312" x="346" y="4.8" class="st9" width="14.4" height="38.8"/>
		<path id="Path_1806" class="st11" d="M360.7,24.1c0.7,0.6,1.5,1.2,2.3,1.6c0.9,0.4,1.9,0.7,2.9,0.8c1.2,0.1,2.5-0.1,3.6-0.6
			c1.2-0.5,2.3-1.2,3.5-1.6c1-0.4,2.1-0.5,3.1-0.3c0.7,0.2,1.3,0.5,1.8,1.1c0.2,0.2,0.3,0.4,0.4,0.7c0,0-0.1-0.2-0.5-0.6
			c-0.5-0.5-1.1-0.8-1.8-0.9c-1-0.2-2,0-2.9,0.4c-1.1,0.4-2.2,1.1-3.4,1.6c-1.2,0.5-2.5,0.7-3.8,0.6c-1.1-0.1-2.1-0.4-3-0.9
			c-0.6-0.3-1.2-0.8-1.7-1.3C361,24.6,360.8,24.4,360.7,24.1"/>
		<path id="Path_1807" class="st11" d="M360.4,28c0.7,0.6,1.5,1.2,2.3,1.6c0.9,0.4,1.9,0.7,2.9,0.8c1.2,0.1,2.5-0.1,3.6-0.6
			c1.2-0.5,2.3-1.2,3.5-1.6c1-0.4,2.1-0.5,3.1-0.3c0.7,0.2,1.3,0.5,1.8,1.1c0.2,0.2,0.3,0.4,0.4,0.7c0,0-0.1-0.2-0.5-0.6
			c-0.5-0.5-1.1-0.8-1.8-0.9c-1-0.2-2,0-2.9,0.4c-1.1,0.4-2.2,1.1-3.4,1.6c-1.2,0.5-2.5,0.7-3.8,0.6c-1.1-0.1-2.1-0.4-3-0.9
			c-0.6-0.3-1.2-0.8-1.7-1.3C360.7,28.4,360.5,28.2,360.4,28"/>
		<path id="Path_1808" class="st11" d="M360.6,15.6c0-0.1,4-0.2,8.9-0.2s8.9,0.1,8.9,0.2c0,0.1-4,0.2-8.9,0.2S360.6,15.7,360.6,15.6
			"/>
		<path id="Path_1809" class="st11" d="M354.1,11c-0.4-0.2-0.8-0.2-1.3-0.1c-0.4,0.1-0.8,0.4-1,0.8c-0.2,0.7,0.2,1.5,0.9,1.7
			c0.3,0.1,0.6,0.1,0.9,0c0.4-0.2,0.7-0.6,0.8-1c0.1-0.4,0-0.9-0.2-1.2c0,0,0.1,0.1,0.3,0.3c0.2,0.3,0.2,0.7,0.2,1
			c-0.1,0.6-0.4,1-0.9,1.3c-0.9,0.4-1.9-0.1-2.3-1c-0.2-0.4-0.2-0.9,0-1.3c0.3-0.5,0.7-0.8,1.3-0.9c0.4-0.1,0.7,0,1,0.1
			C354,10.9,354.1,11,354.1,11"/>
		<path id="Path_1810" class="st11" d="M353.2,39.7c-0.1,0-0.2-5.4-0.2-12.2s0.1-12.2,0.2-12.2s0.2,5.4,0.2,12.2
			S353.3,39.7,353.2,39.7"/>
		<rect id="Rectangle_313" x="244" y="43.4" class="st10" width="149.2" height="8.5"/>
		<rect id="Rectangle_314" x="380.1" y="43.4" class="st9" width="13" height="8.5"/>
		<path id="Path_1863" class="st14" d="M340.4,12.5c-2.2,0-4.1,1.8-4.1,4.1v57.1c0,2.2,1.8,4.1,4.1,4.1h40.8c2.2,0,4.1-1.8,4.1-4.1
			V28.8L369,12.5H340.4z"/>
		<path id="Path_1864" class="st15" d="M373.1,28.8h12.2L369,12.5v12.2C369,26.9,370.8,28.7,373.1,28.8"/>
		<path id="Path_1865" class="st16" d="M385.3,41l-12.2-12.2h12.2V41z"/>
		<path id="Rectangle_318" class="st17" d="M330.6,43h44.2c1.3,0,2.4,1.1,2.4,2.4l0,0v19.7c0,1.3-1.1,2.4-2.4,2.4l0,0h-44.2
			c-1.3,0-2.4-1.1-2.4-2.4V45.4C328.2,44.1,329.3,43,330.6,43L330.6,43z"/>
		<path id="Path_1866" class="st18" d="M337.1,51.1c0-0.6,0.5-1.1,1.1-1.1h3.8c2.2,0,4,1.9,4,4.1c0,2.2-1.8,4-4,4h-2.7v2.2
			c0.1,0.6-0.4,1.1-0.9,1.1h-0.1c-0.6,0-1.1-0.5-1.1-1.1l0,0L337.1,51.1z M339.3,52v4h2.7c1.1,0,2-1,2-2.1s-0.9-1.9-2-2L339.3,52
			L339.3,52z"/>
		<path id="Path_1867" class="st18" d="M349.2,61.4c-0.6,0.1-1.1-0.3-1.1-0.9v-0.1v-9.3c0.1-0.6,0.5-1,1.1-1h3.7
			c7.4,0,7.3,11.3,0.1,11.3H349.2z M350.2,52.1v7.3h2.7c4.4,0,4.6-7.3,0-7.3H350.2z"/>
		<path id="Path_1868" class="st18" d="M362.8,52.2v2.6h4.2c0.6,0,1.1,0.5,1.2,1.2c-0.1,0.6-0.6,1-1.2,1h-4.2v3.4c0,0.5-0.4,1-0.9,1
			c0,0,0,0-0.1,0c-0.6,0.1-1.1-0.3-1.1-0.9v-0.1v-9.3c0-0.6,0.5-1,1-1h0.1h5.7c0.6-0.1,1.1,0.3,1.1,0.9v0.1c0,0.6-0.5,1.1-1.1,1.1
			H362.8L362.8,52.2z"/>
		<path id="Path_1869" class="st16" d="M375.1,67.5h-38.7v2h38.7c1.1,0,2-0.9,2-2v-2C377.1,66.6,376.2,67.5,375.1,67.5"/>
		<path id="Path_1870" class="st16" d="M385.3,41l-12.2-12.2h12.2V41z"/>
		<path id="Path_1871" class="st16" d="M375.1,67.5h-38.7v2h38.7c1.1,0,2-0.9,2-2v-2C377.1,66.6,376.2,67.5,375.1,67.5"/>
	</g>
	<g>
		<path id="Path_1872" class="st19" d="M633,30.7l-4.1-30h-0.3c-14.9,0-27,12.1-27,27V28L633,30.7z"/>
		<path id="Path_1873" class="st20" d="M629.2,0.6h-0.3v27.3l13.7,5.5l13.7-5.5v-0.3C656.2,12.7,644.1,0.7,629.2,0.6"/>
		<path id="Path_1874" class="st21" d="M656.2,27.9v0.3c0,14.9-12.1,27-27,27h-0.6c-14.9,0-27-12.1-27-27v-0.3L656.2,27.9z"/>
		<g id="Group_485" transform="translate(397.778 16.456)">
			<g>
				<g>
					<defs>
						<path id="SVGID_7_" d="M202.6-3.5h24.2c1.6,0,2.9,1.3,2.9,2.9v24.2c0,1.6-1.3,2.9-2.9,2.9h-24.2c-1.6,0-2.9-1.3-2.9-2.9V-0.6
							C199.7-2.2,201-3.5,202.6-3.5z"/>
					</defs>
					<clipPath id="SVGID_8_">
						<use xlink:href="#SVGID_7_"  style="overflow:visible;"/>
					</clipPath>
					<g id="Group_484" class="st22">
						
							<linearGradient id="Rectangle_320_1_" gradientUnits="userSpaceOnUse" x1="-980.4855" y1="360.988" x2="-980.4736" y2="360.988" gradientTransform="matrix(47.5868 -27.4753 27.4753 47.5868 36684.3594 -43949.8047)">
							<stop  offset="0" style="stop-color:#BA5434"/>
							<stop  offset="0.5" style="stop-color:#B54A2C"/>
							<stop  offset="1" style="stop-color:#A73A23"/>
						</linearGradient>
						<polygon id="Rectangle_320" class="st23" points="186.7,4 222.3,-16.6 242.8,19 207.2,39.5 						"/>
					</g>
				</g>
			</g>
		</g>
		<path id="Path_1875" class="st24" d="M604.6,17.2c2.2-0.3,4.5-0.5,6.8-0.5c3.1,0,5.3,0.6,6.8,1.8c1.5,1.3,2.4,3.1,2.4,5.1
			c0.1,2-0.7,3.9-2,5.3c-1.7,1.6-4.2,2.3-7.2,2.3c-0.6,0-1.1,0-1.7-0.1V39h-5L604.6,17.2z M609.5,27.3c0.6,0.1,1.1,0.1,1.7,0.1
			c2.7,0,4.3-1.3,4.3-3.6c0-2-1.4-3.3-3.9-3.3c-0.7,0-1.4,0-2.1,0.2V27.3z"/>
	</g>
	<g>
		<path id="Path_1876" class="st25" d="M700.7,105.5l-23.6-0.2l5,29.9c0.2,1.4,1.5,2.3,2.9,2.1l39.5-6.6c1.4-0.2,2.3-1.5,2.1-2.9
			l0,0l-1.8-11L700.7,105.5z"/>
		<path id="Path_1877" class="st26" d="M696.4,79.9L676,83.3c-1.4,0.2-2.3,1.5-2.1,2.9l0,0l1.8,11l25.2,9.6l12.8,2l8.8-5.6
			l-2.3-13.5L696.4,79.9z"/>
		
			<rect id="Rectangle_322" x="676.7" y="95.3" transform="matrix(0.9863 -0.165 0.165 0.9863 -7.4162 114.9709)" class="st27" width="23.2" height="13.7"/>
		<g id="Group_488" transform="translate(521.34 117.248)" class="st28">
			<g id="Group_487">
				<g>
					<g>
						<defs>
							<rect id="SVGID_9_" x="154" y="-25.5" width="24.1" height="36.5"/>
						</defs>
						<clipPath id="SVGID_10_">
							<use xlink:href="#SVGID_9_"  style="overflow:visible;"/>
						</clipPath>
						<g id="Group_486" class="st29">
							<path id="Path_1878" d="M170.4-25.5L154-22.8l5.6,33.7L176,8.2c1.4-0.2,2.3-1.5,2.1-2.9l-4.8-28.7
								C173-24.8,171.7-25.7,170.4-25.5"/>
						</g>
					</g>
				</g>
			</g>
		</g>
		<g id="Group_491" transform="translate(521.642 119.353)" class="st30">
			<g id="Group_490">
				<g>
					<g>
						<defs>
							<rect id="SVGID_11_" x="153.9" y="-26.1" width="22.8" height="36.2"/>
						</defs>
						<clipPath id="SVGID_12_">
							<use xlink:href="#SVGID_11_"  style="overflow:visible;"/>
						</clipPath>
						<g id="Group_489" class="st31">
							<path id="Path_1879" d="M168.9-26l-15,2.5l5.6,33.7l15-2.5c1.4-0.2,2.3-1.5,2.1-2.9L171.8-24C171.6-25.3,170.3-26.3,168.9-26
								"/>
						</g>
					</g>
				</g>
			</g>
		</g>
		<g id="Group_494" transform="translate(521.642 119.353)" class="st30">
			<g id="Group_493">
				<g>
					<g>
						<defs>
							<rect id="SVGID_13_" x="153.9" y="-26.1" width="22.3" height="33.5"/>
						</defs>
						<clipPath id="SVGID_14_">
							<use xlink:href="#SVGID_13_"  style="overflow:visible;"/>
						</clipPath>
						<g id="Group_492" class="st32">
							<path id="Path_1880" d="M168.9-26l-15,2.5l5.2,31l15-2.5c1.4-0.2,2.3-1.5,2.1-2.9l-4.4-26C171.6-25.4,170.3-26.3,168.9-26"/>
						</g>
					</g>
				</g>
			</g>
		</g>
		<g id="Group_497" transform="translate(521.642 119.655)" class="st30">
			<g id="Group_496">
				<g>
					<g>
						<defs>
							<rect id="SVGID_15_" x="153.9" y="-26.2" width="21" height="33.3"/>
						</defs>
						<clipPath id="SVGID_16_">
							<use xlink:href="#SVGID_15_"  style="overflow:visible;"/>
						</clipPath>
						<g id="Group_495" class="st33">
							<path id="Path_1881" d="M167.6-26.1l-13.7,2.3l5.2,31l13.7-2.3c1.4-0.2,2.3-1.5,2.1-2.9l-4.4-26
								C170.2-25.4,169-26.3,167.6-26.1"/>
						</g>
					</g>
				</g>
			</g>
		</g>
		<g id="Group_501" transform="translate(504.114 119.653)">
			<g>
				<g>
					<defs>
						<path id="SVGID_17_" d="M185.1-26.1L160.4-22c-1.4,0.2-2.3,1.5-2.1,2.9l4.1,24.7c0.2,1.4,1.5,2.3,2.9,2.1l0,0L190,3.6
							c1.4-0.2,2.3-1.5,2.1-2.9L188-24.1c-0.2-1.2-1.2-2.1-2.5-2.1C185.4-26.2,185.3-26.1,185.1-26.1"/>
					</defs>
					<clipPath id="SVGID_18_">
						<use xlink:href="#SVGID_17_"  style="overflow:visible;"/>
					</clipPath>
					<g id="Group_500" class="st34">
						
							<linearGradient id="Rectangle_328_1_" gradientUnits="userSpaceOnUse" x1="-1193.6097" y1="356.6596" x2="-1193.6001" y2="356.6596" gradientTransform="matrix(49.6402 -40.9202 40.8979 49.6131 44535.9961 -66296.5156)">
							<stop  offset="0" style="stop-color:#408554"/>
							<stop  offset="0.5" style="stop-color:#3A7C49"/>
							<stop  offset="1" style="stop-color:#2D6437"/>
						</linearGradient>
						<polygon id="Rectangle_328" class="st35" points="141.4,-12.4 178.5,-42.9 209.1,-5.9 172,24.7 						"/>
					</g>
				</g>
			</g>
		</g>
		<path id="Path_1883" class="st36" d="M715.5,76.7l-19.1,3.2l2.3,13.5l21.6-3.6l-1.8-11C718.1,77.4,716.9,76.5,715.5,76.7"/>
		
			<rect id="Rectangle_329" x="701.9" y="104.9" transform="matrix(0.9863 -0.165 0.165 0.9863 -8.6745 119.1524)" class="st27" width="21.9" height="13.7"/>
		<path id="Path_1884" class="st24" d="M685.7,111.1l-8,1.3l0.9,5.2l9-1.5l0.7,4.1l-13.9,2.3l-3.7-21.8l13.5-2.3l0.7,4.1l-8.5,1.4
			l0.8,4.5l8-1.3L685.7,111.1z"/>
	</g>
	<g>
		<path id="Path_1885" class="st25" d="M289.4,229.5l-23.2-4.1v30.3c0,1.4,1.1,2.5,2.5,2.5h40.1c1.4,0,2.5-1.1,2.5-2.5v-11.2
			L289.4,229.5z"/>
		<path id="Path_1886" class="st26" d="M289.4,203.6h-20.7c-1.4,0-2.5,1.1-2.5,2.5l0,0v11.2l23.2,13.7l12.3,4.1l9.6-4.1v-13.7
			L289.4,203.6z"/>
		<rect id="Rectangle_330" x="266.2" y="217.2" class="st27" width="23.2" height="13.7"/>
		<g id="Group_504" transform="translate(46.619 286.326)" class="st28">
			<g id="Group_503">
				<g>
					<g>
						<defs>
							<rect id="SVGID_19_" x="219.6" y="-71.8" width="19.1" height="34.1"/>
						</defs>
						<clipPath id="SVGID_20_">
							<use xlink:href="#SVGID_19_"  style="overflow:visible;"/>
						</clipPath>
						<g id="Group_502" class="st37">
							<path id="Path_1887" d="M236.2-71.8h-16.6v34.1h16.6c1.4,0,2.5-1.1,2.5-2.5v-29.1C238.7-70.7,237.6-71.8,236.2-71.8"/>
						</g>
					</g>
				</g>
			</g>
		</g>
		<g id="Group_507" transform="translate(46.619 288.154)" class="st30">
			<g id="Group_506">
				<g>
					<g>
						<defs>
							<rect id="SVGID_21_" x="219.6" y="-72.3" width="17.8" height="34.1"/>
						</defs>
						<clipPath id="SVGID_22_">
							<use xlink:href="#SVGID_21_"  style="overflow:visible;"/>
						</clipPath>
						<g id="Group_505" class="st38">
							<path id="Path_1888" d="M234.8-72.3h-15.3v34.1h15.3c1.4,0,2.5-1.1,2.5-2.5v-29.1C237.3-71.2,236.2-72.3,234.8-72.3"/>
						</g>
					</g>
				</g>
			</g>
		</g>
		<g id="Group_510" transform="translate(46.619 288.154)" class="st30">
			<g id="Group_509">
				<g>
					<g>
						<defs>
							<rect id="SVGID_23_" x="219.6" y="-72.3" width="17.8" height="31.4"/>
						</defs>
						<clipPath id="SVGID_24_">
							<use xlink:href="#SVGID_23_"  style="overflow:visible;"/>
						</clipPath>
						<g id="Group_508" class="st39">
							<path id="Path_1889" d="M234.8-72.3h-15.3v31.4h15.3c1.4,0,2.5-1.1,2.5-2.5v-26.4C237.3-71.2,236.2-72.3,234.8-72.3"/>
						</g>
					</g>
				</g>
			</g>
		</g>
		<g id="Group_513" transform="translate(46.619 288.154)" class="st30">
			<g id="Group_512">
				<g>
					<g>
						<defs>
							<rect id="SVGID_25_" x="219.6" y="-72.3" width="16.4" height="31.4"/>
						</defs>
						<clipPath id="SVGID_26_">
							<use xlink:href="#SVGID_25_"  style="overflow:visible;"/>
						</clipPath>
						<g id="Group_511" class="st40">
							<path id="Path_1890" d="M233.5-72.3h-13.9v31.4h13.9c1.4,0,2.5-1.1,2.5-2.5v-26.4C236-71.2,234.8-72.3,233.5-72.3"/>
						</g>
					</g>
				</g>
			</g>
		</g>
		<g id="Group_517" transform="translate(28.334 288.154)">
			<g>
				<g>
					<defs>
						<path id="SVGID_27_" d="M227.1-72.3h24.2c1.6,0,2.9,1.3,2.9,2.9l0,0v24.2c0,1.6-1.3,2.9-2.9,2.9l0,0h-24.2
							c-1.6,0-2.9-1.3-2.9-2.9l0,0v-24.2C224.2-71,225.5-72.3,227.1-72.3z"/>
					</defs>
					<clipPath id="SVGID_28_">
						<use xlink:href="#SVGID_27_"  style="overflow:visible;"/>
					</clipPath>
					<g id="Group_516" class="st41">
						
							<linearGradient id="Rectangle_336_1_" gradientUnits="userSpaceOnUse" x1="-235.5639" y1="360.1265" x2="-235.5519" y2="360.1265" gradientTransform="matrix(47.5885 -27.4763 27.4763 47.5885 1523.0897 -23649.4082)">
							<stop  offset="0" style="stop-color:#408554"/>
							<stop  offset="0.5" style="stop-color:#3A7C49"/>
							<stop  offset="1" style="stop-color:#2D6437"/>
						</linearGradient>
						<polygon id="Rectangle_336" class="st42" points="211.2,-64.8 246.7,-85.3 267.3,-49.7 231.7,-29.2 						"/>
					</g>
				</g>
			</g>
		</g>
		<path id="Path_1891" class="st36" d="M308.8,203.6h-19.3v13.7h21.9v-11.2C311.3,204.7,310.1,203.6,308.8,203.6"/>
		<rect id="Rectangle_338" x="289.4" y="230.9" class="st27" width="21.9" height="13.7"/>
		<path id="Path_1892" class="st24" d="M273.7,232.6h-8.1v5.3h9.1v4.1h-14.1v-22.1h13.7v4.1h-8.6v4.6h8.1v4H273.7z"/>
	</g>
	<g>
		<path id="Path_1893" class="st43" d="M326.2,110.7h-40.1c-1.4,0-2.5,1.1-2.5,2.5l0,0v11.2l23.2,6.8l21.9-6.8v-11.2
			C328.7,111.8,327.5,110.7,326.2,110.7"/>
		<path id="Path_1894" class="st44" d="M328.7,124.4h-45.1V138l23.2,4.1l21.9-4.1V124.4z"/>
		<path id="Path_1895" class="st45" d="M283.6,138v13.7l21.9,2.7l23.2-2.7V138H283.6z"/>
		<path id="Path_1896" class="st46" d="M286.1,162.7h40.1c1.4,0,2.5-1.1,2.5-2.5V149h-45.1v11.2
			C283.6,161.6,284.7,162.7,286.1,162.7"/>
		<g id="Group_520" transform="translate(69.892 161.981)" class="st28">
			<g id="Group_519">
				<g>
					<g>
						<defs>
							<rect id="SVGID_29_" x="213.7" y="-40.4" width="19.1" height="34.1"/>
						</defs>
						<clipPath id="SVGID_30_">
							<use xlink:href="#SVGID_29_"  style="overflow:visible;"/>
						</clipPath>
						<g id="Group_518" class="st47">
							<path id="Path_1897" d="M230.3-40.4h-16.6v34.1h16.6c1.4,0,2.5-1.1,2.5-2.5v-29.1C232.8-39.2,231.7-40.4,230.3-40.4"/>
						</g>
					</g>
				</g>
			</g>
		</g>
		<g id="Group_523" transform="translate(69.892 163.809)" class="st30">
			<g id="Group_522">
				<g>
					<g>
						<defs>
							<rect id="SVGID_31_" x="213.7" y="-40.8" width="17.8" height="34.1"/>
						</defs>
						<clipPath id="SVGID_32_">
							<use xlink:href="#SVGID_31_"  style="overflow:visible;"/>
						</clipPath>
						<g id="Group_521" class="st48">
							<path id="Path_1898" d="M228.9-40.8h-15.3v34.1h15.3c1.4,0,2.5-1.1,2.5-2.5v-29.1C231.4-39.7,230.3-40.8,228.9-40.8"/>
						</g>
					</g>
				</g>
			</g>
		</g>
		<g id="Group_526" transform="translate(69.892 163.809)" class="st30">
			<g id="Group_525">
				<g>
					<g>
						<defs>
							<rect id="SVGID_33_" x="213.7" y="-40.8" width="17.8" height="31.4"/>
						</defs>
						<clipPath id="SVGID_34_">
							<use xlink:href="#SVGID_33_"  style="overflow:visible;"/>
						</clipPath>
						<g id="Group_524" class="st49">
							<path id="Path_1899" d="M228.9-40.8h-15.3v31.4h15.3c1.4,0,2.5-1.1,2.5-2.5v-26.4C231.4-39.7,230.3-40.8,228.9-40.8"/>
						</g>
					</g>
				</g>
			</g>
		</g>
		<g id="Group_529" transform="translate(69.892 163.809)" class="st30">
			<g id="Group_528">
				<g>
					<g>
						<defs>
							<rect id="SVGID_35_" x="213.7" y="-40.8" width="16.4" height="31.4"/>
						</defs>
						<clipPath id="SVGID_36_">
							<use xlink:href="#SVGID_35_"  style="overflow:visible;"/>
						</clipPath>
						<g id="Group_527" class="st50">
							<path id="Path_1900" d="M227.6-40.8h-13.9v31.4h13.9c1.4,0,2.5-1.1,2.5-2.5v-26.4C230.1-39.7,229-40.8,227.6-40.8"/>
						</g>
					</g>
				</g>
			</g>
		</g>
		<g id="Group_533" transform="translate(51.607 163.809)">
			<g>
				<g>
					<defs>
						<path id="SVGID_37_" d="M221.2-40.8h24.2c1.6,0,2.9,1.3,2.9,2.9l0,0v24.2c0,1.6-1.3,2.9-2.9,2.9l0,0h-24.2
							c-1.6,0-2.9-1.3-2.9-2.9l0,0v-24.2C218.3-39.5,219.6-40.8,221.2-40.8z"/>
					</defs>
					<clipPath id="SVGID_38_">
						<use xlink:href="#SVGID_37_"  style="overflow:visible;"/>
					</clipPath>
					<g id="Group_532" class="st51">
						
							<linearGradient id="Rectangle_344_1_" gradientUnits="userSpaceOnUse" x1="-282.8049" y1="360.5682" x2="-282.7937" y2="360.5682" gradientTransform="matrix(47.5885 -27.4763 27.4758 47.5876 3738.3223 -24927.9785)">
							<stop  offset="0" style="stop-color:#3767BD"/>
							<stop  offset="0.5" style="stop-color:#2F5CB7"/>
							<stop  offset="1" style="stop-color:#2145A5"/>
						</linearGradient>
						<polygon id="Rectangle_344" class="st52" points="205.3,-33.3 240.9,-53.8 261.4,-18.3 225.8,2.2 						"/>
					</g>
				</g>
			</g>
		</g>
		<path id="Path_1901" class="st24" d="M277.2,147.6l-4.6-19.3h4.7l1.5,7.9c0.4,2.3,0.8,4.8,1.1,6.7h0.1c0.3-2.1,0.8-4.4,1.3-6.8
			l1.6-7.9h4.6l1.5,8.1c0.4,2.3,0.7,4.3,1,6.5h0.1c0.3-2.1,0.7-4.4,1.1-6.7l1.6-7.9h4.4l-5,19.3h-4.7l-1.6-8.3
			c-0.4-1.9-0.7-3.7-0.9-5.9h-0.1c-0.3,2.2-0.7,4-1.1,5.9l-1.8,8.3L277.2,147.6z"/>
	</g>
	<g>
		<path id="Path_1785" class="st10" d="M650.5,206l-29.4,51.5l-58.2,0.8c-1.9,0-3.4,1.5-3.5,3.3l59.2,0.2l2.2-0.1l74.2,0.1l15-25.8
			l19.1-27.4c0.9-1.2,0.6-2.9-0.7-3.8c-0.5-0.3-1-0.5-1.6-0.5l-74,0.3C651.9,204.6,651,205.1,650.5,206"/>
		<path id="Path_1786" class="st9" d="M729.1,206.3c-0.1,0-0.2,0-0.4,0h-1l-4,0.1l-14.7,0.1l-48.6,0.1h-3.5
			c-1.1-0.1-2.1,0.4-2.7,1.3c-1.1,2-2.2,4-3.3,5.9c-2.2,3.9-4.3,7.7-6.3,11.3L634,244.2c-3,5.4-5.5,9.8-7.2,12.8
			c-0.8,1.5-1.5,2.6-2,3.5c-0.2,0.4-0.4,0.7-0.5,0.9c-0.1,0.1-0.1,0.2-0.2,0.3c0-0.1,0.1-0.2,0.1-0.3l0.5-0.9c0.5-0.9,1.1-2,1.9-3.5
			l7-12.9l10.5-19.2c2-3.6,4.1-7.4,6.2-11.3l3.3-6c0.7-1.1,2-1.7,3.3-1.6h3.5H709l14.7,0.1l4,0.1h1
			C728.9,206.3,729,206.3,729.1,206.3"/>
		<path id="Path_1787" class="st18" d="M676.9,232.2c-1.3,1.5-1.3,3.6-0.1,4.7c1.3,1.1,3.4,0.9,4.7-0.6c1.3-1.3,1.3-3.4,0.1-4.7
			C680.3,230.5,678.2,230.7,676.9,232.2"/>
		<path id="Path_1902" class="st43" d="M668.2,204.9h-40.1c-1.4,0-2.5,1.1-2.5,2.5v11.2l23.2,6.8l21.9-6.8v-11.2
			C670.7,206,669.6,204.9,668.2,204.9L668.2,204.9"/>
		<path id="Path_1903" class="st44" d="M670.7,218.6h-45.1v13.7l23.2,4.1l21.9-4.1L670.7,218.6L670.7,218.6z"/>
		<path id="Path_1904" class="st45" d="M625.6,232.2v13.7l21.9,2.7l23.2-2.7v-13.7H625.6z"/>
		<path id="Path_1905" class="st46" d="M628.1,256.9h40.1c1.4,0,2.5-1.1,2.5-2.5v-11.2h-45.1v11.2
			C625.6,255.8,626.8,256.9,628.1,256.9L628.1,256.9"/>
		<g id="Group_536" transform="translate(446.232 288.096)" class="st28">
			<g id="Group_535">
				<g>
					<g>
						<defs>
							<rect id="SVGID_39_" x="179.4" y="-72.3" width="19.1" height="34.1"/>
						</defs>
						<clipPath id="SVGID_40_">
							<use xlink:href="#SVGID_39_"  style="overflow:visible;"/>
						</clipPath>
						<g id="Group_534" class="st53">
							<path id="Path_1906" d="M196-72.3h-16.6v34.1H196c1.4,0,2.5-1.1,2.5-2.5v-29.1C198.5-71.1,197.4-72.3,196-72.3"/>
						</g>
					</g>
				</g>
			</g>
		</g>
		<g id="Group_539" transform="translate(446.232 289.925)" class="st30">
			<g id="Group_538">
				<g>
					<g>
						<defs>
							<rect id="SVGID_41_" x="179.4" y="-72.7" width="17.8" height="34.1"/>
						</defs>
						<clipPath id="SVGID_42_">
							<use xlink:href="#SVGID_41_"  style="overflow:visible;"/>
						</clipPath>
						<g id="Group_537" class="st54">
							<path id="Path_1907" d="M194.7-72.7h-15.3v34.1h15.3c1.4,0,2.5-1.1,2.5-2.5v-29.1C197.2-71.6,196-72.7,194.7-72.7"/>
						</g>
					</g>
				</g>
			</g>
		</g>
		<g id="Group_542" transform="translate(446.232 289.925)" class="st30">
			<g id="Group_541">
				<g>
					<g>
						<defs>
							<rect id="SVGID_43_" x="179.4" y="-72.7" width="17.8" height="31.4"/>
						</defs>
						<clipPath id="SVGID_44_">
							<use xlink:href="#SVGID_43_"  style="overflow:visible;"/>
						</clipPath>
						<g id="Group_540" class="st55">
							<path id="Path_1908" d="M194.7-72.7h-15.3v31.4h15.3c1.4,0,2.5-1.1,2.5-2.5v-26.4C197.2-71.6,196-72.7,194.7-72.7"/>
						</g>
					</g>
				</g>
			</g>
		</g>
		<g id="Group_545" transform="translate(446.232 289.925)" class="st30">
			<g id="Group_544">
				<g>
					<g>
						<defs>
							<rect id="SVGID_45_" x="179.4" y="-72.7" width="16.4" height="31.4"/>
						</defs>
						<clipPath id="SVGID_46_">
							<use xlink:href="#SVGID_45_"  style="overflow:visible;"/>
						</clipPath>
						<g id="Group_543" class="st56">
							<path id="Path_1909" d="M193.3-72.7h-13.9v31.4h13.9c1.4,0,2.5-1.1,2.5-2.5v-26.4C195.8-71.6,194.7-72.7,193.3-72.7"/>
						</g>
					</g>
				</g>
			</g>
		</g>
		<g id="Group_549" transform="translate(427.948 289.925)">
			<g>
				<g>
					<defs>
						<path id="SVGID_47_" d="M187-72.7h24.2c1.6,0,2.9,1.3,2.9,2.9l0,0v24.2c0,1.6-1.3,2.9-2.9,2.9l0,0H187c-1.6,0-2.9-1.3-2.9-2.9
							l0,0v-24.2C184-71.4,185.3-72.7,187-72.7z"/>
					</defs>
					<clipPath id="SVGID_48_">
						<use xlink:href="#SVGID_47_"  style="overflow:visible;"/>
					</clipPath>
					<g id="Group_548" class="st57">
						
							<linearGradient id="Rectangle_351_1_" gradientUnits="userSpaceOnUse" x1="-1040.8533" y1="359.7548" x2="-1040.8413" y2="359.7548" gradientTransform="matrix(47.5868 -27.4753 27.4753 47.5868 39555.7383 -45607.6523)">
							<stop  offset="0" style="stop-color:#3767BD"/>
							<stop  offset="0.5" style="stop-color:#2F5CB7"/>
							<stop  offset="1" style="stop-color:#2145A5"/>
						</linearGradient>
						<polygon id="Rectangle_351" class="st58" points="171,-65.2 206.6,-85.7 227.1,-50.2 191.6,-29.7 						"/>
					</g>
				</g>
			</g>
		</g>
		<g id="Group_550">
			<path id="Path_1910" class="st24" d="M619.3,241.9l-4.6-19.3h4.7l1.5,7.9c0.4,2.3,0.8,4.8,1.1,6.7h0.1c0.3-2.1,0.8-4.4,1.3-6.8
				l1.6-7.9h4.6l1.5,8.1c0.4,2.3,0.7,4.3,1,6.5h0.1c0.3-2.1,0.7-4.4,1.1-6.7l1.6-7.9h4.4l-5,19.3h-4.7l-1.6-8.3
				c-0.4-1.9-0.7-3.7-0.9-5.9H627c-0.3,2.2-0.7,4-1.1,5.9l-1.8,8.3L619.3,241.9z"/>
		</g>
	</g>
</g>
<g id="Circles_2_" transform="translate(-458 -171)">
	<g id="Group_373_2_" transform="translate(1005 299)">
		<g>
			<g>
				<g>
					<defs>
						<rect id="SVGID_49_" x="321" y="-72.8" width="86.2" height="153.1"/>
					</defs>
					<clipPath id="SVGID_50_">
						<use xlink:href="#SVGID_49_"  style="overflow:visible;"/>
					</clipPath>
					<g id="Group_372_2_" transform="translate(0 0.001)" class="st59">
						<path id="Path_1301_2_" class="st3" d="M325.8-72.8c2.7,0,4.8,2.2,4.8,4.8s-2.2,4.8-4.8,4.8c-2.7,0-4.8-2.2-4.8-4.8
							S323.2-72.8,325.8-72.8"/>
						<path id="Path_1302_2_" class="st3" d="M325.8-44c2.7,0,4.8,2.2,4.8,4.8c0,2.6-2.2,4.8-4.8,4.8c-2.7,0-4.8-2.2-4.8-4.8
							C321-41.9,323.2-44,325.8-44"/>
						<path id="Path_1303_2_" class="st3" d="M325.8-15.4c2.7,0,4.8,2.2,4.8,4.8c0,2.7-2.2,4.8-4.8,4.8c-2.7,0-4.8-2.2-4.8-4.8
							S323.2-15.4,325.8-15.4"/>
						<path id="Path_1304_2_" class="st12" d="M325.8,13.4c2.7,0,4.8,2.2,4.8,4.8c0,2.7-2.2,4.8-4.8,4.8c-2.7,0-4.8-2.2-4.8-4.8
							C321,15.5,323.2,13.4,325.8,13.4"/>
						<path id="Path_1305_2_" class="st12" d="M325.8,42c2.7,0,4.8,2.2,4.8,4.8s-2.2,4.8-4.8,4.8c-2.7,0-4.8-2.2-4.8-4.8
							C321,44.2,323.2,42,325.8,42"/>
						<path id="Path_1306_2_" class="st12" d="M325.8,70.8c2.7,0,4.8,2.2,4.8,4.8s-2.2,4.8-4.8,4.8c-2.7,0-4.8-2.2-4.8-4.8
							S323.2,70.8,325.8,70.8"/>
						<path id="Path_1307_2_" class="st3" d="M351.8-72.8c2.7,0,4.8,2.2,4.8,4.8s-2.2,4.8-4.8,4.8c-2.7,0-4.8-2.2-4.8-4.8
							S349.2-72.8,351.8-72.8"/>
						<path id="Path_1308_2_" class="st3" d="M351.8-44c2.7,0,4.8,2.2,4.8,4.8c0,2.6-2.2,4.8-4.8,4.8c-2.7,0-4.8-2.2-4.8-4.8l0,0
							C347-41.9,349.2-44,351.8-44"/>
						<path id="Path_1309_2_" class="st3" d="M351.8-15.4c2.7,0,4.8,2.2,4.8,4.8c0,2.7-2.2,4.8-4.8,4.8c-2.7,0-4.8-2.2-4.8-4.8
							S349.2-15.4,351.8-15.4L351.8-15.4"/>
						<path id="Path_1310_2_" class="st12" d="M351.8,13.4c2.7,0,4.8,2.2,4.8,4.8s-2.2,4.8-4.8,4.8c-2.7,0-4.8-2.2-4.8-4.8
							C347,15.5,349.2,13.4,351.8,13.4L351.8,13.4"/>
						<path id="Path_1311_2_" class="st12" d="M351.8,42c2.7,0,4.8,2.2,4.8,4.8s-2.2,4.8-4.8,4.8c-2.7,0-4.8-2.2-4.8-4.8
							C347,44.2,349.2,42,351.8,42L351.8,42"/>
						<path id="Path_1312_2_" class="st12" d="M351.8,70.8c2.7,0,4.8,2.2,4.8,4.8s-2.2,4.8-4.8,4.8c-2.7,0-4.8-2.2-4.8-4.8
							S349.2,70.8,351.8,70.8L351.8,70.8"/>
						<path id="Path_1313_2_" class="st3" d="M376.4-72.8c2.7,0,4.8,2.2,4.8,4.8c0,2.7-2.2,4.8-4.8,4.8c-2.7,0-4.8-2.2-4.8-4.8
							C371.7-70.6,373.8-72.8,376.4-72.8"/>
						<path id="Path_1314_2_" class="st3" d="M376.4-44c2.7,0,4.8,2.2,4.8,4.8c0,2.7-2.2,4.8-4.8,4.8c-2.7,0-4.8-2.2-4.8-4.8
							C371.7-41.9,373.8-44,376.4-44"/>
						<path id="Path_1315_2_" class="st3" d="M376.4-15.4c2.7,0,4.8,2.2,4.8,4.8c0,2.7-2.2,4.8-4.8,4.8c-2.7,0-4.8-2.2-4.8-4.8
							C371.7-13.2,373.8-15.4,376.4-15.4"/>
						<path id="Path_1316_2_" class="st12" d="M376.4,13.4c2.7,0,4.8,2.2,4.8,4.8c0,2.7-2.2,4.8-4.8,4.8c-2.7,0-4.8-2.2-4.8-4.8
							C371.7,15.5,373.8,13.4,376.4,13.4"/>
						<path id="Path_1317_2_" class="st12" d="M376.4,42c2.7,0,4.8,2.2,4.8,4.8c0,2.7-2.2,4.8-4.8,4.8c-2.7,0-4.8-2.2-4.8-4.8
							C371.7,44.2,373.8,42,376.4,42"/>
						<path id="Path_1318_2_" class="st12" d="M376.4,70.8c2.7,0,4.8,2.2,4.8,4.8c0,2.7-2.2,4.8-4.8,4.8c-2.7,0-4.8-2.2-4.8-4.8
							C371.7,73,373.8,70.8,376.4,70.8"/>
						<path id="Path_1319_2_" class="st3" d="M402.4-72.8c2.7,0,4.8,2.2,4.8,4.8c0,2.7-2.2,4.8-4.8,4.8c-2.7,0-4.8-2.2-4.8-4.8
							S399.8-72.8,402.4-72.8"/>
						<path id="Path_1320_2_" class="st3" d="M402.4-44c2.7,0,4.8,2.2,4.8,4.8c0,2.7-2.2,4.8-4.8,4.8c-2.7,0-4.8-2.2-4.8-4.8l0,0
							C397.6-41.9,399.8-44,402.4-44L402.4-44"/>
						<path id="Path_1321_2_" class="st3" d="M402.4-15.4c2.7,0,4.8,2.2,4.8,4.8c0,2.7-2.2,4.8-4.8,4.8c-2.7,0-4.8-2.2-4.8-4.8
							S399.8-15.4,402.4-15.4L402.4-15.4"/>
						<path id="Path_1322_2_" class="st12" d="M402.4,13.4c2.7,0,4.8,2.2,4.8,4.8c0,2.7-2.2,4.8-4.8,4.8c-2.7,0-4.8-2.2-4.8-4.8
							C397.6,15.5,399.8,13.4,402.4,13.4L402.4,13.4"/>
						<path id="Path_1323_2_" class="st12" d="M402.4,42c2.7,0,4.8,2.2,4.8,4.8c0,2.7-2.2,4.8-4.8,4.8c-2.7,0-4.8-2.2-4.8-4.8
							C397.6,44.2,399.8,42,402.4,42L402.4,42"/>
						<path id="Path_1324_2_" class="st12" d="M402.4,70.8c2.7,0,4.8,2.2,4.8,4.8c0,2.7-2.2,4.8-4.8,4.8c-2.7,0-4.8-2.2-4.8-4.8
							S399.8,70.8,402.4,70.8L402.4,70.8"/>
					</g>
				</g>
			</g>
		</g>
	</g>
	<g id="Group_374_2_" transform="translate(376 299)">
		<g>
			<g>
				<g>
					<defs>
						<rect id="SVGID_51_" x="82" y="-72.8" width="86.2" height="153.1"/>
					</defs>
					<clipPath id="SVGID_52_">
						<use xlink:href="#SVGID_51_"  style="overflow:visible;"/>
					</clipPath>
					<g id="Group_372-2_2_" transform="translate(0 0.001)" class="st60">
						<path id="Path_1301-2_2_" class="st3" d="M86.8-72.8c2.7,0,4.8,2.2,4.8,4.8s-2.2,4.8-4.8,4.8c-2.7,0-4.8-2.2-4.8-4.8
							S84.2-72.8,86.8-72.8"/>
						<path id="Path_1302-2_2_" class="st3" d="M86.8-44c2.7,0,4.8,2.2,4.8,4.8c0,2.6-2.2,4.8-4.8,4.8c-2.7,0-4.8-2.2-4.8-4.8
							C82-41.9,84.2-44,86.8-44"/>
						<path id="Path_1303-2_2_" class="st3" d="M86.8-15.4c2.7,0,4.8,2.2,4.8,4.8c0,2.7-2.2,4.8-4.8,4.8C84.1-5.8,82-8,82-10.6
							S84.2-15.4,86.8-15.4"/>
						<path id="Path_1304-2_2_" class="st12" d="M86.8,13.4c2.7,0,4.8,2.2,4.8,4.8c0,2.7-2.2,4.8-4.8,4.8c-2.7,0-4.8-2.2-4.8-4.8
							C82,15.5,84.2,13.4,86.8,13.4"/>
						<path id="Path_1305-2_2_" class="st12" d="M86.8,42c2.7,0,4.8,2.2,4.8,4.8s-2.2,4.8-4.8,4.8c-2.7,0-4.8-2.2-4.8-4.8
							C82,44.2,84.2,42,86.8,42"/>
						<path id="Path_1306-2_2_" class="st12" d="M86.8,70.8c2.7,0,4.8,2.2,4.8,4.8s-2.2,4.8-4.8,4.8c-2.7,0-4.8-2.2-4.8-4.8
							S84.2,70.8,86.8,70.8"/>
						<path id="Path_1307-2_2_" class="st3" d="M112.8-72.8c2.7,0,4.8,2.2,4.8,4.8c0,2.7-2.2,4.8-4.8,4.8c-2.7,0-4.8-2.2-4.8-4.8
							C107.9-70.6,110.1-72.8,112.8-72.8"/>
						<path id="Path_1308-2_2_" class="st3" d="M112.8-44c2.7,0,4.8,2.2,4.8,4.8c0,2.6-2.2,4.8-4.8,4.8c-2.7,0-4.8-2.2-4.8-4.8l0,0
							C107.9-41.9,110.1-44,112.8-44"/>
						<path id="Path_1309-2_2_" class="st3" d="M112.8-15.4c2.7,0,4.8,2.2,4.8,4.8c0,2.7-2.2,4.8-4.8,4.8c-2.7,0-4.8-2.2-4.8-4.8
							C107.9-13.2,110.1-15.4,112.8-15.4L112.8-15.4"/>
						<path id="Path_1310-2_2_" class="st12" d="M112.8,13.4c2.7,0,4.8,2.2,4.8,4.8c0,2.7-2.2,4.8-4.8,4.8c-2.7,0-4.8-2.2-4.8-4.8
							C107.9,15.5,110.1,13.4,112.8,13.4L112.8,13.4"/>
						<path id="Path_1311-2_2_" class="st12" d="M112.8,42c2.7,0,4.8,2.2,4.8,4.8c0,2.7-2.2,4.8-4.8,4.8c-2.7,0-4.8-2.2-4.8-4.8
							C107.9,44.2,110.1,42,112.8,42L112.8,42"/>
						<path id="Path_1312-2_2_" class="st12" d="M112.8,70.8c2.7,0,4.8,2.2,4.8,4.8c0,2.7-2.2,4.8-4.8,4.8c-2.7,0-4.8-2.2-4.8-4.8
							C107.9,73,110.1,70.8,112.8,70.8L112.8,70.8"/>
						<path id="Path_1313-2_2_" class="st3" d="M137.4-72.8c2.7,0,4.8,2.2,4.8,4.8s-2.2,4.8-4.8,4.8c-2.7,0-4.8-2.2-4.8-4.8
							C132.6-70.6,134.7-72.8,137.4-72.8"/>
						<path id="Path_1314-2_2_" class="st3" d="M137.4-44c2.7,0,4.8,2.2,4.8,4.8c0,2.6-2.2,4.8-4.8,4.8s-4.8-2.2-4.8-4.8
							C132.6-41.9,134.7-44,137.4-44"/>
						<path id="Path_1315-2_2_" class="st3" d="M137.4-15.4c2.7,0,4.8,2.2,4.8,4.8c0,2.7-2.2,4.8-4.8,4.8c-2.7,0-4.8-2.2-4.8-4.8
							S134.7-15.4,137.4-15.4"/>
						<path id="Path_1316-2_2_" class="st12" d="M137.4,13.4c2.7,0,4.8,2.2,4.8,4.8S140,23,137.4,23c-2.7,0-4.8-2.2-4.8-4.8
							C132.6,15.5,134.7,13.4,137.4,13.4"/>
						<path id="Path_1317-2_2_" class="st12" d="M137.4,42c2.7,0,4.8,2.2,4.8,4.8s-2.2,4.8-4.8,4.8c-2.7,0-4.8-2.2-4.8-4.8
							C132.6,44.2,134.7,42,137.4,42"/>
						<path id="Path_1318-2_2_" class="st12" d="M137.4,70.8c2.7,0,4.8,2.2,4.8,4.8s-2.2,4.8-4.8,4.8c-2.7,0-4.8-2.2-4.8-4.8
							S134.7,70.8,137.4,70.8"/>
						<path id="Path_1319-2_2_" class="st3" d="M163.3-72.8c2.7,0,4.8,2.2,4.8,4.8c0,2.7-2.2,4.8-4.8,4.8c-2.7,0-4.8-2.2-4.8-4.8
							C158.6-70.6,160.7-72.8,163.3-72.8"/>
						<path id="Path_1320-2_2_" class="st3" d="M163.3-44c2.7,0,4.8,2.2,4.8,4.8c0,2.7-2.2,4.8-4.8,4.8s-4.8-2.2-4.8-4.8l0,0
							C158.6-41.9,160.7-44,163.3-44L163.3-44"/>
						<path id="Path_1321-2_2_" class="st3" d="M163.3-15.4c2.7,0,4.8,2.2,4.8,4.8c0,2.7-2.2,4.8-4.8,4.8c-2.7,0-4.8-2.2-4.8-4.8
							S160.7-15.4,163.3-15.4L163.3-15.4"/>
						<path id="Path_1322-2_2_" class="st12" d="M163.3,13.4c2.7,0,4.8,2.2,4.8,4.8c0,2.7-2.2,4.8-4.8,4.8c-2.7,0-4.8-2.2-4.8-4.8
							C158.6,15.5,160.7,13.4,163.3,13.4L163.3,13.4"/>
						<path id="Path_1323-2_2_" class="st12" d="M163.3,42c2.7,0,4.8,2.2,4.8,4.8c0,2.7-2.2,4.8-4.8,4.8c-2.7,0-4.8-2.2-4.8-4.8
							C158.6,44.2,160.7,42,163.3,42L163.3,42"/>
						<path id="Path_1324-2_2_" class="st12" d="M163.3,70.8c2.7,0,4.8,2.2,4.8,4.8c0,2.7-2.2,4.8-4.8,4.8c-2.7,0-4.8-2.2-4.8-4.8
							S160.7,70.8,163.3,70.8L163.3,70.8"/>
					</g>
				</g>
			</g>
		</g>
	</g>
</g>
</svg>
