<?xml version="1.0" encoding="utf-8"?>
<!-- Generator: Adobe Illustrator 25.0.0, SVG Export Plug-In . SVG Version: 6.00 Build 0)  -->
<svg version="1.1" id="Layer_1" xmlns="http://www.w3.org/2000/svg" xmlns:xlink="http://www.w3.org/1999/xlink" x="0px" y="0px"
	 viewBox="0 0 954.2 246.3" style="enable-background:new 0 0 954.2 246.3;" xml:space="preserve">
<style type="text/css">
	.st0{clip-path:url(#SVGID_2_);}
	.st1{clip-path:url(#SVGID_4_);}
	.st2{fill:#E9E9E9;}
	.st3{opacity:0.6;}
	.st4{clip-path:url(#SVGID_6_);}
	.st5{fill:#D4D5D9;}
	.st6{clip-path:url(#SVGID_8_);}
	.st7{fill:#ED1818;}
	.st8{fill:#999999;}
	.st9{fill:#C1BFBF;}
	.st10{fill:#E1E1E1;}
	.st11{fill:#2D2D2D;}
	.st12{fill:#DCE9E7;}
	.st13{fill:#161F2C;}
	.st14{fill:#ED805F;}
	.st15{fill:#64CDD8;}
	.st16{fill:#677282;}
	.st17{clip-path:url(#SVGID_10_);}
	.st18{clip-path:url(#SVGID_12_);}
</style>
<g>
	<g id="Group_338" transform="translate(60)">
		<g>
			<g>
				<defs>
					<rect id="SVGID_1_" x="176.5" width="481.1" height="246.3"/>
				</defs>
				<clipPath id="SVGID_2_">
					<use xlink:href="#SVGID_1_"  style="overflow:visible;"/>
				</clipPath>
				<g id="Group_337" class="st0">
					<g id="Group_336">
						<g>
							<g>
								<defs>
									<rect id="SVGID_3_" x="176.5" width="481.1" height="246.3"/>
								</defs>
								<clipPath id="SVGID_4_">
									<use xlink:href="#SVGID_3_"  style="overflow:visible;"/>
								</clipPath>
								<g id="Group_335" class="st1">
									<path id="Path_1213" class="st2" d="M649,205.8c0,22.4-104.7,40.5-233.8,40.5s-233.8-18.1-233.8-40.5
										s104.7-40.5,233.8-40.5S649,183.5,649,205.8"/>
									<g id="Group_331" transform="translate(397.716 52.018)" class="st3">
										<g id="Group_330">
											<g>
												<g>
													<defs>
														<rect id="SVGID_5_" x="176.6" y="0" width="18.1" height="7"/>
													</defs>
													<clipPath id="SVGID_6_">
														<use xlink:href="#SVGID_5_"  style="overflow:visible;"/>
													</clipPath>
													<g id="Group_329" class="st4">
														<path id="Path_1214" class="st5" d="M188.2,0.2c4.5-0.7,6.1,0.5,6.4,2.2s-0.8,3.4-5.3,4.2c-8.2,1.4-12.8-1.2-12.8-1.2
															S179.9,1.6,188.2,0.2"/>
													</g>
												</g>
											</g>
										</g>
									</g>
									<g id="Group_334" transform="translate(395.113 39.075)" class="st3">
										<g id="Group_333">
											<g>
												<g>
													<defs>
														<rect id="SVGID_7_" x="176.5" y="0" width="11" height="14.7"/>
													</defs>
													<clipPath id="SVGID_8_">
														<use xlink:href="#SVGID_7_"  style="overflow:visible;"/>
													</clipPath>
													<g id="Group_332" class="st6">
														<path id="Path_1215" class="st5" d="M180.6,3.3c2.5-3.5,4.3-3.8,5.7-2.9s1.8,2.8-0.7,6.3c-4.5,6.5-9.2,7.8-9.2,7.8
															S176.1,9.9,180.6,3.3"/>
													</g>
												</g>
											</g>
										</g>
									</g>
									<path id="Path_1216" class="st7" d="M257.4,44l-24.8,138.6c-0.6,8.2,5.5,15.3,13.7,15.9c0.4,0,0.7,0,1.1,0h67L257.4,44z"/>
									<path id="Path_1217" class="st8" d="M258.9,57.7l-21.3,124.9c-0.6,8.2,5.5,15.3,13.7,15.9c0.4,0,0.7,0,1.1,0h67L258.9,57.7
										z"/>
									<path id="Path_1218" class="st9" d="M258.9,57.7l-7.6,131.1c-0.6,8.2,5.5,15.3,13.7,15.9c0.4,0,0.7,0,1.1,0h67L258.9,57.7z
										"/>
									<path id="Path_1219" class="st10" d="M554.8,207.9H303.6c-6.2,0-11.6-4.3-12.9-10.3L261.4,68.7l-2.5-11l-1.7-7.3
										c-1.6-7.1,2.8-14.3,10-15.9c1-0.2,2-0.3,2.9-0.3h251.2c6.2,0,11.6,4.3,12.9,10.3l3,13.2l2.5,11l28,123
										c1.6,7.1-2.8,14.3-10,15.9C556.8,207.8,555.8,207.9,554.8,207.9"/>
									<path id="Path_1220" class="st11" d="M275.9,133.2c-0.2,0-0.3-0.1-0.3-0.3l-5.6-24.6c0-0.2,0.1-0.4,0.3-0.4
										s0.4,0.1,0.4,0.3l0,0l5.6,24.6C276.1,133,276,133.2,275.9,133.2L275.9,133.2L275.9,133.2"/>
									<path id="Path_1221" class="st11" d="M339.5,208.3h-36c-6.4,0-11.9-4.4-13.3-10.6l-12.8-56.3c0-0.2,0.1-0.4,0.3-0.4
										s0.4,0.1,0.4,0.3l12.8,56.3c1.3,5.9,6.6,10.1,12.6,10.1h36c0.2,0,0.3,0.2,0.3,0.3C339.9,208.1,339.6,208.3,339.5,208.3"/>
									<path id="Path_1222" class="st7" d="M537.2,57.7H258.9l-1.7-7.3c-1.6-7.1,2.8-14.3,10-15.9c1-0.2,2-0.3,2.9-0.3h251.2
										c6.2,0,11.6,4.3,12.9,10.3L537.2,57.7z"/>
									<path id="Path_1223" class="st9" d="M383.5,93.9h-17c-2.3-0.1-4.4-1.7-5-4l-4.7-17c-0.6-1.5,0.2-3.2,1.7-3.8
										c0.4-0.1,0.8-0.2,1.2-0.2h17c2.3,0.1,4.4,1.7,5,4l4.7,17c0.6,1.5-0.2,3.2-1.7,3.8C384.4,93.8,384,93.9,383.5,93.9"/>
									<path id="Path_1224" class="st9" d="M416,93.9h-17c-2.3-0.1-4.4-1.7-5-4l-4.7-17c-0.6-1.5,0.2-3.2,1.7-3.8
										c0.4-0.1,0.8-0.2,1.2-0.2h17c2.3,0.1,4.4,1.7,5,4l4.7,17c0.6,1.5-0.2,3.2-1.7,3.8C416.8,93.8,416.4,93.9,416,93.9"/>
									<path id="Path_1225" class="st9" d="M448.4,93.9h-17c-2.3-0.1-4.4-1.7-5-4l-4.7-17c-0.6-1.5,0.2-3.2,1.7-3.8
										c0.4-0.1,0.8-0.2,1.2-0.2h17c2.3,0.1,4.4,1.7,5,4l4.7,17c0.6,1.5-0.2,3.2-1.7,3.8C449.1,93.8,448.8,93.9,448.4,93.9"/>
									<path id="Path_1226" class="st9" d="M327.5,126.1h-17c-2.3-0.1-4.4-1.7-5-4l-4.7-17c-0.6-1.5,0.2-3.2,1.7-3.8
										c0.4-0.1,0.8-0.2,1.2-0.2h17c2.3,0.1,4.4,1.7,5,4l4.7,17c0.6,1.5-0.2,3.2-1.7,3.8C328.4,126.1,328,126.1,327.5,126.1"/>
									<path id="Path_1227" class="st9" d="M360,126.1h-17c-2.3-0.1-4.4-1.7-5-4l-4.7-17c-0.6-1.5,0.2-3.2,1.7-3.8
										c0.4-0.1,0.8-0.2,1.2-0.2h17c2.3,0.1,4.4,1.7,5,4l4.7,17c0.6,1.5-0.2,3.2-1.7,3.8C360.9,126.1,360.4,126.1,360,126.1"/>
									<path id="Path_1228" class="st9" d="M392.5,126.1h-17c-2.3-0.1-4.4-1.7-5-4l-4.7-17c-0.6-1.5,0.2-3.2,1.7-3.8
										c0.4-0.1,0.8-0.2,1.2-0.2h17c2.3,0.1,4.4,1.7,5,4l4.7,17c0.6,1.5-0.2,3.2-1.7,3.8C393.2,126.1,392.9,126.1,392.5,126.1"/>
									<path id="Path_1229" class="st9" d="M424.9,126.1h-17c-2.3-0.1-4.4-1.7-5-4l-4.7-17c-0.6-1.5,0.2-3.2,1.7-3.8
										c0.4-0.1,0.8-0.2,1.2-0.2h17c2.3,0.1,4.4,1.7,5,4l4.7,17c0.6,1.5-0.2,3.2-1.7,3.8C425.6,126.1,425.2,126.1,424.9,126.1"/>
									<path id="Path_1230" class="st9" d="M457.2,126.1h-17c-2.3-0.1-4.4-1.7-5-4l-4.7-17c-0.6-1.5,0.2-3.2,1.7-3.8
										c0.4-0.1,0.8-0.2,1.2-0.2h17c2.3,0.1,4.4,1.7,5,4l4.7,17c0.6,1.5-0.2,3.2-1.7,3.8C458,126.1,457.6,126.1,457.2,126.1"/>
									<path id="Path_1231" class="st9" d="M336.5,158.4h-17c-2.3-0.1-4.4-1.7-5-4l-4.7-17c-0.6-1.5,0.2-3.2,1.7-3.8
										c0.4-0.1,0.8-0.2,1.2-0.2h17c2.3,0.1,4.4,1.7,5,4l4.7,17c0.6,1.5-0.2,3.2-1.7,3.8C337.2,158.3,336.9,158.4,336.5,158.4"/>
									<path id="Path_1232" class="st9" d="M368.9,158.4h-17c-2.3-0.1-4.4-1.7-5-4l-4.7-17c-0.6-1.5,0.2-3.2,1.7-3.8
										c0.4-0.1,0.8-0.2,1.2-0.2h17c2.3,0.1,4.4,1.7,5,4l4.7,17c0.6,1.5-0.2,3.2-1.7,3.8C369.8,158.3,369.2,158.4,368.9,158.4"/>
									<path id="Path_1233" class="st9" d="M401.4,158.4h-17c-2.3-0.1-4.4-1.7-5-4l-4.7-17c-0.6-1.5,0.2-3.2,1.7-3.8
										c0.4-0.1,0.8-0.2,1.2-0.2h17c2.3,0.1,4.4,1.7,5,4l4.7,17c0.6,1.5-0.2,3.2-1.7,3.8C402.1,158.3,401.8,158.4,401.4,158.4"/>
									<path id="Path_1234" class="st9" d="M433.8,158.4h-17c-2.3-0.1-4.4-1.7-5-4l-4.7-17c-0.6-1.5,0.2-3.2,1.7-3.8
										c0.4-0.1,0.8-0.2,1.2-0.2h17c2.3,0.1,4.4,1.7,5,4l4.7,17c0.6,1.5-0.2,3.2-1.7,3.8C434.5,158.3,434.1,158.4,433.8,158.4"/>
									<path id="Path_1235" class="st9" d="M466.1,158.4h-17c-2.3-0.1-4.4-1.7-5-4l-4.7-17c-0.6-1.5,0.2-3.2,1.7-3.8
										c0.4-0.1,0.8-0.2,1.2-0.2h17c2.3,0.1,4.4,1.7,5,4l4.7,17c0.6,1.5-0.2,3.2-1.7,3.8C467,158.3,466.5,158.4,466.1,158.4"/>
									<path id="Path_1236" class="st7" d="M480.8,93.9h-17c-2.3-0.1-4.4-1.7-5-4l-4.7-17c-0.6-1.5,0.2-3.2,1.7-3.8
										c0.4-0.1,0.8-0.2,1.2-0.2h17c2.3,0.1,4.4,1.7,5,4l4.7,17c0.6,1.5-0.2,3.2-1.7,3.8C481.6,93.8,481.2,93.9,480.8,93.9"/>
									<path id="Path_1237" class="st7" d="M513.2,93.9h-17c-2.3-0.1-4.4-1.7-5-4l-4.7-17c-0.6-1.5,0.2-3.2,1.7-3.8
										c0.4-0.1,0.8-0.2,1.2-0.2h17c2.3,0.1,4.4,1.7,5,4l4.7,17c0.6,1.5-0.2,3.2-1.7,3.8C514,93.8,513.7,93.9,513.2,93.9"/>
									<path id="Path_1238" class="st7" d="M489.6,126.1h-17c-2.3-0.1-4.4-1.7-5-4l-4.7-17c-0.6-1.5,0.2-3.2,1.7-3.8
										c0.4-0.1,0.8-0.2,1.2-0.2h17c2.3,0.1,4.4,1.7,5,4l4.7,17c0.6,1.5-0.2,3.2-1.7,3.8C490.5,126.1,490.1,126.1,489.6,126.1"/>
									<path id="Path_1239" class="st7" d="M522.2,126.1h-17c-2.3-0.1-4.4-1.7-5-4l-4.7-17c-0.6-1.5,0.2-3.2,1.7-3.8
										c0.4-0.1,0.8-0.2,1.2-0.2h17c2.3,0.1,4.4,1.7,5,4l4.7,17c0.6,1.5-0.2,3.2-1.7,3.8C523,126.1,522.5,126.1,522.2,126.1"/>
									<path id="Path_1240" class="st7" d="M498.6,158.4h-17c-2.3-0.1-4.4-1.7-5-4l-4.7-17c-0.6-1.5,0.2-3.2,1.7-3.8
										c0.4-0.1,0.8-0.2,1.2-0.2h17c2.3,0.1,4.4,1.7,5,4l4.7,17c0.6,1.5-0.2,3.2-1.7,3.8C499.5,158.3,499,158.4,498.6,158.4"/>
									<path id="Path_1241" class="st7" d="M531,158.4h-17c-2.3-0.1-4.4-1.7-5-4l-4.7-17c-0.6-1.5,0.2-3.2,1.7-3.8
										c0.4-0.1,0.8-0.2,1.2-0.2h17c2.3,0.1,4.4,1.7,5,4l4.7,17c0.6,1.5-0.2,3.2-1.7,3.8C531.8,158.3,531.5,158.4,531,158.4"/>
									<path id="Path_1242" class="st9" d="M345.8,192.1h-17c-2.3-0.1-4.4-1.7-5-4l-4.7-17c-0.6-1.5,0.2-3.2,1.7-3.8
										c0.4-0.1,0.8-0.2,1.2-0.2h17c2.3,0.1,4.4,1.7,5,4l4.7,17c0.6,1.5-0.2,3.2-1.7,3.8C346.6,192.1,346.1,192.2,345.8,192.1"/>
									<path id="Path_1243" class="st9" d="M378.2,192.1h-17c-2.3-0.1-4.4-1.7-5-4l-4.7-17c-0.6-1.5,0.2-3.2,1.7-3.8
										c0.4-0.1,0.8-0.2,1.2-0.2h17c2.3,0.1,4.4,1.7,5,4l4.7,17c0.6,1.5-0.2,3.2-1.7,3.8C379,192.1,378.6,192.2,378.2,192.1"/>
									<path id="Path_1244" class="st9" d="M410.6,192.1h-17c-2.3-0.1-4.4-1.7-5-4l-4.7-17c-0.6-1.5,0.2-3.2,1.7-3.8
										c0.4-0.1,0.8-0.2,1.2-0.2h17c2.3,0.1,4.4,1.7,5,4l4.7,17c0.6,1.5-0.2,3.2-1.7,3.8C411.5,192.1,411,192.2,410.6,192.1"/>
									<path id="Path_1245" class="st12" d="M296.8,44.5c-1.4,0-2.5-1.1-2.5-2.5s1.1-2.5,2.5-2.5s2.5,1.1,2.5,2.5l0,0
										C299.2,43.3,298.1,44.5,296.8,44.5 M296.8,40.4c-0.8,0-1.5,0.7-1.5,1.5s0.7,1.5,1.5,1.5s1.5-0.7,1.5-1.5l0,0
										C298.2,41.1,297.5,40.4,296.8,40.4"/>
									<path id="Path_1246" class="st13" d="M296.6,42.6c-0.3,0-0.6-0.3-0.6-0.6c0-0.2,0.1-0.4,0.3-0.5c0.1,0,6-2.8,7.1-7.3
										c0.5-2.2-0.2-4.6-2.2-7c-2.1-2.6-7.2-3.7-11.7-0.9c-3.9,2.4-4.9,6.6-2.8,11.2c0.2,0.3,0.1,0.7-0.2,0.8
										c-0.3,0.2-0.7,0.1-0.8-0.2l-0.1-0.1c-1.2-2.4-1.5-5.1-0.8-7.7c0.7-2.1,2.1-3.9,4-5.1c3.9-2.5,10.1-2.7,13.3,1.2
										c2.2,2.7,3,5.4,2.4,8c-0.7,2.4-2.3,4.6-4.3,6c-1.1,0.8-2.2,1.5-3.4,2.1C296.9,42.5,296.8,42.5,296.6,42.6"/>
									<rect id="Rectangle_208" x="283.2" y="34.2" class="st11" width="5.8" height="5.5"/>
									<path id="Path_1247" class="st12" d="M335.2,44.5c-1.4,0-2.5-1.1-2.5-2.5s1.1-2.5,2.5-2.5s2.5,1.1,2.5,2.5l0,0
										C337.9,43.3,336.6,44.5,335.2,44.5 M335.2,40.4c-0.8,0-1.5,0.7-1.5,1.5s0.7,1.5,1.5,1.5s1.5-0.7,1.5-1.5
										C336.8,41.1,336.1,40.4,335.2,40.4"/>
									<path id="Path_1248" class="st13" d="M335.1,42.6c-0.3,0-0.6-0.3-0.6-0.6c0-0.2,0.1-0.4,0.3-0.5c0.1,0,6-2.8,7.1-7.3
										c0.5-2.2-0.2-4.6-2.2-7c-2.1-2.6-7.2-3.7-11.7-0.9c-3.9,2.4-4.9,6.6-2.8,11.2c0.2,0.3,0,0.7-0.2,0.8
										c-0.3,0.2-0.7,0-0.8-0.2c0,0,0,0,0-0.1c-1.2-2.4-1.5-5.1-0.8-7.7c0.7-2.1,2.1-3.9,4-5.1c3.9-2.5,10.1-2.7,13.3,1.2
										c2.2,2.7,3,5.4,2.4,8c-0.7,2.4-2.3,4.6-4.3,6c-1.1,0.8-2.2,1.5-3.4,2.1C335.4,42.5,335.2,42.5,335.1,42.6"/>
									<rect id="Rectangle_209" x="321.8" y="34.2" class="st11" width="5.8" height="5.5"/>
									<path id="Path_1249" class="st12" d="M373.8,44.5c-1.4,0-2.5-1.1-2.5-2.5s1.1-2.5,2.5-2.5s2.5,1.1,2.5,2.5l0,0
										C376.4,43.3,375.1,44.5,373.8,44.5 M373.8,40.4c-0.8,0-1.5,0.7-1.5,1.5s0.7,1.5,1.5,1.5s1.5-0.7,1.5-1.5l0,0
										C375.4,41.1,374.6,40.4,373.8,40.4"/>
									<path id="Path_1250" class="st13" d="M373.8,42.6c-0.3,0-0.6-0.3-0.6-0.6c0-0.2,0.1-0.4,0.3-0.5c0.1,0,6-2.8,7.1-7.3
										c0.5-2.2-0.2-4.6-2.2-7c-2.1-2.6-7.2-3.7-11.7-0.9c-3.9,2.4-4.9,6.6-2.8,11.2c0.1,0.3-0.1,0.7-0.4,0.8s-0.5,0-0.7-0.3
										c-1.2-2.4-1.5-5.1-0.8-7.7c0.7-2.1,2.1-3.9,4-5.1c3.9-2.5,10.1-2.7,13.3,1.2c2.2,2.7,3,5.4,2.4,8c-0.7,2.4-2.3,4.6-4.3,6
										c-1.1,0.8-2.2,1.5-3.4,2.1C373.9,42.5,373.8,42.5,373.8,42.6"/>
									<rect id="Rectangle_210" x="360.2" y="34.2" class="st11" width="5.8" height="5.5"/>
									<path id="Path_1251" class="st12" d="M412.4,44.5c-1.4,0-2.5-1.1-2.5-2.5s1.1-2.5,2.5-2.5s2.5,1.1,2.5,2.5l0,0
										C414.9,43.3,413.8,44.5,412.4,44.5 M412.4,40.4c-0.8,0-1.5,0.7-1.5,1.5s0.7,1.5,1.5,1.5s1.5-0.7,1.5-1.5l0,0
										C413.9,41.1,413.1,40.4,412.4,40.4"/>
									<path id="Path_1252" class="st13" d="M412.2,42.6c-0.3,0-0.6-0.3-0.6-0.6c0-0.2,0.1-0.4,0.3-0.5c0.1,0,6-2.8,7.1-7.3
										c0.5-2.2-0.2-4.6-2.2-7c-2.1-2.6-7.2-3.7-11.7-0.9c-3.9,2.4-4.9,6.6-2.8,11.2c0.2,0.3,0,0.7-0.2,0.8
										c-0.3,0.2-0.7,0-0.8-0.2c0,0,0,0,0-0.1c-1.2-2.4-1.5-5.1-0.8-7.7c0.7-2.1,2.1-3.9,4-5.1c3.9-2.5,10.1-2.7,13.3,1.2
										c2.2,2.7,3,5.4,2.4,8c-0.7,2.4-2.3,4.6-4.3,6c-1.1,0.8-2.2,1.5-3.4,2.1C412.4,42.5,412.4,42.5,412.2,42.6"/>
									<rect id="Rectangle_211" x="398.8" y="34.2" class="st11" width="5.8" height="5.5"/>
									<path id="Path_1253" class="st12" d="M450.9,44.5c-1.4,0-2.5-1.1-2.5-2.5s1.1-2.5,2.5-2.5s2.5,1.1,2.5,2.5l0,0
										C453.4,43.3,452.2,44.5,450.9,44.5 M450.9,40.4c-0.8,0-1.5,0.7-1.5,1.5s0.7,1.5,1.5,1.5s1.5-0.7,1.5-1.5l0,0
										C452.4,41.1,451.6,40.4,450.9,40.4"/>
									<path id="Path_1254" class="st13" d="M450.8,42.6c-0.3,0-0.6-0.3-0.6-0.6c0-0.2,0.1-0.4,0.3-0.5c0.1,0,6-2.8,7.1-7.3
										c0.5-2.2-0.2-4.6-2.2-7c-2.1-2.6-7.2-3.7-11.7-0.9c-3.9,2.4-4.9,6.6-2.8,11.2c0.1,0.3-0.1,0.7-0.4,0.8s-0.5,0-0.7-0.3
										c-1.2-2.4-1.5-5.1-0.8-7.7c0.7-2.1,2.1-3.9,4-5.1c3.9-2.5,10.1-2.7,13.3,1.2c2.2,2.7,3,5.4,2.4,8c-0.7,2.4-2.3,4.6-4.3,6
										c-1.1,0.8-2.2,1.5-3.4,2.1C451,42.5,450.9,42.5,450.8,42.6"/>
									<rect id="Rectangle_212" x="437.2" y="34.2" class="st11" width="5.8" height="5.5"/>
									<path id="Path_1255" class="st12" d="M489.4,44.5c-1.4,0-2.5-1.1-2.5-2.5s1.1-2.5,2.5-2.5s2.5,1.1,2.5,2.5l0,0
										C491.9,43.3,490.8,44.5,489.4,44.5 M489.4,40.4c-0.8,0-1.5,0.7-1.5,1.5s0.7,1.5,1.5,1.5s1.5-0.7,1.5-1.5l0,0
										C490.9,41.1,490.1,40.4,489.4,40.4"/>
									<path id="Path_1256" class="st13" d="M489.2,42.6c-0.3,0-0.6-0.3-0.6-0.6c0-0.2,0.1-0.4,0.3-0.5c0.1,0,6-2.8,7.1-7.3
										c0.5-2.2-0.2-4.6-2.2-7c-2.1-2.6-7.2-3.7-11.7-0.9c-3.9,2.4-4.9,6.6-2.8,11.2c0.2,0.3,0.1,0.7-0.2,0.8
										c-0.3,0.2-0.7,0.1-0.8-0.2l-0.1-0.1c-1.2-2.4-1.5-5.1-0.8-7.7c0.7-2.1,2.1-3.9,4-5.1c3.9-2.5,10.1-2.7,13.3,1.2
										c2.2,2.7,3,5.4,2.4,8c-0.7,2.4-2.3,4.6-4.3,6c-1.1,0.8-2.2,1.5-3.4,2.1C489.5,42.5,489.4,42.5,489.2,42.6"/>
									<rect id="Rectangle_213" x="475.9" y="34.2" class="st11" width="5.8" height="5.5"/>
									<path id="Path_1257" class="st2" d="M270.5,214.1c0,0-8.2-8.3-5.4-13.1s7.6,10.2,7.6,10.2s-2.5-17.7,2.7-18s0,18,0,18
										s1.9-4.3,3.8-4.5s1.3,3.6-2,7.4L270.5,214.1L270.5,214.1z"/>
									<path id="Path_1258" class="st11" d="M271.1,214.3c-1.6-1.7-3-3.5-4.3-5.5c-2.6-4.1-3.3-7.4-1.9-9.8
										c0.3-0.7,1.1-1.2,1.9-1.2c1.4,0.2,3.1,2.4,5,6.6c0.6,1.3,1.1,2.6,1.5,3.7c-0.5-4.6-1-13.8,1.6-17c0.5-0.6,1.2-1,2-1.1
										c0.7-0.1,1.4,0.2,1.9,0.8c2.3,2.9,0.2,12.9-0.9,17.5c0.9-1.4,2.1-2.9,3.3-3.1c0.5-0.1,1.1,0.1,1.3,0.6
										c0.7,1.4-0.3,4.8-3.3,8.3l-0.5-0.4c3-3.4,3.8-6.6,3.2-7.6c-0.1-0.3-0.4-0.4-0.7-0.3c-1.6,0.2-3.5,3.7-4,5l-0.6-0.2
										c0,0,1.1-4.1,1.9-8.5c1-5.8,0.9-9.6-0.2-11c-0.3-0.4-0.8-0.6-1.4-0.6s-1.2,0.4-1.6,0.9c-3.2,3.9-1.2,19-1.1,19.2l-0.6,0.1
										c-1.1-3.4-4.4-12.1-6.8-12.4c-0.5-0.1-0.9,0.2-1.3,0.9c-3.1,5.1,6,14.4,6.1,14.5L271.1,214.3z"/>
									<path id="Path_1259" class="st2" d="M204,201.5c0,0-10.6-10.7-6.9-16.8s9.8,13.1,9.8,13.1s-3.2-22.7,3.4-23.1
										c6.6-0.4,0,23.1,0,23.1s2.4-5.5,4.8-5.8c2.4-0.3,1.7,4.6-2.6,9.5H204z"/>
									<path id="Path_1260" class="st11" d="M204.8,201.8c-2.1-2.2-3.9-4.5-5.5-7c-3.4-5.3-4.2-9.5-2.4-12.5
										c0.4-1,1.4-1.6,2.4-1.5c3.1,0.4,6.5,8.4,8.3,13.2c-0.2-1.9-0.4-4.4-0.5-7.1c-0.2-7.5,0.6-12.4,2.5-14.7
										c0.6-0.8,1.6-1.3,2.6-1.4c0.9-0.1,1.8,0.3,2.4,1c3,3.7,0.3,16.5-1.2,22.5c1.1-1.8,2.7-3.7,4.3-4c0.7-0.1,1.4,0.2,1.7,0.8
										c1,1.8-0.4,6.2-4.3,10.6l-0.6-0.5c3.8-4.4,4.9-8.5,4.2-9.8c-0.2-0.3-0.5-0.5-0.9-0.4c-2.1,0.3-4.4,4.7-5.2,6.4l-0.7-0.3
										c0-0.1,1.5-5.2,2.4-10.9c1.3-7.4,1.2-12.3-0.3-14.1c-0.4-0.5-1.1-0.8-1.8-0.8c-0.8,0.1-1.6,0.5-2.1,1.1
										c-4.2,5.1-1.5,24.4-1.5,24.6l-0.8,0.2c-1.4-4.3-5.7-15.6-8.8-16c-0.6-0.1-1.1,0.3-1.6,1.2c-3.9,6.6,7.7,18.5,7.8,18.6
										L204.8,201.8z"/>
									<path id="Path_1261" class="st2" d="M446,213.6c0,0-7.9-8-5.2-12.5s7.3,9.8,7.3,9.8s-2.4-16.9,2.5-17.2s0,17.2,0,17.2
										s1.8-4.1,3.6-4.3s1.3,3.5-1.9,7.1H446V213.6z"/>
									<path id="Path_1262" class="st11" d="M446.5,213.8c-1.5-1.6-2.9-3.4-4.1-5.2c-2.5-4-3.1-7.1-1.8-9.4
										c0.5-0.8,1.1-1.2,1.8-1.1c2.3,0.3,4.9,6.3,6.2,9.8c-0.1-1.4-0.3-3.3-0.3-5.3c-0.2-5.6,0.5-9.3,1.8-11
										c0.5-0.6,1.2-1,1.9-1.1c0.7-0.1,1.4,0.2,1.8,0.8c2.2,2.7,0.2,12.3-0.9,16.8c0.8-1.3,2-2.8,3.2-3c0.5-0.1,1,0.1,1.3,0.6
										c0.7,1.3-0.3,4.6-3.2,7.9l-0.4-0.4c2.8-3.2,3.6-6.3,3.1-7.3c-0.1-0.2-0.4-0.4-0.7-0.3c-1.5,0.2-3.3,3.5-3.9,4.8l-0.5-0.2
										c0,0,1.1-3.9,1.8-8.1c0.9-5.5,0.9-9.2-0.2-10.5c-0.3-0.4-0.8-0.6-1.3-0.6c-0.6,0-1.2,0.4-1.5,0.8
										c-3.1,3.8-1.1,18.2-1.1,18.4l-0.6,0.1c-1-3.2-4.2-11.6-6.5-11.9c-0.4-0.1-0.8,0.2-1.2,0.9c-2.9,4.9,5.7,13.8,5.8,13.9
										L446.5,213.8z"/>
									<path id="Path_1263" class="st2" d="M486.8,235.8c0,0-8.2-8.3-5.4-13S489,233,489,233s-2.5-17.6,2.6-17.9s0,17.9,0,17.9
										s1.9-4.2,3.7-4.5s1.3,3.6-2,7.4L486.8,235.8z"/>
									<path id="Path_1264" class="st11" d="M487.4,236c-1.6-1.7-3-3.5-4.3-5.4c-2.6-4.1-3.2-7.4-1.9-9.7c0.3-0.7,1-1.2,1.9-1.2
										c1.4,0.2,3.1,2.4,4.9,6.6c0.6,1.3,1.1,2.6,1.5,3.6c-0.5-4.6-1-13.8,1.6-16.9c0.5-0.6,1.2-1,2-1.1c0.7-0.1,1.4,0.2,1.9,0.8
										c2.3,2.8,0.2,12.8-0.9,17.5c0.9-1.4,2.1-2.9,3.3-3.1c0.5-0.1,1.1,0.1,1.3,0.6c0.7,1.4-0.3,4.8-3.3,8.2l-0.5-0.4
										c3-3.4,3.8-6.6,3.2-7.6c-0.1-0.3-0.4-0.4-0.7-0.3c-1.6,0.2-3.4,3.6-4,4.9l-0.6-0.2c0,0,1.1-4,1.9-8.4
										c1-5.7,0.9-9.5-0.2-10.9c-0.3-0.4-0.8-0.6-1.4-0.6s-1.2,0.4-1.6,0.9c-3.2,3.9-1.2,18.9-1.1,19.1l-0.6,0.1
										c-1.1-3.3-4.4-12.1-6.8-12.4c-0.5-0.1-0.9,0.2-1.3,0.9c-3,5.1,6,14.3,6.1,14.4L487.4,236z"/>
									<path id="Path_1265" class="st2" d="M362.5,237.5c0,0-8.8-8.9-5.8-14s8.1,10.9,8.1,10.9s-2.6-18.9,2.8-19.2s0,19.2,0,19.2
										s2-4.6,4-4.8s1.4,3.9-2.1,7.9L362.5,237.5L362.5,237.5z"/>
									<path id="Path_1266" class="st11" d="M363.2,237.7c-1.7-1.8-3.3-3.7-4.6-5.8c-2.8-4.4-3.5-7.9-2-10.4
										c0.3-0.8,1.1-1.3,2-1.3c1.5,0.2,3.3,2.6,5.3,7.1c0.6,1.4,1.2,2.8,1.6,3.9c-0.5-4.9-1-14.8,1.7-18.1
										c0.5-0.7,1.3-1.1,2.2-1.2c0.8-0.1,1.5,0.3,2,0.9c2.5,3,0.2,13.7-1,18.7c0.9-1.5,2.2-3.1,3.5-3.3c0.6-0.1,1.1,0.2,1.4,0.7
										c0.8,1.5-0.3,5.2-3.5,8.8l-0.5-0.4c3.2-3.6,4-7,3.5-8.1c-0.1-0.3-0.5-0.4-0.8-0.3c-1.7,0.2-3.7,3.9-4.3,5.3l-0.6-0.2
										c0,0,1.2-4.3,2-9c1.1-6.2,1-10.2-0.2-11.7c-0.3-0.4-0.9-0.7-1.5-0.6c-0.7,0-1.3,0.4-1.7,0.9c-3.4,4.2-1.2,20.3-1.2,20.5
										l-0.6,0.1c-1.1-3.6-4.7-13-7.3-13.2c-0.5-0.1-0.9,0.3-1.4,1c-3.3,5.5,6.4,15.4,6.5,15.5L363.2,237.7z"/>
									<path id="Path_1267" class="st2" d="M578.2,191.1c0,0-4.5-4.5-2.9-7.1s4.1,5.5,4.1,5.5s-1.3-9.6,1.4-9.8s0,9.8,0,9.8
										s1-2.3,2-2.5s0.7,2-1.1,4h-3.5V191.1z"/>
									<path id="Path_1268" class="st13" d="M578.5,191.2c-0.9-0.9-1.7-1.9-2.3-3c-1.4-2.2-1.8-4-1-5.3c0.2-0.4,0.6-0.7,1-0.6
										c0.8,0.1,1.7,1.3,2.7,3.6c0.3,0.7,0.6,1.4,0.8,2c-0.2-2.5-0.5-7.5,0.9-9.2c0.3-0.3,0.7-0.6,1.1-0.6c0.4,0,0.8,0.1,1,0.4
										c1.2,1.5,0.1,7-0.5,9.5c0.5-0.7,1.1-1.6,1.8-1.7c0.3-0.1,0.6,0.1,0.7,0.3c0.4,0.7-0.2,2.6-1.8,4.5l-0.2-0.2
										c1.6-1.8,2.1-3.6,1.8-4.1c-0.1-0.1-0.2-0.2-0.4-0.2c-0.9,0.1-1.9,2-2.2,2.7l-0.3-0.1c0-0.1,2.4-8.7,0.9-10.5
										c-0.2-0.2-0.5-0.4-0.7-0.3c-0.3,0-0.7,0.2-0.9,0.5c-1.8,2.1-0.6,10.3-0.6,10.4l-0.3,0.1c-0.6-1.8-2.4-6.6-3.7-6.7
										c-0.3,0-0.5,0.1-0.7,0.5c-1.7,2.8,3.3,7.8,3.3,7.9L578.5,191.2z"/>
									<path id="Path_1269" class="st14" d="M493,105.5c0,0-5.9,8.5-13.4,9.4c-4.4,0.5-12.2-4.2-12.2-4.2l21.5-14.9L493,105.5z"/>
									<path id="Path_1270" class="st13" d="M550.8,215.6c0,0-0.2,4.3-3.2,5.4s-11.4,2-8.3,4.8c1.8,1.6,10.3,0.8,12.7,0.9
										s4.6,1.2,6.5-0.4c2-1.7,0.3-10.6,0.3-10.6c-1.2,0.6-2.6,0.9-4,0.9C553.2,216.7,552,216.3,550.8,215.6"/>
									<path id="Path_1271" class="st11" d="M532.5,92.4c0.6,8.9-4,34.8-3.2,53c1.5,36.7,15.1,72.5,23.6,72.3l2.5,0.2
										c4.7,0.3,8.7-3.3,8.9-8c0-0.3,0-0.6,0-0.9c0,0-4.3-35.1-5-45.7c-1.4-21.4,8.8-60,8.8-60S531.7,77.7,532.5,92.4"/>
									<path id="Path_1272" class="st13" d="M575.8,210.9c0,0-0.2,4.3-3.2,5.4s-11.4,2-8.3,4.8c1.8,1.6,10.3,0.8,12.7,0.9
										s4.6,1.2,6.5-0.4c2-1.7,0.3-10.6,0.3-10.6c-1.2,0.6-2.6,0.9-4,0.9C578.3,212,577,211.6,575.8,210.9"/>
									<path id="Path_1273" class="st11" d="M557.7,87.7c0.6,8.9-4,34.8-3.2,53c1.5,36.7,15.1,72.5,23.6,72.3l2.5,0.2
										c4.7,0.3,8.7-3.3,8.9-8c0-0.3,0-0.6,0-0.9c0,0-4.3-35.1-5-45.7c-0.8-11.5,1.8-27.9,4.4-40.7c2.5-12.7-1.9-31.7-13.6-37.2
										C567,76.6,557.2,80.9,557.7,87.7"/>
									<path id="Path_1274" class="st15" d="M595.7,54.8c-11.5-23.2-43.9-27.5-43.9-27.5s20.7,53.3,24.9,50.1
										C583.8,71.9,595,68.1,595.7,54.8"/>
									<path id="Path_1275" class="st13" d="M641.2,26.9l12.4-4.3c1-0.4,2.4,0.5,3,1.9l0.6,1.2c0.7,1.5,0.4,3.1-0.6,3.6l-11.8,5.4
										L641.2,26.9z"/>
									<path id="Path_1276" class="st13" d="M432.5,116c0,0-3.3,2.2-2.8,2.9c0.8,1.1,4.1-0.2,4.1-0.2L432.5,116z"/>
									<path id="Path_1277" class="st13" d="M566,49.8c-1,0-1.9-0.8-1.9-1.9c0-0.7,0.4-1.4,1-1.7l58.8-29.8
										c2.2-1.1,4.8-0.6,6.4,1.2l0.1,0.1l4.8,6.2c0.6,0.8,0.5,2-0.3,2.6s-2,0.5-2.6-0.3l0,0l-4.7-6.1c-0.5-0.5-1.3-0.6-1.9-0.3
										l-58.8,29.8C566.7,49.7,566.3,49.8,566,49.8"/>
									<path id="Path_1278" class="st11" d="M458,118.7l189-78.2c1.8-0.9,2.7-7.7-1-13.8l-2.1-4.5c-0.8-1.8-2.9-2.6-4.8-1.8
										L451,99.6L458,118.7z"/>
									<path id="Path_1279" class="st13" d="M612,31.8c0,0,8.2,8.8,7,20.3l-13.8,5.7c0,0,0.5-11.8-7.5-20L612,31.8z"/>
									<path id="Path_1280" class="st16" d="M432.5,116l1.1,2.5c0.3,0.7,1,1.1,1.8,1.1l19.8-0.3c2.9,0,5.4-2,6.2-4.8
										c0.6-2.6,0.1-5.4-1.3-7.7c-2.2-3.9-4.3-5.8-6-6.7c-1.9-0.9-4.1-0.6-5.7,0.8l-15.6,13.8C432.4,115,432.2,115.6,432.5,116"/>
									<path id="Path_1281" class="st13" d="M622.7,45c-0.2,0-0.3-0.1-0.3-0.3c0-0.1,0.1-0.2,0.2-0.3l21.3-8.6
										c0.1-0.1,0.3,0,0.4,0.1c0.1,0.1,0,0.3-0.1,0.4l0,0L622.7,45C622.8,45,622.8,45,622.7,45"/>
									<path id="Path_1282" class="st14" d="M538,26.9l-3.7-4.9l-1.1-1.4l-6.3-8.3l2.8,9.5l1.7,5.7l0.5,1.8c0.4,1.2-0.3,1.7-1,3.1
										c-0.2,0.6-1.9,4,1.4,4.2c4,0.3,9.9-4.2,11.4-7.9C543.5,28.6,539.2,28.4,538,26.9"/>
									<path id="Path_1283" class="st14" d="M519.2,17.5c-1.1-5.8,2.2-11.3,7.3-12.4s10.2,2.7,11.3,8.5s-2.2,11.3-7.3,12.4
										S520.3,23.3,519.2,17.5"/>
									<path id="Path_1284" class="st13" d="M522.2,13.8c-5.1,1.9-8.5,0-9.4-2.5c-1.2-3.2,0-6.9,3-6.6s0.9-2.3,3.3-3.4
										c4.4-2.2,6.4,0.6,10.2-0.5c5.1-1.5,13.4,4.3,11.1,11.4C540.5,12.2,526.2,12.3,522.2,13.8"/>
									<path id="Path_1285" class="st13" d="M516.5,12.1c0,0,7.2,3,7.4,6.1s0.8,4,4.5,4.4s1.7,3.7,6,2.5s8-7.8,5.4-15.5
										c-0.9-2.6-2.7-4.8-5.1-6.2L516.5,12.1z"/>
									<path id="Path_1286" class="st14" d="M521.2,18.9c0.3-1,1.3-1.6,2.4-1.4c0.9,0.3,1.4,1.2,1.2,2.2c0,0.1,0,0.1-0.1,0.2
										c-0.3,1-1.3,1.6-2.4,1.4c-0.9-0.3-1.4-1.2-1.2-2.2C521,19,521,19,521.2,18.9"/>
									<path id="Path_1287" class="st13" d="M543.2,13.6c0,0-0.1,0-0.1-0.1c-0.5-0.6-1.1-1-1.9-1.2c-0.1,0-0.1-0.1-0.1-0.1
										c0-0.1,0.1-0.1,0.1-0.1l0,0c0.8,0.2,1.6,0.6,2.1,1.3C543.3,13.5,543.3,13.5,543.2,13.6C543.2,13.6,543.2,13.6,543.2,13.6"
										/>
									<path id="Path_1288" class="st13" d="M541,11.7c-0.1,0-0.1-0.1-0.1-0.1c0-0.1,0-0.1,0.1-0.1c0,0,1.4-0.6,1.2-1.6
										c0-0.1,0-0.1,0.1-0.2s0.1,0,0.2,0.1l0,0C542.7,11.1,541.2,11.7,541,11.7L541,11.7"/>
									<path id="Path_1289" class="st13" d="M512.7,4.6C512.6,4.6,512.6,4.5,512.7,4.6c-0.1-0.1-0.1-0.2,0-0.2
										c0.7-0.6,1.6-0.7,2.5-0.4c0.4,0.1,0.8,0.2,1.1,0.2c0.2,0,0.4-0.1,0.5-0.3c0.4-0.6,0.2-1.8,0.1-1.8c0-0.1,0-0.1,0.1-0.2
										c0.1,0,0.1,0,0.2,0.1l0,0c0.2,0.7,0.1,1.4-0.2,2.1c-0.2,0.2-0.4,0.4-0.7,0.4c-0.4,0-0.8,0-1.2-0.2
										C514.2,3.9,513.5,4,512.7,4.6C512.8,4.5,512.8,4.6,512.7,4.6"/>
									<path id="Path_1290" class="st13" d="M527.2,0.7c-0.7,0-1.5-0.1-2.2-0.4c-0.1,0-0.1-0.1-0.1-0.2S525,0,525.2,0
										c1.3,0.5,2.8,0.5,4.1-0.1c0.1,0,0.1,0,0.2,0.1s0,0.1-0.1,0.2C528.7,0.6,528,0.7,527.2,0.7"/>
									<path id="Path_1291" class="st13" d="M523,21.3C523,21.3,523,21.3,523,21.3c-0.1-0.1,0-0.1,0-0.1c0.1,0,1.3,0,1.6-1.8
										c0,0,0-0.1,0.1-0.1c0,0,0.1,0,0.1,0.1C524.5,21.3,523,21.3,523,21.3L523,21.3z"/>
									<path id="Path_1292" class="st13" d="M531,113.9c8.3-2.8,37.9-13.3,57.1-15.1c0.9-1.1,1-2.5,0.3-3.7
										c-3.5-6.1-28.1-1.8-28.1-1.8l-19.9,7.3l-5.7,3.4l-5.1,8.2C529.5,112.3,529.8,114.3,531,113.9"/>
									<path id="Path_1293" class="st15" d="M564,34.9c0,0-8.1-13.2-28.2-6.4c-35,11.9-18.5,37.3-6.4,83.8
										c0,0,23.9-12.5,58.8-17.1c0,0-5.2-25.7-16.3-45C569,45,567.2,39.1,564,34.9"/>
									<path id="Path_1294" class="st15" d="M531.8,30.1c0,0-11.2,4-16.8,14.7s-3.8,19.4-9.9,29.4c-4.5,7.4,4.5,17.4,11.2,15.3
										s10.9-8.8,10.9-8.8L531.8,30.1z"/>
									<path id="Path_1295" class="st13" d="M585.3,83.8c-5.4-19.9-17.5-41.9-17.6-42.2l0.2-0.1c0.1,0.2,12.2,22.3,17.6,42.2
										L585.3,83.8z"/>
									<path id="Path_1296" class="st14" d="M492.2,104.1c0,0-4.8-3.2-9.6,0.3c-1.7,1.3-6.4-0.5-5.7,1.3s6.2,4,5.8,5.7
										S492.2,104.1,492.2,104.1"/>
									<path id="Path_1297" class="st13" d="M561.2,184.3c-3.6-15.9-0.9-32.5,2.1-43.6c1.9-7,4.3-13.9,7.4-20.5l0.4,0.2
										c-3.1,6.6-5.5,13.4-7.4,20.4c-3,11.1-5.7,27.6-2.1,43.4L561.2,184.3z"/>
									<path id="Path_1298" class="st15" d="M490,109.9c4.8,2.2,36.5-11.9,40.1-27.9c3.7-17-25-7.8-25-7.8l-19.7,28.4
										C485.5,105.7,487.2,108.6,490,109.9"/>
									<path id="Path_1299" class="st13" d="M523.8,92.8l-0.2-0.2c8-11.1,10.7-27.4,10.8-27.6h0.3
										C534.7,65.3,531.8,81.6,523.8,92.8"/>
									<path id="Path_1300" class="st13" d="M404.8,131.2c-0.7,0-1.4-0.1-2-0.3c-1.4-0.4-2.5-1.5-2.9-2.8c-1-2.9,0.3-7.7,3.7-13
										c3-4.8,7-9,11.7-12.1c4.6-2.8,8.6-2.8,11.2,0c1.8,1.7,2.7,4.3,2.3,6.8c-0.5,2.8-2.6,5.8-6.3,8.7c-1.7,1.3-3.5,2.5-5.4,3.5
										c-0.2,0.1-0.5,0-0.6-0.2s0-0.5,0.2-0.6l0,0c0.1-0.1,10.1-5.3,11.2-11.6c0.3-2.2-0.4-4.4-2.1-5.9c-2.9-3.1-7-1.6-10,0.2
										c-8.6,5.2-16.9,18.4-15,23.9c0.3,1.1,1.2,1.9,2.3,2.2c6.8,2.1,24-10.3,24.2-10.4c0.2-0.2,0.5-0.1,0.7,0.1s0.1,0.5-0.1,0.7
										C427,120.8,412.8,131.2,404.8,131.2"/>
								</g>
							</g>
						</g>
					</g>
				</g>
			</g>
		</g>
	</g>
	<g id="Circles_2_" transform="translate(-458 -171)">
		<g id="Group_373_2_" transform="translate(1005 299)">
			<g>
				<g>
					<g>
						<defs>
							<rect id="SVGID_9_" x="321" y="-81.4" width="86.2" height="153.1"/>
						</defs>
						<clipPath id="SVGID_10_">
							<use xlink:href="#SVGID_9_"  style="overflow:visible;"/>
						</clipPath>
						<g id="Group_372_2_" transform="translate(0 0.001)" class="st17">
							<path id="Path_1301_2_" class="st11" d="M325.8-81.4c2.7,0,4.8,2.2,4.8,4.8s-2.2,4.8-4.8,4.8c-2.7,0-4.8-2.2-4.8-4.8
								S323.2-81.4,325.8-81.4"/>
							<path id="Path_1302_2_" class="st11" d="M325.8-52.6c2.7,0,4.8,2.2,4.8,4.8c0,2.6-2.2,4.8-4.8,4.8c-2.7,0-4.8-2.2-4.8-4.8
								C321-50.5,323.2-52.6,325.8-52.6"/>
							<path id="Path_1303_2_" class="st11" d="M325.8-24c2.7,0,4.8,2.2,4.8,4.8c0,2.7-2.2,4.8-4.8,4.8c-2.7,0-4.8-2.2-4.8-4.8
								S323.2-24,325.8-24"/>
							<path id="Path_1304_2_" class="st7" d="M325.8,4.8c2.7,0,4.8,2.2,4.8,4.8c0,2.7-2.2,4.8-4.8,4.8c-2.7,0-4.8-2.2-4.8-4.8
								C321,6.9,323.2,4.8,325.8,4.8"/>
							<path id="Path_1305_2_" class="st7" d="M325.8,33.4c2.7,0,4.8,2.2,4.8,4.8s-2.2,4.8-4.8,4.8c-2.7,0-4.8-2.2-4.8-4.8
								C321,35.6,323.2,33.4,325.8,33.4"/>
							<path id="Path_1306_2_" class="st7" d="M325.8,62.2c2.7,0,4.8,2.2,4.8,4.8s-2.2,4.8-4.8,4.8c-2.7,0-4.8-2.2-4.8-4.8
								S323.2,62.2,325.8,62.2"/>
							<path id="Path_1307_2_" class="st11" d="M351.8-81.4c2.7,0,4.8,2.2,4.8,4.8s-2.2,4.8-4.8,4.8c-2.7,0-4.8-2.2-4.8-4.8
								S349.2-81.4,351.8-81.4"/>
							<path id="Path_1308_2_" class="st11" d="M351.8-52.6c2.7,0,4.8,2.2,4.8,4.8c0,2.6-2.2,4.8-4.8,4.8c-2.7,0-4.8-2.2-4.8-4.8
								l0,0C347-50.5,349.2-52.6,351.8-52.6"/>
							<path id="Path_1309_2_" class="st11" d="M351.8-24c2.7,0,4.8,2.2,4.8,4.8c0,2.7-2.2,4.8-4.8,4.8c-2.7,0-4.8-2.2-4.8-4.8
								S349.2-24,351.8-24L351.8-24"/>
							<path id="Path_1310_2_" class="st7" d="M351.8,4.8c2.7,0,4.8,2.2,4.8,4.8s-2.2,4.8-4.8,4.8c-2.7,0-4.8-2.2-4.8-4.8
								C347,6.9,349.2,4.8,351.8,4.8L351.8,4.8"/>
							<path id="Path_1311_2_" class="st7" d="M351.8,33.4c2.7,0,4.8,2.2,4.8,4.8s-2.2,4.8-4.8,4.8c-2.7,0-4.8-2.2-4.8-4.8
								C347,35.6,349.2,33.4,351.8,33.4L351.8,33.4"/>
							<path id="Path_1312_2_" class="st7" d="M351.8,62.2c2.7,0,4.8,2.2,4.8,4.8s-2.2,4.8-4.8,4.8c-2.7,0-4.8-2.2-4.8-4.8
								S349.2,62.2,351.8,62.2L351.8,62.2"/>
							<path id="Path_1313_2_" class="st11" d="M376.4-81.4c2.7,0,4.8,2.2,4.8,4.8c0,2.7-2.2,4.8-4.8,4.8c-2.7,0-4.8-2.2-4.8-4.8
								C371.7-79.2,373.8-81.4,376.4-81.4"/>
							<path id="Path_1314_2_" class="st11" d="M376.4-52.6c2.7,0,4.8,2.2,4.8,4.8c0,2.7-2.2,4.8-4.8,4.8c-2.7,0-4.8-2.2-4.8-4.8
								C371.7-50.5,373.8-52.6,376.4-52.6"/>
							<path id="Path_1315_2_" class="st11" d="M376.4-24c2.7,0,4.8,2.2,4.8,4.8c0,2.7-2.2,4.8-4.8,4.8c-2.7,0-4.8-2.2-4.8-4.8
								C371.7-21.8,373.8-24,376.4-24"/>
							<path id="Path_1316_2_" class="st7" d="M376.4,4.8c2.7,0,4.8,2.2,4.8,4.8c0,2.7-2.2,4.8-4.8,4.8c-2.7,0-4.8-2.2-4.8-4.8
								C371.7,6.9,373.8,4.8,376.4,4.8"/>
							<path id="Path_1317_2_" class="st7" d="M376.4,33.4c2.7,0,4.8,2.2,4.8,4.8c0,2.7-2.2,4.8-4.8,4.8c-2.7,0-4.8-2.2-4.8-4.8
								C371.7,35.6,373.8,33.4,376.4,33.4"/>
							<path id="Path_1318_2_" class="st7" d="M376.4,62.2c2.7,0,4.8,2.2,4.8,4.8c0,2.7-2.2,4.8-4.8,4.8c-2.7,0-4.8-2.2-4.8-4.8
								C371.7,64.4,373.8,62.2,376.4,62.2"/>
							<path id="Path_1319_2_" class="st11" d="M402.4-81.4c2.7,0,4.8,2.2,4.8,4.8c0,2.7-2.2,4.8-4.8,4.8c-2.7,0-4.8-2.2-4.8-4.8
								S399.8-81.4,402.4-81.4"/>
							<path id="Path_1320_2_" class="st11" d="M402.4-52.6c2.7,0,4.8,2.2,4.8,4.8c0,2.7-2.2,4.8-4.8,4.8c-2.7,0-4.8-2.2-4.8-4.8
								l0,0C397.6-50.5,399.8-52.6,402.4-52.6L402.4-52.6"/>
							<path id="Path_1321_2_" class="st11" d="M402.4-24c2.7,0,4.8,2.2,4.8,4.8c0,2.7-2.2,4.8-4.8,4.8c-2.7,0-4.8-2.2-4.8-4.8
								S399.8-24,402.4-24L402.4-24"/>
							<path id="Path_1322_2_" class="st7" d="M402.4,4.8c2.7,0,4.8,2.2,4.8,4.8c0,2.7-2.2,4.8-4.8,4.8c-2.7,0-4.8-2.2-4.8-4.8
								C397.6,6.9,399.8,4.8,402.4,4.8L402.4,4.8"/>
							<path id="Path_1323_2_" class="st7" d="M402.4,33.4c2.7,0,4.8,2.2,4.8,4.8c0,2.7-2.2,4.8-4.8,4.8c-2.7,0-4.8-2.2-4.8-4.8
								C397.6,35.6,399.8,33.4,402.4,33.4L402.4,33.4"/>
							<path id="Path_1324_2_" class="st7" d="M402.4,62.2c2.7,0,4.8,2.2,4.8,4.8c0,2.7-2.2,4.8-4.8,4.8c-2.7,0-4.8-2.2-4.8-4.8
								S399.8,62.2,402.4,62.2L402.4,62.2"/>
						</g>
					</g>
				</g>
			</g>
		</g>
		<g id="Group_374_2_" transform="translate(376 299)">
			<g>
				<g>
					<g>
						<defs>
							<rect id="SVGID_11_" x="82" y="-81.4" width="86.2" height="153.1"/>
						</defs>
						<clipPath id="SVGID_12_">
							<use xlink:href="#SVGID_11_"  style="overflow:visible;"/>
						</clipPath>
						<g id="Group_372-2_2_" transform="translate(0 0.001)" class="st18">
							<path id="Path_1301-2_2_" class="st11" d="M86.8-81.4c2.7,0,4.8,2.2,4.8,4.8s-2.2,4.8-4.8,4.8c-2.7,0-4.8-2.2-4.8-4.8
								S84.2-81.4,86.8-81.4"/>
							<path id="Path_1302-2_2_" class="st11" d="M86.8-52.6c2.7,0,4.8,2.2,4.8,4.8c0,2.6-2.2,4.8-4.8,4.8c-2.7,0-4.8-2.2-4.8-4.8
								C82-50.5,84.2-52.6,86.8-52.6"/>
							<path id="Path_1303-2_2_" class="st11" d="M86.8-24c2.7,0,4.8,2.2,4.8,4.8c0,2.7-2.2,4.8-4.8,4.8c-2.7,0-4.8-2.2-4.8-4.8
								S84.2-24,86.8-24"/>
							<path id="Path_1304-2_2_" class="st7" d="M86.8,4.8c2.7,0,4.8,2.2,4.8,4.8c0,2.7-2.2,4.8-4.8,4.8c-2.7,0-4.8-2.2-4.8-4.8
								C82,6.9,84.2,4.8,86.8,4.8"/>
							<path id="Path_1305-2_2_" class="st7" d="M86.8,33.4c2.7,0,4.8,2.2,4.8,4.8S89.4,43,86.8,43c-2.7,0-4.8-2.2-4.8-4.8
								C82,35.6,84.2,33.4,86.8,33.4"/>
							<path id="Path_1306-2_2_" class="st7" d="M86.8,62.2c2.7,0,4.8,2.2,4.8,4.8s-2.2,4.8-4.8,4.8c-2.7,0-4.8-2.2-4.8-4.8
								S84.2,62.2,86.8,62.2"/>
							<path id="Path_1307-2_2_" class="st11" d="M112.8-81.4c2.7,0,4.8,2.2,4.8,4.8c0,2.7-2.2,4.8-4.8,4.8c-2.7,0-4.8-2.2-4.8-4.8
								C107.9-79.2,110.1-81.4,112.8-81.4"/>
							<path id="Path_1308-2_2_" class="st11" d="M112.8-52.6c2.7,0,4.8,2.2,4.8,4.8c0,2.6-2.2,4.8-4.8,4.8c-2.7,0-4.8-2.2-4.8-4.8
								l0,0C107.9-50.5,110.1-52.6,112.8-52.6"/>
							<path id="Path_1309-2_2_" class="st11" d="M112.8-24c2.7,0,4.8,2.2,4.8,4.8c0,2.7-2.2,4.8-4.8,4.8c-2.7,0-4.8-2.2-4.8-4.8
								C107.9-21.8,110.1-24,112.8-24L112.8-24"/>
							<path id="Path_1310-2_2_" class="st7" d="M112.8,4.8c2.7,0,4.8,2.2,4.8,4.8c0,2.7-2.2,4.8-4.8,4.8c-2.7,0-4.8-2.2-4.8-4.8
								C107.9,6.9,110.1,4.8,112.8,4.8L112.8,4.8"/>
							<path id="Path_1311-2_2_" class="st7" d="M112.8,33.4c2.7,0,4.8,2.2,4.8,4.8c0,2.7-2.2,4.8-4.8,4.8c-2.7,0-4.8-2.2-4.8-4.8
								C107.9,35.6,110.1,33.4,112.8,33.4L112.8,33.4"/>
							<path id="Path_1312-2_2_" class="st7" d="M112.8,62.2c2.7,0,4.8,2.2,4.8,4.8c0,2.7-2.2,4.8-4.8,4.8c-2.7,0-4.8-2.2-4.8-4.8
								C107.9,64.4,110.1,62.2,112.8,62.2L112.8,62.2"/>
							<path id="Path_1313-2_2_" class="st11" d="M137.4-81.4c2.7,0,4.8,2.2,4.8,4.8s-2.2,4.8-4.8,4.8c-2.7,0-4.8-2.2-4.8-4.8
								C132.6-79.2,134.7-81.4,137.4-81.4"/>
							<path id="Path_1314-2_2_" class="st11" d="M137.4-52.6c2.7,0,4.8,2.2,4.8,4.8c0,2.6-2.2,4.8-4.8,4.8s-4.8-2.2-4.8-4.8
								C132.6-50.5,134.7-52.6,137.4-52.6"/>
							<path id="Path_1315-2_2_" class="st11" d="M137.4-24c2.7,0,4.8,2.2,4.8,4.8c0,2.7-2.2,4.8-4.8,4.8c-2.7,0-4.8-2.2-4.8-4.8
								S134.7-24,137.4-24"/>
							<path id="Path_1316-2_2_" class="st7" d="M137.4,4.8c2.7,0,4.8,2.2,4.8,4.8s-2.2,4.8-4.8,4.8c-2.7,0-4.8-2.2-4.8-4.8
								C132.6,6.9,134.7,4.8,137.4,4.8"/>
							<path id="Path_1317-2_2_" class="st7" d="M137.4,33.4c2.7,0,4.8,2.2,4.8,4.8S140,43,137.4,43c-2.7,0-4.8-2.2-4.8-4.8
								C132.6,35.6,134.7,33.4,137.4,33.4"/>
							<path id="Path_1318-2_2_" class="st7" d="M137.4,62.2c2.7,0,4.8,2.2,4.8,4.8s-2.2,4.8-4.8,4.8c-2.7,0-4.8-2.2-4.8-4.8
								S134.7,62.2,137.4,62.2"/>
							<path id="Path_1319-2_2_" class="st11" d="M163.3-81.4c2.7,0,4.8,2.2,4.8,4.8c0,2.7-2.2,4.8-4.8,4.8c-2.7,0-4.8-2.2-4.8-4.8
								C158.6-79.2,160.7-81.4,163.3-81.4"/>
							<path id="Path_1320-2_2_" class="st11" d="M163.3-52.6c2.7,0,4.8,2.2,4.8,4.8c0,2.7-2.2,4.8-4.8,4.8s-4.8-2.2-4.8-4.8l0,0
								C158.6-50.5,160.7-52.6,163.3-52.6L163.3-52.6"/>
							<path id="Path_1321-2_2_" class="st11" d="M163.3-24c2.7,0,4.8,2.2,4.8,4.8c0,2.7-2.2,4.8-4.8,4.8c-2.7,0-4.8-2.2-4.8-4.8
								S160.7-24,163.3-24L163.3-24"/>
							<path id="Path_1322-2_2_" class="st7" d="M163.3,4.8c2.7,0,4.8,2.2,4.8,4.8c0,2.7-2.2,4.8-4.8,4.8c-2.7,0-4.8-2.2-4.8-4.8
								C158.6,6.9,160.7,4.8,163.3,4.8L163.3,4.8"/>
							<path id="Path_1323-2_2_" class="st7" d="M163.3,33.4c2.7,0,4.8,2.2,4.8,4.8c0,2.7-2.2,4.8-4.8,4.8c-2.7,0-4.8-2.2-4.8-4.8
								C158.6,35.6,160.7,33.4,163.3,33.4L163.3,33.4"/>
							<path id="Path_1324-2_2_" class="st7" d="M163.3,62.2c2.7,0,4.8,2.2,4.8,4.8c0,2.7-2.2,4.8-4.8,4.8c-2.7,0-4.8-2.2-4.8-4.8
								S160.7,62.2,163.3,62.2L163.3,62.2"/>
						</g>
					</g>
				</g>
			</g>
		</g>
	</g>
</g>
</svg>
