<?xml version="1.0" encoding="utf-8"?>
<!-- Generator: Adobe Illustrator 25.0.0, SVG Export Plug-In . SVG Version: 6.00 Build 0)  -->
<svg version="1.1" id="Layer_1" xmlns="http://www.w3.org/2000/svg" xmlns:xlink="http://www.w3.org/1999/xlink" x="0px" y="0px"
	 viewBox="0 0 954.2 268.8" style="enable-background:new 0 0 954.2 268.8;" xml:space="preserve">
<style type="text/css">
	.st0{clip-path:url(#SVGID_2_);}
	.st1{fill:#2D2D2D;}
	.st2{fill:#ED1818;}
	.st3{clip-path:url(#SVGID_4_);}
	.st4{fill:#222222;}
	.st5{fill:#737475;}
	.st6{fill:#636363;}
	.st7{fill:#64CDD8;}
	.st8{fill:#4B9AA2;}
	.st9{fill:#B21212;}
	.st10{fill:#CBCBCB;}
	.st11{fill:#A1A4A9;}
	.st12{enable-background:new    ;}
</style>
<g>
	<g id="Circles_2_" transform="translate(-458 -171)">
		<g id="Group_373_2_" transform="translate(1005 299)">
			<g>
				<g>
					<g>
						<defs>
							<rect id="SVGID_1_" x="321" y="-70.2" width="86.2" height="153.1"/>
						</defs>
						<clipPath id="SVGID_2_">
							<use xlink:href="#SVGID_1_"  style="overflow:visible;"/>
						</clipPath>
						<g id="Group_372_2_" transform="translate(0 0.001)" class="st0">
							<path id="Path_1301_2_" class="st1" d="M325.8-70.2c2.7,0,4.8,2.2,4.8,4.8s-2.2,4.8-4.8,4.8c-2.7,0-4.8-2.2-4.8-4.8
								S323.2-70.2,325.8-70.2"/>
							<path id="Path_1302_2_" class="st1" d="M325.8-41.4c2.7,0,4.8,2.2,4.8,4.8c0,2.6-2.2,4.8-4.8,4.8c-2.7,0-4.8-2.2-4.8-4.8
								C321-39.3,323.2-41.4,325.8-41.4"/>
							<path id="Path_1303_2_" class="st1" d="M325.8-12.8c2.7,0,4.8,2.2,4.8,4.8c0,2.7-2.2,4.8-4.8,4.8c-2.7,0-4.8-2.2-4.8-4.8
								S323.2-12.8,325.8-12.8"/>
							<path id="Path_1304_2_" class="st2" d="M325.8,16c2.7,0,4.8,2.2,4.8,4.8c0,2.7-2.2,4.8-4.8,4.8c-2.7,0-4.8-2.2-4.8-4.8
								C321,18.1,323.2,16,325.8,16"/>
							<path id="Path_1305_2_" class="st2" d="M325.8,44.6c2.7,0,4.8,2.2,4.8,4.8s-2.2,4.8-4.8,4.8c-2.7,0-4.8-2.2-4.8-4.8
								C321,46.8,323.2,44.6,325.8,44.6"/>
							<path id="Path_1306_2_" class="st2" d="M325.8,73.4c2.7,0,4.8,2.2,4.8,4.8s-2.2,4.8-4.8,4.8c-2.7,0-4.8-2.2-4.8-4.8
								S323.2,73.4,325.8,73.4"/>
							<path id="Path_1307_2_" class="st1" d="M351.8-70.2c2.7,0,4.8,2.2,4.8,4.8s-2.2,4.8-4.8,4.8c-2.7,0-4.8-2.2-4.8-4.8
								S349.2-70.2,351.8-70.2"/>
							<path id="Path_1308_2_" class="st1" d="M351.8-41.4c2.7,0,4.8,2.2,4.8,4.8c0,2.6-2.2,4.8-4.8,4.8c-2.7,0-4.8-2.2-4.8-4.8l0,0
								C347-39.3,349.2-41.4,351.8-41.4"/>
							<path id="Path_1309_2_" class="st1" d="M351.8-12.8c2.7,0,4.8,2.2,4.8,4.8c0,2.7-2.2,4.8-4.8,4.8c-2.7,0-4.8-2.2-4.8-4.8
								S349.2-12.8,351.8-12.8L351.8-12.8"/>
							<path id="Path_1310_2_" class="st2" d="M351.8,16c2.7,0,4.8,2.2,4.8,4.8s-2.2,4.8-4.8,4.8c-2.7,0-4.8-2.2-4.8-4.8
								C347,18.1,349.2,16,351.8,16L351.8,16"/>
							<path id="Path_1311_2_" class="st2" d="M351.8,44.6c2.7,0,4.8,2.2,4.8,4.8s-2.2,4.8-4.8,4.8c-2.7,0-4.8-2.2-4.8-4.8
								C347,46.8,349.2,44.6,351.8,44.6L351.8,44.6"/>
							<path id="Path_1312_2_" class="st2" d="M351.8,73.4c2.7,0,4.8,2.2,4.8,4.8s-2.2,4.8-4.8,4.8c-2.7,0-4.8-2.2-4.8-4.8
								S349.2,73.4,351.8,73.4L351.8,73.4"/>
							<path id="Path_1313_2_" class="st1" d="M376.4-70.2c2.7,0,4.8,2.2,4.8,4.8c0,2.7-2.2,4.8-4.8,4.8c-2.7,0-4.8-2.2-4.8-4.8
								C371.7-68,373.8-70.2,376.4-70.2"/>
							<path id="Path_1314_2_" class="st1" d="M376.4-41.4c2.7,0,4.8,2.2,4.8,4.8c0,2.7-2.2,4.8-4.8,4.8c-2.7,0-4.8-2.2-4.8-4.8
								C371.7-39.3,373.8-41.4,376.4-41.4"/>
							<path id="Path_1315_2_" class="st1" d="M376.4-12.8c2.7,0,4.8,2.2,4.8,4.8c0,2.7-2.2,4.8-4.8,4.8c-2.7,0-4.8-2.2-4.8-4.8
								C371.7-10.6,373.8-12.8,376.4-12.8"/>
							<path id="Path_1316_2_" class="st2" d="M376.4,16c2.7,0,4.8,2.2,4.8,4.8c0,2.7-2.2,4.8-4.8,4.8c-2.7,0-4.8-2.2-4.8-4.8
								C371.7,18.1,373.8,16,376.4,16"/>
							<path id="Path_1317_2_" class="st2" d="M376.4,44.6c2.7,0,4.8,2.2,4.8,4.8c0,2.7-2.2,4.8-4.8,4.8c-2.7,0-4.8-2.2-4.8-4.8
								C371.7,46.8,373.8,44.6,376.4,44.6"/>
							<path id="Path_1318_2_" class="st2" d="M376.4,73.4c2.7,0,4.8,2.2,4.8,4.8c0,2.7-2.2,4.8-4.8,4.8c-2.7,0-4.8-2.2-4.8-4.8
								C371.7,75.6,373.8,73.4,376.4,73.4"/>
							<path id="Path_1319_2_" class="st1" d="M402.4-70.2c2.7,0,4.8,2.2,4.8,4.8c0,2.7-2.2,4.8-4.8,4.8c-2.7,0-4.8-2.2-4.8-4.8
								S399.8-70.2,402.4-70.2"/>
							<path id="Path_1320_2_" class="st1" d="M402.4-41.4c2.7,0,4.8,2.2,4.8,4.8c0,2.7-2.2,4.8-4.8,4.8c-2.7,0-4.8-2.2-4.8-4.8l0,0
								C397.6-39.3,399.8-41.4,402.4-41.4L402.4-41.4"/>
							<path id="Path_1321_2_" class="st1" d="M402.4-12.8c2.7,0,4.8,2.2,4.8,4.8c0,2.7-2.2,4.8-4.8,4.8c-2.7,0-4.8-2.2-4.8-4.8
								S399.8-12.8,402.4-12.8L402.4-12.8"/>
							<path id="Path_1322_2_" class="st2" d="M402.4,16c2.7,0,4.8,2.2,4.8,4.8c0,2.7-2.2,4.8-4.8,4.8c-2.7,0-4.8-2.2-4.8-4.8
								C397.6,18.1,399.8,16,402.4,16L402.4,16"/>
							<path id="Path_1323_2_" class="st2" d="M402.4,44.6c2.7,0,4.8,2.2,4.8,4.8c0,2.7-2.2,4.8-4.8,4.8c-2.7,0-4.8-2.2-4.8-4.8
								C397.6,46.8,399.8,44.6,402.4,44.6L402.4,44.6"/>
							<path id="Path_1324_2_" class="st2" d="M402.4,73.4c2.7,0,4.8,2.2,4.8,4.8c0,2.7-2.2,4.8-4.8,4.8c-2.7,0-4.8-2.2-4.8-4.8
								S399.8,73.4,402.4,73.4L402.4,73.4"/>
						</g>
					</g>
				</g>
			</g>
		</g>
		<g id="Group_374_2_" transform="translate(376 299)">
			<g>
				<g>
					<g>
						<defs>
							<rect id="SVGID_3_" x="82" y="-70.2" width="86.2" height="153.1"/>
						</defs>
						<clipPath id="SVGID_4_">
							<use xlink:href="#SVGID_3_"  style="overflow:visible;"/>
						</clipPath>
						<g id="Group_372-2_2_" transform="translate(0 0.001)" class="st3">
							<path id="Path_1301-2_2_" class="st1" d="M86.8-70.2c2.7,0,4.8,2.2,4.8,4.8s-2.2,4.8-4.8,4.8c-2.7,0-4.8-2.2-4.8-4.8
								S84.2-70.2,86.8-70.2"/>
							<path id="Path_1302-2_2_" class="st1" d="M86.8-41.4c2.7,0,4.8,2.2,4.8,4.8c0,2.6-2.2,4.8-4.8,4.8c-2.7,0-4.8-2.2-4.8-4.8
								C82-39.3,84.2-41.4,86.8-41.4"/>
							<path id="Path_1303-2_2_" class="st1" d="M86.8-12.8c2.7,0,4.8,2.2,4.8,4.8c0,2.7-2.2,4.8-4.8,4.8C84.1-3.2,82-5.4,82-8
								S84.2-12.8,86.8-12.8"/>
							<path id="Path_1304-2_2_" class="st2" d="M86.8,16c2.7,0,4.8,2.2,4.8,4.8c0,2.7-2.2,4.8-4.8,4.8c-2.7,0-4.8-2.2-4.8-4.8
								C82,18.1,84.2,16,86.8,16"/>
							<path id="Path_1305-2_2_" class="st2" d="M86.8,44.6c2.7,0,4.8,2.2,4.8,4.8s-2.2,4.8-4.8,4.8c-2.7,0-4.8-2.2-4.8-4.8
								C82,46.8,84.2,44.6,86.8,44.6"/>
							<path id="Path_1306-2_2_" class="st2" d="M86.8,73.4c2.7,0,4.8,2.2,4.8,4.8S89.4,83,86.8,83c-2.7,0-4.8-2.2-4.8-4.8
								S84.2,73.4,86.8,73.4"/>
							<path id="Path_1307-2_2_" class="st1" d="M112.8-70.2c2.7,0,4.8,2.2,4.8,4.8c0,2.7-2.2,4.8-4.8,4.8c-2.7,0-4.8-2.2-4.8-4.8
								C107.9-68,110.1-70.2,112.8-70.2"/>
							<path id="Path_1308-2_2_" class="st1" d="M112.8-41.4c2.7,0,4.8,2.2,4.8,4.8c0,2.6-2.2,4.8-4.8,4.8c-2.7,0-4.8-2.2-4.8-4.8
								l0,0C107.9-39.3,110.1-41.4,112.8-41.4"/>
							<path id="Path_1309-2_2_" class="st1" d="M112.8-12.8c2.7,0,4.8,2.2,4.8,4.8c0,2.7-2.2,4.8-4.8,4.8c-2.7,0-4.8-2.2-4.8-4.8
								C107.9-10.6,110.1-12.8,112.8-12.8L112.8-12.8"/>
							<path id="Path_1310-2_2_" class="st2" d="M112.8,16c2.7,0,4.8,2.2,4.8,4.8c0,2.7-2.2,4.8-4.8,4.8c-2.7,0-4.8-2.2-4.8-4.8
								C107.9,18.1,110.1,16,112.8,16L112.8,16"/>
							<path id="Path_1311-2_2_" class="st2" d="M112.8,44.6c2.7,0,4.8,2.2,4.8,4.8c0,2.7-2.2,4.8-4.8,4.8c-2.7,0-4.8-2.2-4.8-4.8
								C107.9,46.8,110.1,44.6,112.8,44.6L112.8,44.6"/>
							<path id="Path_1312-2_2_" class="st2" d="M112.8,73.4c2.7,0,4.8,2.2,4.8,4.8c0,2.7-2.2,4.8-4.8,4.8c-2.7,0-4.8-2.2-4.8-4.8
								C107.9,75.6,110.1,73.4,112.8,73.4L112.8,73.4"/>
							<path id="Path_1313-2_2_" class="st1" d="M137.4-70.2c2.7,0,4.8,2.2,4.8,4.8s-2.2,4.8-4.8,4.8c-2.7,0-4.8-2.2-4.8-4.8
								C132.6-68,134.7-70.2,137.4-70.2"/>
							<path id="Path_1314-2_2_" class="st1" d="M137.4-41.4c2.7,0,4.8,2.2,4.8,4.8c0,2.6-2.2,4.8-4.8,4.8s-4.8-2.2-4.8-4.8
								C132.6-39.3,134.7-41.4,137.4-41.4"/>
							<path id="Path_1315-2_2_" class="st1" d="M137.4-12.8c2.7,0,4.8,2.2,4.8,4.8c0,2.7-2.2,4.8-4.8,4.8c-2.7,0-4.8-2.2-4.8-4.8
								S134.7-12.8,137.4-12.8"/>
							<path id="Path_1316-2_2_" class="st2" d="M137.4,16c2.7,0,4.8,2.2,4.8,4.8s-2.2,4.8-4.8,4.8c-2.7,0-4.8-2.2-4.8-4.8
								C132.6,18.1,134.7,16,137.4,16"/>
							<path id="Path_1317-2_2_" class="st2" d="M137.4,44.6c2.7,0,4.8,2.2,4.8,4.8s-2.2,4.8-4.8,4.8c-2.7,0-4.8-2.2-4.8-4.8
								C132.6,46.8,134.7,44.6,137.4,44.6"/>
							<path id="Path_1318-2_2_" class="st2" d="M137.4,73.4c2.7,0,4.8,2.2,4.8,4.8S140,83,137.4,83c-2.7,0-4.8-2.2-4.8-4.8
								S134.7,73.4,137.4,73.4"/>
							<path id="Path_1319-2_2_" class="st1" d="M163.3-70.2c2.7,0,4.8,2.2,4.8,4.8c0,2.7-2.2,4.8-4.8,4.8c-2.7,0-4.8-2.2-4.8-4.8
								C158.6-68,160.7-70.2,163.3-70.2"/>
							<path id="Path_1320-2_2_" class="st1" d="M163.3-41.4c2.7,0,4.8,2.2,4.8,4.8c0,2.7-2.2,4.8-4.8,4.8s-4.8-2.2-4.8-4.8l0,0
								C158.6-39.3,160.7-41.4,163.3-41.4L163.3-41.4"/>
							<path id="Path_1321-2_2_" class="st1" d="M163.3-12.8c2.7,0,4.8,2.2,4.8,4.8c0,2.7-2.2,4.8-4.8,4.8c-2.7,0-4.8-2.2-4.8-4.8
								S160.7-12.8,163.3-12.8L163.3-12.8"/>
							<path id="Path_1322-2_2_" class="st2" d="M163.3,16c2.7,0,4.8,2.2,4.8,4.8c0,2.7-2.2,4.8-4.8,4.8c-2.7,0-4.8-2.2-4.8-4.8
								C158.6,18.1,160.7,16,163.3,16L163.3,16"/>
							<path id="Path_1323-2_2_" class="st2" d="M163.3,44.6c2.7,0,4.8,2.2,4.8,4.8c0,2.7-2.2,4.8-4.8,4.8c-2.7,0-4.8-2.2-4.8-4.8
								C158.6,46.8,160.7,44.6,163.3,44.6L163.3,44.6"/>
							<path id="Path_1324-2_2_" class="st2" d="M163.3,73.4c2.7,0,4.8,2.2,4.8,4.8c0,2.7-2.2,4.8-4.8,4.8c-2.7,0-4.8-2.2-4.8-4.8
								S160.7,73.4,163.3,73.4L163.3,73.4"/>
						</g>
					</g>
				</g>
			</g>
		</g>
	</g>
	<path id="Path_2470" class="st2" d="M308.5,23.6c-0.8-0.6-1.9-0.5-2.5,0.3c-0.6,0.8-0.5,1.9,0.3,2.5c0.8,0.6,1.9,0.5,2.5-0.3l0,0
		C309.4,25.3,309.3,24.2,308.5,23.6"/>
	<path id="Path_2471" class="st2" d="M317.5,29.9L317.5,29.9c-0.8-0.6-1.9-0.3-2.5,0.5l0,0c-0.6,0.8-0.3,1.9,0.6,2.5
		c0.8,0.6,1.9,0.3,2.5-0.6C318.6,31.5,318.4,30.4,317.5,29.9"/>
	<path id="Path_2483" class="st2" d="M298.7,16.3c-1,0-1.8,0.8-1.8,1.8c0,1,0.8,1.8,1.8,1.8c1,0,1.8-0.8,1.8-1.8
		c0-0.5-0.2-0.9-0.6-1.2C299.6,16.4,299.1,16.3,298.7,16.3"/>
	<path id="Path_2463" class="st1" d="M447.1,182.6l-28.9,61.6l126.6-66.6l-132.7-53.1L447.1,182.6z"/>
	<path id="Path_2464" class="st4" d="M544.8,177.5l-97.5,5.1l-28.9,61.6L544.8,177.5z"/>
	<path id="Path_2465" class="st2" d="M356.9,50.4c-0.9-0.3-1.9,0-2.4,0.9c-0.3,0.9,0,1.9,0.9,2.4c0,0,0,0,0.1,0
		c0.9,0.3,1.9-0.1,2.3-1C358.2,51.7,357.7,50.7,356.9,50.4"/>
	<path id="Path_2466" class="st2" d="M388.5,60.9c-0.9-0.2-1.9,0.3-2.1,1.4c-0.2,0.9,0.3,1.8,1.2,2.1c0.1,0,0.3,0.1,0.5,0.1
		c1,0,1.8-0.8,1.8-1.8C389.8,61.8,389.3,61,388.5,60.9"/>
	<path id="Path_2467" class="st2" d="M377.8,57.8c-0.9-0.3-1.9,0.2-2.3,1.1c-0.3,0.9,0.2,1.9,1.1,2.3h0.1c0.1,0,0.3,0.1,0.6,0.1
		c1,0,1.8-0.8,1.8-1.8C379,58.7,378.6,58,377.8,57.8"/>
	<path id="Path_2468" class="st2" d="M367.3,54.3c-0.9-0.3-1.9,0.1-2.3,1.1c-0.3,0.9,0.1,1.9,1.1,2.3c0.9,0.3,1.9-0.1,2.3-1.1l0,0
		C368.7,55.7,368.2,54.6,367.3,54.3"/>
	<path id="Path_2469" class="st2" d="M346.6,46c-0.9-0.5-1.9,0-2.4,0.9c-0.5,0.9,0,1.9,0.9,2.4c0.9,0.5,1.9,0,2.4-0.9
		S347.5,46.4,346.6,46L346.6,46"/>
	<path id="Path_2472" class="st2" d="M336.7,41.1c-0.9-0.5-1.9-0.1-2.4,0.8s-0.1,1.9,0.8,2.4c0.9,0.5,1.9,0.1,2.4-0.8l0,0
		C338,42.6,337.6,41.5,336.7,41.1"/>
	<path id="Path_2473" class="st2" d="M327,35.8c-0.8-0.5-1.9-0.2-2.4,0.7c-0.5,0.8-0.2,1.9,0.7,2.4c0.8,0.5,1.9,0.2,2.4-0.7
		C328.1,37.4,327.8,36.2,327,35.8L327,35.8"/>
	<path id="Path_2474" class="st2" d="M465.5,70.3c-0.9,0-1.7,0.7-1.8,1.7c-0.1,1,0.7,1.7,1.7,1.8h0.1l0,0c0.9,0,1.7-0.8,1.8-1.7
		C467.3,71.1,466.5,70.3,465.5,70.3C465.6,70.3,465.5,70.3,465.5,70.3"/>
	<path id="Path_2475" class="st2" d="M454.5,70.2c-1,0-1.8,0.8-1.8,1.7s0.8,1.8,1.7,1.8l0,0c1,0,1.8-0.8,1.8-1.7
		C456.2,71,455.4,70.2,454.5,70.2"/>
	<path id="Path_2476" class="st2" d="M476.7,70c-1,0-1.8,0.8-1.7,1.8c0,1,0.8,1.8,1.8,1.7h0.1c1-0.1,1.7-0.9,1.7-1.9
		C478.4,70.8,477.6,70,476.7,70"/>
	<path id="Path_2477" class="st2" d="M487.8,69.3L487.8,69.3c-1,0.1-1.7,1-1.6,1.9s0.8,1.7,1.8,1.7h0.1c1-0.1,1.7-0.9,1.6-1.9
		C489.6,70,488.8,69.2,487.8,69.3"/>
	<path id="Path_2478" class="st2" d="M443.3,69.7c-1-0.1-1.8,0.6-1.9,1.6s0.6,1.8,1.6,1.9h0.1h0.1c1,0,1.8-0.8,1.8-1.8
		C445,70.5,444.2,69.7,443.3,69.7"/>
	<path id="Path_2479" class="st2" d="M399.3,63.5c-0.9-0.2-1.9,0.3-2.1,1.4c-0.2,0.9,0.3,1.9,1.4,2.1c0.1,0,0.2,0,0.3,0
		c1,0,1.8-0.8,1.8-1.8C400.7,64.4,400.2,63.6,399.3,63.5"/>
	<path id="Path_2480" class="st2" d="M410.2,65.6c-1-0.1-1.9,0.5-2,1.5c-0.1,0.9,0.5,1.8,1.4,2c0.1,0,0.2,0,0.3,0
		c1,0,1.8-0.8,1.8-1.8C411.7,66.5,411,65.7,410.2,65.6"/>
	<path id="Path_2481" class="st2" d="M421.2,67.4c-1-0.1-1.9,0.6-2,1.5c-0.1,1,0.6,1.9,1.5,2c0.1,0,0.1,0,0.2,0c1,0,1.8-0.8,1.8-1.8
		C422.7,68.2,422.1,67.5,421.2,67.4"/>
	<path id="Path_2482" class="st2" d="M432.2,68.8c-1-0.1-1.8,0.6-1.9,1.6c-0.1,1,0.6,1.8,1.6,1.9l0,0c0.1,0,0.1,0,0.2,0
		c1,0,1.8-0.8,1.8-1.8C433.8,69.5,433.1,68.8,432.2,68.8"/>
	<path id="Path_2484" class="st2" d="M640.3,3.8c-0.3-0.3-0.9-0.5-1.4-0.2L616.8,12c-0.7,0.2-1,1-0.8,1.7c0.2,0.7,1,1,1.7,0.8l0,0
		L634.7,8C604,40.2,554.7,62.3,499,68.9c-0.7,0.1-1.2,0.7-1.1,1.5c0.1,0.7,0.7,1.1,1.4,1.1h0.1c56.2-6.5,105.8-28.8,137.1-61.2
		L630.8,27c-0.2,0.7,0.1,1.5,0.8,1.7l0,0c0.1,0,0.2,0.1,0.5,0.1c0.6,0,1-0.3,1.2-0.9l7.5-22.5C640.8,4.7,640.6,4.2,640.3,3.8"/>
	<path id="Path_2485" class="st5" d="M318,151.2l-53.5,42l142.9-2.7L312.8,83.5L318,151.2z"/>
	<path id="Path_2486" class="st6" d="M407.4,190.6L318,151.2l-53.5,42L407.4,190.6z"/>
	<path id="Path_2487" class="st7" d="M581.7,156.9l7,67.7l74-122.4l-141,23L581.7,156.9z"/>
	<path id="Path_2488" class="st8" d="M662.7,102.2l-81,54.8l7,67.7L662.7,102.2z"/>
	<path id="Path_2489" class="st2" d="M685.8,81.4l32.3,60L739.9,0L618.3,75.1L685.8,81.4z"/>
	<path id="Path_2490" class="st9" d="M739.9,0l-54,81.4l32.3,60L739.9,0z"/>
	<path id="Path_2491" class="st10" d="M215.1,65.8l-64.2,22.6l136.3,43.5L231.9,0L215.1,65.8z"/>
	<path id="Path_2492" class="st11" d="M215.1,65.8l72,66L150.9,88.3L215.1,65.8z"/>
	<g>
		<g class="st12">
			<path class="st11" d="M154.4,119.8l1.4-0.1c0.1,0.5,0.2,1,0.4,1.3s0.6,0.6,1.1,0.8s1,0.3,1.7,0.3c0.5,0,1-0.1,1.5-0.2
				c0.4-0.2,0.7-0.4,0.9-0.7c0.2-0.3,0.3-0.6,0.3-0.9c0-0.3-0.1-0.6-0.3-0.9c-0.2-0.3-0.5-0.5-1-0.6c-0.3-0.1-0.9-0.3-1.9-0.5
				s-1.7-0.5-2.1-0.7c-0.5-0.3-0.9-0.6-1.2-1c-0.3-0.4-0.4-0.9-0.4-1.4c0-0.5,0.2-1.1,0.5-1.5c0.3-0.5,0.8-0.8,1.4-1.1
				c0.6-0.2,1.3-0.4,2-0.4c0.8,0,1.5,0.1,2.1,0.4c0.6,0.3,1.1,0.6,1.4,1.1c0.3,0.5,0.5,1.1,0.5,1.7l-1.4,0.1
				c-0.1-0.7-0.3-1.2-0.8-1.6c-0.4-0.4-1.1-0.5-1.9-0.5c-0.9,0-1.5,0.2-1.9,0.5s-0.6,0.7-0.6,1.2c0,0.4,0.1,0.7,0.4,1
				c0.3,0.3,1,0.5,2.2,0.8c1.2,0.3,2,0.5,2.4,0.7c0.6,0.3,1.1,0.7,1.4,1.1s0.5,1,0.5,1.5c0,0.6-0.2,1.1-0.5,1.6
				c-0.3,0.5-0.8,0.9-1.4,1.2c-0.6,0.3-1.3,0.4-2.1,0.4c-1,0-1.8-0.1-2.5-0.4c-0.7-0.3-1.2-0.7-1.6-1.3
				C154.6,121.2,154.4,120.5,154.4,119.8z"/>
			<path class="st11" d="M167.8,122.1l0.2,1.2c-0.4,0.1-0.7,0.1-1,0.1c-0.5,0-0.9-0.1-1.1-0.2c-0.3-0.2-0.5-0.4-0.6-0.6
				s-0.2-0.8-0.2-1.6v-4.5h-1v-1h1v-1.9l1.3-0.8v2.7h1.3v1h-1.3v4.6c0,0.4,0,0.6,0.1,0.7s0.1,0.2,0.2,0.3c0.1,0.1,0.3,0.1,0.5,0.1
				C167.3,122.1,167.5,122.1,167.8,122.1z"/>
			<path class="st11" d="M174.5,120.8l1.4,0.2c-0.2,0.8-0.6,1.4-1.2,1.9s-1.3,0.7-2.3,0.7c-1.2,0-2.1-0.4-2.7-1.1s-1-1.7-1-3
				c0-1.3,0.3-2.4,1-3.1c0.7-0.7,1.6-1.1,2.7-1.1c1.1,0,1.9,0.4,2.6,1.1c0.7,0.7,1,1.7,1,3c0,0.1,0,0.2,0,0.4H170
				c0,0.9,0.3,1.5,0.7,2c0.4,0.5,1,0.7,1.6,0.7c0.5,0,0.9-0.1,1.3-0.4C174,121.7,174.3,121.3,174.5,120.8z M170.1,118.6h4.4
				c-0.1-0.7-0.2-1.2-0.5-1.5c-0.4-0.5-1-0.8-1.7-0.8c-0.6,0-1.1,0.2-1.5,0.6S170.1,117.9,170.1,118.6z"/>
			<path class="st11" d="M177.5,126.3v-10.9h1.2v1c0.3-0.4,0.6-0.7,1-0.9c0.4-0.2,0.8-0.3,1.3-0.3c0.7,0,1.3,0.2,1.8,0.5
				c0.5,0.3,0.9,0.8,1.2,1.5s0.4,1.3,0.4,2.1c0,0.8-0.1,1.5-0.4,2.2s-0.7,1.1-1.3,1.5c-0.6,0.3-1.1,0.5-1.7,0.5
				c-0.4,0-0.8-0.1-1.2-0.3c-0.4-0.2-0.6-0.4-0.9-0.7v3.8H177.5z M178.7,119.4c0,1,0.2,1.8,0.6,2.2c0.4,0.5,0.9,0.7,1.5,0.7
				c0.6,0,1.1-0.3,1.5-0.8c0.4-0.5,0.6-1.3,0.6-2.3c0-1-0.2-1.8-0.6-2.3c-0.4-0.5-0.9-0.7-1.5-0.7c-0.6,0-1.1,0.3-1.5,0.8
				S178.7,118.4,178.7,119.4z"/>
			<path class="st11" d="M194.8,123.3h-1.3v-8.5c-0.3,0.3-0.7,0.6-1.3,0.9s-1,0.5-1.4,0.7v-1.3c0.7-0.4,1.4-0.8,2-1.3
				c0.6-0.5,1-1,1.2-1.5h0.9V123.3z"/>
		</g>
		<g class="st12">
			<path d="M154.7,137.2v-9.1h4c0.8,0,1.4,0.1,1.8,0.2c0.4,0.2,0.8,0.4,1,0.9s0.4,0.9,0.4,1.4c0,0.6-0.2,1.2-0.6,1.6
				c-0.4,0.4-1.1,0.7-1.9,0.8c0.3,0.2,0.6,0.3,0.7,0.5c0.4,0.3,0.7,0.7,1,1.2l1.6,2.5h-1.5l-1.2-1.9c-0.4-0.5-0.6-1-0.9-1.2
				s-0.4-0.5-0.6-0.6c-0.2-0.1-0.4-0.2-0.5-0.2c-0.1,0-0.4,0-0.7,0h-1.4v4H154.7z M155.9,132.1h2.6c0.5,0,1-0.1,1.3-0.2
				c0.3-0.1,0.5-0.3,0.7-0.5c0.2-0.2,0.2-0.5,0.2-0.8c0-0.4-0.2-0.8-0.5-1.1c-0.3-0.3-0.8-0.4-1.5-0.4h-2.9V132.1z"/>
			<path d="M168.2,135.1l1.1,0.1c-0.2,0.7-0.5,1.2-1,1.6s-1.1,0.6-1.9,0.6c-1,0-1.7-0.3-2.3-0.9c-0.6-0.6-0.8-1.4-0.8-2.5
				c0-1.1,0.3-2,0.9-2.6s1.3-0.9,2.2-0.9c0.9,0,1.6,0.3,2.1,0.9c0.6,0.6,0.8,1.4,0.8,2.5c0,0.1,0,0.2,0,0.3h-4.9
				c0,0.7,0.2,1.3,0.6,1.7c0.4,0.4,0.8,0.6,1.4,0.6c0.4,0,0.8-0.1,1-0.3C167.8,135.9,168,135.5,168.2,135.1z M164.5,133.3h3.7
				c0-0.6-0.2-1-0.4-1.2c-0.4-0.4-0.8-0.6-1.4-0.6c-0.5,0-0.9,0.2-1.3,0.5C164.8,132.2,164.6,132.7,164.5,133.3z"/>
			<path d="M174.9,139.7v-3.2c-0.2,0.2-0.4,0.4-0.7,0.6c-0.3,0.2-0.6,0.2-1,0.2c-0.8,0-1.4-0.3-2-0.9c-0.6-0.6-0.8-1.5-0.8-2.6
				c0-0.7,0.1-1.2,0.3-1.8c0.2-0.5,0.6-0.9,1-1.2c0.4-0.3,0.9-0.4,1.4-0.4c0.8,0,1.4,0.3,1.9,1v-0.9h1v9.1H174.9z M171.5,133.9
				c0,0.8,0.2,1.5,0.5,1.9c0.4,0.4,0.8,0.6,1.3,0.6c0.5,0,0.9-0.2,1.2-0.6c0.3-0.4,0.5-1,0.5-1.8c0-0.9-0.2-1.5-0.5-2
				c-0.4-0.4-0.8-0.7-1.3-0.7c-0.5,0-0.9,0.2-1.2,0.6C171.7,132.4,171.5,133,171.5,133.9z"/>
			<path d="M182.1,137.2v-1c-0.5,0.7-1.2,1.1-2.1,1.1c-0.4,0-0.7-0.1-1.1-0.2c-0.3-0.1-0.6-0.3-0.7-0.6c-0.2-0.2-0.3-0.5-0.3-0.8
				c0-0.2-0.1-0.6-0.1-1v-4.1h1.1v3.6c0,0.6,0,1,0.1,1.2c0.1,0.3,0.2,0.5,0.4,0.7c0.2,0.2,0.5,0.3,0.8,0.3c0.3,0,0.6-0.1,0.9-0.3
				c0.3-0.2,0.5-0.4,0.6-0.7c0.1-0.3,0.2-0.7,0.2-1.3v-3.5h1.1v6.6H182.1z"/>
			<path d="M184.8,129.4v-1.3h1.1v1.3H184.8z M184.8,137.2v-6.6h1.1v6.6H184.8z"/>
			<path d="M187.6,137.2v-6.6h1v1c0.3-0.5,0.5-0.8,0.7-0.9c0.2-0.1,0.5-0.2,0.7-0.2c0.4,0,0.8,0.1,1.1,0.4l-0.4,1
				c-0.3-0.2-0.5-0.2-0.8-0.2c-0.2,0-0.5,0.1-0.7,0.2c-0.2,0.1-0.3,0.3-0.4,0.6c-0.1,0.4-0.2,0.8-0.2,1.3v3.4H187.6z"/>
			<path d="M196.3,135.1l1.1,0.1c-0.2,0.7-0.5,1.2-1,1.6s-1.1,0.6-1.9,0.6c-1,0-1.7-0.3-2.3-0.9c-0.6-0.6-0.8-1.4-0.8-2.5
				c0-1.1,0.3-2,0.9-2.6s1.3-0.9,2.2-0.9c0.9,0,1.6,0.3,2.1,0.9c0.6,0.6,0.8,1.4,0.8,2.5c0,0.1,0,0.2,0,0.3h-4.9
				c0,0.7,0.2,1.3,0.6,1.7c0.4,0.4,0.8,0.6,1.4,0.6c0.4,0,0.8-0.1,1-0.3C195.9,135.9,196.1,135.5,196.3,135.1z M192.7,133.3h3.7
				c0-0.6-0.2-1-0.4-1.2c-0.4-0.4-0.8-0.6-1.4-0.6c-0.5,0-0.9,0.2-1.3,0.5C192.9,132.2,192.7,132.7,192.7,133.3z"/>
			<path d="M198.9,137.2v-6.6h1v0.9c0.2-0.3,0.5-0.6,0.8-0.8c0.3-0.2,0.7-0.3,1.2-0.3c0.5,0,0.9,0.1,1.2,0.3s0.5,0.5,0.7,0.8
				c0.5-0.8,1.2-1.1,2-1.1c0.7,0,1.2,0.2,1.5,0.5c0.4,0.4,0.5,0.9,0.5,1.7v4.5h-1.1V133c0-0.4,0-0.8-0.1-1c-0.1-0.2-0.2-0.4-0.4-0.5
				c-0.2-0.1-0.4-0.2-0.7-0.2c-0.5,0-0.8,0.2-1.1,0.5c-0.3,0.3-0.5,0.8-0.5,1.5v3.8h-1.1v-4.3c0-0.5-0.1-0.9-0.3-1.1
				c-0.2-0.2-0.5-0.4-0.9-0.4c-0.3,0-0.6,0.1-0.9,0.2c-0.3,0.2-0.5,0.4-0.6,0.7c-0.1,0.3-0.2,0.8-0.2,1.4v3.4H198.9z"/>
			<path d="M213.9,135.1l1.1,0.1c-0.2,0.7-0.5,1.2-1,1.6s-1.1,0.6-1.9,0.6c-1,0-1.7-0.3-2.3-0.9c-0.6-0.6-0.8-1.4-0.8-2.5
				c0-1.1,0.3-2,0.9-2.6s1.3-0.9,2.2-0.9c0.9,0,1.6,0.3,2.1,0.9c0.6,0.6,0.8,1.4,0.8,2.5c0,0.1,0,0.2,0,0.3h-4.9
				c0,0.7,0.2,1.3,0.6,1.7c0.4,0.4,0.8,0.6,1.4,0.6c0.4,0,0.8-0.1,1-0.3S213.7,135.5,213.9,135.1z M210.2,133.3h3.7
				c0-0.6-0.2-1-0.4-1.2c-0.4-0.4-0.8-0.6-1.4-0.6c-0.5,0-0.9,0.2-1.3,0.5C210.5,132.2,210.3,132.7,210.2,133.3z"/>
			<path d="M216.4,137.2v-6.6h1v0.9c0.5-0.7,1.2-1.1,2.1-1.1c0.4,0,0.8,0.1,1.1,0.2c0.3,0.1,0.6,0.3,0.7,0.6
				c0.2,0.2,0.3,0.5,0.3,0.8c0,0.2,0.1,0.6,0.1,1.1v4h-1.1v-4c0-0.5,0-0.8-0.1-1c-0.1-0.2-0.2-0.4-0.5-0.5c-0.2-0.1-0.5-0.2-0.8-0.2
				c-0.5,0-0.9,0.2-1.2,0.5c-0.3,0.3-0.5,0.9-0.5,1.7v3.6H216.4z"/>
			<path d="M225.9,136.2l0.2,1c-0.3,0.1-0.6,0.1-0.8,0.1c-0.4,0-0.7-0.1-0.9-0.2c-0.2-0.1-0.4-0.3-0.5-0.5c-0.1-0.2-0.1-0.6-0.1-1.3
				v-3.8h-0.8v-0.9h0.8V129l1.1-0.7v2.3h1.1v0.9h-1.1v3.8c0,0.3,0,0.5,0.1,0.6c0,0.1,0.1,0.2,0.2,0.2c0.1,0.1,0.2,0.1,0.4,0.1
				C225.5,136.2,225.7,136.2,225.9,136.2z"/>
		</g>
		<g class="st12">
			<path d="M153.7,148.9l3.5-9.1h1.3l3.7,9.1h-1.4l-1.1-2.7H156l-1,2.7H153.7z M156.3,145.2h3.1l-0.9-2.5c-0.3-0.8-0.5-1.4-0.6-1.9
				c-0.1,0.6-0.3,1.2-0.5,1.7L156.3,145.2z"/>
			<path d="M163,148.9v-6.6h1v0.9c0.5-0.7,1.2-1.1,2.1-1.1c0.4,0,0.8,0.1,1.1,0.2c0.3,0.1,0.6,0.3,0.7,0.6s0.3,0.5,0.3,0.8
				c0,0.2,0.1,0.6,0.1,1.1v4h-1.1v-4c0-0.5,0-0.8-0.1-1c-0.1-0.2-0.2-0.4-0.5-0.5c-0.2-0.1-0.5-0.2-0.8-0.2c-0.5,0-0.9,0.2-1.2,0.5
				c-0.3,0.3-0.5,0.9-0.5,1.7v3.6H163z"/>
			<path d="M174.3,148.1c-0.4,0.3-0.8,0.6-1.2,0.7s-0.8,0.2-1.2,0.2c-0.7,0-1.3-0.2-1.7-0.5c-0.4-0.4-0.6-0.8-0.6-1.3
				c0-0.3,0.1-0.6,0.2-0.9c0.1-0.3,0.3-0.5,0.6-0.6c0.2-0.2,0.5-0.3,0.8-0.4c0.2-0.1,0.5-0.1,1-0.2c0.9-0.1,1.6-0.2,2-0.4
				c0-0.2,0-0.2,0-0.3c0-0.5-0.1-0.8-0.3-1c-0.3-0.3-0.7-0.4-1.3-0.4c-0.5,0-0.9,0.1-1.2,0.3c-0.2,0.2-0.4,0.5-0.6,1l-1.1-0.1
				c0.1-0.5,0.3-0.8,0.5-1.1c0.2-0.3,0.6-0.5,1-0.7c0.4-0.2,0.9-0.2,1.5-0.2c0.6,0,1,0.1,1.4,0.2c0.4,0.1,0.6,0.3,0.8,0.5
				c0.2,0.2,0.3,0.5,0.3,0.8c0,0.2,0.1,0.5,0.1,1v1.5c0,1,0,1.7,0.1,2c0,0.3,0.1,0.5,0.3,0.8h-1.2
				C174.4,148.7,174.3,148.4,174.3,148.1z M174.2,145.6c-0.4,0.2-1,0.3-1.8,0.4c-0.5,0.1-0.8,0.1-1,0.2c-0.2,0.1-0.3,0.2-0.4,0.4
				c-0.1,0.2-0.2,0.3-0.2,0.5c0,0.3,0.1,0.5,0.3,0.7s0.6,0.3,1,0.3c0.4,0,0.8-0.1,1.1-0.3c0.3-0.2,0.6-0.4,0.7-0.8
				c0.1-0.3,0.2-0.6,0.2-1.1V145.6z"/>
			<path d="M177,148.9v-9.1h1.1v9.1H177z"/>
			<path d="M179.8,151.5l-0.1-1c0.2,0.1,0.5,0.1,0.6,0.1c0.2,0,0.4,0,0.6-0.1s0.3-0.2,0.4-0.3c0.1-0.1,0.2-0.4,0.3-0.8
				c0-0.1,0.1-0.2,0.1-0.3l-2.5-6.6h1.2l1.4,3.8c0.2,0.5,0.3,1,0.5,1.5c0.1-0.5,0.3-1,0.5-1.5l1.4-3.8h1.1l-2.5,6.7
				c-0.3,0.7-0.5,1.2-0.6,1.5c-0.2,0.4-0.4,0.6-0.7,0.8c-0.3,0.2-0.6,0.3-0.9,0.3C180.3,151.6,180.1,151.6,179.8,151.5z"/>
			<path d="M185.8,147l1.1-0.2c0.1,0.4,0.2,0.8,0.5,1c0.3,0.2,0.7,0.4,1.2,0.4c0.5,0,0.9-0.1,1.1-0.3c0.2-0.2,0.4-0.5,0.4-0.7
				c0-0.3-0.1-0.4-0.3-0.6c-0.2-0.1-0.5-0.2-1.1-0.4c-0.8-0.2-1.4-0.4-1.7-0.5c-0.3-0.2-0.6-0.4-0.7-0.6c-0.2-0.3-0.2-0.6-0.2-0.9
				c0-0.3,0.1-0.6,0.2-0.8c0.1-0.2,0.3-0.5,0.5-0.6c0.2-0.1,0.4-0.2,0.7-0.3c0.3-0.1,0.6-0.1,1-0.1c0.5,0,1,0.1,1.4,0.2
				c0.4,0.1,0.7,0.3,0.9,0.6c0.2,0.3,0.3,0.6,0.4,1l-1.1,0.1c0-0.3-0.2-0.6-0.4-0.8c-0.2-0.2-0.6-0.3-1-0.3c-0.5,0-0.9,0.1-1.1,0.3
				c-0.2,0.2-0.3,0.4-0.3,0.6c0,0.1,0,0.3,0.1,0.4c0.1,0.1,0.2,0.2,0.4,0.3c0.1,0,0.4,0.1,1,0.3c0.8,0.2,1.3,0.4,1.6,0.5
				c0.3,0.1,0.6,0.3,0.7,0.6c0.2,0.3,0.3,0.6,0.3,1c0,0.4-0.1,0.7-0.3,1c-0.2,0.3-0.5,0.6-0.9,0.8c-0.4,0.2-0.9,0.3-1.4,0.3
				c-0.9,0-1.5-0.2-1.9-0.5C186.2,148.2,185.9,147.7,185.8,147z"/>
			<path d="M192.5,141.2v-1.3h1.1v1.3H192.5z M192.5,148.9v-6.6h1.1v6.6H192.5z"/>
			<path d="M194.9,147l1.1-0.2c0.1,0.4,0.2,0.8,0.5,1c0.3,0.2,0.7,0.4,1.2,0.4c0.5,0,0.9-0.1,1.1-0.3c0.2-0.2,0.4-0.5,0.4-0.7
				c0-0.3-0.1-0.4-0.3-0.6c-0.2-0.1-0.5-0.2-1.1-0.4c-0.8-0.2-1.4-0.4-1.7-0.5c-0.3-0.2-0.6-0.4-0.7-0.6c-0.2-0.3-0.2-0.6-0.2-0.9
				c0-0.3,0.1-0.6,0.2-0.8c0.1-0.2,0.3-0.5,0.5-0.6c0.2-0.1,0.4-0.2,0.7-0.3c0.3-0.1,0.6-0.1,1-0.1c0.5,0,1,0.1,1.4,0.2
				s0.7,0.3,0.9,0.6c0.2,0.3,0.3,0.6,0.4,1l-1.1,0.1c0-0.3-0.2-0.6-0.4-0.8c-0.2-0.2-0.6-0.3-1-0.3c-0.5,0-0.9,0.1-1.1,0.3
				c-0.2,0.2-0.3,0.4-0.3,0.6c0,0.1,0,0.3,0.1,0.4c0.1,0.1,0.2,0.2,0.4,0.3c0.1,0,0.4,0.1,1,0.3c0.8,0.2,1.3,0.4,1.6,0.5
				c0.3,0.1,0.6,0.3,0.7,0.6c0.2,0.3,0.3,0.6,0.3,1c0,0.4-0.1,0.7-0.3,1c-0.2,0.3-0.5,0.6-0.9,0.8c-0.4,0.2-0.9,0.3-1.4,0.3
				c-0.9,0-1.5-0.2-1.9-0.5C195.3,148.2,195,147.7,194.9,147z"/>
		</g>
	</g>
	<g>
		<g class="st12">
			<path class="st6" d="M273.2,207.2l1.5-0.1c0.1,0.6,0.2,1.1,0.5,1.4c0.3,0.4,0.6,0.7,1.2,0.9c0.5,0.2,1.1,0.3,1.8,0.3
				c0.6,0,1.1-0.1,1.6-0.3s0.8-0.4,1-0.7c0.2-0.3,0.3-0.6,0.3-1c0-0.4-0.1-0.7-0.3-1s-0.6-0.5-1.1-0.7c-0.3-0.1-1-0.3-2.1-0.6
				c-1.1-0.3-1.8-0.5-2.3-0.7c-0.6-0.3-1-0.7-1.2-1.1c-0.3-0.4-0.4-0.9-0.4-1.5c0-0.6,0.2-1.1,0.5-1.7s0.8-0.9,1.5-1.2
				c0.6-0.3,1.4-0.4,2.1-0.4c0.9,0,1.6,0.1,2.3,0.4c0.7,0.3,1.2,0.7,1.5,1.2c0.4,0.5,0.5,1.2,0.6,1.8l-1.5,0.1
				c-0.1-0.7-0.3-1.3-0.8-1.7c-0.5-0.4-1.1-0.6-2-0.6c-0.9,0-1.6,0.2-2,0.5s-0.6,0.8-0.6,1.2c0,0.4,0.2,0.8,0.5,1
				c0.3,0.3,1.1,0.5,2.3,0.8s2.1,0.5,2.6,0.7c0.7,0.3,1.2,0.7,1.5,1.2c0.3,0.5,0.5,1,0.5,1.7c0,0.6-0.2,1.2-0.5,1.8s-0.9,1-1.5,1.3
				s-1.4,0.5-2.3,0.5c-1.1,0-1.9-0.2-2.7-0.5c-0.7-0.3-1.3-0.8-1.7-1.4C273.5,208.7,273.3,208,273.2,207.2z"/>
			<path class="st6" d="M287.6,209.6l0.2,1.3c-0.4,0.1-0.8,0.1-1.1,0.1c-0.5,0-0.9-0.1-1.2-0.2s-0.5-0.4-0.6-0.6
				c-0.1-0.3-0.2-0.8-0.2-1.7v-4.9h-1.1v-1.1h1.1v-2.1l1.4-0.9v3h1.4v1.1h-1.4v5c0,0.4,0,0.7,0.1,0.8c0.1,0.1,0.1,0.2,0.2,0.3
				s0.3,0.1,0.5,0.1C287.1,209.7,287.4,209.7,287.6,209.6z"/>
			<path class="st6" d="M294.8,208.2l1.5,0.2c-0.2,0.9-0.7,1.5-1.3,2c-0.6,0.5-1.4,0.7-2.4,0.7c-1.2,0-2.2-0.4-2.9-1.1
				c-0.7-0.8-1.1-1.8-1.1-3.2c0-1.4,0.4-2.5,1.1-3.3c0.7-0.8,1.7-1.2,2.9-1.2c1.1,0,2.1,0.4,2.8,1.2c0.7,0.8,1.1,1.9,1.1,3.3
				c0,0.1,0,0.2,0,0.4H290c0.1,0.9,0.3,1.6,0.8,2.1c0.5,0.5,1.1,0.7,1.8,0.7c0.5,0,1-0.1,1.3-0.4
				C294.3,209.2,294.6,208.8,294.8,208.2z M290.1,205.9h4.7c-0.1-0.7-0.2-1.2-0.5-1.6c-0.5-0.6-1.1-0.8-1.8-0.8
				c-0.7,0-1.2,0.2-1.7,0.7S290.1,205.1,290.1,205.9z"/>
			<path class="st6" d="M298.1,214.2v-11.7h1.3v1.1c0.3-0.4,0.7-0.8,1-1c0.4-0.2,0.9-0.3,1.4-0.3c0.7,0,1.4,0.2,1.9,0.6
				c0.6,0.4,1,0.9,1.3,1.6c0.3,0.7,0.4,1.4,0.4,2.2c0,0.9-0.2,1.6-0.5,2.3c-0.3,0.7-0.8,1.2-1.4,1.6c-0.6,0.4-1.2,0.6-1.9,0.6
				c-0.5,0-0.9-0.1-1.3-0.3s-0.7-0.5-0.9-0.8v4.1H298.1z M299.4,206.7c0,1.1,0.2,1.9,0.7,2.4c0.4,0.5,1,0.8,1.6,0.8
				c0.6,0,1.2-0.3,1.6-0.8c0.5-0.5,0.7-1.4,0.7-2.5c0-1.1-0.2-1.9-0.7-2.4c-0.4-0.5-1-0.8-1.6-0.8c-0.6,0-1.2,0.3-1.6,0.9
				C299.6,204.8,299.4,205.7,299.4,206.7z"/>
			<path class="st6" d="M318.9,209.5v1.4h-7.7c0-0.3,0-0.7,0.2-1c0.2-0.5,0.5-1,0.9-1.6c0.4-0.5,1.1-1.1,1.9-1.8
				c1.3-1,2.1-1.9,2.6-2.5s0.7-1.2,0.7-1.7c0-0.6-0.2-1-0.6-1.4s-0.9-0.6-1.6-0.6c-0.7,0-1.2,0.2-1.7,0.6c-0.4,0.4-0.6,1-0.6,1.7
				l-1.5-0.2c0.1-1.1,0.5-1.9,1.1-2.5c0.7-0.6,1.5-0.9,2.7-0.9c1.1,0,2,0.3,2.7,0.9c0.7,0.6,1,1.4,1,2.3c0,0.5-0.1,0.9-0.3,1.4
				s-0.5,0.9-1,1.4c-0.4,0.5-1.2,1.2-2.2,2.1c-0.9,0.7-1.4,1.2-1.7,1.5c-0.2,0.3-0.4,0.5-0.6,0.8H318.9z"/>
		</g>
		<g class="st12">
			<path d="M273.1,223.8l1.2-0.1c0.1,0.5,0.2,0.9,0.4,1.2c0.2,0.3,0.5,0.6,1,0.8c0.4,0.2,0.9,0.3,1.5,0.3c0.5,0,0.9-0.1,1.3-0.2
				s0.7-0.3,0.8-0.6c0.2-0.3,0.3-0.5,0.3-0.8c0-0.3-0.1-0.6-0.3-0.8c-0.2-0.2-0.5-0.4-0.9-0.6c-0.3-0.1-0.8-0.3-1.7-0.5
				c-0.9-0.2-1.5-0.4-1.9-0.6c-0.5-0.2-0.8-0.5-1-0.9c-0.2-0.4-0.3-0.8-0.3-1.2c0-0.5,0.1-1,0.4-1.4c0.3-0.4,0.7-0.8,1.2-1
				c0.5-0.2,1.1-0.3,1.8-0.3c0.7,0,1.4,0.1,1.9,0.3c0.6,0.2,1,0.6,1.3,1c0.3,0.5,0.5,1,0.5,1.5l-1.2,0.1c-0.1-0.6-0.3-1.1-0.7-1.4
				c-0.4-0.3-0.9-0.5-1.7-0.5c-0.8,0-1.3,0.1-1.7,0.4c-0.4,0.3-0.5,0.6-0.5,1c0,0.3,0.1,0.6,0.4,0.9c0.2,0.2,0.9,0.5,1.9,0.7
				c1,0.2,1.8,0.4,2.2,0.6c0.6,0.3,1,0.6,1.3,1c0.3,0.4,0.4,0.9,0.4,1.4c0,0.5-0.1,1-0.4,1.5c-0.3,0.5-0.7,0.8-1.3,1.1
				c-0.6,0.3-1.2,0.4-1.9,0.4c-0.9,0-1.6-0.1-2.2-0.4c-0.6-0.3-1.1-0.6-1.4-1.2C273.3,225.1,273.2,224.5,273.1,223.8z"/>
			<path d="M282.1,223.4c0-1.3,0.4-2.3,1.1-2.9c0.6-0.5,1.3-0.8,2.2-0.8c1,0,1.8,0.3,2.4,1c0.6,0.6,0.9,1.5,0.9,2.6
				c0,0.9-0.1,1.6-0.4,2.1c-0.3,0.5-0.7,0.9-1.2,1.2c-0.5,0.3-1.1,0.4-1.7,0.4c-1,0-1.8-0.3-2.4-1
				C282.4,225.5,282.1,224.6,282.1,223.4z M283.3,223.4c0,0.9,0.2,1.6,0.6,2c0.4,0.5,0.9,0.7,1.5,0.7c0.6,0,1.1-0.2,1.5-0.7
				s0.6-1.1,0.6-2.1c0-0.9-0.2-1.5-0.6-2c-0.4-0.4-0.9-0.7-1.5-0.7c-0.6,0-1.1,0.2-1.5,0.7C283.5,221.8,283.3,222.5,283.3,223.4z"/>
			<path d="M290.4,227v-6.1h-1.1v-0.9h1.1v-0.8c0-0.5,0-0.8,0.1-1.1c0.1-0.3,0.3-0.6,0.6-0.8c0.3-0.2,0.7-0.3,1.2-0.3
				c0.3,0,0.7,0,1.1,0.1l-0.2,1c-0.2,0-0.5-0.1-0.7-0.1c-0.4,0-0.6,0.1-0.8,0.2c-0.2,0.2-0.2,0.4-0.2,0.9v0.7h1.4v0.9h-1.4v6.1
				H290.4z"/>
			<path d="M296.5,225.9l0.2,1.1c-0.3,0.1-0.6,0.1-0.9,0.1c-0.4,0-0.8-0.1-1-0.2c-0.2-0.1-0.4-0.3-0.5-0.5c-0.1-0.2-0.1-0.7-0.1-1.4
				v-4.1h-0.9v-0.9h0.9v-1.7l1.2-0.7v2.5h1.2v0.9h-1.2v4.1c0,0.3,0,0.6,0.1,0.7s0.1,0.2,0.2,0.2c0.1,0.1,0.2,0.1,0.4,0.1
				C296.1,225.9,296.3,225.9,296.5,225.9z"/>
			<path d="M298.9,227l-2.2-7.1h1.2l1.1,4.1l0.4,1.5c0-0.1,0.1-0.6,0.4-1.5l1.1-4.1h1.2l1.1,4.1l0.4,1.3l0.4-1.4l1.2-4.1h1.2
				l-2.2,7.1H303l-1.1-4.2l-0.3-1.2l-1.4,5.4H298.9z"/>
			<path d="M312.1,226.1c-0.4,0.4-0.9,0.6-1.3,0.8s-0.8,0.2-1.3,0.2c-0.8,0-1.4-0.2-1.8-0.6c-0.4-0.4-0.6-0.9-0.6-1.5
				c0-0.3,0.1-0.7,0.2-0.9c0.2-0.3,0.4-0.5,0.6-0.7c0.3-0.2,0.5-0.3,0.9-0.4c0.2-0.1,0.6-0.1,1.1-0.2c1-0.1,1.7-0.3,2.1-0.4
				c0-0.2,0-0.3,0-0.3c0-0.5-0.1-0.8-0.3-1c-0.3-0.3-0.8-0.4-1.4-0.4c-0.6,0-1,0.1-1.2,0.3c-0.3,0.2-0.5,0.5-0.6,1l-1.2-0.2
				c0.1-0.5,0.3-0.9,0.5-1.2c0.2-0.3,0.6-0.5,1.1-0.7c0.5-0.2,1-0.2,1.6-0.2c0.6,0,1.1,0.1,1.5,0.2c0.4,0.1,0.7,0.3,0.8,0.5
				c0.2,0.2,0.3,0.5,0.4,0.8c0,0.2,0.1,0.6,0.1,1.1v1.6c0,1.1,0,1.8,0.1,2.1c0.1,0.3,0.2,0.6,0.3,0.8h-1.2
				C312.2,226.7,312.1,226.4,312.1,226.1z M312,223.4c-0.4,0.2-1.1,0.3-2,0.5c-0.5,0.1-0.8,0.2-1,0.2c-0.2,0.1-0.4,0.2-0.5,0.4
				c-0.1,0.2-0.2,0.4-0.2,0.6c0,0.3,0.1,0.6,0.4,0.8c0.2,0.2,0.6,0.3,1.1,0.3c0.5,0,0.9-0.1,1.2-0.3c0.4-0.2,0.6-0.5,0.8-0.8
				c0.1-0.3,0.2-0.7,0.2-1.2V223.4z"/>
			<path d="M315,227v-7.1h1.1v1.1c0.3-0.5,0.5-0.8,0.8-1c0.2-0.2,0.5-0.2,0.8-0.2c0.4,0,0.8,0.1,1.2,0.4l-0.4,1.1
				c-0.3-0.2-0.6-0.3-0.9-0.3c-0.3,0-0.5,0.1-0.7,0.2c-0.2,0.2-0.4,0.4-0.4,0.7c-0.1,0.4-0.2,0.9-0.2,1.4v3.7H315z"/>
			<path d="M324.4,224.7l1.2,0.2c-0.2,0.7-0.6,1.3-1.1,1.7c-0.5,0.4-1.2,0.6-2,0.6c-1,0-1.9-0.3-2.5-1c-0.6-0.6-0.9-1.5-0.9-2.7
				c0-1.2,0.3-2.1,0.9-2.8s1.4-1,2.4-1c0.9,0,1.7,0.3,2.3,1c0.6,0.6,0.9,1.5,0.9,2.7c0,0.1,0,0.2,0,0.3h-5.3c0,0.8,0.3,1.4,0.7,1.8
				c0.4,0.4,0.9,0.6,1.5,0.6c0.4,0,0.8-0.1,1.1-0.3C324,225.6,324.2,225.2,324.4,224.7z M320.5,222.7h3.9c-0.1-0.6-0.2-1-0.5-1.3
				c-0.4-0.5-0.9-0.7-1.5-0.7c-0.5,0-1,0.2-1.4,0.6C320.7,221.6,320.5,222.1,320.5,222.7z"/>
		</g>
		<g class="st12">
			<path d="M273.6,239.6v-9.7h3.4c0.8,0,1.3,0,1.7,0.1c0.6,0.1,1,0.4,1.4,0.7c0.5,0.4,0.9,1,1.2,1.7c0.3,0.7,0.4,1.4,0.4,2.3
				c0,0.7-0.1,1.4-0.3,2s-0.4,1-0.7,1.4c-0.3,0.4-0.6,0.7-0.9,0.9c-0.3,0.2-0.7,0.4-1.2,0.5c-0.5,0.1-1,0.2-1.6,0.2H273.6z
				 M274.9,238.5h2.1c0.6,0,1.1-0.1,1.5-0.2s0.7-0.3,0.9-0.5c0.3-0.3,0.5-0.7,0.7-1.2c0.2-0.5,0.3-1.1,0.3-1.9c0-1-0.2-1.8-0.5-2.4
				c-0.3-0.5-0.7-0.9-1.2-1.1c-0.3-0.1-0.9-0.2-1.7-0.2h-2V238.5z"/>
			<path d="M288.1,237.3l1.2,0.2c-0.2,0.7-0.6,1.3-1.1,1.7c-0.5,0.4-1.2,0.6-2,0.6c-1,0-1.9-0.3-2.5-1c-0.6-0.6-0.9-1.5-0.9-2.7
				c0-1.2,0.3-2.1,0.9-2.8c0.6-0.7,1.4-1,2.4-1c0.9,0,1.7,0.3,2.3,1c0.6,0.6,0.9,1.5,0.9,2.7c0,0.1,0,0.2,0,0.3h-5.3
				c0,0.8,0.3,1.4,0.7,1.8c0.4,0.4,0.9,0.6,1.5,0.6c0.4,0,0.8-0.1,1.1-0.3C287.7,238.2,287.9,237.8,288.1,237.3z M284.2,235.4h3.9
				c-0.1-0.6-0.2-1-0.5-1.3c-0.4-0.5-0.9-0.7-1.5-0.7c-0.5,0-1,0.2-1.4,0.6C284.4,234.3,284.2,234.8,284.2,235.4z"/>
			<path d="M292.8,239.6l-2.7-7.1h1.3l1.5,4.2c0.2,0.5,0.3,0.9,0.5,1.4c0.1-0.4,0.3-0.8,0.4-1.3l1.6-4.3h1.2l-2.7,7.1H292.8z"/>
			<path d="M302.5,237.3l1.2,0.2c-0.2,0.7-0.6,1.3-1.1,1.7c-0.5,0.4-1.2,0.6-2,0.6c-1,0-1.9-0.3-2.5-1c-0.6-0.6-0.9-1.5-0.9-2.7
				c0-1.2,0.3-2.1,0.9-2.8c0.6-0.7,1.4-1,2.4-1c0.9,0,1.7,0.3,2.3,1c0.6,0.6,0.9,1.5,0.9,2.7c0,0.1,0,0.2,0,0.3h-5.3
				c0,0.8,0.3,1.4,0.7,1.8c0.4,0.4,0.9,0.6,1.5,0.6c0.4,0,0.8-0.1,1.1-0.3C302,238.2,302.3,237.8,302.5,237.3z M298.5,235.4h3.9
				c-0.1-0.6-0.2-1-0.5-1.3c-0.4-0.5-0.9-0.7-1.5-0.7c-0.5,0-1,0.2-1.4,0.6C298.8,234.3,298.6,234.8,298.5,235.4z"/>
			<path d="M305.2,239.6v-9.7h1.2v9.7H305.2z"/>
			<path d="M307.8,236.1c0-1.3,0.4-2.3,1.1-2.9c0.6-0.5,1.3-0.8,2.2-0.8c1,0,1.8,0.3,2.4,1c0.6,0.6,0.9,1.5,0.9,2.6
				c0,0.9-0.1,1.6-0.4,2.1c-0.3,0.5-0.7,0.9-1.2,1.2c-0.5,0.3-1.1,0.4-1.7,0.4c-1,0-1.8-0.3-2.4-1
				C308.1,238.2,307.8,237.3,307.8,236.1z M309,236.1c0,0.9,0.2,1.6,0.6,2c0.4,0.5,0.9,0.7,1.5,0.7c0.6,0,1.1-0.2,1.5-0.7
				s0.6-1.1,0.6-2.1c0-0.9-0.2-1.5-0.6-2c-0.4-0.4-0.9-0.7-1.5-0.7c-0.6,0-1.1,0.2-1.5,0.7C309.2,234.5,309,235.2,309,236.1z"/>
			<path d="M315.8,242.3v-9.8h1.1v0.9c0.3-0.4,0.5-0.6,0.9-0.8c0.3-0.2,0.7-0.3,1.2-0.3c0.6,0,1.1,0.2,1.6,0.5
				c0.5,0.3,0.8,0.7,1,1.3c0.2,0.6,0.4,1.2,0.4,1.9c0,0.7-0.1,1.4-0.4,1.9c-0.3,0.6-0.6,1-1.1,1.3c-0.5,0.3-1,0.5-1.6,0.5
				c-0.4,0-0.8-0.1-1.1-0.3s-0.6-0.4-0.8-0.6v3.4H315.8z M316.9,236.1c0,0.9,0.2,1.6,0.6,2c0.4,0.4,0.8,0.7,1.3,0.7
				c0.5,0,1-0.2,1.4-0.7c0.4-0.4,0.6-1.1,0.6-2.1c0-0.9-0.2-1.6-0.6-2c-0.4-0.4-0.8-0.7-1.3-0.7c-0.5,0-1,0.2-1.4,0.7
				C317.1,234.5,316.9,235.2,316.9,236.1z"/>
			<path d="M323.4,239.6v-7.1h1.1v1c0.2-0.3,0.5-0.6,0.9-0.8c0.4-0.2,0.8-0.3,1.3-0.3c0.5,0,1,0.1,1.3,0.3c0.3,0.2,0.6,0.5,0.7,0.9
				c0.6-0.8,1.3-1.2,2.2-1.2c0.7,0,1.2,0.2,1.6,0.6c0.4,0.4,0.6,1,0.6,1.8v4.8h-1.2v-4.4c0-0.5,0-0.8-0.1-1
				c-0.1-0.2-0.2-0.4-0.4-0.5c-0.2-0.1-0.4-0.2-0.7-0.2c-0.5,0-0.9,0.2-1.2,0.5c-0.3,0.3-0.5,0.9-0.5,1.6v4.1h-1.2V235
				c0-0.5-0.1-0.9-0.3-1.2c-0.2-0.3-0.5-0.4-1-0.4c-0.3,0-0.6,0.1-0.9,0.3c-0.3,0.2-0.5,0.4-0.6,0.8c-0.1,0.3-0.2,0.8-0.2,1.5v3.7
				H323.4z"/>
			<path d="M339.5,237.3l1.2,0.2c-0.2,0.7-0.6,1.3-1.1,1.7c-0.5,0.4-1.2,0.6-2,0.6c-1,0-1.9-0.3-2.5-1c-0.6-0.6-0.9-1.5-0.9-2.7
				c0-1.2,0.3-2.1,0.9-2.8s1.4-1,2.4-1c0.9,0,1.7,0.3,2.3,1c0.6,0.6,0.9,1.5,0.9,2.7c0,0.1,0,0.2,0,0.3h-5.3c0,0.8,0.3,1.4,0.7,1.8
				c0.4,0.4,0.9,0.6,1.5,0.6c0.4,0,0.8-0.1,1.1-0.3C339.1,238.2,339.4,237.8,339.5,237.3z M335.6,235.4h3.9c-0.1-0.6-0.2-1-0.5-1.3
				c-0.4-0.5-0.9-0.7-1.5-0.7c-0.5,0-1,0.2-1.4,0.6C335.9,234.3,335.7,234.8,335.6,235.4z"/>
			<path d="M342.3,239.6v-7.1h1.1v1c0.5-0.8,1.3-1.2,2.2-1.2c0.4,0,0.8,0.1,1.2,0.2c0.4,0.2,0.6,0.4,0.8,0.6
				c0.2,0.2,0.3,0.5,0.4,0.9c0,0.2,0.1,0.6,0.1,1.2v4.3h-1.2v-4.3c0-0.5,0-0.9-0.1-1.1c-0.1-0.2-0.3-0.4-0.5-0.6
				c-0.2-0.1-0.5-0.2-0.8-0.2c-0.5,0-0.9,0.2-1.3,0.5c-0.4,0.3-0.6,0.9-0.6,1.8v3.9H342.3z"/>
			<path d="M352.5,238.5l0.2,1.1c-0.3,0.1-0.6,0.1-0.9,0.1c-0.4,0-0.8-0.1-1-0.2c-0.2-0.1-0.4-0.3-0.5-0.5c-0.1-0.2-0.1-0.7-0.1-1.4
				v-4.1h-0.9v-0.9h0.9v-1.7l1.2-0.7v2.5h1.2v0.9h-1.2v4.1c0,0.3,0,0.6,0.1,0.7s0.1,0.2,0.2,0.2c0.1,0.1,0.2,0.1,0.4,0.1
				C352.1,238.6,352.2,238.6,352.5,238.5z"/>
		</g>
	</g>
	<g>
		<g class="st12">
			<path class="st4" d="M475.4,227.6l1.5-0.1c0.1,0.6,0.2,1.1,0.5,1.4c0.3,0.4,0.6,0.7,1.2,0.9c0.5,0.2,1.1,0.3,1.8,0.3
				c0.6,0,1.1-0.1,1.6-0.3c0.5-0.2,0.8-0.4,1-0.7s0.3-0.6,0.3-1c0-0.4-0.1-0.7-0.3-1s-0.6-0.5-1.1-0.7c-0.3-0.1-1-0.3-2.1-0.6
				c-1.1-0.3-1.8-0.5-2.3-0.7c-0.6-0.3-1-0.7-1.2-1.1c-0.3-0.4-0.4-0.9-0.4-1.5c0-0.6,0.2-1.1,0.5-1.7s0.8-0.9,1.5-1.2
				c0.6-0.3,1.4-0.4,2.1-0.4c0.9,0,1.6,0.1,2.3,0.4c0.7,0.3,1.2,0.7,1.5,1.2c0.4,0.5,0.5,1.2,0.6,1.8l-1.5,0.1
				c-0.1-0.7-0.3-1.3-0.8-1.7c-0.5-0.4-1.1-0.6-2-0.6c-0.9,0-1.6,0.2-2,0.5c-0.4,0.3-0.6,0.8-0.6,1.2c0,0.4,0.2,0.8,0.5,1
				c0.3,0.3,1.1,0.5,2.3,0.8s2.1,0.5,2.6,0.7c0.7,0.3,1.2,0.7,1.5,1.2c0.3,0.5,0.5,1,0.5,1.7c0,0.6-0.2,1.2-0.5,1.8s-0.9,1-1.5,1.3
				c-0.7,0.3-1.4,0.5-2.3,0.5c-1.1,0-1.9-0.2-2.7-0.5s-1.3-0.8-1.7-1.4S475.4,228.4,475.4,227.6z"/>
			<path class="st4" d="M489.8,230.1l0.2,1.3c-0.4,0.1-0.8,0.1-1.1,0.1c-0.5,0-0.9-0.1-1.2-0.2s-0.5-0.4-0.6-0.6
				c-0.1-0.3-0.2-0.8-0.2-1.7V224h-1.1v-1.1h1.1v-2.1l1.4-0.9v3h1.4v1.1h-1.4v5c0,0.4,0,0.7,0.1,0.8s0.1,0.2,0.2,0.3
				c0.1,0.1,0.3,0.1,0.5,0.1C489.3,230.1,489.5,230.1,489.8,230.1z"/>
			<path class="st4" d="M497,228.6l1.5,0.2c-0.2,0.9-0.7,1.5-1.3,2c-0.6,0.5-1.4,0.7-2.4,0.7c-1.2,0-2.2-0.4-2.9-1.1
				c-0.7-0.8-1.1-1.8-1.1-3.2c0-1.4,0.4-2.5,1.1-3.3s1.7-1.2,2.9-1.2c1.1,0,2.1,0.4,2.8,1.2s1.1,1.9,1.1,3.3c0,0.1,0,0.2,0,0.4h-6.3
				c0.1,0.9,0.3,1.6,0.8,2.1c0.5,0.5,1.1,0.7,1.8,0.7c0.5,0,1-0.1,1.3-0.4C496.5,229.7,496.8,229.2,497,228.6z M492.3,226.3h4.7
				c-0.1-0.7-0.2-1.2-0.5-1.6c-0.5-0.6-1.1-0.8-1.8-0.8c-0.7,0-1.2,0.2-1.7,0.7S492.3,225.6,492.3,226.3z"/>
			<path class="st4" d="M500.3,234.6v-11.7h1.3v1.1c0.3-0.4,0.7-0.8,1-1c0.4-0.2,0.9-0.3,1.4-0.3c0.7,0,1.4,0.2,1.9,0.6
				c0.6,0.4,1,0.9,1.3,1.6s0.4,1.4,0.4,2.2c0,0.9-0.2,1.6-0.5,2.3s-0.8,1.2-1.4,1.6s-1.2,0.6-1.9,0.6c-0.5,0-0.9-0.1-1.3-0.3
				s-0.7-0.5-0.9-0.8v4.1H500.3z M501.6,227.2c0,1.1,0.2,1.9,0.7,2.4c0.4,0.5,1,0.8,1.6,0.8c0.6,0,1.2-0.3,1.6-0.8
				c0.5-0.5,0.7-1.4,0.7-2.5c0-1.1-0.2-1.9-0.7-2.4s-1-0.8-1.6-0.8c-0.6,0-1.2,0.3-1.6,0.9S501.6,226.1,501.6,227.2z"/>
			<path class="st4" d="M513.5,228.3l1.4-0.2c0.2,0.8,0.4,1.4,0.8,1.8c0.4,0.4,0.9,0.5,1.4,0.5c0.7,0,1.2-0.2,1.7-0.7s0.7-1,0.7-1.7
				c0-0.7-0.2-1.2-0.6-1.6s-1-0.6-1.6-0.6c-0.3,0-0.6,0.1-1,0.2l0.2-1.3c0.1,0,0.2,0,0.2,0c0.6,0,1.2-0.2,1.7-0.5
				c0.5-0.3,0.7-0.8,0.7-1.5c0-0.5-0.2-1-0.5-1.3c-0.4-0.3-0.8-0.5-1.4-0.5c-0.6,0-1,0.2-1.4,0.5c-0.4,0.4-0.6,0.9-0.7,1.6l-1.4-0.3
				c0.2-1,0.6-1.7,1.2-2.2c0.6-0.5,1.4-0.8,2.3-0.8c0.6,0,1.2,0.1,1.8,0.4c0.5,0.3,0.9,0.6,1.2,1.1c0.3,0.5,0.4,1,0.4,1.5
				c0,0.5-0.1,1-0.4,1.4c-0.3,0.4-0.7,0.7-1.2,1c0.7,0.2,1.2,0.5,1.6,1s0.6,1.1,0.6,1.9c0,1-0.4,1.9-1.1,2.6
				c-0.7,0.7-1.7,1.1-2.8,1.1c-1,0-1.9-0.3-2.6-0.9C514,230,513.6,229.2,513.5,228.3z"/>
		</g>
		<g class="st12">
			<path d="M475.3,243.7l1.2-0.1c0.1,0.5,0.2,0.9,0.4,1.2c0.2,0.3,0.5,0.6,1,0.8c0.4,0.2,0.9,0.3,1.5,0.3c0.5,0,0.9-0.1,1.3-0.2
				c0.4-0.1,0.7-0.3,0.8-0.6c0.2-0.3,0.3-0.5,0.3-0.8c0-0.3-0.1-0.6-0.3-0.8c-0.2-0.2-0.5-0.4-0.9-0.6c-0.3-0.1-0.8-0.3-1.7-0.5
				c-0.9-0.2-1.5-0.4-1.9-0.6c-0.5-0.2-0.8-0.5-1-0.9c-0.2-0.4-0.3-0.8-0.3-1.2c0-0.5,0.1-1,0.4-1.4c0.3-0.4,0.7-0.8,1.2-1
				s1.1-0.3,1.8-0.3c0.7,0,1.4,0.1,1.9,0.3c0.6,0.2,1,0.6,1.3,1c0.3,0.5,0.5,1,0.5,1.5l-1.2,0.1c-0.1-0.6-0.3-1.1-0.7-1.4
				c-0.4-0.3-0.9-0.5-1.7-0.5c-0.8,0-1.3,0.1-1.7,0.4c-0.4,0.3-0.5,0.6-0.5,1c0,0.3,0.1,0.6,0.4,0.9c0.2,0.2,0.9,0.5,1.9,0.7
				c1,0.2,1.8,0.4,2.2,0.6c0.6,0.3,1,0.6,1.3,1c0.3,0.4,0.4,0.9,0.4,1.4c0,0.5-0.1,1-0.4,1.5c-0.3,0.5-0.7,0.8-1.3,1.1
				c-0.6,0.3-1.2,0.4-1.9,0.4c-0.9,0-1.6-0.1-2.2-0.4c-0.6-0.3-1.1-0.6-1.4-1.2C475.5,245,475.3,244.4,475.3,243.7z"/>
			<path d="M484.2,243.3c0-1.3,0.4-2.3,1.1-2.9c0.6-0.5,1.3-0.8,2.2-0.8c1,0,1.8,0.3,2.4,1c0.6,0.6,0.9,1.5,0.9,2.6
				c0,0.9-0.1,1.6-0.4,2.1c-0.3,0.5-0.7,0.9-1.2,1.2c-0.5,0.3-1.1,0.4-1.7,0.4c-1,0-1.8-0.3-2.4-1S484.2,244.5,484.2,243.3z
				 M485.4,243.3c0,0.9,0.2,1.6,0.6,2c0.4,0.5,0.9,0.7,1.5,0.7c0.6,0,1.1-0.2,1.5-0.7s0.6-1.1,0.6-2.1c0-0.9-0.2-1.5-0.6-2
				c-0.4-0.4-0.9-0.7-1.5-0.7c-0.6,0-1.1,0.2-1.5,0.7C485.6,241.8,485.4,242.4,485.4,243.3z"/>
			<path d="M492.5,246.9v-6.1h-1.1v-0.9h1.1v-0.8c0-0.5,0-0.8,0.1-1.1c0.1-0.3,0.3-0.6,0.6-0.8c0.3-0.2,0.7-0.3,1.2-0.3
				c0.3,0,0.7,0,1.1,0.1l-0.2,1c-0.2,0-0.5-0.1-0.7-0.1c-0.4,0-0.6,0.1-0.8,0.2c-0.2,0.2-0.2,0.4-0.2,0.9v0.7h1.4v0.9h-1.4v6.1
				H492.5z"/>
			<path d="M498.6,245.8l0.2,1.1c-0.3,0.1-0.6,0.1-0.9,0.1c-0.4,0-0.8-0.1-1-0.2c-0.2-0.1-0.4-0.3-0.5-0.5c-0.1-0.2-0.1-0.7-0.1-1.4
				v-4.1h-0.9v-0.9h0.9v-1.7l1.2-0.7v2.5h1.2v0.9h-1.2v4.1c0,0.3,0,0.6,0.1,0.7c0,0.1,0.1,0.2,0.2,0.2c0.1,0.1,0.2,0.1,0.4,0.1
				C498.2,245.8,498.4,245.8,498.6,245.8z"/>
			<path d="M501.1,246.9l-2.2-7.1h1.2l1.1,4.1l0.4,1.5c0-0.1,0.1-0.6,0.4-1.5l1.1-4.1h1.2l1.1,4.1l0.4,1.3l0.4-1.4l1.2-4.1h1.2
				l-2.2,7.1h-1.2l-1.1-4.2l-0.3-1.2l-1.4,5.4H501.1z"/>
			<path d="M514.2,246c-0.4,0.4-0.9,0.6-1.3,0.8s-0.8,0.2-1.3,0.2c-0.8,0-1.4-0.2-1.8-0.6c-0.4-0.4-0.6-0.9-0.6-1.5
				c0-0.3,0.1-0.7,0.2-0.9c0.2-0.3,0.4-0.5,0.6-0.7c0.3-0.2,0.5-0.3,0.9-0.4c0.2-0.1,0.6-0.1,1.1-0.2c1-0.1,1.7-0.3,2.1-0.4
				c0-0.2,0-0.3,0-0.3c0-0.5-0.1-0.8-0.3-1c-0.3-0.3-0.8-0.4-1.4-0.4c-0.6,0-1,0.1-1.2,0.3c-0.3,0.2-0.5,0.5-0.6,1l-1.2-0.2
				c0.1-0.5,0.3-0.9,0.5-1.2c0.2-0.3,0.6-0.5,1.1-0.7c0.5-0.2,1-0.2,1.6-0.2c0.6,0,1.1,0.1,1.5,0.2c0.4,0.1,0.7,0.3,0.8,0.5
				c0.2,0.2,0.3,0.5,0.4,0.8c0,0.2,0.1,0.6,0.1,1.1v1.6c0,1.1,0,1.8,0.1,2.1c0.1,0.3,0.2,0.6,0.3,0.8h-1.2
				C514.3,246.6,514.3,246.3,514.2,246z M514.1,243.3c-0.4,0.2-1.1,0.3-2,0.5c-0.5,0.1-0.8,0.2-1,0.2c-0.2,0.1-0.4,0.2-0.5,0.4
				c-0.1,0.2-0.2,0.4-0.2,0.6c0,0.3,0.1,0.6,0.4,0.8c0.2,0.2,0.6,0.3,1.1,0.3c0.5,0,0.9-0.1,1.2-0.3c0.4-0.2,0.6-0.5,0.8-0.8
				c0.1-0.3,0.2-0.7,0.2-1.2V243.3z"/>
			<path d="M517.2,246.9v-7.1h1.1v1.1c0.3-0.5,0.5-0.8,0.8-1c0.2-0.2,0.5-0.2,0.8-0.2c0.4,0,0.8,0.1,1.2,0.4l-0.4,1.1
				c-0.3-0.2-0.6-0.3-0.9-0.3c-0.3,0-0.5,0.1-0.7,0.2c-0.2,0.2-0.4,0.4-0.4,0.7c-0.1,0.4-0.2,0.9-0.2,1.4v3.7H517.2z"/>
			<path d="M526.6,244.6l1.2,0.2c-0.2,0.7-0.6,1.3-1.1,1.7c-0.5,0.4-1.2,0.6-2,0.6c-1,0-1.9-0.3-2.5-1c-0.6-0.6-0.9-1.5-0.9-2.7
				c0-1.2,0.3-2.1,0.9-2.8s1.4-1,2.4-1c0.9,0,1.7,0.3,2.3,1s0.9,1.5,0.9,2.7c0,0.1,0,0.2,0,0.3h-5.3c0,0.8,0.3,1.4,0.7,1.8
				c0.4,0.4,0.9,0.6,1.5,0.6c0.4,0,0.8-0.1,1.1-0.3C526.1,245.5,526.4,245.1,526.6,244.6z M522.6,242.7h3.9c-0.1-0.6-0.2-1-0.5-1.3
				c-0.4-0.5-0.9-0.7-1.5-0.7c-0.6,0-1,0.2-1.4,0.6C522.9,241.6,522.7,242,522.6,242.7z"/>
		</g>
		<g class="st12">
			<path d="M478.2,259.5v-8.6H475v-1.1h7.7v1.1h-3.2v8.6H478.2z"/>
			<path d="M487.2,257.3l1.2,0.2c-0.2,0.7-0.6,1.3-1.1,1.7s-1.2,0.6-2,0.6c-1,0-1.9-0.3-2.5-1c-0.6-0.6-0.9-1.5-0.9-2.7
				c0-1.2,0.3-2.1,0.9-2.8c0.6-0.7,1.4-1,2.4-1c0.9,0,1.7,0.3,2.3,1s0.9,1.5,0.9,2.7c0,0.1,0,0.2,0,0.3h-5.3c0,0.8,0.3,1.4,0.7,1.8
				c0.4,0.4,0.9,0.6,1.5,0.6c0.4,0,0.8-0.1,1.1-0.3C486.8,258.1,487,257.8,487.2,257.3z M483.3,255.3h3.9c-0.1-0.6-0.2-1-0.5-1.3
				c-0.4-0.5-0.9-0.7-1.5-0.7c-0.5,0-1,0.2-1.4,0.6S483.3,254.7,483.3,255.3z"/>
			<path d="M489.5,257.4l1.2-0.2c0.1,0.5,0.3,0.8,0.6,1.1c0.3,0.3,0.7,0.4,1.3,0.4c0.5,0,1-0.1,1.2-0.3c0.3-0.2,0.4-0.5,0.4-0.8
				c0-0.3-0.1-0.5-0.4-0.6c-0.2-0.1-0.6-0.2-1.2-0.4c-0.9-0.2-1.5-0.4-1.8-0.6c-0.3-0.2-0.6-0.4-0.8-0.7c-0.2-0.3-0.3-0.6-0.3-0.9
				c0-0.3,0.1-0.6,0.2-0.9c0.1-0.3,0.3-0.5,0.6-0.7c0.2-0.1,0.4-0.3,0.8-0.3c0.3-0.1,0.7-0.1,1-0.1c0.6,0,1,0.1,1.5,0.2
				c0.4,0.2,0.7,0.4,0.9,0.6c0.2,0.3,0.3,0.6,0.4,1.1l-1.2,0.2c-0.1-0.4-0.2-0.6-0.5-0.9c-0.3-0.2-0.6-0.3-1.1-0.3
				c-0.5,0-0.9,0.1-1.2,0.3c-0.2,0.2-0.4,0.4-0.4,0.6c0,0.2,0,0.3,0.1,0.4c0.1,0.1,0.3,0.2,0.5,0.3c0.1,0,0.5,0.1,1.1,0.3
				c0.8,0.2,1.4,0.4,1.8,0.6c0.3,0.1,0.6,0.4,0.8,0.6s0.3,0.6,0.3,1c0,0.4-0.1,0.8-0.3,1.1c-0.2,0.4-0.6,0.6-1,0.8
				c-0.4,0.2-0.9,0.3-1.5,0.3c-0.9,0-1.6-0.2-2.1-0.6C489.9,258.7,489.6,258.2,489.5,257.4z"/>
			<path d="M499.4,258.5l0.2,1.1c-0.3,0.1-0.6,0.1-0.9,0.1c-0.4,0-0.8-0.1-1-0.2c-0.2-0.1-0.4-0.3-0.5-0.5c-0.1-0.2-0.1-0.7-0.1-1.4
				v-4.1h-0.9v-0.9h0.9v-1.7l1.2-0.7v2.5h1.2v0.9h-1.2v4.1c0,0.3,0,0.6,0.1,0.7c0,0.1,0.1,0.2,0.2,0.2c0.1,0.1,0.2,0.1,0.4,0.1
				C499,258.5,499.2,258.5,499.4,258.5z"/>
			<path d="M500.6,251.2v-1.4h1.2v1.4H500.6z M500.6,259.5v-7.1h1.2v7.1H500.6z"/>
			<path d="M503.6,259.5v-7.1h1.1v1c0.5-0.8,1.3-1.2,2.2-1.2c0.4,0,0.8,0.1,1.2,0.2c0.4,0.2,0.6,0.4,0.8,0.6
				c0.2,0.2,0.3,0.5,0.4,0.9c0,0.2,0.1,0.6,0.1,1.2v4.3h-1.2v-4.3c0-0.5,0-0.9-0.1-1.1c-0.1-0.2-0.3-0.4-0.5-0.6
				c-0.2-0.1-0.5-0.2-0.8-0.2c-0.5,0-0.9,0.2-1.3,0.5s-0.6,0.9-0.6,1.8v3.9H503.6z"/>
			<path d="M510.9,260.1l1.2,0.2c0,0.4,0.2,0.6,0.4,0.8c0.3,0.2,0.7,0.3,1.2,0.3c0.6,0,1-0.1,1.3-0.3c0.3-0.2,0.5-0.5,0.6-0.9
				c0.1-0.2,0.1-0.8,0.1-1.5c-0.5,0.6-1.2,0.9-2,0.9c-1,0-1.7-0.3-2.3-1.1c-0.5-0.7-0.8-1.5-0.8-2.5c0-0.7,0.1-1.3,0.4-1.9
				c0.2-0.6,0.6-1,1.1-1.3c0.5-0.3,1-0.5,1.6-0.5c0.8,0,1.5,0.3,2.1,1v-0.9h1.1v6.1c0,1.1-0.1,1.9-0.3,2.3c-0.2,0.5-0.6,0.8-1.1,1.1
				c-0.5,0.3-1.1,0.4-1.8,0.4c-0.8,0-1.5-0.2-2-0.6C511.2,261.4,510.9,260.9,510.9,260.1z M511.9,255.9c0,0.9,0.2,1.6,0.6,2
				c0.4,0.4,0.8,0.6,1.4,0.6c0.5,0,1-0.2,1.4-0.6c0.4-0.4,0.6-1.1,0.6-2c0-0.9-0.2-1.5-0.6-2c-0.4-0.4-0.8-0.7-1.4-0.7
				c-0.5,0-1,0.2-1.4,0.6C512.1,254.4,511.9,255,511.9,255.9z"/>
		</g>
	</g>
	<g>
		<g class="st12">
			<path class="st8" d="M627.6,175.3l1.5-0.1c0.1,0.6,0.2,1.1,0.5,1.4c0.3,0.4,0.6,0.7,1.2,0.9c0.5,0.2,1.1,0.3,1.8,0.3
				c0.6,0,1.1-0.1,1.6-0.3c0.5-0.2,0.8-0.4,1-0.7s0.3-0.6,0.3-1c0-0.4-0.1-0.7-0.3-1c-0.2-0.3-0.6-0.5-1.1-0.7
				c-0.3-0.1-1-0.3-2.1-0.6c-1.1-0.3-1.8-0.5-2.3-0.7c-0.6-0.3-1-0.7-1.2-1.1c-0.3-0.4-0.4-0.9-0.4-1.5c0-0.6,0.2-1.1,0.5-1.7
				c0.3-0.5,0.8-0.9,1.5-1.2c0.6-0.3,1.4-0.4,2.1-0.4c0.9,0,1.6,0.1,2.3,0.4c0.7,0.3,1.2,0.7,1.5,1.2c0.4,0.5,0.5,1.2,0.6,1.8
				l-1.5,0.1c-0.1-0.7-0.3-1.3-0.8-1.7s-1.1-0.6-2-0.6c-0.9,0-1.6,0.2-2,0.5c-0.4,0.3-0.6,0.8-0.6,1.2c0,0.4,0.2,0.8,0.5,1
				c0.3,0.3,1.1,0.5,2.3,0.8s2.1,0.5,2.6,0.7c0.7,0.3,1.2,0.7,1.5,1.2c0.3,0.5,0.5,1,0.5,1.7c0,0.6-0.2,1.2-0.5,1.8
				c-0.4,0.6-0.9,1-1.5,1.3c-0.7,0.3-1.4,0.5-2.3,0.5c-1.1,0-1.9-0.2-2.7-0.5c-0.7-0.3-1.3-0.8-1.7-1.4
				C627.8,176.8,627.6,176.1,627.6,175.3z"/>
			<path class="st8" d="M642,177.8l0.2,1.3c-0.4,0.1-0.8,0.1-1.1,0.1c-0.5,0-0.9-0.1-1.2-0.2s-0.5-0.4-0.6-0.6
				c-0.1-0.3-0.2-0.8-0.2-1.7v-4.9H638v-1.1h1.1v-2.1l1.4-0.9v3h1.4v1.1h-1.4v5c0,0.4,0,0.7,0.1,0.8c0.1,0.1,0.1,0.2,0.2,0.3
				c0.1,0.1,0.3,0.1,0.5,0.1C641.5,177.9,641.7,177.9,642,177.8z"/>
			<path class="st8" d="M649.2,176.4l1.5,0.2c-0.2,0.9-0.7,1.5-1.3,2s-1.4,0.7-2.4,0.7c-1.2,0-2.2-0.4-2.9-1.1
				c-0.7-0.8-1.1-1.8-1.1-3.2c0-1.4,0.4-2.5,1.1-3.3c0.7-0.8,1.7-1.2,2.9-1.2c1.1,0,2.1,0.4,2.8,1.2c0.7,0.8,1.1,1.9,1.1,3.3
				c0,0.1,0,0.2,0,0.4h-6.3c0.1,0.9,0.3,1.6,0.8,2.1c0.5,0.5,1.1,0.7,1.8,0.7c0.5,0,1-0.1,1.3-0.4
				C648.6,177.4,648.9,177,649.2,176.4z M644.4,174.1h4.7c-0.1-0.7-0.2-1.2-0.5-1.6c-0.5-0.6-1.1-0.8-1.8-0.8
				c-0.7,0-1.2,0.2-1.7,0.7S644.5,173.3,644.4,174.1z"/>
			<path class="st8" d="M652.4,182.4v-11.7h1.3v1.1c0.3-0.4,0.7-0.8,1-1c0.4-0.2,0.9-0.3,1.4-0.3c0.7,0,1.4,0.2,1.9,0.6
				c0.6,0.4,1,0.9,1.3,1.6s0.4,1.4,0.4,2.2c0,0.9-0.2,1.6-0.5,2.3s-0.8,1.2-1.4,1.6c-0.6,0.4-1.2,0.6-1.9,0.6
				c-0.5,0-0.9-0.1-1.3-0.3c-0.4-0.2-0.7-0.5-0.9-0.8v4.1H652.4z M653.7,174.9c0,1.1,0.2,1.9,0.7,2.4s1,0.8,1.6,0.8
				c0.6,0,1.2-0.3,1.6-0.8c0.5-0.5,0.7-1.4,0.7-2.5c0-1.1-0.2-1.9-0.7-2.4c-0.4-0.5-1-0.8-1.6-0.8c-0.6,0-1.2,0.3-1.6,0.9
				C654,173,653.7,173.8,653.7,174.9z"/>
			<path class="st8" d="M670.3,179.1v-2.8h-5.1V175l5.3-7.6h1.2v7.6h1.6v1.3h-1.6v2.8H670.3z M670.3,175v-5.3l-3.7,5.3H670.3z"/>
		</g>
		<g class="st12">
			<path d="M635.7,185.4h1.3v5.6c0,1-0.1,1.8-0.3,2.3c-0.2,0.6-0.6,1-1.2,1.4c-0.6,0.4-1.3,0.5-2.3,0.5c-0.9,0-1.7-0.2-2.2-0.5
				c-0.6-0.3-1-0.8-1.2-1.4c-0.2-0.6-0.4-1.4-0.4-2.4v-5.6h1.3v5.6c0,0.8,0.1,1.5,0.2,1.9c0.2,0.4,0.4,0.7,0.8,0.9
				c0.4,0.2,0.9,0.3,1.4,0.3c0.9,0,1.6-0.2,2-0.6c0.4-0.4,0.6-1.3,0.6-2.5V185.4z"/>
			<path d="M638.5,193l1.2-0.2c0.1,0.5,0.3,0.8,0.6,1.1c0.3,0.3,0.7,0.4,1.3,0.4c0.6,0,1-0.1,1.2-0.3c0.3-0.2,0.4-0.5,0.4-0.8
				c0-0.3-0.1-0.5-0.4-0.6c-0.2-0.1-0.6-0.2-1.2-0.4c-0.9-0.2-1.5-0.4-1.8-0.6c-0.3-0.2-0.6-0.4-0.8-0.7c-0.2-0.3-0.3-0.6-0.3-0.9
				c0-0.3,0.1-0.6,0.2-0.9c0.1-0.3,0.3-0.5,0.6-0.7c0.2-0.1,0.4-0.3,0.8-0.3c0.3-0.1,0.7-0.1,1-0.1c0.6,0,1,0.1,1.5,0.2
				c0.4,0.2,0.7,0.4,0.9,0.6c0.2,0.3,0.3,0.6,0.4,1.1l-1.2,0.2c-0.1-0.4-0.2-0.6-0.5-0.9c-0.3-0.2-0.6-0.3-1.1-0.3
				c-0.5,0-0.9,0.1-1.2,0.3c-0.2,0.2-0.4,0.4-0.4,0.6c0,0.2,0,0.3,0.1,0.4c0.1,0.1,0.3,0.2,0.5,0.3c0.1,0,0.5,0.1,1.1,0.3
				c0.8,0.2,1.4,0.4,1.8,0.6c0.3,0.1,0.6,0.4,0.8,0.6s0.3,0.6,0.3,1c0,0.4-0.1,0.8-0.3,1.1c-0.2,0.4-0.6,0.6-1,0.8
				c-0.4,0.2-0.9,0.3-1.5,0.3c-0.9,0-1.6-0.2-2.1-0.6C639,194.3,638.6,193.8,638.5,193z"/>
			<path d="M650.6,192.9l1.2,0.2c-0.2,0.7-0.6,1.3-1.1,1.7c-0.5,0.4-1.2,0.6-2,0.6c-1,0-1.9-0.3-2.5-1c-0.6-0.6-0.9-1.5-0.9-2.7
				c0-1.2,0.3-2.1,0.9-2.8s1.4-1,2.4-1c0.9,0,1.7,0.3,2.3,1s0.9,1.5,0.9,2.7c0,0.1,0,0.2,0,0.3h-5.3c0,0.8,0.3,1.4,0.7,1.8
				s0.9,0.6,1.5,0.6c0.4,0,0.8-0.1,1.1-0.3S650.4,193.4,650.6,192.9z M646.7,190.9h3.9c-0.1-0.6-0.2-1-0.5-1.3
				c-0.4-0.5-0.9-0.7-1.5-0.7c-0.5,0-1,0.2-1.4,0.6C646.9,189.8,646.7,190.3,646.7,190.9z"/>
			<path d="M653.4,195.1v-7.1h1.1v1.1c0.3-0.5,0.5-0.8,0.8-1c0.2-0.2,0.5-0.2,0.8-0.2c0.4,0,0.8,0.1,1.2,0.4l-0.4,1.1
				c-0.3-0.2-0.6-0.3-0.9-0.3c-0.3,0-0.5,0.1-0.7,0.2c-0.2,0.2-0.4,0.4-0.4,0.7c-0.1,0.4-0.2,0.9-0.2,1.4v3.7H653.4z"/>
			<path d="M660,195.1l3.7-9.7h1.4l4,9.7h-1.5l-1.1-3h-4.1l-1.1,3H660z M662.8,191.1h3.3l-1-2.7c-0.3-0.8-0.5-1.5-0.7-2
				c-0.1,0.6-0.3,1.2-0.5,1.9L662.8,191.1z"/>
			<path d="M674.6,192.6l1.2,0.2c-0.1,0.8-0.5,1.4-1,1.9c-0.5,0.5-1.2,0.7-2,0.7c-1,0-1.7-0.3-2.3-0.9c-0.6-0.6-0.9-1.5-0.9-2.7
				c0-0.8,0.1-1.4,0.4-2s0.6-1,1.2-1.3c0.5-0.3,1.1-0.4,1.7-0.4c0.8,0,1.4,0.2,1.9,0.6c0.5,0.4,0.8,0.9,0.9,1.7l-1.2,0.2
				c-0.1-0.5-0.3-0.8-0.6-1.1c-0.3-0.2-0.6-0.4-1-0.4c-0.6,0-1.1,0.2-1.5,0.6c-0.4,0.4-0.6,1.1-0.6,2c0,0.9,0.2,1.6,0.5,2.1
				s0.8,0.6,1.4,0.6c0.5,0,0.9-0.1,1.2-0.4C674.3,193.6,674.5,193.2,674.6,192.6z"/>
			<path d="M681.4,192.6l1.2,0.2c-0.1,0.8-0.5,1.4-1,1.9c-0.5,0.5-1.2,0.7-2,0.7c-1,0-1.7-0.3-2.3-0.9c-0.6-0.6-0.9-1.5-0.9-2.7
				c0-0.8,0.1-1.4,0.4-2s0.6-1,1.2-1.3c0.5-0.3,1.1-0.4,1.7-0.4c0.8,0,1.4,0.2,1.9,0.6c0.5,0.4,0.8,0.9,0.9,1.7l-1.2,0.2
				c-0.1-0.5-0.3-0.8-0.6-1.1c-0.3-0.2-0.6-0.4-1-0.4c-0.6,0-1.1,0.2-1.5,0.6c-0.4,0.4-0.6,1.1-0.6,2c0,0.9,0.2,1.6,0.5,2.1
				s0.8,0.6,1.4,0.6c0.5,0,0.9-0.1,1.2-0.4C681.1,193.6,681.3,193.2,681.4,192.6z"/>
			<path d="M688.5,192.9l1.2,0.2c-0.2,0.7-0.6,1.3-1.1,1.7c-0.5,0.4-1.2,0.6-2,0.6c-1,0-1.9-0.3-2.5-1c-0.6-0.6-0.9-1.5-0.9-2.7
				c0-1.2,0.3-2.1,0.9-2.8c0.6-0.7,1.4-1,2.4-1c0.9,0,1.7,0.3,2.3,1s0.9,1.5,0.9,2.7c0,0.1,0,0.2,0,0.3h-5.3c0,0.8,0.3,1.4,0.7,1.8
				s0.9,0.6,1.5,0.6c0.4,0,0.8-0.1,1.1-0.3S688.3,193.4,688.5,192.9z M684.5,190.9h3.9c-0.1-0.6-0.2-1-0.5-1.3
				c-0.4-0.5-0.9-0.7-1.5-0.7c-0.6,0-1,0.2-1.4,0.6C684.8,189.8,684.6,190.3,684.5,190.9z"/>
			<path d="M691.2,197.8v-9.8h1.1v0.9c0.3-0.4,0.5-0.6,0.9-0.8c0.3-0.2,0.7-0.3,1.2-0.3c0.6,0,1.1,0.2,1.6,0.5s0.8,0.7,1,1.3
				c0.2,0.6,0.4,1.2,0.4,1.9c0,0.7-0.1,1.4-0.4,1.9c-0.3,0.6-0.6,1-1.1,1.3c-0.5,0.3-1,0.5-1.6,0.5c-0.4,0-0.8-0.1-1.1-0.3
				c-0.3-0.2-0.6-0.4-0.8-0.6v3.4H691.2z M692.3,191.7c0,0.9,0.2,1.6,0.6,2c0.4,0.4,0.8,0.7,1.3,0.7c0.5,0,1-0.2,1.4-0.7
				c0.4-0.4,0.6-1.1,0.6-2.1c0-0.9-0.2-1.6-0.6-2c-0.4-0.4-0.8-0.7-1.3-0.7c-0.5,0-1,0.2-1.4,0.7
				C692.5,190.1,692.3,190.7,692.3,191.7z"/>
			<path d="M701.4,194.1l0.2,1.1c-0.3,0.1-0.6,0.1-0.9,0.1c-0.4,0-0.8-0.1-1-0.2c-0.2-0.1-0.4-0.3-0.5-0.5c-0.1-0.2-0.1-0.7-0.1-1.4
				V189h-0.9v-0.9h0.9v-1.7l1.2-0.7v2.5h1.2v0.9h-1.2v4.1c0,0.3,0,0.6,0.1,0.7c0,0.1,0.1,0.2,0.2,0.2c0.1,0.1,0.2,0.1,0.4,0.1
				C701,194.1,701.2,194.1,701.4,194.1z"/>
			<path d="M707.1,194.3c-0.4,0.4-0.9,0.6-1.3,0.8c-0.4,0.2-0.9,0.2-1.3,0.2c-0.8,0-1.4-0.2-1.8-0.6c-0.4-0.4-0.6-0.9-0.6-1.5
				c0-0.3,0.1-0.7,0.2-0.9c0.2-0.3,0.4-0.5,0.6-0.7c0.3-0.2,0.5-0.3,0.9-0.4c0.2-0.1,0.6-0.1,1.1-0.2c1-0.1,1.7-0.3,2.1-0.4
				c0-0.2,0-0.3,0-0.3c0-0.5-0.1-0.8-0.3-1c-0.3-0.3-0.8-0.4-1.4-0.4c-0.6,0-1,0.1-1.2,0.3c-0.3,0.2-0.5,0.5-0.6,1l-1.2-0.2
				c0.1-0.5,0.3-0.9,0.5-1.2c0.2-0.3,0.6-0.5,1.1-0.7c0.5-0.2,1-0.2,1.6-0.2c0.6,0,1.1,0.1,1.5,0.2s0.7,0.3,0.8,0.5
				c0.2,0.2,0.3,0.5,0.4,0.8c0,0.2,0.1,0.6,0.1,1.1v1.6c0,1.1,0,1.8,0.1,2.1c0.1,0.3,0.2,0.6,0.3,0.8h-1.2
				C707.3,194.9,707.2,194.6,707.1,194.3z M707,191.6c-0.4,0.2-1.1,0.3-2,0.5c-0.5,0.1-0.8,0.2-1,0.2c-0.2,0.1-0.4,0.2-0.5,0.4
				c-0.1,0.2-0.2,0.4-0.2,0.6c0,0.3,0.1,0.6,0.4,0.8c0.2,0.2,0.6,0.3,1.1,0.3c0.5,0,0.9-0.1,1.2-0.3c0.4-0.2,0.6-0.5,0.8-0.8
				c0.1-0.3,0.2-0.7,0.2-1.2V191.6z"/>
			<path d="M710.1,195.1v-7.1h1.1v1c0.5-0.8,1.3-1.2,2.2-1.2c0.4,0,0.8,0.1,1.2,0.2c0.4,0.2,0.6,0.4,0.8,0.6
				c0.2,0.2,0.3,0.5,0.4,0.9c0,0.2,0.1,0.6,0.1,1.2v4.3h-1.2v-4.3c0-0.5,0-0.9-0.1-1.1c-0.1-0.2-0.3-0.4-0.5-0.6
				c-0.2-0.1-0.5-0.2-0.8-0.2c-0.5,0-0.9,0.2-1.3,0.5c-0.4,0.3-0.6,0.9-0.6,1.8v3.9H710.1z"/>
			<path d="M722.3,192.6l1.2,0.2c-0.1,0.8-0.5,1.4-1,1.9c-0.5,0.5-1.2,0.7-1.9,0.7c-1,0-1.7-0.3-2.3-0.9c-0.6-0.6-0.9-1.5-0.9-2.7
				c0-0.8,0.1-1.4,0.4-2s0.6-1,1.2-1.3c0.5-0.3,1.1-0.4,1.7-0.4c0.8,0,1.4,0.2,1.9,0.6c0.5,0.4,0.8,0.9,0.9,1.7l-1.2,0.2
				c-0.1-0.5-0.3-0.8-0.6-1.1c-0.3-0.2-0.6-0.4-1-0.4c-0.6,0-1.1,0.2-1.5,0.6c-0.4,0.4-0.6,1.1-0.6,2c0,0.9,0.2,1.6,0.5,2.1
				c0.4,0.4,0.8,0.6,1.4,0.6c0.5,0,0.9-0.1,1.2-0.4C722,193.6,722.2,193.2,722.3,192.6z"/>
			<path d="M729.3,192.9l1.2,0.2c-0.2,0.7-0.6,1.3-1.1,1.7c-0.5,0.4-1.2,0.6-2,0.6c-1,0-1.9-0.3-2.5-1c-0.6-0.6-0.9-1.5-0.9-2.7
				c0-1.2,0.3-2.1,0.9-2.8s1.4-1,2.4-1c0.9,0,1.7,0.3,2.3,1s0.9,1.5,0.9,2.7c0,0.1,0,0.2,0,0.3h-5.3c0,0.8,0.3,1.4,0.7,1.8
				s0.9,0.6,1.5,0.6c0.4,0,0.8-0.1,1.1-0.3S729.1,193.4,729.3,192.9z M725.4,190.9h3.9c-0.1-0.6-0.2-1-0.5-1.3
				c-0.4-0.5-0.9-0.7-1.5-0.7c-0.5,0-1,0.2-1.4,0.6C725.6,189.8,725.4,190.3,725.4,190.9z"/>
		</g>
		<g class="st12">
			<path d="M631.8,207.8v-8.6h-3.2v-1.1h7.7v1.1h-3.2v8.6H631.8z"/>
			<path d="M640.8,205.5l1.2,0.2c-0.2,0.7-0.6,1.3-1.1,1.7c-0.5,0.4-1.2,0.6-2,0.6c-1,0-1.9-0.3-2.5-1c-0.6-0.6-0.9-1.5-0.9-2.7
				c0-1.2,0.3-2.1,0.9-2.8s1.4-1,2.4-1c0.9,0,1.7,0.3,2.3,1s0.9,1.5,0.9,2.7c0,0.1,0,0.2,0,0.3h-5.3c0,0.8,0.3,1.4,0.7,1.8
				s0.9,0.6,1.5,0.6c0.4,0,0.8-0.1,1.1-0.3S640.6,206,640.8,205.5z M636.9,203.6h3.9c-0.1-0.6-0.2-1-0.5-1.3
				c-0.4-0.5-0.9-0.7-1.5-0.7c-0.6,0-1,0.2-1.4,0.6C637.1,202.5,636.9,203,636.9,203.6z"/>
			<path d="M643.1,205.7l1.2-0.2c0.1,0.5,0.3,0.8,0.6,1.1c0.3,0.3,0.7,0.4,1.3,0.4c0.6,0,1-0.1,1.2-0.3c0.3-0.2,0.4-0.5,0.4-0.8
				c0-0.3-0.1-0.5-0.4-0.6c-0.2-0.1-0.6-0.2-1.2-0.4c-0.9-0.2-1.5-0.4-1.8-0.6c-0.3-0.2-0.6-0.4-0.8-0.7c-0.2-0.3-0.3-0.6-0.3-0.9
				c0-0.3,0.1-0.6,0.2-0.9c0.1-0.3,0.3-0.5,0.6-0.7c0.2-0.1,0.4-0.3,0.8-0.3c0.3-0.1,0.7-0.1,1-0.1c0.6,0,1,0.1,1.5,0.2
				c0.4,0.2,0.7,0.4,0.9,0.6c0.2,0.3,0.3,0.6,0.4,1.1l-1.2,0.2c-0.1-0.4-0.2-0.6-0.5-0.9c-0.3-0.2-0.6-0.3-1.1-0.3
				c-0.5,0-0.9,0.1-1.2,0.3c-0.2,0.2-0.4,0.4-0.4,0.6c0,0.2,0,0.3,0.1,0.4c0.1,0.1,0.3,0.2,0.5,0.3c0.1,0,0.5,0.1,1.1,0.3
				c0.8,0.2,1.4,0.4,1.8,0.6c0.3,0.1,0.6,0.4,0.8,0.6s0.3,0.6,0.3,1c0,0.4-0.1,0.8-0.3,1.1c-0.2,0.4-0.6,0.6-1,0.8
				c-0.4,0.2-0.9,0.3-1.5,0.3c-0.9,0-1.6-0.2-2.1-0.6C643.5,207,643.2,206.4,643.1,205.7z"/>
			<path d="M653,206.7l0.2,1.1c-0.3,0.1-0.6,0.1-0.9,0.1c-0.4,0-0.8-0.1-1-0.2c-0.2-0.1-0.4-0.3-0.5-0.5c-0.1-0.2-0.1-0.7-0.1-1.4
				v-4.1h-0.9v-0.9h0.9V199l1.2-0.7v2.5h1.2v0.9h-1.2v4.1c0,0.3,0,0.6,0.1,0.7c0,0.1,0.1,0.2,0.2,0.2c0.1,0.1,0.2,0.1,0.4,0.1
				C652.6,206.8,652.7,206.8,653,206.7z"/>
			<path d="M654.1,199.4v-1.4h1.2v1.4H654.1z M654.1,207.8v-7.1h1.2v7.1H654.1z"/>
			<path d="M657.2,207.8v-7.1h1.1v1c0.5-0.8,1.3-1.2,2.2-1.2c0.4,0,0.8,0.1,1.2,0.2c0.4,0.2,0.6,0.4,0.8,0.6s0.3,0.5,0.4,0.9
				c0,0.2,0.1,0.6,0.1,1.2v4.3h-1.2v-4.3c0-0.5,0-0.9-0.1-1.1c-0.1-0.2-0.3-0.4-0.5-0.6c-0.2-0.1-0.5-0.2-0.8-0.2
				c-0.5,0-0.9,0.2-1.3,0.5c-0.4,0.3-0.6,0.9-0.6,1.8v3.9H657.2z"/>
			<path d="M664.5,208.4l1.2,0.2c0,0.4,0.2,0.6,0.4,0.8c0.3,0.2,0.7,0.3,1.2,0.3c0.6,0,1-0.1,1.3-0.3c0.3-0.2,0.5-0.5,0.6-0.9
				c0.1-0.2,0.1-0.8,0.1-1.5c-0.5,0.6-1.2,0.9-2,0.9c-1,0-1.7-0.3-2.3-1.1s-0.8-1.5-0.8-2.5c0-0.7,0.1-1.3,0.4-1.9
				c0.2-0.6,0.6-1,1.1-1.3c0.5-0.3,1-0.5,1.6-0.5c0.8,0,1.5,0.3,2.1,1v-0.9h1.1v6.1c0,1.1-0.1,1.9-0.3,2.3c-0.2,0.5-0.6,0.8-1.1,1.1
				c-0.5,0.3-1.1,0.4-1.8,0.4c-0.8,0-1.5-0.2-2-0.6C664.7,209.7,664.5,209.1,664.5,208.4z M665.5,204.1c0,0.9,0.2,1.6,0.6,2
				c0.4,0.4,0.8,0.6,1.4,0.6c0.5,0,1-0.2,1.4-0.6c0.4-0.4,0.6-1.1,0.6-2c0-0.9-0.2-1.5-0.6-2c-0.4-0.4-0.8-0.7-1.4-0.7
				c-0.5,0-1,0.2-1.4,0.6C665.7,202.7,665.5,203.3,665.5,204.1z"/>
		</g>
	</g>
	<g>
		<g class="st12">
			<path class="st9" d="M737,57.6l1.5-0.1c0.1,0.6,0.2,1.1,0.5,1.4c0.3,0.4,0.6,0.7,1.2,0.9c0.5,0.2,1.1,0.3,1.8,0.3
				c0.6,0,1.1-0.1,1.6-0.3s0.8-0.4,1-0.7c0.2-0.3,0.3-0.6,0.3-1c0-0.4-0.1-0.7-0.3-1c-0.2-0.3-0.6-0.5-1.1-0.7
				c-0.3-0.1-1-0.3-2.1-0.6c-1.1-0.3-1.8-0.5-2.3-0.7c-0.6-0.3-1-0.7-1.2-1.1c-0.3-0.4-0.4-0.9-0.4-1.5c0-0.6,0.2-1.1,0.5-1.7
				c0.3-0.5,0.8-0.9,1.5-1.2c0.6-0.3,1.4-0.4,2.1-0.4c0.9,0,1.6,0.1,2.3,0.4c0.7,0.3,1.2,0.7,1.5,1.2c0.4,0.5,0.5,1.2,0.6,1.8
				l-1.5,0.1c-0.1-0.7-0.3-1.3-0.8-1.7c-0.5-0.4-1.1-0.6-2-0.6c-0.9,0-1.6,0.2-2,0.5c-0.4,0.3-0.6,0.8-0.6,1.2c0,0.4,0.2,0.8,0.5,1
				c0.3,0.3,1.1,0.5,2.3,0.8c1.3,0.3,2.1,0.5,2.6,0.7c0.7,0.3,1.2,0.7,1.5,1.2c0.3,0.5,0.5,1,0.5,1.7c0,0.6-0.2,1.2-0.5,1.8
				c-0.4,0.6-0.9,1-1.5,1.3c-0.7,0.3-1.4,0.5-2.3,0.5c-1.1,0-1.9-0.2-2.7-0.5c-0.7-0.3-1.3-0.8-1.7-1.4
				C737.2,59.1,737,58.3,737,57.6z"/>
			<path class="st9" d="M751.4,60l0.2,1.3c-0.4,0.1-0.8,0.1-1.1,0.1c-0.5,0-0.9-0.1-1.2-0.2c-0.3-0.2-0.5-0.4-0.6-0.6
				c-0.1-0.3-0.2-0.8-0.2-1.7V54h-1.1v-1.1h1.1v-2.1l1.4-0.9v3h1.4V54h-1.4v5c0,0.4,0,0.7,0.1,0.8c0.1,0.1,0.1,0.2,0.2,0.3
				s0.3,0.1,0.5,0.1C750.9,60.1,751.1,60.1,751.4,60z"/>
			<path class="st9" d="M758.6,58.6l1.5,0.2c-0.2,0.9-0.7,1.5-1.3,2c-0.6,0.5-1.4,0.7-2.4,0.7c-1.2,0-2.2-0.4-2.9-1.1
				c-0.7-0.8-1.1-1.8-1.1-3.2c0-1.4,0.4-2.5,1.1-3.3c0.7-0.8,1.7-1.2,2.9-1.2c1.1,0,2.1,0.4,2.8,1.2c0.7,0.8,1.1,1.9,1.1,3.3
				c0,0.1,0,0.2,0,0.4h-6.3c0.1,0.9,0.3,1.6,0.8,2.1s1.1,0.7,1.8,0.7c0.5,0,1-0.1,1.3-0.4C758.1,59.6,758.4,59.2,758.6,58.6z
				 M753.9,56.3h4.7c-0.1-0.7-0.2-1.2-0.5-1.6c-0.5-0.6-1.1-0.8-1.8-0.8c-0.7,0-1.2,0.2-1.7,0.7S753.9,55.5,753.9,56.3z"/>
			<path class="st9" d="M761.9,64.6V52.9h1.3V54c0.3-0.4,0.7-0.8,1-1c0.4-0.2,0.9-0.3,1.4-0.3c0.7,0,1.4,0.2,1.9,0.6
				c0.6,0.4,1,0.9,1.3,1.6c0.3,0.7,0.4,1.4,0.4,2.2c0,0.9-0.2,1.6-0.5,2.3s-0.8,1.2-1.4,1.6c-0.6,0.4-1.2,0.6-1.9,0.6
				c-0.5,0-0.9-0.1-1.3-0.3s-0.7-0.5-0.9-0.8v4.1H761.9z M763.2,57.1c0,1.1,0.2,1.9,0.7,2.4c0.4,0.5,1,0.8,1.6,0.8
				c0.6,0,1.2-0.3,1.6-0.8c0.5-0.5,0.7-1.4,0.7-2.5c0-1.1-0.2-1.9-0.7-2.4c-0.4-0.5-1-0.8-1.6-0.8c-0.6,0-1.2,0.3-1.6,0.9
				C763.4,55.2,763.2,56,763.2,57.1z"/>
			<path class="st9" d="M775.1,58.3l1.5-0.1c0.1,0.7,0.4,1.3,0.8,1.7s0.9,0.6,1.5,0.6c0.7,0,1.3-0.3,1.8-0.8s0.7-1.2,0.7-2.1
				c0-0.8-0.2-1.5-0.7-1.9c-0.5-0.5-1.1-0.7-1.8-0.7c-0.5,0-0.9,0.1-1.3,0.3c-0.4,0.2-0.7,0.5-0.9,0.8l-1.3-0.2l1.1-6h5.8v1.4h-4.7
				l-0.6,3.1c0.7-0.5,1.4-0.7,2.2-0.7c1,0,1.9,0.4,2.6,1.1c0.7,0.7,1.1,1.6,1.1,2.7c0,1.1-0.3,2-0.9,2.7c-0.7,0.9-1.8,1.4-3.1,1.4
				c-1.1,0-1.9-0.3-2.6-0.9C775.6,60,775.2,59.2,775.1,58.3z"/>
		</g>
		<g class="st12">
			<path d="M737.3,77.5v-9.7h3.4c0.8,0,1.3,0,1.7,0.1c0.6,0.1,1,0.4,1.4,0.7c0.5,0.4,0.9,1,1.2,1.7c0.3,0.7,0.4,1.4,0.4,2.3
				c0,0.7-0.1,1.4-0.3,2c-0.2,0.6-0.4,1-0.7,1.4c-0.3,0.4-0.6,0.7-0.9,0.9c-0.3,0.2-0.7,0.4-1.2,0.5c-0.5,0.1-1,0.2-1.6,0.2H737.3z
				 M738.6,76.3h2.1c0.6,0,1.1-0.1,1.5-0.2c0.4-0.1,0.7-0.3,0.9-0.5c0.3-0.3,0.5-0.7,0.7-1.2c0.2-0.5,0.3-1.1,0.3-1.9
				c0-1-0.2-1.8-0.5-2.4c-0.3-0.5-0.7-0.9-1.2-1.1c-0.3-0.1-0.9-0.2-1.7-0.2h-2V76.3z"/>
			<path d="M751.8,75.2l1.2,0.2c-0.2,0.7-0.6,1.3-1.1,1.7c-0.5,0.4-1.2,0.6-2,0.6c-1,0-1.9-0.3-2.5-1c-0.6-0.6-0.9-1.5-0.9-2.7
				c0-1.2,0.3-2.1,0.9-2.8s1.4-1,2.4-1c0.9,0,1.7,0.3,2.3,1c0.6,0.6,0.9,1.5,0.9,2.7c0,0.1,0,0.2,0,0.3h-5.3c0,0.8,0.3,1.4,0.7,1.8
				c0.4,0.4,0.9,0.6,1.5,0.6c0.4,0,0.8-0.1,1.1-0.3C751.4,76.1,751.7,75.7,751.8,75.2z M747.9,73.2h3.9c-0.1-0.6-0.2-1-0.5-1.3
				c-0.4-0.5-0.9-0.7-1.5-0.7c-0.5,0-1,0.2-1.4,0.6C748.2,72.1,747.9,72.6,747.9,73.2z"/>
			<path d="M754.6,80.2v-9.8h1.1v0.9c0.3-0.4,0.5-0.6,0.9-0.8c0.3-0.2,0.7-0.3,1.2-0.3c0.6,0,1.1,0.2,1.6,0.5s0.8,0.7,1,1.3
				c0.2,0.6,0.4,1.2,0.4,1.9c0,0.7-0.1,1.4-0.4,1.9c-0.3,0.6-0.6,1-1.1,1.3c-0.5,0.3-1,0.5-1.6,0.5c-0.4,0-0.8-0.1-1.1-0.3
				c-0.3-0.2-0.6-0.4-0.8-0.6v3.4H754.6z M755.7,74c0,0.9,0.2,1.6,0.6,2c0.4,0.4,0.8,0.7,1.3,0.7c0.5,0,1-0.2,1.4-0.7
				c0.4-0.4,0.6-1.1,0.6-2.1c0-0.9-0.2-1.6-0.6-2c-0.4-0.4-0.8-0.7-1.3-0.7c-0.5,0-1,0.2-1.4,0.7C755.8,72.4,755.7,73.1,755.7,74z"
				/>
			<path d="M762.1,77.5v-9.7h1.2v9.7H762.1z"/>
			<path d="M764.7,73.9c0-1.3,0.4-2.3,1.1-2.9c0.6-0.5,1.3-0.8,2.2-0.8c1,0,1.8,0.3,2.4,1c0.6,0.6,0.9,1.5,0.9,2.6
				c0,0.9-0.1,1.6-0.4,2.1c-0.3,0.5-0.7,0.9-1.2,1.2c-0.5,0.3-1.1,0.4-1.7,0.4c-1,0-1.8-0.3-2.4-1C765,76,764.7,75.1,764.7,73.9z
				 M765.9,73.9c0,0.9,0.2,1.6,0.6,2c0.4,0.5,0.9,0.7,1.5,0.7c0.6,0,1.1-0.2,1.5-0.7c0.4-0.5,0.6-1.1,0.6-2.1c0-0.9-0.2-1.5-0.6-2
				c-0.4-0.4-0.9-0.7-1.5-0.7c-0.6,0-1.1,0.2-1.5,0.7C766.1,72.3,765.9,73,765.9,73.9z"/>
			<path d="M772.7,80.2l-0.1-1.1c0.3,0.1,0.5,0.1,0.7,0.1c0.3,0,0.5,0,0.6-0.1c0.2-0.1,0.3-0.2,0.4-0.4c0.1-0.1,0.2-0.4,0.4-0.9
				c0-0.1,0.1-0.2,0.1-0.3l-2.7-7.1h1.3l1.5,4.1c0.2,0.5,0.4,1.1,0.5,1.6c0.1-0.5,0.3-1.1,0.5-1.6l1.5-4.1h1.2l-2.7,7.2
				c-0.3,0.8-0.5,1.3-0.7,1.6c-0.2,0.4-0.5,0.7-0.7,0.9c-0.3,0.2-0.6,0.3-1,0.3C773.2,80.3,773,80.3,772.7,80.2z"/>
			<path d="M779.5,77.5v-7.1h1.1v1c0.2-0.3,0.5-0.6,0.9-0.8c0.4-0.2,0.8-0.3,1.3-0.3c0.5,0,1,0.1,1.3,0.3c0.3,0.2,0.6,0.5,0.7,0.9
				c0.6-0.8,1.3-1.2,2.2-1.2c0.7,0,1.2,0.2,1.6,0.6c0.4,0.4,0.6,1,0.6,1.8v4.8h-1.2V73c0-0.5,0-0.8-0.1-1c-0.1-0.2-0.2-0.4-0.4-0.5
				s-0.4-0.2-0.7-0.2c-0.5,0-0.9,0.2-1.2,0.5c-0.3,0.3-0.5,0.9-0.5,1.6v4.1h-1.2v-4.6c0-0.5-0.1-0.9-0.3-1.2c-0.2-0.3-0.5-0.4-1-0.4
				c-0.3,0-0.6,0.1-0.9,0.3c-0.3,0.2-0.5,0.4-0.6,0.8c-0.1,0.3-0.2,0.8-0.2,1.5v3.7H779.5z"/>
			<path d="M795.7,75.2l1.2,0.2c-0.2,0.7-0.6,1.3-1.1,1.7s-1.2,0.6-2,0.6c-1,0-1.9-0.3-2.5-1c-0.6-0.6-0.9-1.5-0.9-2.7
				c0-1.2,0.3-2.1,0.9-2.8c0.6-0.7,1.4-1,2.4-1c0.9,0,1.7,0.3,2.3,1c0.6,0.6,0.9,1.5,0.9,2.7c0,0.1,0,0.2,0,0.3h-5.3
				c0,0.8,0.3,1.4,0.7,1.8c0.4,0.4,0.9,0.6,1.5,0.6c0.4,0,0.8-0.1,1.1-0.3C795.3,76.1,795.5,75.7,795.7,75.2z M791.8,73.2h3.9
				c-0.1-0.6-0.2-1-0.5-1.3c-0.4-0.5-0.9-0.7-1.5-0.7c-0.5,0-1,0.2-1.4,0.6C792,72.1,791.8,72.6,791.8,73.2z"/>
			<path d="M798.4,77.5v-7.1h1.1v1c0.5-0.8,1.3-1.2,2.2-1.2c0.4,0,0.8,0.1,1.2,0.2c0.4,0.2,0.6,0.4,0.8,0.6c0.2,0.2,0.3,0.5,0.4,0.9
				c0,0.2,0.1,0.6,0.1,1.2v4.3H803v-4.3c0-0.5,0-0.9-0.1-1.1c-0.1-0.2-0.3-0.4-0.5-0.6c-0.2-0.1-0.5-0.2-0.8-0.2
				c-0.5,0-0.9,0.2-1.3,0.5c-0.4,0.3-0.6,0.9-0.6,1.8v3.9H798.4z"/>
			<path d="M808.6,76.4l0.2,1.1c-0.3,0.1-0.6,0.1-0.9,0.1c-0.4,0-0.8-0.1-1-0.2s-0.4-0.3-0.5-0.5c-0.1-0.2-0.1-0.7-0.1-1.4v-4.1
				h-0.9v-0.9h0.9v-1.7l1.2-0.7v2.5h1.2v0.9h-1.2v4.1c0,0.3,0,0.6,0.1,0.7c0,0.1,0.1,0.2,0.2,0.2c0.1,0.1,0.2,0.1,0.4,0.1
				C808.2,76.4,808.4,76.4,808.6,76.4z"/>
			<path d="M818.2,76.6c-0.4,0.4-0.9,0.6-1.3,0.8c-0.4,0.2-0.9,0.2-1.3,0.2c-0.8,0-1.4-0.2-1.8-0.6c-0.4-0.4-0.6-0.9-0.6-1.5
				c0-0.3,0.1-0.7,0.2-0.9c0.2-0.3,0.4-0.5,0.6-0.7c0.3-0.2,0.5-0.3,0.9-0.4c0.2-0.1,0.6-0.1,1.1-0.2c1-0.1,1.7-0.3,2.1-0.4
				c0-0.2,0-0.3,0-0.3c0-0.5-0.1-0.8-0.3-1c-0.3-0.3-0.8-0.4-1.4-0.4c-0.6,0-1,0.1-1.2,0.3c-0.3,0.2-0.5,0.5-0.6,1l-1.2-0.2
				c0.1-0.5,0.3-0.9,0.5-1.2c0.2-0.3,0.6-0.5,1.1-0.7c0.5-0.2,1-0.2,1.6-0.2c0.6,0,1.1,0.1,1.5,0.2c0.4,0.1,0.7,0.3,0.8,0.5
				c0.2,0.2,0.3,0.5,0.4,0.8c0,0.2,0.1,0.6,0.1,1.1v1.6c0,1.1,0,1.8,0.1,2.1c0.1,0.3,0.2,0.6,0.3,0.8h-1.2
				C818.3,77.2,818.2,76.9,818.2,76.6z M818.1,73.9c-0.4,0.2-1.1,0.3-2,0.5c-0.5,0.1-0.8,0.2-1,0.2c-0.2,0.1-0.4,0.2-0.5,0.4
				c-0.1,0.2-0.2,0.4-0.2,0.6c0,0.3,0.1,0.6,0.4,0.8c0.2,0.2,0.6,0.3,1.1,0.3c0.5,0,0.9-0.1,1.2-0.3c0.4-0.2,0.6-0.5,0.8-0.8
				c0.1-0.3,0.2-0.7,0.2-1.2V73.9z"/>
			<path d="M821.2,77.5v-7.1h1.1v1c0.5-0.8,1.3-1.2,2.2-1.2c0.4,0,0.8,0.1,1.2,0.2c0.4,0.2,0.6,0.4,0.8,0.6c0.2,0.2,0.3,0.5,0.4,0.9
				c0,0.2,0.1,0.6,0.1,1.2v4.3h-1.2v-4.3c0-0.5,0-0.9-0.1-1.1c-0.1-0.2-0.3-0.4-0.5-0.6c-0.2-0.1-0.5-0.2-0.8-0.2
				c-0.5,0-0.9,0.2-1.3,0.5c-0.4,0.3-0.6,0.9-0.6,1.8v3.9H821.2z"/>
			<path d="M833.3,77.5v-0.9c-0.4,0.7-1.1,1.1-2,1.1c-0.6,0-1.1-0.2-1.6-0.5c-0.5-0.3-0.8-0.7-1.1-1.3c-0.3-0.6-0.4-1.2-0.4-1.9
				c0-0.7,0.1-1.3,0.4-1.9c0.2-0.6,0.6-1,1.1-1.3c0.5-0.3,1-0.5,1.6-0.5c0.4,0,0.8,0.1,1.1,0.3c0.3,0.2,0.6,0.4,0.8,0.7v-3.5h1.2
				v9.7H833.3z M829.5,73.9c0,0.9,0.2,1.6,0.6,2c0.4,0.4,0.8,0.7,1.3,0.7c0.5,0,1-0.2,1.3-0.6c0.4-0.4,0.5-1.1,0.5-2
				c0-1-0.2-1.7-0.6-2.1s-0.8-0.7-1.4-0.7c-0.5,0-1,0.2-1.3,0.7C829.7,72.3,829.5,73,829.5,73.9z"/>
		</g>
		<g class="st12">
			<path d="M737.3,90.1v-9.7h3.7c0.6,0,1.1,0,1.5,0.1c0.5,0.1,0.9,0.2,1.2,0.5c0.3,0.2,0.6,0.5,0.8,0.9c0.2,0.4,0.3,0.8,0.3,1.3
				c0,0.8-0.3,1.5-0.8,2.1c-0.5,0.6-1.5,0.9-2.9,0.9h-2.5v4H737.3z M738.6,85h2.5c0.8,0,1.4-0.2,1.8-0.5c0.3-0.3,0.5-0.7,0.5-1.3
				c0-0.4-0.1-0.8-0.3-1c-0.2-0.3-0.5-0.5-0.8-0.6c-0.2-0.1-0.6-0.1-1.2-0.1h-2.5V85z"/>
			<path d="M746.2,90.1v-7.1h1.1v1.1c0.3-0.5,0.5-0.8,0.8-1c0.2-0.2,0.5-0.2,0.8-0.2c0.4,0,0.8,0.1,1.2,0.4l-0.4,1.1
				c-0.3-0.2-0.6-0.3-0.9-0.3c-0.3,0-0.5,0.1-0.7,0.2c-0.2,0.2-0.4,0.4-0.4,0.7c-0.1,0.4-0.2,0.9-0.2,1.4v3.7H746.2z"/>
			<path d="M750.3,86.6c0-1.3,0.4-2.3,1.1-2.9c0.6-0.5,1.3-0.8,2.2-0.8c1,0,1.8,0.3,2.4,1c0.6,0.6,0.9,1.5,0.9,2.6
				c0,0.9-0.1,1.6-0.4,2.1c-0.3,0.5-0.7,0.9-1.2,1.2c-0.5,0.3-1.1,0.4-1.7,0.4c-1,0-1.8-0.3-2.4-1C750.6,88.7,750.3,87.8,750.3,86.6
				z M751.6,86.6c0,0.9,0.2,1.6,0.6,2c0.4,0.5,0.9,0.7,1.5,0.7c0.6,0,1.1-0.2,1.5-0.7c0.4-0.5,0.6-1.1,0.6-2.1c0-0.9-0.2-1.5-0.6-2
				c-0.4-0.4-0.9-0.7-1.5-0.7c-0.6,0-1.1,0.2-1.5,0.7C751.8,85,751.6,85.7,751.6,86.6z"/>
			<path d="M762.9,90.1v-0.9c-0.4,0.7-1.1,1.1-2,1.1c-0.6,0-1.1-0.2-1.6-0.5c-0.5-0.3-0.8-0.7-1.1-1.3c-0.3-0.6-0.4-1.2-0.4-1.9
				c0-0.7,0.1-1.3,0.4-1.9c0.2-0.6,0.6-1,1.1-1.3c0.5-0.3,1-0.5,1.6-0.5c0.4,0,0.8,0.1,1.1,0.3c0.3,0.2,0.6,0.4,0.8,0.7v-3.5h1.2
				v9.7H762.9z M759.2,86.6c0,0.9,0.2,1.6,0.6,2c0.4,0.4,0.8,0.7,1.3,0.7c0.5,0,1-0.2,1.3-0.6c0.4-0.4,0.5-1.1,0.5-2
				c0-1-0.2-1.7-0.6-2.1c-0.4-0.5-0.8-0.7-1.4-0.7c-0.5,0-1,0.2-1.3,0.7C759.3,85,759.2,85.7,759.2,86.6z"/>
			<path d="M770.5,90.1v-1c-0.6,0.8-1.3,1.2-2.2,1.2c-0.4,0-0.8-0.1-1.2-0.2c-0.4-0.2-0.6-0.4-0.8-0.6c-0.2-0.2-0.3-0.5-0.4-0.9
				c0-0.2-0.1-0.6-0.1-1.1v-4.4h1.2V87c0,0.6,0,1,0.1,1.3c0.1,0.3,0.2,0.6,0.5,0.7c0.2,0.2,0.5,0.3,0.9,0.3s0.7-0.1,1-0.3
				c0.3-0.2,0.5-0.4,0.7-0.8c0.1-0.3,0.2-0.8,0.2-1.4v-3.8h1.2v7.1H770.5z"/>
			<path d="M778.1,87.5l1.2,0.2c-0.1,0.8-0.5,1.4-1,1.9c-0.5,0.5-1.2,0.7-1.9,0.7c-1,0-1.7-0.3-2.3-0.9c-0.6-0.6-0.9-1.5-0.9-2.7
				c0-0.8,0.1-1.4,0.4-2s0.6-1,1.2-1.3c0.5-0.3,1.1-0.4,1.7-0.4c0.8,0,1.4,0.2,1.9,0.6c0.5,0.4,0.8,0.9,0.9,1.7l-1.2,0.2
				c-0.1-0.5-0.3-0.8-0.6-1.1c-0.3-0.2-0.6-0.4-1-0.4c-0.6,0-1.1,0.2-1.5,0.6c-0.4,0.4-0.6,1.1-0.6,2c0,0.9,0.2,1.6,0.5,2.1
				c0.4,0.4,0.8,0.6,1.4,0.6c0.5,0,0.9-0.1,1.2-0.4C777.8,88.6,778,88.1,778.1,87.5z"/>
			<path d="M782.9,89l0.2,1.1c-0.3,0.1-0.6,0.1-0.9,0.1c-0.4,0-0.8-0.1-1-0.2s-0.4-0.3-0.5-0.5c-0.1-0.2-0.1-0.7-0.1-1.4V84h-0.9
				v-0.9h0.9v-1.7l1.2-0.7v2.5h1.2V84h-1.2v4.1c0,0.3,0,0.6,0.1,0.7c0,0.1,0.1,0.2,0.2,0.2c0.1,0.1,0.2,0.1,0.4,0.1
				C782.5,89.1,782.7,89.1,782.9,89z"/>
			<path d="M784.1,81.7v-1.4h1.2v1.4H784.1z M784.1,90.1v-7.1h1.2v7.1H784.1z"/>
			<path d="M786.7,86.6c0-1.3,0.4-2.3,1.1-2.9c0.6-0.5,1.3-0.8,2.2-0.8c1,0,1.8,0.3,2.4,1c0.6,0.6,0.9,1.5,0.9,2.6
				c0,0.9-0.1,1.6-0.4,2.1c-0.3,0.5-0.7,0.9-1.2,1.2c-0.5,0.3-1.1,0.4-1.7,0.4c-1,0-1.8-0.3-2.4-1C787,88.7,786.7,87.8,786.7,86.6z
				 M787.9,86.6c0,0.9,0.2,1.6,0.6,2c0.4,0.5,0.9,0.7,1.5,0.7c0.6,0,1.1-0.2,1.5-0.7c0.4-0.5,0.6-1.1,0.6-2.1c0-0.9-0.2-1.5-0.6-2
				c-0.4-0.4-0.9-0.7-1.5-0.7c-0.6,0-1.1,0.2-1.5,0.7C788.1,85,787.9,85.7,787.9,86.6z"/>
			<path d="M794.7,90.1v-7.1h1.1v1c0.5-0.8,1.3-1.2,2.2-1.2c0.4,0,0.8,0.1,1.2,0.2c0.4,0.2,0.6,0.4,0.8,0.6c0.2,0.2,0.3,0.5,0.4,0.9
				c0,0.2,0.1,0.6,0.1,1.2v4.3h-1.2v-4.3c0-0.5,0-0.9-0.1-1.1c-0.1-0.2-0.3-0.4-0.5-0.6c-0.2-0.1-0.5-0.2-0.8-0.2
				c-0.5,0-0.9,0.2-1.3,0.5c-0.4,0.3-0.6,0.9-0.6,1.8v3.9H794.7z"/>
			<path d="M805.7,87l1.2-0.1c0.1,0.5,0.2,0.9,0.4,1.2c0.2,0.3,0.5,0.6,1,0.8c0.4,0.2,0.9,0.3,1.5,0.3c0.5,0,0.9-0.1,1.3-0.2
				c0.4-0.1,0.7-0.3,0.8-0.6c0.2-0.3,0.3-0.5,0.3-0.8c0-0.3-0.1-0.6-0.3-0.8c-0.2-0.2-0.5-0.4-0.9-0.6c-0.3-0.1-0.8-0.3-1.7-0.5
				c-0.9-0.2-1.5-0.4-1.9-0.6c-0.5-0.2-0.8-0.5-1-0.9c-0.2-0.4-0.3-0.8-0.3-1.2c0-0.5,0.1-1,0.4-1.4c0.3-0.4,0.7-0.8,1.2-1
				c0.5-0.2,1.1-0.3,1.8-0.3c0.7,0,1.4,0.1,1.9,0.3c0.6,0.2,1,0.6,1.3,1c0.3,0.5,0.5,1,0.5,1.5l-1.2,0.1c-0.1-0.6-0.3-1.1-0.7-1.4
				c-0.4-0.3-0.9-0.5-1.7-0.5c-0.8,0-1.3,0.1-1.7,0.4c-0.4,0.3-0.5,0.6-0.5,1c0,0.3,0.1,0.6,0.4,0.9c0.2,0.2,0.9,0.5,1.9,0.7
				c1,0.2,1.8,0.4,2.2,0.6c0.6,0.3,1,0.6,1.3,1c0.3,0.4,0.4,0.9,0.4,1.4c0,0.5-0.1,1-0.4,1.5c-0.3,0.5-0.7,0.8-1.3,1.1
				c-0.6,0.3-1.2,0.4-1.9,0.4c-0.9,0-1.6-0.1-2.2-0.4c-0.6-0.3-1.1-0.6-1.4-1.2C805.9,88.2,805.8,87.6,805.7,87z"/>
			<path d="M819.7,90.1v-1c-0.6,0.8-1.3,1.2-2.2,1.2c-0.4,0-0.8-0.1-1.2-0.2c-0.4-0.2-0.6-0.4-0.8-0.6c-0.2-0.2-0.3-0.5-0.4-0.9
				c0-0.2-0.1-0.6-0.1-1.1v-4.4h1.2V87c0,0.6,0,1,0.1,1.3c0.1,0.3,0.2,0.6,0.5,0.7c0.2,0.2,0.5,0.3,0.9,0.3s0.7-0.1,1-0.3
				c0.3-0.2,0.5-0.4,0.7-0.8c0.1-0.3,0.2-0.8,0.2-1.4v-3.8h1.2v7.1H819.7z"/>
			<path d="M822.7,92.8v-9.8h1.1V84c0.3-0.4,0.5-0.6,0.9-0.8c0.3-0.2,0.7-0.3,1.2-0.3c0.6,0,1.1,0.2,1.6,0.5s0.8,0.7,1,1.3
				c0.2,0.6,0.4,1.2,0.4,1.9c0,0.7-0.1,1.4-0.4,1.9c-0.3,0.6-0.6,1-1.1,1.3c-0.5,0.3-1,0.5-1.6,0.5c-0.4,0-0.8-0.1-1.1-0.3
				c-0.3-0.2-0.6-0.4-0.8-0.6v3.4H822.7z M823.8,86.6c0,0.9,0.2,1.6,0.6,2c0.4,0.4,0.8,0.7,1.3,0.7c0.5,0,1-0.2,1.4-0.7
				c0.4-0.4,0.6-1.1,0.6-2.1c0-0.9-0.2-1.6-0.6-2c-0.4-0.4-0.8-0.7-1.3-0.7c-0.5,0-1,0.2-1.4,0.7C824,85,823.8,85.7,823.8,86.6z"/>
			<path d="M830.2,92.8v-9.8h1.1V84c0.3-0.4,0.5-0.6,0.9-0.8c0.3-0.2,0.7-0.3,1.2-0.3c0.6,0,1.1,0.2,1.6,0.5s0.8,0.7,1,1.3
				c0.2,0.6,0.4,1.2,0.4,1.9c0,0.7-0.1,1.4-0.4,1.9c-0.3,0.6-0.6,1-1.1,1.3c-0.5,0.3-1,0.5-1.6,0.5c-0.4,0-0.8-0.1-1.1-0.3
				c-0.3-0.2-0.6-0.4-0.8-0.6v3.4H830.2z M831.3,86.6c0,0.9,0.2,1.6,0.6,2c0.4,0.4,0.8,0.7,1.3,0.7c0.5,0,1-0.2,1.4-0.7
				c0.4-0.4,0.6-1.1,0.6-2.1c0-0.9-0.2-1.6-0.6-2c-0.4-0.4-0.8-0.7-1.3-0.7c-0.5,0-1,0.2-1.4,0.7C831.5,85,831.3,85.7,831.3,86.6z"
				/>
			<path d="M837.4,86.6c0-1.3,0.4-2.3,1.1-2.9c0.6-0.5,1.3-0.8,2.2-0.8c1,0,1.8,0.3,2.4,1c0.6,0.6,0.9,1.5,0.9,2.6
				c0,0.9-0.1,1.6-0.4,2.1c-0.3,0.5-0.7,0.9-1.2,1.2c-0.5,0.3-1.1,0.4-1.7,0.4c-1,0-1.8-0.3-2.4-1C837.7,88.7,837.4,87.8,837.4,86.6
				z M838.6,86.6c0,0.9,0.2,1.6,0.6,2c0.4,0.5,0.9,0.7,1.5,0.7c0.6,0,1.1-0.2,1.5-0.7c0.4-0.5,0.6-1.1,0.6-2.1c0-0.9-0.2-1.5-0.6-2
				c-0.4-0.4-0.9-0.7-1.5-0.7c-0.6,0-1.1,0.2-1.5,0.7C838.8,85,838.6,85.7,838.6,86.6z"/>
			<path d="M845.4,90.1v-7.1h1.1v1.1c0.3-0.5,0.5-0.8,0.8-1c0.2-0.2,0.5-0.2,0.8-0.2c0.4,0,0.8,0.1,1.2,0.4l-0.4,1.1
				c-0.3-0.2-0.6-0.3-0.9-0.3c-0.3,0-0.5,0.1-0.7,0.2c-0.2,0.2-0.4,0.4-0.4,0.7c-0.1,0.4-0.2,0.9-0.2,1.4v3.7H845.4z"/>
			<path d="M852.5,89l0.2,1.1c-0.3,0.1-0.6,0.1-0.9,0.1c-0.4,0-0.8-0.1-1-0.2s-0.4-0.3-0.5-0.5c-0.1-0.2-0.1-0.7-0.1-1.4V84h-0.9
				v-0.9h0.9v-1.7l1.2-0.7v2.5h1.2V84h-1.2v4.1c0,0.3,0,0.6,0.1,0.7c0,0.1,0.1,0.2,0.2,0.2c0.1,0.1,0.2,0.1,0.4,0.1
				C852.1,89.1,852.3,89.1,852.5,89z"/>
		</g>
	</g>
</g>
</svg>
