<?xml version="1.0" encoding="utf-8"?>
<!-- Generator: Adobe Illustrator 25.0.0, SVG Export Plug-In . SVG Version: 6.00 Build 0)  -->
<svg version="1.1" id="Layer_1" xmlns="http://www.w3.org/2000/svg" xmlns:xlink="http://www.w3.org/1999/xlink" x="0px" y="0px"
	 viewBox="0 0 954.2 291.5" style="enable-background:new 0 0 954.2 291.5;" xml:space="preserve">
<style type="text/css">
	.st0{fill:#FAFAFA;}
	.st1{fill:#E1E1E1;}
	.st2{fill:#E8505B;}
	.st3{opacity:0.3;}
	.st4{fill:#F5F5F5;}
	.st5{fill:#ECECEC;}
	.st6{fill:#FFFFFF;}
	.st7{fill:#1A2E35;}
	.st8{fill:#C0BEBE;}
	.st9{fill:#B78876;}
	.st10{fill:#2D2D2D;}
	.st11{fill:#25CFD9;}
	.st12{fill:#FF9A6C;}
	.st13{fill:#FFC09D;}
	.st14{opacity:0.6;}
	.st15{fill:none;stroke:#FFFFFF;stroke-width:5.000000e-02;stroke-miterlimit:10;}
	.st16{opacity:0.2;}
	.st17{clip-path:url(#SVGID_2_);}
	.st18{fill:#ED1818;}
	.st19{clip-path:url(#SVGID_4_);}
</style>
<g>
	<g>
		<g>
			<g>
				<g>
					<path class="st0" d="M509,258.7c0,0.3,0,17.9,0,17.9h2.8v1.9H509v12h-52.6v-10.9h3.9v-2.4h-3.9v-3.6h-1.7v-1.6h2.1v-13.4H509z"
						/>
				</g>
			</g>
			<g>
				<g>
					<polygon class="st1" points="470.4,258.7 470.4,290.4 456.5,290.4 456.5,279.5 460.3,279.5 460.3,277.3 456.5,277.4 
						456.5,273.8 454.7,273.8 454.7,271.9 456.8,271.9 456.8,258.7 					"/>
				</g>
			</g>
			<g>
				<g>
					<g>
						<path class="st1" d="M469.4,278.3c0,0.1,9.5,0.2,21.2,0.2c11.7,0,21.2-0.1,21.2-0.2c0-0.1-9.5-0.2-21.2-0.2
							C478.9,278.1,469.4,278.2,469.4,278.3z"/>
					</g>
				</g>
			</g>
			<g>
				<g>
					<g>
						<path class="st1" d="M469.4,276.5c0,0.1,9.5,0.2,21.2,0.2c11.7,0,21.2-0.1,21.2-0.2c0-0.1-9.5-0.2-21.2-0.2
							C478.9,276.3,469.4,276.4,469.4,276.5z"/>
					</g>
				</g>
			</g>
			<g>
				<g>
					<g>
						<path class="st1" d="M466.7,271.6c0,0.1,9.5,0.2,21.2,0.2c11.7,0,21.2-0.1,21.2-0.2c0-0.1-9.5-0.2-21.2-0.2
							C476.2,271.4,466.7,271.5,466.7,271.6z"/>
					</g>
				</g>
			</g>
			<g>
				<g>
					<g>
						<path class="st1" d="M466.4,285c0,0.1,9.5,0.2,21.2,0.2c11.7,0,21.2-0.1,21.2-0.2c0-0.1-9.5-0.2-21.2-0.2
							C475.9,284.8,466.4,284.8,466.4,285z"/>
					</g>
				</g>
			</g>
		</g>
		<g>
			<g>
				<g>
					<g>
						<g>
							<path class="st2" d="M441.9,247l-1.2,21.3c0,0.8-0.7,1.4-1.4,1.4l-38.2,0.3c-0.8,0-1.4-0.6-1.4-1.4l-0.1-16.5
								c0-0.8,0.6-1.4,1.4-1.4l23.5,0c0.4,0,0.7-0.2,1-0.4l4.1-4.1c0.3-0.3,0.6-0.4,1-0.4l9.9-0.1
								C441.2,245.5,441.9,246.2,441.9,247z"/>
						</g>
					</g>
				</g>
				<g class="st3">
					<g>
						<g>
							<path d="M441.9,247l-1.2,21.3c0,0.8-0.7,1.4-1.4,1.4l-38.2,0.3c-0.8,0-1.4-0.6-1.4-1.4l-0.1-16.5c0-0.8,0.6-1.4,1.4-1.4
								l23.5,0c0.4,0,0.7-0.2,1-0.4l4.1-4.1c0.3-0.3,0.6-0.4,1-0.4l9.9-0.1C441.2,245.5,441.9,246.2,441.9,247z"/>
						</g>
					</g>
				</g>
				<g>
					<g>
						<g>
							
								<rect x="399.5" y="247.9" transform="matrix(-1 7.324993e-03 -7.324993e-03 -1 842.733 517.6118)" class="st4" width="41.8" height="25"/>
						</g>
					</g>
				</g>
				<g>
					<g>
						<g>
							<path class="st5" d="M444.6,249.9l-3,26.1c-0.1,0.5-0.4,0.8-0.9,0.8l-40.7,0.3c-0.5,0-0.9-0.4-0.9-0.8l-2.2-26
								c0-0.5,0.4-1,0.9-1l46-0.3C444.2,248.9,444.6,249.4,444.6,249.9z"/>
						</g>
					</g>
				</g>
			</g>
			<g>
				<g>
					<g>
						<g>
							<path class="st1" d="M453.1,243l-1.2,21.3c0,0.8-0.7,1.4-1.4,1.4l-38.2,0.3c-0.8,0-1.4-0.6-1.4-1.4l-0.1-16.5
								c0-0.8,0.6-1.4,1.4-1.4l23.5,0c0.4,0,0.7-0.2,1-0.4l4.1-4.1c0.3-0.3,0.6-0.4,1-0.4l9.9-0.1
								C452.5,241.5,453.2,242.2,453.1,243z"/>
						</g>
					</g>
				</g>
				<g>
					<g>
						<g>
							
								<rect x="410.8" y="243.9" transform="matrix(-1 7.328364e-03 -7.328364e-03 -1 865.2108 509.5078)" class="st4" width="41.8" height="25"/>
						</g>
					</g>
				</g>
				<g>
					<g>
						<g>
							<path class="st1" d="M455.8,245.9l-3,26.1c-0.1,0.5-0.4,0.8-0.9,0.8l-40.7,0.3c-0.5,0-0.9-0.4-0.9-0.8l-2.2-26
								c0-0.5,0.4-1,0.9-1l46-0.3C455.4,244.9,455.9,245.4,455.8,245.9z"/>
						</g>
					</g>
				</g>
			</g>
			<g>
				<g>
					<g>
						<g>
							<path class="st5" d="M465.8,248l-1.2,21.3c0,0.8-0.7,1.4-1.4,1.4l-38.2,0.3c-0.8,0-1.4-0.6-1.4-1.4l-0.1-16.5
								c0-0.8,0.6-1.4,1.4-1.4l23.5,0c0.4,0,0.7-0.2,1-0.4l4.1-4.1c0.3-0.3,0.6-0.4,1-0.4l9.9-0.1
								C465.2,246.5,465.8,247.2,465.8,248z"/>
						</g>
					</g>
				</g>
				<g>
					<g>
						<g>
							
								<rect x="423.5" y="248.8" transform="matrix(-1 7.324993e-03 -7.324993e-03 -1 890.6105 519.3711)" class="st0" width="41.8" height="25"/>
						</g>
					</g>
				</g>
				<g>
					<g>
						<g>
							<path class="st5" d="M468.5,250.9l-3,26.1c-0.1,0.5-0.4,0.8-0.9,0.8l-40.7,0.3c-0.5,0-0.9-0.4-0.9-0.8l-2.2-26
								c0-0.5,0.4-1,0.9-1l46-0.3C468.1,249.9,468.6,250.3,468.5,250.9z"/>
						</g>
					</g>
				</g>
			</g>
			<g>
				<g>
					<g>
						<path class="st4" d="M420.7,254.4v36.2h52.2v-36.2H420.7z M437.7,260.9c0-1.5,1.2-2.7,2.7-2.7h12.8c1.5,0,2.7,1.2,2.7,2.7
							c0,1.5-1.2,2.7-2.7,2.7h-12.8C438.9,263.6,437.7,262.4,437.7,260.9z"/>
					</g>
				</g>
			</g>
			<g>
				<g>
					<g>
						<path class="st1" d="M392.6,254.4v36.2h28.1v-36.2H392.6z"/>
					</g>
				</g>
			</g>
		</g>
		<g>
			<g>
				<rect x="253.8" y="43.8" class="st1" width="71.8" height="74.8"/>
			</g>
			<g>
				<rect x="248.9" y="43.8" class="st0" width="71.8" height="74.8"/>
				<path class="st1" d="M320.7,118.6h-71.8V43.8h71.8V118.6z M249,118.6h71.7V43.8H249V118.6z"/>
			</g>
			<g>
				<rect x="258.6" y="53.9" class="st0" width="52.5" height="54.7"/>
			</g>
			<g>
				<g>
					<path class="st1" d="M258.6,108.9c0,0-0.5,0.6-1.3,1.5c-0.8,0.9-2,2.1-3.3,3.4c-1.3,1.3-2.5,2.5-3.4,3.3
						c-0.9,0.8-1.5,1.3-1.5,1.3c0,0,0.4-0.6,1.3-1.5c0.8-0.9,2-2.1,3.3-3.4c1.3-1.3,2.5-2.5,3.4-3.3
						C258,109.4,258.5,108.9,258.6,108.9z"/>
				</g>
			</g>
			<g>
				<g>
					<path class="st1" d="M311.1,108.8c0,0,0.6,0.5,1.5,1.3c0.9,0.8,2.1,2,3.4,3.3c1.3,1.3,2.5,2.5,3.3,3.4c0.8,0.9,1.3,1.5,1.3,1.5
						c0,0-0.6-0.4-1.5-1.3c-0.9-0.8-2.1-2-3.4-3.3c-1.3-1.3-2.5-2.5-3.3-3.4C311.5,109.4,311,108.8,311.1,108.8z"/>
				</g>
			</g>
			<g>
				<g>
					<path class="st1" d="M310.9,54c0,0,0.5-0.6,1.3-1.5c0.8-0.9,2-2.1,3.3-3.4c1.3-1.3,2.5-2.5,3.4-3.3c0.9-0.8,1.5-1.3,1.5-1.3
						c0,0-0.4,0.6-1.3,1.5c-0.8,0.9-2,2.1-3.3,3.4c-1.3,1.3-2.5,2.5-3.4,3.3C311.5,53.6,311,54.1,310.9,54z"/>
				</g>
			</g>
			<g>
				<g>
					<path class="st1" d="M258.4,54.2c0,0-0.6-0.5-1.5-1.3c-0.9-0.8-2.1-2-3.4-3.3c-1.3-1.3-2.5-2.5-3.3-3.4
						c-0.8-0.9-1.3-1.5-1.3-1.5c0,0,0.6,0.4,1.5,1.3c0.9,0.8,2.1,2,3.4,3.3c1.3,1.3,2.5,2.5,3.3,3.4C258,53.5,258.5,54.1,258.4,54.2
						z"/>
				</g>
			</g>
			<g>
				<g>
					<path class="st1" d="M310.9,108.6c0,0,0-0.1,0-0.3c0-0.2,0-0.4,0-0.8c0-0.7,0-1.7,0-3c0-2.6,0-6.4-0.1-11.1
						c0-9.6-0.1-23.2-0.1-39.6l0.2,0.2c-15.3,0-33.2,0-52.3,0h0l0.2-0.2c0,20.1,0,38.9,0,54.7l-0.2-0.2c15.7,0,28.7,0.1,37.9,0.1
						c4.6,0,8.2,0,10.6,0.1c1.2,0,2.2,0,2.8,0c0.3,0,0.5,0,0.7,0C310.8,108.6,310.9,108.6,310.9,108.6c0,0-0.1,0-0.2,0
						c-0.2,0-0.4,0-0.7,0c-0.6,0-1.6,0-2.8,0c-2.5,0-6,0-10.6,0.1c-9.2,0-22.3,0.1-38,0.1l-0.2,0l0-0.2c0-15.8,0-34.6,0-54.7l0-0.2
						h0.2h0c19.1,0,37,0,52.3,0l0.2,0l0,0.2c0,16.4-0.1,30.1-0.1,39.7c0,4.8,0,8.5-0.1,11.1c0,1.3,0,2.2,0,2.9c0,0.3,0,0.6,0,0.7
						C310.9,108.5,310.9,108.6,310.9,108.6z"/>
				</g>
			</g>
			<g>
				<rect x="276.1" y="72.5" class="st5" width="17.5" height="17.5"/>
			</g>
		</g>
		<g>
			<g>
				<g>
					
						<rect x="667.6" y="44.2" transform="matrix(1 -5.354316e-03 5.354316e-03 1 -0.3078 3.5916)" class="st1" width="6.1" height="30.2"/>
				</g>
			</g>
			<g>
				<g>
					<g>
						
							<rect x="615" y="44.3" transform="matrix(1 -5.351492e-03 5.351492e-03 1 -0.2727 3.3341)" class="st5" width="15.7" height="16.7"/>
					</g>
				</g>
				<g>
					<g>
						
							<rect x="630.7" y="44.2" transform="matrix(1 -5.356020e-03 5.356020e-03 1 -0.2723 3.4206)" class="st4" width="15.7" height="16.7"/>
					</g>
				</g>
				<g>
					<g>
						<g>
							<path class="st1" d="M615,48.9c10.4,0.1,20.9,0,31.3-0.1c0.2,0,0.2-0.3,0-0.3c-10.4-0.1-20.9,0-31.3,0.2
								C614.8,48.7,614.8,48.9,615,48.9L615,48.9z"/>
						</g>
					</g>
				</g>
			</g>
			<g>
				<g>
					<g>
						
							<rect x="605.2" y="60.7" transform="matrix(1 -5.357951e-03 5.357951e-03 1 -0.3528 3.3202)" class="st5" width="28.5" height="13.6"/>
					</g>
				</g>
				<g>
					<g>
						
							<rect x="633.6" y="60.6" transform="matrix(1 -5.355446e-03 5.355446e-03 1 -0.3514 3.4707)" class="st4" width="28.5" height="13.6"/>
					</g>
				</g>
				<g>
					<g>
						<g>
							<path class="st1" d="M605.2,64.6c19,0.2,38,0,56.9-0.3c0.2,0,0.2-0.3,0-0.3c-19-0.1-38-0.1-56.9,0.3
								C605,64.3,605,64.6,605.2,64.6L605.2,64.6z"/>
						</g>
					</g>
				</g>
			</g>
			<g>
				<g>
					<rect x="594.6" y="74.4" class="st1" width="110.5" height="4.9"/>
				</g>
				<g>
					<rect x="612.6" y="76.7" class="st1" width="4.5" height="16.6"/>
				</g>
				<g>
					<rect x="679.6" y="76.7" class="st1" width="4.5" height="16.6"/>
				</g>
			</g>
			<g>
				<g>
					
						<rect x="673.5" y="32.9" transform="matrix(1 -5.354316e-03 5.354316e-03 1 -0.2778 3.6234)" class="st5" width="6.1" height="41.5"/>
				</g>
			</g>
			<g>
				<g>
					<g>
						
							<rect x="679.6" y="40.7" transform="matrix(1 -5.367831e-03 5.367831e-03 1 -0.2988 3.6743)" class="st4" width="9.4" height="33.6"/>
					</g>
				</g>
				<g>
					<g>
						<path class="st1" d="M688.9,47.1c0,0.1-2.1,0.2-4.7,0.2c-2.6,0-4.7-0.1-4.7-0.2c0-0.1,2.1-0.2,4.7-0.2
							C686.8,47,688.9,47,688.9,47.1z"/>
					</g>
				</g>
				<g>
					<g>
						<path class="st1" d="M688.9,45.7c0,0.1-2.1,0.2-4.7,0.2c-2.6,0-4.7-0.1-4.7-0.2c0-0.1,2.1-0.2,4.7-0.2
							C686.8,45.6,688.9,45.6,688.9,45.7z"/>
					</g>
				</g>
				<g>
					<g>
						<path class="st1" d="M688.9,69.2c0,0.1-2.1,0.2-4.7,0.2c-2.6,0-4.7-0.1-4.7-0.2c0-0.1,2.1-0.2,4.7-0.2
							C686.8,69.1,688.9,69.1,688.9,69.2z"/>
					</g>
				</g>
				<g>
					<g>
						<path class="st1" d="M688.9,67.8c0,0.1-2.1,0.2-4.7,0.2c-2.6,0-4.7-0.1-4.7-0.2c0-0.1,2.1-0.2,4.7-0.2
							C686.8,67.6,688.9,67.7,688.9,67.8z"/>
					</g>
				</g>
				<g>
					<g>
						<path class="st1" d="M684.4,64.7c-0.1,0-0.2-3.4-0.2-7.6c0-4.2,0.1-7.6,0.2-7.6c0.1,0,0.2,3.4,0.2,7.6
							C684.5,61.3,684.4,64.7,684.4,64.7z"/>
					</g>
				</g>
			</g>
			<g>
				<g>
					<rect x="689" y="48.9" class="st5" width="10.3" height="25.4"/>
				</g>
				<g>
					<path class="st0" d="M694.4,67.7c-1.3,0-2.3-1-2.3-2.3c0-0.7,0.3-1.3,0.8-1.7l0.2,0.3c-0.5,0.3-0.7,0.8-0.7,1.4
						c0,1.1,0.8,1.8,1.9,1.8c1.1,0,1.9-0.8,1.9-1.8c0-0.6-0.2-1.1-0.7-1.4l0.2-0.3c0.5,0.4,0.8,1,0.8,1.7
						C696.7,66.8,695.8,67.7,694.4,67.7z"/>
					<path class="st0" d="M696.1,63.1l-0.3-0.2c0.3-0.3,0.5-1,0.5-1.6c0-1-0.3-1.3-0.8-1.3c-1.3,0-0.3,3-2.1,3
						c-0.7,0-1.2-0.6-1.2-1.7c0-0.6,0.2-1.2,0.4-1.5l0.3,0.2c-0.3,0.4-0.4,0.9-0.4,1.4c0,0.9,0.4,1.3,0.8,1.3c1.4,0,0.4-3,2.1-3
						c0.7,0,1.2,0.6,1.2,1.8C696.7,62,696.5,62.7,696.1,63.1z"/>
					<path class="st0" d="M696.1,59l-0.3-0.2c0.3-0.3,0.5-1,0.5-1.6c0-1-0.3-1.3-0.8-1.3c-1.3,0-0.3,3-2.1,3c-0.7,0-1.2-0.6-1.2-1.7
						c0-0.6,0.2-1.2,0.4-1.5l0.3,0.2c-0.3,0.4-0.4,0.9-0.4,1.4c0,0.9,0.4,1.3,0.8,1.3c1.4,0,0.4-3,2.1-3c0.7,0,1.2,0.6,1.2,1.8
						C696.7,57.9,696.5,58.6,696.1,59z"/>
				</g>
			</g>
			<g>
				<path class="st1" d="M678.1,40c0,1-0.8,1.7-1.7,1.7s-1.7-0.8-1.7-1.7c0-1,0.8-1.7,1.7-1.7S678.1,39.1,678.1,40z"/>
			</g>
			<g>
				<rect x="675.8" y="44.8" class="st1" width="1.1" height="24.7"/>
			</g>
		</g>
		<g>
			<g>
				<g>
					<g>
						<rect x="617.7" y="219.3" class="st5" width="51.3" height="4"/>
					</g>
				</g>
				<g>
					<g>
						<rect x="655" y="219.3" class="st1" width="14.1" height="4"/>
					</g>
				</g>
			</g>
			<g>
				<g>
					<path class="st4" d="M611.2,223.3c0,0.3,0,17.9,0,17.9h-2.8v1.9h2.8v12h52.6v-10.9h-3.9v-2.4h3.9v-3.6h1.7v-1.6h-2.1v-13.4
						H611.2z"/>
				</g>
			</g>
			<g>
				<g>
					<polygon class="st1" points="649.8,223.3 649.8,255 663.8,255 663.8,244.1 659.9,244.1 659.9,241.9 663.8,241.9 663.8,238.3 
						665.5,238.3 665.5,236.5 663.4,236.5 663.4,223.3 					"/>
				</g>
			</g>
			<g>
				<g>
					<g>
						<path class="st1" d="M650.8,242.9c0,0.1-9.5,0.2-21.2,0.2c-11.7,0-21.2-0.1-21.2-0.2c0-0.1,9.5-0.2,21.2-0.2
							C641.3,242.7,650.8,242.8,650.8,242.9z"/>
					</g>
				</g>
			</g>
			<g>
				<g>
					<g>
						<path class="st1" d="M650.8,241.1c0,0.1-9.5,0.2-21.2,0.2c-11.7,0-21.2-0.1-21.2-0.2c0-0.1,9.5-0.2,21.2-0.2
							C641.3,240.9,650.8,241,650.8,241.1z"/>
					</g>
				</g>
			</g>
			<g>
				<g>
					<g>
						<path class="st1" d="M653.5,236.2c0,0.1-9.5,0.2-21.2,0.2c-11.7,0-21.2-0.1-21.2-0.2c0-0.1,9.5-0.2,21.2-0.2
							C644,236,653.5,236.1,653.5,236.2z"/>
					</g>
				</g>
			</g>
			<g>
				<g>
					<g>
						<path class="st1" d="M653.8,249.6c0,0.1-9.5,0.2-21.2,0.2c-11.7,0-21.2-0.1-21.2-0.2c0-0.1,9.5-0.2,21.2-0.2
							C644.3,249.4,653.8,249.4,653.8,249.6z"/>
					</g>
				</g>
			</g>
			<g>
				<g>
					<g>
						<path class="st4" d="M617.2,259c0,0.3,0,17.9,0,17.9h-2.8v1.9h2.8v12h52.6v-10.9h-3.9v-2.4h3.9V274h1.7v-1.6h-2.1V259H617.2z"
							/>
					</g>
				</g>
				<g>
					<g>
						<polygon class="st1" points="655.8,259 655.8,290.7 669.7,290.7 669.7,279.7 665.8,279.7 665.8,277.6 669.7,277.6 
							669.7,274.1 671.5,274.1 671.5,272.2 669.4,272.2 669.4,259 						"/>
					</g>
				</g>
				<g>
					<g>
						<g>
							<path class="st1" d="M656.8,278.6c0,0.1-9.5,0.2-21.2,0.2c-11.7,0-21.2-0.1-21.2-0.2c0-0.1,9.5-0.2,21.2-0.2
								C647.3,278.4,656.8,278.5,656.8,278.6z"/>
						</g>
					</g>
				</g>
				<g>
					<g>
						<g>
							<path class="st1" d="M656.8,276.8c0,0.1-9.5,0.2-21.2,0.2c-11.7,0-21.2-0.1-21.2-0.2s9.5-0.2,21.2-0.2
								C647.3,276.6,656.8,276.7,656.8,276.8z"/>
						</g>
					</g>
				</g>
				<g>
					<g>
						<g>
							<path class="st1" d="M659.5,271.9c0,0.1-9.5,0.2-21.2,0.2c-11.7,0-21.2-0.1-21.2-0.2c0-0.1,9.5-0.2,21.2-0.2
								C650,271.7,659.5,271.8,659.5,271.9z"/>
						</g>
					</g>
				</g>
				<g>
					<g>
						<g>
							<path class="st1" d="M659.8,285.2c0,0.1-9.5,0.2-21.2,0.2c-11.7,0-21.2-0.1-21.2-0.2c0-0.1,9.5-0.2,21.2-0.2
								C650.3,285,659.8,285.1,659.8,285.2z"/>
						</g>
					</g>
				</g>
			</g>
			<g>
				<g>
					<g>
						<path class="st4" d="M616.4,187.4c0,0.3,0,17.9,0,17.9h-2.8v1.9h2.8v12H669v-10.9h-3.9V206h3.9v-3.6h1.7v-1.6h-2.1v-13.4
							H616.4z"/>
					</g>
				</g>
				<g>
					<g>
						<polygon class="st1" points="655,187.5 655,219.1 669,219.1 669,208.2 665.1,208.2 665.1,206 669,206.1 669,202.5 
							670.7,202.5 670.7,200.7 668.6,200.6 668.6,187.4 						"/>
					</g>
				</g>
				<g>
					<g>
						<g>
							<path class="st1" d="M656,207c0,0.1-9.5,0.2-21.2,0.2c-11.7,0-21.2-0.1-21.2-0.2c0-0.1,9.5-0.2,21.2-0.2
								C646.5,206.8,656,206.9,656,207z"/>
						</g>
					</g>
				</g>
				<g>
					<g>
						<g>
							<path class="st1" d="M656,205.2c0,0.1-9.5,0.2-21.2,0.2c-11.7,0-21.2-0.1-21.2-0.2c0-0.1,9.5-0.2,21.2-0.2
								C646.5,205,656,205.1,656,205.2z"/>
						</g>
					</g>
				</g>
				<g>
					<g>
						<g>
							<path class="st1" d="M658.7,200.3c0,0.1-9.5,0.2-21.2,0.2c-11.7,0-21.2-0.1-21.2-0.2c0-0.1,9.5-0.2,21.2-0.2
								C649.2,200.1,658.7,200.2,658.7,200.3z"/>
						</g>
					</g>
				</g>
				<g>
					<g>
						<g>
							<path class="st1" d="M659,213.7c0,0.1-9.5,0.2-21.2,0.2c-11.7,0-21.2-0.1-21.2-0.2c0-0.1,9.5-0.2,21.2-0.2
								C649.5,213.5,659,213.6,659,213.7z"/>
						</g>
					</g>
				</g>
			</g>
			<g>
				<g>
					<g>
						<rect x="614.3" y="255" class="st5" width="51.3" height="4"/>
					</g>
				</g>
				<g>
					<g>
						<rect x="651.5" y="255" class="st1" width="14.1" height="4"/>
					</g>
				</g>
			</g>
		</g>
		<g>
			<g>
				<g>
					<path class="st1" d="M616.2,208.4H321.4c-14,0-25.3-11.3-25.3-25.3V25.4c0-14,11.3-25.3,25.3-25.3h294.8
						c14,0,25.3,11.3,25.3,25.3v157.8C641.5,197.1,630.2,208.4,616.2,208.4z"/>
				</g>
			</g>
			<g>
				<path class="st1" d="M341.3,35.4c0,0-1.9,17,0.5,26.3l22.7-1c0,0-4.9-16.8-1.9-24.2L341.3,35.4z"/>
			</g>
			<g>
				<g>
					<path class="st2" d="M341.2,35.4c0,0,0.2,18.3,1.1,23.9l23-1.1c0,0-2-18-1.2-22.8H341.2z"/>
				</g>
				<g>
					<g>
						<path class="st6" d="M360.5,43.1c0,0.1-3.4,0.4-7.7,0.6c-4.3,0.3-7.7,0.4-7.7,0.3c0-0.1,3.4-0.4,7.7-0.6
							C357.1,43.2,360.5,43,360.5,43.1z"/>
					</g>
				</g>
				<g>
					<g>
						<path class="st6" d="M360.5,47c0,0.1-3.4,0.4-7.7,0.6c-4.3,0.3-7.7,0.4-7.7,0.3c0-0.1,3.4-0.4,7.7-0.6
							C357.1,47.1,360.5,46.9,360.5,47z"/>
					</g>
				</g>
				<g>
					<g>
						<path class="st6" d="M356.6,50.8c0,0.1-2,0.3-4.4,0.4c-2.4,0.1-4.4,0.2-4.4,0.1c0-0.1,2-0.3,4.4-0.4
							C354.7,50.8,356.6,50.7,356.6,50.8z"/>
					</g>
				</g>
			</g>
			<g>
				<g>
					<path class="st2" d="M340.8,62.9c0,0,0.2,18.3,1.1,23.9l23-1.1c0,0-2-18-1.2-22.8H340.8z"/>
				</g>
				<g>
					<g>
						<path class="st6" d="M360.1,70.6c0,0.1-3.4,0.4-7.7,0.6c-4.3,0.3-7.7,0.4-7.7,0.3c0-0.1,3.4-0.4,7.7-0.6
							C356.7,70.6,360.1,70.5,360.1,70.6z"/>
					</g>
				</g>
				<g>
					<g>
						<path class="st6" d="M360.1,74.5c0,0.1-3.4,0.4-7.7,0.6c-4.3,0.3-7.7,0.4-7.7,0.3c0-0.1,3.4-0.4,7.7-0.6
							C356.7,74.5,360.1,74.4,360.1,74.5z"/>
					</g>
				</g>
				<g>
					<g>
						<path class="st6" d="M356.2,78.3c0,0.1-2,0.3-4.4,0.4c-2.4,0.1-4.4,0.2-4.4,0.1c0-0.1,2-0.3,4.4-0.4
							C354.3,78.2,356.2,78.2,356.2,78.3z"/>
					</g>
				</g>
			</g>
			<g>
				<g>
					<path class="st7" d="M340.8,93.9c0,0,0.2,18.3,1.1,23.9l23-1.1c0,0-2-18-1.2-22.8H340.8z"/>
				</g>
				<g>
					<g>
						<path class="st6" d="M360.1,101.6c0,0.1-3.4,0.4-7.7,0.6c-4.3,0.3-7.7,0.4-7.7,0.3c0-0.1,3.4-0.4,7.7-0.6
							C356.7,101.7,360.1,101.5,360.1,101.6z"/>
					</g>
				</g>
				<g>
					<g>
						<path class="st6" d="M360.1,105.5c0,0.1-3.4,0.4-7.7,0.6c-4.3,0.3-7.7,0.4-7.7,0.3c0-0.1,3.4-0.4,7.7-0.6
							C356.7,105.5,360.1,105.4,360.1,105.5z"/>
					</g>
				</g>
				<g>
					<g>
						<path class="st6" d="M356.2,109.3c0,0.1-2,0.3-4.4,0.4c-2.4,0.1-4.4,0.2-4.4,0.1c0-0.1,2-0.3,4.4-0.4
							C354.3,109.3,356.2,109.2,356.2,109.3z"/>
					</g>
				</g>
			</g>
			<g>
				<g>
					<path class="st8" d="M338.1,130.3c0,0,0.2,18.3,1.1,23.9l23-1.1c0,0-2-18-1.2-22.8H338.1z"/>
				</g>
				<g>
					<g>
						<path class="st6" d="M357.5,138c0,0.1-3.4,0.4-7.7,0.6c-4.3,0.3-7.7,0.4-7.7,0.3c0-0.1,3.4-0.4,7.7-0.6
							C354,138,357.5,137.9,357.5,138z"/>
					</g>
				</g>
				<g>
					<g>
						<path class="st6" d="M357.5,141.9c0,0.1-3.4,0.4-7.7,0.6c-4.3,0.3-7.7,0.4-7.7,0.3c0-0.1,3.4-0.4,7.7-0.6
							C354,141.9,357.5,141.8,357.5,141.9z"/>
					</g>
				</g>
				<g>
					<g>
						<path class="st6" d="M353.6,145.7c0,0.1-2,0.3-4.4,0.4c-2.4,0.1-4.4,0.2-4.4,0.1c0-0.1,2-0.3,4.4-0.4
							C351.6,145.6,353.5,145.6,353.6,145.7z"/>
					</g>
				</g>
			</g>
			<g>
				<g>
					<path class="st7" d="M368.6,130.4c0,0,0.2,18.3,1.1,23.9l23-1.1c0,0-2-18-1.2-22.8H368.6z"/>
				</g>
				<g>
					<g>
						<path class="st6" d="M388,138.1c0,0.1-3.4,0.4-7.7,0.6c-4.3,0.3-7.7,0.4-7.7,0.3c0-0.1,3.4-0.4,7.7-0.6
							C384.5,138.2,387.9,138,388,138.1z"/>
					</g>
				</g>
				<g>
					<g>
						<path class="st6" d="M388,142c0,0.1-3.4,0.4-7.7,0.6c-4.3,0.3-7.7,0.4-7.7,0.3c0-0.1,3.4-0.4,7.7-0.6
							C384.5,142,388,141.9,388,142z"/>
					</g>
				</g>
				<g>
					<g>
						<path class="st6" d="M384,145.8c0,0.1-2,0.3-4.4,0.4c-2.4,0.1-4.4,0.2-4.4,0.1c0-0.1,2-0.3,4.4-0.4
							C382.1,145.8,384,145.7,384,145.8z"/>
					</g>
				</g>
			</g>
			<g>
				<g>
					<path class="st2" d="M394.1,131.7c0,0,0.2,18.3,1.1,23.9l23-1.1c0,0-2-18-1.2-22.8H394.1z"/>
				</g>
				<g>
					<g>
						<path class="st6" d="M413.5,139.4c0,0.1-3.4,0.4-7.7,0.6c-4.3,0.3-7.7,0.4-7.7,0.3c0-0.1,3.4-0.4,7.7-0.6
							C410,139.5,413.5,139.3,413.5,139.4z"/>
					</g>
				</g>
				<g>
					<g>
						<path class="st6" d="M413.5,143.3c0,0.1-3.4,0.4-7.7,0.6c-4.3,0.3-7.7,0.4-7.7,0.3c0-0.1,3.4-0.4,7.7-0.6
							C410,143.4,413.5,143.2,413.5,143.3z"/>
					</g>
				</g>
				<g>
					<g>
						<path class="st6" d="M409.6,147.1c0,0.1-2,0.3-4.4,0.4c-2.4,0.1-4.4,0.2-4.4,0.1c0-0.1,2-0.3,4.4-0.4
							C407.6,147.1,409.5,147,409.6,147.1z"/>
					</g>
				</g>
			</g>
			<g>
				<g>
					<path class="st8" d="M364.3,163.1c0,0,0.2,18.3,1.1,23.9l23-1.1c0,0-2-18-1.2-22.8H364.3z"/>
				</g>
				<g>
					<g>
						<path class="st6" d="M383.7,170.8c0,0.1-3.4,0.4-7.7,0.6c-4.3,0.3-7.7,0.4-7.7,0.3c0-0.1,3.4-0.4,7.7-0.6
							C380.2,170.8,383.6,170.7,383.7,170.8z"/>
					</g>
				</g>
				<g>
					<g>
						<path class="st6" d="M383.7,174.7c0,0.1-3.4,0.4-7.7,0.6c-4.3,0.3-7.7,0.4-7.7,0.3c0-0.1,3.4-0.4,7.7-0.6
							C380.2,174.7,383.7,174.6,383.7,174.7z"/>
					</g>
				</g>
				<g>
					<g>
						<path class="st6" d="M379.7,178.5c0,0.1-2,0.3-4.4,0.4c-2.4,0.1-4.4,0.2-4.4,0.1c0-0.1,2-0.3,4.4-0.4
							C377.8,178.4,379.7,178.4,379.7,178.5z"/>
					</g>
				</g>
			</g>
			<g>
				<g>
					<path class="st7" d="M438.1,121c0,0,0.2,18.3,1.1,23.9l23-1.1c0,0-2-18-1.2-22.8H438.1z"/>
				</g>
				<g>
					<g>
						<path class="st6" d="M457.5,128.7c0,0.1-3.4,0.4-7.7,0.6c-4.3,0.3-7.7,0.4-7.7,0.3c0-0.1,3.4-0.4,7.7-0.6
							C454,128.7,457.5,128.6,457.5,128.7z"/>
					</g>
				</g>
				<g>
					<g>
						<path class="st6" d="M457.5,132.6c0,0.1-3.4,0.4-7.7,0.6c-4.3,0.3-7.7,0.4-7.7,0.3c0-0.1,3.4-0.4,7.7-0.6
							C454,132.6,457.5,132.5,457.5,132.6z"/>
					</g>
				</g>
				<g>
					<g>
						<path class="st6" d="M453.6,136.4c0,0.1-2,0.3-4.4,0.4c-2.4,0.1-4.4,0.2-4.4,0.1c0-0.1,2-0.3,4.4-0.4
							C451.6,136.3,453.6,136.3,453.6,136.4z"/>
					</g>
				</g>
			</g>
			<g>
				<g>
					<path class="st8" d="M488,164c0,0,0.2,18.3,1.1,23.9l23-1.1c0,0-2-18-1.2-22.8H488z"/>
				</g>
				<g>
					<g>
						<path class="st6" d="M507.4,171.7c0,0.1-3.4,0.4-7.7,0.6c-4.3,0.3-7.7,0.4-7.7,0.3c0-0.1,3.4-0.4,7.7-0.6
							C504,171.8,507.4,171.6,507.4,171.7z"/>
					</g>
				</g>
				<g>
					<g>
						<path class="st6" d="M507.4,175.6c0,0.1-3.4,0.4-7.7,0.6c-4.3,0.3-7.7,0.4-7.7,0.3c0-0.1,3.4-0.4,7.7-0.6
							C504,175.6,507.4,175.5,507.4,175.6z"/>
					</g>
				</g>
				<g>
					<g>
						<path class="st6" d="M503.5,179.4c0,0.1-2,0.3-4.4,0.4c-2.4,0.1-4.4,0.2-4.4,0.1c0-0.1,2-0.3,4.4-0.4
							C501.5,179.4,503.5,179.3,503.5,179.4z"/>
					</g>
				</g>
			</g>
			<g>
				<g>
					<path class="st8" d="M516.4,164.4c0,0,0.2,18.3,1.1,23.9l23-1.1c0,0-2-18-1.2-22.8H516.4z"/>
				</g>
				<g>
					<g>
						<path class="st6" d="M535.8,172.1c0,0.1-3.4,0.4-7.7,0.6c-4.3,0.3-7.7,0.4-7.7,0.3c0-0.1,3.4-0.4,7.7-0.6
							C532.3,172.1,535.8,172,535.8,172.1z"/>
					</g>
				</g>
				<g>
					<g>
						<path class="st6" d="M535.8,176c0,0.1-3.4,0.4-7.7,0.6c-4.3,0.3-7.7,0.4-7.7,0.3c0-0.1,3.4-0.4,7.7-0.6
							C532.4,176,535.8,175.9,535.8,176z"/>
					</g>
				</g>
				<g>
					<g>
						<path class="st6" d="M531.9,179.8c0,0.1-2,0.3-4.4,0.4c-2.4,0.1-4.4,0.2-4.4,0.1c0-0.1,2-0.3,4.4-0.4
							C529.9,179.8,531.9,179.7,531.9,179.8z"/>
					</g>
				</g>
			</g>
			<g>
				<g>
					<path class="st7" d="M544.8,164.8c0,0,0.2,18.3,1.1,23.9l23-1.1c0,0-2-18-1.2-22.8H544.8z"/>
				</g>
				<g>
					<g>
						<path class="st6" d="M564.2,172.5c0,0.1-3.4,0.4-7.7,0.6c-4.3,0.3-7.7,0.4-7.7,0.3c0-0.1,3.4-0.4,7.7-0.6
							C560.7,172.5,564.2,172.4,564.2,172.5z"/>
					</g>
				</g>
				<g>
					<g>
						<path class="st6" d="M564.2,176.4c0,0.1-3.4,0.4-7.7,0.6c-4.3,0.3-7.7,0.4-7.7,0.3c0-0.1,3.4-0.4,7.7-0.6
							C560.7,176.4,564.2,176.3,564.2,176.4z"/>
					</g>
				</g>
				<g>
					<g>
						<path class="st6" d="M560.3,180.2c0,0.1-2,0.3-4.4,0.4c-2.4,0.1-4.4,0.2-4.4,0.1c0-0.1,2-0.3,4.4-0.4
							C558.3,180.1,560.3,180.1,560.3,180.2z"/>
					</g>
				</g>
			</g>
			<g>
				<g>
					<path class="st8" d="M579,163.7c0,0,0.2,18.3,1.1,23.9l23-1.1c0,0-2-18-1.2-22.8H579z"/>
				</g>
				<g>
					<g>
						<path class="st6" d="M598.3,171.4c0,0.1-3.4,0.4-7.7,0.6c-4.3,0.3-7.7,0.4-7.7,0.3c0-0.1,3.4-0.4,7.7-0.6
							C594.9,171.5,598.3,171.3,598.3,171.4z"/>
					</g>
				</g>
				<g>
					<g>
						<path class="st6" d="M598.3,175.3c0,0.1-3.4,0.4-7.7,0.6c-4.3,0.3-7.7,0.4-7.7,0.3c0-0.1,3.4-0.4,7.7-0.6
							C594.9,175.4,598.3,175.2,598.3,175.3z"/>
					</g>
				</g>
				<g>
					<g>
						<path class="st6" d="M594.4,179.1c0,0.1-2,0.3-4.4,0.4c-2.4,0.1-4.4,0.2-4.4,0.1c0-0.1,2-0.3,4.4-0.4
							C592.5,179.1,594.4,179,594.4,179.1z"/>
					</g>
				</g>
			</g>
			<g>
				<g>
					<path class="st8" d="M603.7,166.4c0,0,0.2,18.3,1.1,23.9l23-1.1c0,0-2-18-1.2-22.8H603.7z"/>
				</g>
				<g>
					<g>
						<path class="st6" d="M623.1,174.1c0,0.1-3.4,0.4-7.7,0.6c-4.3,0.3-7.7,0.4-7.7,0.3c0-0.1,3.4-0.4,7.7-0.6
							C619.6,174.1,623.1,174,623.1,174.1z"/>
					</g>
				</g>
				<g>
					<g>
						<path class="st6" d="M623.1,178c0,0.1-3.4,0.4-7.7,0.6c-4.3,0.3-7.7,0.4-7.7,0.3c0-0.1,3.4-0.4,7.7-0.6
							C619.6,178,623.1,177.9,623.1,178z"/>
					</g>
				</g>
				<g>
					<g>
						<path class="st6" d="M619.2,181.8c0,0.1-2,0.3-4.4,0.4c-2.4,0.1-4.4,0.2-4.4,0.1c0-0.1,2-0.3,4.4-0.4
							C617.2,181.7,619.2,181.7,619.2,181.8z"/>
					</g>
				</g>
			</g>
			<g>
				<g>
					<path class="st8" d="M487.9,130.7c0,0,0.2,18.3,1.1,23.9l23-1.1c0,0-2-18-1.2-22.8H487.9z"/>
				</g>
				<g>
					<g>
						<path class="st6" d="M507.3,138.4c0,0.1-3.4,0.4-7.7,0.6c-4.3,0.3-7.7,0.4-7.7,0.3c0-0.1,3.4-0.4,7.7-0.6
							C503.9,138.4,507.3,138.3,507.3,138.4z"/>
					</g>
				</g>
				<g>
					<g>
						<path class="st6" d="M507.3,142.3c0,0.1-3.4,0.4-7.7,0.6c-4.3,0.3-7.7,0.4-7.7,0.3c0-0.1,3.4-0.4,7.7-0.6
							C503.9,142.3,507.3,142.2,507.3,142.3z"/>
					</g>
				</g>
				<g>
					<g>
						<path class="st6" d="M503.4,146.1c0,0.1-2,0.3-4.4,0.4c-2.4,0.1-4.4,0.2-4.4,0.1c0-0.1,2-0.3,4.4-0.4
							C501.4,146,503.4,146,503.4,146.1z"/>
					</g>
				</g>
			</g>
			<g>
				<g>
					<path class="st2" d="M518,130.8c0,0,0.2,18.3,1.1,23.9l23-1.1c0,0-2-18-1.2-22.8H518z"/>
				</g>
				<g>
					<g>
						<path class="st6" d="M537.4,138.5c0,0.1-3.4,0.4-7.7,0.6c-4.3,0.3-7.7,0.4-7.7,0.3c0-0.1,3.4-0.4,7.7-0.6
							C533.9,138.5,537.3,138.4,537.4,138.5z"/>
					</g>
				</g>
				<g>
					<g>
						<path class="st6" d="M537.4,142.4c0,0.1-3.4,0.4-7.7,0.6c-4.3,0.3-7.7,0.4-7.7,0.3c0-0.1,3.4-0.4,7.7-0.6
							C533.9,142.4,537.4,142.3,537.4,142.4z"/>
					</g>
				</g>
				<g>
					<g>
						<path class="st6" d="M533.4,146.2c0,0.1-2,0.3-4.4,0.4c-2.4,0.1-4.4,0.2-4.4,0.1c0-0.1,2-0.3,4.4-0.4
							C531.5,146.1,533.4,146.1,533.4,146.2z"/>
					</g>
				</g>
			</g>
			<g>
				<g>
					<path class="st8" d="M577.2,130.8c0,0,0.2,18.3,1.1,23.9l23-1.1c0,0-2-18-1.2-22.8H577.2z"/>
				</g>
				<g>
					<g>
						<path class="st6" d="M596.5,138.5c0,0.1-3.4,0.4-7.7,0.6c-4.3,0.3-7.7,0.4-7.7,0.3c0-0.1,3.4-0.4,7.7-0.6
							C593.1,138.5,596.5,138.4,596.5,138.5z"/>
					</g>
				</g>
				<g>
					<g>
						<path class="st6" d="M596.5,142.4c0,0.1-3.4,0.4-7.7,0.6c-4.3,0.3-7.7,0.4-7.7,0.3c0-0.1,3.4-0.4,7.7-0.6
							C593.1,142.4,596.5,142.3,596.5,142.4z"/>
					</g>
				</g>
				<g>
					<g>
						<path class="st6" d="M592.6,146.2c0,0.1-2,0.3-4.4,0.4c-2.4,0.1-4.4,0.2-4.4,0.1c0-0.1,2-0.3,4.4-0.4
							C590.7,146.1,592.6,146.1,592.6,146.2z"/>
					</g>
				</g>
			</g>
			<g>
				<g>
					<path class="st7" d="M376.5,93.9c0,0,0.2,18.3,1.1,23.9l23-1.1c0,0-2-18-1.2-22.8H376.5z"/>
				</g>
				<g>
					<g>
						<path class="st6" d="M395.9,101.6c0,0.1-3.4,0.4-7.7,0.6c-4.3,0.3-7.7,0.4-7.7,0.3c0-0.1,3.4-0.4,7.7-0.6
							C392.4,101.7,395.8,101.5,395.9,101.6z"/>
					</g>
				</g>
				<g>
					<g>
						<path class="st6" d="M395.9,105.5c0,0.1-3.4,0.4-7.7,0.6c-4.3,0.3-7.7,0.4-7.7,0.3c0-0.1,3.4-0.4,7.7-0.6
							C392.4,105.5,395.9,105.4,395.9,105.5z"/>
					</g>
				</g>
				<g>
					<g>
						<path class="st6" d="M391.9,109.3c0,0.1-2,0.3-4.4,0.4c-2.4,0.1-4.4,0.2-4.4,0.1c0-0.1,2-0.3,4.4-0.4
							C390,109.3,391.9,109.2,391.9,109.3z"/>
					</g>
				</g>
			</g>
			<g>
				<g>
					<path class="st2" d="M367.3,35.4c0,0,0.2,18.3,1.1,23.9l23-1.1c0,0-2-18-1.2-22.8H367.3z"/>
				</g>
				<g>
					<g>
						<path class="st6" d="M386.7,43.1c0,0.1-3.4,0.4-7.7,0.6c-4.3,0.3-7.7,0.4-7.7,0.3c0-0.1,3.4-0.4,7.7-0.6
							C383.2,43.2,386.7,43,386.7,43.1z"/>
					</g>
				</g>
				<g>
					<g>
						<path class="st6" d="M386.7,47c0,0.1-3.4,0.4-7.7,0.6c-4.3,0.3-7.7,0.4-7.7,0.3c0-0.1,3.4-0.4,7.7-0.6
							C383.3,47.1,386.7,46.9,386.7,47z"/>
					</g>
				</g>
				<g>
					<g>
						<path class="st6" d="M382.8,50.8c0,0.1-2,0.3-4.4,0.4c-2.4,0.1-4.4,0.2-4.4,0.1c0-0.1,2-0.3,4.4-0.4
							C380.8,50.8,382.8,50.7,382.8,50.8z"/>
					</g>
				</g>
			</g>
			<g>
				<g>
					<path class="st2" d="M367.8,63c0,0,0.2,18.3,1.1,23.9l23-1.1c0,0-2-18-1.2-22.8H367.8z"/>
				</g>
				<g>
					<g>
						<path class="st6" d="M387.2,70.7c0,0.1-3.4,0.4-7.7,0.6c-4.3,0.3-7.7,0.4-7.7,0.3c0-0.1,3.4-0.4,7.7-0.6
							C383.7,70.7,387.2,70.6,387.2,70.7z"/>
					</g>
				</g>
				<g>
					<g>
						<path class="st6" d="M387.2,74.6c0,0.1-3.4,0.4-7.7,0.6c-4.3,0.3-7.7,0.4-7.7,0.3c0-0.1,3.4-0.4,7.7-0.6
							C383.8,74.6,387.2,74.5,387.2,74.6z"/>
					</g>
				</g>
				<g>
					<g>
						<path class="st6" d="M383.3,78.4c0,0.1-2,0.3-4.4,0.4c-2.4,0.1-4.4,0.2-4.4,0.1c0-0.1,2-0.3,4.4-0.4
							C381.3,78.3,383.3,78.3,383.3,78.4z"/>
					</g>
				</g>
			</g>
			<g>
				<g>
					<path class="st2" d="M396,35.4c0,0,0.2,18.3,1.1,23.9l23-1.1c0,0-2-18-1.2-22.8H396z"/>
				</g>
				<g>
					<g>
						<path class="st6" d="M415.4,43.1c0,0.1-3.4,0.4-7.7,0.6c-4.3,0.3-7.7,0.4-7.7,0.3c0-0.1,3.4-0.4,7.7-0.6
							C411.9,43.2,415.4,43,415.4,43.1z"/>
					</g>
				</g>
				<g>
					<g>
						<path class="st6" d="M415.4,47c0,0.1-3.4,0.4-7.7,0.6c-4.3,0.3-7.7,0.4-7.7,0.3c0-0.1,3.4-0.4,7.7-0.6
							C411.9,47.1,415.4,46.9,415.4,47z"/>
					</g>
				</g>
				<g>
					<g>
						<path class="st6" d="M411.5,50.8c0,0.1-2,0.3-4.4,0.4c-2.4,0.1-4.4,0.2-4.4,0.1c0-0.1,2-0.3,4.4-0.4
							C409.5,50.8,411.5,50.7,411.5,50.8z"/>
					</g>
				</g>
			</g>
			<g>
				<g>
					<path class="st2" d="M424.7,35.4c0,0,0.2,18.3,1.1,23.9l23-1.1c0,0-2-18-1.2-22.8H424.7z"/>
				</g>
				<g>
					<g>
						<path class="st6" d="M444,43.1c0,0.1-3.4,0.4-7.7,0.6c-4.3,0.3-7.7,0.4-7.7,0.3c0-0.1,3.4-0.4,7.7-0.6
							C440.6,43.2,444,43,444,43.1z"/>
					</g>
				</g>
				<g>
					<g>
						<path class="st6" d="M444.1,47c0,0.1-3.4,0.4-7.7,0.6c-4.3,0.3-7.7,0.4-7.7,0.3c0-0.1,3.4-0.4,7.7-0.6
							C440.6,47.1,444,46.9,444.1,47z"/>
					</g>
				</g>
				<g>
					<g>
						<path class="st6" d="M440.1,50.8c0,0.1-2,0.3-4.4,0.4c-2.4,0.1-4.4,0.2-4.4,0.1c0-0.1,2-0.3,4.4-0.4
							C438.2,50.8,440.1,50.7,440.1,50.8z"/>
					</g>
				</g>
			</g>
			<g>
				<g>
					<path class="st2" d="M453.3,35.4c0,0,0.2,18.3,1.1,23.9l23-1.1c0,0-2-18-1.2-22.8H453.3z"/>
				</g>
				<g>
					<g>
						<path class="st6" d="M472.7,43.1c0,0.1-3.4,0.4-7.7,0.6c-4.3,0.3-7.7,0.4-7.7,0.3c0-0.1,3.4-0.4,7.7-0.6
							C469.3,43.2,472.7,43,472.7,43.1z"/>
					</g>
				</g>
				<g>
					<g>
						<path class="st6" d="M472.7,47c0,0.1-3.4,0.4-7.7,0.6c-4.3,0.3-7.7,0.4-7.7,0.3c0-0.1,3.4-0.4,7.7-0.6
							C469.3,47.1,472.7,46.9,472.7,47z"/>
					</g>
				</g>
				<g>
					<g>
						<path class="st6" d="M468.8,50.8c0,0.1-2,0.3-4.4,0.4c-2.4,0.1-4.4,0.2-4.4,0.1c0-0.1,2-0.3,4.4-0.4
							C466.8,50.8,468.8,50.7,468.8,50.8z"/>
					</g>
				</g>
			</g>
			<g>
				<g>
					<path class="st2" d="M491.7,39.5c0,0,0.2,18.3,1.1,23.9l23-1.1c0,0-2-18-1.2-22.8H491.7z"/>
				</g>
				<g>
					<g>
						<path class="st6" d="M511,47.2c0,0.1-3.4,0.4-7.7,0.6c-4.3,0.3-7.7,0.4-7.7,0.3c0-0.1,3.4-0.4,7.7-0.6
							C507.6,47.2,511,47.1,511,47.2z"/>
					</g>
				</g>
				<g>
					<g>
						<path class="st6" d="M511,51.1c0,0.1-3.4,0.4-7.7,0.6c-4.3,0.3-7.7,0.4-7.7,0.3c0-0.1,3.4-0.4,7.7-0.6
							C507.6,51.1,511,51,511,51.1z"/>
					</g>
				</g>
				<g>
					<g>
						<path class="st6" d="M507.1,54.9c0,0.1-2,0.3-4.4,0.4c-2.4,0.1-4.4,0.2-4.4,0.1c0-0.1,2-0.3,4.4-0.4
							C505.2,54.8,507.1,54.8,507.1,54.9z"/>
					</g>
				</g>
			</g>
			<g>
				<g>
					<path class="st2" d="M517.3,39.9c0,0,0.2,18.3,1.1,23.9l23-1.1c0,0-2-18-1.2-22.8H517.3z"/>
				</g>
				<g>
					<g>
						<path class="st6" d="M536.7,47.6c0,0.1-3.4,0.4-7.7,0.6c-4.3,0.3-7.7,0.4-7.7,0.3c0-0.1,3.4-0.4,7.7-0.6
							C533.2,47.6,536.7,47.5,536.7,47.6z"/>
					</g>
				</g>
				<g>
					<g>
						<path class="st6" d="M536.7,51.5c0,0.1-3.4,0.4-7.7,0.6c-4.3,0.3-7.7,0.4-7.7,0.3c0-0.1,3.4-0.4,7.7-0.6
							C533.2,51.5,536.7,51.4,536.7,51.5z"/>
					</g>
				</g>
				<g>
					<g>
						<path class="st6" d="M532.8,55.3c0,0.1-2,0.3-4.4,0.4c-2.4,0.1-4.4,0.2-4.4,0.1c0-0.1,2-0.3,4.4-0.4
							C530.8,55.2,532.8,55.2,532.8,55.3z"/>
					</g>
				</g>
			</g>
			<g>
				<g>
					<path class="st2" d="M545.7,40.7c0,0,0.2,18.3,1.1,23.9l23-1.1c0,0-2-18-1.2-22.8H545.7z"/>
				</g>
				<g>
					<g>
						<path class="st6" d="M565.1,48.4c0,0.1-3.4,0.4-7.7,0.6c-4.3,0.3-7.7,0.4-7.7,0.3c0-0.1,3.4-0.4,7.7-0.6
							C561.6,48.4,565,48.3,565.1,48.4z"/>
					</g>
				</g>
				<g>
					<g>
						<path class="st6" d="M565.1,52.3c0,0.1-3.4,0.4-7.7,0.6c-4.3,0.3-7.7,0.4-7.7,0.3c0-0.1,3.4-0.4,7.7-0.6
							C561.6,52.3,565.1,52.2,565.1,52.3z"/>
					</g>
				</g>
				<g>
					<g>
						<path class="st6" d="M561.2,56.1c0,0.1-2,0.3-4.4,0.4c-2.4,0.1-4.4,0.2-4.4,0.1c0-0.1,2-0.3,4.4-0.4
							C559.2,56.1,561.1,56,561.2,56.1z"/>
					</g>
				</g>
			</g>
			<g>
				<g>
					<path class="st2" d="M579.4,39.8c0,0,0.2,18.3,1.1,23.9l23-1.1c0,0-2-18-1.2-22.8H579.4z"/>
				</g>
				<g>
					<g>
						<path class="st6" d="M598.7,47.5c0,0.1-3.4,0.4-7.7,0.6c-4.3,0.3-7.7,0.4-7.7,0.3c0-0.1,3.4-0.4,7.7-0.6
							C595.3,47.5,598.7,47.4,598.7,47.5z"/>
					</g>
				</g>
				<g>
					<g>
						<path class="st6" d="M598.8,51.4c0,0.1-3.4,0.4-7.7,0.6c-4.3,0.3-7.7,0.4-7.7,0.3c0-0.1,3.4-0.4,7.7-0.6
							C595.3,51.4,598.7,51.3,598.8,51.4z"/>
					</g>
				</g>
				<g>
					<g>
						<path class="st6" d="M594.8,55.2c0,0.1-2,0.3-4.4,0.4c-2.4,0.1-4.4,0.2-4.4,0.1c0-0.1,2-0.3,4.4-0.4
							C592.9,55.1,594.8,55.1,594.8,55.2z"/>
					</g>
				</g>
			</g>
			<g>
				<g>
					<path class="st2" d="M582.2,69.7c0,0,0.2,18.3,1.1,23.9l23-1.1c0,0-2-18-1.2-22.8H582.2z"/>
				</g>
				<g>
					<g>
						<path class="st6" d="M601.6,77.4c0,0.1-3.4,0.4-7.7,0.6c-4.3,0.3-7.7,0.4-7.7,0.3c0-0.1,3.4-0.4,7.7-0.6
							C598.1,77.4,601.5,77.3,601.6,77.4z"/>
					</g>
				</g>
				<g>
					<g>
						<path class="st6" d="M601.6,81.3c0,0.1-3.4,0.4-7.7,0.6c-4.3,0.3-7.7,0.4-7.7,0.3c0-0.1,3.4-0.4,7.7-0.6
							C598.1,81.3,601.6,81.2,601.6,81.3z"/>
					</g>
				</g>
				<g>
					<g>
						<path class="st6" d="M597.6,85.1c0,0.1-2,0.3-4.4,0.4c-2.4,0.1-4.4,0.2-4.4,0.1c0-0.1,2-0.3,4.4-0.4
							C595.7,85,597.6,85,597.6,85.1z"/>
					</g>
				</g>
			</g>
			<g>
				<g>
					<path class="st8" d="M599.6,42.3c0,0,0.2,18.3,1.1,23.9l23-1.1c0,0-2-18-1.2-22.8H599.6z"/>
				</g>
				<g>
					<g>
						<path class="st6" d="M619,50c0,0.1-3.4,0.4-7.7,0.6c-4.3,0.3-7.7,0.4-7.7,0.3c0-0.1,3.4-0.4,7.7-0.6
							C615.5,50.1,619,49.9,619,50z"/>
					</g>
				</g>
				<g>
					<g>
						<path class="st6" d="M619,53.9c0,0.1-3.4,0.4-7.7,0.6c-4.3,0.3-7.7,0.4-7.7,0.3c0-0.1,3.4-0.4,7.7-0.6
							C615.5,53.9,619,53.8,619,53.9z"/>
					</g>
				</g>
				<g>
					<g>
						<path class="st6" d="M615.1,57.7c0,0.1-2,0.3-4.4,0.4c-2.4,0.1-4.4,0.2-4.4,0.1c0-0.1,2-0.3,4.4-0.4
							C613.1,57.7,615.1,57.6,615.1,57.7z"/>
					</g>
				</g>
			</g>
			<g>
				<g>
					<path class="st8" d="M497.9,54.5c0,0,0.2,18.3,1.1,23.9l23-1.1c0,0-2-18-1.2-22.8H497.9z"/>
				</g>
				<g>
					<g>
						<path class="st6" d="M517.3,62.2c0,0.1-3.4,0.4-7.7,0.6c-4.3,0.3-7.7,0.4-7.7,0.3c0-0.1,3.4-0.4,7.7-0.6
							C513.8,62.2,517.2,62.1,517.3,62.2z"/>
					</g>
				</g>
				<g>
					<g>
						<path class="st6" d="M517.3,66.1c0,0.1-3.4,0.4-7.7,0.6c-4.3,0.3-7.7,0.4-7.7,0.3c0-0.1,3.4-0.4,7.7-0.6
							C513.8,66.1,517.3,66,517.3,66.1z"/>
					</g>
				</g>
				<g>
					<g>
						<path class="st6" d="M513.3,69.9c0,0.1-2,0.3-4.4,0.4c-2.4,0.1-4.4,0.2-4.4,0.1c0-0.1,2-0.3,4.4-0.4
							C511.4,69.8,513.3,69.8,513.3,69.9z"/>
					</g>
				</g>
			</g>
			<g>
				<g>
					<path class="st2" d="M495,95.2c0,0,0.2,18.3,1.1,23.9l23-1.1c0,0-2-18-1.2-22.8H495z"/>
				</g>
				<g>
					<g>
						<path class="st6" d="M514.4,102.9c0,0.1-3.4,0.4-7.7,0.6c-4.3,0.3-7.7,0.4-7.7,0.3c0-0.1,3.4-0.4,7.7-0.6
							C510.9,102.9,514.4,102.8,514.4,102.9z"/>
					</g>
				</g>
				<g>
					<g>
						<path class="st6" d="M514.4,106.8c0,0.1-3.4,0.4-7.7,0.6c-4.3,0.3-7.7,0.4-7.7,0.3c0-0.1,3.4-0.4,7.7-0.6
							C510.9,106.8,514.4,106.7,514.4,106.8z"/>
					</g>
				</g>
				<g>
					<g>
						<path class="st6" d="M510.5,110.6c0,0.1-2,0.3-4.4,0.4c-2.4,0.1-4.4,0.2-4.4,0.1c0-0.1,2-0.3,4.4-0.4
							C508.5,110.5,510.4,110.5,510.5,110.6z"/>
					</g>
				</g>
			</g>
			<g>
				<g>
					<path class="st5" d="M422.9,55.3c0,0,1.9,17-0.5,26.3l-22.7-1c0,0,4.9-16.8,1.9-24.2L422.9,55.3z"/>
				</g>
				<g>
					<g>
						<path class="st8" d="M399.5,52.5c0,0-1.4,19.3-2.7,23.2l20.7,2.2l3.1-3c0,0,2.2-17,1.9-21.8L399.5,52.5z"/>
					</g>
					<g>
						<polygon class="st7" points="418,74.7 417.5,77.8 420.6,74.8 						"/>
					</g>
					<g>
						<g>
							<path class="st6" d="M418.2,62.2c0,0.1-0.9-0.1-2.3-0.3c-1.5-0.2-3.4-0.5-5.6-0.8c-2.1-0.3-4-0.5-5.6-0.7
								c-1.4-0.2-2.3-0.3-2.3-0.3c0,0,0.9,0,2.3,0.1c1.4,0.1,3.4,0.3,5.6,0.6c2.2,0.3,4.1,0.6,5.6,0.9
								C417.4,61.9,418.2,62.1,418.2,62.2z"/>
						</g>
					</g>
					<g>
						<g>
							<path class="st6" d="M417.3,66.4c0,0-0.9,0-2.2-0.1c-1.4-0.1-3.3-0.3-5.4-0.5c-2.1-0.3-4-0.6-5.3-0.8
								c-1.4-0.2-2.2-0.4-2.2-0.5c0-0.1,0.9,0,2.2,0.2c1.5,0.2,3.3,0.4,5.3,0.7c2,0.2,3.9,0.5,5.3,0.7
								C416.5,66.3,417.3,66.4,417.3,66.4z"/>
						</g>
					</g>
					<g>
						<g>
							<path class="st6" d="M416,70.4c0,0.1-3.1-0.2-6.9-0.7c-3.8-0.5-6.9-1-6.9-1.1c0-0.1,3.1,0.2,7,0.7
								C413,69.8,416.1,70.3,416,70.4z"/>
						</g>
					</g>
				</g>
			</g>
			<g>
				<g>
					<g>
						<path class="st8" d="M350.4,75.7c0,0-1.4,19.3-2.7,23.2l20.7,2.2l3.1-3c0,0,2.2-17,1.9-21.8L350.4,75.7z"/>
					</g>
					<g>
						<polygon class="st7" points="368.8,97.9 368.4,101 371.5,98.1 						"/>
					</g>
					<g>
						<g>
							<path class="st6" d="M369.1,85.4c0,0.1-0.9-0.1-2.3-0.3c-1.5-0.2-3.4-0.5-5.6-0.8c-2.1-0.3-4-0.5-5.6-0.7
								c-1.4-0.2-2.3-0.3-2.3-0.3c0,0,0.9,0,2.3,0.1c1.4,0.1,3.4,0.3,5.6,0.6c2.2,0.3,4.1,0.6,5.6,0.9
								C368.2,85.2,369.1,85.4,369.1,85.4z"/>
						</g>
					</g>
					<g>
						<g>
							<path class="st6" d="M368.2,89.7c0,0-0.9,0-2.2-0.1c-1.4-0.1-3.3-0.3-5.4-0.5c-2.1-0.3-4-0.6-5.3-0.8
								c-1.4-0.2-2.2-0.4-2.2-0.5c0-0.1,0.9,0,2.2,0.2c1.5,0.2,3.3,0.4,5.3,0.7c2,0.2,3.9,0.5,5.3,0.7
								C367.3,89.5,368.2,89.6,368.2,89.7z"/>
						</g>
					</g>
					<g>
						<g>
							<path class="st6" d="M366.9,93.6c0,0.1-3.1-0.2-6.9-0.7c-3.8-0.5-6.9-1-6.9-1.1c0-0.1,3.1,0.2,7,0.7
								C363.8,93,366.9,93.5,366.9,93.6z"/>
						</g>
					</g>
				</g>
			</g>
			<g>
				<rect x="311.4" y="39.2" class="st2" width="17.3" height="3.9"/>
			</g>
			<g>
				<rect x="311.4" y="133.5" class="st7" width="17.3" height="3.9"/>
			</g>
			<g>
				<rect x="311.4" y="165.4" class="st7" width="17.3" height="3.9"/>
			</g>
			<g>
				<rect x="377.3" y="15.9" class="st1" width="59.6" height="3.9"/>
			</g>
			<g>
				<rect x="496" y="15.9" class="st1" width="59.6" height="3.9"/>
			</g>
			<g>
				<rect x="584.6" y="15.9" class="st1" width="28.5" height="3.9"/>
			</g>
			<g>
				<g>
					<path class="st7" d="M620.7,32.8c0,0.1-69.9,0.2-156.1,0.2c-86.3,0-156.1-0.1-156.1-0.2c0-0.1,69.9-0.2,156.1-0.2
						C550.8,32.6,620.7,32.7,620.7,32.8z"/>
				</g>
			</g>
			<g>
				<g>
					<path class="st7" d="M620.7,126.7c0,0.1-69.9,0.2-156.1,0.2c-86.3,0-156.1-0.1-156.1-0.2s69.9-0.2,156.1-0.2
						C550.8,126.5,620.7,126.6,620.7,126.7z"/>
				</g>
			</g>
			<g>
				<g>
					<path class="st7" d="M620.7,191.1c0,0.1-69.9,0.2-156.1,0.2c-86.3,0-156.1-0.1-156.1-0.2s69.9-0.2,156.1-0.2
						C550.8,190.9,620.7,191,620.7,191.1z"/>
				</g>
			</g>
			<g>
				<g>
					<path class="st7" d="M620.7,159.7c0,0.1-69.9,0.2-156.1,0.2c-86.3,0-156.1-0.1-156.1-0.2c0-0.1,69.9-0.2,156.1-0.2
						C550.8,159.5,620.7,159.6,620.7,159.7z"/>
				</g>
			</g>
			<g>
				<g>
					<path class="st7" d="M334.9,191.9c-0.1,0-0.2-39.9-0.2-89.1c0-49.2,0.1-89.1,0.2-89.1s0.2,39.9,0.2,89.1
						C335,152.1,335,191.9,334.9,191.9z"/>
				</g>
			</g>
			<g>
				<g>
					<path class="st7" d="M479.1,192.9c-0.1,0-0.2-39.8-0.2-88.9c0-49.1,0.1-89,0.2-89c0.1,0,0.2,39.8,0.2,89
						C479.3,153,479.2,192.9,479.1,192.9z"/>
				</g>
			</g>
			<g>
				<g>
					<path class="st7" d="M572.6,193.8c-0.1,0-0.2-39.8-0.2-89c0-49.1,0.1-89,0.2-89c0.1,0,0.2,39.8,0.2,89
						C572.8,154,572.7,193.8,572.6,193.8z"/>
				</g>
			</g>
			<g>
				<g>
					<path class="st7" d="M515.2,91.3c0,0,0.1,0,0.3,0.1c0.2,0.1,0.5,0.2,0.8,0.3c0.7,0.4,1.7,0.9,2.9,1.8c1.2,0.9,2.5,2.2,3.7,3.9
						c0.6,0.9,1.1,1.9,1.6,2.9c0.5,1.1,0.8,2.3,1.1,3.6c0.5,2.6,0.3,5.6-0.7,8.5c-1,2.9-2.9,5.8-5.6,8.1c-2.7,2.2-6.2,3.7-10,4
						c-3.8,0.3-7.8-0.4-11.4-2.4c-3.5-2-6.3-5.1-7.9-8.6c-1.6-3.4-2-7.3-1.3-10.7c0.7-3.4,2.5-6.4,4.7-8.6c1.1-1.1,2.4-2,3.7-2.6
						c1.3-0.7,2.6-1.1,3.9-1.4c2.6-0.6,5-0.6,7.1-0.4c2.1,0.1,3.9,0.4,5.3,0.7c1.4,0.3,2.6,0.5,3.3,0.7c0.4,0.1,0.6,0.2,0.9,0.2
						c0.2,0,0.3,0.1,0.3,0.1c0,0-0.1,0-0.3,0c-0.2,0-0.5-0.1-0.9-0.2c-0.8-0.2-1.9-0.4-3.3-0.6c-1.4-0.2-3.2-0.5-5.3-0.7
						c-2.1-0.1-4.5-0.1-7,0.5c-1.3,0.3-2.6,0.7-3.8,1.4c-1.3,0.6-2.5,1.5-3.6,2.6c-2.2,2.1-3.9,5.1-4.6,8.4
						c-0.7,3.4-0.3,7.1,1.3,10.5c1.6,3.4,4.3,6.4,7.7,8.4c3.5,2,7.4,2.7,11.1,2.4c3.7-0.3,7.2-1.7,9.9-3.9c2.7-2.2,4.5-5,5.5-7.9
						c1-2.9,1.2-5.8,0.8-8.4c-0.2-1.3-0.6-2.5-1-3.6c-0.5-1.1-1-2.1-1.6-2.9c-1.1-1.7-2.4-3-3.6-3.9c-1.1-0.9-2.2-1.4-2.8-1.8
						c-0.3-0.2-0.6-0.3-0.8-0.4C515.3,91.3,515.2,91.3,515.2,91.3z"/>
				</g>
			</g>
			<g>
				<g>
					<path class="st7" d="M522.6,93.5c-0.1-0.1,2.8-2.4,6.3-5.3c3.6-2.8,6.5-5.1,6.6-5c0.1,0.1-2.8,2.4-6.3,5.3
						C525.6,91.3,522.7,93.5,522.6,93.5z"/>
				</g>
			</g>
			<g>
				<g>
					<path class="st7" d="M533.8,93.9c0,0-0.3,0.1-0.9,0.1c-0.7,0.1-1.5,0.1-2.5,0.2c-2.1,0.2-5,0.4-8.3,0.6l-0.3,0l0.1-0.3
						c0-0.1,0.1-0.2,0.1-0.3c1-3.2,2.4-5.9,3.6-7.7c0.6-0.9,1.1-1.6,1.5-2.1c0.4-0.5,0.6-0.7,0.6-0.7c0,0-0.2,0.3-0.5,0.8
						c-0.3,0.5-0.8,1.2-1.4,2.2c-1.1,1.9-2.5,4.5-3.4,7.7c0,0.1-0.1,0.2-0.1,0.3l-0.2-0.2c3.2-0.2,6.2-0.4,8.3-0.5
						c1,0,1.8-0.1,2.5-0.1C533.5,93.9,533.8,93.9,533.8,93.9z"/>
				</g>
			</g>
			<g>
				<g>
					<path class="st7" d="M613.4,138c0,0,0.2-0.5,0.6-1.5c0.4-1,0.9-2.4,1.3-4.2c0.9-3.6,1.2-8.9-0.6-14.3c-1.8-5.4-5.2-9.5-8-11.9
						c-1.4-1.2-2.7-2.1-3.5-2.6c-0.9-0.5-1.4-0.8-1.4-0.9c0,0,0.1,0,0.4,0.2c0.2,0.1,0.6,0.3,1.1,0.6c0.9,0.5,2.2,1.3,3.6,2.5
						c1.4,1.2,3,2.8,4.5,4.8c1.5,2,2.8,4.4,3.7,7.2c0.9,2.7,1.3,5.5,1.3,8c0,2.5-0.3,4.7-0.8,6.5c-0.5,1.8-1,3.2-1.4,4.2
						c-0.2,0.5-0.4,0.8-0.5,1.1C613.4,137.9,613.4,138.1,613.4,138z"/>
				</g>
			</g>
			<g>
				<g>
					<path class="st7" d="M619.9,134c0,0-0.7,0.7-1.9,1.6c-0.6,0.5-1.3,1.1-2.1,1.7c-0.4,0.3-0.8,0.6-1.2,1
						c-0.4,0.3-0.9,0.8-1.6,0.8c-0.4,0-0.7-0.3-0.8-0.6c-0.2-0.3-0.2-0.6-0.3-0.8c-0.1-0.5-0.3-1-0.4-1.5c-0.2-1-0.5-1.8-0.6-2.6
						c-0.4-1.5-0.6-2.4-0.5-2.4c0,0,0.3,0.9,0.8,2.4c0.2,0.8,0.5,1.6,0.7,2.6c0.1,0.5,0.3,1,0.4,1.5c0.1,0.5,0.3,1.1,0.8,1.1
						c0.5,0,0.9-0.4,1.4-0.7c0.4-0.3,0.9-0.7,1.3-1c0.8-0.6,1.5-1.1,2.1-1.6C619.1,134.5,619.9,134,619.9,134z"/>
				</g>
			</g>
			<g>
				<g>
					<g>
						<path class="st7" d="M439.6,91.1c0,0.1-7,2-15.7,4.2c-8.7,2.2-15.8,3.9-15.8,3.8c0-0.1,7-2,15.8-4.2
							C432.5,92.7,439.6,91,439.6,91.1z"/>
					</g>
				</g>
				<g>
					<g>
						<path class="st7" d="M444.2,94.8c0,0.1-7.7,2.3-17.3,5c-9.6,2.7-17.4,4.8-17.4,4.7c0-0.1,7.7-2.3,17.3-5
							C436.4,96.8,444.2,94.7,444.2,94.8z"/>
					</g>
				</g>
				<g>
					<g>
						<path class="st7" d="M447,101c0,0.1-7.4,2-16.6,4.2c-9.2,2.2-16.6,3.9-16.6,3.8c0-0.1,7.4-2,16.6-4.2
							C439.5,102.6,447,100.9,447,101z"/>
					</g>
				</g>
			</g>
			<g>
				<g>
					<g>
						<polygon class="st5" points="407.8,165.8 413.4,195.5 469.6,184.9 459.8,155.9 						"/>
					</g>
					<g>
						<g>
							<g>
								<g>
									
										<rect x="408.6" y="160.7" transform="matrix(0.9825 -0.186 0.186 0.9825 -24.7843 84.0836)" class="st6" width="54.2" height="26.8"/>
								</g>
								<g>
									<g>
										<path class="st7" d="M464.8,182.3c0,0,0-0.2-0.1-0.5c-0.1-0.3-0.2-0.8-0.3-1.4c-0.2-1.2-0.6-3-1-5.3
											c-0.9-4.6-2.1-11.1-3.7-19.2l0.2,0.1c-13.9,2.7-32.7,6.2-53.2,10.1l0,0l0.1-0.2c1.8,9.3,3.4,18.2,5,26.3l-0.2-0.1
											c15.5-2.9,28.8-5.4,38.2-7.1c4.7-0.9,8.5-1.6,11-2c1.3-0.2,2.3-0.4,3-0.5c0.3-0.1,0.6-0.1,0.8-0.1
											C464.7,182.3,464.8,182.3,464.8,182.3s-0.1,0-0.2,0.1c-0.2,0-0.4,0.1-0.7,0.2c-0.7,0.1-1.7,0.3-2.9,0.6
											c-2.6,0.5-6.3,1.2-11,2.1c-9.4,1.8-22.8,4.4-38.3,7.3l-0.2,0l0-0.2c-1.5-8.1-3.2-17-5-26.3l0-0.2l0.2,0l0,0
											c20.5-3.9,39.3-7.4,53.2-10l0.1,0l0,0.1c1.5,8.1,2.7,14.7,3.6,19.3c0.4,2.3,0.7,4,1,5.2c0.1,0.6,0.2,1,0.2,1.4
											C464.8,182.1,464.8,182.3,464.8,182.3z"/>
									</g>
								</g>
							</g>
							<g>
								<g>
									<g>
										
											<rect x="414.3" y="169.3" transform="matrix(0.9825 -0.186 0.186 0.9825 -25.5192 81.5344)" class="st6" width="15" height="15"/>
									</g>
									<g>
										<g>
											<path class="st7" d="M430.5,182.7c0,0,0-0.1-0.1-0.3c0-0.2-0.1-0.5-0.2-0.8c-0.1-0.7-0.4-1.7-0.6-3
												c-0.5-2.6-1.2-6.2-2.1-10.6l0.2,0.1c-4.3,0.8-9.3,1.8-14.7,2.8c0,0,0.3-0.4,0.1-0.2l0,0l0,0l0,0l0,0l0,0.1l0,0.1l0,0.3
												l0.1,0.5c0.1,0.3,0.1,0.7,0.2,1c0.1,0.7,0.2,1.3,0.4,2c0.2,1.3,0.5,2.6,0.7,3.8c0.5,2.5,0.9,4.8,1.3,6.9l-0.2-0.1
												c4.4-0.8,8-1.5,10.6-1.9c1.3-0.2,2.3-0.4,3-0.5c0.3-0.1,0.6-0.1,0.8-0.1C430.4,182.7,430.5,182.7,430.5,182.7
												c0,0-0.1,0-0.2,0.1c-0.2,0-0.5,0.1-0.8,0.2c-0.7,0.1-1.7,0.3-3,0.6c-2.6,0.5-6.3,1.2-10.7,2.1l-0.2,0l0-0.2
												c-0.4-2.1-0.9-4.5-1.3-6.9c-0.2-1.2-0.5-2.5-0.7-3.8c-0.1-0.6-0.2-1.3-0.4-2c-0.1-0.3-0.1-0.7-0.2-1l-0.1-0.5l0-0.3
												l0-0.1l0-0.1l0,0l0,0l0,0l0,0c-0.1,0.2,0.2-0.3,0.1-0.2c5.4-1,10.4-2,14.7-2.8l0.2,0l0,0.2c0.8,4.4,1.5,8.1,1.9,10.7
												c0.2,1.3,0.4,2.3,0.5,3c0.1,0.3,0.1,0.6,0.1,0.8C430.5,182.6,430.5,182.7,430.5,182.7z"/>
										</g>
									</g>
								</g>
								<g>
									<g>
										<path class="st7" d="M430.5,182.7c0,0-0.1-0.4-0.3-1.1c-0.2-0.6-0.6-1.7-1.6-2.5l0,0c-0.5-0.4-1.1-0.8-1.8-1.1
											c-0.7-0.3-1.6-0.4-2.5-0.3l-0.3,0l0.2-0.3c0.6-1,0.7-2.3,0.1-3.5c-0.3-0.6-0.7-1.1-1.3-1.5c-0.6-0.3-1.3-0.5-2-0.5
											c-0.8,0-1.6,0.3-2.2,0.8c-0.6,0.5-1,1.1-1.1,1.9c-0.3,1.4,0.2,2.9,1.2,3.7l0.2,0.1l-0.2,0.1c-1,0.6-1.7,1.4-2.2,2.3
											c-0.5,0.8-0.7,1.6-0.9,2.3c-0.2,1.4,0,2.2-0.1,2.2c0,0-0.1-0.2-0.1-0.6c-0.1-0.4-0.1-0.9,0-1.6c0.1-0.7,0.3-1.5,0.8-2.4
											c0.5-0.9,1.2-1.8,2.3-2.4l0,0.3c-1.1-0.8-1.7-2.4-1.4-4c0.2-0.8,0.6-1.5,1.3-2.1c0.7-0.5,1.5-0.8,2.4-0.9
											c0.8,0,1.6,0.1,2.2,0.5c0.7,0.4,1.1,1,1.4,1.6c0.6,1.3,0.5,2.8-0.2,3.9l-0.2-0.2c0.9-0.1,1.8,0,2.6,0.3
											c0.8,0.3,1.4,0.7,1.9,1.2l0,0c1,0.9,1.4,2,1.5,2.6c0.1,0.3,0.1,0.6,0.2,0.8C430.5,182.6,430.5,182.7,430.5,182.7z"/>
									</g>
								</g>
							</g>
							<g>
								<g>
									<g>
										<path class="st6" d="M433.3,167.5c4.3-0.8,8.5-1.6,12.8-2.4"/>
									</g>
									<g>
										<g>
											<path class="st7" d="M446.1,165.1c0,0.1-2.8,0.7-6.3,1.4c-3.5,0.7-6.4,1.1-6.4,1c0-0.1,2.8-0.7,6.3-1.4
												C443.2,165.4,446.1,165,446.1,165.1z"/>
										</g>
									</g>
								</g>
								<g>
									<g>
										<path class="st6" d="M433.9,170.5c0.9-0.2,1.7-0.3,2.6-0.5"/>
									</g>
									<g>
										<g>
											<path class="st7" d="M436.5,170c0,0.1-0.5,0.3-1.3,0.4c-0.7,0.1-1.3,0.2-1.3,0.1c0-0.1,0.5-0.3,1.3-0.4
												C435.9,169.9,436.5,169.9,436.5,170z"/>
										</g>
									</g>
								</g>
								<g>
									<g>
										<path class="st7" d="M457.7,171.3c0,0.1-5.1,1.1-11.4,2.3c-6.3,1.2-11.4,2.1-11.4,2c0-0.1,5.1-1.1,11.4-2.3
											C452.5,172.1,457.7,171.2,457.7,171.3z"/>
									</g>
								</g>
								<g>
									<g>
										<path class="st7" d="M458.3,173.9c0,0.1-5.1,1.2-11.4,2.4c-6.3,1.2-11.5,2.1-11.5,2c0-0.1,5.1-1.2,11.4-2.4
											C453.1,174.6,458.3,173.8,458.3,173.9z"/>
									</g>
								</g>
								<g>
									<g>
										<path class="st7" d="M458.5,176.9c0,0-0.3,0.1-0.9,0.2c-0.6,0.1-1.4,0.3-2.4,0.5c-2,0.4-4.8,1-8,1.6
											c-3.1,0.6-5.9,1.1-8,1.5c-1,0.2-1.8,0.3-2.4,0.4c-0.6,0.1-0.9,0.1-0.9,0.1c0,0,0.3-0.1,0.9-0.2c0.6-0.1,1.4-0.3,2.4-0.5
											c2-0.4,4.8-1,8-1.6c3.1-0.6,5.9-1.1,8-1.5c1-0.2,1.8-0.3,2.4-0.4C458.1,176.9,458.5,176.9,458.5,176.9z"/>
									</g>
								</g>
							</g>
						</g>
						<g>
							<g>
								<path class="st2" d="M435.3,164.6c0,0,0,0,0.1-0.1c0.1-0.1,0.3-0.1,0.4-0.2c0.4-0.2,1-0.4,1.7-0.7c1.5-0.5,3.9-1,6.8-0.6
									c1.4,0.2,3,0.6,4.5,1.3c0.8,0.4,1.5,0.9,2.1,1.6c0.6,0.7,0.9,1.8,0.6,2.7c-0.2,1-1,1.8-1.7,2.4c-0.8,0.6-1.7,1.1-2.6,1.6
									c-1.9,0.9-3.9,1.7-6.1,2.1c-2.2,0.4-4.4,0.4-6.4-0.1c-1-0.3-2-0.6-2.8-1.2c-0.8-0.6-1.6-1.3-1.9-2.3c-0.3-0.9-0.2-2,0.3-2.8
									c0.5-0.8,1.1-1.4,1.8-1.9c1.4-1,2.8-1.7,4.1-2.3c2.7-1,5.1-1.2,6.7-1.2c0.8,0,1.4,0.1,1.8,0.1c0.2,0,0.3,0.1,0.5,0.1
									c0.1,0,0.2,0,0.2,0s-0.1,0-0.2,0c-0.1,0-0.3,0-0.5,0c-0.4,0-1-0.1-1.8-0.1c-1.6,0-3.9,0.2-6.6,1.3c-1.3,0.5-2.7,1.3-4.1,2.3
									c-0.7,0.5-1.3,1.1-1.7,1.9c-0.4,0.7-0.6,1.7-0.3,2.5c0.3,0.9,1,1.5,1.8,2.1c0.8,0.5,1.8,0.9,2.7,1.1c2,0.5,4.1,0.5,6.3,0.1
									c2.1-0.4,4.1-1.2,6-2c0.9-0.5,1.8-0.9,2.6-1.5c0.8-0.6,1.4-1.3,1.6-2.2c0.2-0.9,0-1.8-0.6-2.5c-0.5-0.7-1.2-1.2-2-1.6
									c-1.5-0.7-3-1.1-4.4-1.3c-2.8-0.4-5.2,0.1-6.7,0.5c-0.8,0.2-1.3,0.5-1.7,0.6c-0.2,0.1-0.3,0.1-0.4,0.2
									C435.3,164.6,435.3,164.6,435.3,164.6z"/>
							</g>
						</g>
						<g>
							<g>
								<path class="st2" d="M450.5,164.2c-0.1-0.1,1.6-1.6,3.8-3.3c2.2-1.7,3.9-3.1,4-3c0.1,0.1-1.6,1.6-3.8,3.3
									C452.4,162.9,450.6,164.3,450.5,164.2z"/>
							</g>
						</g>
						<g>
							<g>
								<path class="st2" d="M455.3,163.6c0,0.1-2,0.6-4.4,1.1c-0.2,0-0.4,0.1-0.5,0.1l-0.3,0.1l0.1-0.3c0.5-2.2,1.5-3.7,1.6-3.7
									c0.1,0-0.7,1.6-1.2,3.8l-0.2-0.2c0.2,0,0.4-0.1,0.5-0.1C453.3,163.8,455.3,163.5,455.3,163.6z"/>
							</g>
						</g>
						<g>
							<g>
								<path class="st2" d="M447.4,166.8c0,0.1-3.1,0.7-7,1.3c-3.9,0.6-7,1-7.1,0.9c0-0.1,3.1-0.7,7-1.3
									C444.2,167.1,447.4,166.7,447.4,166.8z"/>
							</g>
						</g>
					</g>
				</g>
				<g>
					<path class="st2" d="M431.4,161.1c0.3,1.8-0.8,3.5-2.6,3.8c-1.8,0.3-3.5-0.8-3.8-2.6c-0.3-1.8,0.8-3.5,2.6-3.8
						C429.4,158.2,431.1,159.4,431.4,161.1z"/>
					<path class="st7" d="M428.2,165c-0.7,0-1.3-0.2-1.8-0.6c-0.7-0.5-1.2-1.2-1.4-2.1c-0.2-0.9,0-1.7,0.5-2.5
						c0.5-0.7,1.2-1.2,2.1-1.4c0.2,0,0.4-0.1,0.6-0.1c1.5,0,2.9,1.1,3.2,2.7l0,0c0.3,1.8-0.8,3.5-2.6,3.8
						C428.6,165,428.4,165,428.2,165z M428.2,158.5c-0.2,0-0.4,0-0.6,0.1c-0.9,0.2-1.6,0.6-2.1,1.4c-0.5,0.7-0.7,1.6-0.5,2.4
						c0.2,0.9,0.6,1.6,1.4,2.1c0.7,0.5,1.6,0.7,2.4,0.5c1.8-0.3,2.9-2,2.6-3.8l0,0C431.1,159.6,429.7,158.5,428.2,158.5z"/>
				</g>
			</g>
		</g>
		<g>
			<g>
				<polygon class="st8" points="286.8,283.4 285.2,289.8 296.2,291.1 296.6,284.7 				"/>
				<g>
					<path class="st7" d="M291.7,283.7c0.1,0-0.1,1.3-0.4,3c-0.3,1.6-0.6,2.9-0.7,2.9s0.1-1.3,0.4-3
						C291.3,285,291.7,283.7,291.7,283.7z"/>
				</g>
				<g>
					<path class="st7" d="M296.2,290.4c0,0-0.6,0-1.6-0.2c-1.1-0.2-2.4-0.4-3.8-0.6c-1.5-0.2-2.8-0.5-3.8-0.7
						c-1-0.2-1.6-0.4-1.6-0.4c0,0,0.6,0,1.6,0.2c1.1,0.2,2.4,0.4,3.8,0.6c1.5,0.2,2.8,0.5,3.8,0.7
						C295.7,290.2,296.2,290.3,296.2,290.4z"/>
				</g>
			</g>
			<g>
				<g>
					<g>
						<g>
							<g>
								<path class="st8" d="M337.1,287.7l-0.1-4h-11.9l0.1,7.2l0.7,0c3.3,0.1,16.8,0.3,19-0.4C347.3,289.7,337.1,287.7,337.1,287.7
									z"/>
							</g>
						</g>
					</g>
					<g>
						<g>
							<g>
								<path class="st7" d="M325,290.6c0,0,0.1,0,0.2,0c0.2,0,0.4,0,0.6,0c0.6,0,1.3,0,2.2,0c1.8,0,4.4,0,7.2,0
									c2.8-0.1,5.3-0.2,7.2-0.3c0.9-0.1,1.6-0.1,2.2-0.1c0.2,0,0.4,0,0.6,0c0.1,0,0.2,0,0.2,0c0,0-0.1,0-0.2,0c-0.2,0-0.4,0-0.6,0
									c-0.6,0-1.3,0.1-2.2,0.1c-1.8,0.1-4.4,0.2-7.2,0.2c-2.8,0.1-5.3,0.1-7.2,0.1c-0.9,0-1.6,0-2.2,0c-0.2,0-0.4,0-0.6,0
									C325.1,290.6,325,290.6,325,290.6z"/>
							</g>
						</g>
					</g>
					<g>
						<g>
							<g>
								<path class="st7" d="M341.1,290.6c0,0,0.1-0.5,0.4-1c0.3-0.5,0.7-0.8,0.7-0.8c0,0-0.5,0.2-0.8,0.8
									C341,290.1,341.1,290.6,341.1,290.6z"/>
							</g>
						</g>
					</g>
					<g>
						<g>
							<g>
								<path class="st7" d="M337.5,288.9c0,0,0.2-0.2,0.4-0.5c0.2-0.3,0.3-0.5,0.2-0.5c0,0-0.2,0.2-0.4,0.5
									C337.6,288.6,337.5,288.9,337.5,288.9z"/>
							</g>
						</g>
					</g>
					<g>
						<g>
							<g>
								<path class="st7" d="M336.6,288.4c0,0,0.2-0.1,0.4-0.3c0.2-0.2,0.3-0.4,0.3-0.4c0,0-0.2,0.1-0.4,0.3
									C336.7,288.2,336.5,288.4,336.6,288.4z"/>
							</g>
						</g>
					</g>
					<g>
						<g>
							<g>
								<path class="st7" d="M335.9,287.3c0,0,0.3,0.1,0.6,0.1c0.3,0,0.6,0,0.6-0.1c0,0-0.3-0.1-0.6-0.1
									C336.2,287.2,335.9,287.3,335.9,287.3z"/>
							</g>
						</g>
					</g>
					<g>
						<g>
							<g>
								<path class="st7" d="M335.7,286.5c0,0,0.3,0.2,0.7,0.2c0.4,0,0.7-0.1,0.7-0.1c0,0-0.3,0-0.7,0
									C336,286.5,335.7,286.5,335.7,286.5z"/>
							</g>
						</g>
					</g>
					<g>
						<g>
							<g>
								<path class="st7" d="M337.9,287.9c0,0,0.3,0,0.8,0c0.2,0,0.5-0.1,0.8-0.2c0.1-0.1,0.3-0.1,0.5-0.2c0.1-0.1,0.2-0.1,0.2-0.2
									c0-0.1,0-0.2-0.1-0.3c-0.7-0.4-1.5,0.1-1.7,0.5c-0.1,0.2-0.2,0.4-0.2,0.5c0,0.1,0,0.2,0,0.2c0,0,0-0.3,0.3-0.7
									c0.1-0.2,0.4-0.3,0.6-0.4c0.3-0.1,0.7-0.1,0.9,0c0.1,0.1,0.1,0.2-0.1,0.3c-0.1,0.1-0.3,0.1-0.4,0.2
									c-0.3,0.1-0.6,0.2-0.8,0.2C338.2,287.8,337.9,287.8,337.9,287.9z"/>
							</g>
						</g>
					</g>
					<g>
						<g>
							<g>
								<path class="st7" d="M338.1,287.9c0,0,0.1-0.2,0.1-0.5c0-0.2-0.1-0.4-0.2-0.6c-0.1-0.2-0.3-0.4-0.6-0.4
									c-0.2,0-0.3,0.2-0.2,0.4c0,0.1,0.1,0.2,0.1,0.3c0.1,0.2,0.3,0.3,0.4,0.5C337.9,287.8,338,287.9,338.1,287.9
									c-0.1,0-0.2-0.1-0.4-0.4c-0.1-0.1-0.2-0.3-0.3-0.5c-0.1-0.2-0.2-0.4,0-0.5c0.2,0,0.4,0.2,0.5,0.3c0.1,0.2,0.2,0.3,0.2,0.5
									C338.2,287.7,338.1,287.9,338.1,287.9z"/>
							</g>
						</g>
					</g>
					<g>
						<g>
							<g>
								<path class="st7" d="M325.2,287.4c0,0,0.3,0,0.9,0c0.5,0,1.3,0.3,1.9,0.8c0.7,0.5,1.1,1.2,1.2,1.7c0.2,0.5,0.2,0.9,0.2,0.8
									c0,0,0-0.1,0-0.2c0-0.2-0.1-0.4-0.1-0.6c-0.2-0.5-0.6-1.2-1.2-1.8c-0.7-0.5-1.5-0.7-2-0.7c-0.3,0-0.5,0-0.7,0
									C325.2,287.3,325.2,287.4,325.2,287.4z"/>
							</g>
						</g>
					</g>
					<g>
						<g>
							<g>
								<path class="st7" d="M331,289.5c0,0,0.8,0.1,1.7,0.1c1,0,1.7-0.1,1.7-0.2c0,0-0.8,0-1.7,0C331.8,289.5,331,289.5,331,289.5z
									"/>
							</g>
						</g>
					</g>
					<g>
						<g>
							<g>
								<path class="st7" d="M328.6,289.6c0,0,0.1,0.2,0.2,0.3c0.1,0.2,0.1,0.3,0.2,0.3c0,0,0.1-0.2,0-0.4
									C328.8,289.6,328.7,289.5,328.6,289.6z"/>
							</g>
						</g>
					</g>
					<g>
						<g>
							<g>
								<path class="st7" d="M327.7,288.5c0,0,0.1,0.2,0.2,0.3c0.1,0.1,0.3,0.2,0.3,0.2c0,0-0.1-0.2-0.2-0.3
									C327.9,288.5,327.8,288.5,327.7,288.5z"/>
							</g>
						</g>
					</g>
					<g>
						<g>
							<g>
								<path class="st7" d="M326.5,288c0,0,0.2,0,0.3,0.1c0.2,0.1,0.3,0.1,0.3,0.1c0,0-0.1-0.2-0.3-0.3
									C326.6,287.9,326.4,288,326.5,288z"/>
							</g>
						</g>
					</g>
					<g>
						<g>
							<g>
								<path class="st7" d="M325.5,287.8c0,0,0.1,0.1,0.2,0.1c0.1,0,0.2,0,0.2,0c0,0-0.1-0.1-0.2-0.1
									C325.7,287.8,325.6,287.8,325.5,287.8z"/>
							</g>
						</g>
					</g>
				</g>
			</g>
			<path class="st9" d="M380.8,132.1l-3.4,1.6l-3.1-4.9l1.8-3.8c0.2-0.4,0.4-0.7,0.6-1.2c0.2-0.5,0.4-1.1,0.4-1.7
				c0.1-0.7,0.1-1.6-0.1-2.1c-0.2-0.6,0.5-1.1,1-0.8c0.5,0.4,1,2.1,0.6,4.2c-0.3,2.1,2.1-0.1,3-0.9c0.9-0.8,3.8-3.1,4.2-3
				c0.7,0.1,0.6,0.9-0.3,1.7c-0.9,0.8-3.5,3.3-3.1,3.7c0,0,0,0,0,0c1.1,0.1,2,0.9,2.2,2c0.2,1,0.4,2.4-0.2,2.9
				C383.5,130.7,380.8,132.1,380.8,132.1z"/>
			<g>
				<g>
					<g>
						<path class="st9" d="M315,86.4l-0.1,29.5l12.6,0.6l0.4-7.2c0,0,4.5,0.9,5.7-3.3c0.7-2.7,0.6-23.3,0.6-23.3L315,86.4z"/>
					</g>
					<g>
						<path class="st7" d="M337,85.7c-0.9,1.8-4.9,5-4.9,5l-1.8,4.9c-1.6-1.2-3.7-1.2-4.1,1.6c-0.3,2,2.2,2.4,2.2,2.4
							c-1.5,2.5-2.5,4.5-4.6,6.9c-2.3,2.6-3.6,2.8-6.1,2.9h-2.8c0,0-5.6-4.7-4.5-17.1c1.1-12.4,12.3-8.8,14.9-11.9
							C329.7,75.3,339.8,79.8,337,85.7z"/>
					</g>
				</g>
				<g>
					<g>
						<path class="st8" d="M311,102.6c0,0,0.1,0,0.4,0c0.2,0,0.6,0,1-0.1c0.9-0.2,2.1-0.7,3.2-1.7c1.2-1,2.2-2.6,3.3-4.4
							c1.1-1.8,2.2-3.8,4.3-5.2c1-0.7,2.1-1.1,3.2-1.4c1.1-0.3,2.2-0.5,3.2-0.7c2-0.4,3.9-0.9,5.1-1.9c1.2-1,1.9-2.1,2.1-3
							c0.2-0.9,0.1-1.4,0.1-1.3c0,0,0,0.1,0,0.4c0,0.2,0,0.6-0.1,1c-0.2,0.9-0.8,2.1-2.1,3c-1.3,1-3.1,1.6-5.1,2
							c-2,0.4-4.4,0.7-6.4,2c-2,1.4-3.2,3.4-4.2,5.2c-1.1,1.8-2.1,3.4-3.3,4.4c-1.2,1-2.4,1.5-3.3,1.7
							C311.5,102.7,311,102.6,311,102.6z"/>
					</g>
				</g>
				<g>
					<g>
						<path class="st8" d="M310.4,92.5c0,0,0.2-0.1,0.6-0.2c0.4-0.1,1-0.3,1.7-0.4c0.8-0.1,1.8-0.1,2.7,0.6c0.5,0.3,0.9,0.8,1,1.5
							c0.1,0.6,0,1.4-0.6,1.9c-0.3,0.2-0.6,0.4-1,0.4c-0.4,0-0.8-0.1-1.1-0.3c-0.7-0.4-1.2-1-1.5-1.8c-0.5-1.5-0.2-3.6,1.3-4.8
							c0.7-0.6,1.6-1,2.6-1.1c1-0.1,2,0.1,2.9,0.4c1,0.3,1.9,0.6,2.9,0.7c1,0.1,2.1,0.1,3.1,0c1-0.1,2.1-0.4,3-0.8
							c0.9-0.4,1.7-1.1,2-2.1c0.3-0.9,0-2-0.7-2.6c-0.7-0.7-1.7-0.7-2.5-0.4c-0.4,0.2-0.7,0.5-0.9,0.9c-0.2,0.4-0.3,0.8-0.2,1.2
							c0.1,0.8,0.6,1.6,1.3,2c0.7,0.4,1.5,0.6,2.2,0.6c0.7,0,1.5-0.1,2.1-0.3c1.3-0.4,2.4-1.1,3.1-1.9c0.8-0.8,1.3-1.6,1.6-2.3
							c0.3-0.7,0.5-1.3,0.6-1.7c0.1-0.4,0.1-0.6,0.1-0.6s0,0.2-0.1,0.6c-0.1,0.4-0.2,1-0.6,1.7c-0.3,0.7-0.8,1.5-1.6,2.3
							c-0.8,0.8-1.8,1.5-3.2,1.9c-0.7,0.2-1.4,0.3-2.2,0.3c-0.8,0-1.6-0.2-2.3-0.6c-0.7-0.4-1.2-1.2-1.3-2.1c-0.1-0.4,0-0.9,0.2-1.3
							c0.2-0.4,0.6-0.7,1-0.9c0.8-0.4,2-0.3,2.7,0.4c0.7,0.7,1,1.8,0.7,2.8c-0.3,1-1.1,1.7-2.1,2.2c-0.9,0.4-2,0.7-3,0.8
							c-1.1,0.1-2.1,0.1-3.1,0c-1-0.1-2-0.4-3-0.7c-1-0.3-1.9-0.5-2.9-0.4c-0.9,0.1-1.8,0.5-2.5,1.1c-1.4,1.2-1.7,3.2-1.2,4.7
							c0.2,0.8,0.8,1.4,1.4,1.8c0.3,0.2,0.7,0.3,1,0.3c0.3,0,0.7-0.1,0.9-0.4c0.5-0.5,0.6-1.2,0.5-1.8c-0.1-0.6-0.5-1.1-0.9-1.4
							c-0.9-0.6-1.9-0.7-2.7-0.6c-0.8,0.1-1.3,0.3-1.7,0.4C310.6,92.4,310.4,92.5,310.4,92.5z"/>
					</g>
				</g>
			</g>
			<g>
				<g>
					<polygon class="st10" points="302,172.8 285.2,283.4 299.2,285.1 318.9,192.4 323.9,285.8 339,285.5 336.4,169.9 					"/>
					<path class="st7" d="M323.5,286.1l0-0.3l-4.8-90.7l-19.2,90.5l-14.7-1.9l16.9-111.2l0.3,0l34.8-2.9l0,0.4l2.6,115.9
						L323.5,286.1z M319.1,189.7l5.1,95.7l14.5-0.3l-2.6-114.8l-33.8,2.8l-16.7,110l13.3,1.7L319.1,189.7z"/>
				</g>
				<g>
					<g>
						<path class="st8" d="M334.5,285.3c-0.1,0-0.2-22.2-0.2-49.5c0-27.3,0.1-49.5,0.2-49.5c0.1,0,0.2,22.2,0.2,49.5
							C334.7,263.2,334.6,285.3,334.5,285.3z"/>
					</g>
				</g>
				<g>
					<g>
						<path class="st8" d="M296.1,284.9c0,0,0-0.1,0-0.2c0-0.2,0.1-0.4,0.1-0.7c0.1-0.6,0.3-1.5,0.5-2.7c0.5-2.4,1.1-5.7,2-9.9
							c1.7-8.3,4.1-19.8,6.9-32.5c2.8-12.7,5.4-24.1,7.3-32.4c1-4.1,1.8-7.5,2.3-9.8c0.3-1.1,0.5-2,0.7-2.7c0.1-0.3,0.1-0.5,0.2-0.7
							c0-0.2,0.1-0.2,0.1-0.2c0,0,0,0.1,0,0.2c0,0.2-0.1,0.4-0.1,0.7c-0.1,0.6-0.3,1.5-0.6,2.7c-0.5,2.3-1.3,5.7-2.2,9.8
							c-1.9,8.3-4.4,19.8-7.2,32.4c-2.8,12.7-5.2,24.2-7,32.5c-0.9,4.1-1.6,7.5-2.1,9.8c-0.2,1.1-0.4,2-0.6,2.7
							c-0.1,0.3-0.1,0.5-0.2,0.7C296.1,284.8,296.1,284.9,296.1,284.9z"/>
					</g>
				</g>
				<g>
					<g>
						<path class="st8" d="M323.9,192.3c0,0.1-0.9,0.1-2.4,0.2c-1.5,0.1-3.5,0.2-5.8,0.4c-2.2,0.2-4.3,0.5-5.7,0.7
							c-1.5,0.2-2.4,0.3-2.4,0.2c0,0,0.9-0.2,2.3-0.5c1.5-0.3,3.5-0.6,5.7-0.8c2.3-0.2,4.3-0.3,5.8-0.3
							C322.9,192.2,323.9,192.2,323.9,192.3z"/>
					</g>
				</g>
				<g>
					<g>
						<path class="st8" d="M336.8,185.1c0,0-0.6,0.2-1.7,0.2c-1,0-2.5-0.4-3.8-1.3c-1.3-0.9-2.1-2.2-2.5-3.2c-0.4-1-0.4-1.6-0.3-1.6
							c0.1,0,0.2,0.6,0.6,1.5c0.4,0.9,1.2,2.1,2.4,3c1.2,0.9,2.6,1.3,3.6,1.4C336.2,185.1,336.8,185,336.8,185.1z"/>
					</g>
				</g>
			</g>
			<g>
				<g>
					<g>
						<g>
							<path class="st11" d="M300.3,179h36.8l-1.4-29.8c-0.2-5.9-0.2-6.5-0.3-11.9c0,0,5.5,6.6,9.8,11.3c2.6,2.8,6.8,3.6,10.2,2
								l22.6-15.8l-4.2-10.8l-20.6,12.6c-0.9-0.6-9-12-14.5-17.6c-3.5-3.6-8.3-5.6-13.3-5.8c-3.8-0.1-8.4,0.1-12.5,0.5
								c-6.2,0.7-11.1,5.7-11.6,11.9c-0.4,4.8-0.1,10.3-0.1,19.8L300.3,179z"/>
						</g>
					</g>
					<g>
						<path class="st11" d="M306.3,116.4c-3.5,1.5-18,20.1-19,32.2c-0.8,9,16.7,8,16.7,8s1.2-36.9,0.7-36.4"/>
					</g>
					<g>
						<g>
							<path class="st7" d="M302.7,119.6c0,0,0,0.1,0,0.4c0,0.3-0.1,0.7-0.1,1.1c-0.1,1-0.2,2.3-0.3,4.1c-0.2,3.4-0.4,8.2-0.5,13.4
								c-0.2,5.3-0.3,10-0.5,13.4c-0.1,1.7-0.2,3.1-0.2,4.1c0,0.4-0.1,0.8-0.1,1.1c0,0.3,0,0.4,0,0.4s0-0.1,0-0.4
								c0-0.3,0-0.7,0.1-1.1c0-1,0.1-2.4,0.2-4.1c0.1-3.4,0.3-8.2,0.4-13.4c0.2-5.2,0.3-10,0.6-13.4c0.1-1.7,0.2-3.1,0.3-4.1
								c0-0.4,0.1-0.8,0.1-1.1C302.7,119.7,302.7,119.6,302.7,119.6z"/>
						</g>
					</g>
					<g>
						<g>
							<path class="st7" d="M301.3,143.2c0,0-0.2,0.3-0.5,0.7c-0.3,0.4-0.8,1-1.3,1.6c-0.5,0.6-1,1.1-1.4,1.5
								c-0.4,0.4-0.6,0.6-0.6,0.6c0,0,0.2-0.3,0.6-0.6c0.4-0.4,0.9-0.9,1.4-1.5c0.5-0.6,1-1.1,1.4-1.5
								C301.1,143.5,301.3,143.2,301.3,143.2z"/>
						</g>
					</g>
					<g>
						<g>
							<path class="st7" d="M352.4,140.2c0,0,0.1-0.8,0.3-1.8c0.2-1,0.5-1.8,0.5-1.8c0,0-0.1,0.8-0.3,1.8
								C352.7,139.4,352.5,140.2,352.4,140.2z"/>
						</g>
					</g>
					<g>
						<g>
							<path class="st7" d="M354.5,140.5c0,0-0.3-0.9-0.5-2c-0.3-1.1-0.4-2.1-0.4-2.1c0,0,0.3,0.9,0.5,2
								C354.4,139.6,354.5,140.5,354.5,140.5z"/>
						</g>
					</g>
					<g>
						<g>
							<path class="st7" d="M336.4,138.3c0,0-0.1-0.1-0.2-0.2c-0.2-0.2-0.4-0.3-0.6-0.6c-0.5-0.5-1.2-1.2-2.1-2.2
								c-1.7-1.9-4.2-4.6-5.5-8.3c-0.7-1.8-1-3.7-0.9-5.4c0.1-1.7,0.4-3.2,1-4.4c0.6-1.2,1.3-1.9,1.9-2.3c0.3-0.2,0.5-0.4,0.7-0.5
								c0.2-0.1,0.3-0.1,0.3-0.1c0,0-0.3,0.2-0.9,0.6c-0.6,0.4-1.3,1.2-1.9,2.3c-0.6,1.1-0.9,2.7-0.9,4.3c-0.1,1.7,0.2,3.5,0.9,5.4
								c1.4,3.7,3.8,6.4,5.5,8.3c0.9,0.9,1.6,1.7,2.1,2.2c0.2,0.2,0.4,0.4,0.6,0.6C336.3,138.2,336.4,138.3,336.4,138.3z"/>
						</g>
					</g>
				</g>
				<g>
					<g>
						<path class="st0" d="M311.2,127.7c-0.1,0.1-0.7-0.6-1.4-1.4c-0.7-0.8-1.1-1.6-1.1-1.6c0.1-0.1,0.7,0.6,1.4,1.4
							C310.8,126.9,311.3,127.7,311.2,127.7z"/>
					</g>
				</g>
				<g>
					<g>
						<path class="st0" d="M320,137.7c0.1,0.1-0.7,1-1.8,2.1c-1.1,1.1-2,1.9-2.1,1.8s0.7-1,1.8-2.1C319,138.5,319.9,137.7,320,137.7
							z"/>
					</g>
				</g>
				<g>
					<g>
						<path class="st0" d="M328.5,152.1c-0.1,0-0.4-0.8-1-1.8c-0.6-1-1.2-1.7-1.1-1.8c0.1-0.1,0.8,0.6,1.4,1.6
							C328.4,151.1,328.6,152,328.5,152.1z"/>
					</g>
				</g>
				<g>
					<g>
						<path class="st0" d="M306.4,150.4c-0.1,0-0.7-1.2-0.9-2.8c-0.3-1.6-0.2-3-0.1-3c0.1,0,0.2,1.3,0.4,2.9
							C306.1,149.1,306.5,150.4,306.4,150.4z"/>
					</g>
				</g>
				<g>
					<g>
						<path class="st0" d="M318.2,156.8c-0.1,0-0.6-1-0.7-2.4c-0.1-1.4,0.2-2.5,0.2-2.5c0.1,0,0,1.1,0.1,2.4
							C318,155.7,318.3,156.7,318.2,156.8z"/>
					</g>
				</g>
				<g>
					<g>
						<path class="st0" d="M313.5,165.9c-0.1,0.1-1.3-0.6-2.7-1.5c-1.4-0.9-2.5-1.7-2.5-1.8c0.1-0.1,1.3,0.6,2.7,1.5
							C312.5,165.1,313.6,165.8,313.5,165.9z"/>
					</g>
				</g>
				<g>
					<g>
						<path class="st0" d="M331.8,163.2c0,0.1-1.3,0.8-2.8,1.7c-1.5,1-2.7,1.8-2.8,1.8c-0.1-0.1,1-1.1,2.6-2.1
							C330.3,163.7,331.7,163.1,331.8,163.2z"/>
					</g>
				</g>
				<g>
					<g>
						<path class="st0" d="M308.8,173.6c0,0.1-1.3-0.1-2.9-0.4c-1.6-0.3-2.8-0.6-2.8-0.7c0-0.1,1.3,0.1,2.9,0.4
							C307.6,173.2,308.8,173.5,308.8,173.6z"/>
					</g>
				</g>
				<g>
					<g>
						<path class="st0" d="M322.2,175.5c-0.1,0.1-0.8-0.7-1.4-1.8c-0.6-1.1-0.8-2.1-0.7-2.1c0.1,0,0.5,0.9,1,1.9
							C321.7,174.6,322.3,175.4,322.2,175.5z"/>
					</g>
				</g>
				<g>
					<g>
						<path class="st0" d="M334.8,172.6c0.1,0.1-0.3,0.7-0.9,1.3c-0.5,0.7-1.1,1.1-1.1,1.1c-0.1-0.1,0.3-0.7,0.9-1.3
							C334.2,173,334.7,172.5,334.8,172.6z"/>
					</g>
				</g>
				<g>
					<g>
						<path class="st0" d="M309.6,133.7c0.1,0.1-0.4,0.5-1.1,1c-0.7,0.4-1.3,0.7-1.3,0.7c-0.1-0.1,0.4-0.5,1.1-1
							C309,133.9,309.6,133.6,309.6,133.7z"/>
					</g>
				</g>
				<g>
					<g>
						<path class="st0" d="M319.2,123c-0.1,0-0.6-1.3-1.1-2.9c-0.4-1.6-0.6-3-0.5-3c0.1,0,0.5,1.3,0.9,2.9
							C318.9,121.6,319.3,123,319.2,123z"/>
					</g>
				</g>
				<g>
					<g>
						<path class="st0" d="M328.3,132.7c0,0.1-0.9-0.2-1.9-0.4c-1.1-0.2-1.9-0.2-1.9-0.3c0-0.1,0.9-0.2,2,0
							C327.6,132.2,328.4,132.6,328.3,132.7z"/>
					</g>
				</g>
				<g>
					<g>
						<path class="st0" d="M334.7,124.5c0,0.1-1,0.3-2.2,0.1c-1.2-0.2-2.1-0.7-2-0.8c0-0.1,0.9,0.2,2.1,0.4
							C333.7,124.4,334.6,124.4,334.7,124.5z"/>
					</g>
				</g>
				<g>
					<g>
						<path class="st0" d="M341.1,133.7c-0.1,0-0.2-1.4,0.1-3.1c0.3-1.7,0.8-3,0.9-3c0.1,0-0.2,1.4-0.5,3.1
							C341.3,132.3,341.2,133.7,341.1,133.7z"/>
					</g>
				</g>
				<g>
					<g>
						<path class="st0" d="M348.7,144.5c-0.1,0.1-1-0.8-2-1.8c-1.1-1.1-1.8-2-1.8-2.1c0.1-0.1,1,0.8,2,1.8
							C348,143.5,348.7,144.4,348.7,144.5z"/>
					</g>
				</g>
				<g>
					<g>
						<path class="st0" d="M355,143.7c0.1,0.1-0.4,0.9-1,1.9c-0.6,1-1.2,1.7-1.3,1.7c-0.1-0.1,0.4-0.9,1-1.9
							C354.3,144.4,354.9,143.6,355,143.7z"/>
					</g>
				</g>
				<g>
					<g>
						<path class="st0" d="M362.3,140.1c-0.1,0-0.7-0.9-1.3-2.2c-0.6-1.2-1-2.3-0.9-2.3c0.1,0,0.7,0.9,1.3,2.2
							C362,139,362.4,140.1,362.3,140.1z"/>
					</g>
				</g>
				<g>
					<g>
						<path class="st0" d="M372.3,136c0,0.1-1.2,0-2.6-0.3c-1.4-0.3-2.6-0.5-2.5-0.6c0-0.1,1.2,0,2.6,0.3
							C371.1,135.6,372.3,135.9,372.3,136z"/>
					</g>
				</g>
				<g>
					<g>
						<path class="st0" d="M293.2,146.6c-0.1,0,0.4-1.2,1-2.6c0.7-1.4,1.3-2.5,1.4-2.4c0.1,0-0.4,1.2-1,2.6
							C293.9,145.5,293.3,146.6,293.2,146.6z"/>
					</g>
				</g>
				<g>
					<g>
						<path class="st0" d="M298.4,137.3c-0.1,0.1-0.9-0.7-1.7-1.7c-0.9-1-1.5-1.8-1.5-1.9c0.1-0.1,0.9,0.7,1.7,1.7
							C297.9,136.3,298.5,137.2,298.4,137.3z"/>
					</g>
				</g>
				<g>
					<g>
						<path class="st0" d="M298,152.2c0.1,0.1-0.3,0.5-0.9,0.9c-0.5,0.4-1,0.7-1.1,0.7c-0.1-0.1,0.3-0.5,0.9-0.9
							C297.4,152.4,297.9,152.1,298,152.2z"/>
					</g>
				</g>
				<g>
					<g>
						<path class="st0" d="M299.8,127.4c0.1,0.1-0.1,0.5-0.5,0.9c-0.4,0.4-0.7,0.8-0.8,0.7c-0.1-0.1,0.1-0.5,0.5-0.9
							C299.3,127.6,299.7,127.3,299.8,127.4z"/>
					</g>
				</g>
				<g class="st3">
					<g>
						<path d="M329.4,129.9c2.4,7.5,4.2,15.4,6.6,22.9l-0.6-15.6C333.2,135.2,331.2,132.8,329.4,129.9z"/>
					</g>
				</g>
				<g class="st3">
					<g>
						<path d="M300.9,156.7c-1.8-8.3-1.6-17,1.4-24.9L300.9,156.7z"/>
					</g>
				</g>
			</g>
		</g>
		<g>
			<g>
				<path class="st7" d="M647.2,89.2c2.3-1.6,5.6-1.7,8-0.2c2.4,1.5,3.9,4.4,3.5,7.2c-0.2,1.5-0.8,3-0.4,4.4c0.7,2.7,4.5,3.7,5,6.5
					c0.2,1.1-0.2,2.2-0.5,3.2c-0.3,1.1-0.5,2.2,0.1,3.2c0.4,0.7,1.1,1.1,1.7,1.7c1.8,1.8,1.8,5.1,0.3,7.2c-1.5,2.1-4.3,3.1-6.9,3
					c-2.6-0.1-5.1-1.1-7.3-2.5"/>
			</g>
			<g>
				<path class="st7" d="M649,91c-0.7-2.5-3-4.4-5.6-5c-2.5-0.6-5.7-1.4-8-0.3c-1.5,0.7-2.9,1.8-3.4,3.3c-0.7,1.8,0.4,5.2,0.9,7.1
					c0.5,1.9,0.9,4-0.1,5.6c-1,1.6-3,2.2-4.3,3.6c-1.8,1.9-1.5,5.3,0.5,7c-2.2-0.1-4.1,2.2-4.1,4.4c0.1,2.3,1.7,4.2,3.7,5.2
					c2,1,4.3,1.2,6.6,1.2c2.8,0,5.6-0.3,8.3-0.9c2.3-0.5,4.6-1.2,6.1-3c1.3-1.6,1.7-3.9,1.7-6c0-7.5-3.9-14.9-2.2-22.2"/>
			</g>
			<g>
				<g>
					<g>
						<path class="st12" d="M637.7,170.9c0,0-14.6,47.5-13.7,62.8c0.9,15.3,12.1,53.5,12.1,53.5L637.7,170.9z"/>
					</g>
				</g>
				<g>
					<g>
						<path class="st13" d="M658.4,162.8c0.3-0.1,6.7,9.3,7,17.4c0,0.8,0,1.6-0.1,2.4c-0.3,2.8-1,5.6-2,8.3
							c-5.4,13.7-11,30-11.1,33.7c-0.3,11.4-5.2,62.6-5.2,62.6l-10.8,0.3l-3.2-62.6l5.4-62.6L658.4,162.8z"/>
					</g>
				</g>
			</g>
			<g>
				<g>
					<path class="st13" d="M575,129.6c1.1-1.2,6.1,3.2,6.6,3.6c0.4,0.3,1-0.3,0.5-0.6c-0.6-0.4-6.9-4.8-5.9-6
						c0.6-0.6,1.6,0.5,1.6,0.5s5.6,4.6,6.1,4c0.5-0.6-2.7-3.4-3.9-4.2c-1.1-0.9-1.2-1.7-0.4-1.9c0.5-0.1,4.1,2.5,5.2,3.3
						c1.1,0.9,4.1,3.4,3.6,0.9c-0.5-2.4,0.1-4.5,0.6-4.9c0.5-0.5,1.4,0.1,1.2,0.9c-0.1,0.6-0.1,1.7,0,2.5c0.1,0.7,0.3,1.3,0.5,1.9
						c0.3,0.7,0.7,1.3,0.9,1.8c3.4,2,13.1,7.4,22.9,8.6c1.8,0.2,8.7-10.6,8.7-10.6l10.8,8.7c0,0,0.1,0.7-7.7,10.3
						c-10.5,13-41.2-9.2-41.2-9.2l0,0c-2.7-1.2-5.7-2.6-7.2-3.5c-3.1-1.9-3-2.2-2.7-2.6c0.8-0.9,5.7,3.2,5.1,1.7
						C580.2,133.3,574.2,130.5,575,129.6z"/>
				</g>
				<g>
					<g>
						<path class="st5" d="M566.5,121.9c0,0-1.8,16.2,0.5,25.1l21.6-0.9c0,0-4.6-16-1.8-23L566.5,121.9z"/>
					</g>
					<g>
						<g>
							<path class="st2" d="M566.6,121.4c0,0,0.1,17.5,1,22.8l21.9-1c0,0-1.9-17.2-1.2-21.8H566.6z"/>
						</g>
						<g>
							<g>
								<path class="st6" d="M585,128.7c0,0.1-3.3,0.4-7.3,0.6c-4.1,0.2-7.4,0.4-7.4,0.3c0-0.1,3.3-0.4,7.3-0.6
									C581.7,128.7,585,128.6,585,128.7z"/>
							</g>
						</g>
						<g>
							<g>
								<path class="st6" d="M585,132.4c0,0.1-3.3,0.4-7.3,0.6c-4.1,0.2-7.4,0.4-7.4,0.3c0-0.1,3.3-0.4,7.3-0.6
									C581.7,132.4,585,132.3,585,132.4z"/>
							</g>
						</g>
						<g>
							<g>
								<path class="st6" d="M581.3,136c0,0.1-1.9,0.3-4.2,0.4c-2.3,0.1-4.2,0.2-4.2,0.1c0-0.1,1.9-0.3,4.2-0.4
									C579.4,136,581.3,135.9,581.3,136z"/>
							</g>
						</g>
					</g>
				</g>
			</g>
			<g>
				<g>
					<path class="st8" d="M669.3,216.1c0,0,2.1-45.4-4.4-49.3c-6.5-4-36.7,2.4-36.7,2.4s-9.4,42.8-9,43.2
						C622.3,215.1,669.3,216.1,669.3,216.1z"/>
				</g>
				<g>
					<g>
						<path class="st7" d="M669.5,212.1c0,0.1-2.4,0.1-5.4-0.1c-3-0.2-5.4-0.4-5.4-0.5c0-0.1,2.4-0.1,5.4,0.1
							C667.1,211.8,669.5,212,669.5,212.1z"/>
					</g>
				</g>
				<g>
					<g>
						<path class="st7" d="M666.2,216.1c-0.1,0-0.1-0.8-0.1-1.9c0.1-1,0.2-1.8,0.3-1.8c0.1,0,0.1,0.8,0.1,1.9
							C666.4,215.3,666.3,216.1,666.2,216.1z"/>
					</g>
				</g>
				<g>
					<g>
						<path class="st7" d="M660.6,216.1c-0.1,0-0.3-0.9-0.3-2.1c-0.1-1.2-0.1-2.1,0-2.1c0.1,0,0.3,0.9,0.3,2.1
							C660.7,215.1,660.7,216.1,660.6,216.1z"/>
					</g>
				</g>
			</g>
			<g>
				<g>
					<g>
						<g>
							<g>
								<g>
									<path class="st2" d="M635.8,288.5l0-1.4l11.2-0.2l0,4.4l-0.7,0c-3.1,0.2-15.6,0.7-17.7,0
										C626.4,290.6,635.8,288.5,635.8,288.5z"/>
								</g>
							</g>
						</g>
						<g class="st14">
							<g>
								<g>
									<path class="st6" d="M643,291.3c0.2-0.9,0.7-1.8,1.4-2.4c0.7-0.6,1.7-0.9,2.6-0.8l0,3.1L643,291.3z"/>
								</g>
							</g>
						</g>
					</g>
					<g class="st14">
						<g>
							<g>
								<path class="st6" d="M631.2,289.7c0,0-3.3,1-2.9,1.5c0.4,0.5,13.1,0.5,18.7,0l0-0.2l-14.8,0.1
									C632.2,291.1,631.9,289.7,631.2,289.7z"/>
							</g>
						</g>
					</g>
					<g>
						<g>
							<g>
								<g>
									<path class="st7" d="M647.1,290.9c0,0-0.1,0-0.2,0c-0.2,0-0.3,0-0.5,0c-0.5,0-1.2,0.1-2,0.1c-1.7,0.1-4.1,0.1-6.7,0.1
										c-2.6,0-5,0-6.7-0.1c-0.8,0-1.5-0.1-2-0.1c-0.2,0-0.4,0-0.5,0c-0.1,0-0.2,0-0.2,0c0,0,0.1,0,0.2,0c0.2,0,0.3,0,0.6,0
										c0.5,0,1.2,0,2,0c1.7,0,4.1,0.1,6.7,0.1c2.6,0,5,0,6.7-0.1c0.8,0,1.5,0,2,0c0.2,0,0.4,0,0.6,0
										C647,290.8,647.1,290.9,647.1,290.9z"/>
								</g>
							</g>
						</g>
					</g>
					<g>
						<g>
							<g>
								<g>
									<path class="st7" d="M632.2,291.3c0,0-0.1-0.5-0.4-1c-0.3-0.5-0.7-0.7-0.7-0.8c0,0,0.5,0.2,0.8,0.7
										C632.3,290.8,632.2,291.3,632.2,291.3z"/>
								</g>
							</g>
						</g>
					</g>
					<g>
						<g>
							<g>
								<g>
									<path class="st7" d="M635.7,289.4c0,0-0.2-0.2-0.4-0.4c-0.2-0.3-0.3-0.5-0.2-0.5c0,0,0.2,0.2,0.4,0.4
										C635.6,289.1,635.7,289.4,635.7,289.4z"/>
								</g>
							</g>
						</g>
					</g>
					<g>
						<g>
							<g>
								<g>
									<path class="st7" d="M636.6,288.9c0,0-0.2-0.1-0.4-0.3c-0.2-0.2-0.3-0.3-0.3-0.4c0,0,0.2,0.1,0.4,0.3
										S636.6,288.9,636.6,288.9z"/>
								</g>
							</g>
						</g>
					</g>
					<g>
						<g>
							<g>
								<g>
									<path class="st7" d="M637.2,287.8c0,0-0.3,0.1-0.6,0.1c-0.3,0-0.6,0-0.6-0.1c0,0,0.3-0.1,0.6-0.1
										C636.9,287.8,637.2,287.8,637.2,287.8z"/>
								</g>
							</g>
						</g>
					</g>
					<g>
						<g>
							<g>
								<g>
									<path class="st7" d="M637.4,287.1c0,0-0.3,0.2-0.6,0.2c-0.4,0-0.7-0.1-0.7-0.1c0,0,0.3,0,0.7,0
										C637.1,287.1,637.4,287.1,637.4,287.1z"/>
								</g>
							</g>
						</g>
					</g>
					<g>
						<g>
							<g>
								<g>
									<path class="st7" d="M635.3,288.4c0,0-0.3,0-0.7,0c-0.2,0-0.5-0.1-0.8-0.2c-0.1,0-0.3-0.1-0.4-0.2c-0.1,0-0.1-0.1-0.2-0.2
										c0-0.1,0-0.2,0.1-0.3c0.7-0.4,1.4,0,1.6,0.4c0.1,0.2,0.2,0.4,0.2,0.5c0,0.1,0,0.2,0,0.2c0,0,0-0.3-0.3-0.6
										c-0.1-0.2-0.3-0.3-0.6-0.4c-0.3-0.1-0.6-0.1-0.9,0.1c-0.1,0.1-0.1,0.2,0.1,0.3c0.1,0.1,0.3,0.1,0.4,0.2
										c0.3,0.1,0.5,0.2,0.7,0.2C635.1,288.4,635.3,288.4,635.3,288.4z"/>
								</g>
							</g>
						</g>
					</g>
					<g>
						<g>
							<g>
								<g>
									<path class="st7" d="M635.1,288.4c0,0-0.1-0.2-0.1-0.5c0-0.2,0.1-0.3,0.2-0.5c0.1-0.2,0.3-0.4,0.6-0.4
										c0.2,0,0.2,0.2,0.2,0.3c0,0.1-0.1,0.2-0.1,0.3c-0.1,0.2-0.2,0.3-0.3,0.4C635.4,288.4,635.2,288.4,635.1,288.4
										c0,0,0.2-0.1,0.4-0.4c0.1-0.1,0.2-0.3,0.3-0.4c0.1-0.2,0.2-0.4,0-0.5c-0.2,0-0.4,0.2-0.5,0.3c-0.1,0.2-0.2,0.3-0.2,0.5
										C635.1,288.2,635.2,288.4,635.1,288.4z"/>
								</g>
							</g>
						</g>
					</g>
					<g>
						<g>
							<g>
								<g>
									<path class="st7" d="M647.2,288c0,0-0.3,0-0.8,0c-0.5,0.1-1.2,0.3-1.8,0.7c-0.6,0.5-1,1.1-1.1,1.6
										c-0.2,0.5-0.2,0.8-0.2,0.8c0,0,0-0.1,0-0.2c0-0.1,0-0.4,0.1-0.6c0.1-0.5,0.5-1.2,1.1-1.7c0.6-0.5,1.4-0.7,1.9-0.7
										c0.3,0,0.5,0,0.6,0C647.1,288,647.2,288,647.2,288z"/>
								</g>
							</g>
						</g>
					</g>
					<g>
						<g>
							<g>
								<g>
									<path class="st7" d="M641.8,289.8c0,0-0.7,0.2-1.6,0.2c-0.9,0-1.6-0.1-1.6-0.1c0,0,0.7,0,1.6,0
										C641.1,289.8,641.8,289.8,641.8,289.8z"/>
								</g>
							</g>
						</g>
					</g>
					<g>
						<g>
							<g>
								<g>
									<path class="st7" d="M644,289.8c0,0-0.1,0.2-0.1,0.3c-0.1,0.2-0.1,0.3-0.2,0.3c0,0-0.1-0.2,0-0.4
										C643.8,289.9,644,289.8,644,289.8z"/>
								</g>
							</g>
						</g>
					</g>
					<g>
						<g>
							<g>
								<g>
									<path class="st7" d="M644.8,288.8c0,0,0,0.1-0.2,0.3c-0.1,0.1-0.2,0.2-0.3,0.2c0,0,0-0.1,0.2-0.3
										C644.7,288.8,644.8,288.7,644.8,288.8z"/>
								</g>
							</g>
						</g>
					</g>
					<g>
						<g>
							<g>
								<g>
									<path class="st7" d="M646,288.3c0,0-0.2,0-0.3,0.1c-0.2,0.1-0.3,0.1-0.3,0.1c0,0,0.1-0.2,0.3-0.2
										C645.8,288.2,646,288.3,646,288.3z"/>
								</g>
							</g>
						</g>
					</g>
					<g>
						<g>
							<g>
								<g>
									<path class="st7" d="M646.8,288.1c0,0-0.1,0.1-0.1,0.1c-0.1,0-0.2,0-0.2,0c0,0,0.1-0.1,0.1-0.1
										C646.7,288.1,646.8,288,646.8,288.1z"/>
								</g>
							</g>
						</g>
					</g>
				</g>
			</g>
			<g>
				<g>
					<g>
						<g>
							<path class="st2" d="M616.8,138.7l12.5,7l0.9-0.9l0.9,1.7l-0.8,23.2l33.8-6.4l-2.8-4c-2.7-3.7-2.1-8.8-1-13.2l0.4-1.5
								l7.1,0.1c0,0,0.7-4,0-13c0-0.1,0-0.3,0-0.4c-0.8-8.3-8-14.5-16.3-13.9l-12.3,0.8c0,0-9.8-2-16.5,9.5L616.8,138.7z"/>
						</g>
						<g>
							<g>
								<path class="st7" d="M631.8,134.9c0,0-0.1,0.7-0.4,1.7c-0.4,1.2-0.8,2.6-1.3,4.1c-0.2,0.8-0.4,1.6-0.3,2.3
									c0.1,0.7,0.3,1.3,0.5,1.8c0.4,1,0.8,1.6,0.7,1.6c0,0-0.5-0.5-1-1.5c-0.2-0.5-0.5-1.1-0.6-1.9c-0.1-0.8,0-1.6,0.3-2.4
									c0.5-1.6,1-3.1,1.4-4.1C631.5,135.5,631.8,134.9,631.8,134.9z"/>
							</g>
						</g>
					</g>
					<g>
						<g>
							<path class="st7" d="M667.8,144.5c0,0-0.3,0-1,0c-0.7,0-1.6-0.1-2.6-0.2c-2.2-0.2-5.3-0.4-8.6-0.7c-0.6,0-1.1-0.1-1.6-0.1
								l-0.2,0l0-0.2c0.2-3,0.2-5.7,0.3-7.6c0.1-1,0.1-1.7,0.2-2.2c0.1-0.5,0.1-0.8,0.1-0.8c0,0,0,0.3,0,0.8c0,0.6,0,1.3-0.1,2.2
								c-0.1,1.9,0,4.6-0.2,7.6l-0.2-0.2c0.5,0,1.1,0.1,1.6,0.1c3.4,0.3,6.4,0.6,8.6,0.8c1,0.1,1.9,0.2,2.6,0.3
								C667.4,144.4,667.8,144.5,667.8,144.5z"/>
						</g>
					</g>
				</g>
				<g>
					<g>
						<path class="st0" d="M667.6,131.2c0,0-0.2,0-0.5-0.1c-0.3-0.1-0.8-0.2-1.4-0.3c-1.2-0.3-2.9-0.7-5-0.9c-1.1-0.1-2.2-0.1-3.5,0
							c-1.3,0.1-2.6,0.4-3.9,0.8c-2.7,0.8-5.5,2.3-8.8,3.1c-0.8,0.2-1.6,0.3-2.4,0.4c-0.8,0-1.6,0-2.4-0.1c-1.6-0.3-3-0.9-4.3-1.5
							c-2.5-1.3-4.7-2.8-6.7-3.4c-2-0.7-3.8-0.8-5-0.5c-1.2,0.2-1.8,0.6-1.8,0.6c0,0,0.5-0.4,1.7-0.7c1.2-0.3,3-0.3,5.1,0.4
							c2.1,0.6,4.3,2.1,6.8,3.4c1.3,0.6,2.7,1.2,4.2,1.5c1.5,0.3,3.1,0.1,4.7-0.2c3.2-0.8,6-2.2,8.8-3.1c1.4-0.4,2.7-0.7,4-0.8
							c1.3-0.1,2.5,0,3.6,0.1c2.2,0.3,3.9,0.7,5,1c0.6,0.2,1,0.3,1.3,0.4C667.4,131.2,667.6,131.2,667.6,131.2z"/>
					</g>
				</g>
				<g>
					<g>
						<path class="st0" d="M653.2,150.4c0,0-0.3,0-0.9,0.1c-0.6,0-1.5,0.1-2.5,0.4c-1,0.2-2.3,0.6-3.6,1.1c-1.3,0.5-2.8,1-4.4,1.4
							c-1.6,0.4-3.2,0.6-4.6,0.4c-1.4-0.2-2.7-0.7-3.6-1.3c-0.9-0.6-1.5-1.3-1.8-1.8c-0.2-0.3-0.3-0.5-0.3-0.6
							c-0.1-0.1-0.1-0.2-0.1-0.2c0,0,0.2,0.3,0.5,0.8c0.3,0.5,0.9,1.1,1.8,1.7c0.9,0.6,2.1,1,3.5,1.2c1.4,0.2,2.9,0,4.5-0.4
							c1.6-0.4,3-0.9,4.4-1.4c1.3-0.4,2.6-0.8,3.6-1c1.1-0.2,1.9-0.3,2.5-0.3C652.9,150.3,653.2,150.4,653.2,150.4z"/>
					</g>
				</g>
			</g>
			<g>
				<g>
					<path class="st15" d="M638.6,202.3"/>
				</g>
			</g>
			<g class="st3">
				<g>
					<path d="M654.2,133.2c-1.5,3.8-1.7,7.9-2.2,11.9c-0.5,4-1.5,8.2-4.3,11.2c-2.8,3.1-7.1,4.4-11.1,5.5l17.6-1.5L654.2,133.2z"/>
				</g>
			</g>
			<g>
				<g>
					<g>
						<path class="st10" d="M649.1,278.9c0,0-2-38.8,16.1-89c5.9-16.4-2.5-27-2.5-27l-32,3.7l-6.2,23.6c0,0-15.6,47.8,5.3,90.3
							L649.1,278.9z"/>
					</g>
				</g>
				<g>
					<g>
						<path class="st0" d="M662.5,196c0,0-0.2-0.5-0.8-1.3c-0.6-0.8-1.7-1.8-3.3-2.6c-1.6-0.8-3.8-1.1-6.2-0.9
							c-2.4,0.2-4.9,0.8-7.6,1.4c-2.7,0.6-5.4,0.9-7.8,0.5c-2.4-0.4-4.4-1.5-5.9-2.4c-1.6-0.9-2.8-1.6-3.8-2
							c-0.9-0.4-1.5-0.6-1.5-0.6c0,0,0.1,0,0.4,0.1c0.3,0.1,0.6,0.2,1.1,0.4c1,0.4,2.3,1,3.8,1.9c1.6,0.9,3.5,2,5.8,2.3
							c2.4,0.4,5,0,7.7-0.6c2.7-0.6,5.3-1.2,7.7-1.4c2.4-0.2,4.6,0.2,6.3,1c1.7,0.8,2.8,1.9,3.3,2.7c0.2,0.2,0.3,0.4,0.4,0.6
							c0.1,0.2,0.2,0.3,0.2,0.4C662.4,195.9,662.5,196,662.5,196z"/>
					</g>
				</g>
				<g>
					<g>
						<path class="st0" d="M654.9,223c0,0-0.3-0.4-1-1c-0.7-0.6-1.9-1.3-3.5-1.6c-1.6-0.3-3.6,0-5.7,0.7c-2.1,0.7-4.2,1.8-6.6,2.7
							c-2.4,0.9-4.9,1.2-7.1,0.9c-2.2-0.3-4.1-1-5.6-1.9c-1.5-0.8-2.5-1.7-3.1-2.4c-0.3-0.3-0.6-0.6-0.7-0.8
							c-0.2-0.2-0.2-0.3-0.2-0.3c0,0,0.4,0.4,1,1c0.7,0.6,1.7,1.5,3.2,2.3c1.4,0.8,3.3,1.5,5.5,1.8c2.2,0.3,4.6,0,7-0.9
							c2.4-0.9,4.5-2,6.6-2.7c2.1-0.7,4.2-0.9,5.8-0.6c1.7,0.3,2.9,1.1,3.6,1.7c0.3,0.3,0.6,0.6,0.7,0.8
							C654.9,222.9,654.9,223,654.9,223z"/>
					</g>
				</g>
				<g class="st16">
					<g>
						<path d="M626.9,204.4c-0.3,1.3-0.6,2.6-0.2,3.9s1.4,2.5,2.7,2.4c0.7,0,1.4-0.4,2,0c0.5,0.3,0.6,0.9,0.8,1.5
							c0.7,2.6,3,4.8,5.7,5.3c2.7,0.5,5.6-0.5,7.3-2.7c1.7-2.2,2.1-5.2,1.8-7.9c-0.4-2.8-1.4-5.4-2.4-8c-1.9-5.4-3.2-11-4.1-16.7
							c-0.2-1.1-0.4-2.3,0.1-3.4c0.8-1.7,3-2.2,4.8-2.6c7.1-1.2,14.2-2.9,21.2-5c-3.9-0.9-8.1-0.3-12,0.5c-4.4,0.8-8.8,1.8-13.1,2.9
							c-1.1,0.3-2.2,0.6-3,1.4c-0.8,0.8-1.1,2-1.4,3.1c-2.4,9.1-6,17.9-10.7,26"/>
					</g>
				</g>
			</g>
			<g>
				<g>
					<path class="st8" d="M636.6,175.7l30.6-5c0,0-0.5-2.3-1.4-4.3c-0.6-1.5-2.3-2.7-3.1-3.5c-1.8-1.8-27.3,9.4-27.3,9.4
						L636.6,175.7z"/>
				</g>
				<g>
					<polygon class="st8" points="636.6,175.7 628.2,172.9 629.4,165.9 637.7,172.3 					"/>
				</g>
				<g>
					<g>
						<g>
							<path class="st8" d="M636.7,175.7c0,0-2.3,8.4-2.3,14c0.1,5.6,0.3,17.2,1.1,21.3c0.8,4.1,11.9-0.6,9.8-4.4
								c-2.1-3.8-6-17.5-6.1-20.7c-0.1-3.2,0.2-11.2,0.2-11.2L636.7,175.7z"/>
						</g>
						<g>
							<g>
								<path class="st7" d="M644.6,205.4c0,0-0.2,0.6-0.8,1.3c-0.6,0.8-1.6,1.7-2.9,2.4c-1.3,0.7-2.7,1-3.6,1.1c-1,0.1-1.6,0-1.6,0
									c0-0.1,0.6-0.1,1.5-0.2c0.9-0.2,2.2-0.5,3.5-1.2c1.3-0.7,2.3-1.6,2.9-2.3C644.2,205.9,644.6,205.4,644.6,205.4z"/>
							</g>
						</g>
						<g>
							<g>
								<path class="st7" d="M638.7,212.6c-0.1,0-0.4-0.5-0.6-1.2c-0.3-0.7-0.4-1.2-0.3-1.3c0.1,0,0.4,0.5,0.6,1.2
									C638.6,211.9,638.8,212.5,638.7,212.6z"/>
							</g>
						</g>
						<g>
							<g>
								<path class="st7" d="M642.1,211.3c-0.1,0-0.4-0.4-0.8-1.1c-0.3-0.6-0.5-1.2-0.4-1.3c0.1,0,0.4,0.4,0.8,1.1
									C642,210.6,642.2,211.2,642.1,211.3z"/>
							</g>
						</g>
						<g>
							<g>
								<path class="st7" d="M645,209.1c-0.1,0.1-0.5-0.4-0.8-1.1c-0.4-0.6-0.6-1.2-0.5-1.3c0.1-0.1,0.5,0.4,0.8,1.1
									C644.9,208.5,645.1,209,645,209.1z"/>
							</g>
						</g>
					</g>
					<g>
						<g>
							<path class="st8" d="M634.7,174.1c-2.9,5.4-1.7,12.4-5.1,17.5c-1.4,2-3.4,3.6-4.2,5.9c-0.6,1.8-0.3,4,1,5.5
								c1.3,1.5,3.5,2.1,5.3,1.3c1.3-0.6,2.3-1.8,2.9-3.1c0.6-1.3,0.8-2.8,1.1-4.2c1.1-6.3,2.2-12.7,3.3-19c0.2-1.3,0.4-2.6-0.2-3.8
								c-0.6-1.1-2.4-1.6-3.2-0.6"/>
						</g>
						<g>
							<g>
								<path class="st7" d="M634.7,204c0,0-0.1-0.4-0.1-1.1c-0.1-0.7-0.2-1.8-0.2-3.1c-0.2-2.6-0.3-6.3-0.2-10.3
									c0.1-4,0.4-7.6,0.6-10.3c0.1-1.3,0.3-2.4,0.4-3.1c0.1-0.7,0.2-1.1,0.2-1.1c0,0,0,0.4-0.1,1.1c-0.1,0.8-0.1,1.8-0.3,3.1
									c-0.2,2.6-0.4,6.2-0.5,10.2c-0.1,4,0,7.6,0.1,10.3c0,1.3,0.1,2.3,0.1,3.1C634.8,203.6,634.8,204,634.7,204z"/>
							</g>
						</g>
						<g>
							<g>
								<path class="st7" d="M632.8,203.4c0,0-0.5,0-1.4-0.2c-0.8-0.2-2-0.7-3.1-1.4c-1.1-0.8-1.9-1.7-2.3-2.5
									c-0.5-0.7-0.6-1.3-0.6-1.3c0.1-0.1,1,1.9,3.1,3.4C630.6,203.1,632.8,203.3,632.8,203.4z"/>
							</g>
						</g>
						<g>
							<g>
								<path class="st7" d="M629.2,202.2c0.1,0.1-0.3,0.5-0.9,0.9c-0.5,0.4-1,0.7-1.1,0.6c-0.1-0.1,0.3-0.5,0.9-0.9
									C628.6,202.4,629.1,202.1,629.2,202.2z"/>
							</g>
						</g>
						<g>
							<g>
								<path class="st7" d="M626.4,200c0.1,0.1-0.2,0.3-0.5,0.6c-0.3,0.3-0.5,0.6-0.6,0.5c-0.1,0,0-0.4,0.3-0.8
									C626,200,626.3,199.9,626.4,200z"/>
							</g>
						</g>
					</g>
				</g>
				<g>
					<g>
						<g>
							<path class="st7" d="M639.7,171.6c0,0,0.1,0.1,0.2,0.4c0.1,0.3,0.2,0.8,0.1,1.4c-0.1,0.6-0.3,1.3-0.9,1.8
								c-0.5,0.6-1.4,0.9-2.3,0.9c-0.9,0-1.7-0.4-2.3-0.9c-0.5-0.6-0.8-1.3-0.9-1.8c-0.1-0.6,0-1,0.1-1.3c0.1-0.3,0.2-0.4,0.2-0.4
								c0.1,0-0.3,0.7-0.1,1.7c0.1,0.5,0.4,1.1,0.8,1.6c0.5,0.5,1.2,0.8,2,0.8c0.8,0,1.6-0.3,2.1-0.8c0.5-0.5,0.8-1.1,0.9-1.6
								C639.9,172.3,639.6,171.6,639.7,171.6z"/>
						</g>
					</g>
					<g>
						<g>
							<path class="st7" d="M638,175.6c-0.1,0-0.2-1-0.7-2.1c-0.6-1.1-1.4-1.7-1.3-1.8c0-0.1,1,0.4,1.6,1.6
								C638.3,174.5,638.1,175.6,638,175.6z"/>
						</g>
					</g>
				</g>
			</g>
			<g>
				<g>
					<path class="st13" d="M613,168.9c0.3-1.6,6.9-0.5,7.5-0.5c0.5,0,0.6-0.8,0.1-0.8c-0.7,0-8.5-0.4-8.2-2c0.2-0.9,1.7-0.4,1.7-0.4
						s7.2,0.9,7.3,0.2c0.1-0.7-4.1-1.4-5.5-1.5c-1.4-0.1-1.9-0.9-1.4-1.4c0.4-0.4,4.8-0.1,6.2,0c1.4,0.2,5.3,0.7,3.6-1.1
						c-1.7-1.8-2.3-3.8-2.1-4.5s1.2-0.6,1.5,0.1c0.2,0.6,0.8,1.5,1.3,2.1c0.4,0.5,0.9,1,1.5,1.3c0.7,0.4,1.2,0.7,1.7,1
						c3.9-0.1,15-0.7,24-4.9c1.6-0.8,1.7-13.1,1.7-13.1l13.8,1.2c0,0,0,3.5-1,12.8c-1.9,16.6-39.8,14.1-39.8,14.1l0,0
						c-2.9,0.4-6.2,0.8-8,0.8c-3.7,0-3.7-0.3-3.6-0.7c0.2-1.2,6.5-0.3,5.3-1.3C619.3,169.3,612.7,170.1,613,168.9z"/>
				</g>
			</g>
			<g class="st3">
				<g>
					<path d="M625.5,143.8c2.6-2.5,4.7-5.5,6.2-8.8c-1,2.7-2,5.4-1.9,8.3c0,0.8,0.1,1.8-0.5,2.4
						C628.1,144.9,626.9,144.3,625.5,143.8"/>
				</g>
			</g>
			<g>
				<g>
					<g>
						<g>
							<g>
								<g>
									<path class="st13" d="M652.6,92.3l0,1.8l-0.4,26.6c0,3.1-2.7,5.5-6,5.5h0c-3.3-0.1-6.1-2.7-6.1-5.8c0-3.3-0.1-6.7-0.1-6.7
										s-4.2-0.7-5.1-6.2c-0.4-2.7-0.3-7.2-0.1-10.9c0.2-3.3,3.1-5.8,6.4-5.4L652.6,92.3z"/>
								</g>
							</g>
							<g>
								<g>
									<g>
										<path class="st7" d="M636.1,99.9c0,0.4,0.3,0.7,0.7,0.7c0.4,0,0.7-0.3,0.7-0.6c0-0.4-0.3-0.7-0.7-0.7
											C636.5,99.2,636.1,99.5,636.1,99.9z"/>
									</g>
								</g>
								<g>
									<g>
										<g>
											<path class="st7" d="M635.9,98.8c0.1,0.1,0.6-0.3,1.4-0.3c0.8,0,1.3,0.4,1.4,0.3c0,0,0-0.2-0.3-0.4
												c-0.2-0.2-0.6-0.3-1.1-0.3c-0.5,0-0.9,0.2-1.1,0.4C635.9,98.6,635.8,98.8,635.9,98.8z"/>
										</g>
									</g>
								</g>
							</g>
							<g>
								<g>
									<g>
										<path class="st7" d="M643.3,99.9c0,0.4,0.3,0.7,0.7,0.7c0.4,0,0.7-0.3,0.7-0.6c0-0.4-0.3-0.7-0.7-0.7
											C643.7,99.2,643.3,99.5,643.3,99.9z"/>
									</g>
								</g>
								<g>
									<g>
										<g>
											<path class="st7" d="M643.3,99c0.1,0.1,0.6-0.3,1.4-0.3c0.8,0,1.3,0.4,1.4,0.3c0,0,0-0.2-0.3-0.4
												c-0.2-0.2-0.6-0.3-1.1-0.3c-0.5,0-0.9,0.2-1.1,0.4C643.4,98.8,643.3,98.9,643.3,99z"/>
										</g>
									</g>
								</g>
							</g>
							<g>
								<g>
									<g>
										<path class="st7" d="M640.6,104.6c0,0-0.5-0.1-1.2-0.2c-0.2,0-0.4-0.1-0.4-0.2c0-0.1,0-0.3,0.1-0.6c0.2-0.5,0.4-1,0.6-1.5
											c0.8-2.1,1.4-3.8,1.3-3.9c-0.1,0-0.8,1.7-1.6,3.8c-0.2,0.5-0.4,1-0.6,1.5c-0.1,0.2-0.2,0.5-0.1,0.8
											c0.1,0.1,0.2,0.3,0.3,0.3c0.1,0,0.2,0,0.3,0C640.1,104.6,640.6,104.7,640.6,104.6z"/>
									</g>
								</g>
							</g>
							<g>
								<g>
									<path class="st12" d="M640.1,113.6c0,0,3.7,0.2,7.4-2c0,0-1.8,3.8-7.3,3.3L640.1,113.6z"/>
								</g>
							</g>
							<g>
								<g>
									<path class="st2" d="M640.9,106.4c0.3-0.4,0.8-0.6,1.2-0.5c0.3,0,0.7,0.2,0.9,0.5c0.2,0.3,0.2,0.7,0.1,0.9
										c-0.2,0.3-0.6,0.4-1,0.3c-0.4-0.1-0.7-0.3-1-0.6c-0.1-0.1-0.2-0.1-0.2-0.2C640.8,106.7,640.8,106.5,640.9,106.4"/>
								</g>
							</g>
							<g>
								<g>
									<g>
										<path class="st7" d="M642.8,105.1c-0.1,0-0.1,0.8-0.8,1.4c-0.7,0.6-1.6,0.5-1.6,0.6c0,0.1,0.2,0.2,0.6,0.2
											c0.4,0,0.9-0.1,1.3-0.5c0.4-0.4,0.6-0.8,0.6-1.2C643,105.3,642.9,105.1,642.8,105.1z"/>
									</g>
								</g>
							</g>
						</g>
					</g>
				</g>
				<g>
					<path class="st7" d="M653.6,117.5c-1.6-0.6-3.6-1.1-4.2-2.8c-0.6-1.6-0.6-3.4-0.1-5.1c0.2-0.8,0.5-1.6,0.2-2.3
						c-0.2-0.5-0.8-0.8-1.2-1.2c-1-0.9-1.5-2.2-1.6-3.5c-0.1-1.3,0.2-2.6,0.7-3.8c0.3-0.7,0.6-1.4,0.3-2.1c-0.2-0.5-0.6-0.8-1-1.2
						c-0.8-0.7-1.4-1.6-1.9-2.6c-0.3-0.7-0.6-1.5-0.3-2.2c0.4-0.8,1.4-1.1,2.4-1.2c2.2-0.2,4.6,0.3,6,2c1.2,1.5,1.4,3.6,1.5,5.6
						c0.3,6.2,0.6,12.4-0.5,18.5"/>
				</g>
				<g>
					<g>
						<path class="st7" d="M632.8,91.6c0.3,0.2,0.7,0.3,0.9,0.5c0.3,0.2,0.5,0.4,0.8,0.7c0.1,0.1,0.3,0.3,0.4,0.4
							c0,0,0.1,0.1,0.1,0.1l0.2,0.2c0.1,0.1,0.3,0.2,0.4,0.4c0.3,0.3,0.7,0.6,1.2,0.9c0.5,0.3,1.2,0.7,2.1,0.9
							c1.7,0.4,3.1,0,4.2-0.5c1.1-0.5,1.8-1.2,2.3-1.8c0.9-1.3,1.1-2.3,0.7-2.8c-0.4-0.6-1.5-0.5-2.7-0.2c-0.6,0.1-1.2,0.3-1.8,0.4
							c-0.6,0.1-1.1,0-1.4,0c-0.2,0-0.4-0.1-0.7-0.2c-0.3-0.1-0.7-0.3-1.1-0.6c-0.2-0.1-0.5-0.2-0.7-0.3c-0.1,0-0.3-0.1-0.4-0.1
							c-0.1,0-0.3-0.1-0.4-0.1c-0.6-0.1-1.1-0.2-1.7-0.1c-1,0.1-1.9,0.6-2.3,1.2C632.4,91,632.5,91.4,632.8,91.6z"/>
					</g>
				</g>
				<g>
					<g>
						<path class="st7" d="M643.1,96c0.1,0.2,0.8,0.1,1.7,0.2c0.9,0.1,1.6,0.4,1.7,0.2c0.1-0.1-0.1-0.3-0.4-0.5
							c-0.3-0.2-0.7-0.4-1.3-0.4c-0.5-0.1-1,0-1.4,0.2C643.3,95.7,643.1,95.9,643.1,96z"/>
					</g>
				</g>
				<g>
					<g>
						<path class="st7" d="M636.1,96.6c0.1,0.2,0.7,0,1.3,0c0.6,0,1.2,0.1,1.3-0.1c0.1-0.1,0-0.3-0.3-0.4c-0.2-0.2-0.6-0.3-1-0.3
							c-0.4,0-0.8,0.2-1,0.3C636.2,96.4,636.1,96.5,636.1,96.6z"/>
					</g>
				</g>
			</g>
		</g>
	</g>
</g>
<g id="Circles_4_" transform="translate(-458 -171)">
	<g id="Group_373_4_" transform="translate(1005 299)">
		<g>
			<g>
				<g>
					<g>
						<defs>
							<rect id="SVGID_1_" x="320.9" y="-58.7" width="86.2" height="153.1"/>
						</defs>
						<clipPath id="SVGID_2_">
							<use xlink:href="#SVGID_1_"  style="overflow:visible;"/>
						</clipPath>
						<g id="Group_372_4_" transform="translate(0 0.001)" class="st17">
							<path id="Path_1301_4_" class="st10" d="M325.7-58.7c2.7,0,4.8,2.2,4.8,4.8s-2.2,4.8-4.8,4.8c-2.7,0-4.8-2.2-4.8-4.8
								S323.1-58.7,325.7-58.7"/>
							<path id="Path_1302_4_" class="st10" d="M325.7-29.9c2.7,0,4.8,2.2,4.8,4.8s-2.2,4.8-4.8,4.8c-2.7,0-4.8-2.2-4.8-4.8
								C320.9-27.8,323.1-29.9,325.7-29.9"/>
							<path id="Path_1303_4_" class="st10" d="M325.7-1.3c2.7,0,4.8,2.2,4.8,4.8c0,2.7-2.2,4.8-4.8,4.8c-2.7,0-4.8-2.2-4.8-4.8
								S323.1-1.3,325.7-1.3"/>
							<path id="Path_1304_4_" class="st18" d="M325.7,27.5c2.7,0,4.8,2.2,4.8,4.8c0,2.7-2.2,4.8-4.8,4.8c-2.7,0-4.8-2.2-4.8-4.8
								C320.9,29.6,323.1,27.5,325.7,27.5"/>
							<path id="Path_1305_4_" class="st18" d="M325.7,56.1c2.7,0,4.8,2.2,4.8,4.8s-2.2,4.8-4.8,4.8c-2.7,0-4.8-2.2-4.8-4.8
								S323.1,56.1,325.7,56.1"/>
							<path id="Path_1306_4_" class="st18" d="M325.7,84.9c2.7,0,4.8,2.2,4.8,4.8s-2.2,4.8-4.8,4.8c-2.7,0-4.8-2.2-4.8-4.8
								S323.1,84.9,325.7,84.9"/>
							<path id="Path_1307_4_" class="st10" d="M351.7-58.7c2.7,0,4.8,2.2,4.8,4.8s-2.2,4.8-4.8,4.8c-2.7,0-4.8-2.2-4.8-4.8
								S349.1-58.7,351.7-58.7"/>
							<path id="Path_1308_4_" class="st10" d="M351.7-29.9c2.7,0,4.8,2.2,4.8,4.8s-2.2,4.8-4.8,4.8c-2.7,0-4.8-2.2-4.8-4.8l0,0
								C346.9-27.8,349.1-29.9,351.7-29.9"/>
							<path id="Path_1309_4_" class="st10" d="M351.7-1.3c2.7,0,4.8,2.2,4.8,4.8c0,2.7-2.2,4.8-4.8,4.8c-2.7,0-4.8-2.2-4.8-4.8
								S349.1-1.3,351.7-1.3L351.7-1.3"/>
							<path id="Path_1310_4_" class="st18" d="M351.7,27.5c2.7,0,4.8,2.2,4.8,4.8s-2.2,4.8-4.8,4.8c-2.7,0-4.8-2.2-4.8-4.8
								C346.9,29.6,349.1,27.5,351.7,27.5L351.7,27.5"/>
							<path id="Path_1311_4_" class="st18" d="M351.7,56.1c2.7,0,4.8,2.2,4.8,4.8s-2.2,4.8-4.8,4.8c-2.7,0-4.8-2.2-4.8-4.8
								S349.1,56.1,351.7,56.1L351.7,56.1"/>
							<path id="Path_1312_4_" class="st18" d="M351.7,84.9c2.7,0,4.8,2.2,4.8,4.8s-2.2,4.8-4.8,4.8c-2.7,0-4.8-2.2-4.8-4.8
								S349.1,84.9,351.7,84.9L351.7,84.9"/>
							<path id="Path_1313_4_" class="st10" d="M376.3-58.7c2.7,0,4.8,2.2,4.8,4.8c0,2.7-2.2,4.8-4.8,4.8c-2.7,0-4.8-2.2-4.8-4.8
								C371.6-56.5,373.7-58.7,376.3-58.7"/>
							<path id="Path_1314_4_" class="st10" d="M376.3-29.9c2.7,0,4.8,2.2,4.8,4.8c0,2.7-2.2,4.8-4.8,4.8c-2.7,0-4.8-2.2-4.8-4.8
								C371.6-27.8,373.7-29.9,376.3-29.9"/>
							<path id="Path_1315_4_" class="st10" d="M376.3-1.3c2.7,0,4.8,2.2,4.8,4.8c0,2.7-2.2,4.8-4.8,4.8c-2.7,0-4.8-2.2-4.8-4.8
								C371.6,0.9,373.7-1.3,376.3-1.3"/>
							<path id="Path_1316_4_" class="st18" d="M376.3,27.5c2.7,0,4.8,2.2,4.8,4.8c0,2.7-2.2,4.8-4.8,4.8c-2.7,0-4.8-2.2-4.8-4.8
								C371.6,29.6,373.7,27.5,376.3,27.5"/>
							<path id="Path_1317_4_" class="st18" d="M376.3,56.1c2.7,0,4.8,2.2,4.8,4.8c0,2.7-2.2,4.8-4.8,4.8c-2.7,0-4.8-2.2-4.8-4.8
								C371.6,58.3,373.7,56.1,376.3,56.1"/>
							<path id="Path_1318_4_" class="st18" d="M376.3,84.9c2.7,0,4.8,2.2,4.8,4.8c0,2.7-2.2,4.8-4.8,4.8c-2.7,0-4.8-2.2-4.8-4.8
								C371.6,87.1,373.7,84.9,376.3,84.9"/>
							<path id="Path_1319_4_" class="st10" d="M402.3-58.7c2.7,0,4.8,2.2,4.8,4.8c0,2.7-2.2,4.8-4.8,4.8c-2.7,0-4.8-2.2-4.8-4.8
								S399.7-58.7,402.3-58.7"/>
							<path id="Path_1320_4_" class="st10" d="M402.3-29.9c2.7,0,4.8,2.2,4.8,4.8c0,2.7-2.2,4.8-4.8,4.8c-2.7,0-4.8-2.2-4.8-4.8
								l0,0C397.5-27.8,399.7-29.9,402.3-29.9L402.3-29.9"/>
							<path id="Path_1321_4_" class="st10" d="M402.3-1.3c2.7,0,4.8,2.2,4.8,4.8c0,2.7-2.2,4.8-4.8,4.8c-2.7,0-4.8-2.2-4.8-4.8
								S399.7-1.3,402.3-1.3L402.3-1.3"/>
							<path id="Path_1322_4_" class="st18" d="M402.3,27.5c2.7,0,4.8,2.2,4.8,4.8c0,2.7-2.2,4.8-4.8,4.8c-2.7,0-4.8-2.2-4.8-4.8
								C397.5,29.6,399.7,27.5,402.3,27.5L402.3,27.5"/>
							<path id="Path_1323_4_" class="st18" d="M402.3,56.1c2.7,0,4.8,2.2,4.8,4.8c0,2.7-2.2,4.8-4.8,4.8c-2.7,0-4.8-2.2-4.8-4.8
								S399.7,56.1,402.3,56.1L402.3,56.1"/>
							<path id="Path_1324_4_" class="st18" d="M402.3,84.9c2.7,0,4.8,2.2,4.8,4.8c0,2.7-2.2,4.8-4.8,4.8c-2.7,0-4.8-2.2-4.8-4.8
								S399.7,84.9,402.3,84.9L402.3,84.9"/>
						</g>
					</g>
				</g>
			</g>
		</g>
	</g>
	<g id="Group_374_4_" transform="translate(376 299)">
		<g>
			<g>
				<g>
					<g>
						<defs>
							<rect id="SVGID_3_" x="81.9" y="-58.7" width="86.2" height="153.1"/>
						</defs>
						<clipPath id="SVGID_4_">
							<use xlink:href="#SVGID_3_"  style="overflow:visible;"/>
						</clipPath>
						<g id="Group_372-2_4_" transform="translate(0 0.001)" class="st19">
							<path id="Path_1301-2_4_" class="st10" d="M86.7-58.7c2.7,0,4.8,2.2,4.8,4.8s-2.2,4.8-4.8,4.8c-2.7,0-4.8-2.2-4.8-4.8
								S84.1-58.7,86.7-58.7"/>
							<path id="Path_1302-2_4_" class="st10" d="M86.7-29.9c2.7,0,4.8,2.2,4.8,4.8s-2.2,4.8-4.8,4.8c-2.7,0-4.8-2.2-4.8-4.8
								C81.9-27.8,84.1-29.9,86.7-29.9"/>
							<path id="Path_1303-2_4_" class="st10" d="M86.7-1.3c2.7,0,4.8,2.2,4.8,4.8c0,2.7-2.2,4.8-4.8,4.8c-2.7,0-4.8-2.2-4.8-4.8
								S84.1-1.3,86.7-1.3"/>
							<path id="Path_1304-2_4_" class="st18" d="M86.7,27.5c2.7,0,4.8,2.2,4.8,4.8c0,2.7-2.2,4.8-4.8,4.8c-2.7,0-4.8-2.2-4.8-4.8
								C81.9,29.6,84.1,27.5,86.7,27.5"/>
							<path id="Path_1305-2_4_" class="st18" d="M86.7,56.1c2.7,0,4.8,2.2,4.8,4.8s-2.2,4.8-4.8,4.8c-2.7,0-4.8-2.2-4.8-4.8
								S84.1,56.1,86.7,56.1"/>
							<path id="Path_1306-2_4_" class="st18" d="M86.7,84.9c2.7,0,4.8,2.2,4.8,4.8s-2.2,4.8-4.8,4.8c-2.7,0-4.8-2.2-4.8-4.8
								S84.1,84.9,86.7,84.9"/>
							<path id="Path_1307-2_4_" class="st10" d="M112.7-58.7c2.7,0,4.8,2.2,4.8,4.8c0,2.7-2.2,4.8-4.8,4.8c-2.7,0-4.8-2.2-4.8-4.8
								C107.8-56.5,110-58.7,112.7-58.7"/>
							<path id="Path_1308-2_4_" class="st10" d="M112.7-29.9c2.7,0,4.8,2.2,4.8,4.8s-2.2,4.8-4.8,4.8c-2.7,0-4.8-2.2-4.8-4.8l0,0
								C107.8-27.8,110-29.9,112.7-29.9"/>
							<path id="Path_1309-2_4_" class="st10" d="M112.7-1.3c2.7,0,4.8,2.2,4.8,4.8c0,2.7-2.2,4.8-4.8,4.8c-2.7,0-4.8-2.2-4.8-4.8
								C107.8,0.9,110-1.3,112.7-1.3L112.7-1.3"/>
							<path id="Path_1310-2_4_" class="st18" d="M112.7,27.5c2.7,0,4.8,2.2,4.8,4.8c0,2.7-2.2,4.8-4.8,4.8c-2.7,0-4.8-2.2-4.8-4.8
								C107.8,29.6,110,27.5,112.7,27.5L112.7,27.5"/>
							<path id="Path_1311-2_4_" class="st18" d="M112.7,56.1c2.7,0,4.8,2.2,4.8,4.8c0,2.7-2.2,4.8-4.8,4.8c-2.7,0-4.8-2.2-4.8-4.8
								C107.8,58.3,110,56.1,112.7,56.1L112.7,56.1"/>
							<path id="Path_1312-2_4_" class="st18" d="M112.7,84.9c2.7,0,4.8,2.2,4.8,4.8c0,2.7-2.2,4.8-4.8,4.8c-2.7,0-4.8-2.2-4.8-4.8
								C107.8,87.1,110,84.9,112.7,84.9L112.7,84.9"/>
							<path id="Path_1313-2_4_" class="st10" d="M137.3-58.7c2.7,0,4.8,2.2,4.8,4.8s-2.2,4.8-4.8,4.8c-2.7,0-4.8-2.2-4.8-4.8
								C132.5-56.5,134.6-58.7,137.3-58.7"/>
							<path id="Path_1314-2_4_" class="st10" d="M137.3-29.9c2.7,0,4.8,2.2,4.8,4.8s-2.2,4.8-4.8,4.8s-4.8-2.2-4.8-4.8
								C132.5-27.8,134.6-29.9,137.3-29.9"/>
							<path id="Path_1315-2_4_" class="st10" d="M137.3-1.3c2.7,0,4.8,2.2,4.8,4.8c0,2.7-2.2,4.8-4.8,4.8c-2.7,0-4.8-2.2-4.8-4.8
								S134.6-1.3,137.3-1.3"/>
							<path id="Path_1316-2_4_" class="st18" d="M137.3,27.5c2.7,0,4.8,2.2,4.8,4.8s-2.2,4.8-4.8,4.8c-2.7,0-4.8-2.2-4.8-4.8
								C132.5,29.6,134.6,27.5,137.3,27.5"/>
							<path id="Path_1317-2_4_" class="st18" d="M137.3,56.1c2.7,0,4.8,2.2,4.8,4.8s-2.2,4.8-4.8,4.8c-2.7,0-4.8-2.2-4.8-4.8
								C132.5,58.3,134.6,56.1,137.3,56.1"/>
							<path id="Path_1318-2_4_" class="st18" d="M137.3,84.9c2.7,0,4.8,2.2,4.8,4.8s-2.2,4.8-4.8,4.8c-2.7,0-4.8-2.2-4.8-4.8
								S134.6,84.9,137.3,84.9"/>
							<path id="Path_1319-2_4_" class="st10" d="M163.2-58.7c2.7,0,4.8,2.2,4.8,4.8c0,2.7-2.2,4.8-4.8,4.8c-2.7,0-4.8-2.2-4.8-4.8
								C158.5-56.5,160.6-58.7,163.2-58.7"/>
							<path id="Path_1320-2_4_" class="st10" d="M163.2-29.9c2.7,0,4.8,2.2,4.8,4.8c0,2.7-2.2,4.8-4.8,4.8s-4.8-2.2-4.8-4.8l0,0
								C158.5-27.8,160.6-29.9,163.2-29.9L163.2-29.9"/>
							<path id="Path_1321-2_4_" class="st10" d="M163.2-1.3c2.7,0,4.8,2.2,4.8,4.8c0,2.7-2.2,4.8-4.8,4.8c-2.7,0-4.8-2.2-4.8-4.8
								S160.6-1.3,163.2-1.3L163.2-1.3"/>
							<path id="Path_1322-2_4_" class="st18" d="M163.2,27.5c2.7,0,4.8,2.2,4.8,4.8c0,2.7-2.2,4.8-4.8,4.8c-2.7,0-4.8-2.2-4.8-4.8
								C158.5,29.6,160.6,27.5,163.2,27.5L163.2,27.5"/>
							<path id="Path_1323-2_4_" class="st18" d="M163.2,56.1c2.7,0,4.8,2.2,4.8,4.8c0,2.7-2.2,4.8-4.8,4.8c-2.7,0-4.8-2.2-4.8-4.8
								C158.5,58.3,160.6,56.1,163.2,56.1L163.2,56.1"/>
							<path id="Path_1324-2_4_" class="st18" d="M163.2,84.9c2.7,0,4.8,2.2,4.8,4.8c0,2.7-2.2,4.8-4.8,4.8c-2.7,0-4.8-2.2-4.8-4.8
								S160.6,84.9,163.2,84.9L163.2,84.9"/>
						</g>
					</g>
				</g>
			</g>
		</g>
	</g>
</g>
</svg>
