<svg xmlns="http://www.w3.org/2000/svg" xmlns:xlink="http://www.w3.org/1999/xlink" width="32.285" height="32.231" viewBox="0 0 32.285 32.231">
  <defs>
    <clipPath id="clip-path">
      <rect id="Rectangle_659" data-name="Rectangle 659" width="32.285" height="32.231" fill="#fff"/>
    </clipPath>
  </defs>
  <g id="Group_1082" data-name="Group 1082" transform="translate(0 0)">
    <g id="Group_1081" data-name="Group 1081" transform="translate(0 0)" clip-path="url(#clip-path)">
      <path id="Path_2538" data-name="Path 2538" d="M1.283,1.29A3.82,3.82,0,0,1,7,1.283L31,25.222A3.821,3.821,0,0,1,31,30.94a3.82,3.82,0,0,1-5.719.007L1.29,7.008A3.821,3.821,0,0,1,1.283,1.29" transform="translate(0 0)" fill="#fff"/>
      <path id="Path_2539" data-name="Path 2539" d="M31,1.29a3.821,3.821,0,0,0-5.719-.007L1.29,25.222a3.821,3.821,0,0,0-.007,5.718A3.82,3.82,0,0,0,7,30.947L31,7.008A3.821,3.821,0,0,0,31,1.29" transform="translate(0 0)" fill="#fff"/>
    </g>
  </g>
</svg>
