<?xml version="1.0" encoding="utf-8"?>
<!-- Generator: Adobe Illustrator 25.0.0, SVG Export Plug-In . SVG Version: 6.00 Build 0)  -->
<svg version="1.1" id="Layer_1" xmlns="http://www.w3.org/2000/svg" xmlns:xlink="http://www.w3.org/1999/xlink" x="0px" y="0px"
	 viewBox="0 0 200.6 196.7" style="enable-background:new 0 0 200.6 196.7;" xml:space="preserve">
<style type="text/css">
	.st0{fill:#FFFFFF;stroke:#1D1D1B;stroke-width:0.3134;stroke-miterlimit:10;}
	.st1{fill:#ACACAC;}
	.st2{fill:none;stroke:#1D1D1B;stroke-width:0.3134;stroke-miterlimit:10;}
	.st3{fill:#1D1D1B;stroke:#1D1D1B;stroke-width:0.25;stroke-miterlimit:10;}
	.st4{fill:none;stroke:#F1F1EC;stroke-width:0.3134;stroke-miterlimit:10;}
	.st5{fill:#1D1D1B;}
	.st6{fill:#F7CCD7;}
	.st7{fill:#FFFFFF;}
</style>
<g>
	<g>
		<g>
			<g>
				<path class="st0" d="M151.9,130.6c-7.8-1.6-24.5-5.6-28.2-15c-3.8-9.4-3.8-28.2-3.8-28.2H82.3c0,0,0,18.8-3.8,28.2
					c-3.8,9.4-20.4,13.4-28.2,15c-15,3.1-11.7,11.6-4.7,19.3c8.7,9.5,21.1,14.6,33.9,14.6h43.1c12.8,0,25.2-5.1,33.9-14.6
					C163.6,142.2,166.9,133.8,151.9,130.6z"/>
				<path class="st1" d="M121.9,109.3c-2.3-9.9-2-21.9-2-21.9H82.3c0,0,0,18.8-3.8,28.2c-1.2,2.9-3.5,5.3-6.5,7.2
					c0.1,0,0.1,0,0.2,0.1C96.5,125.6,107.1,121.7,121.9,109.3z"/>
				<path class="st2" d="M151.9,130.6c-7.8-1.6-24.5-5.6-28.2-15c-3.8-9.4-3.8-28.2-3.8-28.2H82.3c0,0,0,18.8-3.8,28.2
					c-3.8,9.4-20.4,13.4-28.2,15c-15,3.1-11.7,11.6-4.7,19.3c8.7,9.5,21.1,14.6,33.9,14.6h43.1c12.8,0,25.2-5.1,33.9-14.6
					C163.6,142.2,166.9,133.8,151.9,130.6z"/>
			</g>
			<path class="st3" d="M197.6,179.3c-3.2-19.4-15.5-36.3-33.3-44.6c-3.8-1.7-7.9-3.2-12.4-4.1c-4.4-0.9-11.4-2.6-17.5-5.5
				c-28.4,16.1-54.2,7.3-67.5,0.4c-5.9,2.6-12.5,4.2-16.6,5c-10.1,2.1-18.3,6.6-24.7,11.7c-11,8.6-18.3,21-21.2,34.6l-4.2,19.5
				h200.2L197.6,179.3z"/>
			<path class="st2" d="M197.6,179.3c-3.2-19.4-15.5-36.3-33.3-44.6c-3.8-1.7-7.9-3.2-12.4-4.1c-4.4-0.9-11.4-2.6-17.5-5.5
				c-28.4,16.1-54.2,7.3-67.5,0.4c-5.9,2.6-12.5,4.2-16.6,5c-10.1,2.1-18.3,6.6-24.7,11.7c-11,8.6-18.3,21-21.2,34.6l-4.2,19.5
				h200.2L197.6,179.3z"/>
			<g>
				<line class="st4" x1="49.4" y1="173.9" x2="49.4" y2="196.7"/>
			</g>
		</g>
		<g>
			<path class="st0" d="M136.6,59.6c0-2.2-1.4-4.3-4.3-5C131,33.5,122.2,17.2,101,17.2c-21.1,0-30,16.2-31.3,37.2
				c-3.9,0.2-5.8,2.7-5.8,5.2c0,2.4,2.6,5.6,5.8,5.4c1.8,21.2,15.5,36.1,31.3,36.1c17.9,0,29.8-15,31.3-36.2
				C134.8,64.2,136.6,61.6,136.6,59.6z"/>
			<g>
				<path d="M131.9,61.6c0.1-0.6,0.2-1.1,0.4-1.6c0.2-0.5,0.4-1.1,1-1.5c0.3-0.2,0.8-0.2,1,0c0.1,0.1,0.2,0.2,0.3,0.3
					c0.1,0.2,0.1,0.3,0.1,0.5c0,0.6-0.1,1.1-0.3,1.7c0-0.6,0-1.1-0.1-1.6c0-0.1-0.1-0.2-0.1-0.3c-0.1-0.1-0.2-0.2-0.3-0.2
					c-0.2-0.1-0.3-0.1-0.5,0c-0.4,0.2-0.6,0.7-0.9,1.2C132.4,60.6,132.1,61.1,131.9,61.6z"/>
			</g>
			<g>
				<path d="M68.7,61.6c-0.3-0.5-0.5-1-0.7-1.5c-0.3-0.5-0.5-1-0.9-1.2c-0.2-0.1-0.3-0.1-0.5,0c-0.1,0-0.2,0.2-0.3,0.2
					c0,0-0.1,0.2-0.1,0.3c-0.1,0.5-0.1,1.1-0.1,1.6c-0.2-0.5-0.3-1.1-0.3-1.7c0-0.2,0-0.3,0.1-0.5c0.1-0.1,0.2-0.2,0.3-0.3
					c0.3-0.3,0.8-0.2,1,0c0.5,0.4,0.8,0.9,1,1.5C68.5,60.5,68.6,61,68.7,61.6z"/>
			</g>
			<path class="st5" d="M86.3,54.7c0,1.4-0.7,2.5-1.5,2.5c-0.8,0-1.5-1.1-1.5-2.5c0-1.4,0.7-2.5,1.5-2.5
				C85.6,52.2,86.3,53.3,86.3,54.7z"/>
			<ellipse class="st5" cx="116.5" cy="54.7" rx="1.5" ry="2.5"/>
			<path class="st6" d="M87.8,67.5c0,2.5-2.7,4.6-6.1,4.6c-3.4,0-6.1-2.1-6.1-4.6c0-2.5,2.7-4.6,6.1-4.6
				C85.1,62.9,87.8,65,87.8,67.5z"/>
			<path class="st6" d="M125.7,67.5c0,2.5-2.7,4.6-6.1,4.6c-3.4,0-6.1-2.1-6.1-4.6c0-2.5,2.7-4.6,6.1-4.6
				C122.9,62.9,125.7,65,125.7,67.5z"/>
			<path class="st5" d="M70.2,49.6c0,0,0.8,4.1,0.7,6.9c0,6.7,0.3,16,9.5,16.7c7.3,0.6,12-5.8,18.2-2.5c1.9,1,4.2,1.3,6.2,0.3
				c2.3-1.1,5.8-1.8,10.2,0.6c12.7,6.9,16.6-6.7,16.6-16.7c0-2.8,1.3-4.9,1.3-4.9l-0.6,21.9c-0.5,16.9-13.8,31.8-30.8,31.8
				c-5,0-11.1-1-16.7-4.5C64.5,86.8,69,56.2,70.2,49.6z"/>
			<g>
				<path class="st7" d="M91.3,72.3c1.1,1.7,2.5,3.3,4.1,4.4c1.6,1.2,3.6,1.9,5.6,1.8c2,0,3.9-0.7,5.7-1.7c1.8-1,3.4-2.2,5-3.6
					c-1.4,1.5-3,2.9-4.8,3.9c-1.8,1.1-3.8,1.8-5.9,1.9c-2.1,0-4.2-0.7-5.9-2C93.5,75.9,92.2,74.2,91.3,72.3z"/>
			</g>
			<g>
				<path class="st5" d="M101.1,62.6c0.6-0.1,1.3-0.2,1.9-0.2c0.6-0.1,1.3-0.1,1.9-0.1l-0.3,0.4c-0.6-2.3-1-4.6-1.3-6.9
					c-0.3-2.3-0.5-4.6-0.6-6.9c0.3,2.3,0.6,4.6,1,6.9c0.4,2.3,0.8,4.6,1.5,6.8l0.1,0.3l-0.4,0c-0.6,0-1.3,0.1-1.9,0.1
					c-0.6,0-1.3,0-1.9-0.1L101.1,62.6z"/>
			</g>
		</g>
	</g>
	<path class="st5" d="M69.9,53.7c0,0-10.7-40.5,13.7-46.2c6.5-1.5,9,3.9,15.4-4c5.3-6.6,12.7-3.3,18.3,3.3
		c5.6,6.6,21.1,0.9,15.2,47.1c0,0-1.5-18.6-10.9-19.6c-11.4-1.2-12.1,10.3-23.3,5.1c-11.2-5.1-17.8-7.9-23-1.8
		C70.3,43.7,69.9,53.7,69.9,53.7z"/>
</g>
</svg>
