<?xml version="1.0" encoding="utf-8"?>
<!-- Generator: Adobe Illustrator 25.0.0, SVG Export Plug-In . SVG Version: 6.00 Build 0)  -->
<svg version="1.1" id="Layer_1" xmlns="http://www.w3.org/2000/svg" xmlns:xlink="http://www.w3.org/1999/xlink" x="0px" y="0px"
	 viewBox="0 0 200.6 196.7" style="enable-background:new 0 0 200.6 196.7;" xml:space="preserve">
<style type="text/css">
	.st0{display:none;fill:#64CDD8;stroke:#000000;stroke-miterlimit:10;}
	.st1{fill:#FFFFFF;stroke:#1D1D1B;stroke-width:0.3134;stroke-miterlimit:10;}
	.st2{fill:#ACACAC;}
	.st3{fill:none;stroke:#1D1D1B;stroke-width:0.3134;stroke-miterlimit:10;}
	.st4{fill:#F5F4F0;}
	.st5{fill:none;}
	.st6{fill:#211916;}
	.st7{fill:#1D1D1B;}
	.st8{fill:#F7CCD7;}
</style>
<rect x="-38" y="-41" class="st0" width="303" height="275"/>
<g>
	<g>
		<g>
			<path class="st1" d="M151.9,126.3c-7.8-1.6-24.5-5.6-28.2-15c-3.8-9.4-3.8-28.2-3.8-28.2H82.3c0,0,0,18.8-3.8,28.2
				s-20.4,13.4-28.2,15c-15,3.1-11.7,11.6-4.7,19.3c8.7,9.5,21.1,14.6,33.9,14.6h43.1c12.8,0,25.2-5.1,33.9-14.6
				C163.6,137.9,166.9,129.4,151.9,126.3z"/>
			<path class="st2" d="M121.9,104.9c-2.3-9.9-2-21.9-2-21.9H82.3c0,0,0,18.8-3.8,28.2c-1.2,2.9-3.5,5.3-6.5,7.2
				c0.1,0,0.1,0,0.2,0.1C96.4,121.2,107.1,117.4,121.9,104.9z"/>
			<path class="st3" d="M151.9,126.3c-7.8-1.6-24.5-5.6-28.2-15c-3.8-9.4-3.8-28.2-3.8-28.2H82.3c0,0,0,18.8-3.8,28.2
				s-20.4,13.4-28.2,15c-15,3.1-11.7,11.6-4.7,19.3c8.7,9.5,21.1,14.6,33.9,14.6h43.1c12.8,0,25.2-5.1,33.9-14.6
				C163.6,137.9,166.9,129.4,151.9,126.3z"/>
		</g>
		<path class="st4" d="M197.6,174.9c-3.2-19.4-15.5-36.3-33.3-44.6c-3.8-1.7-7.9-3.2-12.4-4.1c-4.4-0.9-11.4-2.6-17.5-5.5
			c-28.4,16.1-54.2,7.3-67.5,0.4c-5.9,2.6-12.5,4.2-16.6,5c-10.1,2.1-18.3,6.6-24.7,11.7c-11,8.6-18.3,21-21.2,34.6l-4.2,19.5h200.2
			L197.6,174.9z"/>
		<g>
			<line class="st3" x1="49.4" y1="169.5" x2="49.4" y2="192.3"/>
		</g>
		<path class="st5" d="M197.6,174.9c-3.2-19.4-15.5-36.3-33.3-44.6c-3.8-1.7-7.9-3.2-12.4-4.1c-4.4-0.9-11.4-2.6-17.5-5.5
			c-28.4,16.1-54.2,7.3-67.5,0.4c-5.9,2.6-12.5,4.2-16.6,5c-10.1,2.1-18.3,6.6-24.7,11.7c-11,8.6-18.3,21-21.2,34.6l-4.2,19.5h200.2
			L197.6,174.9z"/>
	</g>
	<g>
		<path class="st6" d="M137.7,29.5c1.5-5.9-5.5-21.2-18.1-24.2c-8.2-1.9-11.4,5.4-20.9,0.7C83.4-1.6,80.6,19.3,77,18.7
			c-13.1-2-10.2,12.8-13.1,15.7c-5.9,5.9-3.7,13.2,6.6,20.9c0.3-0.1,0.5-0.1,0.8-0.2c-0.3-6,0.2-12,1.7-17.2
			c4.9-16.7,14.4-25.3,29.9-25.2c11.2,0,19.8,6.9,24.1,17.2c1.4,3.3,2,6.9,2.3,10.5c0.4,5.5,3.9,15.7,4.1,15.6c2.1-2.2,7-6.1,7-13.2
			C140.3,34,136.2,35.3,137.7,29.5z"/>
		<path class="st1" d="M136.6,55.3c0-2.2-1.4-4.3-4.3-5C131,29.1,122.2,12.8,101,12.8C79.9,12.8,71,29,69.7,50
			c-3.9,0.2-5.8,2.7-5.8,5.2c0,2.4,2.6,5.6,5.8,5.4c1.8,21.2,15.5,36.1,31.3,36.1c17.9,0,29.8-15,31.3-36.2
			C134.8,59.9,136.6,57.3,136.6,55.3z"/>
		<g>
			<path d="M131.9,57.2c0.1-0.6,0.2-1.1,0.4-1.6s0.4-1.1,1-1.5c0.3-0.2,0.8-0.2,1,0c0.1,0.1,0.2,0.2,0.3,0.3
				c0.1,0.2,0.1,0.3,0.1,0.5c0,0.6-0.1,1.1-0.3,1.7c0-0.6,0-1.1-0.1-1.6c0-0.1-0.1-0.2-0.1-0.3c-0.1-0.1-0.2-0.2-0.3-0.2
				c-0.2-0.1-0.3-0.1-0.5,0c-0.4,0.2-0.6,0.7-0.9,1.2C132.4,56.2,132.1,56.7,131.9,57.2z"/>
		</g>
		<g>
			<path d="M68.7,57.2c-0.3-0.5-0.5-1-0.7-1.5c-0.3-0.5-0.5-1-0.9-1.2c-0.2-0.1-0.3-0.1-0.5,0c-0.1,0-0.2,0.2-0.3,0.2
				c0,0-0.1,0.2-0.1,0.3c-0.1,0.5-0.1,1.1-0.1,1.6c-0.2-0.5-0.3-1.1-0.3-1.7c0-0.2,0-0.3,0.1-0.5c0.1-0.1,0.2-0.2,0.3-0.3
				c0.3-0.3,0.8-0.2,1,0c0.5,0.4,0.8,0.9,1,1.5C68.5,56.1,68.6,56.7,68.7,57.2z"/>
		</g>
		<g>
			<g>
				<path class="st7" d="M91.3,66.4c1.1,1.7,2.5,3.3,4.1,4.4C97,72,99,72.7,101,72.6c2,0,3.9-0.7,5.7-1.7c1.8-1,3.4-2.2,5-3.6
					c-1.4,1.5-3,2.9-4.8,3.9c-1.8,1.1-3.8,1.8-5.9,1.9c-2.1,0-4.2-0.7-5.9-2C93.5,69.9,92.2,68.2,91.3,66.4z"/>
			</g>
			<g>
				<path class="st7" d="M101.1,56.6c0.6-0.1,1.3-0.2,1.9-0.2c0.6-0.1,1.3-0.1,1.9-0.1l-0.3,0.4c-0.6-2.3-1-4.6-1.3-6.9
					c-0.3-2.3-0.5-4.6-0.6-6.9c0.3,2.3,0.6,4.6,1,6.9c0.4,2.3,0.8,4.6,1.5,6.8l0.1,0.3h-0.4c-0.6,0-1.3,0.1-1.9,0.1s-1.3,0-1.9-0.1
					L101.1,56.6z"/>
			</g>
		</g>
		<ellipse class="st7" cx="84.8" cy="50.4" rx="1.5" ry="2.5"/>
		<ellipse class="st7" cx="116.5" cy="50.4" rx="1.5" ry="2.5"/>
		<path class="st8" d="M87.8,63.2c0,2.5-2.7,4.6-6.1,4.6s-6.1-2.1-6.1-4.6s2.7-4.6,6.1-4.6C85.1,58.6,87.8,60.6,87.8,63.2z"/>
		<path class="st8" d="M124,63.2c0,2.5-2.7,4.6-6.1,4.6s-6.1-2.1-6.1-4.6s2.7-4.6,6.1-4.6C121.3,58.6,124,60.6,124,63.2z"/>
		<g>
			<path class="st6" d="M84.4,16.8c-8.9,5.3-18.1,12.8-18.1,24.9c0,2.1,0.4,4.1,1.3,6c1.4,3.2,2.6,2.7,3.7,5.5
				c0,0,0.9-14.4,5.5-17.4c4.5-3,6-6.4,8.1-12.4c0,0,10.8-3.8,19.5,4.1c12.7,11.6,22.2,6.1,22.2,6.1s-1.7,16.8,4.2,19.5
				c0.5-2.8,3.4-5.4,3.5-7.8C136.7,8.8,97.6,8.8,84.4,16.8z"/>
		</g>
	</g>
</g>
</svg>
