<svg id="Logo" xmlns="http://www.w3.org/2000/svg" xmlns:xlink="http://www.w3.org/1999/xlink" width="288.294" height="47.318" viewBox="0 0 288.294 47.318">
  <defs>
    <clipPath id="clip-path">
      <rect id="Rectangle_100" data-name="Rectangle 100" width="288.294" height="47.318" fill="none"/>
    </clipPath>
  </defs>
  <g id="Group_147" data-name="Group 147" clip-path="url(#clip-path)">
    <path id="Path_683" data-name="Path 683" d="M161.1,12.623a1.731,1.731,0,1,1-1.732-1.74,1.735,1.735,0,0,1,1.732,1.74" transform="translate(115.963 6.681)" fill="#ed1818"/>
    <path id="Path_684" data-name="Path 684" d="M161.1,12.623a1.731,1.731,0,1,1-1.732-1.74A1.735,1.735,0,0,1,161.1,12.623Z" transform="translate(115.963 6.681)" fill="none" stroke="#ed1818" stroke-miterlimit="10" stroke-width="1"/>
    <path id="Path_685" data-name="Path 685" d="M161.1,18.189a1.731,1.731,0,1,1-1.732-1.74,1.737,1.737,0,0,1,1.732,1.74" transform="translate(115.963 10.099)" fill="#ed1818"/>
    <path id="Path_686" data-name="Path 686" d="M161.1,18.189a1.731,1.731,0,1,1-1.732-1.74A1.737,1.737,0,0,1,161.1,18.189Z" transform="translate(115.963 10.099)" fill="none" stroke="#ed1818" stroke-miterlimit="10" stroke-width="1"/>
    <path id="Path_687" data-name="Path 687" d="M161.1,24.06a1.731,1.731,0,1,1-1.732-1.74,1.735,1.735,0,0,1,1.732,1.74" transform="translate(115.963 13.703)" fill="#ed1818"/>
    <path id="Path_688" data-name="Path 688" d="M161.1,24.06a1.731,1.731,0,1,1-1.732-1.74A1.735,1.735,0,0,1,161.1,24.06Z" transform="translate(115.963 13.703)" fill="none" stroke="#ed1818" stroke-miterlimit="10" stroke-width="1"/>
    <text id="TECH_BOOK" data-name="TECH BOOK" transform="translate(40.972 38.817)" font-size="29" font-family="SegoeUI, Segoe UI"><tspan x="0" y="0" letter-spacing="-0.022em">TECH</tspan><tspan y="0"> </tspan><tspan y="0" letter-spacing="-0.032em">B</tspan><tspan y="0" letter-spacing="-0.01em">O</tspan><tspan y="0">OK</tspan></text>
    <path id="Path_689" data-name="Path 689" d="M4.723,0H19.272s1.136-.2,2.706,2.852l7.448,13.284s.955,1.724,2.307,1.859h3.923l-4.674,6.27-2.557,0s-2.077.023-3.677-3.181L17.221,7.44A2.148,2.148,0,0,0,15.1,6.346H0Z" transform="translate(0.001 0)" fill="#d93832" fill-rule="evenodd"/>
    <path id="Path_690" data-name="Path 690" d="M5.234,4.657h7.457l8.812,15.7a4.069,4.069,0,0,0,2.841,2.214l2.6,0-4.233,5.689H19.988s-1.775.077-2.949-2.229Z" transform="translate(3.167 2.859)" fill="#d93832" fill-rule="evenodd"/>
    <path id="Path_691" data-name="Path 691" d="M0,4.634H7.193L20.064,27.875a2.607,2.607,0,0,0,2.013,1.469H25.09l-4.514,6.068H18.018s-1.207,0-2.266-2.085Z" transform="translate(0 2.845)" fill="#d93832" fill-rule="evenodd"/>
  </g>
</svg>
