<?xml version="1.0" encoding="utf-8"?>
<!-- Generator: Adobe Illustrator 25.0.0, SVG Export Plug-In . SVG Version: 6.00 Build 0)  -->
<svg version="1.1" id="Layer_1" xmlns="http://www.w3.org/2000/svg" xmlns:xlink="http://www.w3.org/1999/xlink" x="0px" y="0px"
	 viewBox="0 0 176.3 25" style="enable-background:new 0 0 176.3 25;" xml:space="preserve">
<style type="text/css">
	.st0{fill:#FF0000;stroke:#FF0000;stroke-miterlimit:10;}
	.st1{fill-rule:evenodd;clip-rule:evenodd;fill:#EB1D25;}
</style>
<g>
	<g>
		<g>
			<g>
				<path class="st0" d="M175.8,12c0,0.6-0.5,1.1-1.1,1.1s-1.1-0.5-1.1-1.1c0-0.6,0.5-1.1,1.1-1.1S175.8,11.4,175.8,12z"/>
			</g>
		</g>
		<g>
			<g>
				<path class="st0" d="M175.8,17.5c0,0.6-0.5,1.1-1.1,1.1s-1.1-0.5-1.1-1.1c0-0.6,0.5-1.1,1.1-1.1S175.8,16.9,175.8,17.5z"/>
			</g>
			<g>
				<path class="st0" d="M175.8,23.4c0,0.6-0.5,1.1-1.1,1.1s-1.1-0.5-1.1-1.1c0-0.6,0.5-1.1,1.1-1.1S175.8,22.8,175.8,23.4z"/>
			</g>
		</g>
	</g>
	<g>
		<path d="M23.8,11.1h17.6v4.4h-6.6v8.9h-4.4v-8.9h-6.6V11.1z"/>
		<path d="M42.6,11.1h14.7v3.7H47V16h9.6v3.6H47v1.2h10.3v3.7H42.6V11.1z"/>
		<path d="M67.1,11c1.7,0,3.1,0.1,4.3,0.4c1.2,0.3,2.2,0.7,2.8,1.2c0.7,0.5,1.2,1.2,1.5,1.9c0.3,0.7,0.5,1.5,0.5,2.5h-4.5
			c0-0.1,0-0.1-0.1-0.2s-0.1-0.3-0.3-0.5c-0.2-0.2-0.4-0.5-0.7-0.7c-0.3-0.2-0.8-0.4-1.4-0.5s-1.3-0.2-2.1-0.2
			c-0.7,0-1.4,0.1-1.9,0.2c-0.5,0.1-1,0.3-1.3,0.4c-0.3,0.2-0.6,0.4-0.7,0.7c-0.2,0.3-0.3,0.5-0.4,0.8c-0.1,0.3-0.1,0.5-0.1,0.9
			c0,0.4,0.1,0.8,0.2,1.2c0.1,0.3,0.4,0.7,0.7,0.9c0.3,0.3,0.8,0.5,1.3,0.7c0.6,0.2,1.3,0.2,2.1,0.2c0.9,0,1.6-0.1,2.2-0.2
			c0.6-0.1,1.1-0.3,1.4-0.5c0.3-0.2,0.5-0.4,0.7-0.5s0.3-0.3,0.3-0.5l0-0.2h4.5c0,0.6-0.1,1.2-0.2,1.8c-0.2,0.5-0.5,1-0.9,1.5
			c-0.4,0.5-1,0.9-1.6,1.2s-1.5,0.6-2.6,0.8c-1.1,0.2-2.3,0.3-3.7,0.3c-1.7,0-3.2-0.1-4.3-0.4c-1.2-0.3-2.1-0.7-2.8-1.2
			c-0.7-0.6-1.2-1.2-1.5-2c-0.3-0.8-0.5-1.8-0.5-2.9c0-1.3,0.2-2.3,0.6-3.2c0.4-0.9,1-1.6,1.7-2.1c0.8-0.5,1.7-0.9,2.8-1.2
			C64.3,11.1,65.6,11,67.1,11z"/>
		<path d="M89.4,11.1h4.4v13.3h-4.4v-4.6h-7.9v4.6H77V11.1h4.4v4.6h7.9V11.1z"/>
		<path d="M116.5,20.7c0,0.6-0.1,1.2-0.2,1.6s-0.4,0.8-0.7,1.2c-0.3,0.3-0.8,0.6-1.4,0.7c-0.6,0.2-1.4,0.2-2.3,0.2h-7.3h-3.8V11.1
			h9.5c0.9,0,1.7,0.1,2.3,0.2c0.6,0.1,1.1,0.4,1.5,0.7c0.4,0.3,0.6,0.6,0.8,1c0.2,0.4,0.2,0.9,0.2,1.4c0,1.2-0.3,2.1-0.9,2.6
			c0.3,0.1,0.5,0.2,0.7,0.4c0.2,0.2,0.5,0.4,0.7,0.6c0.2,0.3,0.4,0.6,0.5,1.1C116.4,19.6,116.5,20.1,116.5,20.7z M105.3,14.8v1.3h5
			c0.2,0,0.3-0.1,0.4-0.2c0.1-0.1,0.2-0.3,0.2-0.5c0-0.2-0.1-0.3-0.2-0.4c-0.1-0.1-0.3-0.2-0.4-0.2H105.3z M111.8,20.7
			c0.2,0,0.3-0.1,0.5-0.2c0.1-0.1,0.2-0.3,0.2-0.5s-0.1-0.3-0.2-0.5c-0.1-0.1-0.3-0.2-0.5-0.2h-6.5v1.3H111.8z"/>
		<path d="M125.7,10.9c1.2,0,2.3,0.1,3.2,0.2c0.9,0.1,1.8,0.4,2.6,0.7s1.4,0.7,1.9,1.2s0.9,1.2,1.2,1.9s0.4,1.7,0.4,2.7
			c0,1-0.1,1.9-0.4,2.7c-0.2,0.8-0.6,1.4-1.1,1.9c-0.5,0.5-1.1,0.9-1.8,1.3c-0.8,0.3-1.6,0.6-2.6,0.7c-0.9,0.1-2.1,0.2-3.3,0.2
			c-3.1,0-5.4-0.6-6.8-1.7c-1.4-1.1-2.1-2.9-2.1-5.3c0-2.2,0.7-3.9,2.2-4.9S122.7,10.9,125.7,10.9z M125.9,21c1.3,0,2.4-0.3,3.1-0.8
			c0.7-0.5,1.1-1.4,1.1-2.5c0-1.1-0.4-1.9-1.2-2.5c-0.8-0.6-1.8-0.8-3.1-0.8c-0.7,0-1.3,0.1-1.8,0.2s-0.9,0.4-1.3,0.7
			s-0.6,0.6-0.8,1c-0.2,0.4-0.2,0.9-0.2,1.4c0,1,0.3,1.8,1,2.4C123.5,20.7,124.5,21,125.9,21z"/>
		<path d="M144.7,10.9c1.2,0,2.3,0.1,3.2,0.2s1.8,0.4,2.6,0.7s1.4,0.7,1.9,1.2s0.9,1.2,1.2,1.9s0.4,1.7,0.4,2.7c0,1-0.1,1.9-0.4,2.7
			c-0.2,0.8-0.6,1.4-1.1,1.9c-0.5,0.5-1.1,0.9-1.8,1.3c-0.8,0.3-1.6,0.6-2.6,0.7c-0.9,0.1-2.1,0.2-3.3,0.2c-3.1,0-5.4-0.6-6.8-1.7
			c-1.4-1.1-2.1-2.9-2.1-5.3c0-2.2,0.7-3.9,2.2-4.9S141.7,10.9,144.7,10.9z M144.8,21c1.3,0,2.4-0.3,3.1-0.8
			c0.7-0.5,1.1-1.4,1.1-2.5c0-1.1-0.4-1.9-1.2-2.5c-0.8-0.6-1.8-0.8-3.1-0.8c-0.7,0-1.3,0.1-1.8,0.2s-0.9,0.4-1.3,0.7
			s-0.6,0.6-0.8,1c-0.2,0.4-0.2,0.9-0.2,1.4c0,1,0.3,1.8,1,2.4C142.4,20.7,143.5,21,144.8,21z"/>
		<path d="M170.9,11.1l-7.3,6.7l7.3,6.6h-6l-4.1-4l-1.4,1.3v2.7h-4.4V11.1h4.4v5.3l5.5-5.3H170.9z"/>
	</g>
	<g>
		<path class="st1" d="M2.9,0H12c0,0,0.7-0.1,1.7,1.8l4.6,8.2c0,0,0.6,1.1,1.4,1.2h2.4L19.3,15l-1.6,0c0,0-1.3,0-2.3-2l-4.7-8.5
			c0,0-0.3-0.7-1.3-0.7H0L2.9,0z"/>
		<path class="st1" d="M5.2,4.7h4.6l5.5,9.7c0,0,0.5,1.1,1.8,1.4l1.6,0l-2.6,3.5h-1.7c0,0-1.1,0-1.8-1.4L5.2,4.7z"/>
		<path class="st1" d="M0,4.6h4.5l8,14.4c0,0,0.4,0.8,1.3,0.9h1.9l-2.8,3.8h-1.6c0,0-0.8,0-1.4-1.3L0,4.6z"/>
	</g>
</g>
</svg>
