<svg id="Group_1080" data-name="Group 1080" xmlns="http://www.w3.org/2000/svg" xmlns:xlink="http://www.w3.org/1999/xlink" width="299.712" height="211.468" viewBox="0 0 299.712 211.468">
  <defs>
    <clipPath id="clip-path">
      <rect id="Rectangle_658" data-name="Rectangle 658" width="299.712" height="211.468" fill="#fafafa"/>
    </clipPath>
  </defs>
  <g id="Group_1079" data-name="Group 1079" clip-path="url(#clip-path)">
    <path id="Path_2532" data-name="Path 2532" d="M2.253,211.468a2.254,2.254,0,0,1-1.993-3.3,73.782,73.782,0,0,1,6.206-9.817,2.254,2.254,0,1,1,3.61,2.7,69.468,69.468,0,0,0-5.827,9.217,2.249,2.249,0,0,1-2,1.205" fill="#fff"/>
    <path id="Path_2533" data-name="Path 2533" d="M18.681,190.649a2.253,2.253,0,0,1-1.5-3.938A83.193,83.193,0,0,1,35.5,174.38a2.254,2.254,0,1,1,2,4.039A78.688,78.688,0,0,0,20.177,190.08a2.244,2.244,0,0,1-1.5.569M133.057,182.2q-.378,0-.756-.006a66.006,66.006,0,0,1-9.547-.872,2.254,2.254,0,0,1,.715-4.451,61.324,61.324,0,0,0,8.9.815,48.118,48.118,0,0,0,11.621-1.272,2.254,2.254,0,1,1,1.025,4.39,52.671,52.671,0,0,1-11.957,1.4m-24.909-4.394a2.24,2.24,0,0,1-.627-.089c-1.718-.5-3.459-1.015-5.143-1.517-5.058-1.509-10.29-3.069-15.467-4.181a2.254,2.254,0,1,1,.948-4.407c5.348,1.149,10.666,2.734,15.807,4.267,1.675.5,3.407,1.016,5.107,1.507a2.254,2.254,0,0,1-.625,4.42m50.651-2.5a2.254,2.254,0,0,1-1.1-4.224,56.946,56.946,0,0,0,15.874-13.13,2.254,2.254,0,0,1,3.46,2.889,61.542,61.542,0,0,1-17.143,14.18,2.245,2.245,0,0,1-1.094.285M50.844,173.151a2.254,2.254,0,0,1-.6-4.426,78.822,78.822,0,0,1,21.91-2.931,2.254,2.254,0,0,1-.023,4.508h-.022a74.589,74.589,0,0,0-20.657,2.767,2.222,2.222,0,0,1-.6.083" fill="#fff"/>
    <path id="Path_2534" data-name="Path 2534" d="M183.436,148.633a2.257,2.257,0,0,1-2.061-3.165,47.874,47.874,0,0,0,3.223-10.247,2.254,2.254,0,1,1,4.427.853,52.341,52.341,0,0,1-3.526,11.214,2.254,2.254,0,0,1-2.063,1.345" fill="#fff"/>
    <path id="Path_2535" data-name="Path 2535" d="M299.711,0,267.149,105.754,261.932,122.7l-14.876-12.552-38.88-32.8Z" fill="#fafafa"/>
    <path id="Path_2536" data-name="Path 2536" d="M299.71,0,186.579,65.339,135.12,48.285Z" fill="#fafafa"/>
    <path id="Path_2537" data-name="Path 2537" d="M299.71,0,208.177,77.347,190.585,112.52l-4.006-47.181Z" fill="#e5e5e5"/>
  </g>
</svg>
