<?xml version="1.0" encoding="utf-8"?>
<!-- Generator: Adobe Illustrator 25.0.0, SVG Export Plug-In . SVG Version: 6.00 Build 0)  -->
<svg version="1.1" id="Layer_1" xmlns="http://www.w3.org/2000/svg" xmlns:xlink="http://www.w3.org/1999/xlink" x="0px" y="0px"
	 viewBox="0 0 954.2 240.8" style="enable-background:new 0 0 954.2 240.8;" xml:space="preserve">
<style type="text/css">
	.st0{fill:#707070;}
	.st1{font-family:'Helvetica';}
	.st2{font-size:14px;}
	.st3{font-family:'Helvetica-Bold';}
	.st4{fill:#2D2D2D;}
	.st5{fill:#C20000;}
	.st6{fill:#FF0000;}
	.st7{fill:#FFFFFF;}
	.st8{fill:#FF0000;stroke:#2D2D2D;stroke-width:1.5;stroke-miterlimit:10;}
</style>
<g>
	<g>
		<g>
			<g>
				<text transform="matrix(1 0 0 1 101.5676 164.4322)"><tspan x="0" y="0" class="st0 st1 st2">Requirement</tspan><tspan x="14" y="16" class="st0 st1 st2">Analysis</tspan></text>
			</g>
			<g>
				<text transform="matrix(1 0 0 1 120.6362 144.9882)" class="st3 st2">Step 1</text>
			</g>
		</g>
		<g>
			<path class="st4" d="M161.6,64.6h-40c-1.7,0-3,1.3-3,3v50c0,1.7,1.3,3,3,3l0,0h16c0,2.2,1.8,4,4,4s4-1.8,4-4h16c1.7,0,3-1.3,3-3
				l0,0v-50C164.6,65.9,163.3,64.6,161.6,64.6z"/>
			<path class="st5" d="M143.6,120.6c0,1.1-0.9,2-2,2s-2-0.9-2-2v-8h4V120.6z"/>
			<circle class="st6" cx="141.6" cy="90.6" r="12"/>
			<path class="st7" d="M162.6,117.6c0,0.6-0.4,1-1,1h-16v-7c0-0.6-0.4-1-1-1h-2v-6c7.7-0.6,13.5-7.3,13-15c-0.6-7.7-7.3-13.5-15-13
				s-13.5,7.3-13,15c0.5,6.9,6,12.5,13,13v6h-2c-0.6,0-1,0.4-1,1v7h-16c-0.6,0-1-0.4-1-1v-50c0-0.6,0.4-1,1-1h40c0.6,0,1,0.4,1,1
				V117.6z"/>
			<rect x="129.6" y="68.6" class="st4" width="24" height="2"/>
			<rect x="122.6" y="72.6" class="st4" width="38" height="2"/>
		</g>
		<g>
			<g>
				<text transform="matrix(1 0 0 1 283.384 144.6572)" class="st3 st2">Step 2</text>
			</g>
			<g>
				<text transform="matrix(1 0 0 1 276.7849 164.4324)"><tspan x="0" y="0" class="st0 st1 st2">Software</tspan><tspan x="-13.6" y="16" class="st0 st1 st2">Development</tspan></text>
			</g>
		</g>
		<g>
			<path class="st4" d="M332.5,118h-56.2c-2.2,0-3.9-1.8-3.9-3.9V66.5c0-2.1,1.8-3.9,3.9-3.9h56.2c2.1,0,3.9,1.8,3.9,3.9v47.6
				C336.4,116.2,334.6,118,332.5,118z"/>
			<path class="st7" d="M276.3,64.6c-1,0-1.9,0.9-1.9,1.9v47.6c0,1.1,0.9,1.9,1.9,1.9h56.2c1.1,0,1.9-0.9,1.9-1.9V66.5
				c0-1-0.9-1.9-1.9-1.9H276.3z"/>
			<g>
				<path class="st4" d="M319,125.6c0,0.6-0.4,1-1,1h-27.2c-0.5,0-1-0.4-1-1s0.5-1,1-1h3.8V120h19.7v4.6h3.8
					C318.6,124.6,319,125,319,125.6z"/>
			</g>
			<path class="st8" d="M326.9,70.6h-45c-0.4,0-0.9,0.4-0.9,0.9V109c0,0.5,0.4,0.9,0.9,0.9h45c0.4,0,0.9-0.3,0.9-0.9V71.5
				C327.8,71,327.4,70.6,326.9,70.6z"/>
			<path class="st4" d="M298.3,94.8c0.4,0.2,0.6,0.8,0.3,1.1c-0.3,0.4-0.8,0.6-1.1,0.3L287,91c-0.3-0.2-0.4-0.4-0.4-0.8
				c0-0.3,0.2-0.6,0.4-0.8l10.6-5.2c0.4-0.3,0.9-0.1,1.1,0.3s0.1,0.9-0.3,1.1l-9,4.6L298.3,94.8z"/>
			<path class="st4" d="M309,80.7l-7.6,19.7c-0.2,0.4-0.7,0.7-1.1,0.5s-0.7-0.7-0.5-1.1l7.6-19.7c0.2-0.4,0.7-0.7,1.1-0.5
				C309,79.8,309.1,80.3,309,80.7z"/>
			<path class="st4" d="M321.9,91.1l-10.7,5.3c-0.4,0.2-0.9,0.1-1.1-0.3c-0.2-0.4,0-0.9,0.3-1.1l9.1-4.6l-9.1-4.6
				c-0.4-0.2-0.6-0.7-0.3-1.1c0.2-0.4,0.7-0.6,1.1-0.3l10.7,5.3c0.3,0.2,0.5,0.4,0.5,0.8C322.4,90.7,322.2,90.9,321.9,91.1z"/>
		</g>
		<g>
			<g>
				<text transform="matrix(1 0 0 1 446.1555 145.1226)" class="st3 st2">Step 3</text>
			</g>
			<g>
				<text transform="matrix(1 0 0 1 439.5503 164.4324)"><tspan x="0" y="0" class="st0 st1 st2">Software</tspan><tspan x="4.7" y="16" class="st0 st1 st2">Testing</tspan></text>
			</g>
		</g>
		<g>
			<path class="st4" d="M495.3,118h-56.2c-2.2,0-3.9-1.8-3.9-3.9V66.5c0-2.1,1.8-3.9,3.9-3.9h56.2c2.1,0,3.9,1.8,3.9,3.9v47.6
				C499.2,116.2,497.4,118,495.3,118z"/>
			<path class="st7" d="M439.1,64.6c-1,0-1.9,0.9-1.9,1.9v47.6c0,1.1,0.9,1.9,1.9,1.9h56.2c1.1,0,1.9-0.9,1.9-1.9V66.5
				c0-1-0.9-1.9-1.9-1.9H439.1z"/>
			<g>
				<path class="st4" d="M481.8,125.6c0,0.6-0.4,1-1,1h-27.2c-0.5,0-1-0.4-1-1s0.5-1,1-1h3.8V120h19.7v4.6h3.8
					C481.4,124.6,481.8,125,481.8,125.6z"/>
			</g>
			<path class="st8" d="M489.7,70.6h-45c-0.4,0-0.9,0.4-0.9,0.9V109c0,0.5,0.4,0.9,0.9,0.9h45c0.4,0,0.9-0.3,0.9-0.9V71.5
				C490.5,71,490.1,70.6,489.7,70.6z"/>
			<g>
				<path class="st4" d="M478,86.9h-2.1c0-0.1-0.1-0.3-0.2-0.4l1.5-1.5c0.4-0.4,0.4-1,0-1.4l-3.4-3.4c-0.4-0.4-1-0.4-1.4,0l-1.5,1.5
					c-0.1-0.1-0.3-0.1-0.4-0.2v-2.1c0-0.5-0.4-1-1-1h-4.8c-0.5,0-1,0.4-1,1v2.1c-0.1,0-0.3,0.1-0.4,0.2l-1.5-1.5
					c-0.4-0.4-1-0.4-1.4,0l-3.4,3.4c-0.4,0.4-0.4,1,0,1.4l1.5,1.5c0,0.1-0.1,0.3-0.2,0.4h-2.1c-0.5,0-1,0.4-1,1v4.8c0,0.5,0.4,1,1,1
					h2.1c0,0.1,0.1,0.3,0.2,0.4l-1.5,1.5c-0.4,0.4-0.4,1,0,1.4l3.4,3.4c0.4,0.4,1,0.4,1.4,0l1.5-1.5c0.1,0.1,0.3,0.1,0.4,0.2v2
					c0,0.5,0.4,1,1,1h4.8c0.5,0,1-0.4,1-1V99c0.1,0,0.3-0.1,0.4-0.2l1.5,1.5c0.4,0.4,1,0.4,1.4,0l3.4-3.4c0.4-0.4,0.4-1,0-1.4
					l-1.5-1.5c0.1-0.1,0.1-0.3,0.2-0.4h2.1c0.5,0,1-0.4,1-1v-4.8C479,87.3,478.5,86.9,478,86.9z M467.1,95.7c-3,0-5.5-2.4-5.5-5.5
					c0-3,2.4-5.5,5.5-5.5c3,0,5.5,2.4,5.5,5.5C472.6,93.3,470.1,95.7,467.1,95.7z"/>
			</g>
		</g>
		<g>
			<g>
				<text transform="matrix(1 0 0 1 607.6108 144.6575)" class="st3 st2">Step 4</text>
			</g>
			<g>
				<text transform="matrix(1 0 0 1 576.6367 164.4323)"><tspan x="0" y="0" class="st0 st1 st2">User Acceptance</tspan><tspan x="30.3" y="16" class="st0 st1 st2">Testing</tspan></text>
			</g>
		</g>
		<g>
			<path class="st4" d="M658,118h-56.2c-2.2,0-3.9-1.8-3.9-3.9V66.5c0-2.1,1.8-3.9,3.9-3.9H658c2.1,0,3.9,1.8,3.9,3.9v47.6
				C661.9,116.2,660.1,118,658,118z"/>
			<path class="st7" d="M601.8,64.6c-1,0-1.9,0.9-1.9,1.9v47.6c0,1.1,0.9,1.9,1.9,1.9H658c1.1,0,1.9-0.9,1.9-1.9V66.5
				c0-1-0.9-1.9-1.9-1.9H601.8z"/>
			<g>
				<path class="st4" d="M644.5,125.6c0,0.6-0.4,1-1,1h-27.2c-0.5,0-1-0.4-1-1s0.5-1,1-1h3.8V120h19.7v4.6h3.8
					C644.1,124.6,644.5,125,644.5,125.6z"/>
			</g>
			<path class="st8" d="M652.5,70.6h-45c-0.4,0-0.9,0.4-0.9,0.9V109c0,0.5,0.4,0.9,0.9,0.9h45c0.4,0,0.9-0.3,0.9-0.9V71.5
				C653.4,71,652.9,70.6,652.5,70.6z"/>
			<g>
				<circle class="st4" cx="629.9" cy="82.4" r="5"/>
				<path class="st4" d="M638.1,89.7c-4.1,4.5-11,4.9-15.5,0.8c-0.3-0.3-0.6-0.5-0.8-0.8c-1.8,1.3-2.8,3.4-2.9,5.6v6
					c0,0.6,0.4,1,1,1h20c0.6,0,1-0.4,1-1v-6C640.9,93.1,639.9,91.1,638.1,89.7z"/>
			</g>
		</g>
		<g>
			<g>
				<text transform="matrix(1 0 0 1 771.6985 144.5741)" class="st3 st2">Step 5</text>
			</g>
			<g>
				<text transform="matrix(1 0 0 1 741.7297 164.4322)"><tspan x="0" y="0" class="st0 st1 st2">Deployment and</tspan><tspan x="-9" y="16" class="st0 st1 st2">Production Support</tspan></text>
			</g>
		</g>
		<g>
			<path d="M792.7,86.6c0.5,0,1,0,1.5-0.1c0.2,0,0.4,0,0.6-0.1c0.3,0,0.5-0.1,0.8-0.1c0.3,0,0.5-0.1,0.8-0.1c0,0,0.1,0,0.1,0
				c0.4-0.1,0.7-0.2,1.1-0.3c-0.8-2.4-2.6-4.3-4.9-5.4l0,0c-3.5-1.6-5.7-5-5.7-8.8c0-1.5-0.5-3-1.4-4.3l-0.6-0.8
				c-1.7-2.3-4.5-3.5-7.3-2.9c0,0,0,0-0.1,0c-0.6,1.5-1,3.1-1.2,4.7c-0.1,0.5-0.1,1.1-0.1,1.6C776.2,79.2,783.6,86.6,792.7,86.6z"/>
			<path d="M801.8,62.8l0.7,1.3c1.4,2.4,0.8,5.2-1.1,7.2c-1.3,1.4-1.3,3.7,0.1,5.1c0.2,0.2,0.5,0.4,0.8,0.6l0.5,0.3
				c1.1,0.6,2.4,0.7,3.5,0.1l1.6-0.8c0,0,0,0,0,0c0.6-1.5,1-3.1,1.2-4.7c0.1-0.5,0.1-1.1,0.1-1.6c0-0.6,0-1.2-0.1-1.7
				c0-0.2-0.1-0.4-0.1-0.7c-0.1-0.3-0.1-0.7-0.2-1c-0.1-0.3-0.1-0.5-0.2-0.8s-0.1-0.5-0.2-0.8c-0.1-0.3-0.2-0.6-0.3-0.8
				c-0.1-0.2-0.2-0.5-0.3-0.7c-0.1-0.3-0.3-0.5-0.4-0.8c-0.1-0.2-0.2-0.5-0.4-0.7s-0.3-0.5-0.4-0.7c-0.2-0.3-0.3-0.5-0.5-0.8
				c-0.1-0.2-0.3-0.4-0.4-0.6c-0.2-0.3-0.5-0.6-0.8-0.9c-0.1-0.1-0.2-0.2-0.3-0.3c-0.4-0.4-0.8-0.8-1.2-1.1c0,0-0.1,0-0.1,0
				l-0.4,0.3C801.3,59,800.9,61.1,801.8,62.8z"/>
			<path class="st6" d="M786.8,65.3l0.6,0.8c1.2,1.6,1.8,3.6,1.8,5.6c0,2.9,1.7,5.5,4.3,6.7l0,0c2.9,1.3,5.1,3.7,6.1,6.6
				c0,0,0.1,0.1,0.1,0c2.4-1.1,4.5-2.8,6-4.9c0-0.1,0-0.1-0.1-0.1c-1.4,0.3-2.8,0-4.1-0.7l-0.3-0.2c-1.9-1.1-3.2-3.1-3.3-5.3
				c0-1.7,0.7-3.2,1.8-4.3c1.2-1.1,1.3-3,0.5-4.4l-0.7-1.2c-1.5-2.6-0.8-5.9,1.5-7.7c0,0,0-0.1,0-0.1c-7.6-4.7-17.5-2.4-22.4,5.1
				c0,0,0,0.1,0.1,0.1C782.1,61.3,785,62.7,786.8,65.3z"/>
			<path d="M790.4,105.4h4.6c0,0,0.1,0,0.1-0.1v-4.6c0,0,0-0.1,0.1-0.1h2.1l-4.4-5.2c0,0-0.1,0-0.1,0l-4.4,5.2h2.1
				c0,0,0.1,0,0.1,0.1L790.4,105.4C790.4,105.4,790.4,105.4,790.4,105.4z"/>
			<path d="M759.7,117.3v1c0,0.7,0.6,1.2,1.2,1.2h63.4c0.7,0,1.2-0.6,1.2-1.2v-1c0,0,0-0.1-0.1-0.1L759.7,117.3
				C759.8,117.2,759.7,117.2,759.7,117.3z"/>
			<path class="st4" d="M823.3,73.7c0-0.7-0.6-1.2-1.2-1.2h-10.6c0,0-0.1,0-0.1,0.1c-0.1,0.5-0.1,1-0.2,1.5c0,0.1,0,0.1-0.1,0.2
				c0,0.2-0.1,0.4-0.1,0.6h10c0,0,0.1,0,0.1,0.1v37.5c0,0,0,0.1-0.1,0.1h-56.4c0,0-0.1,0-0.1-0.1V74.9c0,0,0-0.1,0.1-0.1h9.9
				c0,0,0.1,0,0.1-0.1c-0.2-0.7-0.3-1.5-0.4-2.2c0,0,0-0.1-0.1-0.1h-10.6c-0.7,0-1.2,0.6-1.2,1.2v41.1c0,0,0,0.1,0.1,0.1h61.1
				c0,0,0.1,0,0.1-0.1V73.7z"/>
			<path class="st6" d="M766.9,110.1h51.6c0,0,0.1,0,0.1-0.1V77.2c0,0,0-0.1-0.1-0.1h-8.4c-0.1,0.2-0.2,0.4-0.3,0.6c0,0,0,0.1,0,0.1
				l-0.2,0.4l0,0c-1.9,4-5.3,7.3-9.4,9.1l0,0l-0.3,0.1c0,0-0.1,0-0.1,0.1l-0.6,0.2c-0.1,0-0.1,0-0.2,0c-0.5,0.2-0.9,0.3-1.4,0.5
				c-0.1,0-0.2,0.1-0.3,0.1c-0.4,0.1-0.9,0.2-1.3,0.3c-0.2,0-0.5,0.1-0.7,0.1c-0.3,0-0.7,0.1-1,0.1c-0.6,0.1-1.2,0.1-1.8,0.1
				c-7.7,0-14.5-4.6-17.4-11.7c0,0,0,0-0.1,0h-8.3c0,0-0.1,0-0.1,0.1L766.9,110.1C766.8,110.1,766.8,110.1,766.9,110.1z M792.8,91.9
				l9.5,11c0,0,0,0.1-0.1,0.1h-4.7c0,0-0.1,0-0.1,0.1v4.6c0,0,0,0.1-0.1,0.1h-9.3c0,0-0.1,0-0.1-0.1v-4.6c0,0,0-0.1-0.1-0.1h-4.7
				c-0.1,0-0.1-0.1-0.1-0.1l9.5-11C792.7,91.9,792.7,91.9,792.8,91.9z"/>
		</g>
	</g>
	<g>
		<g>
			<g>
				<path class="st4" d="M194.5,90.9c1.6,0,3,1.3,3,3s-1.3,3-3,3s-3-1.3-3-3S192.9,90.9,194.5,90.9z"/>
			</g>
			<g>
				
					<ellipse transform="matrix(2.159540e-03 -1 1 2.159540e-03 116.3985 304.3361)" class="st4" cx="210.7" cy="93.8" rx="3" ry="3"/>
			</g>
		</g>
		<g>
			<g>
				<path class="st4" d="M226,90.9c1.6,0,3,1.3,3,3s-1.3,3-3,3s-3-1.3-3-3S224.4,90.9,226,90.9z"/>
			</g>
			<g>
				<path class="st4" d="M242.2,90.9c1.6,0,3,1.3,3,3s-1.3,3-3,3c-1.6,0-3-1.3-3-3S240.6,90.9,242.2,90.9z"/>
			</g>
		</g>
	</g>
	<g>
		<g>
			<g>
				<path class="st4" d="M361.5,90.9c1.6,0,3,1.3,3,3s-1.3,3-3,3s-3-1.3-3-3S359.9,90.9,361.5,90.9z"/>
			</g>
			<g>
				
					<ellipse transform="matrix(2.159540e-03 -1 1 2.159540e-03 283.0594 471.3573)" class="st4" cx="377.7" cy="93.8" rx="3" ry="3"/>
			</g>
		</g>
		<g>
			<g>
				<path class="st4" d="M393.1,90.9c1.6,0,3,1.3,3,3s-1.3,3-3,3s-3-1.3-3-3S391.4,90.9,393.1,90.9z"/>
			</g>
			<g>
				<path class="st4" d="M409.2,90.9c1.6,0,3,1.3,3,3s-1.3,3-3,3s-3-1.3-3-3S407.6,90.9,409.2,90.9z"/>
			</g>
		</g>
	</g>
	<g>
		<g>
			<g>
				<path class="st4" d="M524.4,90.9c1.6,0,3,1.3,3,3s-1.3,3-3,3c-1.6,0-3-1.3-3-3S522.7,90.9,524.4,90.9z"/>
			</g>
			<g>
				
					<ellipse transform="matrix(2.159540e-03 -1 1 2.159540e-03 445.553 634.2023)" class="st4" cx="540.6" cy="93.8" rx="3" ry="3"/>
			</g>
		</g>
		<g>
			<g>
				<path class="st4" d="M555.9,90.9c1.6,0,3,1.3,3,3s-1.3,3-3,3c-1.6,0-3-1.3-3-3S554.3,90.9,555.9,90.9z"/>
			</g>
			<g>
				<path class="st4" d="M572.1,90.9c1.6,0,3,1.3,3,3s-1.3,3-3,3s-3-1.3-3-3S570.4,90.9,572.1,90.9z"/>
			</g>
		</g>
	</g>
	<g>
		<g>
			<g>
				<path class="st4" d="M688.7,90.9c1.6,0,3,1.3,3,3s-1.3,3-3,3s-3-1.3-3-3S687,90.9,688.7,90.9z"/>
			</g>
			<g>
				
					<ellipse transform="matrix(2.159540e-03 -1 1 2.159540e-03 609.4932 798.4968)" class="st4" cx="704.9" cy="93.8" rx="3" ry="3"/>
			</g>
		</g>
		<g>
			<g>
				<path class="st4" d="M720.2,90.9c1.6,0,3,1.3,3,3s-1.3,3-3,3c-1.6,0-3-1.3-3-3S718.6,90.9,720.2,90.9z"/>
			</g>
			<g>
				<path class="st4" d="M736.4,90.9c1.6,0,3,1.3,3,3s-1.3,3-3,3c-1.6,0-3-1.3-3-3S734.7,90.9,736.4,90.9z"/>
			</g>
		</g>
	</g>
</g>
</svg>
