<?xml version="1.0" encoding="utf-8"?>
<!-- Generator: Adobe Illustrator 25.0.0, SVG Export Plug-In . SVG Version: 6.00 Build 0)  -->
<svg version="1.1" xmlns="http://www.w3.org/2000/svg" xmlns:xlink="http://www.w3.org/1999/xlink" x="0px" y="0px"
	 viewBox="0 0 1299 595.5" style="enable-background:new 0 0 1299 595.5;" xml:space="preserve">
<style type="text/css">
	.st0{display:none;}
	.st1{display:inline;fill:#F5F5F5;}
	.st2{fill:#313131;}
	.st3{fill:#DC0000;}
	.st4{fill:#FAFAFA;}
	.st5{fill:#E0E0E0;}
	.st6{fill:#E8505B;}
	.st7{opacity:0.3;}
	.st8{fill:#F5F5F5;}
	.st9{fill:#EBEBEB;}
	.st10{fill:#EDEDED;}
	.st11{fill:#FFFFFF;}
	.st12{fill:#263238;}
	.st13{fill:#BEBCBD;}
	.st14{fill:#B78876;}
	.st15{fill:#79CED8;}
	.st16{fill:#EB996E;}
	.st17{fill:#FFBE9D;}
	.st18{opacity:0.6;}
	.st19{fill:none;stroke:#FFFFFF;stroke-width:5.000000e-02;stroke-miterlimit:10;}
	.st20{opacity:0.2;}
</style>
<g id="Background_Complete">
</g>
<g id="Background_Simple" class="st0">
	<path class="st1" d="M880.2,174.6c19.7,70.6-7.4,148.9-60.7,199.5c-53.3,50.6-129.6,74.7-204.4,73.8
		c-53.4-0.7-108.2-14.1-150.4-46.4c-42.2-32.3-69.7-85.4-62-136.9c2.9-19.4,11.3-39,27.5-50.6c25.8-18.6,61.9-11.9,93.2-4.5
		c31.4,7.5,67.4,14.2,93.2-4.3c19.9-14.2,27.5-39.1,40.6-59.4c22.3-34.5,63.5-56.6,105.6-56.6c5.3,0,10.5,0.4,15.7,1
		c45.5,5.9,83.8,36.8,99.7,79L880.2,174.6z"/>
</g>
<g id="Floor">
</g>
<g id="Whiteboard">
</g>
<g id="Character_2">
	<g>
		<g>
			<g>
				<g>
					<g>
						<path class="st2" d="M17.3,15.9c9.5,0,17.3,7.7,17.3,17.3c0,9.5-7.7,17.2-17.3,17.2S0,42.6,0,33.1C0,23.6,7.7,15.9,17.3,15.9z
							"/>
						<path class="st2" d="M17.3,119.7c9.5,0,17.3,7.7,17.3,17.2c0,9.5-7.7,17.3-17.3,17.3S0,146.5,0,136.9
							C0,127.4,7.7,119.7,17.3,119.7z"/>
						<path class="st2" d="M17.3,223.5c9.5,0,17.3,7.7,17.3,17.3c0,9.5-7.7,17.3-17.3,17.3S0,250.3,0,240.8
							C0,231.2,7.7,223.5,17.3,223.5z"/>
						<path class="st3" d="M17.3,327.3c9.5,0,17.3,7.7,17.3,17.2c0,9.5-7.7,17.3-17.3,17.3S0,354.1,0,344.6
							C0,335,7.7,327.3,17.3,327.3z"/>
						<path class="st3" d="M17.3,431.1c9.5,0,17.3,7.7,17.3,17.2c0,9.5-7.7,17.2-17.3,17.2S0,457.9,0,448.4
							C0,438.9,7.7,431.1,17.3,431.1z"/>
						<path class="st3" d="M17.3,535c9.5,0,17.3,7.7,17.3,17.3c0,9.5-7.7,17.2-17.3,17.2S0,561.7,0,552.2C0,542.7,7.7,535,17.3,535z
							"/>
					</g>
					<g>
						<path class="st2" d="M111.2,15.9c9.5,0,17.3,7.7,17.3,17.3c0,9.5-7.7,17.2-17.3,17.2s-17.3-7.7-17.3-17.2
							C93.9,23.6,101.7,15.9,111.2,15.9z"/>
						<path class="st2" d="M111.2,119.7c9.5,0,17.3,7.7,17.3,17.2c0,9.5-7.7,17.3-17.3,17.3s-17.3-7.7-17.3-17.3
							C93.9,127.4,101.7,119.7,111.2,119.7z"/>
						<path class="st2" d="M111.2,223.5c9.5,0,17.3,7.7,17.3,17.3c0,9.5-7.7,17.3-17.3,17.3s-17.3-7.7-17.3-17.3
							C93.9,231.2,101.7,223.5,111.2,223.5z"/>
						<path class="st3" d="M111.2,327.3c9.5,0,17.3,7.7,17.3,17.2c0,9.5-7.7,17.3-17.3,17.3s-17.3-7.7-17.3-17.3
							C93.9,335,101.7,327.3,111.2,327.3z"/>
						<path class="st3" d="M111.2,431.1c9.5,0,17.3,7.7,17.3,17.2c0,9.5-7.7,17.2-17.3,17.2s-17.3-7.7-17.3-17.2
							C93.9,438.9,101.7,431.1,111.2,431.1z"/>
						<path class="st3" d="M111.2,535c9.5,0,17.3,7.7,17.3,17.3c0,9.5-7.7,17.2-17.3,17.2s-17.3-7.7-17.3-17.2
							C93.9,542.7,101.7,535,111.2,535z"/>
					</g>
				</g>
				<g>
					<g>
						<path class="st2" d="M200.3,15.9c9.5,0,17.3,7.7,17.3,17.3c0,9.5-7.7,17.2-17.3,17.2c-9.5,0-17.3-7.7-17.3-17.2
							C183,23.6,190.7,15.9,200.3,15.9z"/>
						<path class="st2" d="M200.3,119.7c9.5,0,17.3,7.7,17.3,17.2c0,9.5-7.7,17.3-17.3,17.3c-9.5,0-17.3-7.7-17.3-17.3
							C183,127.4,190.7,119.7,200.3,119.7z"/>
						<path class="st2" d="M200.3,223.5c9.5,0,17.3,7.7,17.3,17.3c0,9.5-7.7,17.3-17.3,17.3c-9.5,0-17.3-7.7-17.3-17.3
							C183,231.2,190.7,223.5,200.3,223.5z"/>
						<path class="st3" d="M200.3,327.3c9.5,0,17.3,7.7,17.3,17.2c0,9.5-7.7,17.3-17.3,17.3c-9.5,0-17.3-7.7-17.3-17.3
							C183,335,190.7,327.3,200.3,327.3z"/>
						<path class="st3" d="M200.3,431.1c9.5,0,17.3,7.7,17.3,17.2c0,9.5-7.7,17.2-17.3,17.2c-9.5,0-17.3-7.7-17.3-17.2
							C183,438.9,190.7,431.1,200.3,431.1z"/>
						<path class="st3" d="M200.3,535c9.5,0,17.3,7.7,17.3,17.3c0,9.5-7.7,17.2-17.3,17.2c-9.5,0-17.3-7.7-17.3-17.2
							C183,542.7,190.7,535,200.3,535z"/>
					</g>
					<g>
						<path class="st2" d="M294.2,15.9c9.5,0,17.3,7.7,17.3,17.3c0,9.5-7.7,17.2-17.3,17.2c-9.5,0-17.3-7.7-17.3-17.2
							C276.9,23.6,284.7,15.9,294.2,15.9z"/>
						<path class="st2" d="M294.2,119.7c9.5,0,17.3,7.7,17.3,17.2c0,9.5-7.7,17.3-17.3,17.3c-9.5,0-17.3-7.7-17.3-17.3
							C276.9,127.4,284.7,119.7,294.2,119.7z"/>
						<path class="st2" d="M294.2,223.5c9.5,0,17.3,7.7,17.3,17.3c0,9.5-7.7,17.3-17.3,17.3c-9.5,0-17.3-7.7-17.3-17.3
							C276.9,231.2,284.7,223.5,294.2,223.5z"/>
						<path class="st3" d="M294.2,327.3c9.5,0,17.3,7.7,17.3,17.2c0,9.5-7.7,17.3-17.3,17.3c-9.5,0-17.3-7.7-17.3-17.3
							C276.9,335,284.7,327.3,294.2,327.3z"/>
						<path class="st3" d="M294.2,431.1c9.5,0,17.3,7.7,17.3,17.2c0,9.5-7.7,17.2-17.3,17.2c-9.5,0-17.3-7.7-17.3-17.2
							C276.9,438.9,284.7,431.1,294.2,431.1z"/>
						<path class="st3" d="M294.2,535c9.5,0,17.3,7.7,17.3,17.3c0,9.5-7.7,17.2-17.3,17.2c-9.5,0-17.3-7.7-17.3-17.2
							C276.9,542.7,284.7,535,294.2,535z"/>
					</g>
				</g>
			</g>
			<g>
				<g>
					<g>
						<path class="st2" d="M1004.8,15.9c9.5,0,17.3,7.7,17.3,17.3c0,9.5-7.7,17.2-17.3,17.2s-17.3-7.7-17.3-17.2
							C987.6,23.6,995.3,15.9,1004.8,15.9z"/>
						<path class="st2" d="M1004.8,119.7c9.5,0,17.3,7.7,17.3,17.2c0,9.5-7.7,17.3-17.3,17.3s-17.3-7.7-17.3-17.3
							C987.6,127.4,995.3,119.7,1004.8,119.7z"/>
						<path class="st2" d="M1004.8,223.5c9.5,0,17.3,7.7,17.3,17.3c0,9.5-7.7,17.3-17.3,17.3s-17.3-7.7-17.3-17.3
							C987.6,231.2,995.3,223.5,1004.8,223.5z"/>
						<path class="st3" d="M1004.8,327.3c9.5,0,17.3,7.7,17.3,17.2c0,9.5-7.7,17.3-17.3,17.3s-17.3-7.7-17.3-17.3
							C987.6,335,995.3,327.3,1004.8,327.3z"/>
						<path class="st3" d="M1004.8,431.1c9.5,0,17.3,7.7,17.3,17.2c0,9.5-7.7,17.2-17.3,17.2s-17.3-7.7-17.3-17.2
							C987.6,438.9,995.3,431.1,1004.8,431.1z"/>
						<path class="st3" d="M1004.8,535c9.5,0,17.3,7.7,17.3,17.3c0,9.5-7.7,17.2-17.3,17.2s-17.3-7.7-17.3-17.2
							C987.6,542.7,995.3,535,1004.8,535z"/>
					</g>
					<g>
						<path class="st2" d="M1098.8,15.9c9.5,0,17.3,7.7,17.3,17.3c0,9.5-7.7,17.2-17.3,17.2s-17.3-7.7-17.3-17.2
							C1081.5,23.6,1089.2,15.9,1098.8,15.9z"/>
						<path class="st2" d="M1098.8,119.7c9.5,0,17.3,7.7,17.3,17.2c0,9.5-7.7,17.3-17.3,17.3s-17.3-7.7-17.3-17.3
							C1081.5,127.4,1089.2,119.7,1098.8,119.7z"/>
						<path class="st2" d="M1098.8,223.5c9.5,0,17.3,7.7,17.3,17.3c0,9.5-7.7,17.3-17.3,17.3s-17.3-7.7-17.3-17.3
							C1081.5,231.2,1089.2,223.5,1098.8,223.5z"/>
						<path class="st3" d="M1098.8,327.3c9.5,0,17.3,7.7,17.3,17.2c0,9.5-7.7,17.3-17.3,17.3s-17.3-7.7-17.3-17.3
							C1081.5,335,1089.2,327.3,1098.8,327.3z"/>
						<path class="st3" d="M1098.8,431.1c9.5,0,17.3,7.7,17.3,17.2c0,9.5-7.7,17.2-17.3,17.2s-17.3-7.7-17.3-17.2
							C1081.5,438.9,1089.2,431.1,1098.8,431.1z"/>
						<path class="st3" d="M1098.8,535c9.5,0,17.3,7.7,17.3,17.3c0,9.5-7.7,17.2-17.3,17.2s-17.3-7.7-17.3-17.2
							C1081.5,542.7,1089.2,535,1098.8,535z"/>
					</g>
				</g>
				<g>
					<g>
						<path class="st2" d="M1187.8,15.9c9.5,0,17.3,7.7,17.3,17.3c0,9.5-7.7,17.2-17.3,17.2c-9.5,0-17.3-7.7-17.3-17.2
							C1170.6,23.6,1178.3,15.9,1187.8,15.9z"/>
						<path class="st2" d="M1187.8,119.7c9.5,0,17.3,7.7,17.3,17.2c0,9.5-7.7,17.3-17.3,17.3c-9.5,0-17.3-7.7-17.3-17.3
							C1170.6,127.4,1178.3,119.7,1187.8,119.7z"/>
						<path class="st2" d="M1187.8,223.5c9.5,0,17.3,7.7,17.3,17.3c0,9.5-7.7,17.3-17.3,17.3c-9.5,0-17.3-7.7-17.3-17.3
							C1170.6,231.2,1178.3,223.5,1187.8,223.5z"/>
						<path class="st3" d="M1187.8,327.3c9.5,0,17.3,7.7,17.3,17.2c0,9.5-7.7,17.3-17.3,17.3c-9.5,0-17.3-7.7-17.3-17.3
							C1170.6,335,1178.3,327.3,1187.8,327.3z"/>
						<path class="st3" d="M1187.8,431.1c9.5,0,17.3,7.7,17.3,17.2c0,9.5-7.7,17.2-17.3,17.2c-9.5,0-17.3-7.7-17.3-17.2
							C1170.6,438.9,1178.3,431.1,1187.8,431.1z"/>
						<path class="st3" d="M1187.8,535c9.5,0,17.3,7.7,17.3,17.3c0,9.5-7.7,17.2-17.3,17.2c-9.5,0-17.3-7.7-17.3-17.2
							C1170.6,542.7,1178.3,535,1187.8,535z"/>
					</g>
					<g>
						<path class="st2" d="M1281.8,15.9c9.5,0,17.3,7.7,17.3,17.3c0,9.5-7.7,17.2-17.3,17.2c-9.5,0-17.3-7.7-17.3-17.2
							C1264.5,23.6,1272.2,15.9,1281.8,15.9z"/>
						<path class="st2" d="M1281.8,119.7c9.5,0,17.3,7.7,17.3,17.2c0,9.5-7.7,17.3-17.3,17.3c-9.5,0-17.3-7.7-17.3-17.3
							C1264.5,127.4,1272.2,119.7,1281.8,119.7z"/>
						<path class="st2" d="M1281.8,223.5c9.5,0,17.3,7.7,17.3,17.3c0,9.5-7.7,17.3-17.3,17.3c-9.5,0-17.3-7.7-17.3-17.3
							C1264.5,231.2,1272.2,223.5,1281.8,223.5z"/>
						<path class="st3" d="M1281.8,327.3c9.5,0,17.3,7.7,17.3,17.2c0,9.5-7.7,17.3-17.3,17.3c-9.5,0-17.3-7.7-17.3-17.3
							C1264.5,335,1272.2,327.3,1281.8,327.3z"/>
						<path class="st3" d="M1281.8,431.1c9.5,0,17.3,7.7,17.3,17.2c0,9.5-7.7,17.2-17.3,17.2c-9.5,0-17.3-7.7-17.3-17.2
							C1264.5,438.9,1272.2,431.1,1281.8,431.1z"/>
						<path class="st3" d="M1281.8,535c9.5,0,17.3,7.7,17.3,17.3c0,9.5-7.7,17.2-17.3,17.2c-9.5,0-17.3-7.7-17.3-17.2
							C1264.5,542.7,1272.2,535,1281.8,535z"/>
					</g>
				</g>
			</g>
		</g>
		<g>
			<g>
				<g>
					<g>
						<path class="st4" d="M722.8,528.3c0,0.7,0,36.6,0,36.6h5.7v4h-5.7v24.5H615.4v-22.3h8v-4.9h-8V559h-3.5v-3.3h4.2v-27.4H722.8z
							"/>
					</g>
				</g>
				<g>
					<g>
						<polygon class="st5" points="643.9,528.4 643.9,593.1 615.4,593.1 615.4,570.7 623.4,570.7 623.4,566.3 615.4,566.4 
							615.4,559.1 611.8,559.1 611.9,555.4 616.1,555.3 616.1,528.3 						"/>
					</g>
				</g>
				<g>
					<g>
						<g>
							<path class="st5" d="M641.9,568.4c0,0.2,19.4,0.4,43.4,0.4c24,0,43.4-0.2,43.4-0.4c0-0.2-19.4-0.4-43.4-0.4
								C661.3,568,641.9,568.2,641.9,568.4z"/>
						</g>
					</g>
				</g>
				<g>
					<g>
						<g>
							<path class="st5" d="M641.9,564.7c0,0.2,19.4,0.4,43.4,0.4c24,0,43.4-0.2,43.4-0.4c0-0.2-19.4-0.4-43.4-0.4
								C661.3,564.3,641.9,564.5,641.9,564.7z"/>
						</g>
					</g>
				</g>
				<g>
					<g>
						<g>
							<path class="st5" d="M636.3,554.7c0,0.2,19.4,0.4,43.4,0.4c24,0,43.4-0.2,43.4-0.4c0-0.2-19.4-0.4-43.4-0.4
								C655.8,554.3,636.3,554.4,636.3,554.7z"/>
						</g>
					</g>
				</g>
				<g>
					<g>
						<g>
							<path class="st5" d="M635.8,582c0,0.2,19.4,0.4,43.4,0.4c24,0,43.4-0.2,43.4-0.4c0-0.2-19.4-0.4-43.4-0.4
								C655.2,581.6,635.8,581.7,635.8,582z"/>
						</g>
					</g>
				</g>
			</g>
			<g>
				<g>
					<g>
						<g>
							<g>
								<path class="st6" d="M585.6,504.5l-2.4,43.4c-0.1,1.5-1.4,2.8-2.9,2.8l-78.1,0.6c-1.6,0-2.9-1.3-3-2.9l-0.2-33.8
									c0-1.6,1.3-3,2.9-3l48.1,0c0.8,0,1.5-0.3,2.1-0.9l8.3-8.3c0.5-0.5,1.3-0.9,2.1-0.9l20.3-0.1
									C584.4,501.4,585.7,502.8,585.6,504.5z"/>
							</g>
						</g>
					</g>
					<g class="st7">
						<g>
							<g>
								<path d="M585.6,504.5l-2.4,43.4c-0.1,1.5-1.4,2.8-2.9,2.8l-78.1,0.6c-1.6,0-2.9-1.3-3-2.9l-0.2-33.8c0-1.6,1.3-3,2.9-3
									l48.1,0c0.8,0,1.5-0.3,2.1-0.9l8.3-8.3c0.5-0.5,1.3-0.9,2.1-0.9l20.3-0.1C584.4,501.4,585.7,502.8,585.6,504.5z"/>
							</g>
						</g>
					</g>
					<g>
						<g>
							<g>
								
									<rect x="499.1" y="506.2" transform="matrix(-1 7.324993e-03 -7.324993e-03 -1 1087.5211 1059.4044)" class="st8" width="85.4" height="51"/>
							</g>
						</g>
					</g>
					<g>
						<g>
							<g>
								<path class="st9" d="M591.1,510.4l-6.1,53.3c-0.1,0.9-0.9,1.7-1.9,1.7l-83.2,0.6c-1,0-1.8-0.7-1.9-1.7l-4.6-53.2
									c-0.1-1.1,0.8-2,1.9-2l93.9-0.7C590.4,508.3,591.3,509.3,591.1,510.4z"/>
							</g>
						</g>
					</g>
				</g>
				<g>
					<g>
						<g>
							<g>
								<path class="st5" d="M608.6,496.3l-2.4,43.4c-0.1,1.5-1.4,2.8-2.9,2.8l-78.1,0.6c-1.6,0-2.9-1.3-3-2.9l-0.2-33.8
									c0-1.6,1.3-3,2.9-3l48.1,0c0.8,0,1.5-0.3,2.1-0.9l8.3-8.3c0.5-0.5,1.3-0.9,2.1-0.9l20.3-0.1
									C607.3,493.2,608.7,494.6,608.6,496.3z"/>
							</g>
						</g>
					</g>
					<g>
						<g>
							<g>
								
									<rect x="522.1" y="498" transform="matrix(-1 7.328364e-03 -7.328364e-03 -1 1133.4426 1042.8492)" class="st8" width="85.4" height="51"/>
							</g>
						</g>
					</g>
					<g>
						<g>
							<g>
								<path class="st5" d="M614.1,502.2l-6.1,53.3c-0.1,0.9-0.9,1.7-1.9,1.7l-83.2,0.6c-1,0-1.8-0.7-1.9-1.7l-4.6-53.2
									c-0.1-1.1,0.8-2,1.9-2l93.9-0.7C613.4,500.1,614.3,501.1,614.1,502.2z"/>
							</g>
						</g>
					</g>
				</g>
				<g>
					<g>
						<g>
							<g>
								<path class="st9" d="M634.5,506.5l-2.4,43.4c-0.1,1.5-1.4,2.8-2.9,2.8l-78.1,0.6c-1.6,0-2.9-1.3-3-2.9l-0.2-33.8
									c0-1.6,1.3-3,2.9-3l48.1,0c0.8,0,1.5-0.3,2.1-0.9l8.3-8.3c0.5-0.5,1.3-0.9,2.1-0.9l20.3-0.1
									C633.3,503.4,634.6,504.8,634.5,506.5z"/>
							</g>
						</g>
					</g>
					<g>
						<g>
							<g>
								
									<rect x="548" y="508.2" transform="matrix(-1 7.324993e-03 -7.324993e-03 -1 1185.334 1062.9985)" class="st4" width="85.4" height="51"/>
							</g>
						</g>
					</g>
					<g>
						<g>
							<g>
								<path class="st9" d="M640,512.4l-6.1,53.3c-0.1,0.9-0.9,1.7-1.9,1.7l-83.2,0.6c-1,0-1.8-0.7-1.9-1.7l-4.6-53.2
									c-0.1-1.1,0.8-2,1.9-2l93.9-0.7C639.3,510.3,640.2,511.3,640,512.4z"/>
							</g>
						</g>
					</g>
				</g>
				<g>
					<g>
						<g>
							<path class="st8" d="M542.4,519.6v73.9h106.6v-73.9H542.4z M577.2,532.9c0-3,2.4-5.5,5.5-5.5h26.1c3,0,5.5,2.4,5.5,5.5
								c0,3-2.4,5.5-5.5,5.5h-26.1C579.6,538.4,577.2,535.9,577.2,532.9z"/>
						</g>
					</g>
				</g>
				<g>
					<g>
						<g>
							<path class="st5" d="M484.9,519.6v73.9h57.4v-73.9H484.9z"/>
						</g>
					</g>
				</g>
			</g>
			<g>
				<g>
					<g>
						<g>
							<rect x="944.9" y="447.9" class="st9" width="104.9" height="8.1"/>
						</g>
					</g>
					<g>
						<g>
							<rect x="1021" y="447.9" class="st5" width="28.8" height="8.1"/>
						</g>
					</g>
				</g>
				<g>
					<g>
						<path class="st8" d="M931.6,456c0,0.7,0,36.6,0,36.6h-5.7v4h5.7v24.5H1039v-22.3h-8V494h8v-7.3h3.5v-3.3h-4.2V456H931.6z"/>
					</g>
				</g>
				<g>
					<g>
						<polygon class="st5" points="1010.5,456.1 1010.5,520.7 1039,520.7 1039,498.4 1031,498.4 1031,494 1039,494 1039,486.7 
							1042.5,486.7 1042.5,482.9 1038.3,482.9 1038.3,456 						"/>
					</g>
				</g>
				<g>
					<g>
						<g>
							<path class="st5" d="M1012.5,496.1c0,0.2-19.4,0.4-43.4,0.4c-24,0-43.4-0.2-43.4-0.4c0-0.2,19.4-0.4,43.4-0.4
								C993.1,495.7,1012.5,495.9,1012.5,496.1z"/>
						</g>
					</g>
				</g>
				<g>
					<g>
						<g>
							<path class="st5" d="M1012.5,492.4c0,0.2-19.4,0.4-43.4,0.4c-24,0-43.4-0.2-43.4-0.4c0-0.2,19.4-0.4,43.4-0.4
								C993.1,492,1012.5,492.1,1012.5,492.4z"/>
						</g>
					</g>
				</g>
				<g>
					<g>
						<g>
							<path class="st5" d="M1018.1,482.3c0,0.2-19.4,0.4-43.4,0.4c-24,0-43.4-0.2-43.4-0.4c0-0.2,19.4-0.4,43.4-0.4
								C998.7,481.9,1018.1,482.1,1018.1,482.3z"/>
						</g>
					</g>
				</g>
				<g>
					<g>
						<g>
							<path class="st5" d="M1018.6,509.6c0,0.2-19.4,0.4-43.4,0.4c-24,0-43.4-0.2-43.4-0.4s19.4-0.4,43.4-0.4
								C999.2,509.2,1018.6,509.4,1018.6,509.6z"/>
						</g>
					</g>
				</g>
				<g>
					<g>
						<g>
							<path class="st8" d="M943.8,528.9c0,0.7,0,36.6,0,36.6h-5.7v4h5.7V594h107.4v-22.3h-8v-4.9h8v-7.3h3.5v-3.3h-4.2v-27.4H943.8
								z"/>
						</g>
					</g>
					<g>
						<g>
							<polygon class="st5" points="1022.7,529 1022.7,593.6 1051.2,593.6 1051.2,571.3 1043.2,571.3 1043.2,566.9 1051.2,567 
								1051.2,559.7 1054.8,559.7 1054.7,556 1050.5,555.8 1050.5,528.9 							"/>
						</g>
					</g>
					<g>
						<g>
							<g>
								<path class="st5" d="M1024.7,569c0,0.2-19.4,0.4-43.4,0.4c-24,0-43.4-0.2-43.4-0.4c0-0.2,19.4-0.4,43.4-0.4
									C1005.3,568.6,1024.7,568.8,1024.7,569z"/>
							</g>
						</g>
					</g>
					<g>
						<g>
							<g>
								<path class="st5" d="M1024.7,565.3c0,0.2-19.4,0.4-43.4,0.4c-24,0-43.4-0.2-43.4-0.4c0-0.2,19.4-0.4,43.4-0.4
									C1005.3,564.9,1024.7,565,1024.7,565.3z"/>
							</g>
						</g>
					</g>
					<g>
						<g>
							<g>
								<path class="st5" d="M1030.3,555.2c0,0.2-19.4,0.4-43.4,0.4c-24,0-43.4-0.2-43.4-0.4c0-0.2,19.4-0.4,43.4-0.4
									C1010.8,554.8,1030.3,555,1030.3,555.2z"/>
							</g>
						</g>
					</g>
					<g>
						<g>
							<g>
								<path class="st5" d="M1030.8,582.5c0,0.2-19.4,0.4-43.4,0.4c-24,0-43.4-0.2-43.4-0.4c0-0.2,19.4-0.4,43.4-0.4
									C1011.4,582.1,1030.8,582.3,1030.8,582.5z"/>
							</g>
						</g>
					</g>
				</g>
				<g>
					<g>
						<g>
							<path class="st8" d="M942.2,382.7c0,0.7,0,36.6,0,36.6h-5.7v4h5.7v24.5h107.4v-22.3h-8v-4.9h8v-7.3h3.5v-3.3h-4.2v-27.4
								H942.2z"/>
						</g>
					</g>
					<g>
						<g>
							<polygon class="st5" points="1021.1,382.8 1021.1,447.4 1049.6,447.4 1049.6,425.1 1041.7,425.1 1041.7,420.7 1049.6,420.8 
								1049.6,413.5 1053.2,413.5 1053.1,409.8 1048.9,409.7 1048.9,382.7 							"/>
						</g>
					</g>
					<g>
						<g>
							<g>
								<path class="st5" d="M1023.1,422.8c0,0.2-19.4,0.4-43.4,0.4c-24,0-43.4-0.2-43.4-0.4c0-0.2,19.4-0.4,43.4-0.4
									C1003.7,422.4,1023.1,422.6,1023.1,422.8z"/>
							</g>
						</g>
					</g>
					<g>
						<g>
							<g>
								<path class="st5" d="M1023.1,419.1c0,0.2-19.4,0.4-43.4,0.4c-24,0-43.4-0.2-43.4-0.4c0-0.2,19.4-0.4,43.4-0.4
									C1003.7,418.7,1023.1,418.9,1023.1,419.1z"/>
							</g>
						</g>
					</g>
					<g>
						<g>
							<g>
								<path class="st5" d="M1028.7,409.1c0,0.2-19.4,0.4-43.4,0.4c-24,0-43.4-0.2-43.4-0.4c0-0.2,19.4-0.4,43.4-0.4
									C1009.3,408.7,1028.7,408.8,1028.7,409.1z"/>
							</g>
						</g>
					</g>
					<g>
						<g>
							<g>
								<path class="st5" d="M1029.2,436.4c0,0.2-19.4,0.4-43.4,0.4c-24,0-43.4-0.2-43.4-0.4c0-0.2,19.4-0.4,43.4-0.4
									C1009.8,436,1029.2,436.1,1029.2,436.4z"/>
							</g>
						</g>
					</g>
				</g>
				<g>
					<g>
						<g>
							<rect x="937.9" y="520.8" class="st9" width="104.9" height="8.1"/>
						</g>
					</g>
					<g>
						<g>
							<rect x="1014" y="520.8" class="st5" width="28.8" height="8.1"/>
						</g>
					</g>
				</g>
			</g>
			<g>
				<g>
					<g>
						<path class="st10" d="M884.1,414.8H397.2c-23,0-41.7-18.7-41.7-41.7V112.5c0-23,18.7-41.7,41.7-41.7h486.9
							c23,0,41.7,18.7,41.7,41.7v260.6C925.9,396.1,907.2,414.8,884.1,414.8z"/>
					</g>
				</g>
				<g>
					<path class="st5" d="M430.1,129.1c0,0-3.1,28.1,0.9,43.4l37.5-1.6c0,0-8-27.7-3.1-39.9L430.1,129.1z"/>
				</g>
				<g>
					<g>
						<path class="st6" d="M429.9,129.1c0,0,0.3,30.3,1.8,39.5l38-1.8c0,0-3.3-29.8-2.1-37.7H429.9z"/>
					</g>
					<g>
						<g>
							<path class="st11" d="M461.9,141.9c0,0.2-5.7,0.6-12.7,1.1c-7,0.4-12.8,0.6-12.8,0.5c0-0.2,5.7-0.6,12.7-1.1
								C456.1,141.9,461.9,141.7,461.9,141.9z"/>
						</g>
					</g>
					<g>
						<g>
							<path class="st11" d="M461.9,148.3c0,0.2-5.7,0.6-12.7,1.1c-7,0.4-12.8,0.6-12.8,0.5c0-0.2,5.7-0.6,12.7-1.1
								C456.1,148.3,461.9,148.1,461.9,148.3z"/>
						</g>
					</g>
					<g>
						<g>
							<path class="st11" d="M455.4,154.6c0,0.2-3.2,0.5-7.2,0.7c-4,0.2-7.3,0.3-7.3,0.1c0-0.2,3.2-0.5,7.2-0.7
								C452.1,154.5,455.4,154.4,455.4,154.6z"/>
						</g>
					</g>
				</g>
				<g>
					<g>
						<path class="st6" d="M429.2,174.4c0,0,0.3,30.3,1.8,39.5l38-1.8c0,0-3.3-29.8-2.1-37.7H429.2z"/>
					</g>
					<g>
						<g>
							<path class="st11" d="M461.2,187.2c0,0.2-5.7,0.6-12.7,1.1c-7,0.4-12.8,0.6-12.8,0.5c0-0.2,5.7-0.6,12.7-1.1
								C455.5,187.2,461.2,187,461.2,187.2z"/>
						</g>
					</g>
					<g>
						<g>
							<path class="st11" d="M461.2,193.6c0,0.2-5.7,0.6-12.7,1.1c-7,0.4-12.8,0.6-12.8,0.5c0-0.2,5.7-0.6,12.7-1.1
								C455.5,193.6,461.2,193.4,461.2,193.6z"/>
						</g>
					</g>
					<g>
						<g>
							<path class="st11" d="M454.8,199.9c0,0.2-3.2,0.5-7.2,0.7c-4,0.2-7.3,0.3-7.3,0.1c0-0.2,3.2-0.5,7.2-0.7
								C451.5,199.8,454.7,199.7,454.8,199.9z"/>
						</g>
					</g>
				</g>
				<g>
					<g>
						<path class="st12" d="M429.2,225.7c0,0,0.3,30.3,1.8,39.5l38-1.8c0,0-3.3-29.8-2.1-37.7H429.2z"/>
					</g>
					<g>
						<g>
							<path class="st11" d="M461.2,238.5c0,0.2-5.7,0.6-12.7,1.1c-7,0.4-12.8,0.6-12.8,0.5c0-0.2,5.7-0.6,12.7-1.1
								C455.5,238.5,461.2,238.3,461.2,238.5z"/>
						</g>
					</g>
					<g>
						<g>
							<path class="st11" d="M461.2,244.9c0,0.2-5.7,0.6-12.7,1.1c-7,0.4-12.8,0.6-12.8,0.5c0-0.2,5.7-0.6,12.7-1.1
								C455.5,244.9,461.2,244.7,461.2,244.9z"/>
						</g>
					</g>
					<g>
						<g>
							<path class="st11" d="M454.8,251.2c0,0.2-3.2,0.5-7.2,0.7c-4,0.2-7.3,0.3-7.3,0.1c0-0.2,3.2-0.5,7.2-0.7
								C451.5,251.1,454.7,251,454.8,251.2z"/>
						</g>
					</g>
				</g>
				<g>
					<g>
						<path class="st13" d="M424.8,285.8c0,0,0.3,30.3,1.8,39.5l38-1.8c0,0-3.3-29.8-2.1-37.7H424.8z"/>
					</g>
					<g>
						<g>
							<path class="st11" d="M456.8,298.5c0,0.2-5.7,0.6-12.7,1.1c-7,0.4-12.8,0.6-12.8,0.5c0-0.2,5.7-0.6,12.7-1.1
								C451,298.5,456.8,298.3,456.8,298.5z"/>
						</g>
					</g>
					<g>
						<g>
							<path class="st11" d="M456.8,304.9c0,0.2-5.7,0.6-12.7,1.1c-7,0.4-12.8,0.6-12.8,0.5c0-0.2,5.7-0.6,12.7-1.1
								C451.1,304.9,456.8,304.7,456.8,304.9z"/>
						</g>
					</g>
					<g>
						<g>
							<path class="st11" d="M450.3,311.2c0,0.2-3.2,0.5-7.2,0.7c-4,0.2-7.3,0.3-7.3,0.1c0-0.2,3.2-0.5,7.2-0.7
								C447.1,311.1,450.3,311,450.3,311.2z"/>
						</g>
					</g>
				</g>
				<g>
					<g>
						<path class="st12" d="M475.1,286c0,0,0.3,30.3,1.8,39.5l38-1.8c0,0-3.3-29.8-2.1-37.7H475.1z"/>
					</g>
					<g>
						<g>
							<path class="st11" d="M507.1,298.7c0,0.2-5.7,0.6-12.7,1.1c-7,0.4-12.8,0.6-12.8,0.5c0-0.2,5.7-0.6,12.7-1.1
								C501.4,298.8,507.1,298.6,507.1,298.7z"/>
						</g>
					</g>
					<g>
						<g>
							<path class="st11" d="M507.1,305.2c0,0.2-5.7,0.6-12.7,1.1c-7,0.4-12.8,0.6-12.8,0.5c0-0.2,5.7-0.6,12.7-1.1
								C501.4,305.2,507.1,305,507.1,305.2z"/>
						</g>
					</g>
					<g>
						<g>
							<path class="st11" d="M500.7,311.5c0,0.2-3.2,0.5-7.2,0.7c-4,0.2-7.3,0.3-7.3,0.1c0-0.2,3.2-0.5,7.2-0.7
								C497.4,311.3,500.7,311.3,500.7,311.5z"/>
						</g>
					</g>
				</g>
				<g>
					<g>
						<path class="st6" d="M517.3,288.2c0,0,0.3,30.3,1.8,39.5l38-1.8c0,0-3.3-29.8-2.1-37.7H517.3z"/>
					</g>
					<g>
						<g>
							<path class="st11" d="M549.3,300.9c0,0.2-5.7,0.6-12.7,1.1c-7,0.4-12.8,0.6-12.8,0.5c0-0.2,5.7-0.6,12.7-1.1
								C543.5,300.9,549.3,300.7,549.3,300.9z"/>
						</g>
					</g>
					<g>
						<g>
							<path class="st11" d="M549.3,307.3c0,0.2-5.7,0.6-12.7,1.1c-7,0.4-12.8,0.6-12.8,0.5c0-0.2,5.7-0.6,12.7-1.1
								C543.5,307.4,549.3,307.2,549.3,307.3z"/>
						</g>
					</g>
					<g>
						<g>
							<path class="st11" d="M542.8,313.6c0,0.2-3.2,0.5-7.2,0.7c-4,0.2-7.3,0.3-7.3,0.1c0-0.2,3.2-0.5,7.2-0.7
								C539.5,313.5,542.8,313.5,542.8,313.6z"/>
						</g>
					</g>
				</g>
				<g>
					<g>
						<path class="st13" d="M468,340c0,0,0.3,30.3,1.8,39.5l38-1.8c0,0-3.3-29.8-2.1-37.7H468z"/>
					</g>
					<g>
						<g>
							<path class="st11" d="M500,352.7c0,0.2-5.7,0.6-12.7,1.1c-7,0.4-12.8,0.6-12.8,0.5c0-0.2,5.7-0.6,12.7-1.1
								C494.3,352.7,500,352.5,500,352.7z"/>
						</g>
					</g>
					<g>
						<g>
							<path class="st11" d="M500.1,359.1c0,0.2-5.7,0.6-12.7,1.1c-7,0.4-12.8,0.6-12.8,0.5c0-0.2,5.7-0.6,12.7-1.1
								C494.3,359.2,500,359,500.1,359.1z"/>
						</g>
					</g>
					<g>
						<g>
							<path class="st11" d="M493.6,365.4c0,0.2-3.2,0.5-7.2,0.7c-4,0.2-7.3,0.3-7.3,0.1c0-0.2,3.2-0.5,7.2-0.7
								C490.3,365.3,493.6,365.3,493.6,365.4z"/>
						</g>
					</g>
				</g>
				<g>
					<g>
						<path class="st12" d="M590,270.4c0,0,0.3,30.3,1.8,39.5l38-1.8c0,0-3.3-29.8-2.1-37.7H590z"/>
					</g>
					<g>
						<g>
							<path class="st11" d="M622,283.1c0,0.2-5.7,0.6-12.7,1.1c-7,0.4-12.8,0.6-12.8,0.5c0-0.2,5.7-0.6,12.7-1.1
								C616.3,283.2,622,283,622,283.1z"/>
						</g>
					</g>
					<g>
						<g>
							<path class="st11" d="M622,289.5c0,0.2-5.7,0.6-12.7,1.1c-7,0.4-12.8,0.6-12.8,0.5c0-0.2,5.7-0.6,12.7-1.1
								C616.3,289.6,622,289.4,622,289.5z"/>
						</g>
					</g>
					<g>
						<g>
							<path class="st11" d="M615.5,295.8c0,0.2-3.2,0.5-7.2,0.7c-4,0.2-7.3,0.3-7.3,0.1c0-0.2,3.2-0.5,7.2-0.7
								C612.3,295.7,615.5,295.7,615.5,295.8z"/>
						</g>
					</g>
				</g>
				<g>
					<g>
						<path class="st13" d="M672.4,341.5c0,0,0.3,30.3,1.8,39.5l38-1.8c0,0-3.3-29.8-2.1-37.7H672.4z"/>
					</g>
					<g>
						<g>
							<path class="st11" d="M704.5,354.2c0,0.2-5.7,0.6-12.7,1.1c-7,0.4-12.8,0.6-12.8,0.5c0-0.2,5.7-0.6,12.7-1.1
								C698.7,354.3,704.4,354.1,704.5,354.2z"/>
						</g>
					</g>
					<g>
						<g>
							<path class="st11" d="M704.5,360.7c0,0.2-5.7,0.6-12.7,1.1c-7,0.4-12.8,0.6-12.8,0.5c0-0.2,5.7-0.6,12.7-1.1
								C698.7,360.7,704.5,360.5,704.5,360.7z"/>
						</g>
					</g>
					<g>
						<g>
							<path class="st11" d="M698,367c0,0.2-3.2,0.5-7.2,0.7c-4,0.2-7.3,0.3-7.3,0.1c0-0.2,3.2-0.5,7.2-0.7
								C694.7,366.8,698,366.8,698,367z"/>
						</g>
					</g>
				</g>
				<g>
					<g>
						<path class="st13" d="M719.3,342.2c0,0,0.3,30.3,1.8,39.5l38-1.8c0,0-3.3-29.8-2.1-37.7H719.3z"/>
					</g>
					<g>
						<g>
							<path class="st11" d="M751.3,354.9c0,0.2-5.7,0.6-12.7,1.1c-7,0.4-12.8,0.6-12.8,0.5c0-0.2,5.7-0.6,12.7-1.1
								C745.6,354.9,751.3,354.7,751.3,354.9z"/>
						</g>
					</g>
					<g>
						<g>
							<path class="st11" d="M751.4,361.3c0,0.2-5.7,0.6-12.7,1.1c-7,0.4-12.8,0.6-12.8,0.5c0-0.2,5.7-0.6,12.7-1.1
								C745.6,361.3,751.3,361.1,751.4,361.3z"/>
						</g>
					</g>
					<g>
						<g>
							<path class="st11" d="M744.9,367.6c0,0.2-3.2,0.5-7.2,0.7c-4,0.2-7.3,0.3-7.3,0.1c0-0.2,3.2-0.5,7.2-0.7
								C741.6,367.5,744.9,367.4,744.9,367.6z"/>
						</g>
					</g>
				</g>
				<g>
					<g>
						<path class="st12" d="M766.2,342.8c0,0,0.3,30.3,1.8,39.5l38-1.8c0,0-3.3-29.8-2.1-37.7H766.2z"/>
					</g>
					<g>
						<g>
							<path class="st11" d="M798.2,355.5c0,0.2-5.7,0.6-12.7,1.1c-7,0.4-12.8,0.6-12.8,0.5c0-0.2,5.7-0.6,12.7-1.1
								C792.5,355.6,798.2,355.4,798.2,355.5z"/>
						</g>
					</g>
					<g>
						<g>
							<path class="st11" d="M798.2,361.9c0,0.2-5.7,0.6-12.7,1.1c-7,0.4-12.8,0.6-12.8,0.5c0-0.2,5.7-0.6,12.7-1.1
								C792.5,362,798.2,361.8,798.2,361.9z"/>
						</g>
					</g>
					<g>
						<g>
							<path class="st11" d="M791.8,368.2c0,0.2-3.2,0.5-7.2,0.7c-4,0.2-7.3,0.3-7.3,0.1c0-0.2,3.2-0.5,7.2-0.7
								C788.5,368.1,791.8,368.1,791.8,368.2z"/>
						</g>
					</g>
				</g>
				<g>
					<g>
						<path class="st13" d="M822.6,341c0,0,0.3,30.3,1.8,39.5l38-1.8c0,0-3.3-29.8-2.1-37.7H822.6z"/>
					</g>
					<g>
						<g>
							<path class="st11" d="M854.6,353.8c0,0.2-5.7,0.6-12.7,1.1c-7,0.4-12.8,0.6-12.8,0.5c0-0.2,5.7-0.6,12.7-1.1
								C848.9,353.8,854.6,353.6,854.6,353.8z"/>
						</g>
					</g>
					<g>
						<g>
							<path class="st11" d="M854.6,360.2c0,0.2-5.7,0.6-12.7,1.1c-7,0.4-12.8,0.6-12.8,0.5c0-0.2,5.7-0.6,12.7-1.1
								C848.9,360.2,854.6,360,854.6,360.2z"/>
						</g>
					</g>
					<g>
						<g>
							<path class="st11" d="M848.2,366.5c0,0.2-3.2,0.5-7.2,0.7c-4,0.2-7.3,0.3-7.3,0.1c0-0.2,3.2-0.5,7.2-0.7
								C844.9,366.4,848.2,366.3,848.2,366.5z"/>
						</g>
					</g>
				</g>
				<g>
					<g>
						<path class="st13" d="M863.5,345.4c0,0,0.3,30.3,1.8,39.5l38-1.8c0,0-3.3-29.8-2.1-37.7H863.5z"/>
					</g>
					<g>
						<g>
							<path class="st11" d="M895.5,358.1c0,0.2-5.7,0.6-12.7,1.1c-7,0.4-12.8,0.6-12.8,0.5c0-0.2,5.7-0.6,12.7-1.1
								C889.8,358.2,895.5,358,895.5,358.1z"/>
						</g>
					</g>
					<g>
						<g>
							<path class="st11" d="M895.5,364.5c0,0.2-5.7,0.6-12.7,1.1c-7,0.4-12.8,0.6-12.8,0.5c0-0.2,5.7-0.6,12.7-1.1
								C889.8,364.6,895.5,364.4,895.5,364.5z"/>
						</g>
					</g>
					<g>
						<g>
							<path class="st11" d="M889,370.8c0,0.2-3.2,0.5-7.2,0.7c-4,0.2-7.3,0.3-7.3,0.1c0-0.2,3.2-0.5,7.2-0.7
								C885.8,370.7,889,370.7,889,370.8z"/>
						</g>
					</g>
				</g>
				<g>
					<g>
						<path class="st13" d="M672.3,286.5c0,0,0.3,30.3,1.8,39.5l38-1.8c0,0-3.3-29.8-2.1-37.7H672.3z"/>
					</g>
					<g>
						<g>
							<path class="st11" d="M704.3,299.2c0,0.2-5.7,0.6-12.7,1.1c-7,0.4-12.8,0.6-12.8,0.5c0-0.2,5.7-0.6,12.7-1.1
								C698.6,299.2,704.3,299,704.3,299.2z"/>
						</g>
					</g>
					<g>
						<g>
							<path class="st11" d="M704.3,305.6c0,0.2-5.7,0.6-12.7,1.1c-7,0.4-12.8,0.6-12.8,0.5c0-0.2,5.7-0.6,12.7-1.1
								C698.6,305.6,704.3,305.4,704.3,305.6z"/>
						</g>
					</g>
					<g>
						<g>
							<path class="st11" d="M697.8,311.9c0,0.2-3.2,0.5-7.2,0.7c-4,0.2-7.3,0.3-7.3,0.1c0-0.2,3.2-0.5,7.2-0.7
								C694.6,311.8,697.8,311.7,697.8,311.9z"/>
						</g>
					</g>
				</g>
				<g>
					<g>
						<path class="st6" d="M721.9,286.6c0,0,0.3,30.3,1.8,39.5l38-1.8c0,0-3.3-29.8-2.1-37.7H721.9z"/>
					</g>
					<g>
						<g>
							<path class="st11" d="M753.9,299.3c0,0.2-5.7,0.6-12.7,1.1c-7,0.4-12.8,0.6-12.8,0.5c0-0.2,5.7-0.6,12.7-1.1
								C748.2,299.4,753.9,299.2,753.9,299.3z"/>
						</g>
					</g>
					<g>
						<g>
							<path class="st11" d="M753.9,305.8c0,0.2-5.7,0.6-12.7,1.1c-7,0.4-12.8,0.6-12.8,0.5c0-0.2,5.7-0.6,12.7-1.1
								C748.2,305.8,753.9,305.6,753.9,305.8z"/>
						</g>
					</g>
					<g>
						<g>
							<path class="st11" d="M747.4,312.1c0,0.2-3.2,0.5-7.2,0.7c-4,0.2-7.3,0.3-7.3,0.1c0-0.2,3.2-0.5,7.2-0.7
								C744.2,311.9,747.4,311.9,747.4,312.1z"/>
						</g>
					</g>
				</g>
				<g>
					<g>
						<path class="st13" d="M819.6,286.6c0,0,0.3,30.3,1.8,39.5l38-1.8c0,0-3.3-29.8-2.1-37.7H819.6z"/>
					</g>
					<g>
						<g>
							<path class="st11" d="M851.6,299.4c0,0.2-5.7,0.6-12.7,1.1c-7,0.4-12.8,0.6-12.8,0.5c0-0.2,5.7-0.6,12.7-1.1
								C845.9,299.4,851.6,299.2,851.6,299.4z"/>
						</g>
					</g>
					<g>
						<g>
							<path class="st11" d="M851.7,305.8c0,0.2-5.7,0.6-12.7,1.1c-7,0.4-12.8,0.6-12.8,0.5c0-0.2,5.7-0.6,12.7-1.1
								C845.9,305.8,851.6,305.6,851.7,305.8z"/>
						</g>
					</g>
					<g>
						<g>
							<path class="st11" d="M845.2,312.1c0,0.2-3.2,0.5-7.2,0.7c-4,0.2-7.3,0.3-7.3,0.1c0-0.2,3.2-0.5,7.2-0.7
								C841.9,312,845.2,311.9,845.2,312.1z"/>
						</g>
					</g>
				</g>
				<g>
					<g>
						<path class="st12" d="M488.2,225.7c0,0,0.3,30.3,1.8,39.5l38-1.8c0,0-3.3-29.8-2.1-37.7H488.2z"/>
					</g>
					<g>
						<g>
							<path class="st11" d="M520.2,238.5c0,0.2-5.7,0.6-12.7,1.1c-7,0.4-12.8,0.6-12.8,0.5c0-0.2,5.7-0.6,12.7-1.1
								C514.5,238.5,520.2,238.3,520.2,238.5z"/>
						</g>
					</g>
					<g>
						<g>
							<path class="st11" d="M520.2,244.9c0,0.2-5.7,0.6-12.7,1.1c-7,0.4-12.8,0.6-12.8,0.5c0-0.2,5.7-0.6,12.7-1.1
								C514.5,244.9,520.2,244.7,520.2,244.9z"/>
						</g>
					</g>
					<g>
						<g>
							<path class="st11" d="M513.7,251.2c0,0.2-3.2,0.5-7.2,0.7c-4,0.2-7.3,0.3-7.3,0.1c0-0.2,3.2-0.5,7.2-0.7
								C510.5,251.1,513.7,251,513.7,251.2z"/>
						</g>
					</g>
				</g>
				<g>
					<g>
						<path class="st6" d="M473.1,129.1c0,0,0.3,30.3,1.8,39.5l38-1.8c0,0-3.3-29.8-2.1-37.7H473.1z"/>
					</g>
					<g>
						<g>
							<path class="st11" d="M505.1,141.9c0,0.2-5.7,0.6-12.7,1.1c-7,0.4-12.8,0.6-12.8,0.5c0-0.2,5.7-0.6,12.7-1.1
								C499.4,141.9,505.1,141.7,505.1,141.9z"/>
						</g>
					</g>
					<g>
						<g>
							<path class="st11" d="M505.1,148.3c0,0.2-5.7,0.6-12.7,1.1c-7,0.4-12.8,0.6-12.8,0.5c0-0.2,5.7-0.6,12.7-1.1
								C499.4,148.3,505.1,148.1,505.1,148.3z"/>
						</g>
					</g>
					<g>
						<g>
							<path class="st11" d="M498.6,154.6c0,0.2-3.2,0.5-7.2,0.7c-4,0.2-7.3,0.3-7.3,0.1c0-0.2,3.2-0.5,7.2-0.7
								C495.4,154.5,498.6,154.4,498.6,154.6z"/>
						</g>
					</g>
				</g>
				<g>
					<g>
						<path class="st6" d="M473.9,174.6c0,0,0.3,30.3,1.8,39.5l38-1.8c0,0-3.3-29.8-2.1-37.7H473.9z"/>
					</g>
					<g>
						<g>
							<path class="st11" d="M505.9,187.3c0,0.2-5.7,0.6-12.7,1.1c-7,0.4-12.8,0.6-12.8,0.5c0-0.2,5.7-0.6,12.7-1.1
								C500.2,187.4,505.9,187.2,505.9,187.3z"/>
						</g>
					</g>
					<g>
						<g>
							<path class="st11" d="M505.9,193.7c0,0.2-5.7,0.6-12.7,1.1c-7,0.4-12.8,0.6-12.8,0.5c0-0.2,5.7-0.6,12.7-1.1
								C500.2,193.8,505.9,193.6,505.9,193.7z"/>
						</g>
					</g>
					<g>
						<g>
							<path class="st11" d="M499.5,200c0,0.2-3.2,0.5-7.2,0.7c-4,0.2-7.3,0.3-7.3,0.1c0-0.2,3.2-0.5,7.2-0.7
								C496.2,199.9,499.5,199.9,499.5,200z"/>
						</g>
					</g>
				</g>
				<g>
					<g>
						<path class="st6" d="M520.4,129.1c0,0,0.3,30.3,1.8,39.5l38-1.8c0,0-3.3-29.8-2.1-37.7H520.4z"/>
					</g>
					<g>
						<g>
							<path class="st11" d="M552.4,141.9c0,0.2-5.7,0.6-12.7,1.1c-7,0.4-12.8,0.6-12.8,0.5c0-0.2,5.7-0.6,12.7-1.1
								C546.7,141.9,552.4,141.7,552.4,141.9z"/>
						</g>
					</g>
					<g>
						<g>
							<path class="st11" d="M552.5,148.3c0,0.2-5.7,0.6-12.7,1.1c-7,0.4-12.8,0.6-12.8,0.5c0-0.2,5.7-0.6,12.7-1.1
								C546.7,148.3,552.4,148.1,552.5,148.3z"/>
						</g>
					</g>
					<g>
						<g>
							<path class="st11" d="M546,154.6c0,0.2-3.2,0.5-7.2,0.7c-4,0.2-7.3,0.3-7.3,0.1c0-0.2,3.2-0.5,7.2-0.7
								C542.7,154.5,546,154.4,546,154.6z"/>
						</g>
					</g>
				</g>
				<g>
					<g>
						<path class="st6" d="M567.8,129.1c0,0,0.3,30.3,1.8,39.5l38-1.8c0,0-3.3-29.8-2.1-37.7H567.8z"/>
					</g>
					<g>
						<g>
							<path class="st11" d="M599.8,141.9c0,0.2-5.7,0.6-12.7,1.1c-7,0.4-12.8,0.6-12.8,0.5c0-0.2,5.7-0.6,12.7-1.1
								C594.1,141.9,599.8,141.7,599.8,141.9z"/>
						</g>
					</g>
					<g>
						<g>
							<path class="st11" d="M599.8,148.3c0,0.2-5.7,0.6-12.7,1.1c-7,0.4-12.8,0.6-12.8,0.5c0-0.2,5.7-0.6,12.7-1.1
								C594.1,148.3,599.8,148.1,599.8,148.3z"/>
						</g>
					</g>
					<g>
						<g>
							<path class="st11" d="M593.3,154.6c0,0.2-3.2,0.5-7.2,0.7c-4,0.2-7.3,0.3-7.3,0.1c0-0.2,3.2-0.5,7.2-0.7
								C590.1,154.5,593.3,154.4,593.3,154.6z"/>
						</g>
					</g>
				</g>
				<g>
					<g>
						<path class="st6" d="M615.1,129.1c0,0,0.3,30.3,1.8,39.5l38-1.8c0,0-3.3-29.8-2.1-37.7H615.1z"/>
					</g>
					<g>
						<g>
							<path class="st11" d="M647.1,141.9c0,0.2-5.7,0.6-12.7,1.1c-7,0.4-12.8,0.6-12.8,0.5c0-0.2,5.7-0.6,12.7-1.1
								C641.4,141.9,647.1,141.7,647.1,141.9z"/>
						</g>
					</g>
					<g>
						<g>
							<path class="st11" d="M647.1,148.3c0,0.2-5.7,0.6-12.7,1.1c-7,0.4-12.8,0.6-12.8,0.5c0-0.2,5.7-0.6,12.7-1.1
								C641.4,148.3,647.1,148.1,647.1,148.3z"/>
						</g>
					</g>
					<g>
						<g>
							<path class="st11" d="M640.7,154.6c0,0.2-3.2,0.5-7.2,0.7c-4,0.2-7.3,0.3-7.3,0.1c0-0.2,3.2-0.5,7.2-0.7
								C637.4,154.5,640.7,154.4,640.7,154.6z"/>
						</g>
					</g>
				</g>
				<g>
					<g>
						<path class="st6" d="M678.4,135.9c0,0,0.3,30.3,1.8,39.5l38-1.8c0,0-3.3-29.8-2.1-37.7H678.4z"/>
					</g>
					<g>
						<g>
							<path class="st11" d="M710.4,148.6c0,0.2-5.7,0.6-12.7,1.1c-7,0.4-12.8,0.6-12.8,0.5c0-0.2,5.7-0.6,12.7-1.1
								C704.7,148.6,710.4,148.4,710.4,148.6z"/>
						</g>
					</g>
					<g>
						<g>
							<path class="st11" d="M710.4,155c0,0.2-5.7,0.6-12.7,1.1c-7,0.4-12.8,0.6-12.8,0.5c0-0.2,5.7-0.6,12.7-1.1
								C704.7,155,710.4,154.8,710.4,155z"/>
						</g>
					</g>
					<g>
						<g>
							<path class="st11" d="M704,161.3c0,0.2-3.2,0.5-7.2,0.7c-4,0.2-7.3,0.3-7.3,0.1c0-0.2,3.2-0.5,7.2-0.7
								C700.7,161.2,704,161.1,704,161.3z"/>
						</g>
					</g>
				</g>
				<g>
					<g>
						<path class="st6" d="M720.8,136.5c0,0,0.3,30.3,1.8,39.5l38-1.8c0,0-3.3-29.8-2.1-37.7H720.8z"/>
					</g>
					<g>
						<g>
							<path class="st11" d="M752.8,149.2c0,0.2-5.7,0.6-12.7,1.1c-7,0.4-12.8,0.6-12.8,0.5c0-0.2,5.7-0.6,12.7-1.1
								C747.1,149.3,752.8,149.1,752.8,149.2z"/>
						</g>
					</g>
					<g>
						<g>
							<path class="st11" d="M752.8,155.6c0,0.2-5.7,0.6-12.7,1.1c-7,0.4-12.8,0.6-12.8,0.5c0-0.2,5.7-0.6,12.7-1.1
								C747.1,155.7,752.8,155.5,752.8,155.6z"/>
						</g>
					</g>
					<g>
						<g>
							<path class="st11" d="M746.4,161.9c0,0.2-3.2,0.5-7.2,0.7c-4,0.2-7.3,0.3-7.3,0.1c0-0.2,3.2-0.5,7.2-0.7
								C743.1,161.8,746.4,161.8,746.4,161.9z"/>
						</g>
					</g>
				</g>
				<g>
					<g>
						<path class="st6" d="M767.6,137.9c0,0,0.3,30.3,1.8,39.5l38-1.8c0,0-3.3-29.8-2.1-37.7H767.6z"/>
					</g>
					<g>
						<g>
							<path class="st11" d="M799.6,150.6c0,0.2-5.7,0.6-12.7,1.1c-7,0.4-12.8,0.6-12.8,0.5c0-0.2,5.7-0.6,12.7-1.1
								C793.9,150.6,799.6,150.4,799.6,150.6z"/>
						</g>
					</g>
					<g>
						<g>
							<path class="st11" d="M799.7,157c0,0.2-5.7,0.6-12.7,1.1c-7,0.4-12.8,0.6-12.8,0.5c0-0.2,5.7-0.6,12.7-1.1
								C793.9,157,799.6,156.8,799.7,157z"/>
						</g>
					</g>
					<g>
						<g>
							<path class="st11" d="M793.2,163.3c0,0.2-3.2,0.5-7.2,0.7c-4,0.2-7.3,0.3-7.3,0.1c0-0.2,3.2-0.5,7.2-0.7
								C789.9,163.2,793.2,163.1,793.2,163.3z"/>
						</g>
					</g>
				</g>
				<g>
					<g>
						<path class="st6" d="M823.3,136.3c0,0,0.3,30.3,1.8,39.5l38-1.8c0,0-3.3-29.8-2.1-37.7H823.3z"/>
					</g>
					<g>
						<g>
							<path class="st11" d="M855.3,149c0,0.2-5.7,0.6-12.7,1.1c-7,0.4-12.8,0.6-12.8,0.5c0-0.2,5.7-0.6,12.7-1.1
								C849.6,149.1,855.3,148.8,855.3,149z"/>
						</g>
					</g>
					<g>
						<g>
							<path class="st11" d="M855.3,155.4c0,0.2-5.7,0.6-12.7,1.1c-7,0.4-12.8,0.6-12.8,0.5c0-0.2,5.7-0.6,12.7-1.1
								C849.6,155.5,855.3,155.3,855.3,155.4z"/>
						</g>
					</g>
					<g>
						<g>
							<path class="st11" d="M848.8,161.7c0,0.2-3.2,0.5-7.2,0.7c-4,0.2-7.3,0.3-7.3,0.1c0-0.2,3.2-0.5,7.2-0.7
								C845.6,161.6,848.8,161.6,848.8,161.7z"/>
						</g>
					</g>
				</g>
				<g>
					<g>
						<path class="st6" d="M827.9,185.7c0,0,0.3,30.3,1.8,39.5l38-1.8c0,0-3.3-29.8-2.1-37.7H827.9z"/>
					</g>
					<g>
						<g>
							<path class="st11" d="M859.9,198.4c0,0.2-5.7,0.6-12.7,1.1c-7,0.4-12.8,0.6-12.8,0.5c0-0.2,5.7-0.6,12.7-1.1
								C854.2,198.4,859.9,198.2,859.9,198.4z"/>
						</g>
					</g>
					<g>
						<g>
							<path class="st11" d="M859.9,204.8c0,0.2-5.7,0.6-12.7,1.1c-7,0.4-12.8,0.6-12.8,0.5c0-0.2,5.7-0.6,12.7-1.1
								C854.2,204.9,859.9,204.6,859.9,204.8z"/>
						</g>
					</g>
					<g>
						<g>
							<path class="st11" d="M853.5,211.1c0,0.2-3.2,0.5-7.2,0.7c-4,0.2-7.3,0.3-7.3,0.1c0-0.2,3.2-0.5,7.2-0.7
								C850.2,211,853.5,210.9,853.5,211.1z"/>
						</g>
					</g>
				</g>
				<g>
					<g>
						<path class="st13" d="M856.7,140.5c0,0,0.3,30.3,1.8,39.5l38-1.8c0,0-3.3-29.8-2.1-37.7H856.7z"/>
					</g>
					<g>
						<g>
							<path class="st11" d="M888.7,153.2c0,0.2-5.7,0.6-12.7,1.1c-7,0.4-12.8,0.6-12.8,0.5c0-0.2,5.7-0.6,12.7-1.1
								C882.9,153.3,888.7,153.1,888.7,153.2z"/>
						</g>
					</g>
					<g>
						<g>
							<path class="st11" d="M888.7,159.7c0,0.2-5.7,0.6-12.7,1.1c-7,0.4-12.8,0.6-12.8,0.5c0-0.2,5.7-0.6,12.7-1.1
								C883,159.7,888.7,159.5,888.7,159.7z"/>
						</g>
					</g>
					<g>
						<g>
							<path class="st11" d="M882.2,166c0,0.2-3.2,0.5-7.2,0.7c-4,0.2-7.3,0.3-7.3,0.1c0-0.2,3.2-0.5,7.2-0.7
								C879,165.9,882.2,165.8,882.2,166z"/>
						</g>
					</g>
				</g>
				<g>
					<g>
						<path class="st13" d="M688.7,160.6c0,0,0.3,30.3,1.8,39.5l38-1.8c0,0-3.3-29.8-2.1-37.7H688.7z"/>
					</g>
					<g>
						<g>
							<path class="st11" d="M720.7,173.3c0,0.2-5.7,0.6-12.7,1.1c-7,0.4-12.8,0.6-12.8,0.5c0-0.2,5.7-0.6,12.7-1.1
								C715,173.3,720.7,173.1,720.7,173.3z"/>
						</g>
					</g>
					<g>
						<g>
							<path class="st11" d="M720.7,179.7c0,0.2-5.7,0.6-12.7,1.1c-7,0.4-12.8,0.6-12.8,0.5c0-0.2,5.7-0.6,12.7-1.1
								C715,179.8,720.7,179.6,720.7,179.7z"/>
						</g>
					</g>
					<g>
						<g>
							<path class="st11" d="M714.2,186c0,0.2-3.2,0.5-7.2,0.7c-4,0.2-7.3,0.3-7.3,0.1c0-0.2,3.2-0.5,7.2-0.7
								C711,185.9,714.2,185.9,714.2,186z"/>
						</g>
					</g>
				</g>
				<g>
					<g>
						<path class="st6" d="M683.9,227.8c0,0,0.3,30.3,1.8,39.5l38-1.8c0,0-3.3-29.8-2.1-37.7H683.9z"/>
					</g>
					<g>
						<g>
							<path class="st11" d="M715.9,240.5c0,0.2-5.7,0.6-12.7,1.1c-7,0.4-12.8,0.6-12.8,0.5c0-0.2,5.7-0.6,12.7-1.1
								C710.2,240.6,715.9,240.4,715.9,240.5z"/>
						</g>
					</g>
					<g>
						<g>
							<path class="st11" d="M715.9,247c0,0.2-5.7,0.6-12.7,1.1c-7,0.4-12.8,0.6-12.8,0.5c0-0.2,5.7-0.6,12.7-1.1
								C710.2,247,715.9,246.8,715.9,247z"/>
						</g>
					</g>
					<g>
						<g>
							<path class="st11" d="M709.5,253.3c0,0.2-3.2,0.5-7.2,0.7c-4,0.2-7.3,0.3-7.3,0.1c0-0.2,3.2-0.5,7.2-0.7
								C706.2,253.1,709.5,253.1,709.5,253.3z"/>
						</g>
					</g>
				</g>
				<g>
					<g>
						<path class="st9" d="M564.8,162c0,0,3.1,28.1-0.9,43.4l-37.5-1.6c0,0,8-27.7,3.1-39.9L564.8,162z"/>
					</g>
					<g>
						<g>
							<path class="st13" d="M526.3,157.3c0,0-2.4,31.8-4.4,38.2l34.1,3.6l5.1-4.9c0,0,3.6-28.1,3.1-36L526.3,157.3z"/>
						</g>
						<g>
							<polygon class="st12" points="556.8,194 556,199.1 561.1,194.2 							"/>
						</g>
						<g>
							<g>
								<path class="st11" d="M557.1,173.3c0,0.1-1.5-0.1-3.8-0.5c-2.5-0.4-5.7-0.8-9.2-1.3c-3.5-0.4-6.7-0.8-9.2-1.1
									c-2.4-0.3-3.8-0.5-3.8-0.6c0-0.1,1.5,0,3.9,0.1c2.4,0.2,5.6,0.5,9.2,1c3.6,0.5,6.8,1,9.2,1.5
									C555.7,172.9,557.2,173.3,557.1,173.3z"/>
							</g>
						</g>
						<g>
							<g>
								<path class="st11" d="M555.7,180.3c0,0.1-1.4,0-3.7-0.1c-2.3-0.2-5.4-0.5-8.9-0.9c-3.5-0.4-6.6-0.9-8.8-1.3
									c-2.2-0.4-3.6-0.7-3.6-0.8c0-0.1,1.4,0.1,3.7,0.4c2.4,0.3,5.5,0.7,8.8,1.1c3.4,0.4,6.4,0.8,8.8,1.1
									C554.3,180.1,555.7,180.3,555.7,180.3z"/>
							</g>
						</g>
						<g>
							<g>
								<path class="st11" d="M553.5,186.8c0,0.2-5.2-0.4-11.5-1.2c-6.3-0.8-11.4-1.7-11.4-1.8c0-0.2,5.2,0.4,11.5,1.2
									C548.4,185.8,553.6,186.6,553.5,186.8z"/>
							</g>
						</g>
					</g>
				</g>
				<g>
					<g>
						<g>
							<path class="st13" d="M445.1,195.6c0,0-2.4,31.8-4.4,38.2l34.1,3.6l5.1-4.9c0,0,3.6-28.1,3.1-36L445.1,195.6z"/>
						</g>
						<g>
							<polygon class="st12" points="475.6,232.3 474.8,237.4 479.9,232.6 							"/>
						</g>
						<g>
							<g>
								<path class="st11" d="M475.9,211.7c0,0.1-1.5-0.1-3.8-0.5c-2.5-0.4-5.7-0.8-9.2-1.3c-3.5-0.4-6.7-0.8-9.2-1.1
									c-2.4-0.3-3.8-0.5-3.8-0.6c0-0.1,1.5,0,3.9,0.1c2.4,0.2,5.6,0.5,9.2,1c3.6,0.5,6.8,1,9.2,1.5
									C474.5,211.2,476,211.6,475.9,211.7z"/>
							</g>
						</g>
						<g>
							<g>
								<path class="st11" d="M474.5,218.7c0,0.1-1.4,0-3.7-0.1c-2.3-0.2-5.4-0.5-8.9-0.9c-3.5-0.4-6.6-0.9-8.8-1.3
									c-2.2-0.4-3.6-0.7-3.6-0.8c0-0.1,1.4,0.1,3.7,0.4c2.4,0.3,5.5,0.7,8.8,1.1c3.4,0.4,6.4,0.8,8.8,1.1
									C473.1,218.4,474.5,218.6,474.5,218.7z"/>
							</g>
						</g>
						<g>
							<g>
								<path class="st11" d="M472.3,225.1c0,0.2-5.2-0.4-11.5-1.2c-6.3-0.8-11.4-1.7-11.4-1.8c0-0.2,5.2,0.4,11.5,1.2
									C467.2,224.2,472.3,225,472.3,225.1z"/>
							</g>
						</g>
					</g>
				</g>
				<g>
					<rect x="380.6" y="135.3" class="st6" width="28.5" height="6.5"/>
				</g>
				<g>
					<rect x="380.6" y="291.1" class="st12" width="28.5" height="6.5"/>
				</g>
				<g>
					<rect x="380.6" y="343.8" class="st12" width="28.5" height="6.5"/>
				</g>
				<g>
					<rect x="489.5" y="96.8" class="st2" width="98.5" height="6.5"/>
				</g>
				<g>
					<rect x="685.7" y="96.8" class="st2" width="98.5" height="6.5"/>
				</g>
				<g>
					<rect x="831.9" y="96.8" class="st2" width="47" height="6.5"/>
				</g>
				<g>
					<g>
						<path class="st12" d="M891.5,124.8c0,0.2-115.5,0.3-257.9,0.3c-142.4,0-257.9-0.1-257.9-0.3c0-0.2,115.4-0.3,257.9-0.3
							C776,124.5,891.5,124.6,891.5,124.8z"/>
					</g>
				</g>
				<g>
					<g>
						<path class="st12" d="M891.5,279.8c0,0.2-115.5,0.3-257.9,0.3c-142.4,0-257.9-0.1-257.9-0.3c0-0.2,115.4-0.3,257.9-0.3
							C776,279.5,891.5,279.7,891.5,279.8z"/>
					</g>
				</g>
				<g>
					<g>
						<path class="st12" d="M891.5,386.2c0,0.2-115.5,0.3-257.9,0.3c-142.4,0-257.9-0.1-257.9-0.3s115.4-0.3,257.9-0.3
							C776,385.9,891.5,386.1,891.5,386.2z"/>
					</g>
				</g>
				<g>
					<g>
						<path class="st12" d="M891.5,334.3c0,0.2-115.5,0.3-257.9,0.3c-142.4,0-257.9-0.1-257.9-0.3c0-0.2,115.4-0.3,257.9-0.3
							C776,334,891.5,334.2,891.5,334.3z"/>
					</g>
				</g>
				<g>
					<g>
						<path class="st12" d="M419.4,387.6c-0.2,0-0.3-65.9-0.3-147.1c0-81.3,0.1-147.2,0.3-147.2s0.3,65.9,0.3,147.2
							C419.8,321.7,419.6,387.6,419.4,387.6z"/>
					</g>
				</g>
				<g>
					<g>
						<path class="st12" d="M657.7,389.1c-0.2,0-0.3-65.8-0.3-146.9c0-81.1,0.1-146.9,0.3-146.9c0.2,0,0.3,65.8,0.3,146.9
							C658,323.4,657.9,389.1,657.7,389.1z"/>
					</g>
				</g>
				<g>
					<g>
						<path class="st12" d="M812.1,390.7c-0.2,0-0.3-65.8-0.3-146.9c0-81.2,0.1-146.9,0.3-146.9c0.2,0,0.3,65.8,0.3,146.9
							C812.4,324.9,812.2,390.7,812.1,390.7z"/>
					</g>
				</g>
				<g>
					<g>
						<path class="st12" d="M717.3,221.3c0,0,0.2,0,0.5,0.2c0.3,0.1,0.8,0.3,1.3,0.6c1.1,0.6,2.8,1.4,4.8,2.9c1.9,1.5,4.1,3.6,6,6.5
							c1,1.4,1.9,3.1,2.7,4.9c0.7,1.8,1.4,3.8,1.8,6c0.8,4.3,0.5,9.2-1.2,14.1c-1.7,4.8-4.8,9.6-9.3,13.3
							c-4.4,3.7-10.3,6.2-16.6,6.7c-6.3,0.6-12.9-0.7-18.8-4c-5.8-3.3-10.3-8.4-13-14.1c-2.7-5.7-3.4-12.1-2.1-17.7
							c1.2-5.7,4.1-10.6,7.8-14.2c1.9-1.8,3.9-3.2,6.1-4.3c2.1-1.1,4.3-1.8,6.4-2.3c4.3-1,8.3-0.9,11.7-0.7c3.4,0.2,6.4,0.7,8.8,1.2
							c2.4,0.5,4.2,0.9,5.5,1.2c0.6,0.1,1.1,0.3,1.4,0.3c0.3,0.1,0.5,0.1,0.5,0.1c0,0-0.2,0-0.5-0.1c-0.3-0.1-0.8-0.2-1.4-0.3
							c-1.2-0.3-3.1-0.6-5.5-1.1c-2.4-0.4-5.3-0.9-8.7-1.1c-3.4-0.2-7.4-0.2-11.6,0.8c-2.1,0.5-4.2,1.2-6.3,2.3
							c-2.1,1-4.1,2.5-5.9,4.2c-3.6,3.5-6.4,8.4-7.6,13.9c-1.2,5.5-0.6,11.8,2.1,17.3c2.6,5.6,7.1,10.6,12.7,13.9
							c5.7,3.2,12.3,4.5,18.4,4c6.2-0.5,11.9-2.9,16.3-6.5c4.4-3.6,7.5-8.3,9.2-13c1.7-4.8,2-9.6,1.3-13.8c-0.4-2.1-1-4.1-1.7-5.9
							c-0.8-1.8-1.6-3.4-2.6-4.8c-1.9-2.9-4-5-5.9-6.5c-1.9-1.5-3.6-2.4-4.7-3c-0.6-0.3-1-0.5-1.3-0.6
							C717.4,221.4,717.3,221.3,717.3,221.3z"/>
					</g>
				</g>
				<g>
					<g>
						<path class="st12" d="M729.5,225c-0.1-0.1,4.6-4,10.4-8.7c5.9-4.7,10.7-8.4,10.8-8.2c0.1,0.1-4.6,4-10.4,8.7
							C734.5,221.4,729.6,225.1,729.5,225z"/>
					</g>
				</g>
				<g>
					<g>
						<path class="st12" d="M748,225.7c0,0-0.5,0.1-1.5,0.2c-1.1,0.1-2.5,0.2-4.1,0.4c-3.5,0.3-8.3,0.6-13.6,1l-0.4,0l0.1-0.4
							c0-0.2,0.1-0.3,0.2-0.5c1.6-5.3,3.9-9.7,5.9-12.8c1-1.5,1.8-2.7,2.4-3.5c0.6-0.8,1-1.2,1-1.2c0,0-0.3,0.5-0.8,1.3
							c-0.6,0.8-1.4,2-2.3,3.6c-1.8,3.1-4.1,7.5-5.7,12.7c-0.1,0.2-0.1,0.3-0.2,0.5l-0.3-0.4c5.4-0.3,10.2-0.6,13.7-0.8
							c1.7-0.1,3-0.1,4.1-0.2C747.5,225.6,748,225.6,748,225.7z"/>
					</g>
				</g>
				<g>
					<g>
						<path class="st12" d="M879.4,298.6c0,0,0.4-0.9,1-2.5c0.7-1.6,1.5-3.9,2.2-6.9c1.4-5.9,2-14.7-0.9-23.6
							c-2.9-8.9-8.5-15.7-13.2-19.7c-2.3-2-4.4-3.4-5.8-4.3c-1.5-0.9-2.3-1.4-2.3-1.4c0,0,0.2,0.1,0.6,0.3c0.4,0.2,1,0.5,1.8,0.9
							c1.5,0.8,3.6,2.2,6,4.2c2.4,2,5,4.6,7.4,8c2.4,3.3,4.6,7.3,6.1,11.8c1.4,4.5,2.1,9,2.1,13.1c0,4.1-0.5,7.8-1.3,10.8
							c-0.8,3-1.7,5.4-2.4,6.9c-0.3,0.8-0.7,1.4-0.9,1.8C879.6,298.4,879.4,298.6,879.4,298.6z"/>
					</g>
				</g>
				<g>
					<g>
						<path class="st12" d="M890.3,292c0.1,0.1-1.1,1.1-3.1,2.7c-1,0.8-2.2,1.8-3.5,2.8c-0.7,0.5-1.3,1.1-2.1,1.6
							c-0.7,0.5-1.4,1.3-2.7,1.3c-0.6,0-1.1-0.5-1.4-0.9c-0.3-0.5-0.4-0.9-0.5-1.4c-0.2-0.9-0.4-1.7-0.6-2.5c-0.4-1.6-0.7-3-1.1-4.3
							c-0.6-2.5-0.9-4-0.8-4c0.1,0,0.6,1.5,1.2,3.9c0.4,1.3,0.8,2.7,1.2,4.3c0.2,0.8,0.4,1.7,0.7,2.5c0.2,0.9,0.5,1.8,1.3,1.9
							c0.8,0,1.5-0.6,2.2-1.2c0.7-0.6,1.4-1.1,2.1-1.6c1.3-1,2.5-1.9,3.5-2.7C888.9,292.8,890.2,291.9,890.3,292z"/>
					</g>
				</g>
				<g>
					<g>
						<g>
							<path class="st12" d="M592.5,221c0,0.2-11.6,3.3-26,6.9c-14.4,3.7-26.1,6.5-26.2,6.3c0-0.2,11.6-3.3,26-6.9
								C580.7,223.7,592.5,220.8,592.5,221z"/>
						</g>
					</g>
					<g>
						<g>
							<path class="st12" d="M600,227.2c0,0.2-12.8,3.9-28.6,8.3c-15.8,4.4-28.7,7.9-28.8,7.7s12.8-3.9,28.6-8.3
								C587.1,230.5,600,227,600,227.2z"/>
						</g>
					</g>
					<g>
						<g>
							<path class="st12" d="M604.6,237.4c0,0.2-12.2,3.2-27.3,6.9c-15.1,3.6-27.5,6.4-27.5,6.3c0-0.2,12.2-3.2,27.3-6.9
								C592.3,240.1,604.6,237.3,604.6,237.4z"/>
						</g>
					</g>
				</g>
				<g>
					<g>
						<g>
							<polygon class="st9" points="539.9,344.4 549.2,393.5 642,375.9 625.8,328.1 							"/>
						</g>
						<g>
							<g>
								<g>
									<g>
										
											<rect x="541.3" y="336.1" transform="matrix(0.9825 -0.186 0.186 0.9825 -56.3981 115.254)" class="st11" width="89.4" height="44.3"/>
									</g>
									<g>
										<g>
											<path class="st12" d="M634.1,371.6c0,0-0.1-0.3-0.2-0.8c-0.1-0.5-0.3-1.3-0.5-2.3c-0.4-2-1-4.9-1.7-8.7
												c-1.5-7.5-3.5-18.4-6.1-31.7l0.3,0.2c-23,4.4-53.9,10.3-87.9,16.7l0,0l0.2-0.4c2.9,15.3,5.7,30,8.2,43.5l-0.3-0.2
												c25.6-4.8,47.5-8.9,63.1-11.8c7.8-1.4,14-2.6,18.2-3.4c2.1-0.4,3.7-0.7,4.9-0.9c0.5-0.1,1-0.2,1.3-0.2
												C633.9,371.6,634.1,371.6,634.1,371.6s-0.1,0-0.4,0.1c-0.3,0.1-0.7,0.1-1.2,0.3c-1.1,0.2-2.7,0.5-4.8,0.9
												c-4.2,0.8-10.4,2-18.1,3.5c-15.6,3-37.6,7.2-63.2,12.1l-0.3,0.1l-0.1-0.3c-2.6-13.4-5.3-28.2-8.2-43.5l-0.1-0.3l0.3-0.1
												l0,0c33.9-6.4,64.9-12.2,87.9-16.6l0.2,0l0,0.2c2.5,13.4,4.5,24.3,5.9,31.9c0.7,3.7,1.2,6.6,1.6,8.6
												c0.2,1,0.3,1.7,0.4,2.2C634,371.4,634.1,371.6,634.1,371.6z"/>
										</g>
									</g>
								</g>
								<g>
									<g>
										<g>
											
												<rect x="550.6" y="350.2" transform="matrix(0.9825 -0.186 0.186 0.9825 -57.6119 111.0438)" class="st11" width="24.7" height="24.7"/>
										</g>
										<g>
											<g>
												<path class="st12" d="M577.4,372.4c0,0-0.1-0.2-0.1-0.5c-0.1-0.3-0.2-0.8-0.3-1.3c-0.2-1.2-0.6-2.9-1-5
													c-0.8-4.3-2-10.3-3.5-17.5l0.3,0.2c-7.1,1.4-15.4,2.9-24.3,4.6c-0.1,0.1,0.5-0.7,0.2-0.4l0,0l0,0l0,0l0,0.1l0,0.1l0,0.2
													l0.1,0.4l0.2,0.8c0.1,0.6,0.2,1.1,0.3,1.6c0.2,1.1,0.4,2.2,0.6,3.2c0.4,2.1,0.8,4.2,1.2,6.3c0.8,4.1,1.5,7.9,2.1,11.5
													l-0.3-0.2c7.2-1.3,13.3-2.4,17.6-3.2c2.1-0.4,3.8-0.7,5-0.9c0.5-0.1,1-0.2,1.3-0.2C577.3,372.4,577.4,372.4,577.4,372.4
													c0,0-0.1,0-0.4,0.1c-0.3,0.1-0.7,0.2-1.3,0.3c-1.2,0.2-2.8,0.6-4.9,1c-4.3,0.9-10.4,2-17.7,3.5l-0.3,0.1l0-0.3
													c-0.7-3.5-1.4-7.4-2.2-11.5c-0.4-2-0.8-4.1-1.2-6.3c-0.2-1.1-0.4-2.2-0.6-3.2c-0.1-0.5-0.2-1.1-0.3-1.6l-0.2-0.8
													l-0.1-0.4l0-0.2l0-0.1l0-0.1l0,0l0,0l0,0c-0.2,0.3,0.3-0.4,0.2-0.4c8.9-1.7,17.2-3.2,24.3-4.6l0.3,0l0,0.3
													c1.3,7.3,2.4,13.4,3.2,17.7c0.4,2.1,0.7,3.7,0.9,4.9c0.1,0.5,0.2,0.9,0.2,1.3C577.4,372.3,577.4,372.4,577.4,372.4z"/>
											</g>
										</g>
									</g>
									<g>
										<g>
											<path class="st12" d="M577.4,372.4c-0.1,0-0.1-0.6-0.5-1.7c-0.4-1.1-1-2.8-2.6-4.1l0,0c-0.8-0.7-1.8-1.4-3-1.8
												c-1.2-0.4-2.6-0.6-4.1-0.5l-0.5,0.1l0.3-0.5c1-1.6,1.2-3.9,0.2-5.8c-0.5-1-1.2-1.9-2.2-2.4c-1-0.6-2.1-0.8-3.3-0.8
												c-1.3,0.1-2.6,0.5-3.6,1.3c-1,0.8-1.6,1.9-1.9,3.1c-0.5,2.4,0.4,4.8,2,6.1l0.3,0.2l-0.3,0.2c-1.7,1-2.9,2.4-3.7,3.7
												c-0.8,1.4-1.2,2.7-1.4,3.8c-0.4,2.3,0,3.6-0.1,3.6c0,0-0.1-0.3-0.2-0.9c-0.1-0.6-0.1-1.5,0-2.7c0.2-1.2,0.5-2.6,1.3-4
												c0.8-1.4,2-2.9,3.8-4l0,0.4c-1.8-1.4-2.8-4-2.2-6.6c0.3-1.3,1-2.5,2.1-3.4c1.1-0.9,2.5-1.4,3.9-1.5
												c1.3-0.1,2.6,0.2,3.6,0.9c1.1,0.6,1.9,1.6,2.4,2.7c1,2.1,0.8,4.6-0.3,6.4l-0.2-0.4c1.5-0.1,3,0.1,4.3,0.6
												c1.3,0.5,2.3,1.2,3.1,2l0,0c1.7,1.5,2.2,3.2,2.6,4.3c0.1,0.6,0.2,1,0.3,1.3C577.4,372.2,577.4,372.4,577.4,372.4z"/>
										</g>
									</g>
								</g>
								<g>
									<g>
										<g>
											<path class="st11" d="M582.1,347.2c7-1.3,14-2.7,21.1-4"/>
										</g>
										<g>
											<g>
												<path class="st12" d="M603.2,343.3c0,0.2-4.7,1.2-10.5,2.3c-5.8,1.1-10.6,1.9-10.6,1.7c0-0.2,4.7-1.2,10.5-2.3
													C598.4,343.9,603.1,343.1,603.2,343.3z"/>
											</g>
										</g>
									</g>
									<g>
										<g>
											<path class="st11" d="M583,352.1c1.4-0.3,2.8-0.5,4.3-0.8"/>
										</g>
										<g>
											<g>
												<path class="st12" d="M587.3,351.3c0,0.2-0.9,0.5-2.1,0.7c-1.2,0.2-2.2,0.3-2.2,0.1c0-0.2,0.9-0.5,2.1-0.7
													C586.3,351.2,587.2,351.2,587.3,351.3z"/>
											</g>
										</g>
									</g>
									<g>
										<g>
											<path class="st12" d="M622.3,353.5c0,0.2-8.4,1.9-18.8,3.9c-10.4,2-18.9,3.4-18.9,3.3c0-0.2,8.4-1.9,18.8-3.9
												C613.8,354.8,622.3,353.4,622.3,353.5z"/>
										</g>
									</g>
									<g>
										<g>
											<path class="st12" d="M623.3,357.7c0,0.2-8.4,1.9-18.9,3.9c-10.5,2-19,3.5-19,3.3c0-0.2,8.4-1.9,18.9-3.9
												C614.8,359,623.3,357.6,623.3,357.7z"/>
										</g>
									</g>
									<g>
										<g>
											<path class="st12" d="M623.6,362.8c0,0-0.5,0.2-1.4,0.4c-1.1,0.2-2.4,0.5-4,0.9c-3.4,0.7-8,1.6-13.2,2.6
												c-5.1,1-9.8,1.8-13.2,2.4c-1.6,0.3-2.9,0.5-4,0.7c-0.9,0.1-1.5,0.2-1.5,0.2c0,0,0.5-0.2,1.4-0.4c1.1-0.2,2.4-0.5,4-0.9
												c3.4-0.7,8-1.6,13.2-2.6c5.1-1,9.8-1.8,13.2-2.4c1.6-0.3,2.9-0.5,4-0.7C623.1,362.8,623.6,362.7,623.6,362.8z"/>
										</g>
									</g>
								</g>
							</g>
							<g>
								<g>
									<path class="st6" d="M585.3,342.5c0,0,0.1-0.1,0.2-0.1c0.2-0.1,0.4-0.2,0.7-0.4c0.6-0.3,1.6-0.7,2.8-1.1
										c2.5-0.8,6.4-1.6,11.2-1c2.4,0.3,4.9,0.9,7.5,2.2c1.3,0.7,2.5,1.5,3.5,2.7c1,1.2,1.5,2.9,1,4.5c-0.4,1.6-1.6,2.9-2.9,4
										c-1.3,1-2.8,1.8-4.4,2.6c-3.1,1.5-6.4,2.8-10,3.4c-3.6,0.7-7.2,0.7-10.6-0.1c-1.7-0.4-3.3-1-4.7-1.9
										c-1.4-0.9-2.6-2.1-3.2-3.7c-0.6-1.6-0.3-3.3,0.5-4.6c0.8-1.3,1.9-2.4,3-3.2c2.3-1.7,4.6-2.9,6.8-3.7c4.5-1.7,8.4-2,11-2
										c1.3,0,2.4,0.1,3,0.2c0.3,0.1,0.6,0.1,0.8,0.1c0.2,0,0.3,0.1,0.3,0.1c0,0-0.1,0-0.3,0c-0.2,0-0.5,0-0.8-0.1
										c-0.7-0.1-1.7-0.1-3-0.1c-2.6,0-6.5,0.4-10.9,2.1c-2.2,0.9-4.5,2.1-6.7,3.7c-1.1,0.8-2.1,1.8-2.8,3.1
										c-0.7,1.2-1,2.8-0.5,4.2c0.5,1.4,1.7,2.6,3,3.4c1.3,0.9,2.9,1.4,4.5,1.9c3.3,0.8,6.8,0.8,10.3,0.1c3.5-0.7,6.8-1.9,9.9-3.4
										c1.5-0.7,3-1.5,4.3-2.5c1.3-1,2.3-2.2,2.7-3.6c0.4-1.4,0-3-0.9-4.1c-0.9-1.1-2.1-2-3.3-2.6c-2.5-1.2-5-1.9-7.3-2.2
										c-4.7-0.6-8.5,0.1-11,0.8c-1.3,0.4-2.2,0.8-2.9,1c-0.3,0.1-0.5,0.2-0.7,0.3C585.4,342.5,585.3,342.5,585.3,342.5z"/>
								</g>
							</g>
							<g>
								<g>
									<path class="st6" d="M610.5,341.8c-0.1-0.1,2.7-2.6,6.2-5.5c3.6-2.9,6.5-5.1,6.6-5c0.1,0.1-2.7,2.6-6.2,5.5
										C613.6,339.7,610.6,342,610.5,341.8z"/>
								</g>
							</g>
							<g>
								<g>
									<path class="st6" d="M618.4,340.8c0,0.2-3.2,1-7.3,1.8c-0.3,0.1-0.6,0.1-0.9,0.2l-0.5,0.1l0.1-0.5c0.9-3.7,2.5-6.2,2.6-6.1
										c0.2,0.1-1.2,2.6-2.1,6.2l-0.4-0.4c0.3-0.1,0.6-0.1,0.9-0.2C615,341.2,618.4,340.6,618.4,340.8z"/>
								</g>
							</g>
							<g>
								<g>
									<path class="st6" d="M605.3,346.1c0,0.2-5.2,1.1-11.6,2.1c-6.4,1-11.6,1.6-11.7,1.5c0-0.2,5.2-1.1,11.6-2.1
										C600,346.6,605.3,345.9,605.3,346.1z"/>
								</g>
							</g>
						</g>
					</g>
					<g>
						<path class="st6" d="M578.9,336.7c0.6,2.9-1.4,5.7-4.3,6.3s-5.7-1.4-6.3-4.3c-0.6-2.9,1.4-5.7,4.3-6.3
							C575.6,331.9,578.4,333.8,578.9,336.7z"/>
						<path class="st12" d="M573.6,343.2c-1.1,0-2.1-0.3-3-0.9c-1.2-0.8-2-2-2.3-3.5c-0.3-1.4,0-2.9,0.8-4.1c0.8-1.2,2-2,3.5-2.3
							c0.3-0.1,0.7-0.1,1-0.1c2.6,0,4.8,1.8,5.3,4.4l0,0c0.6,2.9-1.4,5.8-4.3,6.3C574.3,343.1,574,343.2,573.6,343.2z M573.6,332.4
							c-0.3,0-0.7,0-1,0.1c-1.4,0.3-2.6,1.1-3.4,2.2c-0.8,1.2-1.1,2.6-0.8,4c0.3,1.4,1.1,2.6,2.2,3.4c1.2,0.8,2.6,1.1,4,0.8
							c2.9-0.6,4.8-3.4,4.3-6.3l0,0C578.4,334.2,576.2,332.4,573.6,332.4z"/>
					</g>
				</g>
			</g>
			<g>
				<g>
					<polygon class="st13" points="268.8,578.7 265.5,591.9 288,594.4 288.8,581.3 					"/>
					<g>
						<path class="st12" d="M279,579.3c0.2,0-0.1,2.7-0.7,6.1c-0.6,3.3-1.2,6-1.4,6c-0.2,0,0.1-2.7,0.7-6.1
							C278.1,582,278.8,579.3,279,579.3z"/>
					</g>
					<g>
						<path class="st12" d="M288.1,593c0,0.1-1.3-0.1-3.3-0.4c-2.2-0.3-4.9-0.7-7.8-1.2c-3-0.5-5.8-0.9-7.8-1.3
							c-2-0.4-3.2-0.7-3.2-0.8c0-0.1,1.3,0.1,3.3,0.4c2.2,0.3,4.9,0.7,7.8,1.2c3,0.5,5.8,0.9,7.8,1.3
							C286.9,592.6,288.1,592.9,288.1,593z"/>
					</g>
				</g>
				<g>
					<g>
						<g>
							<g>
								<g>
									<path class="st13" d="M371.7,587.5l-0.2-8.2h-24.4l0.2,14.8l1.5,0.1c6.7,0.2,34.3,0.7,38.8-0.8
										C392.5,591.8,371.7,587.5,371.7,587.5z"/>
								</g>
							</g>
						</g>
						<g>
							<g>
								<g>
									<path class="st12" d="M346.9,593.6c0,0,0.1,0,0.4,0c0.4,0,0.8,0,1.2,0c1.2,0,2.7,0.1,4.4,0.1c3.8,0.1,8.9,0.1,14.7-0.1
										c5.7-0.1,10.9-0.3,14.6-0.6c1.7-0.1,3.2-0.2,4.4-0.3c0.4,0,0.8-0.1,1.2-0.1c0.3,0,0.4,0,0.4-0.1c0,0-0.1,0-0.4,0
										c-0.4,0-0.8,0-1.2,0c-1.2,0.1-2.7,0.1-4.4,0.2c-3.7,0.2-8.9,0.3-14.6,0.5c-5.7,0.1-10.9,0.1-14.6,0.2c-1.8,0-3.2,0-4.4,0
										c-0.4,0-0.8,0-1.2,0C347,593.6,346.9,593.6,346.9,593.6z"/>
								</g>
							</g>
						</g>
						<g>
							<g>
								<g>
									<path class="st12" d="M379.8,593.5c0.1,0,0.1-1.1,0.8-2.1c0.6-1.1,1.5-1.7,1.5-1.7c0-0.1-1.1,0.4-1.7,1.6
										C379.6,592.4,379.7,593.6,379.8,593.5z"/>
								</g>
							</g>
						</g>
						<g>
							<g>
								<g>
									<path class="st12" d="M372.5,590c0.1,0,0.4-0.4,0.7-1c0.3-0.6,0.6-1.1,0.5-1.1c-0.1,0-0.4,0.4-0.7,1
										C372.6,589.5,372.4,590,372.5,590z"/>
								</g>
							</g>
						</g>
						<g>
							<g>
								<g>
									<path class="st12" d="M370.5,589c0.1,0.1,0.4-0.2,0.8-0.6c0.4-0.4,0.7-0.7,0.6-0.8c-0.1-0.1-0.4,0.2-0.8,0.6
										C370.7,588.6,370.4,589,370.5,589z"/>
								</g>
							</g>
						</g>
						<g>
							<g>
								<g>
									<path class="st12" d="M369.2,586.8c0,0.1,0.6,0.1,1.3,0.1c0.7,0,1.3-0.1,1.3-0.2c0-0.1-0.6-0.1-1.3-0.1
										C369.8,586.6,369.2,586.7,369.2,586.8z"/>
								</g>
							</g>
						</g>
						<g>
							<g>
								<g>
									<path class="st12" d="M368.7,585.1c0,0.1,0.6,0.3,1.4,0.4c0.8,0,1.5-0.2,1.5-0.2c0-0.1-0.7,0-1.4-0.1
										C369.4,585.2,368.8,585.1,368.7,585.1z"/>
								</g>
							</g>
						</g>
						<g>
							<g>
								<g>
									<path class="st12" d="M373.3,587.9c0,0,0.6,0.1,1.6,0c0.5-0.1,1.1-0.2,1.7-0.4c0.3-0.1,0.6-0.2,0.9-0.4
										c0.2-0.1,0.3-0.3,0.4-0.5c0.1-0.2-0.1-0.5-0.3-0.6c-1.5-0.7-3,0.1-3.5,0.9c-0.3,0.4-0.4,0.8-0.5,1.1c-0.1,0.3,0,0.4,0,0.4
										c0.1,0,0.1-0.6,0.7-1.4c0.3-0.4,0.7-0.7,1.3-0.9c0.6-0.2,1.3-0.2,1.9,0.1c0.3,0.2,0.2,0.5-0.1,0.6
										c-0.3,0.2-0.6,0.3-0.9,0.4c-0.6,0.2-1.1,0.4-1.6,0.5C373.9,587.8,373.3,587.8,373.3,587.9z"/>
								</g>
							</g>
						</g>
						<g>
							<g>
								<g>
									<path class="st12" d="M373.7,588c0,0,0.2-0.4,0.2-1.1c0-0.3-0.2-0.8-0.5-1.1c-0.3-0.3-0.7-0.8-1.3-0.8
										c-0.4,0.1-0.5,0.5-0.5,0.7c0,0.3,0.2,0.5,0.3,0.7c0.2,0.4,0.5,0.7,0.8,0.9c0.5,0.5,0.9,0.6,0.9,0.6c0,0-0.3-0.3-0.8-0.8
										c-0.2-0.2-0.5-0.6-0.7-0.9c-0.2-0.3-0.4-0.9,0-1c0.4,0,0.8,0.3,1,0.6c0.3,0.3,0.4,0.7,0.5,1
										C373.8,587.5,373.6,587.9,373.7,588z"/>
								</g>
							</g>
						</g>
						<g>
							<g>
								<g>
									<path class="st12" d="M347.2,586.9c0,0.1,0.7-0.1,1.8,0c1.1,0.1,2.6,0.5,4,1.5c1.3,1,2.2,2.4,2.5,3.4
										c0.4,1,0.4,1.7,0.5,1.7c0,0,0-0.2,0-0.5c0-0.3-0.1-0.8-0.3-1.3c-0.3-1.1-1.2-2.5-2.6-3.6c-1.4-1.1-3-1.5-4.1-1.5
										c-0.6,0-1,0-1.3,0.1C347.4,586.8,347.2,586.9,347.2,586.9z"/>
								</g>
							</g>
						</g>
						<g>
							<g>
								<g>
									<path class="st12" d="M359.1,591.3c0,0.1,1.6,0.3,3.6,0.3c2,0,3.6-0.3,3.6-0.4c0-0.1-1.6,0-3.6,0.1
										C360.7,591.3,359.1,591.2,359.1,591.3z"/>
								</g>
							</g>
						</g>
						<g>
							<g>
								<g>
									<path class="st12" d="M354.3,591.4c-0.1,0.1,0.1,0.3,0.3,0.7c0.2,0.4,0.3,0.7,0.4,0.7c0.1,0,0.1-0.4-0.1-0.8
										C354.7,591.5,354.4,591.3,354.3,591.4z"/>
								</g>
							</g>
						</g>
						<g>
							<g>
								<g>
									<path class="st12" d="M352.5,589.2c-0.1,0.1,0.1,0.3,0.4,0.6c0.3,0.3,0.5,0.4,0.6,0.3c0.1-0.1-0.1-0.3-0.4-0.6
										C352.8,589.3,352.5,589.1,352.5,589.2z"/>
								</g>
							</g>
						</g>
						<g>
							<g>
								<g>
									<path class="st12" d="M349.9,588.2c0,0.1,0.3,0.1,0.7,0.2c0.4,0.1,0.6,0.3,0.7,0.2c0.1,0-0.1-0.4-0.6-0.5
										C350.2,588,349.8,588.1,349.9,588.2z"/>
								</g>
							</g>
						</g>
						<g>
							<g>
								<g>
									<path class="st12" d="M348,587.8c0,0.1,0.1,0.2,0.3,0.3c0.2,0.1,0.4,0.1,0.4,0c0-0.1-0.1-0.2-0.3-0.3
										C348.2,587.7,348,587.7,348,587.8z"/>
								</g>
							</g>
						</g>
					</g>
				</g>
				<path class="st14" d="M461,269.7L454,273l-6.4-10l3.7-7.7c0.4-0.7,0.7-1.5,1.1-2.4c0.5-1.1,0.7-2.2,0.8-3.4
					c0.1-1.4,0.2-3.3-0.1-4.4c-0.3-1.3,1-2.3,2-1.6c0.9,0.8,2,4.3,1.3,8.5c-0.7,4.3,4.3-0.3,6.1-1.9c1.8-1.6,7.7-6.3,8.7-6.2
					c1.4,0.3,1.3,1.8-0.5,3.4c-1.9,1.6-7.2,6.7-6.3,7.6c0,0,0,0,0,0c2.2,0.2,4,1.9,4.5,4c0.5,2.1,0.9,5-0.3,6
					C466.4,266.8,461,269.7,461,269.7z"/>
				<g>
					<g>
						<g>
							<path class="st14" d="M326.5,176.3l-0.2,60.2l25.8,1.2l0.7-14.7c0,0,9.2,1.8,11.5-6.7c1.5-5.4,1.1-47.5,1.1-47.5L326.5,176.3
								z"/>
						</g>
						<g>
							<path class="st12" d="M371.4,174.8c-1.7,3.6-10,10.2-10,10.2l-3.7,10c-3.3-2.5-7.6-2.4-8.4,3.3c-0.6,4.1,4.5,5,4.5,5
								c-3,5.1-5,9.2-9.4,14c-4.7,5.2-7.3,5.8-12.5,5.9h-5.6c0,0-11.5-9.6-9.2-35c2.3-25.4,25.1-18,30.5-24.3
								C356.4,153.6,377.2,162.8,371.4,174.8z"/>
						</g>
					</g>
					<g>
						<g>
							<path class="st13" d="M318.3,209.4c0,0,0.2,0,0.7,0c0.5,0,1.2,0,2-0.2c1.7-0.4,4.2-1.4,6.6-3.5c2.4-2.1,4.5-5.3,6.7-9
								c2.2-3.6,4.6-7.8,8.7-10.7c2.1-1.4,4.4-2.2,6.6-2.8c2.2-0.6,4.5-0.9,6.5-1.3c4.2-0.8,7.9-1.9,10.4-3.9
								c2.5-1.9,3.8-4.4,4.2-6.1c0.4-1.7,0.2-2.8,0.2-2.8c0,0,0,0.2,0.1,0.7c0,0.5,0,1.2-0.2,2.1c-0.4,1.8-1.6,4.2-4.2,6.2
								c-2.6,2-6.3,3.2-10.5,4c-4.1,0.8-8.9,1.4-13,4.1c-4,2.8-6.4,7-8.6,10.6c-2.2,3.6-4.3,6.9-6.8,9c-2.4,2.1-5,3.1-6.7,3.5
								C319.3,209.6,318.3,209.4,318.3,209.4z"/>
						</g>
					</g>
					<g>
						<g>
							<path class="st13" d="M317,188.8c0,0,0.4-0.2,1.2-0.4c0.8-0.3,2-0.7,3.5-0.8c1.5-0.2,3.6-0.1,5.6,1.2c0.9,0.6,1.8,1.7,2,3
								c0.2,1.3-0.1,2.8-1.1,3.8c-0.5,0.5-1.3,0.8-2,0.8c-0.8,0-1.5-0.2-2.2-0.6c-1.4-0.8-2.5-2.1-3-3.8c-1.1-3.2-0.3-7.3,2.6-9.8
								c1.4-1.3,3.2-2.1,5.2-2.3c2-0.2,4,0.2,6,0.8c2,0.5,3.9,1.2,6,1.4c2.1,0.3,4.2,0.3,6.3,0c2.1-0.3,4.2-0.8,6.1-1.7
								c1.9-0.9,3.5-2.3,4.1-4.3c0.5-1.9,0-4.1-1.3-5.4c-1.4-1.3-3.6-1.5-5.2-0.8c-0.8,0.4-1.5,1-1.9,1.8c-0.4,0.8-0.5,1.7-0.4,2.5
								c0.2,1.7,1.3,3.2,2.6,4.1c1.4,0.9,3,1.2,4.5,1.3c1.5,0,3-0.2,4.3-0.6c2.7-0.8,4.8-2.3,6.4-3.9c1.6-1.6,2.6-3.2,3.3-4.6
								c0.7-1.4,1-2.6,1.2-3.4c0.2-0.8,0.3-1.2,0.3-1.2s-0.1,0.4-0.2,1.3c-0.2,0.8-0.5,2-1.2,3.4c-0.7,1.4-1.7,3.1-3.3,4.7
								c-1.6,1.6-3.7,3.1-6.5,4c-1.4,0.4-2.8,0.7-4.4,0.7c-1.5,0-3.2-0.4-4.6-1.3c-1.4-0.9-2.5-2.5-2.7-4.3c-0.1-0.9,0-1.9,0.4-2.7
								c0.4-0.8,1.2-1.5,2-1.9c1.7-0.8,4-0.6,5.5,0.8c1.5,1.4,2,3.7,1.4,5.7c-0.6,2.1-2.3,3.6-4.2,4.5c-1.9,0.9-4,1.4-6.2,1.7
								c-2.2,0.3-4.3,0.3-6.4,0c-2.1-0.3-4.1-0.9-6-1.5c-1.9-0.5-3.9-1-5.8-0.8c-1.9,0.2-3.7,1-5.1,2.3c-2.8,2.4-3.6,6.5-2.5,9.5
								c0.5,1.6,1.5,2.9,2.8,3.6c0.7,0.4,1.4,0.6,2.1,0.6c0.7,0,1.4-0.3,1.9-0.8c1-0.9,1.3-2.4,1.1-3.6c-0.2-1.2-1-2.2-1.9-2.9
								c-1.8-1.3-3.9-1.4-5.4-1.2c-1.6,0.2-2.7,0.6-3.5,0.8C317.4,188.7,317,188.8,317,188.8z"/>
						</g>
					</g>
				</g>
				<g>
					<g>
						<polygon class="st2" points="299.9,352.8 265.5,578.7 294.1,582.3 334.4,392.8 344.6,583.6 375.5,583 370.2,346.9 						"/>
						<path class="st12" d="M343.9,584.3l0-0.7L334,398.3l-39.3,184.8l-30-3.8l34.6-227.2l0.6,0l71.1-5.9l0,0.8l5.3,236.9
							L343.9,584.3z M334.8,387.3l10.4,195.5l29.5-0.5l-5.2-234.6l-69,5.7l-34.2,224.6l27.2,3.5L334.8,387.3z"/>
					</g>
					<g>
						<g>
							<path class="st13" d="M366.3,582.7c-0.2,0-0.4-45.3-0.4-101.1c0-55.8,0.2-101.1,0.4-101.1c0.2,0,0.4,45.3,0.4,101.1
								C366.7,537.4,366.5,582.7,366.3,582.7z"/>
						</g>
					</g>
					<g>
						<g>
							<path class="st13" d="M287.8,581.9c0,0,0-0.2,0.1-0.5c0.1-0.4,0.1-0.8,0.3-1.4c0.2-1.3,0.6-3.1,1-5.5c1-4.8,2.3-11.7,4-20.2
								c3.5-17,8.4-40.5,14-66.4c5.6-25.9,11-49.3,14.9-66.2c2-8.4,3.6-15.2,4.7-20c0.6-2.3,1-4.1,1.3-5.4c0.2-0.6,0.3-1.1,0.4-1.4
								c0.1-0.3,0.1-0.5,0.1-0.5c0,0,0,0.2-0.1,0.5c-0.1,0.4-0.2,0.8-0.3,1.4c-0.3,1.3-0.7,3.1-1.2,5.5c-1.1,4.8-2.6,11.6-4.5,20.1
								c-3.8,16.9-9,40.4-14.7,66.3c-5.6,25.9-10.6,49.4-14.2,66.4c-1.8,8.5-3.2,15.3-4.3,20.1c-0.5,2.3-0.9,4.2-1.2,5.5
								c-0.1,0.6-0.2,1.1-0.3,1.4C287.9,581.7,287.8,581.9,287.8,581.9z"/>
						</g>
					</g>
					<g>
						<g>
							<path class="st13" d="M344.6,392.6c0,0.1-1.9,0.3-4.9,0.5c-3,0.2-7.2,0.4-11.8,0.9c-4.6,0.5-8.7,1.1-11.7,1.4
								c-3,0.4-4.9,0.6-4.9,0.5c0-0.1,1.8-0.5,4.8-1c3-0.5,7.1-1.2,11.7-1.7c4.6-0.5,8.8-0.6,11.8-0.7
								C342.7,392.5,344.6,392.5,344.6,392.6z"/>
						</g>
					</g>
					<g>
						<g>
							<path class="st13" d="M371,377.9c0,0.1-1.3,0.5-3.4,0.4c-2.1-0.1-5.1-0.8-7.8-2.7c-2.7-1.9-4.3-4.5-5-6.5
								c-0.8-2-0.8-3.3-0.7-3.3c0.1,0,0.3,1.3,1.2,3.1c0.8,1.9,2.5,4.3,5,6.1c2.5,1.8,5.3,2.6,7.4,2.8
								C369.7,378,371,377.8,371,377.9z"/>
						</g>
					</g>
				</g>
				<g>
					<g>
						<g>
							<g>
								<path class="st15" d="M296.5,365.5h75.3l-2.9-60.8c-0.5-12-0.4-13.4-0.7-24.4c0,0,11.2,13.6,20.1,23.1
									c5.3,5.8,13.8,7.4,20.9,4l46.2-32.3l-8.7-22.1l-42,25.7c-1.9-1.2-18.3-24.5-29.6-35.9c-7.2-7.3-17-11.5-27.3-11.8
									c-7.8-0.2-17.2,0.1-25.5,1c-12.7,1.4-22.7,11.6-23.8,24.3c-0.8,9.8-0.2,21.1-0.2,40.4L296.5,365.5z"/>
							</g>
						</g>
						<g>
							<path class="st15" d="M308.6,237.6c-7.1,3.1-36.7,41.1-38.8,65.8c-1.6,18.4,34.2,16.4,34.2,16.4s2.4-75.4,1.4-74.4"/>
						</g>
						<g>
							<g>
								<path class="st12" d="M301.4,244c0,0,0,0.3,0,0.8c0,0.6-0.1,1.3-0.2,2.3c-0.2,2-0.4,4.8-0.5,8.3c-0.4,7-0.7,16.7-1.1,27.4
									c-0.3,10.7-0.6,20.4-1,27.5c-0.2,3.5-0.4,6.4-0.5,8.3c-0.1,0.9-0.1,1.7-0.2,2.3c0,0.5-0.1,0.8-0.1,0.8s0-0.3,0-0.8
									c0-0.6,0.1-1.3,0.1-2.3c0.1-2.1,0.2-4.9,0.4-8.3c0.3-7,0.6-16.7,0.9-27.5c0.3-10.7,0.7-20.4,1.2-27.4
									c0.2-3.5,0.4-6.3,0.6-8.3c0.1-0.9,0.2-1.7,0.2-2.3C301.3,244.3,301.4,244,301.4,244z"/>
							</g>
						</g>
						<g>
							<g>
								<path class="st12" d="M298.4,292.4c0,0-0.3,0.6-1,1.4c-0.7,0.8-1.6,2-2.7,3.2c-1.1,1.2-2.1,2.3-2.9,3
									c-0.8,0.7-1.3,1.2-1.3,1.1c0,0,0.4-0.5,1.2-1.3c0.7-0.8,1.8-1.9,2.8-3.1c1.1-1.2,2.1-2.3,2.8-3.1
									C298,292.9,298.4,292.4,298.4,292.4z"/>
							</g>
						</g>
						<g>
							<g>
								<path class="st12" d="M403,286.2c-0.1,0,0.2-1.7,0.7-3.7c0.5-2,0.9-3.6,1-3.6c0.1,0-0.2,1.7-0.7,3.7
									C403.5,284.6,403,286.2,403,286.2z"/>
							</g>
						</g>
						<g>
							<g>
								<path class="st12" d="M407.2,286.9c-0.1,0-0.6-1.8-1.1-4.2c-0.5-2.3-0.9-4.2-0.8-4.2c0.1,0,0.6,1.8,1.1,4.2
									C406.9,284.9,407.2,286.8,407.2,286.9z"/>
							</g>
						</g>
						<g>
							<g>
								<path class="st12" d="M370.1,282.3c0,0-0.2-0.1-0.4-0.4c-0.3-0.3-0.7-0.7-1.2-1.2c-1-1-2.6-2.5-4.4-4.4
									c-3.5-3.8-8.5-9.3-11.3-16.9c-1.4-3.8-2-7.6-1.8-11.1c0.2-3.5,0.8-6.6,2-8.9c1.2-2.4,2.7-3.9,3.9-4.8
									c0.6-0.4,1.1-0.7,1.4-0.9c0.3-0.2,0.5-0.3,0.5-0.3c0,0-0.7,0.4-1.9,1.3c-1.1,0.9-2.7,2.4-3.8,4.8c-1.1,2.3-1.8,5.4-1.9,8.9
									c-0.2,3.4,0.4,7.2,1.8,11c2.8,7.5,7.7,13,11.2,16.9c1.8,1.9,3.3,3.4,4.3,4.5c0.5,0.5,0.8,0.9,1.2,1.2
									C370,282.1,370.1,282.3,370.1,282.3z"/>
							</g>
						</g>
					</g>
					<g>
						<g>
							<path class="st4" d="M318.7,260.8c-0.2,0.1-1.4-1.2-2.8-2.9c-1.4-1.7-2.3-3.2-2.2-3.4c0.2-0.1,1.4,1.2,2.8,2.9
								C317.8,259.1,318.8,260.6,318.7,260.8z"/>
						</g>
					</g>
					<g>
						<g>
							<path class="st4" d="M336.6,281.2c0.1,0.1-1.5,2-3.7,4.2c-2.2,2.2-4.1,3.8-4.2,3.7c-0.1-0.1,1.5-2,3.7-4.2
								C334.6,282.7,336.5,281,336.6,281.2z"/>
						</g>
					</g>
					<g>
						<g>
							<path class="st4" d="M354.1,310.5c-0.2,0.1-0.9-1.7-2-3.7c-1.2-2-2.4-3.4-2.2-3.6c0.1-0.1,1.7,1.1,2.9,3.2
								C353.9,308.5,354.2,310.4,354.1,310.5z"/>
						</g>
					</g>
					<g>
						<g>
							<path class="st4" d="M308.9,307.2c-0.2,0.1-1.4-2.4-1.9-5.8c-0.6-3.3-0.3-6.1-0.2-6.1c0.2,0,0.3,2.7,0.9,6
								C308.3,304.5,309.1,307.1,308.9,307.2z"/>
						</g>
					</g>
					<g>
						<g>
							<path class="st4" d="M332.9,320.1c-0.2,0.1-1.1-2-1.4-4.9c-0.3-2.8,0.3-5.1,0.5-5c0.2,0,0,2.3,0.3,5
								C332.5,317.8,333.1,320,332.9,320.1z"/>
						</g>
					</g>
					<g>
						<g>
							<path class="st4" d="M323.4,338.8c-0.1,0.2-2.6-1.2-5.5-3c-2.9-1.8-5.2-3.4-5.1-3.6c0.1-0.2,2.6,1.2,5.5,3
								C321.3,337,323.5,338.6,323.4,338.8z"/>
						</g>
					</g>
					<g>
						<g>
							<path class="st4" d="M360.7,333.3c0.1,0.2-2.6,1.6-5.7,3.5c-3.1,2-5.5,3.8-5.6,3.6c-0.1-0.1,2.1-2.3,5.2-4.2
								C357.8,334.1,360.6,333.1,360.7,333.3z"/>
						</g>
					</g>
					<g>
						<g>
							<path class="st4" d="M313.8,354.4c0,0.2-2.7-0.1-5.8-0.8c-3.2-0.6-5.7-1.3-5.7-1.5c0-0.2,2.7,0.1,5.8,0.8
								C311.3,353.6,313.9,354.2,313.8,354.4z"/>
						</g>
					</g>
					<g>
						<g>
							<path class="st4" d="M341.2,358.3c-0.1,0.1-1.6-1.4-2.8-3.6c-1.2-2.2-1.7-4.3-1.5-4.3c0.2-0.1,1,1.8,2.1,4
								C340.2,356.5,341.4,358.2,341.2,358.3z"/>
						</g>
					</g>
					<g>
						<g>
							<path class="st4" d="M366.9,352.3c0.2,0.1-0.6,1.3-1.7,2.7c-1.1,1.3-2.2,2.3-2.3,2.2c-0.2-0.1,0.6-1.3,1.7-2.7
								C365.7,353.2,366.7,352.2,366.9,352.3z"/>
						</g>
					</g>
					<g>
						<g>
							<path class="st4" d="M315.5,272.9c0.1,0.2-0.9,1.1-2.3,2c-1.4,0.9-2.6,1.5-2.7,1.3c-0.1-0.2,0.9-1.1,2.3-2
								C314.2,273.3,315.4,272.7,315.5,272.9z"/>
						</g>
					</g>
					<g>
						<g>
							<path class="st4" d="M335,251.1c-0.2,0.1-1.3-2.6-2.2-5.9c-0.9-3.4-1.3-6.2-1.1-6.2c0.2,0,0.9,2.7,1.8,6
								C334.5,248.3,335.2,251,335,251.1z"/>
						</g>
					</g>
					<g>
						<g>
							<path class="st4" d="M353.7,270.9c-0.1,0.2-1.8-0.4-3.9-0.8c-2.2-0.4-4-0.5-4-0.7c0-0.2,1.8-0.5,4.1,0
								C352.2,269.8,353.8,270.8,353.7,270.9z"/>
						</g>
					</g>
					<g>
						<g>
							<path class="st4" d="M366.6,254.1c0,0.2-2,0.6-4.4,0.2c-2.5-0.4-4.2-1.4-4.2-1.5c0.1-0.2,1.9,0.4,4.3,0.8
								C364.6,253.9,366.6,253.9,366.6,254.1z"/>
						</g>
					</g>
					<g>
						<g>
							<path class="st4" d="M379.8,272.9c-0.2,0-0.3-2.9,0.2-6.4c0.6-3.5,1.6-6.2,1.8-6.1c0.2,0.1-0.5,2.8-1,6.3
								C380.2,270,380,272.9,379.8,272.9z"/>
						</g>
					</g>
					<g>
						<g>
							<path class="st4" d="M395.3,295c-0.1,0.1-2-1.5-4.2-3.8c-2.2-2.2-3.8-4.1-3.6-4.3c0.1-0.1,2,1.5,4.2,3.8
								C393.8,292.9,395.4,294.9,395.3,295z"/>
						</g>
					</g>
					<g>
						<g>
							<path class="st4" d="M408.1,293.3c0.2,0.1-0.7,1.8-2,3.8c-1.3,2-2.5,3.5-2.6,3.4c-0.2-0.1,0.7-1.8,2-3.8
								C406.8,294.7,408,293.2,408.1,293.3z"/>
						</g>
					</g>
					<g>
						<g>
							<path class="st4" d="M423.1,286c-0.2,0.1-1.3-1.9-2.6-4.4c-1.2-2.5-2.1-4.7-1.9-4.7c0.2-0.1,1.3,1.9,2.6,4.4
								C422.4,283.8,423.3,285.9,423.1,286z"/>
						</g>
					</g>
					<g>
						<g>
							<path class="st4" d="M443.4,277.6c0,0.2-2.4,0-5.3-0.6c-2.9-0.5-5.2-1.1-5.2-1.3c0-0.2,2.4,0,5.3,0.6
								C441.1,276.8,443.5,277.4,443.4,277.6z"/>
						</g>
					</g>
					<g>
						<g>
							<path class="st4" d="M281.8,299.3c-0.2-0.1,0.7-2.5,2.1-5.3c1.3-2.8,2.6-5.1,2.8-5c0.2,0.1-0.7,2.5-2.1,5.3
								C283.3,297.1,282,299.3,281.8,299.3z"/>
						</g>
					</g>
					<g>
						<g>
							<path class="st4" d="M292.6,280.2c-0.2,0.1-1.7-1.4-3.6-3.4c-1.8-2-3.2-3.8-3-3.9c0.2-0.1,1.7,1.4,3.6,3.4
								C291.4,278.3,292.8,280.1,292.6,280.2z"/>
						</g>
					</g>
					<g>
						<g>
							<path class="st4" d="M291.7,310.8c0.1,0.2-0.6,1-1.7,1.9c-1.1,0.9-2.1,1.5-2.2,1.4c-0.1-0.2,0.6-1,1.7-1.9
								C290.6,311.2,291.6,310.6,291.7,310.8z"/>
						</g>
					</g>
					<g>
						<g>
							<path class="st4" d="M295.4,260c0.2,0.1-0.3,1-1,1.9c-0.7,0.9-1.5,1.5-1.6,1.4s0.3-1,1-1.9
								C294.5,260.5,295.2,259.9,295.4,260z"/>
						</g>
					</g>
					<g class="st7">
						<g>
							<path d="M355.8,265.3c4.9,15.4,8.7,31.5,13.6,46.8l-1.2-31.8C363.6,276.1,359.5,271.1,355.8,265.3z"/>
						</g>
					</g>
					<g class="st7">
						<g>
							<path d="M297.6,319.8c-3.7-17-3.2-34.7,2.9-51L297.6,319.8z"/>
						</g>
					</g>
				</g>
			</g>
			<g>
				<g>
					<path class="st12" d="M1005.1,182.1c4.8-3.3,11.5-3.5,16.4-0.5c5,3,7.9,9,7.2,14.8c-0.4,3-1.6,6-0.9,9
						c1.4,5.5,9.2,7.6,10.2,13.2c0.4,2.2-0.4,4.4-1,6.6c-0.6,2.2-1,4.6,0.1,6.5c0.8,1.4,2.3,2.3,3.5,3.5c3.8,3.8,3.7,10.4,0.5,14.6
						c-3.2,4.3-8.7,6.3-14.1,6.2c-5.3-0.2-10.4-2.3-14.9-5.1"/>
				</g>
				<g>
					<path class="st12" d="M1008.8,185.7c-1.5-5.1-6.2-9-11.4-10.2c-5.2-1.2-11.6-2.9-16.4-0.5c-3,1.5-5.8,3.7-7,6.8
						c-1.4,3.7,0.7,10.6,1.8,14.4c1.1,3.8,1.9,8.2-0.2,11.5c-2,3.3-6.2,4.5-8.8,7.4c-3.6,4-3.1,10.9,1.1,14.3
						c-4.6-0.3-8.5,4.4-8.3,9s3.5,8.6,7.6,10.7c4.1,2.1,8.8,2.5,13.4,2.5c5.7,0,11.4-0.6,17-1.8c4.6-1,9.4-2.5,12.4-6.1
						c2.8-3.3,3.5-7.9,3.5-12.2c0-15.3-8-30.5-4.5-45.3"/>
				</g>
				<g>
					<g>
						<g>
							<path class="st16" d="M985.7,348.9c0,0-29.9,97-28,128.4c1.9,31.3,24.7,109.3,24.7,109.3L985.7,348.9z"/>
						</g>
					</g>
					<g>
						<g>
							<path class="st17" d="M1028,332.4c0.7-0.2,13.8,19.1,14.2,35.6c0,1.6,0,3.2-0.2,4.9c-0.5,5.8-2,11.5-4.1,16.9
								c-11.1,28-22.5,61.2-22.7,68.7c-0.6,23.3-10.7,127.9-10.7,127.9l-22.1,0.6l-6.6-127.9l10.9-127.9L1028,332.4z"/>
						</g>
					</g>
				</g>
				<g>
					<g>
						<path class="st17" d="M857.7,264.7c2.3-2.4,12.5,6.6,13.5,7.3c0.9,0.7,2-0.6,1.1-1.2c-1.3-0.8-14.2-9.9-12-12.2
							c1.2-1.3,3.3,1.1,3.3,1.1s11.5,9.4,12.5,8.2c1-1.2-5.5-6.9-7.9-8.7c-2.3-1.8-2.4-3.6-0.8-4c1.1-0.3,8.4,5,10.7,6.8
							c2.3,1.8,8.4,6.9,7.4,1.9c-1-5,0.1-9.2,1.2-10.1c1.1-0.9,2.8,0.3,2.4,1.8c-0.3,1.2-0.1,3.5,0,5.1c0.1,1.4,0.5,2.7,1.1,3.9
							c0.7,1.4,1.3,2.6,1.9,3.6c6.9,4.2,26.7,15.2,46.9,17.5c3.6,0.4,17.7-21.6,17.7-21.6l22,17.9c0,0,0.2,1.4-15.7,20.9
							c-21.5,26.6-84.2-18.8-84.2-18.8l0-0.1c-5.5-2.4-11.5-5.3-14.7-7.2c-6.4-4-6.1-4.5-5.5-5.2c1.6-1.8,11.6,6.5,10.5,3.5
							C868.3,272.2,856,266.5,857.7,264.7z"/>
					</g>
					<g>
						<g>
							<path class="st9" d="M840.2,248.8c0,0-3.6,33.1,1,51.2l44.2-1.9c0,0-9.5-32.6-3.7-47.1L840.2,248.8z"/>
						</g>
						<g>
							<g>
								<path class="st6" d="M840.4,247.7c0,0,0.3,35.7,2.1,46.6l44.8-2.1c0,0-3.9-35.1-2.4-44.5H840.4z"/>
							</g>
							<g>
								<g>
									<path class="st11" d="M878.1,262.7c0,0.2-6.7,0.8-15,1.3c-8.3,0.5-15,0.7-15,0.5c0-0.2,6.7-0.8,15-1.3
										C871.4,262.7,878.1,262.5,878.1,262.7z"/>
								</g>
							</g>
							<g>
								<g>
									<path class="st11" d="M878.1,270.3c0,0.2-6.7,0.8-15,1.3c-8.3,0.5-15,0.7-15,0.5c0-0.2,6.7-0.8,15-1.3
										C871.4,270.3,878.1,270.1,878.1,270.3z"/>
								</g>
							</g>
							<g>
								<g>
									<path class="st11" d="M870.5,277.7c0,0.2-3.8,0.6-8.5,0.9c-4.7,0.3-8.6,0.3-8.6,0.1c0-0.2,3.8-0.6,8.5-0.9
										C866.7,277.6,870.5,277.5,870.5,277.7z"/>
								</g>
							</g>
						</g>
					</g>
				</g>
				<g>
					<g>
						<path class="st13" d="M1050.3,441.3c0,0,4.3-92.7-9-100.8c-13.3-8.1-75,4.9-75,4.9s-19.2,87.5-18.4,88.3
							C954.3,439.2,1050.3,441.3,1050.3,441.3z"/>
					</g>
					<g>
						<g>
							<path class="st12" d="M1050.7,433.2c0,0.2-5,0.1-11.1-0.2c-6.1-0.3-11.1-0.7-11.1-0.9c0-0.2,5-0.1,11.1,0.2
								C1045.7,432.5,1050.7,433,1050.7,433.2z"/>
						</g>
					</g>
					<g>
						<g>
							<path class="st12" d="M1043.9,441.2c-0.2,0-0.3-1.7-0.2-3.8c0.1-2.1,0.4-3.8,0.6-3.8c0.2,0,0.3,1.7,0.2,3.8
								C1044.3,439.6,1044.1,441.3,1043.9,441.2z"/>
						</g>
					</g>
					<g>
						<g>
							<path class="st12" d="M1032.5,441.3c-0.2,0-0.5-1.9-0.7-4.3c-0.2-2.4-0.2-4.3,0-4.3c0.2,0,0.5,1.9,0.7,4.3
								C1032.7,439.3,1032.7,441.2,1032.5,441.3z"/>
						</g>
					</g>
				</g>
				<g>
					<g>
						<g>
							<g>
								<g>
									<g>
										<path class="st6" d="M981.9,589.1l0-2.9l22.8-0.4l0,8.9l-1.4,0.1c-6.3,0.4-31.9,1.4-36.1,0.1
											C962.6,593.5,981.9,589.1,981.9,589.1z"/>
									</g>
								</g>
							</g>
							<g class="st18">
								<g>
									<g>
										<path class="st11" d="M996.6,594.8c0.3-1.9,1.4-3.7,2.9-4.8c1.5-1.2,3.4-1.8,5.3-1.7l0,6.4L996.6,594.8z"/>
									</g>
								</g>
							</g>
						</g>
						<g class="st18">
							<g>
								<g>
									<path class="st11" d="M972.5,591.6c0,0-6.8,2-5.9,3.1c0.8,1.1,26.8,1.1,38.3,0.1l0-0.5l-30.3,0.3
										C974.5,594.5,973.8,591.6,972.5,591.6z"/>
								</g>
							</g>
						</g>
						<g>
							<g>
								<g>
									<g>
										<path class="st12" d="M1005,594c0,0-0.1,0-0.4,0c-0.3,0-0.7,0-1.1,0.1c-1.1,0-2.5,0.1-4.1,0.2c-3.5,0.1-8.3,0.2-13.6,0.3
											c-5.3,0-10.2-0.1-13.6-0.2c-1.6-0.1-3-0.1-4.1-0.2c-0.4,0-0.8,0-1.1-0.1c-0.3,0-0.4,0-0.4,0c0,0,0.1,0,0.4,0
											c0.3,0,0.7,0,1.1,0c1.1,0,2.5,0,4.1,0.1c3.5,0.1,8.3,0.1,13.6,0.1c5.3,0,10.1-0.1,13.6-0.2c1.6,0,3-0.1,4.1-0.1
											c0.4,0,0.8,0,1.1,0C1004.8,594,1005,594,1005,594z"/>
									</g>
								</g>
							</g>
						</g>
						<g>
							<g>
								<g>
									<g>
										<path class="st12" d="M974.5,594.9c-0.1,0-0.2-1-0.8-2c-0.6-1-1.5-1.5-1.4-1.6c0-0.1,1,0.4,1.6,1.4
											C974.6,593.9,974.6,594.9,974.5,594.9z"/>
									</g>
								</g>
							</g>
						</g>
						<g>
							<g>
								<g>
									<g>
										<path class="st12" d="M981.7,591c-0.1,0-0.4-0.3-0.7-0.9c-0.3-0.5-0.5-1-0.5-1c0.1,0,0.4,0.3,0.7,0.9
											C981.5,590.5,981.7,590.9,981.7,591z"/>
									</g>
								</g>
							</g>
						</g>
						<g>
							<g>
								<g>
									<g>
										<path class="st12" d="M983.5,590c-0.1,0.1-0.4-0.2-0.8-0.5c-0.4-0.4-0.7-0.7-0.6-0.7c0.1-0.1,0.4,0.2,0.8,0.5
											S983.5,590,983.5,590z"/>
									</g>
								</g>
							</g>
						</g>
						<g>
							<g>
								<g>
									<g>
										<path class="st12" d="M984.7,587.9c0,0.1-0.5,0.1-1.2,0.2c-0.7,0-1.2,0-1.2-0.1c0-0.1,0.5-0.1,1.2-0.2
											C984.1,587.7,984.7,587.8,984.7,587.9z"/>
									</g>
								</g>
							</g>
						</g>
						<g>
							<g>
								<g>
									<g>
										<path class="st12" d="M985,586.4c0,0.1-0.6,0.3-1.3,0.4c-0.8,0.1-1.4-0.1-1.4-0.2c0-0.1,0.6,0,1.3-0.1
											C984.4,586.4,985,586.3,985,586.4z"/>
									</g>
								</g>
							</g>
						</g>
						<g>
							<g>
								<g>
									<g>
										<path class="st12" d="M980.9,589c0,0-0.6,0.1-1.5,0c-0.4-0.1-1-0.2-1.6-0.3c-0.3-0.1-0.6-0.2-0.9-0.4
											c-0.1-0.1-0.3-0.2-0.4-0.5c-0.1-0.2,0.1-0.5,0.2-0.6c1.4-0.7,2.8,0.1,3.3,0.8c0.3,0.4,0.4,0.7,0.5,1
											c0.1,0.2,0.1,0.4,0,0.4c-0.1,0-0.1-0.6-0.7-1.2c-0.3-0.3-0.7-0.6-1.2-0.8c-0.5-0.2-1.3-0.2-1.7,0.1
											c-0.2,0.2-0.1,0.4,0.1,0.6c0.2,0.2,0.6,0.2,0.8,0.3c0.6,0.2,1.1,0.3,1.5,0.4C980.3,589,980.9,589,980.9,589z"/>
									</g>
								</g>
							</g>
						</g>
						<g>
							<g>
								<g>
									<g>
										<path class="st12" d="M980.5,589.1c0,0-0.2-0.4-0.2-1c0-0.3,0.2-0.7,0.4-1.1c0.3-0.3,0.6-0.8,1.2-0.7
											c0.3,0,0.5,0.4,0.5,0.7c0,0.3-0.1,0.5-0.2,0.7c-0.2,0.4-0.5,0.7-0.7,0.9c-0.5,0.4-0.8,0.6-0.8,0.6c0,0,0.3-0.3,0.7-0.7
											c0.2-0.2,0.4-0.5,0.6-0.9c0.2-0.3,0.3-0.9,0-0.9c-0.4,0-0.7,0.3-1,0.6c-0.2,0.3-0.4,0.7-0.4,1
											C980.4,588.7,980.5,589.1,980.5,589.1z"/>
									</g>
								</g>
							</g>
						</g>
						<g>
							<g>
								<g>
									<g>
										<path class="st12" d="M1005.1,588.2c0,0.1-0.7-0.1-1.7,0.1c-1,0.1-2.4,0.5-3.7,1.5c-1.2,1-1.9,2.3-2.3,3.2
											c-0.3,1-0.4,1.6-0.4,1.6c0,0,0-0.2,0-0.5c0-0.3,0.1-0.7,0.2-1.2c0.3-1,1-2.4,2.3-3.4c1.3-1,2.8-1.4,3.8-1.5
											c0.5,0,1,0,1.3,0C1004.9,588.2,1005.1,588.2,1005.1,588.2z"/>
									</g>
								</g>
							</g>
						</g>
						<g>
							<g>
								<g>
									<g>
										<path class="st12" d="M994.1,591.9c0,0.1-1.5,0.3-3.3,0.3c-1.8,0-3.3-0.2-3.3-0.3c0-0.1,1.5,0,3.3,0
											C992.7,591.9,994.1,591.8,994.1,591.9z"/>
									</g>
								</g>
							</g>
						</g>
						<g>
							<g>
								<g>
									<g>
										<path class="st12" d="M998.6,591.9c0.1,0.1-0.1,0.3-0.3,0.7c-0.2,0.3-0.2,0.6-0.3,0.6c-0.1,0-0.1-0.4,0.1-0.8
											C998.3,592,998.6,591.8,998.6,591.9z"/>
									</g>
								</g>
							</g>
						</g>
						<g>
							<g>
								<g>
									<g>
										<path class="st12" d="M1000.3,589.8c0.1,0.1-0.1,0.3-0.3,0.5c-0.2,0.2-0.5,0.4-0.5,0.3c-0.1-0.1,0.1-0.3,0.3-0.5
											C1000,589.9,1000.2,589.7,1000.3,589.8z"/>
									</g>
								</g>
							</g>
						</g>
						<g>
							<g>
								<g>
									<g>
										<path class="st12" d="M1002.7,588.8c0,0.1-0.3,0.1-0.7,0.2c-0.3,0.1-0.6,0.3-0.6,0.2c-0.1,0,0.1-0.4,0.5-0.5
											C1002.4,588.6,1002.7,588.7,1002.7,588.8z"/>
									</g>
								</g>
							</g>
						</g>
						<g>
							<g>
								<g>
									<g>
										<path class="st12" d="M1004.4,588.4c0,0.1-0.1,0.2-0.3,0.3c-0.2,0.1-0.4,0.1-0.4,0c0-0.1,0.1-0.2,0.3-0.3
											C1004.2,588.3,1004.4,588.3,1004.4,588.4z"/>
									</g>
								</g>
							</g>
						</g>
					</g>
				</g>
				<g>
					<g>
						<g>
							<g>
								<path class="st6" d="M943,283.1l25.4,14.3l1.8-1.8l1.9,3.5l-1.7,47.4l69-13.1l-5.6-8.1c-5.4-7.5-4.2-18-2-27l0.8-3.1
									l14.6,0.2c0,0,1.4-8.2,0-26.5c0-0.3,0-0.5-0.1-0.8c-1.5-17-16.4-29.5-33.4-28.4l-25.2,1.7c0,0-20-4.1-33.7,19.4L943,283.1z"
									/>
							</g>
							<g>
								<g>
									<path class="st12" d="M973.7,275.4c0.1,0-0.3,1.4-0.9,3.6c-0.8,2.4-1.7,5.3-2.6,8.4c-0.5,1.6-0.7,3.2-0.6,4.7
										c0.1,1.4,0.6,2.7,1,3.7c0.9,2,1.6,3.3,1.5,3.3c-0.1,0-0.9-1.1-2-3.1c-0.5-1-1-2.3-1.2-3.9c-0.2-1.6,0.1-3.3,0.5-4.9
										c1-3.3,2.1-6.3,2.9-8.4C973.1,276.7,973.6,275.4,973.7,275.4z"/>
								</g>
							</g>
						</g>
						<g>
							<g>
								<path class="st12" d="M1047.1,295c0,0.1-0.7,0-2,0c-1.4-0.1-3.2-0.2-5.4-0.3c-4.5-0.3-10.8-0.8-17.6-1.4
									c-1.1-0.1-2.2-0.2-3.3-0.3l-0.4,0l0-0.4c0.4-6.1,0.4-11.6,0.6-15.5c0.1-1.9,0.2-3.5,0.4-4.6c0.1-1.1,0.2-1.7,0.3-1.7
									c0,0,0,0.6,0,1.7c0,1.2-0.1,2.8-0.1,4.6c-0.1,3.9,0,9.3-0.4,15.5l-0.3-0.4c1.1,0.1,2.2,0.2,3.3,0.3
									c6.9,0.6,13.1,1.2,17.6,1.6c2.1,0.2,3.9,0.4,5.3,0.6C1046.4,294.9,1047.1,295,1047.1,295z"/>
							</g>
						</g>
					</g>
					<g>
						<g>
							<path class="st4" d="M1046.8,267.9c0,0-0.3,0-1-0.2c-0.7-0.2-1.6-0.4-2.8-0.6c-2.4-0.5-5.9-1.4-10.3-1.8
								c-2.2-0.2-4.6-0.3-7.2-0.1c-2.6,0.2-5.3,0.8-8,1.7c-5.5,1.7-11.3,4.7-17.9,6.4c-1.7,0.4-3.3,0.6-5,0.8
								c-1.7,0.1-3.3,0-4.9-0.3c-3.2-0.5-6.1-1.8-8.7-3.1c-5.2-2.7-9.6-5.7-13.8-7c-4.1-1.5-7.8-1.6-10.2-1.1
								c-2.4,0.5-3.6,1.3-3.6,1.2c0,0,1.1-0.9,3.6-1.4c2.4-0.6,6.2-0.5,10.4,0.9c4.3,1.3,8.8,4.2,13.9,6.9c2.6,1.3,5.4,2.5,8.5,3
								c3.1,0.5,6.4,0.3,9.6-0.5c6.5-1.6,12.3-4.6,17.9-6.3c2.8-0.9,5.6-1.5,8.2-1.7c2.6-0.2,5.1-0.1,7.3,0.2
								c4.4,0.5,7.9,1.4,10.3,2c1.1,0.3,2,0.6,2.7,0.8C1046.4,267.7,1046.8,267.9,1046.8,267.9z"/>
						</g>
					</g>
					<g>
						<g>
							<path class="st4" d="M1017.4,307c0,0.1-0.7,0-1.9,0.1c-1.2,0.1-3,0.3-5.1,0.7c-2.1,0.5-4.6,1.2-7.3,2.2
								c-2.7,0.9-5.7,2.1-9,2.9c-3.3,0.8-6.5,1.2-9.5,0.8c-2.9-0.4-5.5-1.4-7.3-2.6c-1.9-1.2-3-2.7-3.7-3.7c-0.3-0.5-0.5-1-0.6-1.3
								c-0.1-0.3-0.2-0.5-0.1-0.5c0.1,0,0.3,0.6,1,1.6c0.7,1,1.9,2.3,3.7,3.4c1.8,1.1,4.3,2.1,7.1,2.4c2.8,0.3,6-0.1,9.2-0.9
								c3.2-0.8,6.2-1.9,9-2.8c2.7-0.9,5.3-1.6,7.4-2.1c2.2-0.4,4-0.5,5.2-0.5C1016.7,306.8,1017.4,307,1017.4,307z"/>
						</g>
					</g>
				</g>
				<g>
					<g>
						<path class="st19" d="M987.5,413.2"/>
					</g>
				</g>
				<g class="st7">
					<g>
						<path d="M1019.5,271.9c-3.1,7.7-3.5,16.2-4.5,24.4c-1.1,8.2-3.1,16.8-8.7,22.9c-5.8,6.3-14.4,8.9-22.6,11.3l36-3.1
							L1019.5,271.9z"/>
					</g>
				</g>
				<g>
					<g>
						<g>
							<path class="st2" d="M1009,569.5c0,0-4-79.3,33-181.8c12.1-33.6-5-55.2-5-55.2l-65.3,7.6L959,388.4c0,0-32,97.6,10.8,184.5
								L1009,569.5z"/>
						</g>
					</g>
					<g>
						<g>
							<path class="st4" d="M1036.3,400.3c-0.1,0-0.5-1.1-1.7-2.7c-1.2-1.6-3.5-3.7-6.8-5.2c-3.3-1.5-7.7-2.3-12.6-1.9
								c-4.9,0.3-10.1,1.7-15.6,2.9c-5.5,1.2-11,1.9-16,1.1c-5-0.7-8.9-3.1-12.1-4.9c-3.2-1.9-5.8-3.3-7.7-4.2c-1.9-0.8-3-1.1-3-1.2
								c0,0,0.3,0,0.8,0.2c0.5,0.1,1.3,0.4,2.3,0.8c2,0.7,4.6,2.1,7.9,4c3.2,1.8,7.1,4,11.9,4.7c4.8,0.7,10.2,0,15.7-1.1
								c5.5-1.2,10.8-2.5,15.7-2.8c4.9-0.4,9.5,0.5,12.9,2.1c3.4,1.6,5.7,3.8,6.8,5.5c0.3,0.4,0.6,0.8,0.7,1.2
								c0.2,0.3,0.4,0.7,0.5,0.9C1036.3,400,1036.4,400.3,1036.3,400.3z"/>
						</g>
					</g>
					<g>
						<g>
							<path class="st4" d="M1020.9,455.4c-0.1,0.1-0.6-0.9-2-2.1c-1.4-1.2-3.8-2.6-7.2-3.2c-3.3-0.6-7.4-0.1-11.6,1.4
								c-4.2,1.4-8.6,3.7-13.5,5.5c-4.9,1.9-10.1,2.4-14.6,1.8c-4.5-0.6-8.4-2.1-11.4-3.8c-3-1.7-5.1-3.6-6.4-5
								c-0.7-0.7-1.1-1.3-1.4-1.7c-0.3-0.4-0.5-0.6-0.4-0.6c0.1-0.1,0.7,0.8,2.1,2.1c1.4,1.3,3.5,3.1,6.4,4.7
								c2.9,1.6,6.8,3.1,11.2,3.6c4.4,0.6,9.4,0.1,14.2-1.8c4.8-1.8,9.3-4.1,13.6-5.5c4.3-1.4,8.5-1.9,11.9-1.2
								c3.4,0.6,5.9,2.2,7.3,3.5c0.7,0.7,1.2,1.3,1.5,1.7C1020.8,455.1,1020.9,455.4,1020.9,455.4z"/>
						</g>
					</g>
					<g class="st20">
						<g>
							<path d="M963.7,417.4c-0.6,2.6-1.1,5.3-0.5,7.9c0.6,2.6,2.9,5,5.5,4.9c1.4,0,2.9-0.7,4.1,0c1,0.6,1.3,1.9,1.6,3
								c1.5,5.4,6.2,9.7,11.7,10.9c5.5,1.1,11.5-1.1,15-5.4c3.6-4.4,4.4-10.6,3.6-16.2c-0.8-5.6-3-11-4.8-16.4
								c-3.8-11.1-6.4-22.5-8.4-34.1c-0.4-2.3-0.7-4.8,0.3-6.9c1.6-3.5,6.1-4.6,9.9-5.2c14.6-2.5,29-6,43.2-10.3
								c-8.1-1.8-16.4-0.5-24.6,0.9c-9,1.6-18,3.6-26.8,5.9c-2.2,0.6-4.6,1.2-6.2,2.9c-1.7,1.7-2.3,4.1-2.9,6.4
								c-4.8,18.6-12.2,36.6-21.8,53.2"/>
						</g>
					</g>
				</g>
				<g>
					<g>
						<path class="st13" d="M983.5,358.7l62.6-10.1c0,0-1.1-4.6-2.8-8.9c-1.3-3.2-4.7-5.6-6.3-7.2c-3.7-3.7-55.9,19.3-55.9,19.3
							L983.5,358.7z"/>
					</g>
					<g>
						<polygon class="st13" points="983.5,358.7 966.3,353 968.8,338.7 985.7,351.9 						"/>
					</g>
					<g>
						<g>
							<g>
								<path class="st13" d="M983.7,358.7c0,0-4.8,17.2-4.6,28.6c0.2,11.4,0.6,35.1,2.2,43.5c1.6,8.4,24.3-1.2,19.9-9
									c-4.4-7.8-12.2-35.7-12.4-42.3c-0.2-6.6,0.4-22.9,0.4-22.9L983.7,358.7z"/>
							</g>
							<g>
								<g>
									<path class="st12" d="M999.8,419.4c0.1,0-0.4,1.2-1.7,2.7c-1.2,1.6-3.3,3.5-6,4.9c-2.7,1.5-5.4,2.1-7.4,2.3
										c-2,0.2-3.2,0-3.2-0.1c0-0.1,1.2-0.1,3.1-0.4c1.9-0.3,4.5-1,7.1-2.4c2.6-1.4,4.6-3.2,5.9-4.6
										C999.1,420.4,999.7,419.3,999.8,419.4z"/>
								</g>
							</g>
							<g>
								<g>
									<path class="st12" d="M987.7,434.1c-0.2,0.1-0.8-1-1.3-2.4c-0.5-1.4-0.8-2.5-0.6-2.6c0.2-0.1,0.8,1,1.3,2.4
										C987.6,432.8,987.9,434,987.7,434.1z"/>
								</g>
							</g>
							<g>
								<g>
									<path class="st12" d="M994.8,431.4c-0.2,0.1-0.9-0.9-1.5-2.2c-0.7-1.3-1.1-2.5-0.9-2.6c0.2-0.1,0.9,0.9,1.5,2.2
										C994.6,430.1,995,431.3,994.8,431.4z"/>
								</g>
							</g>
							<g>
								<g>
									<path class="st12" d="M1000.7,426.9c-0.2,0.1-0.9-0.9-1.7-2.2c-0.7-1.3-1.2-2.5-1-2.6c0.2-0.1,0.9,0.9,1.7,2.2
										C1000.4,425.7,1000.9,426.8,1000.7,426.9z"/>
								</g>
							</g>
						</g>
						<g>
							<g>
								<path class="st13" d="M979.6,355.5c-6,11-3.4,25.4-10.5,35.7c-2.8,4.1-7,7.4-8.7,12.1c-1.3,3.8-0.6,8.2,2,11.2
									c2.6,3,7.2,4.2,10.8,2.7c2.7-1.1,4.7-3.6,5.9-6.3c1.2-2.7,1.7-5.7,2.2-8.6c2.2-13,4.4-25.9,6.7-38.9
									c0.4-2.6,0.9-5.4-0.4-7.7c-1.3-2.3-5-3.3-6.5-1.2"/>
							</g>
							<g>
								<g>
									<path class="st12" d="M979.7,416.6c-0.1,0-0.2-0.8-0.3-2.3c-0.1-1.5-0.3-3.7-0.5-6.3c-0.3-5.4-0.5-12.8-0.3-21
										c0.2-8.2,0.7-15.6,1.3-20.9c0.3-2.7,0.5-4.8,0.8-6.3c0.2-1.5,0.4-2.3,0.4-2.3c0.1,0,0,0.8-0.1,2.3
										c-0.1,1.6-0.3,3.8-0.5,6.3c-0.4,5.3-0.9,12.7-1.1,20.9c-0.2,8.2-0.1,15.6,0.1,20.9c0.1,2.6,0.2,4.7,0.2,6.3
										C979.7,415.8,979.7,416.6,979.7,416.6z"/>
								</g>
							</g>
							<g>
								<g>
									<path class="st12" d="M975.6,415.4c0,0.1-1.1,0.1-2.8-0.3c-1.7-0.4-4.1-1.3-6.3-2.9c-2.2-1.6-3.8-3.5-4.8-5
										c-0.9-1.5-1.3-2.6-1.2-2.6c0.2-0.1,2.1,3.9,6.4,7C971.2,414.7,975.7,415.2,975.6,415.4z"/>
								</g>
							</g>
							<g>
								<g>
									<path class="st12" d="M968.3,412.9c0.1,0.2-0.7,1-1.8,1.8c-1.1,0.9-2.1,1.4-2.2,1.3c-0.1-0.2,0.7-1,1.8-1.8
										C967.1,413.3,968.1,412.7,968.3,412.9z"/>
								</g>
							</g>
							<g>
								<g>
									<path class="st12" d="M962.6,408.4c0.1,0.2-0.4,0.7-1,1.3c-0.6,0.6-1,1.2-1.2,1.1c-0.2-0.1,0-0.9,0.6-1.6
										C961.7,408.5,962.5,408.2,962.6,408.4z"/>
								</g>
							</g>
						</g>
					</g>
					<g>
						<g>
							<g>
								<path class="st12" d="M989.7,350.3c0,0,0.3,0.3,0.5,0.9c0.2,0.6,0.4,1.6,0.2,2.8c-0.2,1.2-0.7,2.6-1.8,3.7
									c-1.1,1.2-2.9,1.9-4.7,1.9c-1.8,0-3.6-0.8-4.7-1.9c-1.1-1.2-1.6-2.6-1.8-3.7c-0.1-1.2,0-2.1,0.3-2.8
									c0.2-0.6,0.4-0.9,0.5-0.9c0.1,0-0.6,1.4-0.2,3.6c0.2,1.1,0.7,2.3,1.7,3.3c1,1,2.5,1.7,4.2,1.7c1.6,0,3.2-0.6,4.2-1.6
									c1-1,1.6-2.2,1.8-3.3C990.3,351.7,989.6,350.4,989.7,350.3z"/>
							</g>
						</g>
						<g>
							<g>
								<path class="st12" d="M986.4,358.5c-0.2,0-0.3-2.1-1.5-4.3c-1.1-2.2-2.8-3.5-2.7-3.7c0.1-0.2,2.1,0.9,3.3,3.3
									C986.8,356.3,986.6,358.6,986.4,358.5z"/>
							</g>
						</g>
					</g>
				</g>
				<g>
					<g>
						<path class="st17" d="M935.2,344.9c0.7-3.2,14.1-1.1,15.3-1c1.1,0.1,1.3-1.6,0.3-1.6c-1.5,0-17.3-0.9-16.7-4
							c0.3-1.7,3.4-0.8,3.4-0.8s14.7,1.9,14.9,0.4c0.2-1.5-8.3-2.9-11.3-3.2c-2.9-0.3-3.9-1.7-2.8-2.9c0.8-0.8,9.8-0.2,12.7,0.1
							c2.9,0.3,10.8,1.4,7.3-2.3c-3.5-3.7-4.8-7.8-4.3-9.2c0.4-1.4,2.5-1.3,3,0.2c0.4,1.2,1.7,3,2.7,4.3c0.9,1.1,1.9,2,3,2.8
							c1.4,0.9,2.5,1.5,3.6,2.1c8-0.1,30.7-1.3,49-10.1c3.3-1.6,3.5-26.8,3.5-26.8l28.1,2.5c0,0,0,7.2-2.1,26.1
							c-3.9,34-81.3,28.8-81.3,28.8l0-0.1c-6,0.8-12.6,1.7-16.3,1.7c-7.6,0.1-7.6-0.6-7.4-1.5c0.4-2.4,13.3-0.6,10.7-2.6
							C948.2,345.7,934.7,347.3,935.2,344.9z"/>
					</g>
				</g>
				<g class="st7">
					<g>
						<path d="M960.8,293.6c5.3-5.2,9.6-11.3,12.7-17.9c-2,5.5-4.1,11.1-4,16.9c0,1.7,0.2,3.7-1.1,4.9c-2.3-1.7-4.9-3-7.5-3.9"/>
					</g>
				</g>
				<g>
					<g>
						<g>
							<g>
								<g>
									<g>
										<path class="st17" d="M1016.3,188.3l-0.1,3.6l-0.7,54.4c-0.1,6.3-5.6,11.3-12.4,11.1h0c-6.8-0.1-12.4-5.4-12.4-11.8
											c0-6.7-0.2-13.8-0.2-13.8s-8.6-1.4-10.4-12.7c-0.9-5.6-0.6-14.8-0.1-22.3c0.4-6.8,6.4-11.8,13.1-11.1L1016.3,188.3z"/>
									</g>
								</g>
								<g>
									<g>
										<g>
											<path class="st12" d="M982.5,203.8c0,0.8,0.6,1.4,1.4,1.5c0.8,0,1.5-0.5,1.5-1.3c0-0.8-0.6-1.4-1.4-1.5
												C983.2,202.5,982.5,203.1,982.5,203.8z"/>
										</g>
									</g>
									<g>
										<g>
											<g>
												<path class="st12" d="M982,201.7c0.2,0.2,1.3-0.6,2.8-0.6c1.6,0,2.7,0.8,2.9,0.6c0.1-0.1-0.1-0.4-0.6-0.8
													c-0.5-0.4-1.3-0.7-2.3-0.7c-1,0-1.8,0.4-2.3,0.7C982,201.3,981.9,201.6,982,201.7z"/>
											</g>
										</g>
									</g>
								</g>
								<g>
									<g>
										<g>
											<path class="st12" d="M997.2,203.8c0,0.8,0.6,1.4,1.4,1.5c0.8,0,1.5-0.5,1.5-1.3c0-0.8-0.6-1.4-1.4-1.5
												C997.9,202.5,997.3,203.1,997.2,203.8z"/>
										</g>
									</g>
									<g>
										<g>
											<g>
												<path class="st12" d="M997.3,202c0.2,0.2,1.3-0.6,2.8-0.6c1.6,0,2.7,0.8,2.9,0.6c0.1-0.1-0.1-0.4-0.6-0.8
													c-0.5-0.4-1.3-0.7-2.3-0.7c-1,0-1.8,0.4-2.3,0.7C997.3,201.6,997.2,201.9,997.3,202z"/>
											</g>
										</g>
									</g>
								</g>
								<g>
									<g>
										<g>
											<path class="st12" d="M991.6,213.5c0-0.1-1-0.3-2.5-0.5c-0.4,0-0.8-0.1-0.8-0.4c-0.1-0.3,0.1-0.7,0.3-1.2
												c0.4-1,0.8-2,1.2-3c1.6-4.3,2.8-7.8,2.6-7.9c-0.2-0.1-1.6,3.4-3.3,7.7c-0.4,1.1-0.8,2.1-1.1,3c-0.2,0.5-0.4,1-0.2,1.6
												c0.1,0.3,0.4,0.5,0.7,0.6c0.3,0.1,0.5,0.1,0.7,0.1C990.6,213.6,991.6,213.6,991.6,213.5z"/>
										</g>
									</g>
								</g>
								<g>
									<g>
										<path class="st16" d="M990.5,231.9c0,0,7.6,0.5,15.1-4c0,0-3.7,7.7-14.9,6.7L990.5,231.9z"/>
									</g>
								</g>
								<g>
									<g>
										<g>
											<path class="st12" d="M996.2,214.6c-0.3,0-0.3,1.7-1.7,2.9c-1.4,1.2-3.2,1-3.3,1.2c0,0.1,0.4,0.3,1.2,0.3
												c0.7,0,1.8-0.2,2.7-0.9c0.9-0.7,1.3-1.7,1.3-2.4C996.5,215,996.3,214.6,996.2,214.6z"/>
										</g>
									</g>
								</g>
							</g>
						</g>
					</g>
					<g>
						<path class="st12" d="M1018.2,239.9c-3.3-1.2-7.3-2.3-8.5-5.6c-1.2-3.3-1.2-7-0.2-10.4c0.4-1.6,1.1-3.3,0.4-4.8
							c-0.5-1.1-1.6-1.7-2.5-2.5c-2-1.8-3-4.4-3.2-7.1c-0.2-2.7,0.5-5.3,1.4-7.8c0.5-1.4,1.2-2.9,0.7-4.2c-0.3-1-1.2-1.7-2-2.4
							c-1.6-1.5-2.9-3.3-3.9-5.2c-0.7-1.4-1.2-3.1-0.5-4.5c0.8-1.7,2.9-2.2,4.8-2.4c4.5-0.3,9.4,0.6,12.2,4.1
							c2.5,3.1,2.8,7.4,3,11.4c0.6,12.6,1.1,25.4-1.1,37.8"/>
					</g>
					<g>
						<g>
							<path class="st12" d="M975.7,187c0.6,0.5,1.3,0.6,1.9,1c0.6,0.4,1,0.9,1.6,1.4c0.3,0.3,0.6,0.6,0.9,0.9
								c0.1,0.1,0.1,0.2,0.2,0.2l0.3,0.3c0.3,0.2,0.5,0.5,0.8,0.7c0.6,0.5,1.4,1.2,2.4,1.9c1,0.7,2.5,1.4,4.2,1.8
								c3.4,0.8,6.4,0,8.5-1c2.2-1.1,3.7-2.5,4.7-3.8c1.9-2.6,2.2-4.6,1.3-5.7c-0.9-1.2-3.1-1-5.6-0.4c-1.2,0.3-2.5,0.6-3.7,0.7
								c-1.2,0.1-2.3,0.1-2.9-0.1c-0.3-0.1-0.7-0.2-1.4-0.5c-0.6-0.3-1.4-0.7-2.3-1.1c-0.5-0.2-0.9-0.4-1.5-0.6
								c-0.2-0.1-0.5-0.2-0.8-0.3c-0.3-0.1-0.6-0.2-0.9-0.3c-1.2-0.3-2.3-0.4-3.4-0.3c-2.1,0.2-3.9,1.2-4.6,2.4
								C974.9,185.7,975.2,186.6,975.7,187z"/>
						</g>
					</g>
				</g>
			</g>
			<g>
				<g>
					<path class="st12" d="M1140.8,594c0,0.2-199.8,0.4-491.3,0.4c-271.4,0-491.3-0.2-491.3-0.4c0-0.2,219.9-0.4,491.3-0.4
						C920.8,593.7,1140.8,593.8,1140.8,594z"/>
				</g>
			</g>
		</g>
	</g>
</g>
<g id="Character_1">
</g>
</svg>
