<?xml version="1.0" encoding="utf-8"?>
<!-- Generator: Adobe Illustrator 25.0.0, SVG Export Plug-In . SVG Version: 6.00 Build 0)  -->
<svg version="1.1" id="Layer_1" xmlns="http://www.w3.org/2000/svg" xmlns:xlink="http://www.w3.org/1999/xlink" x="0px" y="0px"
	 viewBox="0 0 752.2 351.9" style="enable-background:new 0 0 752.2 351.9;" xml:space="preserve">
<style type="text/css">
	.st0{clip-path:url(#SVGID_2_);}
	.st1{fill:#2D2D2D;}
	.st2{fill:#ED1818;}
	.st3{clip-path:url(#SVGID_4_);}
	.st4{clip-path:url(#SVGID_6_);}
	.st5{clip-path:url(#SVGID_8_);fill:#ECECEC;}
	.st6{clip-path:url(#SVGID_8_);fill:#E1E1E1;}
	.st7{clip-path:url(#SVGID_8_);fill:#FFFFFF;}
	.st8{clip-path:url(#SVGID_8_);fill:#FAFAFA;}
	.st9{clip-path:url(#SVGID_8_);fill:#FFC3A3;}
	.st10{clip-path:url(#SVGID_8_);fill:#F59F75;}
	.st11{clip-path:url(#SVGID_8_);fill:#1E2E35;}
	.st12{clip-path:url(#SVGID_8_);fill:#2D2D2D;}
	.st13{clip-path:url(#SVGID_8_);fill:#64CDD8;}
	.st14{opacity:0.3;clip-path:url(#SVGID_8_);}
	.st15{clip-path:url(#SVGID_10_);}
	.st16{clip-path:url(#SVGID_12_);}
	.st17{clip-path:url(#SVGID_8_);fill:#B21212;}
	.st18{clip-path:url(#SVGID_8_);fill:#ED1818;}
	.st19{clip-path:url(#SVGID_14_);}
	.st20{clip-path:url(#SVGID_8_);fill:#E2E4E6;}
	.st21{clip-path:url(#SVGID_8_);fill:#B0B6BB;}
	.st22{clip-path:url(#SVGID_8_);fill:#CAD0D6;}
	.st23{clip-path:url(#SVGID_8_);fill:#DE614C;}
	.st24{clip-path:url(#SVGID_8_);fill:#DC7451;}
	.st25{clip-path:url(#SVGID_8_);fill:#EF9473;}
	.st26{clip-path:url(#SVGID_8_);fill:#C35A3B;}
	.st27{clip-path:url(#SVGID_16_);}
	.st28{fill:url(#Rectangle_320_1_);}
	.st29{clip-path:url(#SVGID_18_);}
	.st30{fill:#F0F3F5;}
	.st31{fill:#2D5B3A;}
	.st32{fill:#4FA06B;}
	.st33{fill:#387A47;}
	.st34{opacity:0.1;}
	.st35{clip-path:url(#SVGID_20_);}
	.st36{opacity:0.2;}
	.st37{clip-path:url(#SVGID_22_);}
	.st38{clip-path:url(#SVGID_24_);}
	.st39{clip-path:url(#SVGID_26_);}
	.st40{clip-path:url(#SVGID_28_);}
	.st41{fill:url(#Rectangle_328_1_);}
	.st42{clip-path:url(#SVGID_30_);}
	.st43{fill:#63C086;}
	.st44{clip-path:url(#SVGID_32_);}
	.st45{clip-path:url(#SVGID_34_);}
	.st46{clip-path:url(#SVGID_36_);}
	.st47{clip-path:url(#SVGID_38_);}
	.st48{clip-path:url(#SVGID_40_);}
	.st49{fill:url(#Rectangle_336_1_);}
	.st50{clip-path:url(#SVGID_42_);}
	.st51{fill:#5DA2E7;}
	.st52{fill:#437ACC;}
	.st53{fill:#2C59B6;}
	.st54{fill:#1E3E8B;}
	.st55{clip-path:url(#SVGID_44_);}
	.st56{clip-path:url(#SVGID_46_);}
	.st57{clip-path:url(#SVGID_48_);}
	.st58{clip-path:url(#SVGID_50_);}
	.st59{clip-path:url(#SVGID_52_);}
	.st60{fill:url(#Rectangle_344_1_);}
	.st61{clip-path:url(#SVGID_54_);}
	.st62{clip-path:url(#SVGID_56_);}
	.st63{clip-path:url(#SVGID_58_);}
	.st64{clip-path:url(#SVGID_60_);}
	.st65{clip-path:url(#SVGID_62_);}
	.st66{clip-path:url(#SVGID_64_);}
	.st67{fill:url(#Rectangle_351_1_);}
	.st68{clip-path:url(#SVGID_66_);}
</style>
<g id="Circles" transform="translate(-458 -171)">
	<g id="Group_373" transform="translate(1005 299)">
		<g>
			<defs>
				<rect id="SVGID_1_" x="82" y="0" width="123.2" height="218.9"/>
			</defs>
			<clipPath id="SVGID_2_">
				<use xlink:href="#SVGID_1_"  style="overflow:visible;"/>
			</clipPath>
			<g id="Group_372" transform="translate(0 0.001)" class="st0">
				<path id="Path_1301" class="st1" d="M88.8,0c3.8,0,6.8,3.1,6.8,6.8s-3.1,6.8-6.8,6.8c-3.8,0-6.8-3.1-6.8-6.8
					C82,3.1,85.1,0,88.8,0"/>
				<path id="Path_1302" class="st1" d="M88.8,41.1c3.8,0,6.8,3.1,6.8,6.8c0,3.8-3.1,6.8-6.8,6.8c-3.8,0-6.8-3.1-6.8-6.8
					C82,44.1,85.1,41.1,88.8,41.1"/>
				<path id="Path_1303" class="st1" d="M88.8,82.1c3.8,0,6.8,3.1,6.8,6.8c0,3.8-3.1,6.8-6.8,6.8c-3.8,0-6.8-3.1-6.8-6.8
					C82,85.2,85.1,82.1,88.8,82.1"/>
				<path id="Path_1304" class="st2" d="M88.8,123.2c3.8,0,6.8,3.1,6.8,6.8c0,3.8-3.1,6.8-6.8,6.8c-3.8,0-6.8-3.1-6.8-6.8
					C82,126.2,85.1,123.2,88.8,123.2"/>
				<path id="Path_1305" class="st2" d="M88.8,164.2c3.8,0,6.8,3.1,6.8,6.8s-3.1,6.8-6.8,6.8c-3.8,0-6.8-3.1-6.8-6.8
					C82,167.3,85.1,164.2,88.8,164.2"/>
				<path id="Path_1306" class="st2" d="M88.8,205.3c3.8,0,6.8,3.1,6.8,6.8s-3.1,6.8-6.8,6.8c-3.8,0-6.8-3.1-6.8-6.8
					C82,208.3,85.1,205.3,88.8,205.3"/>
				<path id="Path_1307" class="st1" d="M126,0c3.8,0,6.8,3.1,6.8,6.8c0,3.8-3.1,6.8-6.8,6.8c-3.8,0-6.8-3.1-6.8-6.8
					C119.1,3.1,122.2,0,126,0"/>
				<path id="Path_1308" class="st1" d="M126,41.1c3.8,0,6.8,3.1,6.8,6.8c0,3.8-3.1,6.8-6.8,6.8c-3.8,0-6.8-3.1-6.8-6.8c0,0,0,0,0,0
					C119.1,44.1,122.2,41.1,126,41.1"/>
				<path id="Path_1309" class="st1" d="M126,82.1c3.8,0,6.8,3.1,6.8,6.8c0,3.8-3.1,6.8-6.8,6.8c-3.8,0-6.8-3.1-6.8-6.8
					C119.1,85.2,122.2,82.1,126,82.1C126,82.1,126,82.1,126,82.1"/>
				<path id="Path_1310" class="st2" d="M126,123.2c3.8,0,6.8,3.1,6.8,6.8c0,3.8-3.1,6.8-6.8,6.8c-3.8,0-6.8-3.1-6.8-6.8
					C119.1,126.2,122.2,123.2,126,123.2C126,123.2,126,123.2,126,123.2"/>
				<path id="Path_1311" class="st2" d="M126,164.2c3.8,0,6.8,3.1,6.8,6.8c0,3.8-3.1,6.8-6.8,6.8c-3.8,0-6.8-3.1-6.8-6.8
					C119.1,167.3,122.2,164.2,126,164.2C126,164.2,126,164.2,126,164.2"/>
				<path id="Path_1312" class="st2" d="M126,205.3c3.8,0,6.8,3.1,6.8,6.8c0,3.8-3.1,6.8-6.8,6.8c-3.8,0-6.8-3.1-6.8-6.8
					C119.1,208.3,122.2,205.3,126,205.3C126,205.3,126,205.3,126,205.3"/>
				<path id="Path_1313" class="st1" d="M161.2,0c3.8,0,6.8,3.1,6.8,6.8s-3.1,6.8-6.8,6.8c-3.8,0-6.8-3.1-6.8-6.8
					C154.4,3.1,157.4,0,161.2,0"/>
				<path id="Path_1314" class="st1" d="M161.2,41.1c3.8,0,6.8,3.1,6.8,6.8c0,3.8-3.1,6.8-6.8,6.8c-3.8,0-6.8-3.1-6.8-6.8
					C154.4,44.1,157.4,41.1,161.2,41.1"/>
				<path id="Path_1315" class="st1" d="M161.2,82.1c3.8,0,6.8,3.1,6.8,6.8c0,3.8-3.1,6.8-6.8,6.8c-3.8,0-6.8-3.1-6.8-6.8
					C154.4,85.2,157.4,82.1,161.2,82.1"/>
				<path id="Path_1316" class="st2" d="M161.2,123.2c3.8,0,6.8,3.1,6.8,6.8c0,3.8-3.1,6.8-6.8,6.8c-3.8,0-6.8-3.1-6.8-6.8
					C154.4,126.2,157.4,123.2,161.2,123.2"/>
				<path id="Path_1317" class="st2" d="M161.2,164.2c3.8,0,6.8,3.1,6.8,6.8s-3.1,6.8-6.8,6.8c-3.8,0-6.8-3.1-6.8-6.8
					C154.4,167.3,157.4,164.2,161.2,164.2"/>
				<path id="Path_1318" class="st2" d="M161.2,205.3c3.8,0,6.8,3.1,6.8,6.8s-3.1,6.8-6.8,6.8c-3.8,0-6.8-3.1-6.8-6.8
					C154.4,208.3,157.4,205.3,161.2,205.3"/>
				<path id="Path_1319" class="st1" d="M198.3,0c3.8,0,6.8,3.1,6.8,6.8c0,3.8-3.1,6.8-6.8,6.8c-3.8,0-6.8-3.1-6.8-6.8
					C191.5,3.1,194.6,0,198.3,0"/>
				<path id="Path_1320" class="st1" d="M198.3,41.1c3.8,0,6.8,3.1,6.8,6.8c0,3.8-3.1,6.8-6.8,6.8c-3.8,0-6.8-3.1-6.8-6.8
					c0,0,0,0,0,0C191.5,44.1,194.6,41.1,198.3,41.1C198.3,41.1,198.3,41.1,198.3,41.1"/>
				<path id="Path_1321" class="st1" d="M198.3,82.1c3.8,0,6.8,3.1,6.8,6.8c0,3.8-3.1,6.8-6.8,6.8c-3.8,0-6.8-3.1-6.8-6.8
					C191.5,85.2,194.6,82.1,198.3,82.1C198.3,82.1,198.3,82.1,198.3,82.1"/>
				<path id="Path_1322" class="st2" d="M198.3,123.2c3.8,0,6.8,3.1,6.8,6.8c0,3.8-3.1,6.8-6.8,6.8c-3.8,0-6.8-3.1-6.8-6.8
					C191.5,126.2,194.6,123.2,198.3,123.2C198.3,123.2,198.3,123.2,198.3,123.2"/>
				<path id="Path_1323" class="st2" d="M198.3,164.2c3.8,0,6.8,3.1,6.8,6.8c0,3.8-3.1,6.8-6.8,6.8c-3.8,0-6.8-3.1-6.8-6.8
					C191.5,167.3,194.6,164.2,198.3,164.2C198.3,164.2,198.3,164.2,198.3,164.2"/>
				<path id="Path_1324" class="st2" d="M198.3,205.3c3.8,0,6.8,3.1,6.8,6.8c0,3.8-3.1,6.8-6.8,6.8c-3.8,0-6.8-3.1-6.8-6.8
					C191.5,208.3,194.6,205.3,198.3,205.3C198.3,205.3,198.3,205.3,198.3,205.3"/>
			</g>
		</g>
	</g>
	<g id="Group_374" transform="translate(376 299)">
		<g>
			<defs>
				<rect id="SVGID_3_" x="82" y="0" width="123.2" height="218.9"/>
			</defs>
			<clipPath id="SVGID_4_">
				<use xlink:href="#SVGID_3_"  style="overflow:visible;"/>
			</clipPath>
			<g id="Group_372-2" transform="translate(0 0.001)" class="st3">
				<path id="Path_1301-2" class="st1" d="M88.8,0c3.8,0,6.8,3.1,6.8,6.8s-3.1,6.8-6.8,6.8c-3.8,0-6.8-3.1-6.8-6.8
					C82,3.1,85.1,0,88.8,0"/>
				<path id="Path_1302-2" class="st1" d="M88.8,41.1c3.8,0,6.8,3.1,6.8,6.8c0,3.8-3.1,6.8-6.8,6.8c-3.8,0-6.8-3.1-6.8-6.8
					C82,44.1,85.1,41.1,88.8,41.1"/>
				<path id="Path_1303-2" class="st1" d="M88.8,82.1c3.8,0,6.8,3.1,6.8,6.8c0,3.8-3.1,6.8-6.8,6.8c-3.8,0-6.8-3.1-6.8-6.8
					C82,85.2,85.1,82.1,88.8,82.1"/>
				<path id="Path_1304-2" class="st2" d="M88.8,123.2c3.8,0,6.8,3.1,6.8,6.8c0,3.8-3.1,6.8-6.8,6.8c-3.8,0-6.8-3.1-6.8-6.8
					C82,126.2,85.1,123.2,88.8,123.2"/>
				<path id="Path_1305-2" class="st2" d="M88.8,164.2c3.8,0,6.8,3.1,6.8,6.8s-3.1,6.8-6.8,6.8c-3.8,0-6.8-3.1-6.8-6.8
					C82,167.3,85.1,164.2,88.8,164.2"/>
				<path id="Path_1306-2" class="st2" d="M88.8,205.3c3.8,0,6.8,3.1,6.8,6.8s-3.1,6.8-6.8,6.8c-3.8,0-6.8-3.1-6.8-6.8
					C82,208.3,85.1,205.3,88.8,205.3"/>
				<path id="Path_1307-2" class="st1" d="M126,0c3.8,0,6.8,3.1,6.8,6.8c0,3.8-3.1,6.8-6.8,6.8c-3.8,0-6.8-3.1-6.8-6.8
					C119.1,3.1,122.2,0,126,0"/>
				<path id="Path_1308-2" class="st1" d="M126,41.1c3.8,0,6.8,3.1,6.8,6.8c0,3.8-3.1,6.8-6.8,6.8c-3.8,0-6.8-3.1-6.8-6.8
					c0,0,0,0,0,0C119.1,44.1,122.2,41.1,126,41.1"/>
				<path id="Path_1309-2" class="st1" d="M126,82.1c3.8,0,6.8,3.1,6.8,6.8c0,3.8-3.1,6.8-6.8,6.8c-3.8,0-6.8-3.1-6.8-6.8
					C119.1,85.2,122.2,82.1,126,82.1C126,82.1,126,82.1,126,82.1"/>
				<path id="Path_1310-2" class="st2" d="M126,123.2c3.8,0,6.8,3.1,6.8,6.8c0,3.8-3.1,6.8-6.8,6.8c-3.8,0-6.8-3.1-6.8-6.8
					C119.1,126.2,122.2,123.2,126,123.2C126,123.2,126,123.2,126,123.2"/>
				<path id="Path_1311-2" class="st2" d="M126,164.2c3.8,0,6.8,3.1,6.8,6.8c0,3.8-3.1,6.8-6.8,6.8c-3.8,0-6.8-3.1-6.8-6.8
					C119.1,167.3,122.2,164.2,126,164.2C126,164.2,126,164.2,126,164.2"/>
				<path id="Path_1312-2" class="st2" d="M126,205.3c3.8,0,6.8,3.1,6.8,6.8c0,3.8-3.1,6.8-6.8,6.8c-3.8,0-6.8-3.1-6.8-6.8
					C119.1,208.3,122.2,205.3,126,205.3C126,205.3,126,205.3,126,205.3"/>
				<path id="Path_1313-2" class="st1" d="M161.2,0c3.8,0,6.8,3.1,6.8,6.8s-3.1,6.8-6.8,6.8c-3.8,0-6.8-3.1-6.8-6.8
					C154.4,3.1,157.4,0,161.2,0"/>
				<path id="Path_1314-2" class="st1" d="M161.2,41.1c3.8,0,6.8,3.1,6.8,6.8c0,3.8-3.1,6.8-6.8,6.8c-3.8,0-6.8-3.1-6.8-6.8
					C154.4,44.1,157.4,41.1,161.2,41.1"/>
				<path id="Path_1315-2" class="st1" d="M161.2,82.1c3.8,0,6.8,3.1,6.8,6.8c0,3.8-3.1,6.8-6.8,6.8c-3.8,0-6.8-3.1-6.8-6.8
					C154.4,85.2,157.4,82.1,161.2,82.1"/>
				<path id="Path_1316-2" class="st2" d="M161.2,123.2c3.8,0,6.8,3.1,6.8,6.8c0,3.8-3.1,6.8-6.8,6.8c-3.8,0-6.8-3.1-6.8-6.8
					C154.4,126.2,157.4,123.2,161.2,123.2"/>
				<path id="Path_1317-2" class="st2" d="M161.2,164.2c3.8,0,6.8,3.1,6.8,6.8s-3.1,6.8-6.8,6.8c-3.8,0-6.8-3.1-6.8-6.8
					C154.4,167.3,157.4,164.2,161.2,164.2"/>
				<path id="Path_1318-2" class="st2" d="M161.2,205.3c3.8,0,6.8,3.1,6.8,6.8s-3.1,6.8-6.8,6.8c-3.8,0-6.8-3.1-6.8-6.8
					C154.4,208.3,157.4,205.3,161.2,205.3"/>
				<path id="Path_1319-2" class="st1" d="M198.3,0c3.8,0,6.8,3.1,6.8,6.8c0,3.8-3.1,6.8-6.8,6.8c-3.8,0-6.8-3.1-6.8-6.8
					C191.5,3.1,194.6,0,198.3,0"/>
				<path id="Path_1320-2" class="st1" d="M198.3,41.1c3.8,0,6.8,3.1,6.8,6.8c0,3.8-3.1,6.8-6.8,6.8c-3.8,0-6.8-3.1-6.8-6.8
					c0,0,0,0,0,0C191.5,44.1,194.6,41.1,198.3,41.1C198.3,41.1,198.3,41.1,198.3,41.1"/>
				<path id="Path_1321-2" class="st1" d="M198.3,82.1c3.8,0,6.8,3.1,6.8,6.8c0,3.8-3.1,6.8-6.8,6.8c-3.8,0-6.8-3.1-6.8-6.8
					C191.5,85.2,194.6,82.1,198.3,82.1C198.3,82.1,198.3,82.1,198.3,82.1"/>
				<path id="Path_1322-2" class="st2" d="M198.3,123.2c3.8,0,6.8,3.1,6.8,6.8c0,3.8-3.1,6.8-6.8,6.8c-3.8,0-6.8-3.1-6.8-6.8
					C191.5,126.2,194.6,123.2,198.3,123.2C198.3,123.2,198.3,123.2,198.3,123.2"/>
				<path id="Path_1323-2" class="st2" d="M198.3,164.2c3.8,0,6.8,3.1,6.8,6.8c0,3.8-3.1,6.8-6.8,6.8c-3.8,0-6.8-3.1-6.8-6.8
					C191.5,167.3,194.6,164.2,198.3,164.2C198.3,164.2,198.3,164.2,198.3,164.2"/>
				<path id="Path_1324-2" class="st2" d="M198.3,205.3c3.8,0,6.8,3.1,6.8,6.8c0,3.8-3.1,6.8-6.8,6.8c-3.8,0-6.8-3.1-6.8-6.8
					C191.5,208.3,194.6,205.3,198.3,205.3C198.3,205.3,198.3,205.3,198.3,205.3"/>
			</g>
		</g>
	</g>
</g>
<g>
	<defs>
		<rect id="SVGID_5_" x="82" width="590" height="351.9"/>
	</defs>
	<clipPath id="SVGID_6_">
		<use xlink:href="#SVGID_5_"  style="overflow:visible;"/>
	</clipPath>
	<g id="Group_552" class="st4">
		<g id="Group_483">
			<g>
				<defs>
					<rect id="SVGID_7_" x="82" width="590" height="351.9"/>
				</defs>
				<clipPath id="SVGID_8_">
					<use xlink:href="#SVGID_7_"  style="overflow:visible;"/>
				</clipPath>
				<path id="Path_1785" class="st5" d="M561.5,274.9l-39.4,68.9l-78,1.1c-2.5,0-4.5,2-4.6,4.5l79.3,0.2l3-0.1l99.3,0.2l20.1-34.6
					l25.6-36.7c1.1-1.6,0.7-3.9-0.9-5c-0.6-0.4-1.3-0.7-2.1-0.7l-99.1,0.4C563.4,273.1,562.2,273.8,561.5,274.9"/>
				<path id="Path_1786" class="st6" d="M666.8,275.3c-0.2,0-0.3,0.1-0.5,0.1l-1.4,0l-5.4,0.1l-19.7,0.2l-65,0.1H570
					c-1.4-0.1-2.8,0.5-3.6,1.7c-1.5,2.7-3,5.3-4.4,8c-2.9,5.2-5.7,10.3-8.4,15.1l-14.2,25.5c-4,7.2-7.3,13.1-9.7,17.2
					c-1.1,2-2,3.5-2.7,4.6c-0.3,0.5-0.5,0.9-0.7,1.2c-0.1,0.1-0.2,0.3-0.3,0.4c0-0.2,0.1-0.3,0.2-0.4l0.6-1.2
					c0.6-1.2,1.4-2.7,2.5-4.7l9.4-17.3l14-25.7c2.7-4.8,5.4-9.9,8.3-15.1l4.4-8c1-1.5,2.7-2.3,4.4-2.1h4.7l65,0.1l19.7,0.2l5.4,0.1
					l1.4,0C666.4,275.3,666.6,275.3,666.8,275.3"/>
				<path id="Path_1787" class="st7" d="M596.9,310c-1.8,1.9-1.8,4.8-0.1,6.3s4.5,1.2,6.3-0.7c1.8-1.7,1.8-4.5,0.1-6.3
					C601.5,307.7,598.7,308,596.9,310"/>
				<rect id="Rectangle_304" x="248.6" y="16.7" class="st5" width="24.5" height="42.2"/>
				<rect id="Rectangle_305" x="180.4" y="6.9" class="st5" width="19.3" height="52.6"/>
				<path id="Path_1788" class="st8" d="M180.1,10.7c3.3-0.3,6.6-0.4,9.9-0.3c3.3-0.1,6.6,0,9.9,0.3c-3.3,0.3-6.6,0.4-9.9,0.3
					C186.7,11.1,183.4,11,180.1,10.7"/>
				<path id="Path_1789" class="st8" d="M181.2,13.2c3.1-0.3,6.2-0.4,9.3-0.3c3.1-0.1,6.2,0,9.3,0.3c-3.1,0.3-6.2,0.4-9.3,0.3
					C187.4,13.6,184.3,13.5,181.2,13.2"/>
				<path id="Path_1790" class="st8" d="M189.5,49.2c-0.2,0-0.3-7-0.3-15.6s0.1-15.6,0.3-15.6s0.3,7,0.3,15.6S189.6,49.2,189.5,49.2
					"/>
				<path id="Path_1791" class="st8" d="M180.4,54c3.1-0.3,6.3-0.4,9.5-0.3c3.2-0.1,6.3,0,9.5,0.3c-3.1,0.3-6.3,0.4-9.5,0.3
					C186.7,54.4,183.5,54.3,180.4,54"/>
				<path id="Path_1792" class="st8" d="M180.4,56.2c3.2-0.3,6.5-0.4,9.7-0.3c3.2-0.1,6.5,0,9.7,0.3c-3.2,0.3-6.5,0.4-9.7,0.3
					C186.8,56.6,183.6,56.5,180.4,56.2"/>
				<rect id="Rectangle_306" x="199.7" y="1.2" class="st6" width="15.5" height="58.3"/>
				<path id="Path_1793" class="st8" d="M199.6,28c0.9,0.5,1.7,1,2.4,1.7c1.6,1.2,3.5,2.7,5.6,4.2l5.6,4.3c0.8,0.5,1.6,1.2,2.2,1.9
					c-0.9-0.4-1.7-0.9-2.5-1.5c-1.5-1-3.5-2.5-5.7-4.1s-4.1-3.2-5.5-4.4C200.9,29.4,200.2,28.7,199.6,28"/>
				<path id="Path_1794" class="st8" d="M199.5,18.9c2.8,2,5.4,4.1,7.9,6.4c2.6,2.1,5.2,4.4,7.6,6.9c-2.8-2-5.4-4.1-7.9-6.4
					C204.4,23.6,201.9,21.3,199.5,18.9"/>
				<rect id="Rectangle_307" x="132.2" y="4" class="st5" width="7.4" height="55.6"/>
				<path id="Path_1795" class="st8" d="M132.5,11.6c0,0.2,1.6,0.3,3.5,0.3s3.5-0.2,3.5-0.3s-1.6-0.3-3.5-0.3S132.5,11.4,132.5,11.6
					"/>
				<path id="Path_1796" class="st8" d="M132.4,10.4c0,0.2,1.6,0.3,3.5,0.3c1.9,0,3.5-0.2,3.5-0.3s-1.6-0.3-3.5-0.3
					C133.9,10,132.4,10.2,132.4,10.4"/>
				<path id="Path_1797" class="st8" d="M132.5,55.3c0,0.2,1.6,0.3,3.5,0.3s3.5-0.2,3.5-0.3s-1.6-0.3-3.5-0.3S132.5,55.1,132.5,55.3
					"/>
				<path id="Path_1798" class="st8" d="M132.4,54.1c0,0.2,1.6,0.3,3.5,0.3c1.9,0,3.5-0.2,3.5-0.3s-1.6-0.3-3.5-0.3
					C133.9,53.7,132.4,53.9,132.4,54.1"/>
				<path id="Path_1799" class="st8" d="M136.2,46.8c0.2,0,0.3-6.4,0.3-14.2s-0.2-14.2-0.3-14.2c-0.2,0-0.3,6.4-0.3,14.2
					S136,46.8,136.2,46.8"/>
				<rect id="Rectangle_308" x="165.5" y="3.7" class="st6" width="14.8" height="55.6"/>
				<path id="Path_1800" class="st8" d="M176.2,59.9c0.1-0.1,0.1-0.2,0.2-0.3c0.1-0.2,0.2-0.5,0.4-0.9c0.5-1.2,0.9-2.5,1.1-3.8
					c0.4-2.1,0.1-4.2-0.9-6.1c-0.6-1.2-1.5-2.2-2.6-2.9c-1.3-0.9-2.8-1.2-4.3-1c-0.8,0.1-1.6,0.5-2.2,1c-0.7,0.6-1.1,1.4-1.1,2.3
					c0.1,0.9,0.5,1.8,1.3,2.4c0.7,0.6,1.6,1,2.5,1.1c1.9,0.2,3.9-0.5,5.3-1.9c1.5-1.4,2.4-3.3,2.6-5.3c0.2-2.1-0.1-4.2-0.8-6.2
					c-0.7-2.1-1.9-4-3.6-5.4c-0.9-0.7-2-1.2-3.2-1.3c-1.2-0.1-2.5,0.3-3.3,1.2c-0.5,0.5-0.7,1.1-0.8,1.7c0,0.6,0.2,1.3,0.5,1.8
					c0.7,1,1.8,1.8,3,2c2.4,0.5,4.9-0.4,6.5-2.2c1.5-1.8,2.4-4,2.5-6.3c0.3-2.2,0-4.4-0.6-6.5c-0.6-2.1-2-3.8-3.8-4.9
					c-1.8-1.1-3.9-1.4-5.9-0.6c-1,0.4-1.7,1.2-1.9,2.3c-0.2,1,0.1,2,0.7,2.8c1.2,1.4,3.2,1.9,5,1.3c1.6-0.5,2.9-1.5,3.9-2.8
					c1.8-2.1,2.8-4.8,3-7.6c0.1-2.1-0.4-4.2-1.4-6c-0.6-1.2-1.4-2.2-2.3-3.1c-0.2-0.2-0.5-0.5-0.8-0.7c-0.1-0.1-0.2-0.1-0.3-0.2
					c1.3,1.2,2.4,2.6,3.1,4.1c0.9,1.8,1.3,3.9,1.2,5.9c-0.1,2.7-1.2,5.3-2.9,7.3c-1,1.2-2.3,2.1-3.7,2.6c-1.6,0.5-3.3,0.1-4.4-1.2
					c-0.5-0.7-0.7-1.5-0.6-2.3c0.2-0.8,0.8-1.5,1.6-1.8c1.8-0.7,3.7-0.4,5.3,0.6c1.7,1.1,2.9,2.7,3.5,4.6c0.6,2,0.8,4.1,0.6,6.2
					c-0.2,2.2-1,4.2-2.4,5.9c-1.5,1.6-3.7,2.4-5.9,2c-1-0.2-2-0.8-2.6-1.7c-0.6-0.8-0.5-2,0.2-2.7c0.7-0.7,1.8-1.1,2.8-1
					c1,0.1,2,0.5,2.8,1.1c1.6,1.3,2.8,3.1,3.4,5.1c0.7,1.9,0.9,3.9,0.8,5.9c-0.2,1.9-1,3.7-2.4,5c-1.3,1.3-3,1.9-4.8,1.8
					c-1.6-0.1-3-1.3-3.3-2.9c0-0.7,0.3-1.5,0.9-1.9c0.6-0.5,1.2-0.8,2-0.9c1.4-0.2,2.8,0.1,4,0.9c1.1,0.7,1.9,1.6,2.5,2.7
					c0.9,1.8,1.3,3.9,0.9,5.9c-0.2,1.3-0.5,2.5-0.9,3.8C176.3,59.5,176.1,59.9,176.2,59.9"/>
				<rect id="Rectangle_309" x="139.5" y="8.6" class="st8" width="25.8" height="50.6"/>
				<path id="Path_1801" class="st6" d="M140.4,17.1c0,0.2,5.6,0.3,12.5,0.3c6.9,0,12.5-0.2,12.5-0.3s-5.6-0.3-12.5-0.3
					C146,16.7,140.4,16.9,140.4,17.1"/>
				<path id="Path_1802" class="st6" d="M140.1,20.9c0,0.2,5.5,0.3,12.3,0.3c6.8,0,12.3-0.2,12.3-0.3s-5.5-0.3-12.3-0.3
					C145.6,20.5,140.1,20.7,140.1,20.9"/>
				<path id="Path_1803" class="st6" d="M139.3,53.5c0,0.2,5.8,0.3,13,0.3s13-0.2,13-0.3s-5.8-0.3-13-0.3S139.3,53.3,139.3,53.5"/>
				<path id="Path_1804" class="st6" d="M139.6,49c0,0.2,5.7,0.3,12.6,0.3s12.6-0.2,12.6-0.3s-5.6-0.4-12.6-0.4S139.6,48.8,139.6,49
					"/>
				<rect id="Rectangle_310" x="215.2" y="3.3" class="st5" width="14.8" height="55.6"/>
				<path id="Path_1805" class="st8" d="M225.9,59.6c0.1-0.1,0.1-0.2,0.2-0.3c0.1-0.2,0.2-0.5,0.4-0.9c0.5-1.2,0.9-2.5,1.1-3.8
					c0.4-2.1,0.1-4.2-0.9-6.1c-0.6-1.2-1.5-2.2-2.6-2.9c-1.3-0.9-2.8-1.2-4.3-1c-0.8,0.1-1.6,0.5-2.2,1c-0.7,0.6-1.1,1.4-1.1,2.3
					c0.1,0.9,0.5,1.8,1.3,2.4c0.7,0.6,1.6,1,2.5,1.1c1.9,0.2,3.9-0.5,5.3-1.9c1.5-1.4,2.4-3.3,2.6-5.3c0.2-2.1-0.1-4.2-0.8-6.2
					c-0.7-2.1-1.9-4-3.6-5.4c-0.9-0.7-2-1.2-3.2-1.3c-1.2-0.1-2.5,0.3-3.3,1.2c-0.5,0.5-0.7,1.1-0.8,1.7c0,0.6,0.2,1.3,0.5,1.8
					c0.7,1,1.8,1.8,3,2c2.4,0.5,4.9-0.4,6.5-2.2c1.5-1.8,2.4-4,2.5-6.3c0.3-2.2,0-4.4-0.6-6.5c-0.6-2.1-2-3.8-3.8-4.9
					c-1.8-1.1-3.9-1.4-5.9-0.6c-1,0.4-1.7,1.2-1.9,2.3c-0.2,1,0.1,2,0.7,2.8c1.2,1.4,3.2,1.9,5,1.3c1.6-0.5,2.9-1.5,3.9-2.8
					c1.8-2.1,2.8-4.8,3-7.6c0.1-2.1-0.4-4.2-1.4-6c-0.6-1.2-1.4-2.2-2.3-3.1c-0.2-0.2-0.5-0.5-0.8-0.7c-0.1-0.1-0.2-0.1-0.3-0.2
					c1.3,1.2,2.4,2.6,3.1,4.1c0.9,1.8,1.3,3.9,1.2,5.9c-0.1,2.7-1.2,5.3-2.9,7.3c-1,1.2-2.3,2.1-3.7,2.6c-1.6,0.5-3.3,0.1-4.4-1.2
					c-0.5-0.7-0.7-1.5-0.6-2.3c0.2-0.8,0.8-1.5,1.6-1.8c1.8-0.7,3.7-0.4,5.3,0.6c1.7,1.1,2.9,2.7,3.5,4.6c0.6,2,0.8,4.1,0.6,6.2
					c-0.2,2.2-1,4.2-2.4,5.9c-1.5,1.6-3.7,2.4-5.9,2c-1-0.2-2-0.8-2.6-1.7c-0.6-0.8-0.5-2,0.2-2.7c0.7-0.7,1.8-1.1,2.8-1
					c1,0.1,2,0.5,2.8,1.1c1.6,1.3,2.8,3.1,3.4,5.1c0.7,1.9,0.9,3.9,0.8,5.9c-0.2,1.9-1,3.7-2.4,5c-1.3,1.3-3,1.9-4.8,1.8
					c-1.6-0.1-3-1.3-3.3-2.9c0-0.7,0.3-1.5,0.9-1.9c0.6-0.5,1.2-0.8,1.9-0.9c1.4-0.2,2.8,0.1,4,0.9c1.1,0.7,1.9,1.6,2.5,2.7
					c0.9,1.8,1.3,3.9,0.9,5.9c-0.2,1.3-0.5,2.5-0.9,3.8C226,59.1,225.8,59.6,225.9,59.6"/>
				<rect id="Rectangle_311" x="111.6" y="0.5" class="st6" width="20.6" height="58.4"/>
				<rect id="Rectangle_312" x="230" y="6.9" class="st6" width="19.3" height="52"/>
				<path id="Path_1806" class="st8" d="M249.8,32.8c0.9,0.8,2,1.6,3.1,2.2c1.2,0.6,2.5,1,3.9,1.1c1.7,0.1,3.3-0.2,4.8-0.8
					c1.6-0.7,3.1-1.6,4.6-2.1c1.3-0.5,2.8-0.7,4.2-0.4c1,0.2,1.8,0.7,2.4,1.5c0.2,0.3,0.4,0.6,0.5,0.9c0,0-0.2-0.3-0.6-0.8
					c-0.6-0.6-1.5-1.1-2.4-1.2c-1.3-0.2-2.7,0-3.9,0.5c-1.4,0.5-2.9,1.4-4.6,2.1c-1.6,0.7-3.4,1-5.1,0.8c-1.4-0.1-2.8-0.6-4-1.2
					c-0.8-0.5-1.6-1-2.2-1.7C250.2,33.4,250,33.1,249.8,32.8"/>
				<path id="Path_1807" class="st8" d="M249.4,38c0.9,0.8,2,1.6,3.1,2.2c1.2,0.6,2.5,1,3.9,1.1c1.7,0.1,3.3-0.2,4.8-0.8
					c1.6-0.7,3.1-1.6,4.6-2.1c1.3-0.5,2.8-0.7,4.2-0.4c1,0.2,1.8,0.7,2.4,1.5c0.2,0.3,0.4,0.6,0.5,0.9c0,0-0.2-0.3-0.6-0.8
					c-0.6-0.6-1.5-1.1-2.4-1.2c-1.3-0.2-2.7,0-3.9,0.5c-1.4,0.5-2.9,1.4-4.6,2.1c-1.6,0.7-3.4,1-5.1,0.8c-1.4-0.1-2.8-0.6-4-1.2
					c-0.8-0.5-1.6-1-2.2-1.7C249.7,38.6,249.5,38.3,249.4,38"/>
				<path id="Path_1808" class="st8" d="M249.7,21.3c0-0.2,5.3-0.3,11.9-0.3c6.6,0,11.9,0.1,11.9,0.3s-5.3,0.3-11.9,0.3
					C255,21.6,249.7,21.5,249.7,21.3"/>
				<path id="Path_1809" class="st8" d="M241,15.3c-0.5-0.2-1.1-0.3-1.7-0.1c-0.6,0.2-1,0.5-1.3,1.1c-0.3,1,0.3,2,1.3,2.3
					c0.4,0.1,0.8,0.1,1.1,0c0.5-0.3,0.9-0.8,1-1.3c0.1-0.6,0-1.1-0.2-1.7c0,0,0.2,0.1,0.4,0.4c0.2,0.4,0.3,0.9,0.2,1.4
					c-0.1,0.7-0.5,1.4-1.2,1.8c-1.2,0.5-2.6-0.1-3.1-1.3c-0.2-0.5-0.2-1.2,0-1.7c0.3-0.7,1-1.1,1.7-1.3c0.5-0.1,1,0,1.4,0.2
					C240.9,15.1,241,15.3,241,15.3"/>
				<path id="Path_1810" class="st8" d="M239.7,53.7c-0.2,0-0.3-7.3-0.3-16.3s0.1-16.3,0.3-16.3s0.3,7.3,0.3,16.3
					S239.9,53.7,239.7,53.7"/>
				<rect id="Rectangle_313" x="93.6" y="58.6" class="st5" width="199.7" height="11.4"/>
				<rect id="Rectangle_314" x="275.8" y="58.6" class="st6" width="17.4" height="11.4"/>
				<path id="Path_1811" class="st9" d="M329,68.6l-1.1,88.1c-0.2,15,2.6,37,26.3,36.2c20.5-2.2,25.9-21.6,26.1-35.6
					c0.1-6.6,0.2-12.2,0.2-12.8c0,0,22.4-1.8,24.3-24c0.9-10.7,1-32.9,0.9-53c-0.2-21.6-16.9-39.4-38.4-41l-2.1-0.2
					C341.9,25.9,328.7,45.4,329,68.6"/>
				<path id="Path_1812" class="st10" d="M380.5,144.5c0,0-14-0.2-28.3-10.7c0,0,5.9,16.7,28.2,16.3L380.5,144.5z"/>
				<path id="Path_1813" class="st11" d="M367.8,76.5c-0.4,0.4-3-1.6-6.7-1.7c-3.7-0.2-6.5,1.7-6.9,1.2c-0.2-0.2,0.3-1,1.5-1.9
					c1.6-1.1,3.6-1.6,5.5-1.6c1.9,0.1,3.8,0.7,5.3,1.9C367.6,75.5,368,76.3,367.8,76.5"/>
				<path id="Path_1814" class="st11" d="M367,84.2c-0.1,1.6-1.5,2.9-3.1,2.8c-1.6,0-2.9-1.3-2.9-2.9c0,0,0,0,0-0.1
					c0.1-1.6,1.5-2.9,3.1-2.8C365.7,81.3,367,82.5,367,84.2C367,84.2,367,84.2,367,84.2"/>
				<path id="Path_1815" class="st11" d="M377.1,102.4c0-0.2,2.1-0.4,5.6-0.6c0.9,0,1.7-0.1,1.9-0.7c0.1-0.9,0-1.8-0.4-2.6l-2.1-6.8
					c-2.9-9.7-4.9-17.7-4.5-17.8s3,7.7,5.9,17.4c0.7,2.4,1.4,4.7,2,6.8c0.5,1.1,0.5,2.3,0.2,3.5c-0.3,0.6-0.9,1-1.5,1.2
					c-0.5,0.1-1,0.1-1.5,0.1C379.2,102.7,377.1,102.6,377.1,102.4"/>
				<path id="Path_1816" class="st9" d="M329.6,85.2c-0.4-0.2-14.9-5.6-15.5,9.6s14.8,12.7,14.8,12.3S329.6,85.2,329.6,85.2"/>
				<path id="Path_1817" class="st10" d="M324.5,101.1c-0.1-0.1-0.3,0.2-0.7,0.4c-0.6,0.2-1.4,0.2-2,0c-1.6-0.7-2.8-3.3-2.8-6
					c0-1.3,0.3-2.6,0.9-3.8c0.3-1,1.1-1.7,2.1-2c0.6-0.1,1.3,0.2,1.5,0.8c0.2,0.4,0.1,0.7,0.2,0.8c0,0,0.3-0.2,0.2-0.9
					c-0.1-0.4-0.3-0.7-0.6-1c-0.4-0.3-0.9-0.5-1.4-0.4c-1.3,0.2-2.4,1-2.9,2.2c-0.7,1.3-1.1,2.7-1.1,4.2c0,3.1,1.4,6,3.6,6.7
					c0.8,0.3,1.7,0.2,2.4-0.3C324.4,101.5,324.5,101.1,324.5,101.1"/>
				<path id="Path_1818" class="st11" d="M373.5,112.9c0.2-0.4-2.8-1.3-4.9-4.1c-0.9-1.2-1.6-2.6-2.1-4c-0.4-1.1-0.8-1.8-0.9-1.7
					s-0.1,0.8,0.1,2c0.3,1.6,1,3.1,2,4.4c1,1.3,2.3,2.4,3.9,3C372.7,113,373.5,113,373.5,112.9"/>
				<path id="Path_1819" class="st12" d="M435.1,47.5c-0.3-0.9-0.9-1.6-1.7-2.1c-1.7-1-3.7-0.9-5.7-0.9c-5.9-0.1-11.7-1.9-16.7-5.1
					c-2.3-3.3-4.9-6.5-7.8-9.4c-6.7-6.9-12.2-11.6-18-13.9c-7.4-3-19.8-4.2-27.5-2.2s-14.6,8.3-15.7,16.2
					c-4.3-3.7-10.8-3.6-16.1-1.5l-0.1-0.1c-5.9,2.1-9.2,8.3-10.9,14.3s-2.5,12.4-5.6,17.7c-0.7,1.1-1.4,2.5-0.9,3.6
					c0.5,0.9,1.6,1.3,2.6,1.1c1-0.2,1.9-0.6,2.7-1.2c-0.7,1.6-1.3,3.1-2,4.7c2.1,0.4,4.3,0.2,6.4-0.4c1.1,5.3,2.5,10.6,4.2,15.8
					c2.5,0,4.7,0.2,6.2,1.5c2.1,1.8,3,5.3,6.4,4c1.7-0.7,3.3-4.3,3.9-6.1c3.9-11.8,5.1-24.3,3.7-36.6c2.4-2.6,5.4-4.7,8.6-6.2
					L351,41c6.2-2.2,13.2-4.3,19.1-1.4c4.6,2.3,7.2,7,10.6,10.8c6.4,7,15.3,11.2,24.8,11.5c0.3,6.2-0.2,15.1,0.1,21.3l5.3-10v0.1
					c0.4-0.7,0.8-1.5,1.1-2.2l0.1-0.2v0c0.5-1.2,1.1-2.4,1.8-3.6l0.1,0.1c3.4,3,8.4-1.6,5.7-5.2c-0.5-0.7-1.2-1.4-1.9-1.9
					c1.6,1.5,3.8,2.1,5.9,1.5c2.1-0.6,3.5-2.6,3.4-4.8c-0.2-1.5-1.1-2.7-2.5-3.3c2.8,0.2,5.5-0.4,7.9-1.7
					C434.1,51,435.7,49.5,435.1,47.5"/>
				<path id="Path_1820" class="st13" d="M349.2,32.7c-0.8,0.6-1.5,1.3-2.2,2c-1.8,2.1-2.9,4.7-3.4,7.4c-0.4,1.9-0.6,3.7-0.6,5.6
					c0,2,0.2,4.2,0.3,6.5c0.2,2.4,0.3,4.8,0.2,7.3c-0.1,1.3-0.2,2.6-0.5,3.8c-0.2,1.4-0.7,2.6-1.6,3.7c-0.8,0.9-2,1.3-3.1,1.1
					c-1.1-0.2-2.1-0.8-2.8-1.6c-1.4-1.7-1.8-3.8-2.1-5.6l0.5,0.1c-0.7,1.7-1.6,3.2-2.7,4.6c-1.1,1.3-2.6,2.2-4.3,2.3
					c-0.8,0.1-1.6-0.1-2.3-0.4c-0.7-0.3-1.2-0.9-1.6-1.5c-0.3-0.6-0.5-1.3-0.5-2c0-0.6,0.3-1.3,0.7-1.7l0.2,0.2
					c-1.3,1.5-2.9,2.7-4.8,3.6c-0.5,0.2-1,0.4-1.5,0.6c-0.2,0.1-0.3,0.1-0.5,0.1c0.2-0.1,0.3-0.2,0.5-0.2c0.3-0.1,0.8-0.3,1.4-0.6
					c1.8-0.9,3.3-2.1,4.6-3.6l0.2,0.2c-0.7,1-0.8,2.3-0.1,3.3c0.3,0.6,0.8,1.1,1.4,1.4c0.6,0.3,1.4,0.4,2.1,0.3c1.6-0.2,3-1,4-2.2
					c1.1-1.4,2-2.9,2.6-4.5l0.3-0.7l0.1,0.8c0.4,1.9,0.7,3.9,2,5.4c0.7,0.7,1.5,1.2,2.5,1.4c1,0.2,2-0.1,2.7-0.9
					c0.8-1,1.3-2.2,1.4-3.5c0.3-1.2,0.4-2.5,0.5-3.8c0.1-2.4,0.1-4.8-0.1-7.2c-0.1-2.3-0.3-4.5-0.3-6.6c0-1.9,0.2-3.8,0.6-5.7
					c0.5-2.8,1.8-5.3,3.6-7.4C347.5,33.8,348.3,33.2,349.2,32.7"/>
				<path id="Path_1821" class="st13" d="M417.8,54.2c0,0-0.1,0.1-0.2,0.2l-0.6,0.4c-0.3,0.2-0.6,0.4-0.9,0.6
					c-0.4,0.3-0.9,0.5-1.3,0.7c-3,1.3-6.2,1.9-9.5,1.7c-4.8-0.3-9.5-2-13.4-4.9c-4.7-3.6-8.6-8.1-11.5-13.3c-1.6-2.7-2.9-5.4-4.4-8
					c-1.3-2.5-3-4.7-5-6.8c-1.8-1.8-4-3.1-6.4-3.9c-1.1-0.3-2.2-0.4-3.4-0.4c-1,0.1-2.1,0.3-3.1,0.6c-3,1-5.6,3.2-7.1,6
					c-0.5,1.1-0.9,2.2-1.1,3.3c0-0.1,0-0.2,0-0.2c0-0.2,0.1-0.4,0.1-0.7c0.2-0.9,0.5-1.7,0.8-2.5c0.6-1.3,1.5-2.4,2.5-3.4
					c1.3-1.3,2.9-2.3,4.7-2.9c1-0.4,2.1-0.6,3.2-0.6c1.2-0.1,2.4,0.1,3.5,0.4c2.5,0.7,4.8,2.1,6.6,4c2,2,3.7,4.3,5.1,6.8
					c1.5,2.6,2.8,5.3,4.4,8c2.9,5.1,6.7,9.6,11.3,13.1c3.8,2.9,8.4,4.6,13.1,5c3.2,0.3,6.4-0.3,9.4-1.5
					C415.7,55.4,416.8,54.9,417.8,54.2"/>
				<path id="Path_1822" class="st13" d="M419.8,44.5c-0.2,0.2-0.5,0.4-0.8,0.6c-0.8,0.5-1.5,0.9-2.4,1.2c-1.2,0.5-2.5,0.9-3.7,1.2
					c-3.1,0.7-6.4,0.8-9.6,0.3c-1.3-0.2-2.6-0.5-3.8-1c-0.8-0.3-1.6-0.6-2.4-1.1c-0.3-0.1-0.6-0.3-0.8-0.5c0-0.1,1.3,0.5,3.4,1.2
					c1.2,0.4,2.5,0.7,3.8,0.9c3.1,0.5,6.3,0.4,9.4-0.3c1.3-0.3,2.5-0.6,3.7-1.1C418.6,45.1,419.7,44.4,419.8,44.5"/>
				<path id="Path_1823" class="st11" d="M401.7,77.9c-0.4,0.4-3-1.6-6.7-1.7c-3.7-0.2-6.5,1.7-6.9,1.2c-0.2-0.2,0.3-1,1.5-1.9
					c1.6-1.1,3.6-1.6,5.5-1.6c1.9,0.1,3.8,0.7,5.3,1.9C401.5,76.9,401.9,77.7,401.7,77.9"/>
				<path id="Path_1824" class="st11" d="M397.9,85.3c-0.1,1.6-1.5,2.9-3.1,2.8c-1.6,0-2.9-1.3-2.9-2.9c0,0,0,0,0-0.1
					c0.1-1.6,1.5-2.9,3.1-2.8C396.6,82.3,397.9,83.6,397.9,85.3C397.9,85.2,397.9,85.3,397.9,85.3"/>
				<path id="Path_1825" class="st9" d="M536.4,166.4c0-6.4-6.2-6.4-6.2-6.4c-2.3-3.1-5-2-5-2l-10,6.7c-1.5,2.5-11.1,12-11.1,12
					c-2.6-2-2.6-5.9-5.8-10.6s-10.3-4.2-10.3-4.2s5.6,12.6,6.2,20.4c0.6,7.8-4.3,29.7-4.3,29.7l28.2,7.9c0,0,1.8-12,4.9-13
					c3.8-1.2,5.9-6.8,5.9-6.8c4.1-8.3,12.4-20.4,13.6-26.6C543.7,167.5,536.4,166.4,536.4,166.4"/>
				<path id="Path_1826" class="st13" d="M326.9,152.4c17.9,11.3,36,15.5,54.4,8.2l27.5,7l27.1,181L277,350.1l7.8-42L304.5,157
					L326.9,152.4z"/>
				<path id="Path_1827" class="st13" d="M408.8,167.7c0,0,21.4,8.9,29.6,24.5s21.3,59.3,21.3,59.3l24.2-44.4l44.9,11.5
					c0,0-33.4,92.2-41.8,100.6c-9.2,9.2-34.2,18.5-46.5,11.3s-14.8-34.3-14.8-34.3L408.8,167.7z"/>
				<path id="Path_1828" class="st11" d="M410.2,243.4c-0.1,0-0.2-8-0.2-18s0.1-18,0.2-18c0.1,0,0.2,8,0.2,18
					S410.4,243.4,410.2,243.4"/>
				<path id="Path_1829" class="st11" d="M418.6,178c-0.3,1-0.6,2-1,3c-0.7,1.8-1.6,4.3-2.4,7.2s-1.6,5.4-2,7.3c-0.2,1-0.5,2-0.8,3
					c0-0.3,0-0.6,0.1-0.8c0.1-0.5,0.2-1.3,0.4-2.3c0.4-1.9,1-4.5,1.9-7.4s1.8-5.4,2.6-7.1c0.4-0.9,0.7-1.6,0.9-2.1
					C418.3,178.5,418.5,178.3,418.6,178"/>
				<path id="Path_1830" class="st13" d="M301.6,224.8l5-68.2c0,0-37.4,3.5-49.8,29.8c-10.4,22.2-39.2,89.1-42.3,98.3
					c-9,26.8,5.1,63.8,63.3,61.6l6.6-36.5L301.6,224.8z"/>
				<path id="Path_1831" class="st11" d="M259.7,317.4c0.1-0.2,0.2-0.4,0.3-0.7l1-1.8c0.9-1.6,2.1-3.9,3.6-6.7l1.2-2.2
					c0.4-0.8,1-1.6,1.7-2.2c0.8-0.6,1.9-0.9,2.9-0.8c1,0,2.1,0.2,3.1,0.5c2.2,0.6,4.3,1.4,6.3,2.4c1.1,0.5,2.1,1.2,3,1.9l0.3,0.3
					c0.1,0.1,0.2,0.3,0.3,0.5c0.1,0.3,0.2,0.6,0.2,0.9c0.1,0.6,0.1,1.2,0,1.9c-0.1,2.5-0.4,4.8-0.7,7.1c-0.3,2.3-0.7,4.5-1,6.6
					c-0.7,4.2-1.4,7.9-2,11.1c-0.6,3.1-1.1,5.7-1.5,7.5c-0.2,0.8-0.3,1.5-0.4,2c0,0.2-0.1,0.5-0.1,0.7c0-0.2,0-0.5,0.1-0.7
					c0.1-0.5,0.2-1.2,0.3-2c0.3-1.8,0.8-4.4,1.3-7.5c0.6-3.2,1.2-6.9,1.9-11.1c0.3-2.1,0.7-4.3,1-6.6s0.6-4.7,0.7-7.1
					c0-0.6,0-1.2,0-1.8c0-0.3-0.1-0.6-0.2-0.8c0-0.1-0.1-0.2-0.2-0.3l-0.3-0.3c-0.9-0.7-1.9-1.3-2.9-1.9c-2-1-4-1.8-6.2-2.4
					c-1-0.3-2-0.5-3-0.5c-0.9-0.1-1.9,0.2-2.6,0.7c-0.7,0.6-1.2,1.3-1.6,2.1c-0.4,0.8-0.8,1.5-1.2,2.2l-3.7,6.6
					c-0.4,0.8-0.8,1.3-1,1.8C260,317,259.9,317.2,259.7,317.4"/>
				<path id="Path_1832" class="st11" d="M232.7,285c0.1,0,0.3,0,0.4,0l1.3,0c1.1,0.1,2.7,0.1,4.6,0.3c2.3,0.2,4.5,0.5,6.8,1
					c2.8,0.6,5.4,1.4,8,2.6c2.5,1.2,4.9,2.8,7,4.6c1.7,1.5,3.2,3.3,4.3,5.4c0.7,1.4,1.2,2.9,1.3,4.4c0,0.4,0,0.8,0,1.3
					c0,0.1,0,0.3,0,0.4c-0.1,0,0-0.6-0.2-1.7c-0.2-1.5-0.7-3-1.4-4.3c-1.1-2-2.5-3.8-4.3-5.2c-2.1-1.8-4.4-3.3-6.9-4.5
					c-2.5-1.2-5.2-2.1-7.9-2.6c-2.2-0.5-4.5-0.8-6.7-1.1c-1.9-0.2-3.5-0.4-4.6-0.5l-1.2-0.1C233,285.1,232.8,285,232.7,285"/>
				<path id="Path_1833" class="st11" d="M272.7,281.6c-0.2,0.9-0.5,1.8-0.9,2.7c-0.6,1.6-1.6,3.9-2.7,6.3l-2.8,6.2
					c-0.3,0.9-0.8,1.7-1.2,2.6c0.2-0.9,0.5-1.8,0.9-2.7c0.6-1.6,1.6-3.9,2.7-6.3c1.1-2.4,2-4.5,2.8-6.2
					C271.8,283.2,272.2,282.4,272.7,281.6"/>
				<path id="Path_1834" class="st11" d="M293.4,227.9c-0.1,0-0.2-4.3-0.2-9.7s0.1-9.7,0.2-9.7s0.2,4.3,0.2,9.7
					C293.6,223.6,293.5,227.9,293.4,227.9"/>
				<g id="Group_475" transform="translate(164.938 305.165)" class="st14">
					<g id="Group_474">
						<g>
							<defs>
								<rect id="SVGID_9_" x="82" y="0" width="19.4" height="26.2"/>
							</defs>
							<clipPath id="SVGID_10_">
								<use xlink:href="#SVGID_9_"  style="overflow:visible;"/>
							</clipPath>
							<g id="Group_473" class="st15">
								<path id="Path_1835" d="M101.4,0c-9.8,3.4-16.5,12.4-19.2,22.4c-0.3,1.1-0.5,2.3,0.2,3.1c0.8,0.8,2.1,0.9,3.1,0.3
									c0.9-0.7,1.7-1.5,2.2-2.5C92.5,15.7,97.1,8.7,101.4,0"/>
							</g>
						</g>
					</g>
				</g>
				<g id="Group_478" transform="translate(141.112 281.227)" class="st14">
					<g id="Group_477">
						<g>
							<defs>
								<rect id="SVGID_11_" x="82" y="0" width="42" height="18.1"/>
							</defs>
							<clipPath id="SVGID_12_">
								<use xlink:href="#SVGID_11_"  style="overflow:visible;"/>
							</clipPath>
							<g id="Group_476" class="st16">
								<path id="Path_1836" d="M113,4.5c-5.2-2.7-11-4.2-16.9-4.4c-2.3-0.1-4.6,0.1-6.8,0.6C86.2,1.3,82.7,2.8,82,5
									c7.1-2.2,17.5-0.8,24.7,0.8c7.2,1.5,13.5,5.9,17.3,12.2C122.1,12.4,118.2,7.5,113,4.5"/>
							</g>
						</g>
					</g>
				</g>
				<path id="Path_1837" class="st11" d="M287.9,198.8c-0.2-0.3-0.3-0.7-0.3-1.1c-0.2-0.7-0.5-1.7-0.9-2.9
					c-2.1-6.4-5.6-12.3-10.2-17.3c-0.9-1-1.6-1.7-2.1-2.2c-0.3-0.2-0.5-0.5-0.8-0.8c0.3,0.2,0.6,0.4,0.9,0.7
					c0.6,0.5,1.3,1.2,2.2,2.1c4.8,4.9,8.3,10.9,10.2,17.4c0.4,1.2,0.6,2.3,0.8,3C287.8,198.1,287.9,198.5,287.9,198.8"/>
				<path id="Path_1838" class="st17" d="M301.6,350L260,249.5c-1.9-4.6,0.5-8.3,5.3-8.3h8.4c3.4,0,5.8-1.9,6-4.8l0.3-3.7
					c0.2-2.9,2.6-4.8,6-4.8h39.8c3.5,0.2,6.8,1.6,9.2,4.1l3.2,3.1c2.5,2.5,5.7,3.9,9.2,4.1h50.7c4.8,0,10.3,3.7,12.1,8.3L451.6,350
					H301.6z"/>
				<path id="Path_1839" class="st6" d="M294.8,315.9L279,255.2c-1-4,1.6-8,5.2-8h123.2c2.6,0.1,4.7,2,5.2,4.5l22.9,91.4
					c1,4-0.6,6.4-4.3,6.4l-123.9,0c-2.5-0.2-4.7-2-5.2-4.5L294.8,315.9z"/>
				<path id="Path_1840" class="st5" d="M303.3,347.3l-6.7-95.7c-0.2-3.2,2.2-6,5.4-6.3c0.1,0,0.3,0,0.4,0H430v102H303.3z"/>
				<path id="Path_1841" class="st8" d="M301.8,349.5l15.2-98.6c0.7-3.2,3.6-5.5,6.9-5.5h129.1c3.9-0.1,7,3,7.1,6.9
					c0,1-0.2,1.9-0.6,2.8l-27.9,90.3L301.8,349.5z"/>
				<path id="Path_1842" class="st18" d="M301.6,350l31.3-92.4c1.2-3.8,4.7-6.4,8.7-6.4h133.1c3.6,0.1,6.4,3.1,6.3,6.7
					c0,0.7-0.1,1.3-0.4,1.9L451.6,350L301.6,350z"/>
				<g id="Group_481" transform="translate(222.355 294.844)" class="st14">
					<g id="Group_480">
						<g>
							<defs>
								<rect id="SVGID_13_" x="82" y="0" width="63.7" height="55.2"/>
							</defs>
							<clipPath id="SVGID_14_">
								<use xlink:href="#SVGID_13_"  style="overflow:visible;"/>
							</clipPath>
							<g id="Group_479" class="st19">
								<path id="Path_1843" d="M143.6,39.7c0,0-5,0.2-7.3,0.4c-11.1,0.7-22.2-1.2-32.3-5.7c-3.1-1.4-6.4-3.4-7.4-6.7
									c-1.1-3.7,1.3-7.5,4.2-10s6.5-4.3,9-7.2S113.5,2.9,111,0l-0.7,0.5c-1.8,4.6-6.8,6.8-11,9.4c-7.8,4.9-13.5,12.5-16.3,21.2
									c-1.5,4.8-1.9,10.4,1,14.4c2.1,2.9,5.4,4.5,8.8,5.8c10.1,3.7,20.8,3.9,31.6,3.9c3.4,0,13.8-0.1,13.8-0.1
									c3.3-0.9,4.4-2.6,6.3-5.4C146.4,47.2,146,41.7,143.6,39.7"/>
							</g>
						</g>
					</g>
				</g>
				<path id="Path_1844" class="st9" d="M366,334.5l-34.7-5.2l-13.5-7.8c-1.8-1-3-2.8-3.1-4.9c0,0,0-0.1,0-0.1
					c-0.1-2.6,1.4-4.9,3.8-5.9c4.3-1.8,11-4.2,13.9-9.3c4.2-7.3,0-8.8,0-8.8l-29,11.6l-20.5,14l-4.1,23.3l28.6,9.4
					c0,0,31.9,1.8,40.7,0.8s8.8-5.1,8.8-5.1c1.6-0.5,4.9-3.4,4.9-6.1C366.2,336.4,366,334.5,366,334.5"/>
				<path id="Path_1845" class="st10" d="M321.6,344.6c0.5,0,1,0.1,1.4,0.3c0.9,0.2,2.2,0.5,3.9,0.8c8.5,1.7,17.3,2.1,25.9,1
					c1.7-0.2,3-0.4,3.9-0.5c0.5-0.1,1-0.2,1.4-0.2c-0.5,0.2-0.9,0.3-1.4,0.4c-0.9,0.2-2.2,0.5-3.9,0.7c-8.7,1.3-17.5,0.9-26-1
					c-1.6-0.4-2.9-0.7-3.8-1C322.5,344.9,322,344.8,321.6,344.6"/>
				<path id="Path_1846" class="st10" d="M324.8,339.2c0.5,0,1,0.1,1.5,0.3c0.9,0.2,2.3,0.5,3.9,0.8c4.3,0.8,8.7,1.3,13.1,1.5
					c4.4,0.1,8.8-0.1,13.2-0.6c1.7-0.2,3-0.4,4-0.5c0.5-0.1,1-0.2,1.5-0.2c-0.5,0.2-0.9,0.3-1.4,0.4c-0.9,0.2-2.3,0.5-4,0.7
					c-4.4,0.7-8.8,0.9-13.3,0.8c-4.4-0.1-8.9-0.7-13.2-1.6c-1.7-0.4-3-0.7-3.9-1C325.7,339.6,325.2,339.4,324.8,339.2"/>
				<path id="Path_1848" class="st20" d="M458,125.5c-2.9,0.6-4.8,3.6-4.2,6.5l16.3,74.6c0.6,2.9,3.6,4.8,6.5,4.2l53.3-11.6
					c2.9-0.6,4.8-3.6,4.2-6.5L521.3,134l-26-16.7L458,125.5z"/>
				<path id="Path_1849" class="st21" d="M505.3,137.5l16-3.5l-26-16.7l3.5,16C499.5,136.3,502.4,138.1,505.3,137.5"/>
				<path id="Path_1850" class="st22" d="M524.8,150l-19.5-12.5l16-3.5L524.8,150z"/>
				<path id="Path_1851" class="st23" d="M521.1,184.3c0.3,1.5-0.6,2.9-2.1,3.2l-58.6,12.8c-1.5,0.3-2.9-0.6-3.2-2.1l-5.8-26.7
					c-0.3-1.5,0.6-2.9,2.1-3.2l58.6-12.8c1.5-0.3,2.9,0.6,3.2,2.1L521.1,184.3z"/>
				<path id="Path_1852" class="st7" d="M464.7,176.9c-0.2-0.8,0.3-1.6,1.1-1.8l4.9-1.1c3-0.6,5.8,1.3,6.4,4.3
					c0.6,2.9-1.2,5.7-4.1,6.4l-3.6,0.8l0.6,2.8c0.2,0.7-0.2,1.5-0.9,1.7c-0.1,0-0.1,0-0.2,0c-0.8,0.2-1.6-0.3-1.8-1.1c0,0,0,0,0,0
					L464.7,176.9z M467.7,177.5l1.2,5.3l3.6-0.8c1.5-0.4,2.3-1.9,2-3.3c-0.4-1.4-1.7-2.3-3.1-2L467.7,177.5z"/>
				<path id="Path_1853" class="st7" d="M483.4,187c-0.7,0.2-1.5-0.2-1.7-0.9c0,0,0-0.1,0-0.1l-2.6-12.1c-0.1-0.8,0.4-1.5,1.2-1.6
					l4.9-1.1c9.7-2.1,12.7,12.7,3.4,14.7L483.4,187z M482.1,174.5l2.1,9.5l3.5-0.8c5.8-1.3,3.9-10.9-2.1-9.5L482.1,174.5z"/>
				<path id="Path_1854" class="st7" d="M498.7,171.1l0.7,3.4l5.4-1.2c0.8-0.1,1.6,0.4,1.9,1.2c0.1,0.8-0.5,1.5-1.3,1.6l-5.4,1.2
					l1,4.5c0.2,0.7-0.2,1.4-0.9,1.6c0,0,0,0-0.1,0c-0.7,0.2-1.5-0.1-1.8-0.9c0,0,0-0.1,0-0.1l-2.6-12.1c-0.2-0.7,0.3-1.5,1.1-1.6
					c0.1,0,0.1,0,0.2,0l7.5-1.6c0.7-0.2,1.5,0.1,1.7,0.8c0,0.1,0,0.1,0,0.2c0.2,0.8-0.4,1.6-1.2,1.8L498.7,171.1L498.7,171.1z"/>
				<path id="Path_1855" class="st22" d="M519,187.6l-50.6,11l0.6,2.7l50.6-11c1.5-0.3,2.4-1.8,2.1-3.2l-0.6-2.7
					C521.4,185.8,520.5,187.2,519,187.6"/>
				<path id="Path_1856" class="st22" d="M524.8,150l-19.5-12.5l16-3.5L524.8,150z"/>
				<path id="Path_1857" class="st22" d="M519,187.6l-50.6,11l0.6,2.7l50.6-11c1.5-0.3,2.4-1.8,2.1-3.2l-0.6-2.7
					C521.4,185.8,520.5,187.2,519,187.6"/>
				<path id="Path_1858" class="st9" d="M519.8,147.3c0,0,4.6-5.8,8.1-2.5s2.5,4.9-0.8,10c0,0,7.4-0.4,5.1,7.3c0,0,7.4-0.8,6.7,5.4
					c0,0,5.6,5.5,2.7,9s-13.5,9.9-16.2,8.8s-2.7-4.9-2.7-4.9s-3.2-1.4-4.1-3.1c-0.9-1.7,0.6-4,0.6-4s-2.7-2.7-3.3-3.5
					c-0.7-0.8,0.4-4.3,0.4-4.3l4.3-4.1c0,0-5.9,2.6-7.1,1.6c-1.2-1-2.6-1.8-1.3-3.6c1.9-2.1,3.9-4,6-5.8L519.8,147.3z"/>
				<path id="Path_1859" class="st10" d="M523.2,180.8c0.6-0.8,1.2-1.6,1.9-2.3c1.5-1.9,3.4-3.6,5.4-5c2.1-1.2,4.2-2.5,6.1-3.9
					c0.7-0.7,1.4-1.4,2.1-2.1c-0.3,1-0.9,1.9-1.7,2.5c-1.9,1.6-3.9,3-6.1,4.2c-2,1.3-3.8,2.9-5.4,4.7
					C524.9,179.6,524.1,180.3,523.2,180.8"/>
				<path id="Path_1860" class="st10" d="M519.1,174.3c-0.1-0.1,2.6-3.1,6.1-6.6c1.8-1.7,3.3-3.4,4.6-4.4c0.6-0.6,1.4-1.1,2.3-1.4
					c0.1,0.1-0.8,0.6-2,1.7c-1.2,1.1-2.6,2.8-4.4,4.6C522.2,171.8,519.2,174.5,519.1,174.3"/>
				<path id="Path_1861" class="st10" d="M520.5,161.3c-0.1-0.2,1.5-1.5,3.4-3.3c1.9-1.8,2.8-3.7,3-3.6c0.2,0-0.5,2.2-2.5,4.1
					C522.5,160.4,520.6,161.4,520.5,161.3"/>
				<path id="Path_1862" class="st10" d="M519.8,147.3c0,0.1,0,0.3-0.1,0.4c-0.1,0.3-0.2,0.7-0.3,1.2c-0.3,1.1-0.7,2.7-1.2,4.6l0,0
					l0,0c-0.9,0.8-1.8,1.6-2.9,2.6c-1.2,1-2.2,2.2-3.2,3.4c-0.2,0.3-0.3,0.7-0.3,1.1c0.1,0.4,0.3,0.7,0.6,1c0.3,0.3,0.7,0.6,1,0.9
					c0.3,0.2,0.8,0.3,1.2,0.2c2-0.3,3.9-0.9,5.8-1.8l1.4-0.6l-1.1,1l-4.3,4.2l0.1-0.1c-0.7,1.3-0.8,2.9-0.2,4.3
					c0.9,1.4,2,2.5,3.4,3.4l0.3,0.2l-0.2,0.3c-0.9,1.1-1.6,2.8-0.4,3.9c1.2,1.1,2.6,2.1,4,2.8l-0.5,0.3l0-0.1c0,0,0,0,0,0v0
					c0.1,0.1-0.2-0.2,0.2,0.3c1-0.5,0.3-0.2,0.5-0.3l0,0l0,0l0,0.2v0.3c0,0.2,0,0.5,0.1,0.7c0.1,0.5,0.2,0.9,0.4,1.3
					c0.2,0.4,0.4,0.8,0.8,1.1c0.3,0.3,0.7,0.5,1.1,0.6c1,0,1.9-0.2,2.8-0.6c1-0.4,1.9-0.8,2.8-1.3c1.7-0.9,3.4-1.9,5-3
					c1.6-1,3-2.2,4.4-3.6c0.6-0.6,1-1.4,1.1-2.2c0-0.9-0.1-1.7-0.5-2.5c-0.7-1.6-1.7-3-2.9-4.3l-0.1-0.1l0-0.2
					c0.1-0.8,0-1.7-0.3-2.4c-0.3-0.7-0.8-1.4-1.5-1.8c-1.4-0.7-3-1-4.6-0.9l-0.4,0l0.1-0.4c0.1-0.5,0.2-0.9,0.3-1.4
					c0.1-0.5,0.1-0.9,0.1-1.4c0-0.9-0.2-1.7-0.8-2.4c-1.1-1.2-2.8-1.8-4.4-1.7h-0.5l0.3-0.4c0.9-1.3,1.7-2.6,2.4-3.9
					c0.3-0.6,0.5-1.3,0.6-1.9c0.1-0.6-0.1-1.3-0.4-1.8c-0.6-1-1.4-1.9-2.3-2.5c-0.8-0.5-1.9-0.6-2.8-0.3c-1.3,0.5-2.5,1.2-3.5,2.2
					c-0.4,0.3-0.6,0.6-0.8,0.8C520,147.1,519.9,147.2,519.8,147.3c0.1-0.1,0.1-0.2,0.2-0.3c0.2-0.3,0.5-0.6,0.7-0.8
					c0.4-0.4,0.9-0.8,1.3-1.2c0.6-0.5,1.4-0.9,2.2-1.2c1-0.4,2.1-0.3,3,0.3l0.7,0.5l0.6,0.6c0.5,0.5,0.8,1,1.2,1.5
					c0.4,0.6,0.5,1.3,0.5,2c-0.1,0.7-0.3,1.4-0.6,2.1c-0.7,1.4-1.5,2.7-2.4,4l-0.2-0.4c0.9,0,1.8,0.1,2.6,0.4
					c0.9,0.3,1.7,0.8,2.3,1.5c0.6,0.8,0.9,1.8,0.9,2.8c0,0.5,0,1-0.1,1.5c-0.1,0.5-0.2,1-0.3,1.5l-0.3-0.4c1.7-0.2,3.5,0.1,5,0.9
					c0.8,0.5,1.4,1.2,1.8,2.1c0.3,0.9,0.4,1.8,0.3,2.8l-0.1-0.3c1.3,1.3,2.3,2.8,3.1,4.5c0.4,0.9,0.6,1.9,0.5,2.8
					c-0.1,0.5-0.2,1-0.4,1.5c-0.3,0.4-0.6,0.8-0.9,1.2c-1.4,1.4-2.9,2.6-4.5,3.7c-1.6,1.1-3.3,2.1-5.1,3.1c-0.9,0.5-1.9,0.9-2.9,1.3
					c-1,0.4-2.1,0.6-3.2,0.6c-1.1-0.3-2-1.1-2.4-2.2c-0.2-0.5-0.3-1-0.4-1.5c0-0.3-0.1-0.5-0.1-0.8v-0.4l0-0.2l0,0v0
					c0.2-0.1-0.5,0.2,0.5-0.3c0.4,0.5,0.1,0.2,0.2,0.3v0v0.1l0,0.1l0,0.5l-0.5-0.2c-1.6-0.7-3-1.7-4.2-2.9c-0.3-0.3-0.6-0.7-0.7-1.2
					c-0.1-0.4-0.2-0.9-0.1-1.4c0.2-0.8,0.6-1.6,1.2-2.3l0.1,0.5c-1.4-1-2.6-2.2-3.6-3.7c-0.4-0.8-0.5-1.7-0.4-2.5
					c0.1-0.8,0.3-1.6,0.6-2.4l0-0.1l0,0l4.3-4.1l0.3,0.5c-1.9,0.9-3.9,1.5-6,1.8c-0.5,0.1-1.1,0-1.5-0.4c-0.4-0.3-0.7-0.6-1.1-0.9
					c-0.4-0.3-0.6-0.8-0.7-1.3c0-0.5,0.1-1,0.4-1.4c1-1.2,2.1-2.4,3.3-3.4c1.1-1,2-1.8,2.9-2.6l0,0.1c0.6-2,1-3.5,1.3-4.6
					c0.2-0.5,0.3-0.9,0.4-1.2C519.7,147.5,519.7,147.4,519.8,147.3"/>
				<path id="Path_1863" class="st20" d="M222.7,17.2c-3,0-5.4,2.4-5.5,5.5V99c0,3,2.4,5.4,5.5,5.5h54.6c3,0,5.4-2.4,5.5-5.5V39
					l-21.8-21.8H222.7z"/>
				<path id="Path_1864" class="st21" d="M266.3,39h16.4l-21.8-21.8v16.4C260.9,36.6,263.3,39,266.3,39"/>
				<path id="Path_1865" class="st22" d="M282.7,55.4L266.3,39h16.4V55.4z"/>
				<path id="Rectangle_318" class="st23" d="M209.5,58.1h59.1c1.8,0,3.2,1.4,3.2,3.2c0,0,0,0,0,0v26.4c0,1.8-1.4,3.2-3.2,3.2l0,0
					h-59.1c-1.8,0-3.2-1.4-3.2-3.2V61.3C206.3,59.5,207.7,58.1,209.5,58.1C209.5,58.1,209.5,58.1,209.5,58.1z"/>
				<path id="Path_1866" class="st7" d="M218.2,68.9c0-0.8,0.7-1.5,1.5-1.5h5c3,0,5.4,2.5,5.4,5.5c0,3-2.4,5.3-5.4,5.4h-3.6v2.9
					c0.1,0.8-0.5,1.4-1.2,1.5c-0.1,0-0.1,0-0.2,0c-0.8,0-1.5-0.6-1.5-1.5c0,0,0,0,0,0L218.2,68.9z M221.1,70.1v5.4h3.6
					c1.5-0.1,2.7-1.3,2.6-2.8c-0.1-1.4-1.2-2.6-2.6-2.6H221.1z"/>
				<path id="Path_1867" class="st7" d="M234.4,82.6c-0.8,0.1-1.4-0.5-1.5-1.2c0,0,0-0.1,0-0.1V68.9c0.1-0.8,0.7-1.4,1.5-1.4h5
					c10,0,9.8,15.1,0.2,15.1L234.4,82.6z M235.7,70.2V80h3.6c5.9,0,6.2-9.8,0-9.8H235.7z"/>
				<path id="Path_1868" class="st7" d="M252.6,70.4v3.5h5.6c0.8,0.1,1.5,0.7,1.6,1.5c-0.1,0.8-0.8,1.3-1.6,1.3h-5.6v4.6
					c0,0.7-0.5,1.3-1.2,1.3c0,0,0,0-0.1,0c-0.8,0.1-1.4-0.5-1.5-1.2c0,0,0-0.1,0-0.1V68.9c0-0.8,0.6-1.4,1.4-1.4c0.1,0,0.1,0,0.2,0
					h7.7c0.7-0.1,1.4,0.4,1.5,1.2c0,0.1,0,0.1,0,0.2c0,0.8-0.7,1.5-1.5,1.5L252.6,70.4L252.6,70.4z"/>
				<path id="Path_1869" class="st22" d="M269,90.8h-51.8v2.7H269c1.5,0,2.7-1.2,2.7-2.7v-2.7C271.8,89.6,270.5,90.8,269,90.8"/>
				<path id="Path_1870" class="st22" d="M282.7,55.4L266.3,39h16.4V55.4z"/>
				<path id="Path_1871" class="st22" d="M269,90.8h-51.8v2.7H269c1.5,0,2.7-1.2,2.7-2.7v-2.7C271.8,89.6,270.5,90.8,269,90.8"/>
				<path id="Path_1872" class="st24" d="M527.3,40.2L521.8,0h-0.4c-19.9,0.1-36.1,16.2-36.2,36.2v0.4L527.3,40.2z"/>
				<path id="Path_1873" class="st25" d="M522.2,0h-0.4v36.6l18.3,7.3l18.3-7.3v-0.4C558.3,16.2,542.2,0.1,522.2,0"/>
				<path id="Path_1874" class="st26" d="M558.4,36.6V37c-0.1,20-16.2,36.1-36.2,36.2h-0.8c-20-0.1-36.1-16.2-36.2-36.2v-0.4
					L558.4,36.6z"/>
			</g>
		</g>
		<g id="Group_485" transform="translate(397.778 16.456)">
			<g>
				<defs>
					<path id="SVGID_15_" d="M85.9,0h32.4c2.2,0,3.9,1.7,3.9,3.9v32.4c0,2.2-1.7,3.9-3.9,3.9H85.9c-2.2,0-3.9-1.7-3.9-3.9V3.9
						C82,1.7,83.7,0,85.9,0z"/>
				</defs>
				<clipPath id="SVGID_16_">
					<use xlink:href="#SVGID_15_"  style="overflow:visible;"/>
				</clipPath>
				<g id="Group_484" class="st27">
					
						<linearGradient id="Rectangle_320_1_" gradientUnits="userSpaceOnUse" x1="-597.4243" y1="1359.9449" x2="-597.4083" y2="1359.9449" gradientTransform="matrix(47.5868 -27.4753 -27.4753 -47.5868 65534.6328 48529.9961)">
						<stop  offset="0" style="stop-color:#BA5434"/>
						<stop  offset="0.5" style="stop-color:#B54A2C"/>
						<stop  offset="1" style="stop-color:#A73A23"/>
					</linearGradient>
					<polygon id="Rectangle_320" class="st28" points="64.6,10.1 112.2,-17.4 139.6,30.2 92.1,57.6 					"/>
				</g>
			</g>
		</g>
		<g id="Group_499">
			<g>
				<defs>
					<rect id="SVGID_17_" x="82" width="590" height="351.9"/>
				</defs>
				<clipPath id="SVGID_18_">
					<use xlink:href="#SVGID_17_"  style="overflow:visible;"/>
				</clipPath>
				<g id="Group_498" class="st29">
					<path id="Path_1875" class="st30" d="M489.2,22.3c3-0.5,6-0.7,9.1-0.6c4.1,0,7.1,0.8,9.1,2.4c2,1.7,3.2,4.2,3.2,6.9
						c0.1,2.6-0.9,5.2-2.7,7c-2.3,2.2-5.7,3.1-9.6,3.1c-0.8,0-1.5,0-2.3-0.1v10.6h-6.6L489.2,22.3z M495.9,35.7
						c0.7,0.1,1.5,0.2,2.2,0.2c3.6,0,5.8-1.8,5.8-4.8c0-2.7-1.9-4.4-5.2-4.4c-0.9,0-1.9,0.1-2.8,0.3V35.7z"/>
					<path id="Path_1876" class="st31" d="M637.3,135.7l-31.6-0.3l6.7,40c0.3,1.8,2,3.1,3.9,2.8l52.9-8.9c1.8-0.3,3.1-2,2.8-3.9
						c0,0,0,0,0,0l-2.5-14.7L637.3,135.7z"/>
					<path id="Path_1877" class="st32" d="M631.6,101.4l-27.4,4.6c-1.8,0.3-3.1,2-2.8,3.9c0,0,0,0,0,0l2.5,14.7l33.7,12.9l17.1,2.7
						l11.7-7.5l-3-18L631.6,101.4z"/>
					
						<rect id="Rectangle_322" x="605.2" y="121.9" transform="matrix(0.9863 -0.165 0.165 0.9863 -13.1108 104.2443)" class="st33" width="31.1" height="18.3"/>
					<g id="Group_488" transform="translate(521.34 117.248)" class="st34">
						<g id="Group_487">
							<g>
								<defs>
									<rect id="SVGID_19_" x="82" y="0" width="32.3" height="48.8"/>
								</defs>
								<clipPath id="SVGID_20_">
									<use xlink:href="#SVGID_19_"  style="overflow:visible;"/>
								</clipPath>
								<g id="Group_486" class="st35">
									<path id="Path_1878" d="M103.9,0L82,3.7l7.5,45.1l21.9-3.7c1.8-0.3,3.1-2,2.8-3.9l-6.4-38.5C107.5,1,105.8-0.3,103.9,0"/>
								</g>
							</g>
						</g>
					</g>
					<g id="Group_491" transform="translate(521.642 119.353)" class="st36">
						<g id="Group_490">
							<g>
								<defs>
									<rect id="SVGID_21_" x="82" y="0" width="30.5" height="48.5"/>
								</defs>
								<clipPath id="SVGID_22_">
									<use xlink:href="#SVGID_21_"  style="overflow:visible;"/>
								</clipPath>
								<g id="Group_489" class="st37">
									<path id="Path_1879" d="M102.1,0L82,3.4l7.5,45.1l20.1-3.4c1.8-0.3,3.1-2,2.8-3.9L106,2.8C105.7,1,104-0.3,102.1,0"/>
								</g>
							</g>
						</g>
					</g>
					<g id="Group_494" transform="translate(521.642 119.353)" class="st36">
						<g id="Group_493">
							<g>
								<defs>
									<rect id="SVGID_23_" x="82" y="0" width="29.9" height="44.9"/>
								</defs>
								<clipPath id="SVGID_24_">
									<use xlink:href="#SVGID_23_"  style="overflow:visible;"/>
								</clipPath>
								<g id="Group_492" class="st38">
									<path id="Path_1880" d="M102.1,0L82,3.4l6.9,41.5l20.1-3.4c1.8-0.3,3.1-2,2.8-3.9L106,2.8C105.7,1,104-0.3,102.1,0"/>
								</g>
							</g>
						</g>
					</g>
					<g id="Group_497" transform="translate(521.642 119.655)" class="st36">
						<g id="Group_496">
							<g>
								<defs>
									<rect id="SVGID_25_" x="82" y="0" width="28.1" height="44.6"/>
								</defs>
								<clipPath id="SVGID_26_">
									<use xlink:href="#SVGID_25_"  style="overflow:visible;"/>
								</clipPath>
								<g id="Group_495" class="st39">
									<path id="Path_1881" d="M100.3,0L82,3.1l6.9,41.5l18.3-3.1c1.8-0.3,3.1-2,2.8-3.9l-5.8-34.9C103.9,1,102.2-0.3,100.3,0"/>
								</g>
							</g>
						</g>
					</g>
				</g>
			</g>
		</g>
		<g id="Group_501" transform="translate(504.114 119.653)">
			<g>
				<defs>
					<path id="SVGID_27_" d="M117.9,0L84.8,5.6c-1.8,0.3-3.1,2-2.8,3.9l5.5,33.1c0.3,1.8,2,3.1,3.9,2.8c0,0,0,0,0,0l33.1-5.5
						c1.8-0.3,3.1-2,2.8-3.9l-5.5-33.1c-0.3-1.6-1.7-2.8-3.3-2.8C118.2,0,118,0,117.9,0"/>
				</defs>
				<clipPath id="SVGID_28_">
					<use xlink:href="#SVGID_27_"  style="overflow:visible;"/>
				</clipPath>
				<g id="Group_500" class="st40">
					
						<linearGradient id="Rectangle_328_1_" gradientUnits="userSpaceOnUse" x1="-705.8639" y1="1260.5139" x2="-705.8509" y2="1260.5139" gradientTransform="matrix(49.6402 -40.9202 -40.8979 -49.6131 86289.7812 34011.8125)">
						<stop  offset="0" style="stop-color:#408554"/>
						<stop  offset="0.5" style="stop-color:#3A7C49"/>
						<stop  offset="1" style="stop-color:#2D6437"/>
					</linearGradient>
					<polygon id="Rectangle_328" class="st41" points="59.4,18.4 109,-22.5 149.9,27.1 100.3,68 					"/>
				</g>
			</g>
		</g>
		<g id="Group_515">
			<g>
				<defs>
					<rect id="SVGID_29_" x="82" width="590" height="351.9"/>
				</defs>
				<clipPath id="SVGID_30_">
					<use xlink:href="#SVGID_29_"  style="overflow:visible;"/>
				</clipPath>
				<g id="Group_514" class="st42">
					<path id="Path_1883" class="st43" d="M657.1,97.1l-25.5,4.3l3,18l28.9-4.8L661,99.9C660.7,98.1,659,96.8,657.1,97.1"/>
					
						<rect id="Rectangle_329" x="638.9" y="134.9" transform="matrix(0.9863 -0.165 0.165 0.9863 -14.8149 109.8086)" class="st33" width="29.3" height="18.3"/>
					<path id="Path_1884" class="st30" d="M617.2,143.2l-10.8,1.8l1.2,6.9l12-2l0.9,5.4l-18.7,3.1l-4.9-29.2l18-3l0.9,5.4l-11.4,1.9
						l1,6.1l10.8-1.8L617.2,143.2z"/>
					<path id="Path_1885" class="st31" d="M159.7,306.4l-31.1-5.5v40.5c0,1.9,1.5,3.4,3.4,3.4h53.6c1.9,0,3.4-1.5,3.4-3.4v-14.9
						L159.7,306.4z"/>
					<path id="Path_1886" class="st32" d="M159.7,271.7H132c-1.9,0-3.4,1.5-3.4,3.4l0,0V290l31.1,18.3l16.5,5.5l12.8-5.5V290
						L159.7,271.7z"/>
					<rect id="Rectangle_330" x="128.6" y="290" class="st33" width="31.1" height="18.3"/>
					<g id="Group_504" transform="translate(46.619 286.326)" class="st34">
						<g id="Group_503">
							<g>
								<defs>
									<rect id="SVGID_31_" x="82" y="0" width="25.6" height="45.7"/>
								</defs>
								<clipPath id="SVGID_32_">
									<use xlink:href="#SVGID_31_"  style="overflow:visible;"/>
								</clipPath>
								<g id="Group_502" class="st44">
									<path id="Path_1887" d="M104.2,0H82v45.7h22.2c1.8,0,3.3-1.5,3.4-3.4v-39C107.6,1.5,106.1,0,104.2,0"/>
								</g>
							</g>
						</g>
					</g>
					<g id="Group_507" transform="translate(46.619 288.154)" class="st36">
						<g id="Group_506">
							<g>
								<defs>
									<rect id="SVGID_33_" x="82" y="0" width="23.8" height="45.7"/>
								</defs>
								<clipPath id="SVGID_34_">
									<use xlink:href="#SVGID_33_"  style="overflow:visible;"/>
								</clipPath>
								<g id="Group_505" class="st45">
									<path id="Path_1888" d="M102.4,0H82v45.7h20.4c1.8,0,3.3-1.5,3.3-3.4v-39C105.8,1.5,104.3,0,102.4,0"/>
								</g>
							</g>
						</g>
					</g>
					<g id="Group_510" transform="translate(46.619 288.154)" class="st36">
						<g id="Group_509">
							<g>
								<defs>
									<rect id="SVGID_35_" x="82" y="0" width="23.8" height="42.1"/>
								</defs>
								<clipPath id="SVGID_36_">
									<use xlink:href="#SVGID_35_"  style="overflow:visible;"/>
								</clipPath>
								<g id="Group_508" class="st46">
									<path id="Path_1889" d="M102.4,0H82v42.1h20.4c1.8,0,3.3-1.5,3.3-3.4V3.4C105.8,1.5,104.3,0,102.4,0"/>
								</g>
							</g>
						</g>
					</g>
					<g id="Group_513" transform="translate(46.619 288.154)" class="st36">
						<g id="Group_512">
							<g>
								<defs>
									<rect id="SVGID_37_" x="82" y="0" width="21.9" height="42.1"/>
								</defs>
								<clipPath id="SVGID_38_">
									<use xlink:href="#SVGID_37_"  style="overflow:visible;"/>
								</clipPath>
								<g id="Group_511" class="st47">
									<path id="Path_1890" d="M100.6,0H82v42.1h18.6c1.8,0,3.3-1.5,3.4-3.4V3.4C103.9,1.5,102.4,0,100.6,0"/>
								</g>
							</g>
						</g>
					</g>
				</g>
			</g>
		</g>
		<g id="Group_517" transform="translate(28.334 288.154)">
			<g>
				<defs>
					<path id="SVGID_39_" d="M85.9,0h32.4c2.2,0,3.9,1.7,3.9,3.9c0,0,0,0,0,0v32.4c0,2.2-1.7,3.9-3.9,3.9c0,0,0,0,0,0H85.9
						c-2.2,0-3.9-1.7-3.9-3.9c0,0,0,0,0,0V3.9C82,1.7,83.7,0,85.9,0z"/>
				</defs>
				<clipPath id="SVGID_40_">
					<use xlink:href="#SVGID_39_"  style="overflow:visible;"/>
				</clipPath>
				<g id="Group_516" class="st48">
					
						<linearGradient id="Rectangle_336_1_" gradientUnits="userSpaceOnUse" x1="-221.257" y1="1088.2476" x2="-221.241" y2="1088.2476" gradientTransform="matrix(47.5885 -27.4763 -27.4763 -47.5885 40490.4766 45753.0664)">
						<stop  offset="0" style="stop-color:#408554"/>
						<stop  offset="0.5" style="stop-color:#3A7C49"/>
						<stop  offset="1" style="stop-color:#2D6437"/>
					</linearGradient>
					<polygon id="Rectangle_336" class="st49" points="64.6,10.1 112.2,-17.4 139.6,30.2 92.1,57.6 					"/>
				</g>
			</g>
		</g>
		<g id="Group_531">
			<g>
				<defs>
					<rect id="SVGID_41_" x="82" width="590" height="351.9"/>
				</defs>
				<clipPath id="SVGID_42_">
					<use xlink:href="#SVGID_41_"  style="overflow:visible;"/>
				</clipPath>
				<g id="Group_530" class="st50">
					<path id="Path_1891" class="st43" d="M185.6,271.7h-25.9V290H189v-14.9C189,273.2,187.5,271.7,185.6,271.7"/>
					<rect id="Rectangle_338" x="159.7" y="308.3" class="st33" width="29.3" height="18.3"/>
					<path id="Path_1892" class="st30" d="M138.6,310.6h-10.9v7h12.2v5.5H121v-29.6h18.3v5.5h-11.6v6.2h10.9V310.6z"/>
					<path id="Path_1893" class="st51" d="M208.9,147.4h-53.6c-1.9,0-3.4,1.5-3.4,3.4l0,0v14.9l31.1,9.1l29.3-9.1v-14.9
						C212.2,148.9,210.7,147.4,208.9,147.4"/>
					<path id="Path_1894" class="st52" d="M212.2,165.6h-60.3v18.3l31.1,5.5l29.3-5.5V165.6z"/>
					<path id="Path_1895" class="st53" d="M151.9,183.9v18.3l29.3,3.7l31.1-3.7v-18.3H151.9z"/>
					<path id="Path_1896" class="st54" d="M155.2,216.9h53.6c1.9,0,3.4-1.5,3.4-3.4v-14.9h-60.3v14.9
						C151.9,215.4,153.4,217,155.2,216.9"/>
					<g id="Group_520" transform="translate(69.892 161.981)" class="st34">
						<g id="Group_519">
							<g>
								<defs>
									<rect id="SVGID_43_" x="82" y="0" width="25.6" height="45.7"/>
								</defs>
								<clipPath id="SVGID_44_">
									<use xlink:href="#SVGID_43_"  style="overflow:visible;"/>
								</clipPath>
								<g id="Group_518" class="st55">
									<path id="Path_1897" d="M104.2,0H82v45.7h22.2c1.8,0,3.3-1.5,3.4-3.4v-39C107.6,1.5,106.1,0,104.2,0"/>
								</g>
							</g>
						</g>
					</g>
					<g id="Group_523" transform="translate(69.892 163.809)" class="st36">
						<g id="Group_522">
							<g>
								<defs>
									<rect id="SVGID_45_" x="82" y="0" width="23.8" height="45.7"/>
								</defs>
								<clipPath id="SVGID_46_">
									<use xlink:href="#SVGID_45_"  style="overflow:visible;"/>
								</clipPath>
								<g id="Group_521" class="st56">
									<path id="Path_1898" d="M102.4,0H82v45.7h20.4c1.8,0,3.3-1.5,3.4-3.4v-39C105.8,1.5,104.3,0,102.4,0"/>
								</g>
							</g>
						</g>
					</g>
					<g id="Group_526" transform="translate(69.892 163.809)" class="st36">
						<g id="Group_525">
							<g>
								<defs>
									<rect id="SVGID_47_" x="82" y="0" width="23.8" height="42.1"/>
								</defs>
								<clipPath id="SVGID_48_">
									<use xlink:href="#SVGID_47_"  style="overflow:visible;"/>
								</clipPath>
								<g id="Group_524" class="st57">
									<path id="Path_1899" d="M102.4,0H82v42.1h20.4c1.8,0,3.3-1.5,3.4-3.4V3.4C105.8,1.5,104.3,0,102.4,0"/>
								</g>
							</g>
						</g>
					</g>
					<g id="Group_529" transform="translate(69.892 163.809)" class="st36">
						<g id="Group_528">
							<g>
								<defs>
									<rect id="SVGID_49_" x="82" y="0" width="21.9" height="42.1"/>
								</defs>
								<clipPath id="SVGID_50_">
									<use xlink:href="#SVGID_49_"  style="overflow:visible;"/>
								</clipPath>
								<g id="Group_527" class="st58">
									<path id="Path_1900" d="M100.6,0H82v42.1h18.6c1.8,0,3.3-1.5,3.4-3.4V3.4C103.9,1.5,102.4,0,100.6,0"/>
								</g>
							</g>
						</g>
					</g>
				</g>
			</g>
		</g>
		<g id="Group_533" transform="translate(51.607 163.809)">
			<g>
				<defs>
					<path id="SVGID_51_" d="M85.9,0h32.4c2.2,0,3.9,1.7,3.9,3.9c0,0,0,0,0,0v32.4c0,2.2-1.7,3.9-3.9,3.9c0,0,0,0,0,0H85.9
						c-2.2,0-3.9-1.7-3.9-3.9c0,0,0,0,0,0V3.9C82,1.7,83.7,0,85.9,0z"/>
				</defs>
				<clipPath id="SVGID_52_">
					<use xlink:href="#SVGID_51_"  style="overflow:visible;"/>
				</clipPath>
				<g id="Group_532" class="st59">
					
						<linearGradient id="Rectangle_344_1_" gradientUnits="userSpaceOnUse" x1="-244.953" y1="1212.5923" x2="-244.938" y2="1212.5923" gradientTransform="matrix(47.5885 -27.4763 -27.4758 -47.5876 45013.9297 51029.9336)">
						<stop  offset="0" style="stop-color:#3767BD"/>
						<stop  offset="0.5" style="stop-color:#2F5CB7"/>
						<stop  offset="1" style="stop-color:#2145A5"/>
					</linearGradient>
					<polygon id="Rectangle_344" class="st60" points="64.6,10.1 112.2,-17.4 139.6,30.2 92.1,57.6 					"/>
				</g>
			</g>
		</g>
		<g id="Group_547">
			<g>
				<defs>
					<rect id="SVGID_53_" x="82" width="590" height="351.9"/>
				</defs>
				<clipPath id="SVGID_54_">
					<use xlink:href="#SVGID_53_"  style="overflow:visible;"/>
				</clipPath>
				<g id="Group_546" class="st61">
					<path id="Path_1901" class="st30" d="M143.4,196.8l-6.1-25.8h6.2l2,10.6c0.6,3.1,1.1,6.4,1.5,9h0.1c0.4-2.8,1-5.9,1.7-9.1
						l2.2-10.6h6.2l2.1,10.9c0.6,3,1,5.8,1.4,8.6h0.1c0.4-2.9,1-5.9,1.5-9l2.1-10.6h5.9l-6.7,25.8h-6.3l-2.2-11.1
						c-0.5-2.6-0.9-5-1.2-8h-0.1c-0.5,2.9-0.9,5.4-1.5,8l-2.4,11.1L143.4,196.8z"/>
					<path id="Path_1902" class="st51" d="M585.2,273.5h-53.6c-1.9,0-3.4,1.5-3.4,3.4v14.9l31.1,9.1l29.3-9.1v-14.9
						C588.6,275,587.1,273.5,585.2,273.5L585.2,273.5"/>
					<path id="Path_1903" class="st52" d="M588.6,291.8h-60.3V310l31.1,5.5l29.3-5.5V291.8z"/>
					<path id="Path_1904" class="st53" d="M528.2,310v18.3l29.3,3.7l31.1-3.7V310H528.2z"/>
					<path id="Path_1905" class="st54" d="M531.6,343.1h53.6c1.9,0,3.4-1.5,3.4-3.4v-14.9h-60.3v14.9
						C528.2,341.6,529.7,343.1,531.6,343.1L531.6,343.1"/>
					<g id="Group_536" transform="translate(446.232 288.096)" class="st34">
						<g id="Group_535">
							<g>
								<defs>
									<rect id="SVGID_55_" x="82" y="0" width="25.6" height="45.7"/>
								</defs>
								<clipPath id="SVGID_56_">
									<use xlink:href="#SVGID_55_"  style="overflow:visible;"/>
								</clipPath>
								<g id="Group_534" class="st62">
									<path id="Path_1906" d="M104.2,0H82v45.7h22.2c1.8,0,3.3-1.5,3.4-3.4v-39C107.6,1.5,106.1,0,104.2,0"/>
								</g>
							</g>
						</g>
					</g>
					<g id="Group_539" transform="translate(446.232 289.925)" class="st36">
						<g id="Group_538">
							<g>
								<defs>
									<rect id="SVGID_57_" x="82" y="0" width="23.8" height="45.7"/>
								</defs>
								<clipPath id="SVGID_58_">
									<use xlink:href="#SVGID_57_"  style="overflow:visible;"/>
								</clipPath>
								<g id="Group_537" class="st63">
									<path id="Path_1907" d="M102.4,0H82v45.7h20.4c1.8,0,3.3-1.5,3.3-3.4v-39C105.8,1.5,104.3,0,102.4,0"/>
								</g>
							</g>
						</g>
					</g>
					<g id="Group_542" transform="translate(446.232 289.925)" class="st36">
						<g id="Group_541">
							<g>
								<defs>
									<rect id="SVGID_59_" x="82" y="0" width="23.8" height="42.1"/>
								</defs>
								<clipPath id="SVGID_60_">
									<use xlink:href="#SVGID_59_"  style="overflow:visible;"/>
								</clipPath>
								<g id="Group_540" class="st64">
									<path id="Path_1908" d="M102.4,0H82v42.1h20.4c1.8,0,3.3-1.5,3.3-3.4V3.4C105.8,1.5,104.3,0,102.4,0"/>
								</g>
							</g>
						</g>
					</g>
					<g id="Group_545" transform="translate(446.232 289.925)" class="st36">
						<g id="Group_544">
							<g>
								<defs>
									<rect id="SVGID_61_" x="82" y="0" width="21.9" height="42.1"/>
								</defs>
								<clipPath id="SVGID_62_">
									<use xlink:href="#SVGID_61_"  style="overflow:visible;"/>
								</clipPath>
								<g id="Group_543" class="st65">
									<path id="Path_1909" d="M100.6,0H82v42.1h18.6c1.8,0,3.3-1.5,3.4-3.4V3.4C103.9,1.5,102.4,0,100.6,0"/>
								</g>
							</g>
						</g>
					</g>
				</g>
			</g>
		</g>
		<g id="Group_549" transform="translate(427.948 289.925)">
			<g>
				<defs>
					<path id="SVGID_63_" d="M85.9,0h32.4c2.2,0,3.9,1.7,3.9,3.9c0,0,0,0,0,0v32.4c0,2.2-1.7,3.9-3.9,3.9c0,0,0,0,0,0H85.9
						c-2.2,0-3.9-1.7-3.9-3.9c0,0,0,0,0,0V3.9C82,1.7,83.7,0,85.9,0z"/>
				</defs>
				<clipPath id="SVGID_64_">
					<use xlink:href="#SVGID_63_"  style="overflow:visible;"/>
				</clipPath>
				<g id="Group_548" class="st66">
					
						<linearGradient id="Rectangle_351_1_" gradientUnits="userSpaceOnUse" x1="-628.1432" y1="1086.476" x2="-628.1273" y2="1086.476" gradientTransform="matrix(47.5868 -27.4753 -27.4753 -47.5868 59456.6719 34687.5625)">
						<stop  offset="0" style="stop-color:#3767BD"/>
						<stop  offset="0.5" style="stop-color:#2F5CB7"/>
						<stop  offset="1" style="stop-color:#2145A5"/>
					</linearGradient>
					<polygon id="Rectangle_351" class="st67" points="64.6,10.1 112.2,-17.4 139.6,30.2 92.1,57.6 					"/>
				</g>
			</g>
		</g>
		<g id="Group_551">
			<g>
				<defs>
					<rect id="SVGID_65_" x="82" width="590" height="351.9"/>
				</defs>
				<clipPath id="SVGID_66_">
					<use xlink:href="#SVGID_65_"  style="overflow:visible;"/>
				</clipPath>
				<g id="Group_550" class="st68">
					<path id="Path_1910" class="st30" d="M519.7,322.9l-6.1-25.8h6.2l2,10.6c0.6,3.1,1.1,6.4,1.5,9h0.1c0.4-2.8,1-5.9,1.7-9.1
						l2.2-10.6h6.2l2.1,10.9c0.6,3,1,5.8,1.4,8.6h0.1c0.4-2.9,1-5.9,1.5-9l2.1-10.6h5.9l-6.7,25.8h-6.3l-2.2-11.1
						c-0.5-2.6-0.9-5-1.2-8h-0.1c-0.5,2.9-0.9,5.4-1.5,8l-2.4,11.1L519.7,322.9z"/>
				</g>
			</g>
		</g>
	</g>
</g>
</svg>
