<svg xmlns="http://www.w3.org/2000/svg" xmlns:xlink="http://www.w3.org/1999/xlink" width="752.162" height="351.94" viewBox="0 0 752.162 351.94">
  <defs>
    <clipPath id="clip-path">
      <rect id="Rectangle_219" data-name="Rectangle 219" width="123.162" height="218.918" fill="none"/>
    </clipPath>
    <clipPath id="clip-path-3">
      <rect id="Rectangle_354" data-name="Rectangle 354" width="590" height="351.94" fill="none"/>
    </clipPath>
    <clipPath id="clip-path-5">
      <rect id="Rectangle_315" data-name="Rectangle 315" width="19.423" height="26.225" fill="none"/>
    </clipPath>
    <clipPath id="clip-path-6">
      <rect id="Rectangle_316" data-name="Rectangle 316" width="41.958" height="18.107" fill="none"/>
    </clipPath>
    <clipPath id="clip-path-7">
      <rect id="Rectangle_317" data-name="Rectangle 317" width="63.747" height="55.206" fill="none"/>
    </clipPath>
    <clipPath id="clip-path-8">
      <rect id="Rectangle_321" data-name="Rectangle 321" width="40.226" height="40.225" rx="3.897" fill="none"/>
    </clipPath>
    <linearGradient id="linear-gradient" x1="-7.105" y1="6.239" x2="-7.089" y2="6.239" gradientUnits="objectBoundingBox">
      <stop offset="0" stop-color="#ba5434"/>
      <stop offset="0.5" stop-color="#b54a2c"/>
      <stop offset="1" stop-color="#a73a23"/>
    </linearGradient>
    <clipPath id="clip-path-10">
      <rect id="Rectangle_323" data-name="Rectangle 323" width="32.282" height="48.8" fill="none"/>
    </clipPath>
    <clipPath id="clip-path-11">
      <rect id="Rectangle_324" data-name="Rectangle 324" width="30.479" height="48.498" fill="none"/>
    </clipPath>
    <clipPath id="clip-path-12">
      <rect id="Rectangle_325" data-name="Rectangle 325" width="29.875" height="44.892" fill="none"/>
    </clipPath>
    <clipPath id="clip-path-13">
      <rect id="Rectangle_326" data-name="Rectangle 326" width="28.072" height="44.59" fill="none"/>
    </clipPath>
    <clipPath id="clip-path-14">
      <path id="Path_1882" data-name="Path 1882" d="M622.077,139.186l-33.062,5.531a3.353,3.353,0,0,0-2.753,3.859l5.532,33.064a3.351,3.351,0,0,0,3.859,2.751l33.064-5.531A3.352,3.352,0,0,0,631.468,175l-5.532-33.062a3.354,3.354,0,0,0-3.3-2.8,3.425,3.425,0,0,0-.557.046" transform="translate(-586.215 -139.14)" fill="none"/>
    </clipPath>
    <linearGradient id="linear-gradient-2" x1="-7.688" y1="3.758" x2="-7.675" y2="3.758" gradientUnits="objectBoundingBox">
      <stop offset="0" stop-color="#408554"/>
      <stop offset="0.5" stop-color="#3a7c49"/>
      <stop offset="1" stop-color="#2d6437"/>
    </linearGradient>
    <clipPath id="clip-path-16">
      <rect id="Rectangle_331" data-name="Rectangle 331" width="25.598" height="45.711" fill="none"/>
    </clipPath>
    <clipPath id="clip-path-17">
      <rect id="Rectangle_332" data-name="Rectangle 332" width="23.77" height="45.711" fill="none"/>
    </clipPath>
    <clipPath id="clip-path-18">
      <rect id="Rectangle_333" data-name="Rectangle 333" width="23.77" height="42.054" fill="none"/>
    </clipPath>
    <clipPath id="clip-path-19">
      <rect id="Rectangle_334" data-name="Rectangle 334" width="21.941" height="42.054" fill="none"/>
    </clipPath>
    <clipPath id="clip-path-20">
      <path id="Rectangle_337" data-name="Rectangle 337" d="M3.9,0H36.329a3.9,3.9,0,0,1,3.9,3.9V36.329a3.9,3.9,0,0,1-3.9,3.9H3.9a3.9,3.9,0,0,1-3.9-3.9V3.9A3.9,3.9,0,0,1,3.9,0Z" fill="none"/>
    </clipPath>
    <linearGradient id="linear-gradient-3" x1="-0.382" y1="1.295" x2="-0.366" y2="1.295" xlink:href="#linear-gradient-2"/>
    <clipPath id="clip-path-26">
      <path id="Rectangle_345" data-name="Rectangle 345" d="M3.9,0H36.33a3.9,3.9,0,0,1,3.9,3.9V36.329a3.9,3.9,0,0,1-3.9,3.9H3.9a3.9,3.9,0,0,1-3.9-3.9V3.9A3.9,3.9,0,0,1,3.9,0Z" fill="none"/>
    </clipPath>
    <linearGradient id="linear-gradient-4" x1="-0.805" y1="3.558" x2="-0.79" y2="3.558" gradientUnits="objectBoundingBox">
      <stop offset="0" stop-color="#3767bd"/>
      <stop offset="0.5" stop-color="#2f5cb7"/>
      <stop offset="1" stop-color="#2145a5"/>
    </linearGradient>
    <clipPath id="clip-path-31">
      <rect id="Rectangle_349" data-name="Rectangle 349" width="21.942" height="42.054" fill="none"/>
    </clipPath>
    <clipPath id="clip-path-32">
      <path id="Rectangle_352" data-name="Rectangle 352" d="M3.9,0H36.329a3.9,3.9,0,0,1,3.9,3.9V36.328a3.9,3.9,0,0,1-3.9,3.9H3.9a3.9,3.9,0,0,1-3.9-3.9V3.9A3.9,3.9,0,0,1,3.9,0Z" fill="none"/>
    </clipPath>
    <linearGradient id="linear-gradient-5" x1="-7.654" y1="1.263" x2="-7.638" y2="1.263" xlink:href="#linear-gradient-4"/>
  </defs>
  <g id="Final_Diagram" data-name="Final Diagram" transform="translate(82)">
    <g id="Circles" transform="translate(-458 -171)">
      <g id="Group_373" data-name="Group 373" transform="translate(1005 299)">
        <g id="Group_372" data-name="Group 372" transform="translate(0 0.001)" clip-path="url(#clip-path)">
          <path id="Path_1301" data-name="Path 1301" d="M6.824,0A6.821,6.821,0,1,1,0,6.821,6.824,6.824,0,0,1,6.824,0" transform="translate(0 -0.001)" fill="#2d2d2d"/>
          <path id="Path_1302" data-name="Path 1302" d="M6.824,17.882A6.821,6.821,0,1,1,0,24.7a6.823,6.823,0,0,1,6.824-6.821" transform="translate(0 23.173)" fill="#2d2d2d"/>
          <path id="Path_1303" data-name="Path 1303" d="M6.824,35.763A6.821,6.821,0,1,1,0,42.584a6.823,6.823,0,0,1,6.824-6.821" transform="translate(0 46.346)" fill="#2d2d2d"/>
          <path id="Path_1304" data-name="Path 1304" d="M6.824,53.644A6.821,6.821,0,1,1,0,60.465a6.823,6.823,0,0,1,6.824-6.821" transform="translate(0 69.52)" fill="#ed1818"/>
          <path id="Path_1305" data-name="Path 1305" d="M6.824,71.526A6.821,6.821,0,1,1,0,78.347a6.823,6.823,0,0,1,6.824-6.821" transform="translate(0 92.694)" fill="#ed1818"/>
          <path id="Path_1306" data-name="Path 1306" d="M6.824,89.408A6.821,6.821,0,1,1,0,96.229a6.823,6.823,0,0,1,6.824-6.821" transform="translate(0 115.868)" fill="#ed1818"/>
          <path id="Path_1307" data-name="Path 1307" d="M23,0a6.821,6.821,0,1,1-6.824,6.821A6.823,6.823,0,0,1,23,0" transform="translate(20.967 -0.001)" fill="#2d2d2d"/>
          <path id="Path_1308" data-name="Path 1308" d="M23,17.882A6.821,6.821,0,1,1,16.179,24.7,6.821,6.821,0,0,1,23,17.882" transform="translate(20.967 23.173)" fill="#2d2d2d"/>
          <path id="Path_1309" data-name="Path 1309" d="M23,35.763a6.821,6.821,0,1,1-6.824,6.821A6.821,6.821,0,0,1,23,35.763" transform="translate(20.967 46.346)" fill="#2d2d2d"/>
          <path id="Path_1310" data-name="Path 1310" d="M23,53.644a6.821,6.821,0,1,1-6.824,6.821A6.821,6.821,0,0,1,23,53.644" transform="translate(20.967 69.52)" fill="#ed1818"/>
          <path id="Path_1311" data-name="Path 1311" d="M23,71.526a6.821,6.821,0,1,1-6.824,6.821A6.821,6.821,0,0,1,23,71.526" transform="translate(20.967 92.694)" fill="#ed1818"/>
          <path id="Path_1312" data-name="Path 1312" d="M23,89.408a6.821,6.821,0,1,1-6.824,6.821A6.821,6.821,0,0,1,23,89.408" transform="translate(20.967 115.868)" fill="#ed1818"/>
          <path id="Path_1313" data-name="Path 1313" d="M38.344,0A6.821,6.821,0,1,1,31.52,6.821,6.824,6.824,0,0,1,38.344,0" transform="translate(40.849 -0.001)" fill="#2d2d2d"/>
          <path id="Path_1314" data-name="Path 1314" d="M38.344,17.882A6.821,6.821,0,1,1,31.52,24.7a6.823,6.823,0,0,1,6.824-6.821" transform="translate(40.849 23.173)" fill="#2d2d2d"/>
          <path id="Path_1315" data-name="Path 1315" d="M38.344,35.763a6.821,6.821,0,1,1-6.824,6.821,6.823,6.823,0,0,1,6.824-6.821" transform="translate(40.849 46.346)" fill="#2d2d2d"/>
          <path id="Path_1316" data-name="Path 1316" d="M38.344,53.644a6.821,6.821,0,1,1-6.824,6.821,6.823,6.823,0,0,1,6.824-6.821" transform="translate(40.849 69.52)" fill="#ed1818"/>
          <path id="Path_1317" data-name="Path 1317" d="M38.344,71.526a6.821,6.821,0,1,1-6.824,6.821,6.823,6.823,0,0,1,6.824-6.821" transform="translate(40.849 92.694)" fill="#ed1818"/>
          <path id="Path_1318" data-name="Path 1318" d="M38.344,89.408a6.821,6.821,0,1,1-6.824,6.821,6.823,6.823,0,0,1,6.824-6.821" transform="translate(40.849 115.868)" fill="#ed1818"/>
          <path id="Path_1319" data-name="Path 1319" d="M54.523,0A6.821,6.821,0,1,1,47.7,6.821,6.823,6.823,0,0,1,54.523,0" transform="translate(61.816 -0.001)" fill="#2d2d2d"/>
          <path id="Path_1320" data-name="Path 1320" d="M54.523,17.882A6.821,6.821,0,1,1,47.7,24.7a6.821,6.821,0,0,1,6.824-6.821" transform="translate(61.816 23.173)" fill="#2d2d2d"/>
          <path id="Path_1321" data-name="Path 1321" d="M54.523,35.763A6.821,6.821,0,1,1,47.7,42.584a6.821,6.821,0,0,1,6.824-6.821" transform="translate(61.816 46.346)" fill="#2d2d2d"/>
          <path id="Path_1322" data-name="Path 1322" d="M54.523,53.644A6.821,6.821,0,1,1,47.7,60.465a6.821,6.821,0,0,1,6.824-6.821" transform="translate(61.816 69.52)" fill="#ed1818"/>
          <path id="Path_1323" data-name="Path 1323" d="M54.523,71.526A6.821,6.821,0,1,1,47.7,78.347a6.821,6.821,0,0,1,6.824-6.821" transform="translate(61.816 92.694)" fill="#ed1818"/>
          <path id="Path_1324" data-name="Path 1324" d="M54.523,89.408A6.821,6.821,0,1,1,47.7,96.229a6.821,6.821,0,0,1,6.824-6.821" transform="translate(61.816 115.868)" fill="#ed1818"/>
        </g>
      </g>
      <g id="Group_374" data-name="Group 374" transform="translate(376 299)">
        <g id="Group_372-2" data-name="Group 372" transform="translate(0 0.001)" clip-path="url(#clip-path)">
          <path id="Path_1301-2" data-name="Path 1301" d="M6.824,0A6.821,6.821,0,1,1,0,6.821,6.824,6.824,0,0,1,6.824,0" transform="translate(0 -0.001)" fill="#2d2d2d"/>
          <path id="Path_1302-2" data-name="Path 1302" d="M6.824,17.882A6.821,6.821,0,1,1,0,24.7a6.823,6.823,0,0,1,6.824-6.821" transform="translate(0 23.173)" fill="#2d2d2d"/>
          <path id="Path_1303-2" data-name="Path 1303" d="M6.824,35.763A6.821,6.821,0,1,1,0,42.584a6.823,6.823,0,0,1,6.824-6.821" transform="translate(0 46.346)" fill="#2d2d2d"/>
          <path id="Path_1304-2" data-name="Path 1304" d="M6.824,53.644A6.821,6.821,0,1,1,0,60.465a6.823,6.823,0,0,1,6.824-6.821" transform="translate(0 69.52)" fill="#ed1818"/>
          <path id="Path_1305-2" data-name="Path 1305" d="M6.824,71.526A6.821,6.821,0,1,1,0,78.347a6.823,6.823,0,0,1,6.824-6.821" transform="translate(0 92.694)" fill="#ed1818"/>
          <path id="Path_1306-2" data-name="Path 1306" d="M6.824,89.408A6.821,6.821,0,1,1,0,96.229a6.823,6.823,0,0,1,6.824-6.821" transform="translate(0 115.868)" fill="#ed1818"/>
          <path id="Path_1307-2" data-name="Path 1307" d="M23,0a6.821,6.821,0,1,1-6.824,6.821A6.823,6.823,0,0,1,23,0" transform="translate(20.967 -0.001)" fill="#2d2d2d"/>
          <path id="Path_1308-2" data-name="Path 1308" d="M23,17.882A6.821,6.821,0,1,1,16.179,24.7,6.821,6.821,0,0,1,23,17.882" transform="translate(20.967 23.173)" fill="#2d2d2d"/>
          <path id="Path_1309-2" data-name="Path 1309" d="M23,35.763a6.821,6.821,0,1,1-6.824,6.821A6.821,6.821,0,0,1,23,35.763" transform="translate(20.967 46.346)" fill="#2d2d2d"/>
          <path id="Path_1310-2" data-name="Path 1310" d="M23,53.644a6.821,6.821,0,1,1-6.824,6.821A6.821,6.821,0,0,1,23,53.644" transform="translate(20.967 69.52)" fill="#ed1818"/>
          <path id="Path_1311-2" data-name="Path 1311" d="M23,71.526a6.821,6.821,0,1,1-6.824,6.821A6.821,6.821,0,0,1,23,71.526" transform="translate(20.967 92.694)" fill="#ed1818"/>
          <path id="Path_1312-2" data-name="Path 1312" d="M23,89.408a6.821,6.821,0,1,1-6.824,6.821A6.821,6.821,0,0,1,23,89.408" transform="translate(20.967 115.868)" fill="#ed1818"/>
          <path id="Path_1313-2" data-name="Path 1313" d="M38.344,0A6.821,6.821,0,1,1,31.52,6.821,6.824,6.824,0,0,1,38.344,0" transform="translate(40.849 -0.001)" fill="#2d2d2d"/>
          <path id="Path_1314-2" data-name="Path 1314" d="M38.344,17.882A6.821,6.821,0,1,1,31.52,24.7a6.823,6.823,0,0,1,6.824-6.821" transform="translate(40.849 23.173)" fill="#2d2d2d"/>
          <path id="Path_1315-2" data-name="Path 1315" d="M38.344,35.763a6.821,6.821,0,1,1-6.824,6.821,6.823,6.823,0,0,1,6.824-6.821" transform="translate(40.849 46.346)" fill="#2d2d2d"/>
          <path id="Path_1316-2" data-name="Path 1316" d="M38.344,53.644a6.821,6.821,0,1,1-6.824,6.821,6.823,6.823,0,0,1,6.824-6.821" transform="translate(40.849 69.52)" fill="#ed1818"/>
          <path id="Path_1317-2" data-name="Path 1317" d="M38.344,71.526a6.821,6.821,0,1,1-6.824,6.821,6.823,6.823,0,0,1,6.824-6.821" transform="translate(40.849 92.694)" fill="#ed1818"/>
          <path id="Path_1318-2" data-name="Path 1318" d="M38.344,89.408a6.821,6.821,0,1,1-6.824,6.821,6.823,6.823,0,0,1,6.824-6.821" transform="translate(40.849 115.868)" fill="#ed1818"/>
          <path id="Path_1319-2" data-name="Path 1319" d="M54.523,0A6.821,6.821,0,1,1,47.7,6.821,6.823,6.823,0,0,1,54.523,0" transform="translate(61.816 -0.001)" fill="#2d2d2d"/>
          <path id="Path_1320-2" data-name="Path 1320" d="M54.523,17.882A6.821,6.821,0,1,1,47.7,24.7a6.821,6.821,0,0,1,6.824-6.821" transform="translate(61.816 23.173)" fill="#2d2d2d"/>
          <path id="Path_1321-2" data-name="Path 1321" d="M54.523,35.763A6.821,6.821,0,1,1,47.7,42.584a6.821,6.821,0,0,1,6.824-6.821" transform="translate(61.816 46.346)" fill="#2d2d2d"/>
          <path id="Path_1322-2" data-name="Path 1322" d="M54.523,53.644A6.821,6.821,0,1,1,47.7,60.465a6.821,6.821,0,0,1,6.824-6.821" transform="translate(61.816 69.52)" fill="#ed1818"/>
          <path id="Path_1323-2" data-name="Path 1323" d="M54.523,71.526A6.821,6.821,0,1,1,47.7,78.347a6.821,6.821,0,0,1,6.824-6.821" transform="translate(61.816 92.694)" fill="#ed1818"/>
          <path id="Path_1324-2" data-name="Path 1324" d="M54.523,89.408A6.821,6.821,0,1,1,47.7,96.229a6.821,6.821,0,0,1,6.824-6.821" transform="translate(61.816 115.868)" fill="#ed1818"/>
        </g>
      </g>
    </g>
    <g id="Group_552" data-name="Group 552" clip-path="url(#clip-path-3)">
      <g id="Group_483" data-name="Group 483">
        <g id="Group_482" data-name="Group 482" clip-path="url(#clip-path-3)">
          <path id="Path_1785" data-name="Path 1785" d="M537.75,319.333l-39.407,68.919-77.965,1.125a4.72,4.72,0,0,0-4.645,4.461l79.287.224,2.981-.1,99.277.2,20.06-34.6,25.628-36.729a3.625,3.625,0,0,0-2.987-5.7l-99.1.379a3.621,3.621,0,0,0-3.133,1.825" transform="translate(-58.224 -44.415)" fill="#ececec"/>
          <path id="Path_1786" data-name="Path 1786" d="M657.081,320.085a1.7,1.7,0,0,1-.475.051l-1.394.048-5.36.093-19.715.156-65.042.144h-4.735a3.9,3.9,0,0,0-3.609,1.705q-2.241,4.041-4.414,7.958c-2.9,5.237-5.7,10.289-8.369,15.106l-14.221,25.55c-4.049,7.2-7.339,13.053-9.661,17.183q-1.692,2.946-2.669,4.647c-.29.484-.525.877-.716,1.2a1.676,1.676,0,0,1-.273.39,1.751,1.751,0,0,1,.186-.439l.631-1.245c.611-1.152,1.448-2.736,2.509-4.737l9.389-17.336L543.179,344.9c2.653-4.824,5.435-9.887,8.32-15.133l4.436-8.024a4.9,4.9,0,0,1,4.425-2.147H565.1l65.042.144,19.715.156,5.36.092,1.394.048a1.741,1.741,0,0,1,.475.051" transform="translate(-72.326 -44.758)" fill="#e1e1e1"/>
          <path id="Path_1787" data-name="Path 1787" d="M598.531,360.178c-1.753,1.944-1.795,4.765-.092,6.3s4.5,1.206,6.258-.739a4.476,4.476,0,0,0,.092-6.3c-1.7-1.536-4.5-1.2-6.258.74" transform="translate(-83.638 -50.205)" fill="#fff"/>
          <rect id="Rectangle_304" data-name="Rectangle 304" width="24.465" height="42.164" transform="translate(166.622 16.71)" fill="#ececec"/>
          <rect id="Rectangle_305" data-name="Rectangle 305" width="19.319" height="52.635" transform="translate(98.373 6.91)" fill="#ececec"/>
          <path id="Path_1788" data-name="Path 1788" d="M114.133,12.408A83.332,83.332,0,0,1,124,12.115a83.3,83.3,0,0,1,9.866.293A83.176,83.176,0,0,1,124,12.7a83.212,83.212,0,0,1-9.866-.294" transform="translate(-15.985 -1.697)" fill="#fafafa"/>
          <path id="Path_1789" data-name="Path 1789" d="M115.378,15.311a74.552,74.552,0,0,1,9.331-.293,74.541,74.541,0,0,1,9.331.293,74.541,74.541,0,0,1-9.331.293,74.553,74.553,0,0,1-9.331-.293" transform="translate(-16.159 -2.103)" fill="#fafafa"/>
          <path id="Path_1790" data-name="Path 1790" d="M124.937,52.1c-.162,0-.294-6.972-.294-15.571s.132-15.572.294-15.572.293,6.971.293,15.572S125.1,52.1,124.937,52.1" transform="translate(-17.457 -2.935)" fill="#fafafa"/>
          <path id="Path_1791" data-name="Path 1791" d="M114.394,62.724a76.462,76.462,0,0,1,9.457-.294,76.45,76.45,0,0,1,9.457.294,76.562,76.562,0,0,1-9.457.293,76.574,76.574,0,0,1-9.457-.293" transform="translate(-16.021 -8.743)" fill="#fafafa"/>
          <path id="Path_1792" data-name="Path 1792" d="M114.394,65.35a80.455,80.455,0,0,1,9.694-.293,80.462,80.462,0,0,1,9.7.293,80.463,80.463,0,0,1-9.7.293,80.457,80.457,0,0,1-9.694-.293" transform="translate(-16.021 -9.111)" fill="#fafafa"/>
          <rect id="Rectangle_306" data-name="Rectangle 306" width="15.519" height="58.327" transform="translate(117.68 1.218)" fill="#e1e1e1"/>
          <path id="Path_1793" data-name="Path 1793" d="M136.731,32.565a14.978,14.978,0,0,1,2.4,1.663c1.6,1.212,3.5,2.655,5.6,4.247l5.591,4.261a14.991,14.991,0,0,1,2.244,1.869,13.958,13.958,0,0,1-2.488-1.533c-1.489-1.015-3.513-2.465-5.7-4.129s-4.128-3.227-5.5-4.39a13.915,13.915,0,0,1-2.143-1.987" transform="translate(-19.149 -4.56)" fill="#fafafa"/>
          <path id="Path_1794" data-name="Path 1794" d="M136.653,21.946a88.827,88.827,0,0,1,7.941,6.419,88.917,88.917,0,0,1,7.561,6.865,89.048,89.048,0,0,1-7.942-6.42,88.786,88.786,0,0,1-7.559-6.864" transform="translate(-19.138 -3.073)" fill="#fafafa"/>
          <rect id="Rectangle_307" data-name="Rectangle 307" width="7.424" height="55.565" transform="translate(50.231 4.022)" fill="#ececec"/>
          <path id="Path_1795" data-name="Path 1795" d="M58.77,13.422c0,.193,1.557.349,3.478.349s3.478-.156,3.478-.349-1.557-.349-3.478-.349-3.478.156-3.478.349" transform="translate(-8.231 -1.831)" fill="#fafafa"/>
          <path id="Path_1796" data-name="Path 1796" d="M58.594,12.015c0,.193,1.557.349,3.478.349s3.478-.156,3.478-.349-1.557-.349-3.478-.349-3.478.157-3.478.349" transform="translate(-8.206 -1.634)" fill="#fafafa"/>
          <path id="Path_1797" data-name="Path 1797" d="M58.77,64.237c0,.194,1.557.35,3.478.35s3.478-.156,3.478-.35-1.557-.348-3.478-.348-3.478.156-3.478.348" transform="translate(-8.231 -8.948)" fill="#fafafa"/>
          <path id="Path_1798" data-name="Path 1798" d="M58.594,62.83c0,.193,1.557.349,3.478.349s3.478-.156,3.478-.349-1.557-.349-3.478-.349-3.478.156-3.478.349" transform="translate(-8.206 -8.751)" fill="#fafafa"/>
          <path id="Path_1799" data-name="Path 1799" d="M62.933,49.818c.193,0,.349-6.364.349-14.212s-.156-14.215-.349-14.215-.349,6.364-.349,14.215.156,14.212.349,14.212" transform="translate(-8.765 -2.996)" fill="#fafafa"/>
          <rect id="Rectangle_308" data-name="Rectangle 308" width="14.847" height="55.565" transform="translate(83.496 3.666)" fill="#e1e1e1"/>
          <path id="Path_1800" data-name="Path 1800" d="M107.969,60.562a1.261,1.261,0,0,0,.173-.3c.106-.2.249-.513.423-.926a16.036,16.036,0,0,0,1.078-3.767,9.8,9.8,0,0,0-.868-6.113,8.122,8.122,0,0,0-2.631-2.9,6.111,6.111,0,0,0-4.277-1.01,4.5,4.5,0,0,0-2.211,1.022A2.918,2.918,0,0,0,98.592,48.9a3.371,3.371,0,0,0,1.27,2.356,4.614,4.614,0,0,0,2.533,1.075,6.739,6.739,0,0,0,5.261-1.916,8.461,8.461,0,0,0,2.61-5.34,14.173,14.173,0,0,0-.77-6.2,11.433,11.433,0,0,0-3.639-5.416,5.965,5.965,0,0,0-3.206-1.262,4.162,4.162,0,0,0-3.335,1.183,2.709,2.709,0,0,0-.762,1.739,3.183,3.183,0,0,0,.511,1.816,4.822,4.822,0,0,0,3,2.044A6.991,6.991,0,0,0,108.6,36.8a10.921,10.921,0,0,0,2.546-6.256,15.383,15.383,0,0,0-.639-6.485,8.948,8.948,0,0,0-3.835-4.933,6.567,6.567,0,0,0-5.9-.618,3.1,3.1,0,0,0-1.919,2.266,3.59,3.59,0,0,0,.675,2.8,4.639,4.639,0,0,0,5,1.324,8.66,8.66,0,0,0,3.945-2.8,12.6,12.6,0,0,0,2.959-7.62,12.189,12.189,0,0,0-1.372-6.037,12.04,12.04,0,0,0-2.332-3.147,9,9,0,0,0-.773-.666,1.29,1.29,0,0,0-.287-.2,14.126,14.126,0,0,1,3.15,4.13,12.084,12.084,0,0,1,1.224,5.9,12.254,12.254,0,0,1-2.944,7.316,8.176,8.176,0,0,1-3.724,2.606A4.093,4.093,0,0,1,100,23.219a3,3,0,0,1-.551-2.336,2.487,2.487,0,0,1,1.577-1.817,5.962,5.962,0,0,1,5.32.607,8.315,8.315,0,0,1,3.535,4.6,14.778,14.778,0,0,1,.589,6.2,10.265,10.265,0,0,1-2.379,5.861,6.315,6.315,0,0,1-5.868,1.979,4.132,4.132,0,0,1-2.56-1.732,2.128,2.128,0,0,1,.164-2.711,3.482,3.482,0,0,1,2.783-.97,5.263,5.263,0,0,1,2.839,1.12,10.8,10.8,0,0,1,3.421,5.084A13.578,13.578,0,0,1,109.627,45a7.831,7.831,0,0,1-2.391,4.966,6.153,6.153,0,0,1-4.78,1.79,3.547,3.547,0,0,1-3.325-2.882A2.391,2.391,0,0,1,100,46.949a4.016,4.016,0,0,1,1.951-.921,5.655,5.655,0,0,1,3.951.9,7.742,7.742,0,0,1,2.531,2.718,9.619,9.619,0,0,1,.941,5.887,17.621,17.621,0,0,1-.94,3.755c-.3.835-.491,1.266-.464,1.278" transform="translate(-13.802 -0.62)" fill="#fafafa"/>
          <rect id="Rectangle_309" data-name="Rectangle 309" width="25.758" height="50.603" transform="translate(57.536 8.65)" fill="#fafafa"/>
          <path id="Path_1801" data-name="Path 1801" d="M67.934,19.78c0,.193,5.582.349,12.466.349s12.468-.156,12.468-.349-5.581-.349-12.468-.349-12.466.157-12.466.349" transform="translate(-9.514 -2.721)" fill="#e1e1e1"/>
          <path id="Path_1802" data-name="Path 1802" d="M67.562,24.24c0,.193,5.511.349,12.307.349s12.307-.156,12.307-.349-5.509-.348-12.307-.348-12.307.156-12.307.348" transform="translate(-9.462 -3.346)" fill="#e1e1e1"/>
          <path id="Path_1803" data-name="Path 1803" d="M66.6,62.2c0,.193,5.8.349,12.959.349s12.961-.156,12.961-.349-5.8-.349-12.961-.349S66.6,62,66.6,62.2" transform="translate(-9.327 -8.662)" fill="#e1e1e1"/>
          <path id="Path_1804" data-name="Path 1804" d="M67,56.951c0,.193,5.653.349,12.627.349s12.626-.156,12.626-.349S86.606,56.6,79.632,56.6,67,56.759,67,56.951" transform="translate(-9.384 -7.927)" fill="#e1e1e1"/>
          <rect id="Rectangle_310" data-name="Rectangle 310" width="14.846" height="55.564" transform="translate(133.188 3.31)" fill="#ececec"/>
          <path id="Path_1805" data-name="Path 1805" d="M165.752,60.148a1.257,1.257,0,0,0,.173-.3c.106-.2.249-.513.423-.925a16.072,16.072,0,0,0,1.078-3.767,9.811,9.811,0,0,0-.868-6.113,8.132,8.132,0,0,0-2.631-2.9,6.111,6.111,0,0,0-4.277-1.011,4.5,4.5,0,0,0-2.211,1.022,2.917,2.917,0,0,0-1.064,2.342,3.371,3.371,0,0,0,1.269,2.355,4.609,4.609,0,0,0,2.533,1.076,6.738,6.738,0,0,0,5.261-1.916,8.461,8.461,0,0,0,2.61-5.34,14.16,14.16,0,0,0-.77-6.2,11.429,11.429,0,0,0-3.638-5.416,5.963,5.963,0,0,0-3.206-1.262,4.163,4.163,0,0,0-3.336,1.182,2.713,2.713,0,0,0-.762,1.739,3.179,3.179,0,0,0,.511,1.816,4.823,4.823,0,0,0,3,2.045,6.991,6.991,0,0,0,6.539-2.19,10.928,10.928,0,0,0,2.547-6.255,15.4,15.4,0,0,0-.639-6.486,8.955,8.955,0,0,0-3.835-4.934,6.57,6.57,0,0,0-5.9-.618,3.1,3.1,0,0,0-1.919,2.267,3.58,3.58,0,0,0,.675,2.8,4.637,4.637,0,0,0,5,1.324,8.658,8.658,0,0,0,3.945-2.8,12.613,12.613,0,0,0,2.96-7.62,12.207,12.207,0,0,0-1.372-6.037,12.081,12.081,0,0,0-2.333-3.148,9.271,9.271,0,0,0-.772-.666,1.242,1.242,0,0,0-.288-.2,14.11,14.11,0,0,1,3.15,4.13,12.094,12.094,0,0,1,1.225,5.9,12.263,12.263,0,0,1-2.945,7.316,8.173,8.173,0,0,1-3.723,2.606,4.1,4.1,0,0,1-4.387-1.156,3,3,0,0,1-.55-2.336,2.485,2.485,0,0,1,1.577-1.817,5.958,5.958,0,0,1,5.32.607,8.313,8.313,0,0,1,3.535,4.6,14.783,14.783,0,0,1,.589,6.2,10.265,10.265,0,0,1-2.379,5.861A6.311,6.311,0,0,1,160,37.89a4.128,4.128,0,0,1-2.56-1.732,2.129,2.129,0,0,1,.164-2.71,3.486,3.486,0,0,1,2.783-.971,5.276,5.276,0,0,1,2.839,1.12,10.805,10.805,0,0,1,3.421,5.085,13.576,13.576,0,0,1,.762,5.907,7.835,7.835,0,0,1-2.391,4.967,6.155,6.155,0,0,1-4.779,1.79,3.548,3.548,0,0,1-3.326-2.883,2.4,2.4,0,0,1,.869-1.929,4.012,4.012,0,0,1,1.95-.92,5.658,5.658,0,0,1,3.952.9,7.752,7.752,0,0,1,2.531,2.719,9.625,9.625,0,0,1,.94,5.887,17.6,17.6,0,0,1-.939,3.754c-.3.835-.492,1.266-.465,1.279" transform="translate(-21.895 -0.562)" fill="#fafafa"/>
          <rect id="Rectangle_311" data-name="Rectangle 311" width="20.629" height="58.369" transform="translate(29.602 0.505)" fill="#e1e1e1"/>
          <rect id="Rectangle_312" data-name="Rectangle 312" width="19.295" height="51.964" transform="translate(148.033 6.91)" fill="#e1e1e1"/>
          <path id="Path_1806" data-name="Path 1806" d="M195.142,38.132a16.179,16.179,0,0,0,3.067,2.181,10.672,10.672,0,0,0,3.882,1.077,10.012,10.012,0,0,0,4.817-.838c1.627-.7,3.121-1.588,4.632-2.111a7.294,7.294,0,0,1,4.206-.384,4.494,4.494,0,0,1,2.437,1.477,1.778,1.778,0,0,1,.477.928c-.049.026-.194-.32-.648-.776a4.565,4.565,0,0,0-2.357-1.225,7.133,7.133,0,0,0-3.93.487c-1.439.526-2.9,1.421-4.589,2.144a10.223,10.223,0,0,1-5.093.836,10.484,10.484,0,0,1-4.025-1.248,8.862,8.862,0,0,1-2.249-1.723,2.782,2.782,0,0,1-.627-.826" transform="translate(-27.33 -5.307)" fill="#fafafa"/>
          <path id="Path_1807" data-name="Path 1807" d="M194.637,44.111a16.18,16.18,0,0,0,3.067,2.181,10.689,10.689,0,0,0,3.882,1.078,10.024,10.024,0,0,0,4.817-.838c1.627-.695,3.121-1.587,4.632-2.111a7.294,7.294,0,0,1,4.206-.384,4.494,4.494,0,0,1,2.437,1.477,1.776,1.776,0,0,1,.477.929c-.049.025-.194-.321-.648-.777a4.565,4.565,0,0,0-2.357-1.225,7.14,7.14,0,0,0-3.93.487c-1.439.526-2.9,1.421-4.589,2.144a10.223,10.223,0,0,1-5.093.836,10.469,10.469,0,0,1-4.025-1.248,8.9,8.9,0,0,1-2.249-1.722,2.79,2.79,0,0,1-.627-.826" transform="translate(-27.259 -6.145)" fill="#fafafa"/>
          <path id="Path_1808" data-name="Path 1808" d="M195.008,24.749c0-.162,5.313-.293,11.865-.293s11.866.132,11.866.293-5.312.293-11.866.293-11.865-.132-11.865-.293" transform="translate(-27.311 -3.425)" fill="#fafafa"/>
          <path id="Path_1809" data-name="Path 1809" d="M184.247,17.676a2.786,2.786,0,0,0-1.679-.141,2.028,2.028,0,0,0-1.305,1.083,1.867,1.867,0,0,0,2.395,2.3,2.028,2.028,0,0,0,1.032-1.346,2.784,2.784,0,0,0-.206-1.672c.021-.021.191.071.371.359a2.1,2.1,0,0,1,.242,1.391,2.378,2.378,0,0,1-1.2,1.753A2.37,2.37,0,0,1,180.77,18.4a2.38,2.38,0,0,1,1.7-1.268,2.112,2.112,0,0,1,1.4.19c.295.167.393.335.373.355" transform="translate(-25.291 -2.394)" fill="#fafafa"/>
          <path id="Path_1810" data-name="Path 1810" d="M183.346,57.114c-.162,0-.294-7.284-.294-16.267s.132-16.269.294-16.269.293,7.283.293,16.269-.132,16.267-.293,16.267" transform="translate(-25.637 -3.442)" fill="#fafafa"/>
          <rect id="Rectangle_313" data-name="Rectangle 313" width="199.693" height="11.399" transform="translate(11.551 58.577)" fill="#ececec"/>
          <rect id="Rectangle_314" data-name="Rectangle 314" width="17.435" height="11.399" transform="translate(193.809 58.577)" fill="#e1e1e1"/>
          <path id="Path_1811" data-name="Path 1811" d="M287.044,72.91l-1.093,88.069c-.187,14.977,2.6,37.015,26.292,36.229,20.5-2.232,25.945-21.642,26.1-35.618.075-6.63.152-12.159.2-12.839,0,0,22.446-1.831,24.34-24,.916-10.714,1-32.934.852-53.037a41.444,41.444,0,0,0-38.44-41l-2.14-.157c-23.185-.337-36.424,19.166-36.12,42.351" transform="translate(-40.047 -4.279)" fill="#ffc3a3"/>
          <path id="Path_1812" data-name="Path 1812" d="M342.515,166.266s-14.046-.2-28.267-10.652c0,0,5.864,16.723,28.151,16.341Z" transform="translate(-44.011 -21.794)" fill="#f59f75"/>
          <path id="Path_1813" data-name="Path 1813" d="M330.118,88.342c-.441.448-3-1.612-6.716-1.711-3.708-.156-6.487,1.722-6.878,1.244-.191-.213.267-1.033,1.477-1.882a9.3,9.3,0,0,1,5.523-1.567,8.969,8.969,0,0,1,5.329,1.938c1.117.932,1.481,1.778,1.265,1.978" transform="translate(-44.324 -11.823)" fill="#1e2e35"/>
          <path id="Path_1814" data-name="Path 1814" d="M330.45,97.439a3.005,3.005,0,0,1-3.111,2.813,2.874,2.874,0,0,1-2.892-2.928,3.007,3.007,0,0,1,3.109-2.815,2.877,2.877,0,0,1,2.895,2.931" transform="translate(-45.439 -13.236)" fill="#1e2e35"/>
          <path id="Path_1815" data-name="Path 1815" d="M343.159,114.381c0-.2,2.144-.407,5.61-.594.878-.027,1.715-.14,1.9-.722a4.442,4.442,0,0,0-.392-2.624l-2.091-6.819c-2.888-9.7-4.909-17.652-4.517-17.765s3.05,7.659,5.936,17.361q1.037,3.586,1.98,6.849a5.065,5.065,0,0,1,.2,3.451,2.189,2.189,0,0,1-1.524,1.168,5.907,5.907,0,0,1-1.5.1c-3.47-.066-5.615-.207-5.613-.4" transform="translate(-48.06 -12.024)" fill="#1e2e35"/>
          <path id="Path_1816" data-name="Path 1816" d="M285.4,98.89c-.367-.192-14.918-5.623-15.541,9.583s14.771,12.694,14.815,12.259.726-21.842.726-21.842" transform="translate(-37.792 -13.696)" fill="#ffc3a3"/>
          <path id="Path_1817" data-name="Path 1817" d="M280.9,115.57c-.065-.052-.273.175-.729.362a2.647,2.647,0,0,1-1.981-.04c-1.582-.655-2.83-3.261-2.791-6a8.734,8.734,0,0,1,.9-3.762,3.061,3.061,0,0,1,2.076-1.953,1.351,1.351,0,0,1,1.533.791c.187.433.077.733.156.762.041.04.337-.241.24-.875a1.688,1.688,0,0,0-.559-.977,2,2,0,0,0-1.449-.446,3.724,3.724,0,0,0-2.864,2.243,9.008,9.008,0,0,0-1.092,4.2c-.028,3.067,1.422,6,3.6,6.725a2.838,2.838,0,0,0,2.439-.3c.486-.356.58-.693.529-.723" transform="translate(-38.421 -14.484)" fill="#f59f75"/>
          <path id="Path_1818" data-name="Path 1818" d="M337.675,129.676c.166-.384-2.813-1.276-4.908-4.071a17.067,17.067,0,0,1-2.1-3.971c-.444-1.1-.781-1.8-.944-1.746s-.117.8.127,2a11.233,11.233,0,0,0,1.957,4.449,9.1,9.1,0,0,0,3.884,2.974c1.162.47,1.947.5,1.987.37" transform="translate(-46.165 -16.79)" fill="#1e2e35"/>
          <path id="Path_1819" data-name="Path 1819" d="M390,49.639a3.588,3.588,0,0,0-1.686-2.1c-1.735-1.025-3.736-.889-5.668-.92a32.011,32.011,0,0,1-16.672-5.068,74.722,74.722,0,0,0-7.759-9.4c-6.72-6.929-12.25-11.645-17.969-13.947-7.4-2.979-19.772-4.185-27.486-2.161s-14.641,8.281-15.714,16.185c-4.326-3.658-10.822-3.627-16.09-1.509l-.132-.057c-5.867,2.091-9.2,8.29-10.933,14.274s-2.47,12.383-5.639,17.746c-.662,1.121-1.449,2.465-.87,3.632a2.474,2.474,0,0,0,2.59,1.127,7.239,7.239,0,0,0,2.731-1.236q-.982,2.35-1.963,4.7a13.861,13.861,0,0,0,6.383-.426,135.908,135.908,0,0,0,4.173,15.779c2.453-.007,4.7.169,6.211,1.528,2.055,1.848,2.975,5.325,6.389,4.006,1.738-.672,3.324-4.319,3.906-6.089a86.535,86.535,0,0,0,3.747-36.625,27.771,27.771,0,0,1,8.587-6.2l-.262.236c6.2-2.152,13.2-4.27,19.083-1.36,4.56,2.257,7.241,6.988,10.65,10.765a34.814,34.814,0,0,0,24.81,11.459c.327,6.243-.2,15.066.131,21.309l5.251-10,0,.051c.431-.733.786-1.471,1.13-2.21l.118-.224v-.029a39.258,39.258,0,0,1,1.756-3.551l.061.053c3.381,2.984,8.366-1.579,5.7-5.216a8.779,8.779,0,0,0-1.886-1.9,6.171,6.171,0,0,0,5.878,1.524,4.84,4.84,0,0,0,3.424-4.786,4.116,4.116,0,0,0-2.454-3.3,13.9,13.9,0,0,0,7.908-1.743c1.562-.891,3.093-2.357,2.564-4.32" transform="translate(-36.859 -2.107)" fill="#2d2d2d"/>
          <path id="Path_1820" data-name="Path 1820" d="M305.373,37.988a19.176,19.176,0,0,0-2.225,2.035,15.9,15.9,0,0,0-3.4,7.364,27.954,27.954,0,0,0-.567,5.635c-.009,2.042.156,4.229.311,6.535a58.464,58.464,0,0,1,.167,7.273,25.6,25.6,0,0,1-.5,3.837,8,8,0,0,1-1.566,3.721,3.348,3.348,0,0,1-3.129,1.053,4.983,4.983,0,0,1-2.816-1.591c-1.428-1.665-1.783-3.778-2.137-5.639l.465.056a18.557,18.557,0,0,1-2.7,4.645,6.607,6.607,0,0,1-4.314,2.35,4.275,4.275,0,0,1-2.287-.4,3.693,3.693,0,0,1-1.553-1.53,3.8,3.8,0,0,1-.47-1.966,2.748,2.748,0,0,1,.712-1.725l.235.21a14.322,14.322,0,0,1-4.764,3.574,12.871,12.871,0,0,1-1.476.574,2.49,2.49,0,0,1-.53.131,2.763,2.763,0,0,1,.5-.213c.33-.135.82-.333,1.432-.643a14.746,14.746,0,0,0,4.6-3.626l.236.21a2.844,2.844,0,0,0-.147,3.3,3.324,3.324,0,0,0,1.4,1.354,3.861,3.861,0,0,0,2.073.337,6.184,6.184,0,0,0,4-2.232,18.354,18.354,0,0,0,2.6-4.547l.319-.711.146.767c.355,1.859.734,3.888,2.035,5.388a4.479,4.479,0,0,0,2.521,1.422,2.821,2.821,0,0,0,2.661-.891,7.572,7.572,0,0,0,1.445-3.482,25.409,25.409,0,0,0,.5-3.758,59.517,59.517,0,0,0-.136-7.212c-.143-2.3-.292-4.5-.265-6.569a27.759,27.759,0,0,1,.638-5.71A15.7,15.7,0,0,1,303,39.888a9.027,9.027,0,0,1,2.375-1.9" transform="translate(-38.21 -5.32)" fill="#64cdd8"/>
          <path id="Path_1821" data-name="Path 1821" d="M379.4,57.539c.006.008-.054.058-.177.152l-.555.4a7.321,7.321,0,0,1-.939.6,11.871,11.871,0,0,1-1.349.71,19.68,19.68,0,0,1-9.493,1.708,25.125,25.125,0,0,1-13.384-4.943,43.513,43.513,0,0,1-11.5-13.254c-1.613-2.685-2.928-5.438-4.377-7.98a29.454,29.454,0,0,0-4.956-6.752,15.152,15.152,0,0,0-6.391-3.878,10.843,10.843,0,0,0-3.368-.388,11.915,11.915,0,0,0-3.085.593,12.83,12.83,0,0,0-7.126,6.029,15.445,15.445,0,0,0-1.146,3.326.87.87,0,0,1,.019-.233c.028-.184.063-.408.1-.679a11.067,11.067,0,0,1,.842-2.5,12.61,12.61,0,0,1,2.483-3.366,12.963,12.963,0,0,1,4.7-2.92,12.205,12.205,0,0,1,3.183-.646,11.222,11.222,0,0,1,3.506.373,15.511,15.511,0,0,1,6.609,3.951,29.619,29.619,0,0,1,5.064,6.843c1.467,2.56,2.783,5.307,4.381,7.967a43.554,43.554,0,0,0,11.334,13.132,24.983,24.983,0,0,0,13.128,4.963,19.96,19.96,0,0,0,9.385-1.526,30.809,30.809,0,0,0,3.1-1.685" transform="translate(-43.634 -3.293)" fill="#64cdd8"/>
          <path id="Path_1822" data-name="Path 1822" d="M388.974,51.748a3.53,3.53,0,0,1-.8.555,17.155,17.155,0,0,1-2.355,1.2,22.842,22.842,0,0,1-3.729,1.225,24.148,24.148,0,0,1-9.569.306,22.964,22.964,0,0,1-3.8-.983A17.194,17.194,0,0,1,366.3,53a3.453,3.453,0,0,1-.83-.5c.044-.088,1.268.542,3.37,1.2a26.145,26.145,0,0,0,3.761.86,25.851,25.851,0,0,0,9.388-.3,26.179,26.179,0,0,0,3.7-1.1c2.057-.787,3.239-1.5,3.288-1.41" transform="translate(-51.185 -7.246)" fill="#64cdd8"/>
          <path id="Path_1823" data-name="Path 1823" d="M369.5,89.969c-.441.448-3-1.612-6.717-1.711-3.707-.156-6.487,1.722-6.876,1.244-.193-.213.267-1.033,1.477-1.882a9.3,9.3,0,0,1,5.522-1.568,8.977,8.977,0,0,1,5.33,1.939c1.116.932,1.481,1.778,1.265,1.978" transform="translate(-49.839 -12.051)" fill="#1e2e35"/>
          <path id="Path_1824" data-name="Path 1824" d="M366.334,98.693a3,3,0,0,1-3.111,2.813,2.873,2.873,0,0,1-2.891-2.928,3.006,3.006,0,0,1,3.108-2.815,2.876,2.876,0,0,1,2.895,2.93" transform="translate(-50.465 -13.412)" fill="#1e2e35"/>
          <path id="Path_1825" data-name="Path 1825" d="M520.541,192.056c0-6.442-6.156-6.442-6.156-6.442-2.346-3.081-4.983-1.961-4.983-1.961l-9.967,6.722c-1.466,2.521-11.14,12.044-11.14,12.044-2.638-1.961-2.638-5.882-5.8-10.644s-10.324-4.2-10.324-4.2,5.57,12.6,6.156,20.447-4.281,29.719-4.281,29.719l28.177,7.92s1.779-12,4.936-12.971c3.8-1.166,5.915-6.773,5.915-6.773,4.109-8.322,12.449-20.416,13.622-26.578s-6.156-7.283-6.156-7.283" transform="translate(-66.129 -25.693)" fill="#ffc3a3"/>
          <path id="Path_1826" data-name="Path 1826" d="M276.626,177.258c17.947,11.278,36.035,15.522,54.354,8.218l27.538,7.034,27.094,181.013L226.759,374.9l7.826-42.043L254.278,181.8Z" transform="translate(-31.758 -24.825)" fill="#64cdd8"/>
          <path id="Path_1827" data-name="Path 1827" d="M379.976,194.994s21.418,8.894,29.592,24.473,21.313,59.31,21.313,59.31l24.2-44.446L500,245.813s-33.433,92.219-41.826,100.615c-9.189,9.191-34.231,18.459-46.493,11.307s-14.756-34.3-14.756-34.3Z" transform="translate(-53.216 -27.309)" fill="#64cdd8"/>
          <path id="Path_1828" data-name="Path 1828" d="M381.657,277.186c-.125,0-.224-8.041-.224-17.956s.1-17.957.224-17.957.224,8.038.224,17.957-.1,17.956-.224,17.956" transform="translate(-53.42 -33.791)" fill="#1e2e35"/>
          <path id="Path_1829" data-name="Path 1829" d="M390.411,207.021a26.9,26.9,0,0,1-1.045,2.965c-.673,1.818-1.569,4.341-2.446,7.164s-1.558,5.413-2.029,7.295a27.151,27.151,0,0,1-.813,3.036,3.08,3.08,0,0,1,.083-.844c.081-.538.224-1.312.421-2.264.394-1.9,1.035-4.517,1.911-7.356s1.827-5.354,2.578-7.148c.376-.9.695-1.615.932-2.105a3.124,3.124,0,0,1,.408-.744" transform="translate(-53.789 -28.994)" fill="#1e2e35"/>
          <path id="Path_1830" data-name="Path 1830" d="M240.79,250.262l4.97-68.205S208.37,185.526,196,211.9c-10.427,22.23-39.208,89.111-42.29,98.261-9.039,26.848,5.083,63.759,63.3,61.62l6.637-36.5Z" transform="translate(-21.176 -25.497)" fill="#64cdd8"/>
          <path id="Path_1831" data-name="Path 1831" d="M206.695,366.737a4.31,4.31,0,0,1,.3-.654l.95-1.836c.863-1.623,2.076-3.9,3.565-6.709l1.192-2.22a6.567,6.567,0,0,1,1.71-2.2,4.654,4.654,0,0,1,2.876-.826,13.144,13.144,0,0,1,3.1.5,31.8,31.8,0,0,1,6.256,2.367,16.514,16.514,0,0,1,3,1.914l.347.3a1.124,1.124,0,0,1,.293.462,3.888,3.888,0,0,1,.189.94,14.639,14.639,0,0,1,.041,1.851c-.091,2.466-.4,4.842-.7,7.133s-.666,4.491-1.016,6.585c-.7,4.186-1.408,7.942-2.011,11.093-.611,3.116-1.108,5.652-1.461,7.457q-.25,1.272-.4,2.026a5.56,5.56,0,0,1-.15.705,3.578,3.578,0,0,1,.062-.72c.062-.469.169-1.158.317-2.042.319-1.811.768-4.357,1.321-7.483.563-3.159,1.234-6.918,1.914-11.1.339-2.093.679-4.292.989-6.577s.6-4.658.691-7.087a14.263,14.263,0,0,0-.038-1.793,3.526,3.526,0,0,0-.163-.828.676.676,0,0,0-.178-.291l-.329-.287a16.293,16.293,0,0,0-2.919-1.865,31.753,31.753,0,0,0-6.161-2.357,12.8,12.8,0,0,0-3-.507,4.281,4.281,0,0,0-2.65.732,6.28,6.28,0,0,0-1.629,2.066q-.632,1.148-1.215,2.2l-3.691,6.642q-.642,1.127-1.024,1.795a4.164,4.164,0,0,1-.384.611" transform="translate(-28.948 -49.339)" fill="#1e2e35"/>
          <path id="Path_1832" data-name="Path 1832" d="M175.255,331.411a1.651,1.651,0,0,1,.44-.015l1.255.049c1.089.053,2.664.145,4.608.326a59.672,59.672,0,0,1,6.791.988,34.763,34.763,0,0,1,7.985,2.647,31.23,31.23,0,0,1,7.026,4.635,18.731,18.731,0,0,1,4.265,5.389,11.963,11.963,0,0,1,1.293,4.448,8,8,0,0,1,.024,1.26,1.648,1.648,0,0,1-.036.438c-.05,0-.032-.607-.163-1.679a12.506,12.506,0,0,0-1.4-4.322,18.976,18.976,0,0,0-4.258-5.226,31.863,31.863,0,0,0-6.948-4.542,35.7,35.7,0,0,0-7.876-2.645,66.119,66.119,0,0,0-6.737-1.077c-1.933-.22-3.5-.36-4.588-.467l-1.249-.132a1.646,1.646,0,0,1-.433-.077" transform="translate(-24.545 -46.412)" fill="#1e2e35"/>
          <path id="Path_1833" data-name="Path 1833" d="M220.531,327.409a16.065,16.065,0,0,1-.93,2.685c-.64,1.633-1.594,3.859-2.689,6.3l-2.806,6.238a19.626,19.626,0,0,1-1.222,2.561,16.176,16.176,0,0,1,.93-2.684c.641-1.633,1.594-3.86,2.689-6.3,1.07-2.374,2.035-4.522,2.807-6.236a19.974,19.974,0,0,1,1.221-2.562" transform="translate(-29.814 -45.854)" fill="#1e2e35"/>
          <path id="Path_1834" data-name="Path 1834" d="M245.8,261.841c-.124,0-.224-4.323-.224-9.655s.1-9.655.224-9.655.224,4.321.224,9.655-.1,9.655-.224,9.655" transform="translate(-34.394 -33.967)" fill="#1e2e35"/>
          <g id="Group_475" data-name="Group 475" transform="translate(164.938 305.165)" opacity="0.3">
            <g id="Group_474" data-name="Group 474">
              <g id="Group_473" data-name="Group 473" clip-path="url(#clip-path-5)">
                <path id="Path_1835" data-name="Path 1835" d="M211.223,354.864c-9.836,3.431-16.486,12.357-19.171,22.421-.282,1.055-.47,2.3.236,3.135a2.476,2.476,0,0,0,3.088.253,7.231,7.231,0,0,0,2.19-2.522c4.739-7.583,9.365-14.607,13.657-23.287" transform="translate(-191.8 -354.864)"/>
              </g>
            </g>
          </g>
          <g id="Group_478" data-name="Group 478" transform="translate(141.112 281.227)" opacity="0.3">
            <g id="Group_477" data-name="Group 477">
              <g id="Group_476" data-name="Group 476" clip-path="url(#clip-path-6)">
                <path id="Path_1836" data-name="Path 1836" d="M195.141,331.506a39.667,39.667,0,0,0-16.932-4.441,25.74,25.74,0,0,0-6.843.6c-3.07.645-6.6,2.2-7.273,4.4,7.06-2.211,17.452-.755,24.68.825a26.514,26.514,0,0,1,17.278,12.243,24.646,24.646,0,0,0-10.911-13.63" transform="translate(-164.094 -327.028)"/>
              </g>
            </g>
          </g>
          <path id="Path_1837" data-name="Path 1837" d="M237.113,227.254a5.493,5.493,0,0,1-.342-1.077c-.184-.7-.483-1.705-.89-2.932a47.355,47.355,0,0,0-10.16-17.269c-.876-.951-1.609-1.7-2.132-2.2a5.519,5.519,0,0,1-.775-.822,5.417,5.417,0,0,1,.893.694c.561.464,1.332,1.182,2.244,2.112a42.616,42.616,0,0,1,10.233,17.392c.37,1.248.624,2.271.757,2.987a5.469,5.469,0,0,1,.173,1.117" transform="translate(-31.205 -28.424)" fill="#1e2e35"/>
          <path id="Path_1838" data-name="Path 1838" d="M248.52,387.161,206.855,286.639c-1.9-4.588.483-8.306,5.327-8.306h8.383c3.421,0,5.752-1.883,5.972-4.825l.277-3.7c.222-2.942,2.557-4.825,5.981-4.825h39.831a13.944,13.944,0,0,1,9.224,4.08l3.233,3.132a13.923,13.923,0,0,0,9.215,4.081h50.732c4.843,0,10.268,3.718,12.114,8.306L398.45,387.161Z" transform="translate(-28.879 -37.112)" fill="#b21212"/>
          <path id="Path_1839" data-name="Path 1839" d="M244.808,356.16l-15.713-60.754c-1.035-4,1.585-8.014,5.232-8.014H357.494a5.618,5.618,0,0,1,5.246,4.525l22.873,91.445c1,4.015-.6,6.424-4.251,6.377l-123.925.039a5.622,5.622,0,0,1-5.177-4.489Z" transform="translate(-32.053 -40.25)" fill="#e1e1e1"/>
          <path id="Path_1840" data-name="Path 1840" d="M256.209,387.258l-6.694-95.676a5.867,5.867,0,0,1,5.853-6.277H382.986V387.258Z" transform="translate(-34.943 -39.958)" fill="#ececec"/>
          <path id="Path_1841" data-name="Path 1841" d="M255.642,389.447l15.182-98.633a7.068,7.068,0,0,1,6.94-5.51h129.1a6.979,6.979,0,0,1,6.518,9.722L385.5,385.291Z" transform="translate(-35.803 -39.958)" fill="#fafafa"/>
          <path id="Path_1842" data-name="Path 1842" d="M255.412,390.916l31.309-92.377a9.271,9.271,0,0,1,8.708-6.422h133.09a6.5,6.5,0,0,1,5.944,8.63l-29.12,90.214Z" transform="translate(-35.771 -40.912)" fill="#ed1818"/>
          <g id="Group_481" data-name="Group 481" transform="translate(222.355 294.844)" opacity="0.3">
            <g id="Group_480" data-name="Group 480">
              <g id="Group_479" data-name="Group 479" clip-path="url(#clip-path-7)">
                <path id="Path_1843" data-name="Path 1843" d="M320.2,382.558s-5.025.23-7.341.387a68.394,68.394,0,0,1-32.338-5.736c-3.131-1.4-6.444-3.365-7.39-6.66-1.061-3.69,1.329-7.531,4.242-10.032s6.456-4.281,8.986-7.17,3.727-7.563,1.235-10.484l-.689.5c-1.8,4.56-6.814,6.762-10.966,9.372a38.7,38.7,0,0,0-16.251,21.241c-1.461,4.783-1.852,10.362,1.048,14.436,2.057,2.89,5.425,4.534,8.751,5.768,10.068,3.733,20.831,3.872,31.569,3.885,3.393,0,13.806-.139,13.806-.139,3.274-.891,4.354-2.6,6.325-5.357,1.809-2.537,1.414-8.027-.985-10.014" transform="translate(-258.568 -342.862)"/>
              </g>
            </g>
          </g>
          <path id="Path_1844" data-name="Path 1844" d="M316.043,382.2l-34.712-5.219-13.476-7.754a6.08,6.08,0,0,1-3.1-4.9c0-.038,0-.077-.006-.114a6.153,6.153,0,0,1,3.815-5.874c4.277-1.8,11.049-4.2,13.937-9.258,4.151-7.273,0-8.782,0-8.782L253.515,351.89,233,365.855l-4.129,23.287,28.63,9.35s31.9,1.8,40.706.812,8.8-5.088,8.8-5.088c1.634-.511,4.94-3.413,4.938-6.118,4.272-4.008,4.1-5.9,4.1-5.9" transform="translate(-32.053 -47.66)" fill="#ffc3a3"/>
          <path id="Path_1845" data-name="Path 1845" d="M278.611,400.676a6.86,6.86,0,0,1,1.43.273c.907.22,2.227.512,3.861.838a81.639,81.639,0,0,0,25.907,1.01c1.655-.2,2.994-.385,3.915-.535a7.017,7.017,0,0,1,1.447-.162,6.9,6.9,0,0,1-1.405.387c-.911.219-2.244.471-3.9.723a70.491,70.491,0,0,1-26.05-1.016c-1.633-.381-2.943-.736-3.834-1.025a6.861,6.861,0,0,1-1.371-.5" transform="translate(-39.02 -56.114)" fill="#f59f75"/>
          <path id="Path_1846" data-name="Path 1846" d="M282.3,394.436a7.173,7.173,0,0,1,1.452.277c.922.224,2.262.514,3.923.834A84.312,84.312,0,0,0,300.794,397a89.079,89.079,0,0,0,13.193-.605c1.679-.2,3.037-.4,3.973-.547a7.089,7.089,0,0,1,1.469-.166,7.114,7.114,0,0,1-1.426.391c-.926.222-2.279.479-3.961.736a74.667,74.667,0,0,1-13.267.781,71.291,71.291,0,0,1-13.187-1.631c-1.66-.374-2.992-.728-3.9-1.021a7.02,7.02,0,0,1-1.392-.5" transform="translate(-39.536 -55.24)" fill="#f59f75"/>
          <path id="Path_1847" data-name="Path 1847" d="M574.207,407.022c0,.124-128.551.224-287.09.224-158.594,0-287.118-.1-287.118-.224s128.524-.224,287.118-.224c158.539,0,287.09.1,287.09.224" transform="translate(0 -56.973)" fill="#1e2e35"/>
          <path id="Path_1848" data-name="Path 1848" d="M436.57,144.582a5.473,5.473,0,0,0-4.17,6.493l16.268,74.635a5.472,5.472,0,0,0,6.493,4.169l53.311-11.62a5.473,5.473,0,0,0,4.169-6.493L499.86,153.125l-25.972-16.677Z" transform="translate(-60.541 -19.11)" fill="#e2e4e6"/>
          <path id="Path_1849" data-name="Path 1849" d="M490.643,156.61l15.994-3.486-25.973-16.676,3.486,15.993a5.472,5.472,0,0,0,6.493,4.169" transform="translate(-67.318 -19.11)" fill="#b0b6bb"/>
          <path id="Path_1850" data-name="Path 1850" d="M511.747,171.834l-19.479-12.508,15.993-3.486Z" transform="translate(-68.943 -21.826)" fill="#cad0d6"/>
          <path id="Path_1851" data-name="Path 1851" d="M499.254,209.647a2.735,2.735,0,0,1-2.085,3.245l-58.642,12.782a2.736,2.736,0,0,1-3.247-2.085l-5.809-26.655a2.735,2.735,0,0,1,2.084-3.247L490.2,180.907a2.736,2.736,0,0,1,3.246,2.085Z" transform="translate(-60.14 -25.328)" fill="#de614c"/>
          <path id="Path_1852" data-name="Path 1852" d="M444.978,205.256a1.5,1.5,0,0,1,1.127-1.787l4.923-1.073a5.454,5.454,0,0,1,2.323,10.656l-3.558.776.613,2.815a1.369,1.369,0,0,1-1.044,1.766,1.47,1.47,0,0,1-1.767-1.154Zm3.076.6,1.158,5.31,3.558-.777a2.718,2.718,0,0,0-1.157-5.308Z" transform="translate(-62.315 -28.326)" fill="#fff"/>
          <path id="Path_1853" data-name="Path 1853" d="M466.063,214.791a1.365,1.365,0,0,1-1.759-1l-2.639-12.106a1.486,1.486,0,0,1,1.183-1.644l4.88-1.063c9.74-2.123,12.742,12.671,3.407,14.707Zm-1.3-12.44,2.082,9.548,3.536-.771c5.756-1.255,3.931-10.858-2.081-9.547Z" transform="translate(-64.653 -27.838)" fill="#fff"/>
          <path id="Path_1854" data-name="Path 1854" d="M484.008,198.266l.739,3.387,5.436-1.184a1.686,1.686,0,0,1,1.864,1.176,1.518,1.518,0,0,1-1.256,1.615l-5.436,1.184.975,4.475a1.292,1.292,0,0,1-.988,1.6,1.386,1.386,0,0,1-1.8-.99L480.9,197.42a1.378,1.378,0,0,1,1.223-1.651l7.482-1.631a1.361,1.361,0,0,1,1.781,1,1.508,1.508,0,0,1-1.176,1.776l-6.205,1.353Z" transform="translate(-67.347 -27.182)" fill="#fff"/>
          <path id="Path_1855" data-name="Path 1855" d="M499.957,217.583l-50.646,11.039.581,2.666,50.646-11.039A2.737,2.737,0,0,0,502.623,217l-.581-2.665a2.735,2.735,0,0,1-2.085,3.245" transform="translate(-62.927 -30.018)" fill="#cad0d6"/>
          <path id="Path_1856" data-name="Path 1856" d="M511.747,171.834l-19.479-12.508,15.993-3.486Z" transform="translate(-68.943 -21.826)" fill="#cad0d6"/>
          <path id="Path_1857" data-name="Path 1857" d="M499.957,217.583l-50.646,11.039.581,2.666,50.646-11.039A2.737,2.737,0,0,0,502.623,217l-.581-2.665a2.735,2.735,0,0,1-2.085,3.245" transform="translate(-62.927 -30.018)" fill="#cad0d6"/>
          <path id="Path_1858" data-name="Path 1858" d="M507.743,170.688s4.555-5.767,8.063-2.542,2.5,4.884-.84,9.981c0,0,7.447-.391,5.059,7.257,0,0,7.42-.82,6.706,5.438,0,0,5.6,5.481,2.689,9.015s-13.48,9.913-16.15,8.816-2.69-4.877-2.69-4.877-3.175-1.43-4.051-3.1.628-4.018.628-4.018-2.676-2.734-3.338-3.5.362-4.311.362-4.311l4.273-4.147s-5.884,2.558-7.109,1.582-2.61-1.819-1.3-3.6a59.661,59.661,0,0,1,5.98-5.759Z" transform="translate(-69.958 -23.412)" fill="#ffc3a3"/>
          <path id="Path_1859" data-name="Path 1859" d="M513.073,208.067A20.219,20.219,0,0,1,515,205.725a22.531,22.531,0,0,1,5.437-4.979,52.472,52.472,0,0,0,6.108-3.927,29.613,29.613,0,0,0,2.084-2.143,5.438,5.438,0,0,1-1.747,2.515,36.089,36.089,0,0,1-6.066,4.154,27.316,27.316,0,0,0-5.445,4.718,9.611,9.611,0,0,1-2.3,2" transform="translate(-71.856 -27.264)" fill="#f59f75"/>
          <path id="Path_1860" data-name="Path 1860" d="M508.28,200.726c-.138-.138,2.6-3.092,6.106-6.594,1.762-1.725,3.274-3.4,4.575-4.427a5.5,5.5,0,0,1,2.29-1.354c.051.1-.8.614-1.96,1.73-1.177,1.087-2.623,2.807-4.4,4.552-3.51,3.5-6.469,6.231-6.607,6.093" transform="translate(-71.185 -26.378)" fill="#f59f75"/>
          <path id="Path_1861" data-name="Path 1861" d="M509.908,186.433c-.139-.176,1.55-1.518,3.423-3.3,1.907-1.775,2.837-3.669,3.018-3.6.2.045-.522,2.245-2.521,4.107-1.95,1.856-3.82,2.928-3.92,2.8" transform="translate(-71.412 -25.143)" fill="#f59f75"/>
          <path id="Path_1862" data-name="Path 1862" d="M507.707,170.642a1.8,1.8,0,0,1-.076.427c-.077.318-.174.718-.294,1.215-.288,1.116-.687,2.667-1.2,4.639l-.011.044-.038.033c-.859.756-1.825,1.624-2.869,2.607A25.311,25.311,0,0,0,500.047,183a1.774,1.774,0,0,0-.323,1.078,1.705,1.705,0,0,0,.574,1.005,11.489,11.489,0,0,0,1.048.866,1.582,1.582,0,0,0,1.186.235,22.742,22.742,0,0,0,5.772-1.79l1.378-.569-1.063,1.039-4.259,4.161.066-.09a5.425,5.425,0,0,0-.22,4.328,12.07,12.07,0,0,0,3.371,3.434l.289.218-.234.274c-.93,1.1-1.588,2.835-.371,3.907a15.763,15.763,0,0,0,4.035,2.76l-.5.278.008-.083s0-.039,0-.024v.006c.088.1-.2-.247.2.3.96-.453.278-.187.487-.261h0v0l-.007.163,0,.349a6.606,6.606,0,0,0,.066.7,5.427,5.427,0,0,0,.369,1.348,3.561,3.561,0,0,0,.756,1.133,2.129,2.129,0,0,0,1.1.634,6.741,6.741,0,0,0,2.815-.555,25.316,25.316,0,0,0,2.8-1.257,46.053,46.053,0,0,0,4.974-3.008,29.093,29.093,0,0,0,4.351-3.571,3.523,3.523,0,0,0,1.13-2.238,5.446,5.446,0,0,0-.458-2.507,14.236,14.236,0,0,0-2.928-4.255l-.106-.11.008-.165a5.36,5.36,0,0,0-.252-2.446,3.629,3.629,0,0,0-1.5-1.771,8.018,8.018,0,0,0-4.591-.88l-.428.028.1-.423c.113-.465.246-.924.341-1.381a7.828,7.828,0,0,0,.107-1.368,3.8,3.8,0,0,0-.769-2.421,5.584,5.584,0,0,0-4.432-1.735h-.5l.266-.4a41.519,41.519,0,0,0,2.4-3.911,5.773,5.773,0,0,0,.61-1.937,3.181,3.181,0,0,0-.383-1.8A8.058,8.058,0,0,0,515,167.743a3.439,3.439,0,0,0-2.785-.284,9.328,9.328,0,0,0-3.463,2.167c-.352.321-.6.585-.774.758a1.592,1.592,0,0,1-.268.257,1.188,1.188,0,0,1,.211-.307,10.235,10.235,0,0,1,.727-.816,11.324,11.324,0,0,1,1.335-1.177,7.085,7.085,0,0,1,2.151-1.16,3.74,3.74,0,0,1,3.048.256l.712.522.645.617a7.368,7.368,0,0,1,1.169,1.514,3.6,3.6,0,0,1,.458,2.036,6.152,6.152,0,0,1-.627,2.105,41.028,41.028,0,0,1-2.385,3.993l-.232-.4a7.779,7.779,0,0,1,2.594.37,4.8,4.8,0,0,1,2.314,1.535,4.374,4.374,0,0,1,.911,2.759,8.307,8.307,0,0,1-.106,1.485c-.1.486-.232.968-.35,1.46l-.325-.395a8.58,8.58,0,0,1,4.993.94,4.287,4.287,0,0,1,1.772,2.079,5.993,5.993,0,0,1,.3,2.76l-.1-.274a14.83,14.83,0,0,1,3.095,4.47,6.1,6.1,0,0,1,.514,2.833,4.371,4.371,0,0,1-.414,1.455,6.352,6.352,0,0,1-.894,1.194,29.427,29.427,0,0,1-4.458,3.674,46.149,46.149,0,0,1-5.051,3.059,25.538,25.538,0,0,1-2.876,1.292,7.249,7.249,0,0,1-3.163.588,3.516,3.516,0,0,1-2.4-2.188,6.13,6.13,0,0,1-.416-1.526,7.316,7.316,0,0,1-.071-.775l0-.391.01-.206.005-.041v-.011c.209-.077-.472.188.489-.267.4.546.117.2.2.3v.029l0,.069-.009.1-.047.52-.454-.242a16.33,16.33,0,0,1-4.23-2.925,3.288,3.288,0,0,1-.724-1.159,2.741,2.741,0,0,1-.059-1.374,5.285,5.285,0,0,1,1.162-2.277l.056.494a12.572,12.572,0,0,1-3.557-3.685,4.51,4.51,0,0,1-.393-2.526,7.975,7.975,0,0,1,.626-2.355l.022-.05.043-.043,4.289-4.13.314.47a22.971,22.971,0,0,1-5.962,1.78,2.094,2.094,0,0,1-1.536-.357,11.734,11.734,0,0,1-1.084-.918,2.171,2.171,0,0,1-.7-1.3,2.218,2.218,0,0,1,.408-1.365,24.865,24.865,0,0,1,3.3-3.433c1.066-.969,2.049-1.82,2.931-2.559l-.049.076c.574-1.964,1.023-3.509,1.348-4.62.151-.485.271-.876.367-1.186a1.6,1.6,0,0,1,.149-.391" transform="translate(-69.921 -23.385)" fill="#f59f75"/>
          <path id="Path_1863" data-name="Path 1863" d="M162.683,19.97a5.473,5.473,0,0,0-5.456,5.457v76.387a5.473,5.473,0,0,0,5.456,5.456h54.562a5.473,5.473,0,0,0,5.457-5.456V41.8L200.877,19.97Z" transform="translate(-22.02 -2.797)" fill="#e2e4e6"/>
          <path id="Path_1864" data-name="Path 1864" d="M213.442,41.8h16.369L207.986,19.97V36.339a5.473,5.473,0,0,0,5.456,5.456" transform="translate(-29.129 -2.797)" fill="#b0b6bb"/>
          <path id="Path_1865" data-name="Path 1865" d="M230.7,61.719,214.331,45.35H230.7Z" transform="translate(-30.017 -6.351)" fill="#cad0d6"/>
          <path id="Rectangle_318" data-name="Rectangle 318" d="M3.173,0H62.3a3.172,3.172,0,0,1,3.172,3.172V29.565A3.172,3.172,0,0,1,62.3,32.737H3.172A3.172,3.172,0,0,1,0,29.565V3.173A3.173,3.173,0,0,1,3.173,0Z" transform="translate(124.295 58.096)" fill="#de614c"/>
          <path id="Path_1866" data-name="Path 1866" d="M158.366,79.834a1.5,1.5,0,0,1,1.482-1.506h5.038a5.454,5.454,0,0,1,0,10.907h-3.642v2.881a1.369,1.369,0,0,1-1.4,1.5,1.47,1.47,0,0,1-1.482-1.5Zm2.878,1.241v5.434h3.642a2.719,2.719,0,0,0,0-5.434Z" transform="translate(-22.179 -10.97)" fill="#fff"/>
          <path id="Path_1867" data-name="Path 1867" d="M176.94,93.651a1.366,1.366,0,0,1-1.507-1.35V79.91a1.484,1.484,0,0,1,1.507-1.354h5c9.969,0,9.75,15.095.2,15.095Zm1.375-12.432v9.772h3.62c5.89,0,6.151-9.772,0-9.772Z" transform="translate(-24.57 -11.002)" fill="#fff"/>
          <path id="Path_1868" data-name="Path 1868" d="M197.978,81.393V84.86h5.563a1.687,1.687,0,0,1,1.571,1.547,1.515,1.515,0,0,1-1.571,1.31h-5.563V92.3a1.292,1.292,0,0,1-1.307,1.35,1.385,1.385,0,0,1-1.546-1.35V79.906a1.378,1.378,0,0,1,1.546-1.353h7.659a1.36,1.36,0,0,1,1.527,1.353,1.507,1.507,0,0,1-1.527,1.484h-6.352Z" transform="translate(-27.328 -11.002)" fill="#fff"/>
          <path id="Path_1869" data-name="Path 1869" d="M209.062,105.183H157.228v2.728h51.834a2.736,2.736,0,0,0,2.728-2.728v-2.729a2.737,2.737,0,0,1-2.728,2.729" transform="translate(-22.02 -14.349)" fill="#cad0d6"/>
          <path id="Path_1870" data-name="Path 1870" d="M230.7,61.719,214.331,45.35H230.7Z" transform="translate(-30.017 -6.351)" fill="#cad0d6"/>
          <path id="Path_1871" data-name="Path 1871" d="M209.062,105.183H157.228v2.728h51.834a2.736,2.736,0,0,0,2.728-2.728v-2.729a2.737,2.737,0,0,1-2.728,2.729" transform="translate(-22.02 -14.349)" fill="#cad0d6"/>
          <path id="Path_1872" data-name="Path 1872" d="M510.994,40.226,505.508,0H505.1A36.264,36.264,0,0,0,468.94,36.159v.409Z" transform="translate(-65.676)" fill="#dc7451"/>
          <path id="Path_1873" data-name="Path 1873" d="M511.873,0h-.409V36.568l18.284,7.314,18.285-7.314V36.16A36.266,36.266,0,0,0,511.873,0" transform="translate(-71.632)" fill="#ef9473"/>
          <path id="Path_1874" data-name="Path 1874" d="M542.078,42.524v.4a36.27,36.27,0,0,1-36.167,36.166h-.8A36.27,36.27,0,0,1,468.94,42.926v-.4Z" transform="translate(-65.676 -5.956)" fill="#c35a3b"/>
        </g>
      </g>
      <g id="Group_485" data-name="Group 485" transform="translate(397.778 16.456)">
        <g id="Group_484" data-name="Group 484" clip-path="url(#clip-path-8)">
          <rect id="Rectangle_320" data-name="Rectangle 320" width="54.949" height="54.949" transform="translate(-17.418 10.057) rotate(-30.001)" fill="url(#linear-gradient)"/>
        </g>
      </g>
      <g id="Group_499" data-name="Group 499">
        <g id="Group_498" data-name="Group 498" clip-path="url(#clip-path-3)">
          <path id="Path_1875" data-name="Path 1875" d="M473.574,25.779a54.8,54.8,0,0,1,9.06-.616c4.134,0,7.08.792,9.06,2.374a8.668,8.668,0,0,1,3.165,6.861,9.47,9.47,0,0,1-2.727,7.036c-2.287,2.154-5.672,3.122-9.631,3.122a16.786,16.786,0,0,1-2.287-.132v10.6h-6.641Zm6.641,13.456a10.263,10.263,0,0,0,2.243.176c3.563,0,5.762-1.8,5.762-4.838,0-2.726-1.892-4.353-5.234-4.353a11.449,11.449,0,0,0-2.771.263Z" transform="translate(-66.325 -3.524)" fill="#f0f3f5"/>
          <path id="Path_1876" data-name="Path 1876" d="M640.616,157.721l-31.562-.28,6.688,39.975a3.352,3.352,0,0,0,3.859,2.753l52.9-8.851a3.35,3.35,0,0,0,2.753-3.858l-2.465-14.728Z" transform="translate(-85.299 -22.05)" fill="#2d5b3a"/>
          <path id="Path_1877" data-name="Path 1877" d="M634.179,117.922,606.826,122.5a3.351,3.351,0,0,0-2.753,3.859l2.465,14.727,33.676,12.9,17.134,2.7,11.719-7.522-3.017-18.033Z" transform="translate(-84.595 -16.515)" fill="#4fa06b"/>
          <rect id="Rectangle_322" data-name="Rectangle 322" width="31.083" height="18.285" transform="translate(521.944 124.57) rotate(-9.499)" fill="#387a47"/>
          <g id="Group_488" data-name="Group 488" transform="translate(521.34 117.248)" opacity="0.1" style="isolation: isolate">
            <g id="Group_487" data-name="Group 487">
              <g id="Group_486" data-name="Group 486" clip-path="url(#clip-path-10)">
                <path id="Path_1878" data-name="Path 1878" d="M628.187,136.388l-21.942,3.671,7.544,45.085,21.941-3.671a3.363,3.363,0,0,0,2.754-3.859l-6.438-38.472a3.363,3.363,0,0,0-3.859-2.753" transform="translate(-606.246 -136.343)"/>
              </g>
            </g>
          </g>
          <g id="Group_491" data-name="Group 491" transform="translate(521.642 119.353)" opacity="0.2" style="isolation: isolate">
            <g id="Group_490" data-name="Group 490">
              <g id="Group_489" data-name="Group 489" clip-path="url(#clip-path-11)">
                <path id="Path_1879" data-name="Path 1879" d="M626.735,138.836,606.6,142.2l7.544,45.084,20.137-3.369a3.364,3.364,0,0,0,2.753-3.859l-6.438-38.473a3.36,3.36,0,0,0-3.858-2.752" transform="translate(-606.597 -138.791)"/>
              </g>
            </g>
          </g>
          <g id="Group_494" data-name="Group 494" transform="translate(521.642 119.353)" opacity="0.2" style="isolation: isolate">
            <g id="Group_493" data-name="Group 493">
              <g id="Group_492" data-name="Group 492" clip-path="url(#clip-path-12)">
                <path id="Path_1880" data-name="Path 1880" d="M626.735,138.836,606.6,142.2l6.939,41.477,20.138-3.369a3.363,3.363,0,0,0,2.754-3.859l-5.835-34.867a3.36,3.36,0,0,0-3.858-2.752" transform="translate(-606.597 -138.791)"/>
              </g>
            </g>
          </g>
          <g id="Group_497" data-name="Group 497" transform="translate(521.642 119.655)" opacity="0.2" style="isolation: isolate">
            <g id="Group_496" data-name="Group 496">
              <g id="Group_495" data-name="Group 495" clip-path="url(#clip-path-13)">
                <path id="Path_1881" data-name="Path 1881" d="M624.932,139.187,606.6,142.254l6.939,41.478,18.335-3.068a3.361,3.361,0,0,0,2.753-3.858l-5.834-34.867a3.362,3.362,0,0,0-3.859-2.753" transform="translate(-606.597 -139.142)"/>
              </g>
            </g>
          </g>
        </g>
      </g>
      <g id="Group_501" data-name="Group 501" transform="translate(504.114 119.653)">
        <g id="Group_500" data-name="Group 500" clip-path="url(#clip-path-14)">
          <rect id="Rectangle_328" data-name="Rectangle 328" width="64.332" height="64.297" transform="translate(-22.62 18.433) rotate(-39.5)" fill="url(#linear-gradient-2)"/>
        </g>
      </g>
      <g id="Group_515" data-name="Group 515">
        <g id="Group_514" data-name="Group 514" clip-path="url(#clip-path-3)">
          <path id="Path_1883" data-name="Path 1883" d="M664.638,112.944l-25.549,4.275,3.018,18.033,28.853-4.827L668.5,115.7a3.352,3.352,0,0,0-3.859-2.753" transform="translate(-89.506 -15.812)" fill="#63c086"/>
          <rect id="Rectangle_329" data-name="Rectangle 329" width="29.255" height="18.285" transform="translate(555.619 137.475) rotate(-9.497)" fill="#387a47"/>
          <path id="Path_1884" data-name="Path 1884" d="M619.081,163.765l-10.757,1.8,1.162,6.939,12.014-2.011.906,5.422-18.65,3.121L598.866,149.8l18.044-3.019.906,5.422-11.406,1.908,1.016,6.072,10.756-1.8Z" transform="translate(-83.872 -20.558)" fill="#f0f3f5"/>
          <path id="Path_1885" data-name="Path 1885" d="M85.295,355.452l-31.084-5.485V390.5a3.352,3.352,0,0,0,3.352,3.351H111.2a3.352,3.352,0,0,0,3.352-3.351V375.565Z" transform="translate(-7.592 -49.014)" fill="#2d5b3a"/>
          <path id="Path_1886" data-name="Path 1886" d="M85.295,315.948H57.563a3.351,3.351,0,0,0-3.352,3.35v14.934l31.084,18.284L101.752,358l12.8-5.486V334.232Z" transform="translate(-7.592 -44.249)" fill="#4fa06b"/>
          <rect id="Rectangle_330" data-name="Rectangle 330" width="31.084" height="18.285" transform="translate(46.62 289.983)" fill="#387a47"/>
          <g id="Group_504" data-name="Group 504" transform="translate(46.619 286.326)" opacity="0.1" style="isolation: isolate">
            <g id="Group_503" data-name="Group 503">
              <g id="Group_502" data-name="Group 502" clip-path="url(#clip-path-16)">
                <path id="Path_1887" data-name="Path 1887" d="M76.459,332.958H54.212v45.711H76.459a3.362,3.362,0,0,0,3.351-3.351V336.309a3.361,3.361,0,0,0-3.351-3.351" transform="translate(-54.212 -332.957)"/>
              </g>
            </g>
          </g>
          <g id="Group_507" data-name="Group 507" transform="translate(46.619 288.154)" opacity="0.2" style="isolation: isolate">
            <g id="Group_506" data-name="Group 506">
              <g id="Group_505" data-name="Group 505" clip-path="url(#clip-path-17)">
                <path id="Path_1888" data-name="Path 1888" d="M74.631,335.084H54.212v45.711H74.631a3.361,3.361,0,0,0,3.35-3.351V338.435a3.361,3.361,0,0,0-3.35-3.351" transform="translate(-54.212 -335.084)"/>
              </g>
            </g>
          </g>
          <g id="Group_510" data-name="Group 510" transform="translate(46.619 288.154)" opacity="0.2" style="isolation: isolate">
            <g id="Group_509" data-name="Group 509">
              <g id="Group_508" data-name="Group 508" clip-path="url(#clip-path-18)">
                <path id="Path_1889" data-name="Path 1889" d="M74.631,335.084H54.212v42.054H74.631a3.361,3.361,0,0,0,3.35-3.351V338.435a3.361,3.361,0,0,0-3.35-3.351" transform="translate(-54.212 -335.084)"/>
              </g>
            </g>
          </g>
          <g id="Group_513" data-name="Group 513" transform="translate(46.619 288.154)" opacity="0.2" style="isolation: isolate">
            <g id="Group_512" data-name="Group 512">
              <g id="Group_511" data-name="Group 511" clip-path="url(#clip-path-19)">
                <path id="Path_1890" data-name="Path 1890" d="M72.8,335.084H54.212v42.054H72.8a3.362,3.362,0,0,0,3.351-3.351V338.435a3.362,3.362,0,0,0-3.351-3.351" transform="translate(-54.212 -335.084)"/>
              </g>
            </g>
          </g>
        </g>
      </g>
      <g id="Group_517" data-name="Group 517" transform="translate(28.334 288.154)">
        <g id="Group_516" data-name="Group 516" clip-path="url(#clip-path-20)">
          <rect id="Rectangle_336" data-name="Rectangle 336" width="54.951" height="54.951" transform="translate(-17.419 10.057) rotate(-30.001)" fill="url(#linear-gradient-3)"/>
        </g>
      </g>
      <g id="Group_531" data-name="Group 531">
        <g id="Group_530" data-name="Group 530" clip-path="url(#clip-path-3)">
          <path id="Path_1891" data-name="Path 1891" d="M116.261,315.948h-25.9v18.284h29.255V319.3a3.351,3.351,0,0,0-3.351-3.35" transform="translate(-12.655 -44.249)" fill="#63c086"/>
          <rect id="Rectangle_338" data-name="Rectangle 338" width="29.256" height="18.284" transform="translate(77.702 308.267)" fill="#387a47"/>
          <path id="Path_1892" data-name="Path 1892" d="M62.977,358.345H52.072v7.036H64.253v5.5H45.343v-29.64H63.638v5.5H52.072v6.156H62.977Z" transform="translate(-6.35 -47.791)" fill="#f0f3f5"/>
          <path id="Path_1893" data-name="Path 1893" d="M138.263,171.351H84.627a3.351,3.351,0,0,0-3.352,3.35v14.934l31.084,9.142,29.255-9.142V174.7a3.351,3.351,0,0,0-3.351-3.35" transform="translate(-11.383 -23.998)" fill="#5da2e7"/>
          <path id="Path_1894" data-name="Path 1894" d="M141.614,192.613H81.275V210.9l31.084,5.486,29.255-5.486Z" transform="translate(-11.383 -26.976)" fill="#437acc"/>
          <path id="Path_1895" data-name="Path 1895" d="M81.275,213.876V232.16l29.255,3.657,31.084-3.657V213.876Z" transform="translate(-11.383 -29.954)" fill="#2c59b6"/>
          <path id="Path_1896" data-name="Path 1896" d="M84.627,249.305h53.636a3.352,3.352,0,0,0,3.352-3.351V231.02H81.276v14.934a3.351,3.351,0,0,0,3.351,3.351" transform="translate(-11.383 -32.355)" fill="#1e3e8b"/>
          <g id="Group_520" data-name="Group 520" transform="translate(69.892 161.981)" opacity="0.1" style="isolation: isolate">
            <g id="Group_519" data-name="Group 519">
              <g id="Group_518" data-name="Group 518" clip-path="url(#clip-path-16)">
                <path id="Path_1897" data-name="Path 1897" d="M103.522,188.361H81.275v45.711h22.247a3.363,3.363,0,0,0,3.351-3.351V191.712a3.362,3.362,0,0,0-3.351-3.351" transform="translate(-81.275 -188.361)"/>
              </g>
            </g>
          </g>
          <g id="Group_523" data-name="Group 523" transform="translate(69.892 163.809)" opacity="0.2" style="isolation: isolate">
            <g id="Group_522" data-name="Group 522">
              <g id="Group_521" data-name="Group 521" clip-path="url(#clip-path-17)">
                <path id="Path_1898" data-name="Path 1898" d="M101.693,190.487H81.275V236.2h20.418a3.361,3.361,0,0,0,3.351-3.351V193.838a3.361,3.361,0,0,0-3.351-3.351" transform="translate(-81.275 -190.487)"/>
              </g>
            </g>
          </g>
          <g id="Group_526" data-name="Group 526" transform="translate(69.892 163.809)" opacity="0.2" style="isolation: isolate">
            <g id="Group_525" data-name="Group 525">
              <g id="Group_524" data-name="Group 524" clip-path="url(#clip-path-18)">
                <path id="Path_1899" data-name="Path 1899" d="M101.693,190.487H81.275v42.054h20.418a3.361,3.361,0,0,0,3.351-3.351V193.838a3.361,3.361,0,0,0-3.351-3.351" transform="translate(-81.275 -190.487)"/>
              </g>
            </g>
          </g>
          <g id="Group_529" data-name="Group 529" transform="translate(69.892 163.809)" opacity="0.2" style="isolation: isolate">
            <g id="Group_528" data-name="Group 528">
              <g id="Group_527" data-name="Group 527" clip-path="url(#clip-path-19)">
                <path id="Path_1900" data-name="Path 1900" d="M99.864,190.487H81.275v42.054H99.864a3.362,3.362,0,0,0,3.351-3.351V193.838a3.362,3.362,0,0,0-3.351-3.351" transform="translate(-81.275 -190.487)"/>
              </g>
            </g>
          </g>
        </g>
      </g>
      <g id="Group_533" data-name="Group 533" transform="translate(51.607 163.809)">
        <g id="Group_532" data-name="Group 532" clip-path="url(#clip-path-26)">
          <rect id="Rectangle_344" data-name="Rectangle 344" width="54.951" height="54.95" transform="translate(-17.419 10.057) rotate(-30.001)" fill="url(#linear-gradient-4)"/>
        </g>
      </g>
      <g id="Group_547" data-name="Group 547">
        <g id="Group_546" data-name="Group 546" clip-path="url(#clip-path-3)">
          <path id="Path_1901" data-name="Path 1901" d="M70.388,224.673l-6.124-25.795H70.5l1.952,10.639c.574,3.062,1.109,6.392,1.531,8.994h.077c.421-2.794,1.034-5.895,1.684-9.071l2.182-10.563h6.2l2.066,10.869c.574,3.024.995,5.779,1.378,8.649h.077c.384-2.87.957-5.893,1.493-8.955l2.105-10.563h5.932l-6.659,25.795H84.2l-2.181-11.1c-.5-2.6-.918-5.014-1.225-7.961h-.076c-.46,2.908-.881,5.357-1.493,7.961l-2.449,11.1Z" transform="translate(-9 -27.853)" fill="#f0f3f5"/>
          <path id="Path_1902" data-name="Path 1902" d="M575.893,318.006H522.257a3.352,3.352,0,0,0-3.352,3.351V336.29l31.085,9.143,29.255-9.143V321.357a3.351,3.351,0,0,0-3.351-3.351" transform="translate(-72.674 -44.537)" fill="#5da2e7"/>
          <path id="Path_1903" data-name="Path 1903" d="M579.245,339.268H518.906v18.285l31.084,5.486,29.255-5.486Z" transform="translate(-72.674 -47.515)" fill="#437acc"/>
          <path id="Path_1904" data-name="Path 1904" d="M518.906,360.531v18.285l29.255,3.657,31.084-3.657V360.531Z" transform="translate(-72.674 -50.493)" fill="#2c59b6"/>
          <path id="Path_1905" data-name="Path 1905" d="M522.257,395.96h53.636a3.352,3.352,0,0,0,3.352-3.351V377.675H518.906v14.934a3.351,3.351,0,0,0,3.351,3.351" transform="translate(-72.674 -52.894)" fill="#1e3e8b"/>
          <g id="Group_536" data-name="Group 536" transform="translate(446.232 288.096)" opacity="0.1" style="isolation: isolate">
            <g id="Group_535" data-name="Group 535">
              <g id="Group_534" data-name="Group 534" clip-path="url(#clip-path-16)">
                <path id="Path_1906" data-name="Path 1906" d="M541.153,335.016H518.906v45.711h22.247a3.361,3.361,0,0,0,3.351-3.351V338.367a3.362,3.362,0,0,0-3.351-3.351" transform="translate(-518.906 -335.016)"/>
              </g>
            </g>
          </g>
          <g id="Group_539" data-name="Group 539" transform="translate(446.232 289.925)" opacity="0.2" style="isolation: isolate">
            <g id="Group_538" data-name="Group 538">
              <g id="Group_537" data-name="Group 537" clip-path="url(#clip-path-17)">
                <path id="Path_1907" data-name="Path 1907" d="M539.325,337.142H518.906v45.711h20.419a3.362,3.362,0,0,0,3.35-3.351V340.493a3.361,3.361,0,0,0-3.35-3.351" transform="translate(-518.906 -337.142)"/>
              </g>
            </g>
          </g>
          <g id="Group_542" data-name="Group 542" transform="translate(446.232 289.925)" opacity="0.2" style="isolation: isolate">
            <g id="Group_541" data-name="Group 541">
              <g id="Group_540" data-name="Group 540" clip-path="url(#clip-path-18)">
                <path id="Path_1908" data-name="Path 1908" d="M539.325,337.142H518.906V379.2h20.419a3.361,3.361,0,0,0,3.35-3.351V340.493a3.361,3.361,0,0,0-3.35-3.351" transform="translate(-518.906 -337.142)"/>
              </g>
            </g>
          </g>
          <g id="Group_545" data-name="Group 545" transform="translate(446.232 289.925)" opacity="0.2" style="isolation: isolate">
            <g id="Group_544" data-name="Group 544">
              <g id="Group_543" data-name="Group 543" clip-path="url(#clip-path-31)">
                <path id="Path_1909" data-name="Path 1909" d="M537.5,337.142H518.906V379.2H537.5a3.362,3.362,0,0,0,3.351-3.351V340.493a3.362,3.362,0,0,0-3.351-3.351" transform="translate(-518.906 -337.142)"/>
              </g>
            </g>
          </g>
        </g>
      </g>
      <g id="Group_549" data-name="Group 549" transform="translate(427.948 289.925)">
        <g id="Group_548" data-name="Group 548" clip-path="url(#clip-path-32)">
          <rect id="Rectangle_351" data-name="Rectangle 351" width="54.949" height="54.949" transform="translate(-17.418 10.057) rotate(-30.001)" fill="url(#linear-gradient-5)"/>
        </g>
      </g>
      <g id="Group_551" data-name="Group 551">
        <g id="Group_550" data-name="Group 550" clip-path="url(#clip-path-3)">
          <path id="Path_1910" data-name="Path 1910" d="M508.019,371.328l-6.124-25.795h6.238l1.952,10.639c.574,3.062,1.109,6.392,1.532,8.994h.076c.421-2.794,1.034-5.894,1.684-9.071l2.183-10.563h6.2l2.066,10.87c.574,3.023.995,5.778,1.378,8.648h.077c.384-2.871.957-5.893,1.493-8.956l2.105-10.563h5.932l-6.659,25.795h-6.315l-2.182-11.1c-.5-2.6-.918-5.013-1.225-7.961h-.077c-.459,2.908-.881,5.357-1.493,7.961l-2.449,11.1Z" transform="translate(-70.291 -48.393)" fill="#f0f3f5"/>
        </g>
      </g>
    </g>
  </g>
</svg>
