<?xml version="1.0" encoding="utf-8"?>
<!-- Generator: Adobe Illustrator 25.0.0, SVG Export Plug-In . SVG Version: 6.00 Build 0)  -->
<svg version="1.1" id="Layer_1" xmlns="http://www.w3.org/2000/svg" xmlns:xlink="http://www.w3.org/1999/xlink" x="0px" y="0px"
	 viewBox="0 0 200.6 196.7" style="enable-background:new 0 0 200.6 196.7;" xml:space="preserve">
<style type="text/css">
	.st0{fill:none;}
	.st1{fill:#1D1D1B;}
	.st2{fill:#FFFFFF;stroke:#1D1D1B;stroke-width:0.3134;stroke-miterlimit:10;}
	.st3{fill:#ACACAC;}
	.st4{fill:none;stroke:#1D1D1B;stroke-width:0.3134;stroke-miterlimit:10;}
	.st5{fill:#1D1D1B;stroke:#1D1D1B;stroke-width:0.25;stroke-miterlimit:10;}
	.st6{fill:#FFFFFF;}
	.st7{fill:url(#SVGID_1_);}
	.st8{fill:#F7CCD7;}
</style>
<pattern  x="-146" y="-107.6" width="4" height="3.5" patternUnits="userSpaceOnUse" id="Motivo_nuevo_2" viewBox="0 -3.5 4 3.5" style="overflow:visible;">
	<g>
		<rect y="-3.5" class="st0" width="4" height="3.5"/>
		<path class="st1" d="M3.9-2.1C3.7-2.9,3-3.4,2.3-3.4c0,0,0,0-0.1,0c-0.5-0.1-1-0.1-1.4,0.2C0.3-2.9,0-2.4,0-1.8
			c0,0.6,0.3,1.2,0.8,1.5C1.2,0,1.7,0,2.2,0c0.3,0,0.6-0.1,0.8-0.2C3.7-0.6,4.1-1.4,3.9-2.1z"/>
	</g>
</pattern>
<g>
	<g>
		<g>
			<path class="st2" d="M150,133c-7.5-1.6-23.6-5.4-27.2-14.5c-3.6-9.1-3.6-27.2-3.6-27.2H82.9c0,0,0,18.1-3.6,27.2
				c-3.6,9.1-19.7,12.9-27.2,14.5c-14.4,3-11.3,11.2-4.5,18.6c8.4,9.1,20.3,14.1,32.7,14.1h41.5c12.4,0,24.3-4.9,32.7-14.1
				C161.3,144.2,164.5,136,150,133z"/>
			<path class="st3" d="M121.1,112.4c-2.3-9.5-1.9-21.1-1.9-21.1H82.9c0,0,0,18.1-3.6,27.2c-1.1,2.8-3.4,5.1-6.3,7
				c0.1,0,0.1,0,0.2,0.1C96.6,128.1,106.9,124.4,121.1,112.4z"/>
			<path class="st4" d="M150,133c-7.5-1.6-23.6-5.4-27.2-14.5c-3.6-9.1-3.6-27.2-3.6-27.2H82.9c0,0,0,18.1-3.6,27.2
				c-3.6,9.1-19.7,12.9-27.2,14.5c-14.4,3-11.3,11.2-4.5,18.6c8.4,9.1,20.3,14.1,32.7,14.1h41.5c12.4,0,24.3-4.9,32.7-14.1
				C161.3,144.2,164.5,136,150,133z"/>
		</g>
		<path class="st5" d="M194.1,179.9c-3.1-18.7-14.9-35-32.1-43c-3.6-1.7-7.6-3-11.9-3.9c-4.2-0.9-11-2.5-16.9-5.3
			c-27.3,15.5-52.3,7.1-65,0.4c-5.6,2.5-12,4-16,4.9c-9.7,2-17.6,6.4-23.8,11.3c-10.6,8.3-17.7,20.2-20.4,33.4l-4.1,18.8h193
			L194.1,179.9z"/>
		<path class="st6" d="M194.1,179.9c-3.1-18.7-14.9-35-32.1-43c-3.6-1.7-7.6-3-11.9-3.9c-4.2-0.9-11-2.5-16.9-5.3
			c-27.3,15.5-52.3,7.1-65,0.4c-5.6,2.5-12,4-16,4.9c-9.7,2-17.6,6.4-23.8,11.3c-10.6,8.3-17.7,20.2-20.4,33.4l-4.1,18.8h193
			L194.1,179.9z"/>
		<pattern  id="SVGID_1_" xlink:href="#Motivo_nuevo_2" patternTransform="matrix(1 0 0 1 22.7791 4.2502)">
		</pattern>
		<path class="st7" d="M194.1,179.9c-3.1-18.7-14.9-35-32.1-43c-3.6-1.7-7.6-3-11.9-3.9c-4.2-0.9-11-2.5-16.9-5.3
			c-27.3,15.5-52.3,7.1-65,0.4c-5.6,2.5-12,4-16,4.9c-9.7,2-17.6,6.4-23.8,11.3c-10.6,8.3-17.7,20.2-20.4,33.4l-4.1,18.8h193
			L194.1,179.9z"/>
		<path class="st4" d="M194.1,179.9c-3.1-18.7-14.9-35-32.1-43c-3.6-1.7-7.6-3-11.9-3.9c-4.2-0.9-11-2.5-16.9-5.3
			c-27.3,15.5-52.3,7.1-65,0.4c-5.6,2.5-12,4-16,4.9c-9.7,2-17.6,6.4-23.8,11.3c-10.6,8.3-17.7,20.2-20.4,33.4l-4.1,18.8h193
			L194.1,179.9z"/>
		<g>
			<line class="st4" x1="51.2" y1="174.7" x2="51.2" y2="196.7"/>
		</g>
	</g>
	<g>
		<path class="st2" d="M135.3,64.5c0-2.1-1.4-4.2-4.2-4.8c-1.2-20.3-9.7-36.1-30.2-36.1c-20.4,0-28.9,15.6-30.2,35.9
			c-3.8,0.2-5.6,2.6-5.6,5c0,2.3,2.5,5.4,5.6,5.2c1.8,20.4,14.9,34.8,30.1,34.8c17.3,0,28.7-14.4,30.2-34.9
			C133.6,69,135.3,66.5,135.3,64.5z"/>
		<g>
			<path d="M130.7,66.4c0.1-0.5,0.2-1.1,0.4-1.6c0.2-0.5,0.4-1,0.9-1.4c0.3-0.2,0.8-0.2,1,0c0.1,0.1,0.2,0.2,0.3,0.3
				c0.1,0.2,0.1,0.3,0.1,0.5c0,0.6-0.1,1.1-0.3,1.6c0-0.5,0-1.1-0.1-1.6c0-0.1-0.1-0.2-0.1-0.3c-0.1-0.1-0.2-0.2-0.2-0.2
				c-0.2-0.1-0.3-0.1-0.5,0c-0.3,0.2-0.6,0.7-0.9,1.2C131.2,65.5,131,65.9,130.7,66.4z"/>
		</g>
		<g>
			<path d="M69.8,66.4c-0.2-0.5-0.5-1-0.7-1.4c-0.3-0.4-0.5-0.9-0.9-1.2c-0.2-0.1-0.3-0.1-0.5,0c-0.1,0-0.2,0.1-0.2,0.2
				c0,0-0.1,0.2-0.1,0.3c-0.1,0.5-0.1,1-0.1,1.6c-0.2-0.5-0.3-1-0.3-1.6c0-0.1,0-0.3,0.1-0.5c0.1-0.1,0.2-0.2,0.3-0.3
				c0.3-0.2,0.8-0.2,1,0c0.5,0.4,0.7,0.9,0.9,1.4C69.6,65.4,69.7,65.9,69.8,66.4z"/>
		</g>
		<g>
			<g>
				<path class="st1" d="M91.7,75.2c1.1,1.7,2.4,3.2,4,4.3c1.6,1.1,3.5,1.8,5.4,1.7c1.9,0,3.8-0.7,5.5-1.6c1.7-0.9,3.3-2.1,4.8-3.4
					c-1.3,1.4-2.9,2.8-4.6,3.8c-1.7,1-3.7,1.7-5.7,1.8c-2,0-4.1-0.7-5.7-1.9C93.8,78.6,92.5,77,91.7,75.2z"/>
			</g>
			<g>
				<path class="st1" d="M101.1,65.8c0.6-0.1,1.2-0.2,1.8-0.2c0.6-0.1,1.2-0.1,1.8-0.1l-0.3,0.4c-0.6-2.2-1-4.4-1.3-6.6
					c-0.3-2.2-0.5-4.5-0.6-6.7c0.3,2.2,0.6,4.4,1,6.6c0.4,2.2,0.8,4.4,1.4,6.5l0.1,0.3l-0.4,0c-0.6,0-1.2,0.1-1.8,0.1
					c-0.6,0-1.2,0-1.8-0.1L101.1,65.8z"/>
			</g>
		</g>
		<path class="st1" d="M86.8,59.9c0,1.4-0.6,2.5-1.4,2.5S84,61.2,84,59.9c0-1.4,0.6-2.5,1.4-2.5S86.8,58.5,86.8,59.9z"/>
		<path class="st1" d="M117.3,59.9c0,1.4-0.6,2.5-1.4,2.5c-0.8,0-1.4-1.1-1.4-2.5c0-1.4,0.6-2.5,1.4-2.5
			C116.7,57.4,117.3,58.5,117.3,59.9z"/>
		<ellipse class="st8" cx="82.4" cy="72.2" rx="5.9" ry="4.4"/>
		<ellipse class="st8" cx="117.3" cy="72.2" rx="5.9" ry="4.4"/>
		<path class="st1" d="M118.8,29.4c0,0-7.3,7.6-19.3,7.6c-12,0-19.8,6.3-12.7,14.1c0,0-5.6,1.9-7.4-5.9l1.8,7.8c0,0-5.5-0.3-7-6.1
			c0,0-0.5,15.4-3.4,12.6c-5-5-10.5-23.2-2.6-32.3c1.8-2,3.2-4.3,4-6.9c1.2-3.9,4.1-9.3,11.1-11.6c3.6-1.2,7.5-1.1,11.1-0.1
			c2.8,0.7,6.7,1.2,8.8-1.1c3.6-3.9,19.2-9.8,25.2,9c0,0,0.6,4.7,4.1,8.6c3.1,3.4,7.7,8.1,3.7,21.5c-0.8,2.7-1.7,5.4-2.2,8.2
			c-0.3,1.3-1,3.1-2.8,4.9c-0.4,0.4,0.6-5-4.1-10.1C122.4,44.5,117.3,44.2,118.8,29.4z"/>
	</g>
</g>
</svg>
