<?xml version="1.0" encoding="utf-8"?>
<!-- Generator: Adobe Illustrator 25.0.0, SVG Export Plug-In . SVG Version: 6.00 Build 0)  -->
<svg version="1.1" id="Layer_1" xmlns="http://www.w3.org/2000/svg" xmlns:xlink="http://www.w3.org/1999/xlink" x="0px" y="0px"
	 viewBox="0 0 200.6 196.7" style="enable-background:new 0 0 200.6 196.7;" xml:space="preserve">
<style type="text/css">
	.st0{fill:none;}
	.st1{fill:#1D1D1B;}
	.st2{fill:#191918;}
	.st3{fill:#FFFFFF;stroke:#1D1D1B;stroke-width:0.3134;stroke-miterlimit:10;}
	.st4{fill:#ACACAC;}
	.st5{fill:#FFFFFF;}
	.st6{fill:url(#SVGID_7_);}
	.st7{fill:url(#SVGID_8_);}
	.st8{fill:url(#SVGID_9_);}
	.st9{fill:#DBDBDB;}
	.st10{fill:url(#SVGID_10_);}
	.st11{fill:#E4D5CD;}
	.st12{fill:#020202;}
	.st13{fill:url(#SVGID_11_);}
	.st14{fill:url(#SVGID_12_);}
	.st15{fill:#F7CCD7;}
</style>
<pattern  y="196.7" width="4" height="3.5" patternUnits="userSpaceOnUse" id="SVGID_1_" viewBox="0 -3.5 4 3.5" style="overflow:visible;">
	<g>
		<rect y="-3.5" class="st0" width="4" height="3.5"/>
		<g>
			<rect y="-3.5" class="st0" width="4" height="3.5"/>
			<path class="st1" d="M3.9-1.4C3.7-0.6,3-0.1,2.3-0.1c0,0,0,0-0.1,0C1.7,0,1.2,0,0.8-0.3C0.3-0.6,0-1.1,0-1.7s0.3-1.2,0.8-1.5
				c0.4-0.3,0.9-0.3,1.4-0.3c0.3,0,0.6,0.1,0.8,0.2C3.7-2.9,4.1-2.1,3.9-1.4z"/>
		</g>
	</g>
</pattern>
<g>
	<g>
		<g>
			<path class="st1" d="M47.1,169.3c-0.4,2.7-1.2,5.4-2.3,7.9c7.8-3.8,14.5-10.3,19.1-17.8c7-11.2,10-24.4,12.4-37.4
				c4.8-26.1,7.4-52.7,7.6-79.3C70.3,49.4,58.6,60,50.7,72.9C40.6,89.5,36.9,110,40.6,129.1c2,10.2,5.9,20,6.8,30.3
				C47.7,162.6,47.6,166,47.1,169.3z"/>
		</g>
		<g>
			<path class="st2" d="M83.1,65c0.1-2.3,0.3-4.7,0.4-7c-14.4,14.3-28.2,30.7-30.2,51.7C65.7,78.5,81.6,66.3,83.1,65z"/>
		</g>
		<g>
			<path class="st2" d="M47.4,159.4c0.3,3.2,0.2,6.6-0.3,9.9c0,0.1,0,0.1,0,0.2c1.8-6.1,2.2-12.6,0.6-19.2
				c-6.3-25.4-10.6-53.5,6.3-75.8c7.6-9.8,19-16.6,23.3-28.1c-10.8,6.6-20,15.7-26.6,26.5C40.6,89.5,36.9,110,40.6,129.1
				C42.6,139.3,46.5,149.1,47.4,159.4z"/>
		</g>
		<g>
			<path class="st2" d="M68.4,64.8c-0.9,1.2-1.8,2.4-2.8,3.6L63,72.2L60.6,76l-2.2,4c-2.8,5.4-5.1,11-6.9,16.8
				c-1.8,5.8-2.9,11.7-3.6,17.8l-0.4,4.5l-0.1,4.5l0.1,4.5c0.1,1.5,0.2,3,0.3,4.5c-0.2-1.5-0.4-3-0.5-4.5l-0.3-4.6l0-4.6l0.3-4.6
				c0.5-6.1,1.7-12.1,3.4-17.9c1.8-5.8,4.1-11.5,7.1-16.8l2.3-3.9l2.5-3.8l2.7-3.7C66.4,67.2,67.4,66,68.4,64.8z"/>
		</g>
	</g>
	<g>
		<g>
			<path class="st3" d="M96.6,153.7c-20.9,0-32.8-35.4-33.5-35.8c-0.7-0.4,3.1-4.6,9-4.9c5.1-0.3,9.3-4.3,11.7-8.7
				c2.4-4.5,3.9-16.3,3.2-23.6c0,0,7.1-4.7,13-4.7c5.9,0,13,4.7,13,4.7c-0.6,7.3,0.8,19.1,3.2,23.6c2.4,4.5,6.7,8.5,11.7,8.7
				c5.9,0.3,9.7,4.5,9,4.9s-12.5,35.8-33.5,35.8H96.6z"/>
		</g>
		<g>
			<path class="st4" d="M87.4,103.9c7.6-1.1,20.5-2.2,26.2-11.1c-0.5-4.2-0.7-8.7-0.4-12.1c0,0-7.1-4.7-13-4.7c-5.9,0-13,4.7-13,4.7
				c0.6,7.3-0.8,19.1-3.2,23.6c-2.4,4.5-6.7,8.5-11.7,8.7c-5.9,0.3-9.7,4.5-9,4.9c0.5,0.3,6.6,18.3,17.6,28.6
				C79,130.8,81.4,118,87.4,103.9z"/>
		</g>
	</g>
	<g>
		<path class="st5" d="M144.6,196.7h25.1c-2.7-20.4-6.4-48.2-6.5-49.4c-0.8-11.5-9-22.1-15.3-21.9s-11.4,5-12.4,12.3
			c-0.7,5.4,2.3,26.6,4.5,37C140.9,178.9,142.6,187.6,144.6,196.7z"/>
	</g>
	<g>
		<pattern  id="SVGID_7_" xlink:href="#SVGID_1_" patternTransform="matrix(1 0 0 -1 -120.2209 -15406.5498)">
		</pattern>
		<path class="st6" d="M139,196.7h38.5c-2.3-8.8-14.7-55.2-16.2-59.7c-1.7-5-7.5-14.8-10.5-14.5c-3,0.3-20.9,11.6-17.9,30.1
			C132.9,152.5,136.8,183.1,139,196.7z"/>
	</g>
	<g>
		<path class="st5" d="M55.2,196.7c2.4-9.8,4.4-19.9,5.4-24.5c2.2-9.9,5.3-30,4.5-35.2c-1-6.9-6.1-11.5-12.4-11.7
			c-6.4-0.2-14.5,9.9-15.3,20.8c-0.1,1.2-4.2,30.9-7,50.5H55.2z"/>
	</g>
	<g>
		<pattern  id="SVGID_8_" xlink:href="#SVGID_1_" patternTransform="matrix(1 0 0 -1 -120.2209 -15406.5498)">
		</pattern>
		<path class="st7" d="M61.6,196.7c2.2-13.6,6.1-44.2,6.1-44.2c3-18.5-14.8-29.8-17.9-30.1c-3-0.3-8.9,9.5-10.5,14.5
			c-1.5,4.5-13.9,51-16.2,59.7H61.6z"/>
	</g>
	<g>
		<g>
			<pattern  id="SVGID_9_" xlink:href="#SVGID_1_" patternTransform="matrix(1 0 0 -1 -120.2209 -15406.5498)">
			</pattern>
			<path class="st8" d="M55.5,187.4c0.2,2.4,0.7,5.7,1.3,9.3h43.4v-53.4c0,0-8.2-4.5-14.5-10.8c-5.7-5.6-6.4-23.2-6.4-23.2
				c-11.6,3.5-19.6,9.1-30.7,13.8c-0.7,11.3,0.1,22.5-0.5,33.8c-0.4,5.9-2.3,12-1.1,17.8C47.9,179.4,52.5,183.9,55.5,187.4z"/>
		</g>
		<g>
			<g>
				<path class="st9" d="M55.5,187.4c0.2,2.4,0.7,5.7,1.3,9.3h2.8c0.1-1,0.2-2,0.4-3.1c11.5-3.3-3.9,0.3-10.8-18.3
					c-3.5-9.7,3-21-0.9-30.8c0,4.2,0,8.4-0.3,12.6c-0.4,5.9-2.3,12-1.1,17.8C47.9,179.4,52.5,183.9,55.5,187.4z"/>
			</g>
		</g>
	</g>
	<g>
		<g>
			<pattern  id="SVGID_10_" xlink:href="#SVGID_1_" patternTransform="matrix(1 0 0 -1 -120.2209 -15406.5498)">
			</pattern>
			<path class="st10" d="M143.8,196.7c0.5-3.6,1-6.9,1.1-9.3c3-3.5,7.7-8,8.6-12.6c1.2-5.9-0.7-11.9-1.1-17.8
				c-0.7-11.3,0.2-22.5-0.5-33.8c-11.2-4.7-19.1-10.3-30.7-13.8c0,0-0.7,17.6-6.4,23.2c-6.3,6.2-14.5,10.8-14.5,10.8v53.4H143.8z"/>
		</g>
		<g>
			<g>
				<path class="st9" d="M142.9,194.3c-0.3,0.8-0.6,1.6-0.8,2.4h1.7c0.5-3.6,1-6.9,1.1-9.3c3-3.5,7.7-8,8.6-12.6
					c1.2-5.9-0.7-11.9-1.1-17.8c-0.3-5.7-0.3-11.5-0.3-17.2c-0.4,0.9-0.7,1.8-0.7,2.7c-1.2,22.8,3.4,38.2-12.3,46.3
					C136.7,190.1,143.9,191,142.9,194.3z"/>
			</g>
		</g>
	</g>
	<g>
		<g>
			<g>
				<path class="st11" d="M100.2,148.1c-0.9,0-1.6-0.7-1.6-1.6c0-0.9,0.7-1.6,1.6-1.6c0.9,0,1.6,0.7,1.6,1.6
					C101.8,147.4,101.1,148.1,100.2,148.1z"/>
			</g>
			<g>
				<circle class="st12" cx="100.2" cy="146.5" r="1.1"/>
			</g>
		</g>
		<g>
			<g>
				<path class="st11" d="M100.2,169.8c-0.9,0-1.6-0.7-1.6-1.6c0-0.9,0.7-1.6,1.6-1.6c0.9,0,1.6,0.7,1.6,1.6
					C101.8,169.1,101.1,169.8,100.2,169.8z"/>
			</g>
			<g>
				<circle class="st12" cx="100.2" cy="168.2" r="1.1"/>
			</g>
		</g>
		<g>
			<g>
				<path class="st11" d="M100.2,191.6c-0.9,0-1.6-0.7-1.6-1.6c0-0.9,0.7-1.6,1.6-1.6c0.9,0,1.6,0.7,1.6,1.6
					C101.8,190.8,101.1,191.6,100.2,191.6z"/>
			</g>
			<g>
				<circle class="st12" cx="100.2" cy="189.9" r="1.1"/>
			</g>
		</g>
		<pattern  id="SVGID_11_" xlink:href="#SVGID_1_" patternTransform="matrix(1 0 0 -1 -120.2209 -15406.5498)">
		</pattern>
		<rect x="103.5" y="143.2" class="st13" width="0.8" height="53.5"/>
		<pattern  id="SVGID_12_" xlink:href="#SVGID_1_" patternTransform="matrix(1 0 0 -1 -120.2209 -15406.5498)">
		</pattern>
		<rect x="96.2" y="143.2" class="st14" width="0.8" height="53.5"/>
	</g>
	<g>
		<g>
			<path class="st1" d="M79.8,130.1c4.7,2.3,14.1,9.2,13.8,9c-5.1-5.2-8.3-18.1-9.6-25c-1.1-6-0.9-3,1.1-8.6l0.3-5.3
				c-2,1-3.4,1.3-5.3,2.3c-8.4,12.8-7.2,27.4-8.3,42.3C74.4,142.2,78.2,131.4,79.8,130.1z"/>
		</g>
		<g>
			<g>
				<path class="st1" d="M120.7,130.1c-4.4,2.3-14.1,9.2-13.8,9c5.1-5.2,8.3-18.1,9.6-25c1.1-6,0.9-3-1.1-8.6l-0.3-5.3
					c2,1,3.4,1.3,5.3,2.3c8.4,12.8,7.2,27.4,8.3,42.3C126,142.2,122.3,131.4,120.7,130.1z"/>
			</g>
		</g>
	</g>
	<g>
		<g>
			<g>
				<path class="st3" d="M127,63.8c-0.4,2.4-0.8,4.6-0.9,6.2c-0.1,1.7,0.3,2.9,1.3,3.3c1.1,0.4,2.5-0.3,3.9-2.1
					c0.7-0.9,1.3-2,1.8-3.3c0.5-1.3,0.9-2.8,1.1-4.3c0.4-3.1,0.1-5.8-0.7-7.6c-0.7-1.8-1.8-2.5-2.9-2.2c-1.1,0.4-1.8,1.7-2.3,3.4
					C127.8,59.2,127.4,61.4,127,63.8z"/>
			</g>
		</g>
		<g>
			<path class="st3" d="M100.7,18.5C86.1,18.2,69.3,23,69.2,44.3c0,0,4.3,25.4,5,30.1C75,79.2,90,98.2,99.8,98.2c0.3,0,1.6,0,1.9,0
				c9.9,0,24.8-19,25.5-23.7c0.8-4.7,5-30.1,5-30.1C132.1,23,115.4,18.2,100.7,18.5z"/>
		</g>
		<g>
			<g>
				<path class="st3" d="M74.6,63.8c0.4,2.4,0.8,4.6,0.9,6.2c0.1,1.7-0.3,2.9-1.3,3.3c-1.1,0.4-2.5-0.3-3.9-2.1
					c-0.7-0.9-1.3-2-1.8-3.3c-0.5-1.3-0.9-2.8-1.1-4.3c-0.4-3.1-0.1-5.8,0.7-7.6c0.7-1.8,1.8-2.5,2.9-2.2c1.1,0.4,1.8,1.7,2.3,3.4
					C73.8,59.2,74.2,61.4,74.6,63.8z"/>
			</g>
		</g>
	</g>
	<g>
		<g>
			<g>
				<path class="st1" d="M134.4,23c-0.7-1.3-1.7-2.6-2.8-3.8c-3.5-3.6-9.3-5.6-14.3-4.7c-3.1-6.6-11.3-11-19.5-11.1
					C88.9,3.4,80.5,7.7,75,13.9c-5.5,6.2-8.2,14-9.2,21.8c-0.7,5.3-0.6,10.6-0.3,16c-0.6,1.7-1.3,3.8-1.7,6.4
					c-2,11,7.7,33.1,7.7,33.1c-0.4-15.4-2-31.9,3.4-38.6c6.4-1.8,12.6-4,18.4-7.1c8.1-4.3,16.1-9.5,19.8-17.1
					c2.9,4.3,10.8,9.7,14.7,12.9c4.3,9.9,3.7,29.1-2.3,46.5c0,0,11.6-16.6,12.4-27.7C138.5,50.6,136.6,26.9,134.4,23z"/>
			</g>
		</g>
		<g>
			<g>
				<path class="st2" d="M117.3,14.5c-3.1-6.6-11.3-11-19.5-11.1C88.9,3.4,80.5,7.7,75,13.9c-5.5,6.2-8.2,14-9.2,21.8
					c-0.7,5.2-0.6,10.4-0.3,15.6c6.1-10.2,2.5-22.8,10-32.6c6.5-8,17.4-10.6,27.8-9.4c6.6,0.7,14.5,4.5,15,11.1
					c1-1.7,2.6-3.4,4.8-3.6c1.5-0.2,3.2-0.5,4.8-0.6C124.7,14.6,120.8,13.9,117.3,14.5z"/>
			</g>
		</g>
	</g>
	<ellipse class="st15" cx="85.7" cy="73.1" rx="4.8" ry="3.6"/>
	<ellipse class="st15" cx="117" cy="72.5" rx="4.8" ry="3.6"/>
	<g>
		<g>
			<path class="st1" d="M91.5,76.2c1.1,1.7,2.4,3.2,4,4.3c1.6,1.1,3.5,1.8,5.4,1.7c1.9,0,3.8-0.7,5.5-1.6s3.3-2.1,4.8-3.4
				c-1.3,1.4-2.9,2.8-4.6,3.8s-3.7,1.7-5.7,1.8c-2,0-4.1-0.7-5.7-1.9C93.6,79.6,92.3,78,91.5,76.2z"/>
		</g>
		<g>
			<path class="st1" d="M100.9,66.8c0.6-0.1,1.2-0.2,1.8-0.2c0.6-0.1,1.2-0.1,1.8-0.1l-0.3,0.4c-0.6-2.2-1-4.4-1.3-6.6
				c-0.3-2.2-0.5-4.5-0.6-6.7c0.3,2.2,0.6,4.4,1,6.6c0.4,2.2,0.8,4.4,1.4,6.5l0.1,0.3h-0.4c-0.6,0-1.2,0.1-1.8,0.1
				c-0.6,0-1.2,0-1.8-0.1L100.9,66.8z"/>
		</g>
	</g>
	<path class="st1" d="M114.1,60.6c0-1.7,0.7-3.1,1.7-3.1s1.7,1.3,1.7,3.1s-0.7,3.1-1.7,3.1C114.8,63.7,114.1,62.3,114.1,60.6z"/>
	<path class="st1" d="M86.3,60.6c0-1.7,0.7-3.1,1.7-3.1s1.7,1.3,1.7,3.1S89,63.7,88,63.7C87.1,63.7,86.3,62.3,86.3,60.6z"/>
</g>
</svg>
