<svg id="Calendar_Icon" data-name="Calendar Icon" xmlns="http://www.w3.org/2000/svg" xmlns:xlink="http://www.w3.org/1999/xlink" width="51.583" height="54.919" viewBox="0 0 51.583 54.919">
  <defs>
    <clipPath id="clip-path">
      <rect id="Rectangle_165" data-name="Rectangle 165" width="51.583" height="54.919" fill="none"/>
    </clipPath>
    <clipPath id="clip-path-3">
      <rect id="Rectangle_151" data-name="Rectangle 151" width="1.412" height="8.492" fill="none"/>
    </clipPath>
    <clipPath id="clip-path-8">
      <rect id="Rectangle_161" data-name="Rectangle 161" width="51.583" height="0.864" fill="none"/>
    </clipPath>
  </defs>
  <g id="Group_241" data-name="Group 241" clip-path="url(#clip-path)">
    <g id="Group_240" data-name="Group 240" transform="translate(0 0)">
      <g id="Group_239" data-name="Group 239" clip-path="url(#clip-path)">
        <path id="Path_995" data-name="Path 995" d="M51.583,11.6V50.23a5.491,5.491,0,0,1-5.492,5.492H5.491A5.492,5.492,0,0,1,0,50.23V11.6A5.491,5.491,0,0,1,5.491,6.114h40.6A5.491,5.491,0,0,1,51.583,11.6" transform="translate(0 -0.802)" fill="#d0d2d3"/>
        <path id="Path_996" data-name="Path 996" d="M51.583,10.468V49.093a5.491,5.491,0,0,1-5.492,5.491H5.491A5.491,5.491,0,0,1,0,49.093V10.468A5.492,5.492,0,0,1,5.491,4.976h40.6a5.491,5.491,0,0,1,5.492,5.492" transform="translate(0 -0.653)" fill="#fcfcfc"/>
        <path id="Path_997" data-name="Path 997" d="M51.583,10.468v8.9H0v-8.9A5.492,5.492,0,0,1,5.491,4.976h40.6a5.491,5.491,0,0,1,5.492,5.492" transform="translate(0 -0.653)" fill="#ed1818"/>
        <path id="Path_998" data-name="Path 998" d="M10.09,8.373A1.554,1.554,0,1,0,8.535,9.927,1.554,1.554,0,0,0,10.09,8.373" transform="translate(-0.916 -0.894)" fill="#414042"/>
        <path id="Rectangle_150" data-name="Rectangle 150" d="M1.3,0h.224a1.3,1.3,0,0,1,1.3,1.3V7.19a1.3,1.3,0,0,1-1.3,1.3H1.3A1.3,1.3,0,0,1,0,7.19V1.3A1.3,1.3,0,0,1,1.3,0Z" transform="translate(6.207 0.001)" fill="#2d2d2d"/>
        <g id="Group_220" data-name="Group 220" transform="translate(7.62 0)" style="mix-blend-mode: multiply;isolation: isolate">
          <g id="Group_219" data-name="Group 219" transform="translate(0 0)">
            <g id="Group_218" data-name="Group 218" clip-path="url(#clip-path-3)">
              <path id="Path_999" data-name="Path 999" d="M10.183,1.131V7.362A1.13,1.13,0,0,1,9.053,8.493H8.771V0h.282a1.13,1.13,0,0,1,1.129,1.13" transform="translate(-8.771 0)" fill="#f0f1f1"/>
            </g>
          </g>
        </g>
        <path id="Path_1000" data-name="Path 1000" d="M20.549,8.373a1.554,1.554,0,1,0-1.554,1.554,1.554,1.554,0,0,0,1.554-1.554" transform="translate(-2.289 -0.894)" fill="#414042"/>
        <path id="Rectangle_152" data-name="Rectangle 152" d="M1.3,0h.224a1.3,1.3,0,0,1,1.3,1.3V7.19a1.3,1.3,0,0,1-1.3,1.3H1.3A1.3,1.3,0,0,1,0,7.191V1.3A1.3,1.3,0,0,1,1.3,0Z" transform="translate(15.294 0.001)" fill="#2d2d2d"/>
        <g id="Group_223" data-name="Group 223" transform="translate(16.706 0)" style="mix-blend-mode: multiply;isolation: isolate">
          <g id="Group_222" data-name="Group 222" transform="translate(0 0)">
            <g id="Group_221" data-name="Group 221" clip-path="url(#clip-path-3)">
              <path id="Path_1001" data-name="Path 1001" d="M20.642,1.131V7.362a1.131,1.131,0,0,1-1.129,1.131H19.23V0h.282a1.13,1.13,0,0,1,1.129,1.13" transform="translate(-19.23 0)" fill="#f0f1f1"/>
            </g>
          </g>
        </g>
        <path id="Path_1002" data-name="Path 1002" d="M31.006,8.373a1.554,1.554,0,1,0-1.554,1.554,1.554,1.554,0,0,0,1.554-1.554" transform="translate(-3.661 -0.894)" fill="#414042"/>
        <path id="Rectangle_154" data-name="Rectangle 154" d="M1.3,0h.224a1.3,1.3,0,0,1,1.3,1.3V7.19a1.3,1.3,0,0,1-1.3,1.3H1.3A1.3,1.3,0,0,1,0,7.19V1.3A1.3,1.3,0,0,1,1.3,0Z" transform="translate(24.38 0.001)" fill="#2d2d2d"/>
        <g id="Group_226" data-name="Group 226" transform="translate(25.792 0)" style="mix-blend-mode: multiply;isolation: isolate">
          <g id="Group_225" data-name="Group 225" transform="translate(0 0)">
            <g id="Group_224" data-name="Group 224" clip-path="url(#clip-path-3)">
              <path id="Path_1003" data-name="Path 1003" d="M31.1,1.131V7.362A1.131,1.131,0,0,1,29.97,8.493h-.282V0h.282A1.13,1.13,0,0,1,31.1,1.131" transform="translate(-29.688 0)" fill="#f0f1f1"/>
            </g>
          </g>
        </g>
        <path id="Path_1004" data-name="Path 1004" d="M41.465,8.373a1.554,1.554,0,1,0-1.554,1.554,1.554,1.554,0,0,0,1.554-1.554" transform="translate(-5.034 -0.894)" fill="#414042"/>
        <path id="Rectangle_156" data-name="Rectangle 156" d="M1.3,0h.224a1.3,1.3,0,0,1,1.3,1.3V7.19a1.3,1.3,0,0,1-1.3,1.3H1.3A1.3,1.3,0,0,1,0,7.19V1.3A1.3,1.3,0,0,1,1.3,0Z" transform="translate(33.466 0.001)" fill="#2d2d2d"/>
        <g id="Group_229" data-name="Group 229" transform="translate(34.878 0)" style="mix-blend-mode: multiply;isolation: isolate">
          <g id="Group_228" data-name="Group 228" transform="translate(0 0)">
            <g id="Group_227" data-name="Group 227" clip-path="url(#clip-path-3)">
              <path id="Path_1005" data-name="Path 1005" d="M41.559,1.131V7.362a1.131,1.131,0,0,1-1.129,1.131h-.282V0h.282a1.13,1.13,0,0,1,1.129,1.13" transform="translate(-40.146 0)" fill="#f0f1f1"/>
            </g>
          </g>
        </g>
        <path id="Path_1006" data-name="Path 1006" d="M51.924,8.373a1.554,1.554,0,1,0-1.554,1.554,1.554,1.554,0,0,0,1.554-1.554" transform="translate(-6.406 -0.894)" fill="#414042"/>
        <path id="Rectangle_158" data-name="Rectangle 158" d="M1.3,0h.225a1.3,1.3,0,0,1,1.3,1.3V7.19a1.3,1.3,0,0,1-1.3,1.3H1.3A1.3,1.3,0,0,1,0,7.19V1.3A1.3,1.3,0,0,1,1.3,0Z" transform="translate(42.551 0.001)" fill="#2d2d2d"/>
        <g id="Group_232" data-name="Group 232" transform="translate(43.964 0)" style="mix-blend-mode: multiply;isolation: isolate">
          <g id="Group_231" data-name="Group 231" transform="translate(0 0)">
            <g id="Group_230" data-name="Group 230" clip-path="url(#clip-path-3)">
              <path id="Path_1007" data-name="Path 1007" d="M52.017,1.131V7.362a1.13,1.13,0,0,1-1.129,1.131h-.282V0h.282a1.13,1.13,0,0,1,1.129,1.13" transform="translate(-50.605 0)" fill="#f0f1f1"/>
            </g>
          </g>
        </g>
        <g id="Group_235" data-name="Group 235" transform="translate(0 17.854)" style="mix-blend-mode: multiply;isolation: isolate">
          <g id="Group_234" data-name="Group 234">
            <g id="Group_233" data-name="Group 233" clip-path="url(#clip-path-8)">
              <rect id="Rectangle_160" data-name="Rectangle 160" width="51.583" height="0.864" transform="translate(0 -0.001)" fill="#e5e6e7"/>
            </g>
          </g>
        </g>
        <g id="Group_238" data-name="Group 238" transform="translate(0 18.718)" style="mix-blend-mode: multiply;isolation: isolate">
          <g id="Group_237" data-name="Group 237">
            <g id="Group_236" data-name="Group 236" clip-path="url(#clip-path-8)">
              <rect id="Rectangle_162" data-name="Rectangle 162" width="51.583" height="0.864" transform="translate(0 0)" fill="#e5e6e7"/>
            </g>
          </g>
        </g>
        <path id="Path_1008" data-name="Path 1008" d="M9.5,32.475H7.259A1.462,1.462,0,0,1,5.8,31.012V28.769a1.462,1.462,0,0,1,1.462-1.461H9.5a1.462,1.462,0,0,1,1.462,1.461v2.243A1.462,1.462,0,0,1,9.5,32.475" transform="translate(-0.761 -3.583)" fill="#ededed"/>
        <path id="Path_1009" data-name="Path 1009" d="M19.96,32.475H17.717a1.462,1.462,0,0,1-1.462-1.462V28.769a1.462,1.462,0,0,1,1.462-1.461H19.96a1.462,1.462,0,0,1,1.462,1.461v2.243a1.462,1.462,0,0,1-1.462,1.462" transform="translate(-2.133 -3.583)" fill="#ededed"/>
        <path id="Path_1010" data-name="Path 1010" d="M30.419,32.475H28.175a1.461,1.461,0,0,1-1.461-1.462V28.769a1.461,1.461,0,0,1,1.461-1.461h2.244a1.461,1.461,0,0,1,1.461,1.461v2.243a1.461,1.461,0,0,1-1.461,1.462" transform="translate(-3.506 -3.583)" fill="#ededed"/>
        <path id="Path_1011" data-name="Path 1011" d="M40.877,32.475H38.634a1.462,1.462,0,0,1-1.462-1.462V28.769a1.462,1.462,0,0,1,1.462-1.461h2.243a1.462,1.462,0,0,1,1.462,1.461v2.243a1.462,1.462,0,0,1-1.462,1.462" transform="translate(-4.878 -3.583)" fill="#ededed"/>
        <path id="Path_1012" data-name="Path 1012" d="M51.335,32.475H49.092a1.462,1.462,0,0,1-1.462-1.462V28.769a1.462,1.462,0,0,1,1.462-1.461h2.243A1.462,1.462,0,0,1,52.8,28.769v2.243a1.462,1.462,0,0,1-1.462,1.462" transform="translate(-6.25 -3.583)" fill="#ededed"/>
        <path id="Path_1013" data-name="Path 1013" d="M9.5,43.048H7.259A1.462,1.462,0,0,1,5.8,41.585V39.342a1.462,1.462,0,0,1,1.462-1.461H9.5a1.462,1.462,0,0,1,1.462,1.461v2.243A1.462,1.462,0,0,1,9.5,43.048" transform="translate(-0.761 -4.971)" fill="#ededed"/>
        <path id="Path_1014" data-name="Path 1014" d="M19.96,43.048H17.717a1.462,1.462,0,0,1-1.462-1.462V39.342a1.462,1.462,0,0,1,1.462-1.461H19.96a1.462,1.462,0,0,1,1.462,1.461v2.243a1.462,1.462,0,0,1-1.462,1.462" transform="translate(-2.133 -4.971)" fill="#ededed"/>
        <path id="Path_1015" data-name="Path 1015" d="M30.419,43.048H28.175a1.461,1.461,0,0,1-1.461-1.462V39.342a1.461,1.461,0,0,1,1.461-1.461h2.244a1.461,1.461,0,0,1,1.461,1.461v2.243a1.461,1.461,0,0,1-1.461,1.462" transform="translate(-3.506 -4.971)" fill="#ededed"/>
        <path id="Path_1016" data-name="Path 1016" d="M40.877,43.048H38.634a1.462,1.462,0,0,1-1.462-1.462V39.342a1.462,1.462,0,0,1,1.462-1.461h2.243a1.462,1.462,0,0,1,1.462,1.461v2.243a1.462,1.462,0,0,1-1.462,1.462" transform="translate(-4.878 -4.971)" fill="#ededed"/>
        <path id="Path_1017" data-name="Path 1017" d="M51.335,43.048H49.092a1.462,1.462,0,0,1-1.462-1.462V39.342a1.462,1.462,0,0,1,1.462-1.461h2.243A1.462,1.462,0,0,1,52.8,39.342v2.243a1.462,1.462,0,0,1-1.462,1.462" transform="translate(-6.25 -4.971)" fill="#ededed"/>
        <path id="Path_1018" data-name="Path 1018" d="M9.5,53.622H7.259A1.462,1.462,0,0,1,5.8,52.159V49.916a1.462,1.462,0,0,1,1.462-1.461H9.5a1.462,1.462,0,0,1,1.462,1.461v2.243A1.462,1.462,0,0,1,9.5,53.622" transform="translate(-0.761 -6.358)" fill="#ededed"/>
        <path id="Path_1019" data-name="Path 1019" d="M19.96,53.622H17.717a1.462,1.462,0,0,1-1.462-1.462V49.916a1.462,1.462,0,0,1,1.462-1.461H19.96a1.462,1.462,0,0,1,1.462,1.461v2.243a1.462,1.462,0,0,1-1.462,1.462" transform="translate(-2.133 -6.358)" fill="#ed1818"/>
        <path id="Path_1020" data-name="Path 1020" d="M30.419,53.622H28.175a1.461,1.461,0,0,1-1.461-1.462V49.916a1.461,1.461,0,0,1,1.461-1.461h2.244a1.461,1.461,0,0,1,1.461,1.461v2.243a1.461,1.461,0,0,1-1.461,1.462" transform="translate(-3.506 -6.358)" fill="#ededed"/>
        <path id="Path_1021" data-name="Path 1021" d="M40.877,53.622H38.634a1.462,1.462,0,0,1-1.462-1.462V49.916a1.462,1.462,0,0,1,1.462-1.461h2.243a1.462,1.462,0,0,1,1.462,1.461v2.243a1.462,1.462,0,0,1-1.462,1.462" transform="translate(-4.878 -6.358)" fill="#ededed"/>
        <path id="Path_1022" data-name="Path 1022" d="M51.335,53.622H49.092a1.462,1.462,0,0,1-1.462-1.462V49.916a1.462,1.462,0,0,1,1.462-1.461h2.243A1.462,1.462,0,0,1,52.8,49.916v2.243a1.462,1.462,0,0,1-1.462,1.462" transform="translate(-6.25 -6.358)" fill="#ededed"/>
      </g>
    </g>
  </g>
</svg>
