<svg xmlns="http://www.w3.org/2000/svg" xmlns:xlink="http://www.w3.org/1999/xlink" width="53.91" height="47.291" viewBox="0 0 53.91 47.291">
  <defs>
    <clipPath id="clip-path">
      <rect id="Rectangle_168" data-name="Rectangle 168" width="53.91" height="47.291" fill="none"/>
    </clipPath>
  </defs>
  <g id="Group_246" data-name="Group 246" clip-path="url(#clip-path)">
    <path id="Path_1039" data-name="Path 1039" d="M53.3,15.373a13.321,13.321,0,0,1-.893,1.142c-1.038,1.071-2.106,2.111-3.155,3.171a3.526,3.526,0,0,0-.965,3.189c.074.49.065.994.1,1.558L37.529,13.578c-.26.24-.4.368-.537.5a5.644,5.644,0,0,1-6.2,1.129,13.592,13.592,0,0,1-2.124-1.138,4.687,4.687,0,0,0-5.4.405,6.409,6.409,0,0,1-2.388,1.483,4.676,4.676,0,0,1-4.66-1.185,1.511,1.511,0,0,1,.015-2.252c.828-.859,1.679-1.694,2.527-2.534,1.37-1.36,2.725-2.733,4.121-4.063a4.555,4.555,0,0,1,3.28-1.189c1.7,0,3.4-.016,5.106.007a3.7,3.7,0,0,0,2.868-1.184c.933-.976,1.9-1.916,2.862-2.87A1.624,1.624,0,0,1,39.632.668q6.5,6.49,12.985,12.992a6.853,6.853,0,0,1,.685.977Z" transform="translate(0.607 0)" fill="#2d2d2d"/>
    <path id="Path_1040" data-name="Path 1040" d="M22.848,32.891a5.528,5.528,0,0,0-7.414-7.419,5.648,5.648,0,0,0-9.788-1.814c-.135-.384-.269-.729-.376-1.082a8.915,8.915,0,0,0-2.362-3.856c-.793-.769-1.56-1.565-2.326-2.361a1.579,1.579,0,0,1,0-2.451Q7.168,7.317,13.761.738a1.585,1.585,0,0,1,2.454,0l4.012,3.886c-.215.227-.338.365-.467.494-1.673,1.675-3.355,3.343-5.022,5.025a4.661,4.661,0,0,0-1.246,5.1,5.745,5.745,0,0,0,3.152,3.224A7.832,7.832,0,0,0,25.5,17.215c1-.9,1.71-.911,2.662-.049a7.868,7.868,0,0,0,9.493.99c.074-.043.151-.082.243-.133.111.1.218.186.316.283q4.562,4.555,9.122,9.112a2.4,2.4,0,0,1,.719,2.671,2.354,2.354,0,0,1-3.919.821c-1.25-1.206-2.451-2.462-3.7-3.667a2.4,2.4,0,0,0-1.013-.6,1.471,1.471,0,0,0-1.674.795,1.552,1.552,0,0,0,.325,1.881c1.231,1.25,2.475,2.487,3.718,3.723a2.413,2.413,0,0,1,.816,2.023,2.36,2.36,0,0,1-3.944,1.53c-.52-.469-1-.981-1.5-1.477-.771-.769-1.536-1.54-2.308-2.306a1.6,1.6,0,1,0-2.218,2.244q1.8,1.81,3.607,3.611a2.359,2.359,0,0,1-3.086,3.568c-.778-.679-1.484-1.442-2.213-2.176a5.4,5.4,0,0,0-3.764-1.746c-.272-.008-.41-.086-.43-.388a5.289,5.289,0,0,0-3.761-4.938.877.877,0,0,1-.144-.1" transform="translate(0 0.006)" fill="#ed1818"/>
    <path id="Path_1041" data-name="Path 1041" d="M12.267,37.314a2.446,2.446,0,0,1-2.428-1.383,2.163,2.163,0,0,1,.338-2.5c.813-.893,1.688-1.729,2.541-2.584,1.076-1.079,2.142-2.169,3.245-3.22a2.192,2.192,0,0,1,2.486-.447A2.246,2.246,0,0,1,19.9,29.2a2.073,2.073,0,0,1-.568,1.691c-1.934,1.955-3.865,3.912-5.845,5.818a3.857,3.857,0,0,1-1.223.606" transform="translate(0.37 1.041)" fill="#2d2d2d"/>
    <path id="Path_1042" data-name="Path 1042" d="M6.869,31.857a2.438,2.438,0,0,1-2.405-1.384,2.115,2.115,0,0,1,.308-2.453c1.2-1.277,2.429-2.524,3.711-3.713a2.339,2.339,0,0,1,3.3,3.273c-1.2,1.3-2.462,2.539-3.756,3.741a3.519,3.519,0,0,1-1.163.537" transform="translate(0.163 0.917)" fill="#2d2d2d"/>
    <path id="Path_1043" data-name="Path 1043" d="M17.6,42.6a2.433,2.433,0,0,1-2.373-1.358,2.1,2.1,0,0,1,.284-2.46c1.206-1.3,2.457-2.554,3.758-3.755a2.337,2.337,0,0,1,3.3,3.259c-1.209,1.315-2.486,2.572-3.8,3.789A3.429,3.429,0,0,1,17.6,42.6" transform="translate(0.578 1.332)" fill="#2d2d2d"/>
    <path id="Path_1044" data-name="Path 1044" d="M25.141,45.752a2.478,2.478,0,0,1-2.38-1.344,2.158,2.158,0,0,1,.253-2.462,11.576,11.576,0,0,1,1.553-1.557,2.345,2.345,0,0,1,3.27,3.316,10.123,10.123,0,0,1-1.529,1.506,4.818,4.818,0,0,1-1.166.54" transform="translate(0.868 1.54)" fill="#2d2d2d"/>
  </g>
</svg>
