<svg xmlns="http://www.w3.org/2000/svg" xmlns:xlink="http://www.w3.org/1999/xlink" width="57.306" height="101.861" viewBox="0 0 57.306 101.861">
  <defs>
    <clipPath id="clip-path">
      <rect id="Rectangle_15" data-name="Rectangle 15" width="57.306" height="101.861" fill="none"/>
    </clipPath>
  </defs>
  <g id="Group_17" data-name="Group 17" transform="translate(57.306 101.861) rotate(180)" clip-path="url(#clip-path)">
    <path id="Path_156" data-name="Path 156" d="M3.175,0A3.174,3.174,0,1,1,0,3.174,3.175,3.175,0,0,1,3.175,0" transform="translate(0 -0.001)" fill="#2d2d2d"/>
    <path id="Path_157" data-name="Path 157" d="M3.175,0A3.174,3.174,0,1,1,0,3.174,3.175,3.175,0,0,1,3.175,0" transform="translate(0 19.103)" fill="#2d2d2d"/>
    <path id="Path_158" data-name="Path 158" d="M3.175,0A3.174,3.174,0,1,1,0,3.174,3.175,3.175,0,0,1,3.175,0" transform="translate(0 38.205)" fill="#2d2d2d"/>
    <path id="Path_159" data-name="Path 159" d="M3.175,0A3.174,3.174,0,1,1,0,3.174,3.175,3.175,0,0,1,3.175,0" transform="translate(0 57.307)" fill="#ed1818"/>
    <path id="Path_160" data-name="Path 160" d="M3.175,0A3.174,3.174,0,1,1,0,3.174,3.175,3.175,0,0,1,3.175,0" transform="translate(0 76.41)" fill="#ed1818"/>
    <path id="Path_161" data-name="Path 161" d="M3.175,0A3.174,3.174,0,1,1,0,3.174,3.175,3.175,0,0,1,3.175,0" transform="translate(0 95.513)" fill="#ed1818"/>
    <path id="Path_162" data-name="Path 162" d="M3.175,0A3.174,3.174,0,1,1,0,3.174,3.175,3.175,0,0,1,3.175,0" transform="translate(17.284 -0.001)" fill="#2d2d2d"/>
    <path id="Path_163" data-name="Path 163" d="M3.175,0A3.174,3.174,0,1,1,0,3.174,3.174,3.174,0,0,1,3.175,0" transform="translate(17.284 19.103)" fill="#2d2d2d"/>
    <path id="Path_164" data-name="Path 164" d="M3.175,0A3.174,3.174,0,1,1,0,3.174,3.174,3.174,0,0,1,3.175,0" transform="translate(17.284 38.205)" fill="#2d2d2d"/>
    <path id="Path_165" data-name="Path 165" d="M3.175,0A3.174,3.174,0,1,1,0,3.174,3.174,3.174,0,0,1,3.175,0" transform="translate(17.284 57.307)" fill="#ed1818"/>
    <path id="Path_166" data-name="Path 166" d="M3.175,0A3.174,3.174,0,1,1,0,3.174,3.174,3.174,0,0,1,3.175,0" transform="translate(17.284 76.41)" fill="#ed1818"/>
    <path id="Path_167" data-name="Path 167" d="M3.175,0A3.174,3.174,0,1,1,0,3.174,3.174,3.174,0,0,1,3.175,0" transform="translate(17.284 95.513)" fill="#ed1818"/>
    <path id="Path_168" data-name="Path 168" d="M3.175,0A3.174,3.174,0,1,1,0,3.174,3.175,3.175,0,0,1,3.175,0" transform="translate(33.673 -0.001)" fill="#2d2d2d"/>
    <path id="Path_169" data-name="Path 169" d="M3.175,0A3.174,3.174,0,1,1,0,3.174,3.175,3.175,0,0,1,3.175,0" transform="translate(33.673 19.103)" fill="#2d2d2d"/>
    <path id="Path_170" data-name="Path 170" d="M3.175,0A3.174,3.174,0,1,1,0,3.174,3.175,3.175,0,0,1,3.175,0" transform="translate(33.673 38.205)" fill="#2d2d2d"/>
    <path id="Path_171" data-name="Path 171" d="M3.175,0A3.174,3.174,0,1,1,0,3.174,3.175,3.175,0,0,1,3.175,0" transform="translate(33.673 57.307)" fill="#ed1818"/>
    <path id="Path_172" data-name="Path 172" d="M3.175,0A3.174,3.174,0,1,1,0,3.174,3.175,3.175,0,0,1,3.175,0" transform="translate(33.673 76.41)" fill="#ed1818"/>
    <path id="Path_173" data-name="Path 173" d="M3.175,0A3.174,3.174,0,1,1,0,3.174,3.175,3.175,0,0,1,3.175,0" transform="translate(33.673 95.513)" fill="#ed1818"/>
    <path id="Path_174" data-name="Path 174" d="M3.175,0A3.174,3.174,0,1,1,0,3.174,3.175,3.175,0,0,1,3.175,0" transform="translate(50.957 -0.001)" fill="#2d2d2d"/>
    <path id="Path_175" data-name="Path 175" d="M3.175,0A3.174,3.174,0,1,1,0,3.174,3.174,3.174,0,0,1,3.175,0" transform="translate(50.957 19.103)" fill="#2d2d2d"/>
    <path id="Path_176" data-name="Path 176" d="M3.175,0A3.174,3.174,0,1,1,0,3.174,3.174,3.174,0,0,1,3.175,0" transform="translate(50.957 38.205)" fill="#2d2d2d"/>
    <path id="Path_177" data-name="Path 177" d="M3.175,0A3.174,3.174,0,1,1,0,3.174,3.174,3.174,0,0,1,3.175,0" transform="translate(50.957 57.307)" fill="#ed1818"/>
    <path id="Path_178" data-name="Path 178" d="M3.175,0A3.174,3.174,0,1,1,0,3.174,3.174,3.174,0,0,1,3.175,0" transform="translate(50.957 76.41)" fill="#ed1818"/>
    <path id="Path_179" data-name="Path 179" d="M3.175,0A3.174,3.174,0,1,1,0,3.174,3.174,3.174,0,0,1,3.175,0" transform="translate(50.957 95.513)" fill="#ed1818"/>
  </g>
</svg>
