<?xml version="1.0" encoding="utf-8"?>
<!-- Generator: Adobe Illustrator 25.0.0, SVG Export Plug-In . SVG Version: 6.00 Build 0)  -->
<svg version="1.1" id="Layer_1" xmlns="http://www.w3.org/2000/svg" xmlns:xlink="http://www.w3.org/1999/xlink" x="0px" y="0px"
	 viewBox="0 0 39.9 37.2" style="enable-background:new 0 0 39.9 37.2;" xml:space="preserve">
<style type="text/css">
	.st0{clip-path:url(#SVGID_2_);}
	.st1{clip-path:url(#SVGID_4_);}
	.st2{clip-path:url(#SVGID_6_);}
	.st3{fill:#2D5B3A;}
	.st4{fill:#4FA06B;}
	.st5{fill:#387A47;}
	.st6{opacity:0.1;}
	.st7{clip-path:url(#SVGID_8_);}
	.st8{opacity:0.2;}
	.st9{clip-path:url(#SVGID_10_);}
	.st10{clip-path:url(#SVGID_12_);}
	.st11{clip-path:url(#SVGID_14_);}
	.st12{clip-path:url(#SVGID_16_);}
	.st13{fill:url(#Rectangle_392_1_);}
	.st14{clip-path:url(#SVGID_18_);}
	.st15{fill:#63C086;}
	.st16{fill:#F0F3F5;}
</style>
<g>
	<defs>
		<rect id="SVGID_1_" width="138.9" height="90.2"/>
	</defs>
	<clipPath id="SVGID_2_">
		<use xlink:href="#SVGID_1_"  style="overflow:visible;"/>
	</clipPath>
	<g id="Group_593" transform="translate(0 0)" class="st0">
		<g id="Group_672" transform="translate(44.45 2.109)">
			<g>
				<defs>
					<rect id="SVGID_3_" x="-44.5" y="-2.1" width="40" height="37.2"/>
				</defs>
				<clipPath id="SVGID_4_">
					<use xlink:href="#SVGID_3_"  style="overflow:visible;"/>
				</clipPath>
				<g id="Group_671" class="st1">
					<g id="Group_666" transform="translate(0 0)">
						<g>
							<defs>
								<rect id="SVGID_5_" x="-44.5" y="-2.1" width="40" height="37.2"/>
							</defs>
							<clipPath id="SVGID_6_">
								<use xlink:href="#SVGID_5_"  style="overflow:visible;"/>
							</clipPath>
							<g id="Group_665" class="st2">
								<path id="Path_1949" class="st3" d="M-19.3,15.6l-15.8-2.8v20.6c0,0.9,0.8,1.7,1.7,1.7h27.3c0.9,0,1.7-0.8,1.7-1.7v-7.6
									L-19.3,15.6z"/>
								<path id="Path_1950" class="st4" d="M-19.3-2.1h-14.1c-0.9,0-1.7,0.8-1.7,1.7v7.6l15.8,9.3l8.4,2.8l6.5-2.8V7.2L-19.3-2.1z"
									/>
								<rect id="Rectangle_386" x="-35.1" y="7.2" class="st5" width="15.8" height="9.3"/>
								<g id="Group_655" transform="translate(9.302 7.442)" class="st6">
									<g id="Group_654">
										<g>
											<defs>
												<rect id="SVGID_7_" x="-44.5" y="-2.1" width="13" height="23.3"/>
											</defs>
											<clipPath id="SVGID_8_">
												<use xlink:href="#SVGID_7_"  style="overflow:visible;"/>
											</clipPath>
											<g id="Group_653" class="st7">
												<path id="Path_1951" d="M-33.1-2.1h-11.3v23.3h11.3c0.9,0,1.7-0.8,1.7-1.7V-0.4C-31.4-1.3-32.2-2.1-33.1-2.1"/>
											</g>
										</g>
									</g>
								</g>
								<g id="Group_658" transform="translate(9.302 8.372)" class="st8">
									<g id="Group_657">
										<g>
											<defs>
												<rect id="SVGID_9_" x="-44.5" y="-2.1" width="12.1" height="23.3"/>
											</defs>
											<clipPath id="SVGID_10_">
												<use xlink:href="#SVGID_9_"  style="overflow:visible;"/>
											</clipPath>
											<g id="Group_656" class="st9">
												<path id="Path_1952" d="M-34.1-2.1h-10.4v23.3h10.4c0.9,0,1.7-0.8,1.7-1.7V-0.4C-32.4-1.3-33.1-2.1-34.1-2.1"/>
											</g>
										</g>
									</g>
								</g>
								<g id="Group_661" transform="translate(9.302 8.372)" class="st8">
									<g id="Group_660">
										<g>
											<defs>
												<rect id="SVGID_11_" x="-44.5" y="-2.1" width="12.1" height="21.4"/>
											</defs>
											<clipPath id="SVGID_12_">
												<use xlink:href="#SVGID_11_"  style="overflow:visible;"/>
											</clipPath>
											<g id="Group_659" class="st10">
												<path id="Path_1953" d="M-34.1-2.1h-10.4v21.4h10.4c0.9,0,1.7-0.8,1.7-1.7v-18C-32.4-1.3-33.1-2.1-34.1-2.1"/>
											</g>
										</g>
									</g>
								</g>
								<g id="Group_664" transform="translate(9.302 8.372)" class="st8">
									<g id="Group_663">
										<g>
											<defs>
												<rect id="SVGID_13_" x="-44.5" y="-2.1" width="11.2" height="21.4"/>
											</defs>
											<clipPath id="SVGID_14_">
												<use xlink:href="#SVGID_13_"  style="overflow:visible;"/>
											</clipPath>
											<g id="Group_662" class="st11">
												<path id="Path_1954" d="M-35-2.1h-9.5v21.4h9.5c0.9,0,1.7-0.8,1.7-1.7v-18C-33.3-1.3-34.1-2.1-35-2.1"/>
											</g>
										</g>
									</g>
								</g>
							</g>
						</g>
					</g>
					<g id="Group_668" transform="translate(0 8.372)">
						<g>
							<defs>
								<path id="SVGID_15_" d="M-40.5-2.1h12.7c2.2,0,3.9,1.7,3.9,3.9v12.7c0,2.2-1.7,3.9-3.9,3.9h-12.7c-2.2,0-3.9-1.7-3.9-3.9
									V1.8C-44.5-0.4-42.7-2.1-40.5-2.1z"/>
							</defs>
							<clipPath id="SVGID_16_">
								<use xlink:href="#SVGID_15_"  style="overflow:visible;"/>
							</clipPath>
							<g id="Group_667" class="st12">
								
									<linearGradient id="Rectangle_392_1_" gradientUnits="userSpaceOnUse" x1="-332.2878" y1="380.9654" x2="-332.2718" y2="380.9654" gradientTransform="matrix(24.2104 -13.9784 -13.9784 -24.2104 13327.0244 4591.6919)">
									<stop  offset="0" style="stop-color:#408554"/>
									<stop  offset="0.5" style="stop-color:#3A7C49"/>
									<stop  offset="1" style="stop-color:#2D6437"/>
								</linearGradient>
								<polygon id="Rectangle_392" class="st13" points="-53.3,3 -29.1,-11 -15.1,13.2 -39.3,27.2 								"/>
							</g>
						</g>
					</g>
					<g id="Group_670" transform="translate(0 0)">
						<g>
							<defs>
								<rect id="SVGID_17_" x="-44.5" y="-2.1" width="40" height="37.2"/>
							</defs>
							<clipPath id="SVGID_18_">
								<use xlink:href="#SVGID_17_"  style="overflow:visible;"/>
							</clipPath>
							<g id="Group_669" class="st14">
								<path id="Path_1955" class="st15" d="M-6.2-2.1h-13.2v9.3h14.9v-7.6C-4.5-1.3-5.2-2.1-6.2-2.1"/>
								<rect id="Rectangle_394" x="-19.3" y="16.5" class="st5" width="14.9" height="9.3"/>
								<path id="Path_1956" class="st16" d="M-30.1,17.7h-5.5v3.6h6.2V24H-39V9h9.3v2.8h-5.9v3.1h5.5V17.7z"/>
							</g>
						</g>
					</g>
				</g>
			</g>
		</g>
	</g>
</g>
</svg>
