<?xml version="1.0" encoding="utf-8"?>
<!-- Generator: Adobe Illustrator 25.0.0, SVG Export Plug-In . SVG Version: 6.00 Build 0)  -->
<svg version="1.1" id="Layer_1" xmlns="http://www.w3.org/2000/svg" xmlns:xlink="http://www.w3.org/1999/xlink" x="0px" y="0px"
	 viewBox="0 0 40 37.2" style="enable-background:new 0 0 40 37.2;" xml:space="preserve">
<style type="text/css">
	.st0{clip-path:url(#SVGID_2_);}
	.st1{clip-path:url(#SVGID_4_);}
	.st2{fill:#DC7451;}
	.st3{fill:#EF9473;}
	.st4{fill:#C35A3B;}
	.st5{clip-path:url(#SVGID_6_);}
	.st6{fill:url(#Rectangle_374_1_);}
	.st7{clip-path:url(#SVGID_8_);}
	.st8{fill:#F0F3F5;}
</style>
<g>
	<defs>
		<rect id="SVGID_1_" x="-50.8" y="-7.7" width="138.9" height="86.6"/>
	</defs>
	<clipPath id="SVGID_2_">
		<use xlink:href="#SVGID_1_"  style="overflow:visible;"/>
	</clipPath>
	<g id="Group_555" transform="translate(0 0)" class="st0">
		<g id="Group_627" transform="translate(51.88 9.387)">
			<g id="Group_622" transform="translate(0 0)">
				<g>
					<defs>
						<rect id="SVGID_3_" x="-51.9" y="-9.4" width="40" height="37.2"/>
					</defs>
					<clipPath id="SVGID_4_">
						<use xlink:href="#SVGID_3_"  style="overflow:visible;"/>
					</clipPath>
					<g id="Group_621" class="st1">
						<path id="Path_1936" class="st2" d="M-27.7,11.1l-2.8-20.5h-0.2C-40.8-9.4-49.1-1.1-49.1,9v0.2L-27.7,11.1z"/>
						<path id="Path_1937" class="st3" d="M-30.3-9.4h-0.2V9.2l9.3,3.7l9.3-3.7V9C-11.9-1.1-20.1-9.4-30.3-9.4"/>
						<path id="Path_1938" class="st4" d="M-11.9,9.2v0.2c0,10.2-8.2,18.4-18.4,18.4h-0.4c-10.1,0-18.4-8.3-18.4-18.4V9.2H-11.9z"/>
					</g>
				</g>
			</g>
			<g id="Group_624" transform="translate(0 5.575)">
				<g>
					<defs>
						<path id="SVGID_5_" d="M-48-9.4h18.3c2.2,0,3.9,1.7,3.9,3.9v18.3c0,2.2-1.7,3.9-3.9,3.9H-48c-2.2,0-3.9-1.7-3.9-3.9V-5.5
							C-51.9-7.6-50.1-9.4-48-9.4z"/>
					</defs>
					<clipPath id="SVGID_6_">
						<use xlink:href="#SVGID_5_"  style="overflow:visible;"/>
					</clipPath>
					<g id="Group_623" class="st5">
						
							<linearGradient id="Rectangle_374_1_" gradientUnits="userSpaceOnUse" x1="-340.2597" y1="377.7336" x2="-340.2437" y2="377.7336" gradientTransform="matrix(30.827 -17.7985 -17.7985 -30.827 17162.1445 5598.439)">
							<stop  offset="0" style="stop-color:#BA5434"/>
							<stop  offset="0.5" style="stop-color:#B54A2C"/>
							<stop  offset="1" style="stop-color:#A73A23"/>
						</linearGradient>
						<polygon id="Rectangle_374" class="st6" points="-63.2,-2.9 -32.3,-20.7 -14.5,10.2 -45.4,28 						"/>
					</g>
				</g>
			</g>
			<g id="Group_626" transform="translate(0 0)">
				<g>
					<defs>
						<rect id="SVGID_7_" x="-51.9" y="-9.4" width="40" height="37.2"/>
					</defs>
					<clipPath id="SVGID_8_">
						<use xlink:href="#SVGID_7_"  style="overflow:visible;"/>
					</clipPath>
					<g id="Group_625" class="st7">
						<path id="Path_1939" class="st8" d="M-47.1,1.9c1.5-0.2,3.1-0.3,4.6-0.3c1.6-0.1,3.3,0.3,4.6,1.2c1,0.9,1.6,2.1,1.6,3.5
							c0.1,1.3-0.4,2.6-1.4,3.6c-1.4,1.1-3.1,1.7-4.9,1.6c-0.4,0-0.8,0-1.2-0.1v5.4h-3.4V1.9z M-43.7,8.8c0.4,0.1,0.8,0.1,1.1,0.1
							c1.8,0,2.9-0.9,2.9-2.5c0-1.4-1-2.2-2.7-2.2c-0.5,0-0.9,0-1.4,0.1L-43.7,8.8z"/>
					</g>
				</g>
			</g>
		</g>
	</g>
</g>
</svg>
