<?xml version="1.0" encoding="utf-8"?>
<!-- Generator: Adobe Illustrator 25.0.0, SVG Export Plug-In . SVG Version: 6.00 Build 0)  -->
<svg version="1.1" id="Layer_1" xmlns="http://www.w3.org/2000/svg" xmlns:xlink="http://www.w3.org/1999/xlink" x="0px" y="0px"
	 viewBox="0 0 40.1 35.3" style="enable-background:new 0 0 40.1 35.3;" xml:space="preserve">
<style type="text/css">
	.st0{clip-path:url(#SVGID_2_);}
	.st1{clip-path:url(#SVGID_4_);}
	.st2{clip-path:url(#SVGID_6_);}
	.st3{fill:#5DA2E7;}
	.st4{fill:#437ACC;}
	.st5{fill:#2C59B6;}
	.st6{fill:#1E3E8B;}
	.st7{opacity:0.1;}
	.st8{clip-path:url(#SVGID_8_);}
	.st9{opacity:0.2;}
	.st10{clip-path:url(#SVGID_10_);}
	.st11{clip-path:url(#SVGID_12_);}
	.st12{clip-path:url(#SVGID_14_);}
	.st13{clip-path:url(#SVGID_16_);}
	.st14{fill:url(#Rectangle_382_1_);}
	.st15{clip-path:url(#SVGID_18_);}
	.st16{fill:#F0F3F5;}
</style>
<g>
	<defs>
		<rect id="SVGID_1_" width="138.9" height="90.2"/>
	</defs>
	<clipPath id="SVGID_2_">
		<use xlink:href="#SVGID_1_"  style="overflow:visible;"/>
	</clipPath>
	<g id="Group_561" transform="translate(0 0)" class="st0">
		<g id="Group_647" transform="translate(45 5.109)">
			<g>
				<defs>
					<rect id="SVGID_3_" x="-45" y="-5.1" width="40" height="35.4"/>
				</defs>
				<clipPath id="SVGID_4_">
					<use xlink:href="#SVGID_3_"  style="overflow:visible;"/>
				</clipPath>
				<g id="Group_646" class="st1">
					<g id="Group_641" transform="translate(0 0)">
						<g>
							<defs>
								<rect id="SVGID_5_" x="-45" y="-5.1" width="40" height="35.4"/>
							</defs>
							<clipPath id="SVGID_6_">
								<use xlink:href="#SVGID_5_"  style="overflow:visible;"/>
							</clipPath>
							<g id="Group_640" class="st2">
								<path id="Path_1940" class="st3" d="M-6.7-5.1H-34c-0.9,0-1.7,0.8-1.7,1.7v7.6l15.8,4.7L-5,4.2v-7.6C-5-4.3-5.8-5.1-6.7-5.1
									C-6.7-5.1-6.7-5.1-6.7-5.1"/>
								<path id="Path_1941" class="st4" d="M-5,4.2h-30.7v9.3l15.8,2.8L-5,13.5V4.2z"/>
								<path id="Path_1942" class="st5" d="M-35.7,13.5v9.3l14.9,1.9L-5,22.8v-9.3L-35.7,13.5z"/>
								<path id="Path_1943" class="st6" d="M-34,30.3h27.3c0.9,0,1.7-0.8,1.7-1.7V21h-30.7v7.6C-35.7,29.5-34.9,30.3-34,30.3"/>
								<g id="Group_630" transform="translate(9.302 7.442)" class="st7">
									<g id="Group_629">
										<g>
											<defs>
												<rect id="SVGID_7_" x="-45" y="-5.1" width="13" height="23.3"/>
											</defs>
											<clipPath id="SVGID_8_">
												<use xlink:href="#SVGID_7_"  style="overflow:visible;"/>
											</clipPath>
											<g id="Group_628" class="st8">
												<path id="Path_1944" d="M-33.7-5.1H-45v23.3h11.3c0.9,0,1.7-0.8,1.7-1.7V-3.4C-32-4.3-32.7-5.1-33.7-5.1"/>
											</g>
										</g>
									</g>
								</g>
								<g id="Group_633" transform="translate(9.302 8.372)" class="st9">
									<g id="Group_632">
										<g>
											<defs>
												<rect id="SVGID_9_" x="-45" y="-5.1" width="12.1" height="23.3"/>
											</defs>
											<clipPath id="SVGID_10_">
												<use xlink:href="#SVGID_9_"  style="overflow:visible;"/>
											</clipPath>
											<g id="Group_631" class="st10">
												<path id="Path_1945" d="M-34.6-5.1H-45v23.3h10.4c0.9,0,1.7-0.8,1.7-1.7V-3.4C-32.9-4.3-33.7-5.1-34.6-5.1"/>
											</g>
										</g>
									</g>
								</g>
								<g id="Group_636" transform="translate(9.302 8.372)" class="st9">
									<g id="Group_635">
										<g>
											<defs>
												<rect id="SVGID_11_" x="-45" y="-5.1" width="12.1" height="21.4"/>
											</defs>
											<clipPath id="SVGID_12_">
												<use xlink:href="#SVGID_11_"  style="overflow:visible;"/>
											</clipPath>
											<g id="Group_634" class="st11">
												<path id="Path_1946" d="M-34.6-5.1H-45v21.4h10.4c0.9,0,1.7-0.8,1.7-1.7v-18C-32.9-4.3-33.7-5.1-34.6-5.1"/>
											</g>
										</g>
									</g>
								</g>
								<g id="Group_639" transform="translate(9.302 8.372)" class="st9">
									<g id="Group_638">
										<g>
											<defs>
												<rect id="SVGID_13_" x="-45" y="-5.1" width="11.2" height="21.4"/>
											</defs>
											<clipPath id="SVGID_14_">
												<use xlink:href="#SVGID_13_"  style="overflow:visible;"/>
											</clipPath>
											<g id="Group_637" class="st12">
												<path id="Path_1947" d="M-35.5-5.1H-45v21.4h9.5c0.9,0,1.7-0.8,1.7-1.7v-18C-33.8-4.3-34.6-5.1-35.5-5.1"/>
											</g>
										</g>
									</g>
								</g>
							</g>
						</g>
					</g>
					<g id="Group_643" transform="translate(0 8.372)">
						<g>
							<defs>
								<path id="SVGID_15_" d="M-41.1-5.1h12.7c2.2,0,3.9,1.7,3.9,3.9v12.7c0,2.2-1.7,3.9-3.9,3.9h-12.7c-2.2,0-3.9-1.7-3.9-3.9
									V-1.2C-45-3.4-43.3-5.1-41.1-5.1z"/>
							</defs>
							<clipPath id="SVGID_16_">
								<use xlink:href="#SVGID_15_"  style="overflow:visible;"/>
							</clipPath>
							<g id="Group_642" class="st13">
								
									<linearGradient id="Rectangle_382_1_" gradientUnits="userSpaceOnUse" x1="-332.8012" y1="378.0682" x2="-332.7852" y2="378.0682" gradientTransform="matrix(24.2104 -13.9784 -13.9784 -24.2104 13298.4053 4511.373)">
									<stop  offset="0" style="stop-color:#3767BD"/>
									<stop  offset="0.5" style="stop-color:#2F5CB7"/>
									<stop  offset="1" style="stop-color:#2145A5"/>
								</linearGradient>
								<polygon id="Rectangle_382" class="st14" points="-53.9,0 -29.7,-14 -15.7,10.2 -39.9,24.2 								"/>
							</g>
						</g>
					</g>
					<g id="Group_645" transform="translate(0 0)">
						<g>
							<defs>
								<rect id="SVGID_17_" x="-45" y="-5.1" width="40" height="35.4"/>
							</defs>
							<clipPath id="SVGID_18_">
								<use xlink:href="#SVGID_17_"  style="overflow:visible;"/>
							</clipPath>
							<g id="Group_644" class="st15">
								<path id="Path_1948" class="st16" d="M-40,20.1l-3.1-13.1h3.2l1,5.4c0.3,1.6,0.6,3.3,0.8,4.6h0c0.2-1.4,0.5-3,0.9-4.6
									l1.1-5.4h3.2l1.1,5.5c0.3,1.5,0.5,2.9,0.7,4.4h0c0.2-1.5,0.5-3,0.8-4.6l1.1-5.4h3l-3.4,13.1H-33l-1.1-5.7
									c-0.3-1.3-0.5-2.6-0.6-4h0c-0.2,1.5-0.4,2.7-0.8,4l-1.2,5.7H-40z"/>
							</g>
						</g>
					</g>
				</g>
			</g>
		</g>
	</g>
</g>
</svg>
