<svg xmlns="http://www.w3.org/2000/svg" xmlns:xlink="http://www.w3.org/1999/xlink" width="54.174" height="54.17" viewBox="0 0 54.174 54.17">
  <defs>
    <clipPath id="clip-path">
      <rect id="Rectangle_172" data-name="Rectangle 172" width="54.174" height="54.17" fill="none"/>
    </clipPath>
  </defs>
  <g id="Group_247" data-name="Group 247" clip-path="url(#clip-path)">
    <path id="Path_1045" data-name="Path 1045" d="M53.327,14.305a.848.848,0,0,0,.846-.846V8.8a1.019,1.019,0,0,0-.592-.847L27.341,0h-.508L.593,7.956A.842.842,0,0,0,0,8.8v4.656a.8.8,0,0,0,.846.846H2.539V43.888H.846A.848.848,0,0,0,0,44.733a.8.8,0,0,0,.846.847H19.639c0-.254-.085-.593-.085-.847a2.874,2.874,0,0,1,.085-.846H9.649v-24.5H44.524v24.5H34.535v1.693H53.327a.847.847,0,0,0,0-1.693H51.635V14.305Z" transform="translate(0 0)" fill="#2d2d2d"/>
    <rect id="Rectangle_169" data-name="Rectangle 169" width="2.495" height="2.495" transform="translate(18.353 9.164)" fill="#ed1818"/>
    <rect id="Rectangle_170" data-name="Rectangle 170" width="2.495" height="2.495" transform="translate(25.839 9.164)" fill="#ed1818"/>
    <rect id="Rectangle_171" data-name="Rectangle 171" width="2.496" height="2.495" transform="translate(33.325 9.164)" fill="#ed1818"/>
    <path id="Path_1046" data-name="Path 1046" d="M15,39.867l1.349.25a.848.848,0,0,1,.636.556c.065.176.136.349.214.518a.852.852,0,0,1-.056.842l-.778,1.134a.83.83,0,0,0,.1,1.056l1.282,1.282a.828.828,0,0,0,1.057.1l1.128-.775a.849.849,0,0,1,.843-.058c.172.081.349.153.528.219a.852.852,0,0,1,.557.636l.25,1.344a.829.829,0,0,0,.815.678h1.806a.827.827,0,0,0,.815-.678l.252-1.342a.844.844,0,0,1,.553-.634c.18-.066.357-.139.53-.22a.853.853,0,0,1,.847.055l1.126.774a.828.828,0,0,0,1.057-.1l1.282-1.282a.828.828,0,0,0,.1-1.056l-.78-1.134a.849.849,0,0,1-.055-.842c.077-.169.149-.343.214-.518a.848.848,0,0,1,.635-.556l1.351-.25a.83.83,0,0,0,.678-.816V37.239a.828.828,0,0,0-.678-.815L31.3,36.172a.852.852,0,0,1-.636-.557c-.064-.178-.136-.352-.214-.523a.85.85,0,0,1,.055-.841l.778-1.134a.829.829,0,0,0-.1-1.057l-1.282-1.278a.83.83,0,0,0-1.055-.1l-1.136.776a.85.85,0,0,1-.841.055q-.26-.12-.528-.219a.842.842,0,0,1-.553-.634l-.252-1.348a.828.828,0,0,0-.815-.678H22.922a.829.829,0,0,0-.815.679l-.25,1.348a.849.849,0,0,1-.559.636q-.267.1-.523.215a.848.848,0,0,1-.84-.055L18.8,30.684a.828.828,0,0,0-1.055.1l-1.282,1.283a.829.829,0,0,0-.1,1.056l.777,1.13a.852.852,0,0,1,.056.842q-.118.256-.214.522a.851.851,0,0,1-.637.557L15,36.424a.829.829,0,0,0-.679.815V39.05a.832.832,0,0,0,.679.816m8.83-4.653A2.929,2.929,0,1,1,20.9,38.145a2.931,2.931,0,0,1,2.932-2.932" transform="translate(3.262 6.523)" fill="#ed1818"/>
  </g>
</svg>
