<svg xmlns="http://www.w3.org/2000/svg" xmlns:xlink="http://www.w3.org/1999/xlink" width="1083.47" height="1079.348" viewBox="0 0 1083.47 1079.348">
  <defs>
    <clipPath id="clip-path">
      <rect id="Rectangle_52" data-name="Rectangle 52" width="1083.47" height="541.627" fill="none"/>
    </clipPath>
    <clipPath id="clip-path-2">
      <rect id="Rectangle_52-2" data-name="Rectangle 52" width="1083.47" height="538.952" fill="none"/>
    </clipPath>
  </defs>
  <g id="Group_67" data-name="Group 67" transform="translate(-826 -2262.824)" opacity="0.147">
    <g id="Group_65" data-name="Group 65" transform="translate(826 2262.824)">
      <g id="Group_64" data-name="Group 64" clip-path="url(#clip-path)">
        <path id="Path_378" data-name="Path 378" d="M0,541.627H5.28C5.28,245.883,245.931,5.28,541.732,5.28s536.458,240.6,536.458,536.347h5.28C1083.47,242.98,840.448,0,541.732,0S0,242.98,0,541.627" transform="translate(0 0)" fill="#2d2d2d"/>
        <path id="Path_379" data-name="Path 379" d="M17.765,465.618h5.28c0-244.036,198.579-442.577,442.667-442.577S908.374,221.582,908.374,465.618h5.28c0-246.945-200.949-447.857-447.941-447.857S17.765,218.673,17.765,465.618" transform="translate(76.026 76.009)" fill="#2d2d2d"/>
        <path id="Path_380" data-name="Path 380" d="M35.53,389.6h5.28c0-192.328,156.506-348.8,348.876-348.8S738.557,197.273,738.557,389.6h5.28c0-195.237-158.872-354.077-354.151-354.077S35.53,194.364,35.53,389.6" transform="translate(152.052 152.026)" fill="#2d2d2d"/>
        <path id="Path_381" data-name="Path 381" d="M53.295,313.6h5.28C58.575,172.971,173,58.564,313.655,58.564S568.741,172.971,568.741,313.6h5.28c0-143.534-116.8-260.312-260.365-260.312S53.295,170.062,53.295,313.6" transform="translate(228.077 228.03)" fill="#2d2d2d"/>
        <path id="Path_382" data-name="Path 382" d="M71.06,237.583h5.28C76.34,148.666,148.7,76.32,237.634,76.32s161.295,72.345,161.295,161.263h5.28c0-91.832-74.726-166.537-166.574-166.537S71.06,145.751,71.06,237.583" transform="translate(304.103 304.043)" fill="#2d2d2d"/>
        <path id="Path_383" data-name="Path 383" d="M88.825,161.575H94.1a67.5,67.5,0,0,1,135,0h5.279a72.781,72.781,0,0,0-145.562,0" transform="translate(380.129 380.052)" fill="#2d2d2d"/>
      </g>
    </g>
    <g id="Group_66" data-name="Group 66" transform="translate(826 2803.219)">
      <g id="Group_64-2" data-name="Group 64" clip-path="url(#clip-path-2)">
        <path id="Path_378-2" data-name="Path 378" d="M0,0H5.28c0,294.283,240.651,533.7,536.453,533.7S1078.19,294.283,1078.19,0h5.28c0,297.172-243.022,538.952-541.738,538.952S0,297.172,0,0" transform="translate(0 0)" fill="#2d2d2d"/>
        <path id="Path_379-2" data-name="Path 379" d="M17.765,17.761h5.28c0,242.83,198.579,440.392,442.667,440.392S908.374,260.591,908.374,17.761h5.28c0,245.725-200.949,445.645-447.941,445.645S17.765,263.486,17.765,17.761" transform="translate(76.026 -17.761)" fill="#2d2d2d"/>
        <path id="Path_380-2" data-name="Path 380" d="M35.53,35.524h5.28C40.81,226.9,197.316,382.6,389.686,382.6S738.557,226.9,738.557,35.524h5.28c0,194.273-158.872,352.328-354.151,352.328S35.53,229.8,35.53,35.524" transform="translate(152.052 -35.524)" fill="#2d2d2d"/>
        <path id="Path_381-2" data-name="Path 381" d="M53.295,53.284h5.28c0,139.931,114.428,253.773,255.08,253.773S568.741,193.215,568.741,53.284h5.28c0,142.826-116.8,259.027-260.365,259.027S53.295,196.11,53.295,53.284" transform="translate(228.077 -53.284)" fill="#2d2d2d"/>
        <path id="Path_382-2" data-name="Path 382" d="M71.06,71.046h5.28c0,88.479,72.356,160.467,161.295,160.467S398.929,159.525,398.929,71.046h5.28c0,91.379-74.726,165.715-166.574,165.715S71.06,162.425,71.06,71.046" transform="translate(304.103 -71.046)" fill="#2d2d2d"/>
        <path id="Path_383-2" data-name="Path 383" d="M88.825,88.807H94.1c0,37.032,30.283,67.155,67.5,67.155s67.5-30.123,67.5-67.155h5.279c0,39.926-32.649,72.408-72.778,72.408S88.825,128.733,88.825,88.807" transform="translate(380.129 -88.807)" fill="#2d2d2d"/>
      </g>
    </g>
  </g>
</svg>
