<svg xmlns="http://www.w3.org/2000/svg" xmlns:xlink="http://www.w3.org/1999/xlink" width="592.162" height="246.337" viewBox="0 0 592.162 246.337">
  <defs>
    <clipPath id="clip-path">
      <rect id="Rectangle_219" data-name="Rectangle 219" width="123.162" height="218.918" fill="none"/>
    </clipPath>
    <clipPath id="clip-path-3">
      <rect id="Rectangle_215" data-name="Rectangle 215" width="481.072" height="246.337" fill="none"/>
    </clipPath>
    <clipPath id="clip-path-5">
      <rect id="Rectangle_206" data-name="Rectangle 206" width="18.14" height="7.042" fill="none"/>
    </clipPath>
    <clipPath id="clip-path-6">
      <rect id="Rectangle_207" data-name="Rectangle 207" width="10.952" height="14.651" fill="none"/>
    </clipPath>
  </defs>
  <g id="Group_729" data-name="Group 729" transform="translate(-466 -172)">
    <g id="Group_373" data-name="Group 373" transform="translate(935 172)">
      <g id="Group_372" data-name="Group 372" transform="translate(0 0.001)" clip-path="url(#clip-path)">
        <path id="Path_1301" data-name="Path 1301" d="M6.824,0A6.821,6.821,0,1,1,0,6.821,6.824,6.824,0,0,1,6.824,0" transform="translate(0 -0.001)" fill="#2d2d2d"/>
        <path id="Path_1302" data-name="Path 1302" d="M6.824,17.882A6.821,6.821,0,1,1,0,24.7a6.823,6.823,0,0,1,6.824-6.821" transform="translate(0 23.173)" fill="#2d2d2d"/>
        <path id="Path_1303" data-name="Path 1303" d="M6.824,35.763A6.821,6.821,0,1,1,0,42.584a6.823,6.823,0,0,1,6.824-6.821" transform="translate(0 46.346)" fill="#2d2d2d"/>
        <path id="Path_1304" data-name="Path 1304" d="M6.824,53.644A6.821,6.821,0,1,1,0,60.465a6.823,6.823,0,0,1,6.824-6.821" transform="translate(0 69.52)" fill="#ed1818"/>
        <path id="Path_1305" data-name="Path 1305" d="M6.824,71.526A6.821,6.821,0,1,1,0,78.347a6.823,6.823,0,0,1,6.824-6.821" transform="translate(0 92.694)" fill="#ed1818"/>
        <path id="Path_1306" data-name="Path 1306" d="M6.824,89.408A6.821,6.821,0,1,1,0,96.229a6.823,6.823,0,0,1,6.824-6.821" transform="translate(0 115.868)" fill="#ed1818"/>
        <path id="Path_1307" data-name="Path 1307" d="M23,0a6.821,6.821,0,1,1-6.824,6.821A6.823,6.823,0,0,1,23,0" transform="translate(20.967 -0.001)" fill="#2d2d2d"/>
        <path id="Path_1308" data-name="Path 1308" d="M23,17.882A6.821,6.821,0,1,1,16.179,24.7,6.821,6.821,0,0,1,23,17.882" transform="translate(20.967 23.173)" fill="#2d2d2d"/>
        <path id="Path_1309" data-name="Path 1309" d="M23,35.763a6.821,6.821,0,1,1-6.824,6.821A6.821,6.821,0,0,1,23,35.763" transform="translate(20.967 46.346)" fill="#2d2d2d"/>
        <path id="Path_1310" data-name="Path 1310" d="M23,53.644a6.821,6.821,0,1,1-6.824,6.821A6.821,6.821,0,0,1,23,53.644" transform="translate(20.967 69.52)" fill="#ed1818"/>
        <path id="Path_1311" data-name="Path 1311" d="M23,71.526a6.821,6.821,0,1,1-6.824,6.821A6.821,6.821,0,0,1,23,71.526" transform="translate(20.967 92.694)" fill="#ed1818"/>
        <path id="Path_1312" data-name="Path 1312" d="M23,89.408a6.821,6.821,0,1,1-6.824,6.821A6.821,6.821,0,0,1,23,89.408" transform="translate(20.967 115.868)" fill="#ed1818"/>
        <path id="Path_1313" data-name="Path 1313" d="M38.344,0A6.821,6.821,0,1,1,31.52,6.821,6.824,6.824,0,0,1,38.344,0" transform="translate(40.849 -0.001)" fill="#2d2d2d"/>
        <path id="Path_1314" data-name="Path 1314" d="M38.344,17.882A6.821,6.821,0,1,1,31.52,24.7a6.823,6.823,0,0,1,6.824-6.821" transform="translate(40.849 23.173)" fill="#2d2d2d"/>
        <path id="Path_1315" data-name="Path 1315" d="M38.344,35.763a6.821,6.821,0,1,1-6.824,6.821,6.823,6.823,0,0,1,6.824-6.821" transform="translate(40.849 46.346)" fill="#2d2d2d"/>
        <path id="Path_1316" data-name="Path 1316" d="M38.344,53.644a6.821,6.821,0,1,1-6.824,6.821,6.823,6.823,0,0,1,6.824-6.821" transform="translate(40.849 69.52)" fill="#ed1818"/>
        <path id="Path_1317" data-name="Path 1317" d="M38.344,71.526a6.821,6.821,0,1,1-6.824,6.821,6.823,6.823,0,0,1,6.824-6.821" transform="translate(40.849 92.694)" fill="#ed1818"/>
        <path id="Path_1318" data-name="Path 1318" d="M38.344,89.408a6.821,6.821,0,1,1-6.824,6.821,6.823,6.823,0,0,1,6.824-6.821" transform="translate(40.849 115.868)" fill="#ed1818"/>
        <path id="Path_1319" data-name="Path 1319" d="M54.523,0A6.821,6.821,0,1,1,47.7,6.821,6.823,6.823,0,0,1,54.523,0" transform="translate(61.816 -0.001)" fill="#2d2d2d"/>
        <path id="Path_1320" data-name="Path 1320" d="M54.523,17.882A6.821,6.821,0,1,1,47.7,24.7a6.821,6.821,0,0,1,6.824-6.821" transform="translate(61.816 23.173)" fill="#2d2d2d"/>
        <path id="Path_1321" data-name="Path 1321" d="M54.523,35.763A6.821,6.821,0,1,1,47.7,42.584a6.821,6.821,0,0,1,6.824-6.821" transform="translate(61.816 46.346)" fill="#2d2d2d"/>
        <path id="Path_1322" data-name="Path 1322" d="M54.523,53.644A6.821,6.821,0,1,1,47.7,60.465a6.821,6.821,0,0,1,6.824-6.821" transform="translate(61.816 69.52)" fill="#ed1818"/>
        <path id="Path_1323" data-name="Path 1323" d="M54.523,71.526A6.821,6.821,0,1,1,47.7,78.347a6.821,6.821,0,0,1,6.824-6.821" transform="translate(61.816 92.694)" fill="#ed1818"/>
        <path id="Path_1324" data-name="Path 1324" d="M54.523,89.408A6.821,6.821,0,1,1,47.7,96.229a6.821,6.821,0,0,1,6.824-6.821" transform="translate(61.816 115.868)" fill="#ed1818"/>
      </g>
    </g>
    <g id="Group_374" data-name="Group 374" transform="translate(466 172)">
      <g id="Group_372-2" data-name="Group 372" transform="translate(0 0.001)" clip-path="url(#clip-path)">
        <path id="Path_1301-2" data-name="Path 1301" d="M6.824,0A6.821,6.821,0,1,1,0,6.821,6.824,6.824,0,0,1,6.824,0" transform="translate(0 -0.001)" fill="#2d2d2d"/>
        <path id="Path_1302-2" data-name="Path 1302" d="M6.824,17.882A6.821,6.821,0,1,1,0,24.7a6.823,6.823,0,0,1,6.824-6.821" transform="translate(0 23.173)" fill="#2d2d2d"/>
        <path id="Path_1303-2" data-name="Path 1303" d="M6.824,35.763A6.821,6.821,0,1,1,0,42.584a6.823,6.823,0,0,1,6.824-6.821" transform="translate(0 46.346)" fill="#2d2d2d"/>
        <path id="Path_1304-2" data-name="Path 1304" d="M6.824,53.644A6.821,6.821,0,1,1,0,60.465a6.823,6.823,0,0,1,6.824-6.821" transform="translate(0 69.52)" fill="#ed1818"/>
        <path id="Path_1305-2" data-name="Path 1305" d="M6.824,71.526A6.821,6.821,0,1,1,0,78.347a6.823,6.823,0,0,1,6.824-6.821" transform="translate(0 92.694)" fill="#ed1818"/>
        <path id="Path_1306-2" data-name="Path 1306" d="M6.824,89.408A6.821,6.821,0,1,1,0,96.229a6.823,6.823,0,0,1,6.824-6.821" transform="translate(0 115.868)" fill="#ed1818"/>
        <path id="Path_1307-2" data-name="Path 1307" d="M23,0a6.821,6.821,0,1,1-6.824,6.821A6.823,6.823,0,0,1,23,0" transform="translate(20.967 -0.001)" fill="#2d2d2d"/>
        <path id="Path_1308-2" data-name="Path 1308" d="M23,17.882A6.821,6.821,0,1,1,16.179,24.7,6.821,6.821,0,0,1,23,17.882" transform="translate(20.967 23.173)" fill="#2d2d2d"/>
        <path id="Path_1309-2" data-name="Path 1309" d="M23,35.763a6.821,6.821,0,1,1-6.824,6.821A6.821,6.821,0,0,1,23,35.763" transform="translate(20.967 46.346)" fill="#2d2d2d"/>
        <path id="Path_1310-2" data-name="Path 1310" d="M23,53.644a6.821,6.821,0,1,1-6.824,6.821A6.821,6.821,0,0,1,23,53.644" transform="translate(20.967 69.52)" fill="#ed1818"/>
        <path id="Path_1311-2" data-name="Path 1311" d="M23,71.526a6.821,6.821,0,1,1-6.824,6.821A6.821,6.821,0,0,1,23,71.526" transform="translate(20.967 92.694)" fill="#ed1818"/>
        <path id="Path_1312-2" data-name="Path 1312" d="M23,89.408a6.821,6.821,0,1,1-6.824,6.821A6.821,6.821,0,0,1,23,89.408" transform="translate(20.967 115.868)" fill="#ed1818"/>
        <path id="Path_1313-2" data-name="Path 1313" d="M38.344,0A6.821,6.821,0,1,1,31.52,6.821,6.824,6.824,0,0,1,38.344,0" transform="translate(40.849 -0.001)" fill="#2d2d2d"/>
        <path id="Path_1314-2" data-name="Path 1314" d="M38.344,17.882A6.821,6.821,0,1,1,31.52,24.7a6.823,6.823,0,0,1,6.824-6.821" transform="translate(40.849 23.173)" fill="#2d2d2d"/>
        <path id="Path_1315-2" data-name="Path 1315" d="M38.344,35.763a6.821,6.821,0,1,1-6.824,6.821,6.823,6.823,0,0,1,6.824-6.821" transform="translate(40.849 46.346)" fill="#2d2d2d"/>
        <path id="Path_1316-2" data-name="Path 1316" d="M38.344,53.644a6.821,6.821,0,1,1-6.824,6.821,6.823,6.823,0,0,1,6.824-6.821" transform="translate(40.849 69.52)" fill="#ed1818"/>
        <path id="Path_1317-2" data-name="Path 1317" d="M38.344,71.526a6.821,6.821,0,1,1-6.824,6.821,6.823,6.823,0,0,1,6.824-6.821" transform="translate(40.849 92.694)" fill="#ed1818"/>
        <path id="Path_1318-2" data-name="Path 1318" d="M38.344,89.408a6.821,6.821,0,1,1-6.824,6.821,6.823,6.823,0,0,1,6.824-6.821" transform="translate(40.849 115.868)" fill="#ed1818"/>
        <path id="Path_1319-2" data-name="Path 1319" d="M54.523,0A6.821,6.821,0,1,1,47.7,6.821,6.823,6.823,0,0,1,54.523,0" transform="translate(61.816 -0.001)" fill="#2d2d2d"/>
        <path id="Path_1320-2" data-name="Path 1320" d="M54.523,17.882A6.821,6.821,0,1,1,47.7,24.7a6.821,6.821,0,0,1,6.824-6.821" transform="translate(61.816 23.173)" fill="#2d2d2d"/>
        <path id="Path_1321-2" data-name="Path 1321" d="M54.523,35.763A6.821,6.821,0,1,1,47.7,42.584a6.821,6.821,0,0,1,6.824-6.821" transform="translate(61.816 46.346)" fill="#2d2d2d"/>
        <path id="Path_1322-2" data-name="Path 1322" d="M54.523,53.644A6.821,6.821,0,1,1,47.7,60.465a6.821,6.821,0,0,1,6.824-6.821" transform="translate(61.816 69.52)" fill="#ed1818"/>
        <path id="Path_1323-2" data-name="Path 1323" d="M54.523,71.526A6.821,6.821,0,1,1,47.7,78.347a6.821,6.821,0,0,1,6.824-6.821" transform="translate(61.816 92.694)" fill="#ed1818"/>
        <path id="Path_1324-2" data-name="Path 1324" d="M54.523,89.408A6.821,6.821,0,1,1,47.7,96.229a6.821,6.821,0,0,1,6.824-6.821" transform="translate(61.816 115.868)" fill="#ed1818"/>
      </g>
    </g>
    <g id="Group_338" data-name="Group 338" transform="translate(526 172)">
      <g id="Group_337" data-name="Group 337" clip-path="url(#clip-path-3)">
        <g id="Group_336" data-name="Group 336">
          <g id="Group_335" data-name="Group 335" clip-path="url(#clip-path-3)">
            <path id="Path_1213" data-name="Path 1213" d="M467.5,537.751c0,22.371-104.654,40.507-233.75,40.507S0,560.123,0,537.751s104.653-40.507,233.75-40.507S467.5,515.38,467.5,537.751" transform="translate(5 -331.922)" fill="#e9e9e9"/>
            <g id="Group_331" data-name="Group 331" transform="translate(397.716 52.018)" opacity="0.6">
              <g id="Group_330" data-name="Group 330">
                <g id="Group_329" data-name="Group 329" clip-path="url(#clip-path-5)">
                  <path id="Path_1214" data-name="Path 1214" d="M1207.92,156.678c4.524-.745,6.107.471,6.4,2.245s-.817,3.433-5.342,4.177c-8.242,1.357-12.754-1.2-12.754-1.2s3.335-3.847,11.7-5.224" transform="translate(-1196.222 -156.455)" fill="#d4d5d9"/>
                </g>
              </g>
            </g>
            <g id="Group_334" data-name="Group 334" transform="translate(395.113 39.075)" opacity="0.6">
              <g id="Group_333" data-name="Group 333">
                <g id="Group_332" data-name="Group 332" clip-path="url(#clip-path-6)">
                  <path id="Path_1215" data-name="Path 1215" d="M1192.534,120.858c2.459-3.543,4.316-3.816,5.705-2.852s1.783,2.8-.676,6.342c-4.479,6.455-9.159,7.829-9.159,7.829s-.415-4.771,4.13-11.32" transform="translate(-1188.393 -117.527)" fill="#d4d5d9"/>
                </g>
              </g>
            </g>
            <path id="Path_1216" data-name="Path 1216" d="M193.235,132.226l-24.782,138.65a14.868,14.868,0,0,0,14.827,15.96h66.99Z" transform="translate(-112.419 -88.264)" fill="#ed1818"/>
            <path id="Path_1217" data-name="Path 1217" d="M204.937,173.494l-21.258,124.93a14.867,14.867,0,0,0,14.827,15.96H265.5Z" transform="translate(-122.582 -115.811)" fill="#999"/>
            <path id="Path_1218" data-name="Path 1218" d="M232.378,173.494l-7.59,131.13a14.867,14.867,0,0,0,14.827,15.959h66.991Z" transform="translate(-150.024 -115.811)" fill="#c1bfbf"/>
            <path id="Path_1219" data-name="Path 1219" d="M539.676,276.523H288.5a13.267,13.267,0,0,1-12.934-10.32L246.194,137.3l-2.51-11.012-1.663-7.3a13.267,13.267,0,0,1,12.937-16.213H506.13a13.265,13.265,0,0,1,12.934,10.318l3.006,13.2,2.51,11.012,28.03,123.012a13.267,13.267,0,0,1-12.934,16.215" transform="translate(-161.33 -68.601)" fill="#e1e1e1"/>
            <path id="Path_1220" data-name="Path 1220" d="M286.685,349.865a.341.341,0,0,1-.332-.265L280.74,324.97a.341.341,0,0,1,.666-.152l5.612,24.63a.341.341,0,0,1-.257.409.352.352,0,0,1-.076.008" transform="translate(-187.394 -216.646)" fill="#2d2d2d"/>
            <path id="Path_1221" data-name="Path 1221" d="M365.473,491.289H329.494A13.538,13.538,0,0,1,316.227,480.7L303.4,424.412a.341.341,0,1,1,.665-.152l12.828,56.292a12.858,12.858,0,0,0,12.6,10.055h35.979a.341.341,0,0,1,0,.683" transform="translate(-202.52 -283.026)" fill="#2d2d2d"/>
            <path id="Path_1222" data-name="Path 1222" d="M522.07,126.284H243.684l-1.663-7.3a13.266,13.266,0,0,1,12.937-16.213H506.13a13.265,13.265,0,0,1,12.934,10.318Z" transform="translate(-161.329 -68.601)" fill="#ed1818"/>
            <path id="Path_1223" data-name="Path 1223" d="M568.606,232.334h-17a5.586,5.586,0,0,1-5.043-3.951l-4.694-17a2.906,2.906,0,0,1,2.86-3.951h17a5.585,5.585,0,0,1,5.042,3.951l4.694,17a2.906,2.906,0,0,1-2.86,3.951" transform="translate(-361.609 -138.464)" fill="#c1bfbf"/>
            <path id="Path_1224" data-name="Path 1224" d="M666.143,232.334h-17a5.586,5.586,0,0,1-5.042-3.951l-4.694-17a2.906,2.906,0,0,1,2.86-3.951h17a5.585,5.585,0,0,1,5.042,3.951l4.694,17a2.906,2.906,0,0,1-2.86,3.951" transform="translate(-426.717 -138.464)" fill="#c1bfbf"/>
            <path id="Path_1225" data-name="Path 1225" d="M763.679,232.334h-17a5.586,5.586,0,0,1-5.042-3.951l-4.694-17a2.906,2.906,0,0,1,2.86-3.951h17a5.585,5.585,0,0,1,5.042,3.951l4.694,17a2.906,2.906,0,0,1-2.86,3.951" transform="translate(-491.824 -138.464)" fill="#c1bfbf"/>
            <path id="Path_1226" data-name="Path 1226" d="M400.308,329.311h-17a5.585,5.585,0,0,1-5.042-3.951l-4.694-17a2.906,2.906,0,0,1,2.86-3.951h17a5.585,5.585,0,0,1,5.042,3.951l4.694,17a2.906,2.906,0,0,1-2.86,3.951" transform="translate(-249.266 -203.198)" fill="#c1bfbf"/>
            <path id="Path_1227" data-name="Path 1227" d="M497.845,329.311h-17a5.585,5.585,0,0,1-5.042-3.951l-4.694-17a2.906,2.906,0,0,1,2.86-3.951h17a5.585,5.585,0,0,1,5.042,3.951l4.695,17a2.906,2.906,0,0,1-2.86,3.951" transform="translate(-314.374 -203.198)" fill="#c1bfbf"/>
            <path id="Path_1228" data-name="Path 1228" d="M595.38,329.311h-17a5.585,5.585,0,0,1-5.042-3.951l-4.694-17a2.906,2.906,0,0,1,2.86-3.951h17a5.585,5.585,0,0,1,5.042,3.951l4.694,17a2.906,2.906,0,0,1-2.86,3.951" transform="translate(-379.481 -203.198)" fill="#c1bfbf"/>
            <path id="Path_1229" data-name="Path 1229" d="M692.917,329.311h-17a5.585,5.585,0,0,1-5.042-3.951l-4.694-17a2.906,2.906,0,0,1,2.86-3.951h17a5.585,5.585,0,0,1,5.042,3.951l4.695,17a2.906,2.906,0,0,1-2.861,3.951" transform="translate(-444.59 -203.198)" fill="#c1bfbf"/>
            <path id="Path_1230" data-name="Path 1230" d="M790.453,329.311h-17a5.585,5.585,0,0,1-5.042-3.951l-4.694-17a2.906,2.906,0,0,1,2.86-3.951h17a5.585,5.585,0,0,1,5.042,3.951l4.695,17a2.906,2.906,0,0,1-2.86,3.951" transform="translate(-509.696 -203.198)" fill="#c1bfbf"/>
            <path id="Path_1231" data-name="Path 1231" d="M427.083,426.288h-17a5.585,5.585,0,0,1-5.042-3.952l-4.695-17a2.906,2.906,0,0,1,2.861-3.952h17a5.585,5.585,0,0,1,5.042,3.952l4.694,17a2.906,2.906,0,0,1-2.86,3.952" transform="translate(-267.139 -267.931)" fill="#c1bfbf"/>
            <path id="Path_1232" data-name="Path 1232" d="M524.619,426.288h-17a5.585,5.585,0,0,1-5.042-3.952l-4.695-17a2.906,2.906,0,0,1,2.86-3.952h17a5.585,5.585,0,0,1,5.042,3.952l4.694,17a2.906,2.906,0,0,1-2.86,3.952" transform="translate(-332.246 -267.931)" fill="#c1bfbf"/>
            <path id="Path_1233" data-name="Path 1233" d="M622.155,426.288h-17a5.585,5.585,0,0,1-5.042-3.952l-4.694-17a2.906,2.906,0,0,1,2.86-3.952h17a5.585,5.585,0,0,1,5.042,3.952l4.694,17a2.906,2.906,0,0,1-2.86,3.952" transform="translate(-397.354 -267.931)" fill="#c1bfbf"/>
            <path id="Path_1234" data-name="Path 1234" d="M719.691,426.288h-17a5.585,5.585,0,0,1-5.042-3.952l-4.695-17a2.906,2.906,0,0,1,2.861-3.952h17a5.585,5.585,0,0,1,5.042,3.952l4.694,17a2.906,2.906,0,0,1-2.86,3.952" transform="translate(-462.461 -267.931)" fill="#c1bfbf"/>
            <path id="Path_1235" data-name="Path 1235" d="M817.227,426.288h-17a5.585,5.585,0,0,1-5.042-3.952l-4.694-17a2.906,2.906,0,0,1,2.86-3.952h17a5.585,5.585,0,0,1,5.042,3.952l4.694,17a2.906,2.906,0,0,1-2.86,3.952" transform="translate(-527.569 -267.931)" fill="#c1bfbf"/>
            <path id="Path_1236" data-name="Path 1236" d="M861.215,232.334h-17a5.585,5.585,0,0,1-5.042-3.951l-4.695-17a2.906,2.906,0,0,1,2.86-3.951h17a5.585,5.585,0,0,1,5.042,3.951l4.694,17a2.906,2.906,0,0,1-2.86,3.951" transform="translate(-556.932 -138.464)" fill="#ed1818"/>
            <path id="Path_1237" data-name="Path 1237" d="M958.751,232.334h-17a5.585,5.585,0,0,1-5.042-3.951l-4.695-17a2.906,2.906,0,0,1,2.861-3.951h17a5.585,5.585,0,0,1,5.042,3.951l4.694,17a2.906,2.906,0,0,1-2.86,3.951" transform="translate(-622.039 -138.464)" fill="#ed1818"/>
            <path id="Path_1238" data-name="Path 1238" d="M887.989,329.311h-17a5.585,5.585,0,0,1-5.042-3.951l-4.694-17a2.906,2.906,0,0,1,2.86-3.951h17a5.585,5.585,0,0,1,5.042,3.951l4.695,17a2.906,2.906,0,0,1-2.861,3.951" transform="translate(-574.804 -203.198)" fill="#ed1818"/>
            <path id="Path_1239" data-name="Path 1239" d="M985.525,329.311h-17a5.585,5.585,0,0,1-5.042-3.951l-4.694-17a2.906,2.906,0,0,1,2.861-3.951h17a5.585,5.585,0,0,1,5.042,3.951l4.694,17a2.906,2.906,0,0,1-2.86,3.951" transform="translate(-639.912 -203.198)" fill="#ed1818"/>
            <path id="Path_1240" data-name="Path 1240" d="M914.763,426.288h-17a5.585,5.585,0,0,1-5.042-3.952l-4.694-17a2.906,2.906,0,0,1,2.86-3.952h17a5.585,5.585,0,0,1,5.042,3.952l4.694,17a2.906,2.906,0,0,1-2.86,3.952" transform="translate(-592.676 -267.931)" fill="#ed1818"/>
            <path id="Path_1241" data-name="Path 1241" d="M1012.3,426.288h-17a5.585,5.585,0,0,1-5.042-3.952l-4.694-17a2.906,2.906,0,0,1,2.86-3.952h17a5.585,5.585,0,0,1,5.042,3.952l4.694,17a2.906,2.906,0,0,1-2.86,3.952" transform="translate(-657.784 -267.931)" fill="#ed1818"/>
            <path id="Path_1242" data-name="Path 1242" d="M455.133,527.887h-17a5.584,5.584,0,0,1-5.042-3.951l-4.694-17a2.906,2.906,0,0,1,2.86-3.951h17a5.585,5.585,0,0,1,5.042,3.951l4.694,17a2.906,2.906,0,0,1-2.86,3.951" transform="translate(-285.863 -335.752)" fill="#c1bfbf"/>
            <path id="Path_1243" data-name="Path 1243" d="M552.669,527.887h-17a5.585,5.585,0,0,1-5.042-3.951l-4.694-17a2.906,2.906,0,0,1,2.86-3.951h17a5.586,5.586,0,0,1,5.042,3.951l4.694,17a2.906,2.906,0,0,1-2.86,3.951" transform="translate(-350.971 -335.752)" fill="#c1bfbf"/>
            <path id="Path_1244" data-name="Path 1244" d="M650.205,527.887h-17a5.585,5.585,0,0,1-5.042-3.951l-4.694-17a2.906,2.906,0,0,1,2.86-3.951h17a5.585,5.585,0,0,1,5.042,3.951l4.694,17a2.906,2.906,0,0,1-2.86,3.951" transform="translate(-416.078 -335.752)" fill="#c1bfbf"/>
            <path id="Path_1245" data-name="Path 1245" d="M356.478,123.533a2.547,2.547,0,1,1,2.547-2.547,2.55,2.55,0,0,1-2.547,2.547m0-4.074A1.527,1.527,0,1,0,358,120.986a1.528,1.528,0,0,0-1.527-1.527" transform="translate(-236.257 -79.061)" fill="#dce9e7"/>
            <path id="Path_1246" data-name="Path 1246" d="M337.062,89.526a.6.6,0,0,1-.246-1.138c.06-.027,5.993-2.761,7.063-7.32.522-2.226-.2-4.568-2.157-6.962-2.148-2.632-7.231-3.737-11.7-.933-3.882,2.438-4.922,6.631-2.78,11.217a.6.6,0,1,1-1.079.5,10.427,10.427,0,0,1-.817-7.679,9.27,9.27,0,0,1,4.042-5.05c3.906-2.452,10.083-2.7,13.252,1.188,2.2,2.7,3.006,5.385,2.393,7.991a11.2,11.2,0,0,1-4.347,6.035,18.759,18.759,0,0,1-3.384,2.093.592.592,0,0,1-.244.053" transform="translate(-216.908 -46.974)" fill="#161f2c"/>
            <rect id="Rectangle_208" data-name="Rectangle 208" width="5.781" height="5.452" transform="translate(106.696 34.181)" fill="#2d2d2d"/>
            <path id="Path_1247" data-name="Path 1247" d="M472.342,123.533a2.547,2.547,0,1,1,2.547-2.547,2.55,2.55,0,0,1-2.547,2.547m0-4.074a1.527,1.527,0,1,0,1.527,1.527,1.528,1.528,0,0,0-1.527-1.527" transform="translate(-313.599 -79.061)" fill="#dce9e7"/>
            <path id="Path_1248" data-name="Path 1248" d="M452.925,89.526a.6.6,0,0,1-.246-1.138c.06-.027,5.993-2.761,7.064-7.32.522-2.226-.2-4.568-2.157-6.962-2.148-2.632-7.231-3.737-11.7-.933-3.883,2.438-4.922,6.631-2.78,11.217a.595.595,0,1,1-1.078.5,10.427,10.427,0,0,1-.817-7.679,9.271,9.271,0,0,1,4.042-5.05c3.906-2.452,10.083-2.7,13.252,1.188,2.2,2.7,3.006,5.385,2.392,7.991a11.2,11.2,0,0,1-4.346,6.035,18.743,18.743,0,0,1-3.385,2.093.592.592,0,0,1-.244.053" transform="translate(-294.25 -46.974)" fill="#161f2c"/>
            <rect id="Rectangle_209" data-name="Rectangle 209" width="5.781" height="5.452" transform="translate(145.218 34.181)" fill="#2d2d2d"/>
            <path id="Path_1249" data-name="Path 1249" d="M588.2,123.533a2.547,2.547,0,1,1,2.547-2.547,2.55,2.55,0,0,1-2.547,2.547m0-4.074a1.527,1.527,0,1,0,1.527,1.527,1.529,1.529,0,0,0-1.527-1.527" transform="translate(-390.939 -79.061)" fill="#dce9e7"/>
            <path id="Path_1250" data-name="Path 1250" d="M568.787,89.526a.6.6,0,0,1-.245-1.138c.06-.027,5.993-2.761,7.063-7.32.523-2.226-.2-4.568-2.156-6.962-2.148-2.632-7.231-3.737-11.7-.933-3.883,2.438-4.922,6.632-2.78,11.217a.6.6,0,0,1-1.079.5,10.427,10.427,0,0,1-.817-7.679,9.273,9.273,0,0,1,4.042-5.05c3.906-2.453,10.083-2.7,13.252,1.188,2.2,2.7,3.006,5.385,2.392,7.991a11.2,11.2,0,0,1-4.346,6.035,18.739,18.739,0,0,1-3.385,2.093.592.592,0,0,1-.244.053" transform="translate(-371.59 -46.974)" fill="#161f2c"/>
            <rect id="Rectangle_210" data-name="Rectangle 210" width="5.781" height="5.452" transform="translate(183.74 34.181)" fill="#2d2d2d"/>
            <path id="Path_1251" data-name="Path 1251" d="M704.067,123.533a2.547,2.547,0,1,1,2.547-2.547,2.55,2.55,0,0,1-2.547,2.547m0-4.074a1.527,1.527,0,1,0,1.527,1.527,1.528,1.528,0,0,0-1.527-1.527" transform="translate(-468.28 -79.061)" fill="#dce9e7"/>
            <path id="Path_1252" data-name="Path 1252" d="M684.651,89.526a.6.6,0,0,1-.246-1.138c.06-.027,5.993-2.761,7.063-7.32.522-2.226-.2-4.568-2.157-6.962-2.148-2.632-7.231-3.737-11.7-.933-3.882,2.438-4.922,6.632-2.78,11.217a.595.595,0,1,1-1.078.5,10.426,10.426,0,0,1-.817-7.679,9.271,9.271,0,0,1,4.042-5.05c3.906-2.453,10.082-2.7,13.252,1.188,2.2,2.7,3.006,5.385,2.392,7.991a11.2,11.2,0,0,1-4.347,6.035,18.738,18.738,0,0,1-3.385,2.093.592.592,0,0,1-.244.053" transform="translate(-448.932 -46.974)" fill="#161f2c"/>
            <rect id="Rectangle_211" data-name="Rectangle 211" width="5.781" height="5.452" transform="translate(222.262 34.181)" fill="#2d2d2d"/>
            <path id="Path_1253" data-name="Path 1253" d="M819.931,123.533a2.547,2.547,0,1,1,2.547-2.547,2.55,2.55,0,0,1-2.547,2.547m0-4.074a1.527,1.527,0,1,0,1.527,1.527,1.528,1.528,0,0,0-1.527-1.527" transform="translate(-545.622 -79.061)" fill="#dce9e7"/>
            <path id="Path_1254" data-name="Path 1254" d="M800.514,89.527a.6.6,0,0,1-.246-1.138c.06-.027,5.993-2.761,7.063-7.32.523-2.226-.2-4.568-2.156-6.962-2.148-2.632-7.231-3.737-11.7-.933-3.882,2.438-4.922,6.631-2.78,11.217a.6.6,0,0,1-1.079.5,10.426,10.426,0,0,1-.817-7.679,9.27,9.27,0,0,1,4.042-5.05c3.906-2.452,10.083-2.7,13.252,1.188,2.2,2.7,3.006,5.385,2.392,7.991a11.2,11.2,0,0,1-4.347,6.035,18.756,18.756,0,0,1-3.384,2.093.592.592,0,0,1-.244.053" transform="translate(-526.273 -46.974)" fill="#161f2c"/>
            <rect id="Rectangle_212" data-name="Rectangle 212" width="5.781" height="5.452" transform="translate(260.783 34.181)" fill="#2d2d2d"/>
            <path id="Path_1255" data-name="Path 1255" d="M935.794,123.533a2.547,2.547,0,1,1,2.547-2.547,2.551,2.551,0,0,1-2.547,2.547m0-4.074a1.527,1.527,0,1,0,1.526,1.527,1.528,1.528,0,0,0-1.526-1.527" transform="translate(-622.963 -79.061)" fill="#dce9e7"/>
            <path id="Path_1256" data-name="Path 1256" d="M916.377,89.526a.6.6,0,0,1-.246-1.138c.06-.027,5.993-2.761,7.063-7.32.522-2.226-.2-4.568-2.157-6.962-2.148-2.632-7.231-3.737-11.7-.933-3.883,2.438-4.922,6.632-2.78,11.217a.6.6,0,1,1-1.079.5,10.426,10.426,0,0,1-.817-7.679,9.271,9.271,0,0,1,4.042-5.05c3.906-2.453,10.083-2.7,13.252,1.188,2.2,2.7,3.006,5.385,2.392,7.991a11.2,11.2,0,0,1-4.347,6.035,18.745,18.745,0,0,1-3.384,2.093.591.591,0,0,1-.244.053" transform="translate(-603.614 -46.974)" fill="#161f2c"/>
            <rect id="Rectangle_213" data-name="Rectangle 213" width="5.781" height="5.452" transform="translate(299.305 34.181)" fill="#2d2d2d"/>
            <path id="Path_1257" data-name="Path 1257" d="M270.72,601.984s-8.246-8.343-5.408-13.094,7.625,10.206,7.625,10.206-2.483-17.687,2.66-17.994,0,17.994,0,17.994,1.906-4.267,3.768-4.531,1.33,3.618-1.995,7.419Z" transform="translate(-176.705 -387.896)" fill="#e9e9e9"/>
            <path id="Path_1258" data-name="Path 1258" d="M270.694,595.964a37.353,37.353,0,0,1-4.314-5.454c-2.635-4.137-3.263-7.422-1.865-9.763a1.945,1.945,0,0,1,1.862-1.194c1.422.163,3.091,2.393,4.963,6.626.572,1.293,1.078,2.585,1.474,3.653-.454-4.622-.982-13.836,1.576-16.963a2.782,2.782,0,0,1,2.031-1.1,2.123,2.123,0,0,1,1.871.817c2.3,2.851.211,12.862-.934,17.545.855-1.377,2.071-2.914,3.312-3.09a1.206,1.206,0,0,1,1.318.619c.741,1.368-.3,4.843-3.312,8.291l-.453-.4c2.965-3.389,3.785-6.6,3.237-7.609a.613.613,0,0,0-.706-.31c-1.6.226-3.459,3.661-4.042,4.964l-.564-.2c.011-.041,1.136-4.065,1.893-8.475.989-5.766.913-9.556-.218-10.96a1.526,1.526,0,0,0-1.367-.594,2.178,2.178,0,0,0-1.6.882c-3.23,3.947-1.157,19.034-1.136,19.186l-.584.133c-1.076-3.359-4.4-12.14-6.827-12.419-.465-.053-.881.243-1.277.9-3.062,5.128,6,14.393,6.09,14.486Z" transform="translate(-176.086 -381.665)" fill="#2d2d2d"/>
            <path id="Path_1259" data-name="Path 1259" d="M67.193,552.2S56.6,541.483,60.246,535.38s9.794,13.11,9.794,13.11-3.188-22.719,3.417-23.114,0,23.114,0,23.114,2.448-5.482,4.84-5.821,1.709,4.648-2.562,9.529Z" transform="translate(-39.706 -350.698)" fill="#e9e9e9"/>
            <path id="Path_1260" data-name="Path 1260" d="M67.159,544.464a47.951,47.951,0,0,1-5.541-7.006c-3.385-5.314-4.191-9.533-2.4-12.539a2.5,2.5,0,0,1,2.391-1.533c3.11.357,6.517,8.406,8.272,13.175-.185-1.908-.379-4.419-.451-7.062-.205-7.5.627-12.443,2.473-14.7a3.576,3.576,0,0,1,2.609-1.414,2.721,2.721,0,0,1,2.4,1.05c2.951,3.662.272,16.52-1.2,22.536,1.1-1.769,2.66-3.743,4.254-3.969a1.55,1.55,0,0,1,1.693.8c.952,1.757-.38,6.22-4.255,10.649l-.581-.508c3.809-4.353,4.862-8.473,4.157-9.773a.787.787,0,0,0-.906-.4c-2.05.291-4.443,4.7-5.192,6.377l-.724-.262c.015-.052,1.46-5.221,2.431-10.885,1.27-7.406,1.173-12.274-.28-14.078a1.968,1.968,0,0,0-1.756-.763,2.8,2.8,0,0,0-2.057,1.133c-4.15,5.071-1.486,24.449-1.459,24.644l-.75.172c-1.382-4.316-5.65-15.594-8.769-15.952-.6-.07-1.133.312-1.64,1.162-3.933,6.587,7.7,18.488,7.823,18.607Z" transform="translate(-38.911 -342.692)" fill="#2d2d2d"/>
            <path id="Path_1261" data-name="Path 1261" d="M799,602.25s-7.9-7.992-5.181-12.544,7.3,9.778,7.3,9.778-2.379-16.945,2.548-17.239,0,17.239,0,17.239,1.826-4.088,3.61-4.341,1.274,3.467-1.911,7.107Z" transform="translate(-529.509 -388.659)" fill="#e9e9e9"/>
            <path id="Path_1262" data-name="Path 1262" d="M798.97,596.482a35.79,35.79,0,0,1-4.133-5.226c-2.525-3.964-3.126-7.11-1.787-9.353.5-.837,1.1-1.224,1.783-1.143,2.319.267,4.86,6.27,6.169,9.827-.138-1.423-.283-3.3-.336-5.267-.153-5.593.467-9.281,1.844-10.963a2.668,2.668,0,0,1,1.946-1.055,2.035,2.035,0,0,1,1.793.783c2.2,2.732.2,12.322-.895,16.809.82-1.319,1.984-2.792,3.173-2.96a1.157,1.157,0,0,1,1.263.593c.71,1.311-.283,4.639-3.173,7.943l-.433-.379c2.841-3.246,3.626-6.319,3.1-7.289a.587.587,0,0,0-.676-.3c-1.529.217-3.314,3.507-3.872,4.756l-.54-.2c.011-.039,1.089-3.894,1.813-8.119.947-5.523.875-9.154-.209-10.5a1.471,1.471,0,0,0-1.31-.57,2.085,2.085,0,0,0-1.534.845c-3.1,3.782-1.108,18.235-1.088,18.38l-.559.128c-1.03-3.218-4.214-11.63-6.54-11.9-.447-.054-.845.232-1.224.866-2.935,4.914,5.747,13.789,5.834,13.878Z" transform="translate(-528.916 -382.689)" fill="#2d2d2d"/>
            <path id="Path_1263" data-name="Path 1263" d="M921.205,667.55s-8.2-8.3-5.381-13.027,7.586,10.155,7.586,10.155-2.47-17.6,2.646-17.9,0,17.9,0,17.9,1.9-4.245,3.749-4.508,1.323,3.6-1.985,7.38Z" transform="translate(-610.939 -431.735)" fill="#e9e9e9"/>
            <path id="Path_1264" data-name="Path 1264" d="M921.18,661.561a37.088,37.088,0,0,1-4.292-5.427c-2.622-4.116-3.246-7.384-1.855-9.712a1.931,1.931,0,0,1,1.852-1.187c1.414.162,3.075,2.38,4.937,6.591.569,1.286,1.072,2.571,1.466,3.634-.451-4.6-.977-13.765,1.569-16.875a2.768,2.768,0,0,1,2.021-1.1,2.11,2.11,0,0,1,1.862.813c2.286,2.836.211,12.8-.929,17.455.852-1.37,2.06-2.9,3.3-3.074a1.2,1.2,0,0,1,1.312.616c.737,1.361-.295,4.818-3.3,8.248l-.45-.394c2.95-3.371,3.765-6.562,3.22-7.569a.612.612,0,0,0-.7-.309c-1.588.225-3.441,3.642-4.021,4.939l-.561-.2c.011-.04,1.131-4.045,1.883-8.431.984-5.736.909-9.506-.217-10.9a1.523,1.523,0,0,0-1.36-.591,2.166,2.166,0,0,0-1.593.877c-3.214,3.928-1.151,18.937-1.13,19.088l-.581.133c-1.07-3.342-4.376-12.078-6.792-12.355-.463-.053-.877.242-1.27.9-3.047,5.1,5.967,14.319,6.059,14.412Z" transform="translate(-610.324 -425.535)" fill="#2d2d2d"/>
            <path id="Path_1265" data-name="Path 1265" d="M546.748,669.661s-8.8-8.9-5.77-13.97,8.135,10.89,8.135,10.89-2.649-18.87,2.838-19.2,0,19.2,0,19.2,2.034-4.553,4.021-4.835,1.419,3.861-2.128,7.915Z" transform="translate(-360.692 -432.14)" fill="#e9e9e9"/>
            <path id="Path_1266" data-name="Path 1266" d="M546.72,663.237a39.828,39.828,0,0,1-4.6-5.82c-2.812-4.414-3.481-7.918-1.99-10.415a2.076,2.076,0,0,1,1.986-1.273c1.517.174,3.3,2.552,5.3,7.069.61,1.379,1.15,2.758,1.572,3.9-.484-4.931-1.048-14.762,1.682-18.1a2.972,2.972,0,0,1,2.167-1.175,2.263,2.263,0,0,1,2,.872c2.451,3.042.226,13.722-1,18.719.913-1.47,2.21-3.109,3.534-3.3a1.288,1.288,0,0,1,1.407.661c.79,1.459-.316,5.167-3.535,8.846l-.483-.422c3.164-3.616,4.038-7.038,3.453-8.118a.653.653,0,0,0-.752-.331c-1.7.242-3.691,3.905-4.313,5.3l-.6-.218c.012-.043,1.213-4.337,2.02-9.042,1.055-6.152.974-10.195-.233-11.693a1.637,1.637,0,0,0-1.459-.634,2.326,2.326,0,0,0-1.709.941c-3.446,4.211-1.234,20.308-1.212,20.47l-.623.142c-1.147-3.585-4.693-12.953-7.284-13.25-.494-.058-.941.259-1.362.965-3.268,5.473,6.4,15.356,6.5,15.456Z" transform="translate(-360.031 -425.49)" fill="#2d2d2d"/>
            <path id="Path_1267" data-name="Path 1267" d="M1201.535,551.894s-4.472-4.524-2.933-7.1,4.135,5.535,4.135,5.535-1.346-9.593,1.443-9.759,0,9.759,0,9.759,1.034-2.314,2.043-2.458.722,1.963-1.082,4.023Z" transform="translate(-799.879 -360.84)" fill="#e9e9e9"/>
            <path id="Path_1268" data-name="Path 1268" d="M1201.521,548.628a20.3,20.3,0,0,1-2.34-2.958c-1.429-2.244-1.769-4.025-1.011-5.294a1.053,1.053,0,0,1,1.01-.648c.771.088,1.676,1.3,2.691,3.593.31.7.585,1.4.8,1.981-.246-2.507-.533-7.5.855-9.2a1.51,1.51,0,0,1,1.1-.6,1.148,1.148,0,0,1,1.015.444c1.246,1.546.115,6.975-.507,9.516.464-.747,1.123-1.58,1.8-1.676a.655.655,0,0,1,.715.336c.4.742-.161,2.626-1.8,4.5l-.245-.215c1.608-1.838,2.053-3.577,1.755-4.126a.332.332,0,0,0-.383-.168c-.865.123-1.875,1.986-2.192,2.693l-.306-.11c.024-.087,2.413-8.673.908-10.541a.831.831,0,0,0-.741-.322,1.179,1.179,0,0,0-.868.478c-1.752,2.141-.628,10.323-.616,10.406l-.317.072c-.583-1.823-2.385-6.584-3.7-6.736-.253-.029-.478.132-.693.491-1.66,2.781,3.253,7.806,3.3,7.856Z" transform="translate(-799.543 -357.46)" fill="#161f2c"/>
            <path id="Path_1269" data-name="Path 1269" d="M900.591,297.764s-5.875,8.475-13.363,9.361c-4.438.525-12.238-4.2-12.238-4.2L896.534,288Z" transform="translate(-584.075 -192.248)" fill="#ed805f"/>
            <path id="Path_1270" data-name="Path 1270" d="M1101.057,648.357s-.224,4.295-3.164,5.428-11.4,2-8.322,4.848c1.764,1.634,10.305.84,12.708.9s4.632,1.173,6.462-.387c2.013-1.717.285-10.578.285-10.578a9.6,9.6,0,0,1-3.967.926,7.654,7.654,0,0,1-4-1.141" transform="translate(-726.871 -432.793)" fill="#161f2c"/>
            <path id="Path_1271" data-name="Path 1271" d="M1064.186,268.693c.562,8.916-3.98,34.826-3.24,53.011,1.494,36.724,15.072,72.466,23.644,72.281l2.483.167a8.5,8.5,0,0,0,8.945-8.97s-4.329-35.135-5.022-45.731c-1.4-21.387,8.792-59.97,8.792-59.97s-36.523-25.415-35.6-10.787" transform="translate(-708.151 -176.329)" fill="#2d2d2d"/>
            <path id="Path_1272" data-name="Path 1272" d="M1176.4,634.3s-.224,4.294-3.164,5.428-11.395,2-8.321,4.848c1.763,1.634,10.3.84,12.708.9s4.632,1.173,6.462-.387c2.013-1.717.285-10.578.285-10.578a9.6,9.6,0,0,1-3.967.926,7.655,7.655,0,0,1-4-1.141" transform="translate(-777.167 -423.411)" fill="#161f2c"/>
            <path id="Path_1273" data-name="Path 1273" d="M1139.533,246.343c.562,8.916-3.98,34.825-3.24,53.011,1.494,36.724,15.072,72.466,23.644,72.281l2.483.167a8.5,8.5,0,0,0,8.945-8.97s-4.329-35.135-5.022-45.731c-.751-11.482,1.839-27.92,4.4-40.684,2.546-12.7-1.856-31.692-13.56-37.232-8.35-3.952-18.077.34-17.648,7.159" transform="translate(-758.446 -158.652)" fill="#2d2d2d"/>
            <path id="Path_1274" data-name="Path 1274" d="M1172.649,109.477c-11.529-23.183-43.857-27.514-43.857-27.514s20.718,53.348,24.914,50.14c7.171-5.483,18.222-9.288,18.943-22.626" transform="translate(-753.494 -54.712)" fill="#64cdd8"/>
            <path id="Path_1275" data-name="Path 1275" d="M1397.678,72.086l12.4-4.315c1.032-.359,2.354.493,3.022,1.948l.56,1.22c.7,1.525.427,3.148-.611,3.625l-11.757,5.4Z" transform="translate(-932.981 -45.184)" fill="#161f2c"/>
            <path id="Path_1276" data-name="Path 1276" d="M764.058,348.937s-3.31,2.228-2.835,2.925c.767,1.124,4.066-.244,4.066-.244Z" transform="translate(-508.102 -232.923)" fill="#161f2c"/>
            <path id="Path_1277" data-name="Path 1277" d="M1167.791,81.594a1.871,1.871,0,0,1-.848-3.54l58.772-29.837a5.365,5.365,0,0,1,6.387,1.177c.034.038.068.077.1.118l4.77,6.215A1.871,1.871,0,0,1,1234,58.005l-4.714-6.143a1.614,1.614,0,0,0-1.879-.309l-58.772,29.837a1.864,1.864,0,0,1-.845.2" transform="translate(-778.276 -31.801)" fill="#161f2c"/>
            <path id="Path_1278" data-name="Path 1278" d="M832.551,158.975,1021.505,80.74c1.806-.852,2.7-7.679-.963-13.842l-2.053-4.469a3.641,3.641,0,0,0-4.762-1.819l-188.24,79.259Z" transform="translate(-551.031 -40.255)" fill="#2d2d2d"/>
            <path id="Path_1279" data-name="Path 1279" d="M1281.43,95.576s8.168,8.83,6.962,20.278l-13.766,5.7s.474-11.786-7.457-19.974Z" transform="translate(-845.864 -63.799)" fill="#161f2c"/>
            <path id="Path_1280" data-name="Path 1280" d="M769.655,315.857l1.126,2.451a1.911,1.911,0,0,0,1.78,1.1l19.846-.338a6.42,6.42,0,0,0,6.153-4.814,10.406,10.406,0,0,0-1.307-7.689c-2.173-3.887-4.262-5.792-5.987-6.678a5.094,5.094,0,0,0-5.66.778L769.959,314.49a1.172,1.172,0,0,0-.3,1.367" transform="translate(-513.693 -199.828)" fill="#677282"/>
            <path id="Path_1281" data-name="Path 1281" d="M1341.386,117.093a.288.288,0,0,1-.107-.555l21.327-8.575a.288.288,0,1,1,.215.534l-21.327,8.575a.3.3,0,0,1-.107.021" transform="translate(-895.213 -72.054)" fill="#161f2c"/>
            <path id="Path_1282" data-name="Path 1282" d="M1064.747,51.446l-3.7-4.869-1.076-1.417-6.325-8.335,2.76,9.489,1.658,5.7.525,1.8c.356,1.224-.35,1.746-.957,3.121-.246.557-1.87,3.979,1.359,4.179,4.022.251,9.879-4.183,11.413-7.908-.021,0-4.467-.185-5.661-1.758" transform="translate(-703.336 -24.582)" fill="#ed805f"/>
            <path id="Path_1283" data-name="Path 1283" d="M1030.316,27.456c-1.092-5.78,2.181-11.333,7.31-12.4s10.172,2.746,11.264,8.526-2.181,11.333-7.311,12.4-10.172-2.746-11.264-8.526" transform="translate(-687.619 -9.927)" fill="#ed805f"/>
            <path id="Path_1284" data-name="Path 1284" d="M1020.016,14.695c-5.082,1.924-8.511.016-9.436-2.515-1.186-3.246.049-6.9,3.044-6.557s.875-2.266,3.252-3.426c4.441-2.167,6.352.6,10.2-.537,5.077-1.5,13.421,4.311,11.142,11.394,0,0-14.19.122-18.2,1.641" transform="translate(-674.287 -0.895)" fill="#161f2c"/>
            <path id="Path_1285" data-name="Path 1285" d="M1022.716,18.712s7.162,3.048,7.375,6.058.764,4.031,4.474,4.416,1.688,3.742,6.023,2.463,7.982-7.75,5.363-15.465a11.763,11.763,0,0,0-5.076-6.212Z" transform="translate(-682.686 -6.657)" fill="#161f2c"/>
            <path id="Path_1286" data-name="Path 1286" d="M1036.213,53.989a2.058,2.058,0,0,1,2.37-1.418,1.74,1.74,0,0,1,1.123,2.319,2.058,2.058,0,0,1-2.37,1.417,1.739,1.739,0,0,1-1.123-2.318" transform="translate(-691.623 -35.057)" fill="#ed805f"/>
            <path id="Path_1287" data-name="Path 1287" d="M1098.612,37.835a.135.135,0,0,1-.114-.063,3.1,3.1,0,0,0-1.885-1.19.135.135,0,1,1,.047-.265,3.322,3.322,0,0,1,2.067,1.311.135.135,0,0,1-.043.186.138.138,0,0,1-.072.021" transform="translate(-731.939 -24.241)" fill="#161f2c"/>
            <path id="Path_1288" data-name="Path 1288" d="M1096.026,31.214a.135.135,0,0,1-.05-.26c.014-.006,1.374-.572,1.234-1.635a.135.135,0,1,1,.267-.035c.167,1.271-1.336,1.895-1.4,1.92a.134.134,0,0,1-.051.01" transform="translate(-731.532 -19.469)" fill="#161f2c"/>
            <path id="Path_1289" data-name="Path 1289" d="M1010.884,8.109a.135.135,0,0,1-.078-.245,2.569,2.569,0,0,1,2.49-.4,3.71,3.71,0,0,0,1.149.156.672.672,0,0,0,.53-.27c.431-.574.15-1.837.147-1.85a.135.135,0,1,1,.263-.06,3.066,3.066,0,0,1-.195,2.072.936.936,0,0,1-.73.377,3.9,3.9,0,0,1-1.23-.163,2.294,2.294,0,0,0-2.268.363.133.133,0,0,1-.078.025" transform="translate(-674.698 -3.559)" fill="#161f2c"/>
            <path id="Path_1290" data-name="Path 1290" d="M1050.3.739a6.194,6.194,0,0,1-2.185-.407.135.135,0,0,1,.1-.249,5.409,5.409,0,0,0,4.073-.069.135.135,0,1,1,.124.24,4.585,4.585,0,0,1-2.114.485" transform="translate(-699.586 0)" fill="#161f2c"/>
            <path id="Path_1291" data-name="Path 1291" d="M1042.165,60.2a.065.065,0,0,1,0-.13c.052,0,1.281-.049,1.574-1.777a.065.065,0,0,1,.128.022c-.312,1.838-1.685,1.885-1.7,1.886Z" transform="translate(-695.625 -38.873)" fill="#161f2c"/>
            <path id="Path_1292" data-name="Path 1292" d="M1063.2,298.539c8.325-2.759,37.908-13.315,57.059-15.056a3.219,3.219,0,0,0,.251-3.685c-3.539-6.089-28.115-1.758-28.115-1.758l-19.873,7.294-5.711,3.4-5.112,8.183s.3,2.017,1.5,1.62" transform="translate(-708.708 -184.601)" fill="#161f2c"/>
            <path id="Path_1293" data-name="Path 1293" d="M1066.734,88.323s-8.073-13.19-28.157-6.373c-35,11.88-18.54,37.281-6.376,83.765,0,0,23.949-12.548,58.811-17.121,0,0-5.163-25.658-16.321-45.043-2.947-5.119-4.725-11.005-7.957-15.228" transform="translate(-679.21 -53.398)" fill="#64cdd8"/>
            <path id="Path_1294" data-name="Path 1294" d="M1012.712,90.549s-11.173,3.974-16.848,14.688-3.779,19.41-9.862,29.437c-4.484,7.392,4.547,17.4,11.17,15.338s10.893-8.823,10.893-8.823Z" transform="translate(-657.376 -60.443)" fill="#64cdd8"/>
            <path id="Path_1295" data-name="Path 1295" d="M1194.3,167.277c-5.424-19.878-17.487-41.939-17.608-42.16l.228-.125c.121.221,12.2,22.309,17.631,42.217Z" transform="translate(-785.47 -83.435)" fill="#161f2c"/>
            <path id="Path_1296" data-name="Path 1296" d="M918.823,310.3s-4.843-3.215-9.632.312c-1.717,1.264-6.412-.459-5.679,1.309s6.2,4.046,5.755,5.679,9.556-7.3,9.556-7.3" transform="translate(-603.063 -206.234)" fill="#ed805f"/>
            <path id="Path_1297" data-name="Path 1297" d="M1153.7,425.517c-3.644-15.9-.865-32.478,2.109-43.59a122.376,122.376,0,0,1,7.4-20.51l.408.2a121.857,121.857,0,0,0-7.37,20.435c-2.959,11.059-5.725,27.559-2.1,43.361Z" transform="translate(-768.964 -241.254)" fill="#161f2c"/>
            <path id="Path_1298" data-name="Path 1298" d="M933.832,253.891c4.825,2.229,36.532-11.893,40.052-27.873,3.743-16.991-24.978-7.769-24.978-7.769l-19.675,28.38a7.85,7.85,0,0,0,4.6,7.262" transform="translate(-620.281 -144.018)" fill="#64cdd8"/>
            <path id="Path_1299" data-name="Path 1299" d="M1044.261,223.391l-.211-.152c8-11.133,10.745-27.412,10.772-27.575l.256.042c-.027.164-2.786,16.5-10.817,27.684" transform="translate(-696.927 -130.61)" fill="#161f2c"/>
            <path id="Path_1300" data-name="Path 1300" d="M675.791,333.7a6.834,6.834,0,0,1-2.039-.281,4.321,4.321,0,0,1-2.9-2.847c-1.027-2.935.311-7.666,3.671-12.98a38.685,38.685,0,0,1,11.708-12.075c4.628-2.789,8.607-2.784,11.2.013a7.716,7.716,0,0,1,2.295,6.757c-.492,2.842-2.615,5.773-6.31,8.713a37,37,0,0,1-5.361,3.546.48.48,0,1,1-.443-.852c.1-.053,10.086-5.319,11.168-11.572a6.806,6.806,0,0,0-2.053-5.938c-2.89-3.112-7.036-1.633-10,.156-8.645,5.21-16.9,18.4-14.967,23.915a3.362,3.362,0,0,0,2.283,2.248c6.821,2.132,24.031-10.281,24.2-10.407a.48.48,0,0,1,.565.778c-.662.48-15.011,10.825-23.015,10.826" transform="translate(-447.581 -202.545)" fill="#161f2c"/>
          </g>
        </g>
      </g>
    </g>
  </g>
</svg>
