<svg id="Group_184" data-name="Group 184" xmlns="http://www.w3.org/2000/svg" xmlns:xlink="http://www.w3.org/1999/xlink" width="75.34" height="136.797" viewBox="0 0 75.34 136.797">
  <defs>
    <clipPath id="clip-path">
      <path id="Path_934" data-name="Path 934" d="M8.2,104.171a23.878,23.878,0,0,1,15.98-22.452c4.725-1.655,8.715-4.337,9.8-9.512a18.119,18.119,0,0,0,.332-3.561,13.905,13.905,0,0,0-1.5-7.226c-1.746-3.113-4.834-4.879-8.136-5.954A23.881,23.881,0,0,1,8.2,32.846V9.072H67.138V32.846a23.878,23.878,0,0,1-15.028,22.1c-6.136,2.448-9.385,6.688-9.668,13.233-.3,6.81,3.45,11.408,9.688,13.906a23.873,23.873,0,0,1,15.007,22.088v23.774H8.2ZM4.965,5.837V32.846a27.116,27.116,0,0,0,18.709,25.7c6.933,2.256,7.437,6.278,7.4,10.072-.038,3.875-.765,7.529-7.964,10.05A27.115,27.115,0,0,0,4.965,104.171v26.64A4.98,4.98,0,0,0,0,135.776v1.02H75.34v-1.02a4.979,4.979,0,0,0-4.965-4.965v-26.64A27.11,27.11,0,0,0,53.334,79.078c-6.239-2.5-7.841-6.563-7.659-10.76.188-4.349,1.846-8.058,7.634-10.369a27.109,27.109,0,0,0,17.065-25.1V5.837ZM.341,0V1.212A4.638,4.638,0,0,0,4.965,5.837H70.373A4.638,4.638,0,0,0,75,1.212V0Z" transform="translate(0)" fill="none"/>
    </clipPath>
    <clipPath id="clip-path-2">
      <rect id="Rectangle_128" data-name="Rectangle 128" width="75.34" height="136.796" fill="none"/>
    </clipPath>
    <clipPath id="clip-path-3">
      <path id="Path_936" data-name="Path 936" d="M6.853,29.737A23.943,23.943,0,0,0,21.267,42.72c3.3,1.075,6.391,2.841,8.136,5.954A13.905,13.905,0,0,1,30.9,55.9c-.006.6-.027,1.2-.078,1.793.135,13.621,0,57.506,0,57.506h7.957V56.105l.238-.127c0-.181,0-.363.014-.548.283-6.545,3.532-10.785,9.668-13.233a23.869,23.869,0,0,0,7.68-4.95c1.045-1.133,3.082-2.542,2.957-4.56-.224-3.514-3.235-4.994-7.284-5.213a35.678,35.678,0,0,0-8.046.682c-4.128.688-8.054,1.377-12.842-.476-1.862-.72-4.545-1.985-7.481-3.093a35.728,35.728,0,0,0-10.954-2.006c-4.7,0-8.393,1.6-5.879,7.154" transform="translate(-6.039 -22.583)" fill="none"/>
    </clipPath>
  </defs>
  <g id="Group_177" data-name="Group 177" transform="translate(0)">
    <g id="Group_176" data-name="Group 176" clip-path="url(#clip-path)">
      <rect id="Rectangle_127" data-name="Rectangle 127" width="75.34" height="136.798" transform="translate(0 -0.001)" fill="#2d2d2d"/>
    </g>
  </g>
  <g id="Group_179" data-name="Group 179" transform="translate(0 0.001)">
    <g id="Group_178" data-name="Group 178" clip-path="url(#clip-path-2)">
      <path id="Path_935" data-name="Path 935" d="M5.243,124.672V100.9a23.881,23.881,0,0,1,15.98-22.454c4.725-1.652,8.715-4.335,9.8-9.51a18.119,18.119,0,0,0,.332-3.561,13.872,13.872,0,0,0-1.5-7.226c-1.746-3.113-4.832-4.879-8.135-5.954A23.88,23.88,0,0,1,5.243,29.573V5.8H64.179V29.573A23.875,23.875,0,0,1,49.15,51.67c-6.134,2.448-9.385,6.686-9.666,13.233-.3,6.81,3.45,11.408,9.688,13.906A23.873,23.873,0,0,1,64.179,100.9v23.774Z" transform="translate(2.959 3.272)" fill="#fff" fill-rule="evenodd"/>
    </g>
  </g>
  <g id="Group_181" data-name="Group 181" transform="translate(9.447 35.329)">
    <g id="Group_180" data-name="Group 180" clip-path="url(#clip-path-3)">
      <rect id="Rectangle_129" data-name="Rectangle 129" width="57.243" height="95.687" transform="translate(-3.817 -3.07)" fill="#ed1818"/>
      <path id="Path_1047" data-name="Path 1047" d="M6.853,29.737A23.943,23.943,0,0,0,21.267,42.72c3.3,1.075,6.391,2.841,8.136,5.954A13.905,13.905,0,0,1,30.9,55.9c-.006.6-.027,1.2-.078,1.793.135,13.621,0,57.506,0,57.506h7.957V56.105l.238-.127c0-.181,0-.363.014-.548.283-6.545,3.532-10.785,9.668-13.233a23.869,23.869,0,0,0,7.68-4.95c1.045-1.133,3.082-2.542,2.957-4.56-.224-3.514-3.235-4.994-7.284-5.213a35.678,35.678,0,0,0-8.046.682c-4.128.688-8.054,1.377-12.842-.476-1.862-.72-4.545-1.985-7.481-3.093a35.728,35.728,0,0,0-10.954-2.006c-4.7,0-8.393,1.6-5.879,7.154" transform="translate(-6.039 -22.583)" fill="none"/>
    </g>
  </g>
  <g id="Group_183" data-name="Group 183" transform="translate(0 0.001)">
    <g id="Group_182" data-name="Group 182" clip-path="url(#clip-path-2)">
      <path id="Path_937" data-name="Path 937" d="M23.136,26.469c6.89,1.948,12.118-1.136,19.269-.748,4.05.221,7.062,1.7,7.284,5.214C38.8,33.249,23.136,26.469,23.136,26.469Z" transform="translate(13.058 14.497)" fill="#b21212" fill-rule="evenodd"/>
      <path id="Path_938" data-name="Path 938" d="M34.813,67.788s.986,11.73,6.336,14.1,7.666,4.365,6.894,6.275-1.7,1.912-1.7,1.912H13.78A4.272,4.272,0,0,1,14.962,84.2c3.395-2.469,5.247.937,9.164-4.735s2.215-12.188,3.193-12.342,7.493.666,7.493.666" transform="translate(7.377 37.872)" fill="#ed1818" fill-rule="evenodd"/>
      <path id="Path_939" data-name="Path 939" d="M47.638,79.559a2.129,2.129,0,0,1,.405,2.165c-.773,1.912-1.7,1.912-1.7,1.912H13.778a4.785,4.785,0,0,1-.588-3.448,7.6,7.6,0,0,0,1.42.749c2.486,1.009,2.99-1.436,9.4-2.29s10.805,2.484,18.1,2.8c3.456.147,4.934-.823,5.535-1.884" transform="translate(7.377 44.31)" fill="#b21212" fill-rule="evenodd"/>
      <path id="Path_940" data-name="Path 940" d="M13.593,8h0a3.775,3.775,0,0,0-3.764,3.764V22.834a3.764,3.764,0,1,0,7.528,0V11.763A3.776,3.776,0,0,0,13.593,8" transform="translate(5.548 4.514)" fill="#ededed" fill-rule="evenodd"/>
      <path id="Path_941" data-name="Path 941" d="M13.593,61.407h0a3.775,3.775,0,0,0-3.764,3.764V76.242a3.764,3.764,0,0,0,7.528,0V65.171a3.776,3.776,0,0,0-3.764-3.764" transform="translate(5.548 34.658)" fill="#ededed" fill-rule="evenodd"/>
    </g>
  </g>
</svg>
