<svg id="Group_35" data-name="Group 35" xmlns="http://www.w3.org/2000/svg" xmlns:xlink="http://www.w3.org/1999/xlink" width="85.296" height="85.296" viewBox="0 0 85.296 85.296">
  <defs>
    <clipPath id="clip-path">
      <rect id="Rectangle_27" data-name="Rectangle 27" width="85.296" height="85.296" fill="none"/>
    </clipPath>
  </defs>
  <g id="Group_34" data-name="Group 34" transform="translate(0 0)" clip-path="url(#clip-path)">
    <path id="Path_273" data-name="Path 273" d="M21.235,63.049,2.088,71.666A1.47,1.47,0,0,1,.141,69.719L8.758,50.571Z" transform="translate(0.002 13.493)" fill="#fac176"/>
    <path id="Path_274" data-name="Path 274" d="M59.231,23.8l.545.545a2.941,2.941,0,0,0,4.161,0l2.074-2.089a2.931,2.931,0,0,0,0-4.146L53.527,5.624a2.93,2.93,0,0,0-4.148,0L47.29,7.7a2.944,2.944,0,0,0,0,4.162Z" transform="translate(12.388 1.271)" fill="#2d2d2d"/>
    <path id="Path_275" data-name="Path 275" d="M24.74,73.047a34.639,34.639,0,0,0,10.7,4.146l1.448,6.927A1.471,1.471,0,0,0,38.331,85.3H46.97a1.47,1.47,0,0,0,1.439-1.177l1.447-6.927a34.482,34.482,0,0,0,12.118-5.029L67.9,76.054a1.474,1.474,0,0,0,1.847-.19l6.116-6.117a1.469,1.469,0,0,0,.191-1.844l-3.889-5.927a34.466,34.466,0,0,0,5.029-12.117l6.926-1.447A1.471,1.471,0,0,0,85.3,46.97V38.333a1.471,1.471,0,0,0-1.177-1.44l-6.926-1.447A34.649,34.649,0,0,0,73.046,24.74c-.117-.22-.263-.455-.41-.676-.147-.25-.31-.485-.471-.72L76.054,17.4a1.467,1.467,0,0,0-.191-1.844L69.746,9.44A1.471,1.471,0,0,0,67.9,9.248l-5.94,3.889c-.236-.161-.47-.323-.721-.47-.22-.147-.456-.294-.676-.412A34.633,34.633,0,0,0,49.856,8.109L48.409,1.177A1.47,1.47,0,0,0,46.97,0H38.331a1.471,1.471,0,0,0-1.439,1.177L35.444,8.109a34.51,34.51,0,0,0-12.117,5.028L17.4,9.249a1.469,1.469,0,0,0-1.846.191L9.439,15.558A1.471,1.471,0,0,0,9.248,17.4l3.889,5.926A34.489,34.489,0,0,0,8.108,35.446L1.176,36.892A1.469,1.469,0,0,0,0,38.333V46.97a1.469,1.469,0,0,0,1.176,1.44l6.932,1.447a34.629,34.629,0,0,0,4.148,10.706Z" transform="translate(0 -0.001)" fill="#2d2d2d"/>
    <path id="Path_276" data-name="Path 276" d="M26.945,67.691a30.165,30.165,0,0,0,13.162,2.99A30.573,30.573,0,1,0,9.535,40.108a30.2,30.2,0,0,0,2.988,13.162Z" transform="translate(2.544 2.544)" fill="#eef6ff"/>
    <path id="Path_277" data-name="Path 277" d="M32.031,48.663,48.662,32.031a13.688,13.688,0,0,1,.147,2.074A14.7,14.7,0,0,1,34.1,48.81a13.675,13.675,0,0,1-2.074-.147" transform="translate(8.547 8.546)" fill="#2c2f38"/>
    <path id="Path_278" data-name="Path 278" d="M18.08,69.754l3.5-3.5,6.514-6.514,9.324-9.324L54.049,33.784a14.627,14.627,0,0,0-4.161-8.323L11.845,63.5Z" transform="translate(3.16 6.793)" fill="#ed1818"/>
    <path id="Path_279" data-name="Path 279" d="M13.161,64.38,51.2,26.338a14.631,14.631,0,0,0-8.323-4.162L27.131,37.925,6.911,58.146Z" transform="translate(1.844 5.917)" fill="#b7092b"/>
    <path id="Path_280" data-name="Path 280" d="M.136,67.2l3.235-7.192A17.921,17.921,0,0,1,6.71,62.638a18.271,18.271,0,0,1,2.6,3.265L2.092,69.154A1.481,1.481,0,0,1,.136,67.2" transform="translate(0.002 16.01)" fill="#2c2f38"/>
    <path id="Path_281" data-name="Path 281" d="M38.839,22.207,22.207,38.838a13.658,13.658,0,0,1-.147-2.073A14.705,14.705,0,0,1,36.765,22.06a13.686,13.686,0,0,1,2.074.147" transform="translate(5.886 5.886)" fill="#2c2f38"/>
    <path id="Path_282" data-name="Path 282" d="M64.52,19.16,52.042,6.682,56.2,2.523a5.882,5.882,0,0,1,8.318,0l4.159,4.159a5.88,5.88,0,0,1,0,8.318Z" transform="translate(13.886 0.213)" fill="#ed1818"/>
  </g>
</svg>
