<svg xmlns="http://www.w3.org/2000/svg" xmlns:xlink="http://www.w3.org/1999/xlink" width="84.439" height="84.439" viewBox="0 0 84.439 84.439">
  <defs>
    <clipPath id="clip-path">
      <rect id="Rectangle_25" data-name="Rectangle 25" width="84.439" height="84.439" fill="none"/>
    </clipPath>
  </defs>
  <g id="Group_31" data-name="Group 31" transform="translate(0 0)">
    <g id="Group_30" data-name="Group 30" transform="translate(0 0)" clip-path="url(#clip-path)">
      <path id="Path_249" data-name="Path 249" d="M50.63,82.57H7.421A7.43,7.43,0,0,1,0,75.148v-59.7A7.429,7.429,0,0,1,7.421,8.026H50.63a7.43,7.43,0,0,1,7.422,7.422v59.7A7.431,7.431,0,0,1,50.63,82.57" transform="translate(0 1.87)" fill="#2d2d2d"/>
      <path id="Path_250" data-name="Path 250" d="M45.147,8.026h-21.6V82.57h21.6a7.431,7.431,0,0,0,7.422-7.422v-59.7a7.43,7.43,0,0,0-7.422-7.422" transform="translate(5.483 1.87)" fill="#2d2d2d"/>
      <path id="Rectangle_22" data-name="Rectangle 22" d="M2.006,0H46.15a2.006,2.006,0,0,1,2.006,2.006V62.643a2.006,2.006,0,0,1-2.006,2.006H2.007A2.007,2.007,0,0,1,0,62.642V2.006A2.006,2.006,0,0,1,2.006,0Z" transform="translate(4.948 14.843)" fill="#f2faff"/>
      <path id="Path_251" data-name="Path 251" d="M45.147,12.039h-21.6V76.688h21.6a2.476,2.476,0,0,0,2.473-2.473v-59.7a2.476,2.476,0,0,0-2.473-2.474" transform="translate(5.483 2.804)" fill="#eef6ff"/>
      <path id="Path_252" data-name="Path 252" d="M15.108,34.609a2.466,2.466,0,0,1-1.751-.725L8.693,29.219a2.474,2.474,0,1,1,3.5-3.5l2.916,2.916,7.579-7.58a2.474,2.474,0,0,1,3.5,3.5l-9.329,9.329a2.463,2.463,0,0,1-1.748.725" transform="translate(1.856 4.736)" fill="#ed1818"/>
      <path id="Path_253" data-name="Path 253" d="M15.108,47.776a2.466,2.466,0,0,1-1.751-.725L8.693,42.387a2.474,2.474,0,1,1,3.5-3.5L15.108,41.8l7.579-7.58a2.474,2.474,0,0,1,3.5,3.5l-9.329,9.328a2.463,2.463,0,0,1-1.748.725" transform="translate(1.856 7.802)" fill="#ed1818"/>
      <path id="Path_254" data-name="Path 254" d="M19.213,55.845l3.2-3.2a2.474,2.474,0,0,0-3.5-3.5l-3.2,3.2-3.2-3.2a2.474,2.474,0,0,0-3.5,3.5l3.2,3.2-3.2,3.2a2.474,2.474,0,1,0,3.5,3.5l3.2-3.2,3.2,3.2a2.474,2.474,0,1,0,3.5-3.5Z" transform="translate(1.931 11.278)" fill="#ed1818"/>
      <path id="Path_255" data-name="Path 255" d="M39.7,19.791H13.308a2.474,2.474,0,0,1-2.473-2.474v-3.3A7.431,7.431,0,0,1,17.77,6.612a9.073,9.073,0,0,1,17.465,0,7.432,7.432,0,0,1,6.935,7.406v3.3A2.475,2.475,0,0,1,39.7,19.791M35.573,9.07h0Z" transform="translate(2.524 0)" fill="#b7092b"/>
      <path id="Path_256" data-name="Path 256" d="M32.276,6.612A9.087,9.087,0,0,0,23.543,0V19.789H36.736a2.473,2.473,0,0,0,2.474-2.473v-3.3a7.431,7.431,0,0,0-6.935-7.406" transform="translate(5.483 0)" fill="#ed1818"/>
      <path id="Path_257" data-name="Path 257" d="M26.581,56.236a2.473,2.473,0,0,1-.337-3.077l8.163-12.827A2.47,2.47,0,0,1,36.789,39.2a2.58,2.58,0,0,1,1.51.763l4.551,4.552a2.577,2.577,0,0,1,.763,1.509,2.473,2.473,0,0,1-1.128,2.383L29.658,56.574a2.474,2.474,0,0,1-3.077-.338" transform="translate(6.022 9.127)" fill="#ffd6aa"/>
      <path id="Path_258" data-name="Path 258" d="M42.713,43.941l-2.276-2.276L26.444,55.658A2.474,2.474,0,0,0,29.521,56l12.827-8.163a2.474,2.474,0,0,0,1.129-2.382,2.6,2.6,0,0,0-.764-1.51" transform="translate(6.159 9.704)" fill="#fac68f"/>
      <path id="Path_259" data-name="Path 259" d="M66,20.928l-4.664-4.665a2.476,2.476,0,0,0-3.5,0l-5.247,5.248a2.473,2.473,0,0,0,0,3.5l4.664,4.664a2.476,2.476,0,0,0,3.5,0L66,24.426a2.472,2.472,0,0,0,0-3.5" transform="translate(12.08 3.619)" fill="#f2faff"/>
      <path id="Path_260" data-name="Path 260" d="M63.093,18.018l-8.746,8.746L56.68,29.1a2.473,2.473,0,0,0,3.5,0l5.247-5.247a2.472,2.472,0,0,0,0-3.5Z" transform="translate(12.658 4.197)" fill="#c8eafa"/>
      <path id="Path_261" data-name="Path 261" d="M69.54,12.662a5.773,5.773,0,0,0-8.163,0l-4.664,4.664,8.162,8.163,4.665-4.664a5.773,5.773,0,0,0,0-8.163" transform="translate(13.209 2.556)" fill="#ed1818"/>
      <path id="Path_262" data-name="Path 262" d="M68.769,12.343l-8.747,8.746L64.1,25.17l4.665-4.664a5.773,5.773,0,0,0,0-8.163" transform="translate(13.979 2.875)" fill="#2d2d2d"/>
      <rect id="Rectangle_23" data-name="Rectangle 23" width="33.803" height="11.543" transform="translate(40.759 49.037) rotate(-45)" fill="#f1f8ff"/>
      <rect id="Rectangle_24" data-name="Rectangle 24" width="33.803" height="5.771" transform="translate(44.839 53.118) rotate(-44.999)" fill="#b3b9bf"/>
    </g>
  </g>
</svg>
