<svg id="Group_37" data-name="Group 37" xmlns="http://www.w3.org/2000/svg" xmlns:xlink="http://www.w3.org/1999/xlink" width="87.048" height="77.456" viewBox="0 0 87.048 77.456">
  <defs>
    <clipPath id="clip-path">
      <rect id="Rectangle_29" data-name="Rectangle 29" width="87.048" height="77.456" fill="none"/>
    </clipPath>
  </defs>
  <g id="Group_36" data-name="Group 36" clip-path="url(#clip-path)">
    <path id="Path_283" data-name="Path 283" d="M22.064,30.339a1.5,1.5,0,0,1,1.5-1.508H76.775a1.5,1.5,0,0,1,1.5,1.508V70.083h4.473V27.889a3.416,3.416,0,0,0-3.456-3.365H21.177a3.509,3.509,0,0,0-.682.068,3.443,3.443,0,0,0-2.683,2.56l0,.011a3.35,3.35,0,0,0-.069.551c0,.06-.017.115-.017.176V70.083h4.341Z" transform="translate(-0.108 -0.149)"/>
    <path id="Path_284" data-name="Path 284" d="M26.209,18.571a6.644,6.644,0,0,0-2.84-4.287,6.778,6.778,0,0,0-3.791-1.156,6.919,6.919,0,0,0-1.419.147,6.993,6.993,0,0,0-5.494,8.107,6.665,6.665,0,0,0,2.5,4.041,6.455,6.455,0,0,1,4.909-3.89l.177-.027a6.634,6.634,0,0,1,.894-.068H26.14a6.778,6.778,0,0,0,.07-2.868" transform="translate(-0.076 -0.08)" fill="#ed1818"/>
    <path id="Path_285" data-name="Path 285" d="M9.643,21.877a10.022,10.022,0,0,1,7.841-11.638A9.792,9.792,0,0,1,24.959,11.7a9.639,9.639,0,0,1,4.12,6.222,9.816,9.816,0,0,1,.044,3.442h5.552a17.017,17.017,0,0,0,.043-2.038,1.5,1.5,0,0,1,1.448-1.569,1.713,1.713,0,0,0,.272-.029l.928-.191a1.749,1.749,0,0,0,1.321-2.063,1.731,1.731,0,0,0-.733-1.119,1.591,1.591,0,0,0-1.22-.243l-.924.188a1.7,1.7,0,0,0-.344.113,1.49,1.49,0,0,1-1.17.032,1.512,1.512,0,0,1-.837-.825,15.966,15.966,0,0,0-3.618-5.35,1.515,1.515,0,0,1-.07-2.09,1.643,1.643,0,0,0,.168-.214l.523-.8A1.788,1.788,0,0,0,30,2.719a1.585,1.585,0,0,0-1.226-.253,1.663,1.663,0,0,0-1.07.735l-.525.805a2.085,2.085,0,0,0-.141.267,1.5,1.5,0,0,1-1.967.78,15.019,15.019,0,0,0-6.3-1.253A1.516,1.516,0,0,1,17.26,2.474l-.017-.128-.183-.95A1.726,1.726,0,0,0,16.33.277,1.592,1.592,0,0,0,15.109.034,1.752,1.752,0,0,0,13.787,2.1l.207,1.041a1.545,1.545,0,0,1-.874,1.82A15.611,15.611,0,0,0,7.626,8.753a1.5,1.5,0,0,1-1.938.213l-.7-.482a1.585,1.585,0,0,0-1.225-.252,1.657,1.657,0,0,0-1.071.736,1.79,1.79,0,0,0,.461,2.441l.729.5a1.511,1.511,0,0,1,.541,1.823A16.454,16.454,0,0,0,3.182,20.6a1.506,1.506,0,0,1-1.2,1.528l-.628.13A1.749,1.749,0,0,0,.033,24.326a1.727,1.727,0,0,0,.732,1.118,1.594,1.594,0,0,0,1.221.243l.766-.156a1.421,1.421,0,0,1,.3-.031,1.5,1.5,0,0,1,1.386.927,16,16,0,0,0,3.957,5.683,1.512,1.512,0,0,1,.242,1.936l-.381.586a1.786,1.786,0,0,0,.458,2.441,1.591,1.591,0,0,0,1.226.253,1.661,1.661,0,0,0,1.071-.735l.51-.782a.3.3,0,0,1,.025-.04,1.5,1.5,0,0,1,1.793-.571q.622.242,1.271.431V28.594a9.666,9.666,0,0,1-4.967-6.717" transform="translate(0 0)"/>
    <path id="Path_286" data-name="Path 286" d="M76.751,69.4H13.8v2.1c0,2.787,2.295,6.381,4.733,6.381H82.4c2.438,0,4.732-3.594,4.732-6.381V69.4H76.751Z" transform="translate(-0.084 -0.422)" fill="#ed1818"/>
    <path id="Path_287" data-name="Path 287" d="M55.32,75.163H45.984a1.507,1.507,0,0,1,0-3.015H55.32a1.507,1.507,0,0,1,0,3.015" transform="translate(-0.271 -0.439)" fill="#b7092b"/>
  </g>
</svg>
