<svg id="Group_46" data-name="Group 46" xmlns="http://www.w3.org/2000/svg" xmlns:xlink="http://www.w3.org/1999/xlink" width="69.848" height="70.053" viewBox="0 0 69.848 70.053">
  <defs>
    <clipPath id="clip-path">
      <rect id="Rectangle_36" data-name="Rectangle 36" width="69.848" height="70.053" fill="none"/>
    </clipPath>
  </defs>
  <g id="Group_45" data-name="Group 45" clip-path="url(#clip-path)">
    <path id="Path_334" data-name="Path 334" d="M0,34.325V12.366A8.555,8.555,0,0,1,8.554,3.812H61.294a8.555,8.555,0,0,1,8.554,8.554V47.883Z" transform="translate(0 0.205)" fill="#b7092b"/>
    <path id="Path_335" data-name="Path 335" d="M55.712,0H26.358a6.572,6.572,0,0,0-6.573,6.572V45.531A6.573,6.573,0,0,0,26.358,52.1H55.712a6.573,6.573,0,0,0,6.572-6.573V6.572A6.572,6.572,0,0,0,55.712,0" transform="translate(1.063)" fill="#dddaec"/>
    <path id="Path_336" data-name="Path 336" d="M45.752,9.521H16.4a6.573,6.573,0,0,0-6.573,6.573V55.053A6.573,6.573,0,0,0,16.4,61.625H45.752a6.572,6.572,0,0,0,6.572-6.572V16.094a6.573,6.573,0,0,0-6.572-6.573" transform="translate(0.528 0.512)" fill="#f9f6f9"/>
    <path id="Path_337" data-name="Path 337" d="M69.848,38.651V60.609a8.555,8.555,0,0,1-8.554,8.555H8.554A8.555,8.555,0,0,1,0,60.609V25.092a8.554,8.554,0,0,1,8.554-8.554H25.336A8.557,8.557,0,0,1,32.487,20.4c2.577,3.828,5.45,10.073,10.986,9.7h17.82a8.555,8.555,0,0,1,8.555,8.554" transform="translate(0 0.889)" fill="#ed1818"/>
    <path id="Path_338" data-name="Path 338" d="M15.519,69.165H8.555A8.555,8.555,0,0,1,0,60.609V25.093a8.554,8.554,0,0,1,8.555-8.554h6.964a8.555,8.555,0,0,0-8.555,8.554V60.609a8.557,8.557,0,0,0,8.555,8.555" transform="translate(0 0.889)"/>
    <path id="Path_339" data-name="Path 339" d="M46.457,15.658a1.057,1.057,0,0,0-1.43.437L41.155,23.38l-2.676-3.332a1.058,1.058,0,0,0-1.649,1.325l3.682,4.582a1.064,1.064,0,0,0,1.758-.166l4.625-8.7a1.057,1.057,0,0,0-.437-1.429" transform="translate(1.967 0.835)"/>
    <path id="Path_340" data-name="Path 340" d="M7.79,36.713H25.821a1.057,1.057,0,1,0,0-2.115H7.79a1.057,1.057,0,0,0,0,2.115" transform="translate(0.362 1.859)"/>
    <path id="Path_341" data-name="Path 341" d="M7.79,40.424H25.821a1.057,1.057,0,1,0,0-2.114H7.79a1.057,1.057,0,1,0,0,2.114" transform="translate(0.362 2.059)"/>
  </g>
</svg>
