<svg xmlns="http://www.w3.org/2000/svg" xmlns:xlink="http://www.w3.org/1999/xlink" width="96.84" height="96.456" viewBox="0 0 96.84 96.456">
  <defs>
    <clipPath id="clip-path">
      <rect id="Rectangle_32" data-name="Rectangle 32" width="96.84" height="96.456" fill="none"/>
    </clipPath>
  </defs>
  <g id="Group_39" data-name="Group 39" clip-path="url(#clip-path)">
    <path id="Path_288" data-name="Path 288" d="M25.964,62.444a4.987,4.987,0,0,0,4.987,4.986H37.6a4.986,4.986,0,0,0,4.986-4.986V52.471H25.964Z" transform="translate(14.363 29.027)" fill="#ebebeb"/>
    <path id="Path_289" data-name="Path 289" d="M32.494,49.84a30.2,30.2,0,0,1-4.1-3.172,8.3,8.3,0,1,1-8.016-10.386c.253,0,.5.053.741.075a29.916,29.916,0,0,1-2.387-11.709H16.621L15.471,30.11A1.661,1.661,0,0,1,12.9,31.138L8.311,27.971,3.324,32.958l3.158,4.591a1.662,1.662,0,0,1-1.027,2.569L0,41.268v6.649l5.463,1.148a1.661,1.661,0,0,1,1.025,2.569L3.324,56.226l4.987,4.987L12.9,58.054a1.663,1.663,0,0,1,2.572,1.027l1.146,5.456H23.27l1.146-5.464a1.662,1.662,0,0,1,2.571-1.027l4.593,3.167L36.8,56a9.681,9.681,0,0,0-4.3-6.157" transform="translate(0 13.635)" fill="#ddeafb"/>
    <path id="Path_290" data-name="Path 290" d="M71.89,35.3A29.918,29.918,0,1,0,25.829,60.5a9.527,9.527,0,0,1,4.509,7.98v6.718a4.987,4.987,0,0,0,4.986,4.987h13.3a4.988,4.988,0,0,0,4.987-4.987V68.615a9.787,9.787,0,0,1,4.6-8.181A29.893,29.893,0,0,0,71.89,35.3" transform="translate(6.667 2.98)" fill="#ed1818"/>
    <path id="Path_291" data-name="Path 291" d="M66.456,17.138l4.413-3.31L65.815,7.089,61.4,10.4a2.807,2.807,0,0,1-4.463-2.642l.779-5.46L49.378,1.1,48.6,6.564a2.807,2.807,0,0,1-5.024,1.288l-3.31-4.413L33.527,8.492l3.309,4.414a2.807,2.807,0,0,1-2.643,4.463l-5.46-.779-1.191,8.34L33,25.708a2.808,2.808,0,0,1,1.287,5.026l-4.413,3.311,5.055,6.739,4.413-3.31a2.807,2.807,0,0,1,4.463,2.643l-.786,5.459,8.34,1.191.787-5.461a2.806,2.806,0,0,1,5.024-1.286l3.31,4.412,6.739-5.055-3.312-4.412A2.807,2.807,0,0,1,66.552,30.5l5.46.779L73.2,22.943l-5.46-.781a2.808,2.808,0,0,1-1.288-5.024M50.373,33.762A9.827,9.827,0,1,1,60.2,23.936a9.826,9.826,0,0,1-9.827,9.826" transform="translate(19.435 4.811)"/>
    <rect id="Rectangle_30" data-name="Rectangle 30" width="16.621" height="3.325" transform="translate(40.327 86.483)" fill="#9e9e9e"/>
    <rect id="Rectangle_31" data-name="Rectangle 31" width="3.325" height="4.986" transform="translate(46.976 73.188)" fill="#b7092b"/>
    <path id="Path_292" data-name="Path 292" d="M41.266,63.24H37.941a10.614,10.614,0,0,0-6.812-9.906A23.269,23.269,0,0,1,27.2,11.971l1.764,2.813a19.946,19.946,0,0,0,3.36,35.458,13.9,13.9,0,0,1,8.94,13" transform="translate(9.034 6.623)" fill="#b7092b"/>
    <path id="Path_293" data-name="Path 293" d="M53.308,39.629h8.311a1.663,1.663,0,0,1,0,3.325H53.308a1.663,1.663,0,0,1,0-3.325" transform="translate(28.571 21.923)" fill="#b7092b"/>
    <path id="Path_294" data-name="Path 294" d="M50.715,46.263a1.661,1.661,0,0,1,2.341-.213l7.418,6.182a1.662,1.662,0,1,1-2.128,2.553l-7.418-6.18a1.663,1.663,0,0,1-.213-2.342" transform="translate(27.842 25.262)" fill="#b7092b"/>
    <path id="Path_295" data-name="Path 295" d="M46.889,48.191a1.66,1.66,0,0,1,1.66,1.66v8.311a1.661,1.661,0,1,1-3.322,0V49.851a1.66,1.66,0,0,1,1.662-1.66" transform="translate(25.019 26.659)" fill="#b7092b"/>
    <path id="Path_296" data-name="Path 296" d="M1.51,18.912,11.581,16.4a1.661,1.661,0,1,1,.806,3.223L2.314,22.135a1.661,1.661,0,1,1-.8-3.223" transform="translate(0.138 9.043)" fill="#b7092b"/>
    <path id="Path_297" data-name="Path 297" d="M2.531,6.7a1.66,1.66,0,0,1,2.317-.385L13.778,12.7a1.661,1.661,0,1,1-1.931,2.7L2.918,9.021A1.66,1.66,0,0,1,2.531,6.7" transform="translate(1.229 3.324)" fill="#b7092b"/>
    <path id="Path_298" data-name="Path 298" d="M12.45.052a1.663,1.663,0,0,1,2.022,1.2l2.575,10.076a1.662,1.662,0,1,1-3.22.823L11.253,2.075A1.662,1.662,0,0,1,12.45.052" transform="translate(6.196 0)" fill="#b7092b"/>
  </g>
</svg>
