<svg xmlns="http://www.w3.org/2000/svg" xmlns:xlink="http://www.w3.org/1999/xlink" width="84.29" height="81.841" viewBox="0 0 84.29 81.841">
  <defs>
    <clipPath id="clip-path">
      <rect id="Rectangle_33" data-name="Rectangle 33" width="84.29" height="81.841" fill="none"/>
    </clipPath>
  </defs>
  <g id="Group_41" data-name="Group 41" clip-path="url(#clip-path)">
    <path id="Path_299" data-name="Path 299" d="M52.565,60.816,11.976,72.44a1.607,1.607,0,0,1-1.841-1.331L1.05,9.6A1.607,1.607,0,0,1,2.38,7.756L42.969,1.221a1.607,1.607,0,0,1,1.841,1.33l9.084,56.423a1.606,1.606,0,0,1-1.33,1.841" transform="translate(0.276 0.322)" fill="#ddeafb"/>
    <path id="Path_300" data-name="Path 300" d="M25.091,60.816,65.68,72.44a1.608,1.608,0,0,0,1.841-1.331L76.606,9.6a1.607,1.607,0,0,0-1.33-1.841L34.687,1.221a1.606,1.606,0,0,0-1.841,1.33L23.761,58.975a1.606,1.606,0,0,0,1.33,1.841" transform="translate(6.36 0.322)" fill="#ddeafb"/>
    <path id="Path_301" data-name="Path 301" d="M52.565,60.816,11.976,72.44a1.607,1.607,0,0,1-1.841-1.331L1.05,9.6A1.607,1.607,0,0,1,2.38,7.756L42.969,1.221a1.607,1.607,0,0,1,1.841,1.33l9.084,56.423a1.606,1.606,0,0,1-1.33,1.841" transform="translate(0.276 0.322)" fill="#ddeafb"/>
    <path id="Path_302" data-name="Path 302" d="M41.571,2.551a1.607,1.607,0,0,0-1.841-1.33L13.121,5.506V62.753c0,1.021.827,5.24,1.849,5.24H30.657l18.668-7.177a1.606,1.606,0,0,0,1.33-1.841Z" transform="translate(3.515 0.322)"/>
    <path id="Path_303" data-name="Path 303" d="M34.687,1.221a1.605,1.605,0,0,0-1.841,1.33L23.761,58.975a1.6,1.6,0,0,0,1.33,1.841l18.667,7.177H59.447c1.021,0,1.849-4.22,1.849-5.24V5.506Z" transform="translate(6.36 0.322)"/>
    <path id="Path_304" data-name="Path 304" d="M58.478,60.362H17.367a1.6,1.6,0,0,1-1.605-1.606V1.606A1.6,1.6,0,0,1,17.367,0H58.478a1.606,1.606,0,0,1,1.606,1.605v57.15a1.606,1.606,0,0,1-1.606,1.606" transform="translate(4.222 0)" fill="#f4fbff"/>
    <path id="Path_305" data-name="Path 305" d="M50.3,0H46.307a1.6,1.6,0,0,1,1.605,1.606v57.15a1.6,1.6,0,0,1-1.605,1.605H50.3A1.606,1.606,0,0,0,51.9,58.756V1.606A1.606,1.606,0,0,0,50.3,0" transform="translate(12.405 0)" fill="#e4f6ff"/>
    <path id="Path_306" data-name="Path 306" d="M53.858,39.29,52.6,42.667a2.6,2.6,0,0,1-2.433,1.689H34.126A2.594,2.594,0,0,1,31.7,42.667L30.432,39.29A2.6,2.6,0,0,0,28,37.6H0V61.095A10.672,10.672,0,0,0,10.672,71.768H73.617A10.673,10.673,0,0,0,84.29,61.095V37.6h-28a2.6,2.6,0,0,0-2.432,1.689" transform="translate(0 10.073)" fill="#ed1818"/>
    <path id="Path_307" data-name="Path 307" d="M20.483,39.29l1.262,3.378a2.6,2.6,0,0,0,2.433,1.689h5.113a2.6,2.6,0,0,1-2.432-1.689L25.6,39.29A2.6,2.6,0,0,0,23.165,37.6H18.05a2.6,2.6,0,0,1,2.433,1.689" transform="translate(4.835 10.073)" fill="#b7092b"/>
    <path id="Path_308" data-name="Path 308" d="M64.7,37.6V61.095A10.672,10.672,0,0,1,54.029,71.768h5.115A10.672,10.672,0,0,0,69.817,61.095V37.6Z" transform="translate(14.474 10.073)" fill="#b7092b"/>
    <path id="Path_309" data-name="Path 309" d="M51.011,55.938H21.994a.927.927,0,0,1-.927-.927V48.792a.927.927,0,0,1,.927-.927H51.011a.927.927,0,0,1,.927.927v6.219a.927.927,0,0,1-.927.927" transform="translate(5.644 12.822)" fill="#b7092b"/>
    <path id="Path_310" data-name="Path 310" d="M45.492,47.864H41.667a.927.927,0,0,1,.928.927V55.01a.927.927,0,0,1-.928.927h3.825a.927.927,0,0,0,.927-.927V48.791a.927.927,0,0,0-.927-.927" transform="translate(11.162 12.822)" fill="#ddeafb"/>
    <path id="Path_311" data-name="Path 311" d="M26.351,6.449H21.646a1.272,1.272,0,0,0,0,2.545h4.705a1.272,1.272,0,0,0,0-2.545" transform="translate(5.458 1.727)"/>
    <path id="Path_312" data-name="Path 312" d="M30.961,8.994H49.232a1.272,1.272,0,1,0,0-2.545H30.961a1.272,1.272,0,0,0,0,2.545" transform="translate(7.953 1.727)"/>
    <path id="Path_313" data-name="Path 313" d="M26.351,12.208H21.646a1.272,1.272,0,0,0,0,2.545h4.705a1.272,1.272,0,0,0,0-2.545" transform="translate(5.458 3.27)"/>
    <path id="Path_314" data-name="Path 314" d="M30.961,14.753H49.232a1.272,1.272,0,1,0,0-2.545H30.961a1.272,1.272,0,0,0,0,2.545" transform="translate(7.953 3.27)"/>
    <path id="Path_315" data-name="Path 315" d="M26.351,17.968H21.646a1.272,1.272,0,1,0,0,2.543h4.705a1.272,1.272,0,1,0,0-2.543" transform="translate(5.458 4.813)"/>
    <path id="Path_316" data-name="Path 316" d="M30.961,20.511H49.232a1.272,1.272,0,1,0,0-2.543H30.961a1.272,1.272,0,1,0,0,2.543" transform="translate(7.953 4.813)"/>
    <path id="Path_317" data-name="Path 317" d="M26.351,23.727H21.646a1.272,1.272,0,1,0,0,2.543h4.705a1.272,1.272,0,1,0,0-2.543" transform="translate(5.458 6.356)"/>
    <path id="Path_318" data-name="Path 318" d="M30.961,26.27H49.232a1.272,1.272,0,1,0,0-2.543H30.961a1.272,1.272,0,1,0,0,2.543" transform="translate(7.953 6.356)"/>
    <path id="Path_319" data-name="Path 319" d="M26.351,29.486H21.646a1.272,1.272,0,0,0,0,2.545h4.705a1.272,1.272,0,0,0,0-2.545" transform="translate(5.458 7.899)"/>
    <path id="Path_320" data-name="Path 320" d="M30.961,32.03H49.232a1.272,1.272,0,1,0,0-2.545H30.961a1.272,1.272,0,0,0,0,2.545" transform="translate(7.953 7.898)"/>
  </g>
</svg>
