<svg id="Group_29" data-name="Group 29" xmlns="http://www.w3.org/2000/svg" xmlns:xlink="http://www.w3.org/1999/xlink" width="57.21" height="97.208" viewBox="0 0 57.21 97.208">
  <defs>
    <clipPath id="clip-path">
      <rect id="Rectangle_21" data-name="Rectangle 21" width="57.21" height="97.208" fill="none"/>
    </clipPath>
  </defs>
  <g id="Group_28" data-name="Group 28" transform="translate(0 0)" clip-path="url(#clip-path)">
    <path id="Path_233" data-name="Path 233" d="M11.519,55.674a9.065,9.065,0,0,1,7.647,4.174.239.239,0,0,0,.185.11l.02,0a.241.241,0,0,0,.183-.084,13.27,13.27,0,0,1,13.7-3.956L28.876,44.7H13.391L8.967,56.043a9.03,9.03,0,0,1,2.552-.368" transform="translate(7.472 37.248)" fill="#ddd"/>
    <path id="Path_234" data-name="Path 234" d="M15.409,44.7H13.391L8.967,56.043a9.091,9.091,0,0,1,2.156-.354Z" transform="translate(7.472 37.248)" fill="#eaeaea"/>
    <path id="Path_235" data-name="Path 235" d="M20.3,44.7H16.595l.473,3.742a1.839,1.839,0,0,0,3.65-.46Z" transform="translate(13.828 37.248)" fill="#eef6ff"/>
    <path id="Path_236" data-name="Path 236" d="M13.039,44.7,12.066,52.4a1.838,1.838,0,0,0,1.595,2.055,1.676,1.676,0,0,0,.233.016,1.842,1.842,0,0,0,1.822-1.61l1.03-8.156Z" transform="translate(10.041 37.248)" fill="#eef6ff"/>
    <path id="Path_237" data-name="Path 237" d="M9.749,28.9c0-2,.075-3.995.214-5.975C4.064,26.245,0,33.646,0,42.216A24.71,24.71,0,0,0,3.254,54.7a1.086,1.086,0,0,0,1.347.456A23.85,23.85,0,0,1,13.489,53.4a80.061,80.061,0,0,1-3.74-24.5" transform="translate(0 19.099)" fill="#2d2d2d"/>
    <path id="Path_238" data-name="Path 238" d="M2.78,42.215c0-7.078,2.776-13.357,7.065-17.2.033-.7.071-1.4.121-2.092C4.065,26.244,0,33.647,0,42.215A24.718,24.718,0,0,0,3.255,54.7a1.086,1.086,0,0,0,.939.537,1.112,1.112,0,0,0,.409-.081c.46-.189.929-.357,1.4-.515A24.711,24.711,0,0,1,2.78,42.215" transform="translate(-0.001 19.1)" fill="#141414"/>
    <path id="Path_239" data-name="Path 239" d="M27.373,22.921q.212,2.97.216,5.975a80.07,80.07,0,0,1-3.74,24.5,23.85,23.85,0,0,1,8.888,1.754,1.085,1.085,0,0,0,1.347-.456,24.712,24.712,0,0,0,3.254-12.483c0-8.569-4.064-15.971-9.966-19.293" transform="translate(19.872 19.099)" fill="#2d2d2d"/>
    <path id="Path_240" data-name="Path 240" d="M10.481,41.083v5.654a1.231,1.231,0,0,0,1.226,1.226H28.036a1.23,1.23,0,0,0,1.225-1.226V41.083Z" transform="translate(8.733 34.233)" fill="#ed1818"/>
    <path id="Path_241" data-name="Path 241" d="M14.653,46.737V41.083H10.481v5.654a1.232,1.232,0,0,0,1.228,1.226h4.169a1.228,1.228,0,0,1-1.225-1.226" transform="translate(8.733 34.233)" fill="#b7092b"/>
    <path id="Path_242" data-name="Path 242" d="M39.209,12.082H9.364a79.519,79.519,0,0,0-4.18,25.847A79.189,79.189,0,0,0,9.716,64.781a1.087,1.087,0,0,0,1.019.713h27.1a1.087,1.087,0,0,0,1.019-.713,79.188,79.188,0,0,0,4.53-26.852,79.518,79.518,0,0,0-4.178-25.847" transform="translate(4.32 10.068)" fill="#eef6ff"/>
    <path id="Path_243" data-name="Path 243" d="M13.191,64.781a79.233,79.233,0,0,1-4.53-26.852,79.518,79.518,0,0,1,4.176-25.847H9.363A79.518,79.518,0,0,0,5.185,37.929,79.233,79.233,0,0,0,9.713,64.781a1.09,1.09,0,0,0,1.021.713H14.21a1.085,1.085,0,0,1-1.019-.713" transform="translate(4.32 10.068)" fill="#d9eafc"/>
    <path id="Path_244" data-name="Path 244" d="M11.749,12.082v4.07a1.23,1.23,0,0,0,1.226,1.225H24.657a1.23,1.23,0,0,0,1.226-1.225v-4.07Z" transform="translate(9.79 10.068)" fill="#ea2a3d"/>
    <path id="Path_245" data-name="Path 245" d="M14.529,16.151v-4.07H11.748v4.07a1.228,1.228,0,0,0,1.226,1.225h2.781a1.228,1.228,0,0,1-1.226-1.225" transform="translate(9.789 10.067)" fill="#b7092b"/>
    <path id="Path_246" data-name="Path 246" d="M22.425,0a1.078,1.078,0,0,0-.682.242C16.265,4.678,11.651,11.407,8.4,19.7c-.346.882-.673,1.782-.984,2.691h30.02c-.313-.909-.638-1.809-.984-2.691C33.2,11.407,28.586,4.678,23.109.242A1.079,1.079,0,0,0,22.425,0" transform="translate(6.179 0)" fill="#ed1818"/>
    <path id="Path_247" data-name="Path 247" d="M24.164,1.135c-.348-.306-.7-.6-1.056-.893a1.085,1.085,0,0,0-1.366,0C16.264,4.678,11.652,11.407,8.4,19.7c-.345.884-.671,1.784-.983,2.693h3.478c.312-.909.634-1.809.981-2.693,3.04-7.757,7.273-14.142,12.288-18.565" transform="translate(6.18 0)" fill="#b7092b"/>
    <path id="Path_248" data-name="Path 248" d="M18.939,39.224a2.986,2.986,0,0,1-2.117-.878L11.172,32.7a3,3,0,0,1,4.237-4.238l3.531,3.533,9.181-9.181a3,3,0,0,1,4.237,4.237l-11.3,11.3a2.99,2.99,0,0,1-2.119.878" transform="translate(8.578 18.276)" fill="#2d2d2d"/>
  </g>
</svg>
