<svg xmlns="http://www.w3.org/2000/svg" xmlns:xlink="http://www.w3.org/1999/xlink" width="83.012" height="86.627" viewBox="0 0 83.012 86.627">
  <defs>
    <clipPath id="clip-path">
      <rect id="Rectangle_35" data-name="Rectangle 35" width="83.012" height="86.627" fill="none"/>
    </clipPath>
  </defs>
  <g id="Group_43" data-name="Group 43" clip-path="url(#clip-path)">
    <path id="Path_321" data-name="Path 321" d="M14.76,29A5.665,5.665,0,0,0,9.1,34.668L7.056,46.929,9.1,58.183a5.664,5.664,0,0,0,11.329,0V34.668A5.665,5.665,0,0,0,14.76,29" transform="translate(2.138 8.789)" fill="#b7092b"/>
    <path id="Path_322" data-name="Path 322" d="M17.683,63.207A5.665,5.665,0,0,1,9.4,58.183l-3.374-13.6L9.4,34.67a5.663,5.663,0,0,1,8.278-5.026,5.658,5.658,0,0,0-3.048,5.026V58.183a5.659,5.659,0,0,0,3.048,5.024" transform="translate(1.828 8.789)" fill="#ed1818"/>
    <path id="Path_323" data-name="Path 323" d="M62.054,70.371l-25.886.791A3.069,3.069,0,0,1,33.073,68.3a3.014,3.014,0,0,1,3.009-3.16H58.745c1.663,0,3.8-1.467,3.8-3.131l-.79-14.689a3.068,3.068,0,0,1,2.868-3.095,3.012,3.012,0,0,1,3.157,3.009V65.512c0,3.122-2.609,4.859-5.729,4.859" transform="translate(10.021 13.399)" fill="#e0f5fc"/>
    <path id="Path_324" data-name="Path 324" d="M67.786,59.36v1.565a5.648,5.648,0,0,1-5.65,5.649H36.169a3.069,3.069,0,0,1-3.1-2.867,2.992,2.992,0,0,1,.485-1.788,3.128,3.128,0,0,0,2.786,1.693H62.31a5.654,5.654,0,0,0,5.475-4.252" transform="translate(10.021 17.988)" fill="#d3effd"/>
    <path id="Path_325" data-name="Path 325" d="M61.814,47.229a3,3,0,0,0-1.437-2.564h0c-.066-.042-.138-.081-.21-.119l-.059-.026c-.061-.031-.125-.059-.19-.086-.027-.009-.052-.02-.079-.03-.069-.025-.139-.048-.211-.069l-.051-.014c-.086-.023-.175-.042-.265-.057l-.079-.012c-.069-.009-.137-.017-.206-.022l-.087-.007c-.094,0-.19-.007-.285,0a3.069,3.069,0,0,0-2.869,3.093v14.81a3.011,3.011,0,0,1-3.011,3.013h3.138a3.011,3.011,0,0,0,3.01-3.011V57.652a.873.873,0,0,1,.489-.783l2.4-1.178Z" transform="translate(15.992 13.399)" fill="#d3effd"/>
    <path id="Path_326" data-name="Path 326" d="M80.647,44.3,78.36,43.173a.952.952,0,0,1-.533-.865c.021-2.2-.013-3.977,0-4.283a36.415,36.415,0,0,0-3.436-15.489c-5.819-12.43-21.116-20.7-35.7-20.781,0,0-33.421,16.433-33.309,36.515v3.953a1.143,1.143,0,0,1-.6,1.007,7.213,7.213,0,0,0-1.428,1.326,3.811,3.811,0,0,0-2.132,3.419l-.446,11.6A3.811,3.811,0,0,0,2.9,63L11,67.63V38.317A30.559,30.559,0,0,1,41.272,7.655,30.56,30.56,0,0,1,71.546,38.317V67.63l7.964-4.313c1.3-.641,2.611-1.811,2.611-3.264l.658-1.411V47.714A3.807,3.807,0,0,0,80.647,44.3" transform="translate(0.234 0.532)" fill="#b7092b"/>
    <path id="Path_327" data-name="Path 327" d="M52.056,29a5.665,5.665,0,0,1,5.666,5.664l1.506,12.5L57.722,58.183a5.665,5.665,0,0,1-11.33,0V34.668A5.665,5.665,0,0,1,52.056,29" transform="translate(14.058 8.789)" fill="#b7092b"/>
    <path id="Path_328" data-name="Path 328" d="M53.281,62.187a5.655,5.655,0,0,0,1.389,1.02,5.665,5.665,0,0,1-8.278-5.024V34.67a5.663,5.663,0,0,1,8.278-5.026,5.662,5.662,0,0,0-3.049,5.026V58.183a5.645,5.645,0,0,0,1.66,4" transform="translate(14.058 8.789)" fill="#ed1818"/>
    <path id="Path_329" data-name="Path 329" d="M74.626,22.625A36.7,36.7,0,0,0,41.619,1.465v0C27.262,1.3,14.537,10,8.489,22.31A36.048,36.048,0,0,0,4.76,38.431v3.952a1.144,1.144,0,0,1-.6,1.009c-.718.384-1.844.877-2.026.993A3.805,3.805,0,0,0,0,47.8V59.839a3.809,3.809,0,0,0,2.13,3.42l9.1,4.46v-3.57L3.435,60.6a.849.849,0,0,1-.472-.758V47.8C3,46.794,4.813,46.554,5.557,46a4.1,4.1,0,0,0,2.166-3.619V38.431A32.877,32.877,0,0,1,10.3,25.483a.7.7,0,0,1,1.135-.222,6.782,6.782,0,0,0,2.051,1.57,30.112,30.112,0,0,1,56.1.141,30.71,30.71,0,0,1,2.2,11.435V67.719l9.1-4.46a3.81,3.81,0,0,0,2.132-3.42V58.731l-6.748,3.456a1.045,1.045,0,0,1-1.522-.93V38.408a33.63,33.63,0,0,0-2.557-12.9.7.7,0,0,1,.169-.784Z" transform="translate(0 0.442)" fill="#ed1818"/>
    <path id="Path_330" data-name="Path 330" d="M12.225,23.716a1.9,1.9,0,0,0,2.94-.314,28.661,28.661,0,0,1,5.28-6.2,28.413,28.413,0,0,1,36.9-.607,28.716,28.716,0,0,1,6.092,6.963,1.9,1.9,0,0,0,2.91.408l4.692-4.329a1.9,1.9,0,0,0,.289-2.454,38.87,38.87,0,0,0-10-10.225,38.488,38.488,0,0,0-46.8,2.025,38.9,38.9,0,0,0-7.066,7.765,1.9,1.9,0,0,0,.22,2.425Z" transform="translate(2.161 0)"/>
    <path id="Path_331" data-name="Path 331" d="M66.268,21.636l-.865.8a1.9,1.9,0,0,1-2.91-.407A28.689,28.689,0,0,0,56.4,15.063a28.411,28.411,0,0,0-36.9.606,28.741,28.741,0,0,0-5.281,6.2,1.894,1.894,0,0,1-2.938.313l-1.033-1.033a84.855,84.855,0,0,1,6.946-8.091,31.9,31.9,0,0,1,41.429-.679c2.025,1.672,5.78,6.661,7.646,9.259" transform="translate(3.105 1.536)"/>
    <path id="Path_332" data-name="Path 332" d="M40.5,68.258l-8.663.03a1.742,1.742,0,0,1-1.742-1.742l-.335-5.526A1.743,1.743,0,0,1,31.5,59.276l.859-.6h2.59L36.4,59.744l1.162-1.067H41.2a1.743,1.743,0,0,1,1.743,1.743v5.464l-.7.632A1.743,1.743,0,0,1,40.5,68.258" transform="translate(9.017 17.781)" fill="#b7092b"/>
    <path id="Path_333" data-name="Path 333" d="M42.983,65.883V67.1a1.741,1.741,0,0,1-1.743,1.741H31.356A1.742,1.742,0,0,1,29.613,67.1V60.42a1.742,1.742,0,0,1,1.743-1.743H32.4v5.462a1.745,1.745,0,0,0,1.743,1.743Z" transform="translate(8.974 17.781)" fill="#ed1818"/>
    <rect id="Rectangle_34" data-name="Rectangle 34" width="2.615" height="10.169" transform="translate(43.966 76.458)" fill="#ed1818"/>
  </g>
</svg>
