<svg id="Group_759" data-name="Group 759" xmlns="http://www.w3.org/2000/svg" xmlns:xlink="http://www.w3.org/1999/xlink" width="108.78" height="108.78" viewBox="0 0 108.78 108.78">
  <defs>
    <clipPath id="clip-path">
      <rect id="Rectangle_461" data-name="Rectangle 461" width="108.78" height="108.78" fill="none"/>
    </clipPath>
  </defs>
  <g id="Group_758" data-name="Group 758" clip-path="url(#clip-path)">
    <path id="Path_2429" data-name="Path 2429" d="M99.715,0H96.09a1.815,1.815,0,0,0-1.814,1.814V14.5H1.814A1.815,1.815,0,0,0,0,16.317V92.462a1.815,1.815,0,0,0,1.814,1.814h97.9a9.076,9.076,0,0,0,9.064-9.064V9.064A9.074,9.074,0,0,0,99.715,0" transform="translate(0 0)" fill="#222"/>
    <path id="Path_2430" data-name="Path 2430" d="M97.247,78.316H1.16V5.8H91.808V65.623a1.813,1.813,0,0,0,1.814,1.814h3.625a5.439,5.439,0,0,1,0,10.878" transform="translate(2.468 12.333)" fill="#eef6ff"/>
    <path id="Path_2431" data-name="Path 2431" d="M38.551,75.491a9.047,9.047,0,0,0-5.439-1.814H31.3V1.16h1.811A5.437,5.437,0,0,1,38.551,6.6Z" transform="translate(66.6 2.468)" fill="#eef6ff"/>
    <path id="Path_2432" data-name="Path 2432" d="M76.5,35.816H67.438V30.376a1.813,1.813,0,0,0-1.814-1.811H43.868V24.937h9.067a1.811,1.811,0,0,0,1.811-1.814V12.248a1.813,1.813,0,0,0-1.811-1.814H31.179a1.815,1.815,0,0,0-1.814,1.814V23.123a1.813,1.813,0,0,0,1.814,1.814h9.064v3.628H18.486a1.81,1.81,0,0,0-1.811,1.811v5.439H7.611A1.813,1.813,0,0,0,5.8,37.63V48.508a1.811,1.811,0,0,0,1.814,1.811H29.365a1.811,1.811,0,0,0,1.814-1.811V37.63a1.813,1.813,0,0,0-1.814-1.814H20.3V32.191H63.81v3.625H54.746a1.813,1.813,0,0,0-1.811,1.814V48.508a1.81,1.81,0,0,0,1.811,1.811H76.5a1.813,1.813,0,0,0,1.814-1.811V37.63A1.815,1.815,0,0,0,76.5,35.816" transform="translate(12.334 22.201)" fill="#222"/>
    <rect id="Rectangle_453" data-name="Rectangle 453" width="18.128" height="7.253" transform="translate(21.757 61.641)" fill="#ed1818"/>
    <rect id="Rectangle_454" data-name="Rectangle 454" width="18.131" height="7.25" transform="translate(45.324 36.26)" fill="#ed1818"/>
    <rect id="Rectangle_455" data-name="Rectangle 455" width="18.128" height="7.253" transform="translate(68.895 61.641)" fill="#ed1818"/>
    <rect id="Rectangle_456" data-name="Rectangle 456" width="7.25" height="3.628" transform="translate(18.131 76.145)" fill="#222"/>
    <rect id="Rectangle_457" data-name="Rectangle 457" width="14.503" height="3.628" transform="translate(29.007 76.145)" fill="#222"/>
    <path id="Path_2433" data-name="Path 2433" d="M63.516,33.115A1.813,1.813,0,0,0,61.7,31.3H20a1.8,1.8,0,0,0-1,.307L13.56,35.233a1.813,1.813,0,0,0-.5,2.515,1.881,1.881,0,0,0,.5.5L19,41.876a1.82,1.82,0,0,0,1,.3H61.7a1.811,1.811,0,0,0,1.814-1.814Z" transform="translate(27.132 66.601)" fill="#222"/>
    <path id="Path_2434" data-name="Path 2434" d="M49.184,36.086H17.094l-2.718-1.814,2.718-1.811H49.184Z" transform="translate(30.588 69.068)" fill="#ed1818"/>
    <rect id="Rectangle_458" data-name="Rectangle 458" width="3.625" height="3.625" transform="translate(83.398 101.529)" fill="#ed1818"/>
    <rect id="Rectangle_459" data-name="Rectangle 459" width="14.503" height="3.628" transform="translate(65.267 76.145)" fill="#222"/>
    <rect id="Rectangle_460" data-name="Rectangle 460" width="7.25" height="3.628" transform="translate(83.398 76.145)" fill="#222"/>
  </g>
</svg>
