<svg xmlns="http://www.w3.org/2000/svg" xmlns:xlink="http://www.w3.org/1999/xlink" width="111.201" height="107.422" viewBox="0 0 111.201 107.422">
  <defs>
    <clipPath id="clip-path">
      <rect id="Rectangle_473" data-name="Rectangle 473" width="111.201" height="107.422" fill="none"/>
    </clipPath>
  </defs>
  <g id="Group_763" data-name="Group 763" clip-path="url(#clip-path)">
    <path id="Path_2455" data-name="Path 2455" d="M55.5,11.74H16.059A5.567,5.567,0,0,0,10.5,17.3V63a5.569,5.569,0,0,0,5.558,5.561H55.5A5.565,5.565,0,0,0,61.057,63V17.3A5.565,5.565,0,0,0,55.5,11.74" transform="translate(19.82 22.157)" fill="#222"/>
    <rect id="Rectangle_468" data-name="Rectangle 468" width="43.147" height="49.41" rx="0.642" transform="translate(34.027 37.605)" fill="#eef6ff"/>
    <rect id="Rectangle_469" data-name="Rectangle 469" width="31.063" height="3.705" transform="translate(40.069 44.862)" fill="#ed1818"/>
    <rect id="Rectangle_470" data-name="Rectangle 470" width="31.063" height="3.707" transform="translate(40.069 55.257)" fill="#ed1818"/>
    <rect id="Rectangle_471" data-name="Rectangle 471" width="25.799" height="3.707" transform="translate(40.069 65.655)" fill="#ed1818"/>
    <rect id="Rectangle_472" data-name="Rectangle 472" width="12.11" height="3.707" transform="translate(40.069 76.05)" fill="#ed1818"/>
    <path id="Path_2456" data-name="Path 2456" d="M111.2,60.709a11.513,11.513,0,0,0-5.457-9.673c.1-1.227.205-2.457.205-3.681a44.87,44.87,0,0,0-2.264-14.091C99.839,21.607,91.318,13.733,86.075,9.774c-.014-.012-.017-.026-.032-.035C85.012,8.963,84.189,8.4,83.6,8.01c-.032-.023-.066-.046-.1-.066-.289-.191-.528-.349-.658-.43a.754.754,0,0,0-.081-.049l0,0h0a44.654,44.654,0,0,0-7.681-3.9A52.7,52.7,0,0,0,28.912,7.516c-2.59,1.608-15.783,10.406-20.83,25.747A47.939,47.939,0,0,0,5.821,47.352c0,1.126.069,2.264.153,3.39a11.3,11.3,0,0,0,.072,19.972v10.1c0,10.115,8.726,22.47,18.907,22.47H38.914a5.68,5.68,0,0,0,5.55,4.141H55.719a5.665,5.665,0,0,0,5.769-5.541v-.912a5.664,5.664,0,0,0-5.769-5.538H44.464a5.722,5.722,0,0,0-5.555,4.143H24.953c-8.042,0-15.2-10.493-15.2-18.763V72.175c.1.023.205.032.309.052V72.4a6.319,6.319,0,0,0,6.312,6.315h3.142A6.322,6.322,0,0,0,25.831,72.4V48.844a6.322,6.322,0,0,0-6.315-6.315H16.375a6.319,6.319,0,0,0-6.312,6.315v.344c-.147.032-.3.04-.448.075-.029-.638-.087-1.276-.087-1.911A44.013,44.013,0,0,1,11.6,34.422c3.231-9.82,10.115-16.739,14.827-20.556q1.65,1.377,3.315,2.758c2.041,1.692,4.086,3.387,6.075,5.062a1.848,1.848,0,0,0,2.388,0c9.7-8.163,25.476-8.163,35.175,0a1.843,1.843,0,0,0,1.193.436,1.871,1.871,0,0,0,1.2-.43c1.981-1.669,3.967-3.427,5.951-5.186,1.094-.973,2.189-1.929,3.28-2.885,4.854,3.872,11.885,10.86,15.168,20.8a41.25,41.25,0,0,1,2.073,12.93c0,.684-.081,1.366-.116,2.05-.318-.09-.653-.144-.985-.214v-.344a6.322,6.322,0,0,0-6.315-6.315H91.688a6.322,6.322,0,0,0-6.315,6.315V72.4a6.322,6.322,0,0,0,6.315,6.315h3.139a6.322,6.322,0,0,0,6.315-6.315v-.176c5.833-1.193,10.06-5.867,10.06-11.518" transform="translate(0 -0.002)" fill="#222"/>
    <path id="Path_2457" data-name="Path 2457" d="M14.686,36.167a1.957,1.957,0,0,1,2.059-1.834v0H28a1.959,1.959,0,0,1,2.062,1.831v.912A1.959,1.959,0,0,1,28,38.912H16.745a1.968,1.968,0,0,1-2.059-1.834Z" transform="translate(27.719 64.801)" fill="#eef6ff"/>
    <path id="Path_2458" data-name="Path 2458" d="M4.768,18.619a2.61,2.61,0,0,1,2.607-2.607v0h3.142a2.608,2.608,0,0,1,2.607,2.6V42.181a2.61,2.61,0,0,1-2.607,2.607H7.375a2.61,2.61,0,0,1-2.607-2.607Z" transform="translate(8.999 30.221)" fill="#eef6ff"/>
    <path id="Path_2459" data-name="Path 2459" d="M7.638,33.826c-3.774-1.042-6.355-4.054-6.355-7.741s2.581-6.7,6.355-7.741Z" transform="translate(2.422 34.622)" fill="#eef6ff"/>
    <path id="Path_2460" data-name="Path 2460" d="M59.99,11.319c-1.574,1.4-3.147,2.792-4.721,4.143C44.6,7.491,28.436,7.488,17.776,15.469,16.15,14.1,14.5,12.731,12.838,11.36q-1.317-1.1-2.63-2.186c.448-.312.921-.624,1.409-.924A46.842,46.842,0,0,1,27.654,2.129c11.671-2.18,24.128-.179,33.87,6.064l.061.04c.179.115.546.349,1.051.69l.038.026q-1.338,1.178-2.682,2.371" transform="translate(19.267 2.409)" fill="#eef6ff"/>
    <path id="Path_2461" data-name="Path 2461" d="M39.206,42.181A2.61,2.61,0,0,1,36.6,44.788H33.46a2.612,2.612,0,0,1-2.61-2.607V18.619a2.612,2.612,0,0,1,2.61-2.607v0H36.6a2.61,2.61,0,0,1,2.607,2.607Z" transform="translate(58.228 30.221)" fill="#eef6ff"/>
    <path id="Path_2462" data-name="Path 2462" d="M35.028,33.826V18.344c3.774,1.042,6.355,4.054,6.355,7.741s-2.581,6.7-6.355,7.741" transform="translate(66.113 34.622)" fill="#eef6ff"/>
  </g>
</svg>
