<svg xmlns="http://www.w3.org/2000/svg" xmlns:xlink="http://www.w3.org/1999/xlink" width="110.602" height="112.891" viewBox="0 0 110.602 112.891">
  <defs>
    <clipPath id="clip-path">
      <rect id="Rectangle_428" data-name="Rectangle 428" width="110.602" height="112.891" fill="none"/>
    </clipPath>
  </defs>
  <g id="Group_744" data-name="Group 744" transform="translate(0 0)">
    <g id="Group_743" data-name="Group 743" transform="translate(0 0)" clip-path="url(#clip-path)">
      <path id="Path_2348" data-name="Path 2348" d="M103.909,88.059a6.69,6.69,0,0,0,6.694-6.691V6.694A6.69,6.69,0,0,0,103.909,0H6.691A6.688,6.688,0,0,0,0,6.694v74.85a6.687,6.687,0,0,0,6.691,6.691H40.684l-7.4,13.387h-3.17a5.636,5.636,0,0,0,0,11.272h50.9a5.636,5.636,0,0,0,0-11.272h-3.17l-7.4-13.563Z" transform="translate(0 -0.001)" fill="#222"/>
      <path id="Path_2349" data-name="Path 2349" d="M65.646,41.552a2.035,2.035,0,0,1-2.113,2.113h-50.9a2.113,2.113,0,0,1,0-4.227h50.9a2.142,2.142,0,0,1,2.113,2.113" transform="translate(17.481 65.528)" fill="#ed1818"/>
      <path id="Path_2350" data-name="Path 2350" d="M4.493,1.323H101.71a3.157,3.157,0,0,1,3.17,3.17V69.3H90.79V51.868L96.954,45.7a1.59,1.59,0,0,0,.53-1.232V39.364a6.555,6.555,0,0,0-1.762-12.858,6.617,6.617,0,0,0-6.515,6.518,6.824,6.824,0,0,0,4.756,6.34v4.4L87.8,49.93a1.606,1.606,0,0,0-.527,1.235V69.3H73.884V54.333a6.554,6.554,0,0,0-1.762-12.855A6.617,6.617,0,0,0,65.607,48a6.821,6.821,0,0,0,4.756,6.337V69.3H54.16V50.284l7.221-4.226a1.856,1.856,0,0,0,.881-1.586V37.251A6.554,6.554,0,0,0,60.5,24.4a6.616,6.616,0,0,0-6.518,6.515,6.828,6.828,0,0,0,4.756,6.34v6.34l-7.221,4.226a1.856,1.856,0,0,0-.881,1.586V69.479H41.477V47.641a1.6,1.6,0,0,0-.527-1.232l-3.17-3.17a6.365,6.365,0,0,0,1.057-3.524A6.5,6.5,0,0,0,32.319,33.2,6.617,6.617,0,0,0,25.8,39.715a6.5,6.5,0,0,0,6.515,6.518,5.155,5.155,0,0,0,2.819-.705l2.819,2.819V69.3H21.577V52.222a1.6,1.6,0,0,0-.53-1.235L14.883,45V40.6a6.553,6.553,0,0,0-1.759-12.855,6.617,6.617,0,0,0-6.518,6.515,6.824,6.824,0,0,0,4.756,6.34V45.7a1.6,1.6,0,0,0,.527,1.232l6.164,5.988V69.3H1.323V4.493a3.157,3.157,0,0,1,3.17-3.17" transform="translate(2.198 2.198)" fill="#eef6ff"/>
      <path id="Path_2351" data-name="Path 2351" d="M38.594,18.229a2.994,2.994,0,1,1,2.994-2.994,2.863,2.863,0,0,1-2.994,2.994" transform="translate(59.15 20.338)" fill="#b7092b"/>
      <path id="Path_2352" data-name="Path 2352" d="M29.793,23.788h0a2.994,2.994,0,1,1,2.994-2.994c.176,1.586-1.232,2.819-2.994,2.994" transform="translate(44.527 29.575)" fill="#b7092b"/>
      <path id="Path_2353" data-name="Path 2353" d="M25.426,17.37a2.994,2.994,0,1,1,2.994-2.994,2.969,2.969,0,0,1-2.994,2.994" transform="translate(37.271 18.911)" fill="#b7092b"/>
      <path id="Path_2354" data-name="Path 2354" d="M14.838,20.545a2.994,2.994,0,1,1,0-5.988,3.087,3.087,0,0,1,2.994,2.994,2.866,2.866,0,0,1-2.994,2.994" transform="translate(19.679 24.186)" fill="#b7092b"/>
      <path id="Path_2355" data-name="Path 2355" d="M7.692,18.56a2.994,2.994,0,1,1,2.994-2.994A3.085,3.085,0,0,1,7.692,18.56" transform="translate(7.806 20.888)" fill="#b7092b"/>
      <path id="Path_2356" data-name="Path 2356" d="M1.324,34.53V28.19H104.7v6.34a3.157,3.157,0,0,1-3.17,3.17H4.491a3.153,3.153,0,0,1-3.167-3.17" transform="translate(2.2 46.838)" fill="#ed1818"/>
      <path id="Path_2357" data-name="Path 2357" d="M50.484,46.471H14.029l7.4-13.385H43.263Z" transform="translate(23.309 54.973)" fill="#ed1818"/>
    </g>
  </g>
</svg>
