<svg xmlns="http://www.w3.org/2000/svg" xmlns:xlink="http://www.w3.org/1999/xlink" width="102.906" height="104.353" viewBox="0 0 102.906 104.353">
  <defs>
    <clipPath id="clip-path">
      <rect id="Rectangle_467" data-name="Rectangle 467" width="102.906" height="104.353" fill="none"/>
    </clipPath>
  </defs>
  <g id="Group_761" data-name="Group 761" clip-path="url(#clip-path)">
    <path id="Path_2435" data-name="Path 2435" d="M101.142,89.581H97.609V29.218a7.127,7.127,0,0,0-7.061-7.063H86.533V20.708a1.454,1.454,0,0,0-.482-1.122L66.947.482A1.461,1.461,0,0,0,65.822,0h-48a1.517,1.517,0,0,0-1.6,1.6V22.155H12.2a7.13,7.13,0,0,0-7.066,7.063V89.581H1.607A1.517,1.517,0,0,0,0,91.188a13.226,13.226,0,0,0,13.165,13.165H89.744a13.226,13.226,0,0,0,13.165-13.165,1.885,1.885,0,0,0-1.767-1.607" transform="translate(0 0.001)" fill="#222"/>
    <path id="Path_2436" data-name="Path 2436" d="M37.569,9.836a3.907,3.907,0,0,1,3.853,3.853V74.052H33.554V9.836Z" transform="translate(52.976 15.53)" fill="#eef6ff"/>
    <path id="Path_2437" data-name="Path 2437" d="M26.146,2.117,39.794,15.764H26.146Z" transform="translate(41.281 3.343)" fill="#222"/>
    <path id="Path_2438" data-name="Path 2438" d="M52.324,1.245v17.5a1.517,1.517,0,0,0,1.607,1.6h17.5V87.615H7.532V1.245Z" transform="translate(11.892 1.966)" fill="#eef6ff"/>
    <path id="Path_2439" data-name="Path 2439" d="M3.237,13.689A3.906,3.906,0,0,1,7.09,9.836H11.1V74.052H3.237Z" transform="translate(5.111 15.53)" fill="#eef6ff"/>
    <path id="Path_2440" data-name="Path 2440" d="M87.519,44.331H11.1a9.857,9.857,0,0,1-9.792-8.348H97.47a10.146,10.146,0,0,1-9.952,8.348" transform="translate(2.065 56.812)" fill="#eef6ff"/>
    <path id="Path_2441" data-name="Path 2441" d="M10.882,25.563a1.517,1.517,0,0,0,1.607-1.607,7.384,7.384,0,0,1,14.769,0,1.605,1.605,0,1,0,3.211,0,10.7,10.7,0,0,0-5.779-9.469A6.537,6.537,0,0,0,26.615,9.67a6.742,6.742,0,1,0-13.485,0,7.233,7.233,0,0,0,1.926,4.817,10.7,10.7,0,0,0-5.782,9.469,1.73,1.73,0,0,0,1.607,1.607" transform="translate(14.644 4.62)" fill="#222"/>
    <path id="Path_2442" data-name="Path 2442" d="M12.015,7.7a3.532,3.532,0,1,1,3.533,3.533A3.565,3.565,0,0,1,12.015,7.7" transform="translate(18.97 6.586)" fill="#ed1818"/>
    <path id="Path_2443" data-name="Path 2443" d="M18.489,27.516H10.943a1.516,1.516,0,0,0-1.6,1.6V40.359a1.517,1.517,0,0,0,1.6,1.607h7.546A1.517,1.517,0,0,0,20.1,40.359V29.12a1.61,1.61,0,0,0-1.607-1.6" transform="translate(14.745 43.444)" fill="#222"/>
    <rect id="Rectangle_462" data-name="Rectangle 462" width="4.335" height="8.028" transform="translate(27.292 74.17)" fill="#ed1818"/>
    <path id="Path_2444" data-name="Path 2444" d="M24.154,25.835H16.608A1.517,1.517,0,0,0,15,27.442V42.853a1.517,1.517,0,0,0,1.6,1.607h7.546a1.517,1.517,0,0,0,1.607-1.607V27.442a1.61,1.61,0,0,0-1.607-1.607" transform="translate(23.689 40.79)" fill="#222"/>
    <rect id="Rectangle_463" data-name="Rectangle 463" width="4.335" height="12.36" transform="translate(41.901 69.837)" fill="#ed1818"/>
    <path id="Path_2445" data-name="Path 2445" d="M29.819,24.528H22.273a1.517,1.517,0,0,0-1.6,1.607V44.916a1.517,1.517,0,0,0,1.6,1.607h7.546a1.517,1.517,0,0,0,1.607-1.607V26.135a1.609,1.609,0,0,0-1.607-1.607" transform="translate(32.633 38.726)" fill="#222"/>
    <rect id="Rectangle_464" data-name="Rectangle 464" width="4.335" height="15.574" transform="translate(56.51 66.624)" fill="#ed1818"/>
    <path id="Rectangle_465" data-name="Rectangle 465" d="M.623,0h9.51a.623.623,0,0,1,.623.623v25.4a.622.622,0,0,1-.622.622H.622A.622.622,0,0,1,0,26.028V.623A.623.623,0,0,1,.623,0Z" transform="translate(67.908 58.759)" fill="#222"/>
    <rect id="Rectangle_466" data-name="Rectangle 466" width="4.335" height="20.228" transform="translate(71.119 61.969)" fill="#ed1818"/>
    <path id="Path_2446" data-name="Path 2446" d="M9.836,36.684a1.609,1.609,0,0,0,2.086.964l41.1-13.325L51.9,26.41a1.652,1.652,0,0,0,2.888,1.6l2.891-5.459a1.724,1.724,0,0,0-.642-2.246l-5.619-3.051a1.654,1.654,0,1,0-1.607,2.891l2.249,1.122L10.8,34.758a1.492,1.492,0,0,0-.964,1.926" transform="translate(15.37 26.89)" fill="#222"/>
    <path id="Path_2447" data-name="Path 2447" d="M12.182,17.094a1.517,1.517,0,0,0,1.607-1.607,1.517,1.517,0,0,0-1.607-1.6h-.8a1.517,1.517,0,0,0-1.607,1.6,1.517,1.517,0,0,0,1.607,1.607Z" transform="translate(15.43 21.92)" fill="#222"/>
    <path id="Path_2448" data-name="Path 2448" d="M20.594,17.094H22.2a1.517,1.517,0,0,0,1.6-1.607,1.516,1.516,0,0,0-1.6-1.6H20.594a1.517,1.517,0,0,0-1.607,1.6,1.517,1.517,0,0,0,1.607,1.607" transform="translate(29.977 21.92)" fill="#222"/>
    <path id="Path_2449" data-name="Path 2449" d="M19.024,13.882H17.414a1.516,1.516,0,0,0-1.6,1.607,1.515,1.515,0,0,0,1.6,1.6h1.609a1.518,1.518,0,0,0,1.607-1.6,1.612,1.612,0,0,0-1.607-1.607" transform="translate(24.966 21.918)" fill="#222"/>
    <path id="Path_2450" data-name="Path 2450" d="M23.769,17.094h1.6a1.517,1.517,0,0,0,1.6-1.607,1.516,1.516,0,0,0-1.6-1.6h-1.6a1.517,1.517,0,0,0-1.607,1.6,1.517,1.517,0,0,0,1.607,1.607" transform="translate(34.99 21.92)" fill="#222"/>
    <path id="Path_2451" data-name="Path 2451" d="M26.944,17.094H28.55a1.517,1.517,0,0,0,1.6-1.607,1.516,1.516,0,0,0-1.6-1.6H26.944a1.517,1.517,0,0,0-1.607,1.6,1.609,1.609,0,0,0,1.607,1.607" transform="translate(40.003 21.92)" fill="#222"/>
    <path id="Path_2452" data-name="Path 2452" d="M15.849,17.094a1.517,1.517,0,0,0,1.607-1.607,1.517,1.517,0,0,0-1.607-1.6H14.242a1.516,1.516,0,0,0-1.6,1.6,1.517,1.517,0,0,0,1.6,1.607Z" transform="translate(19.953 21.92)" fill="#222"/>
    <path id="Path_2453" data-name="Path 2453" d="M30.119,17.094h.8a1.517,1.517,0,0,0,1.607-1.607,1.517,1.517,0,0,0-1.607-1.6h-.8a1.517,1.517,0,0,0-1.607,1.6,1.61,1.61,0,0,0,1.607,1.607" transform="translate(45.016 21.92)" fill="#222"/>
    <path id="Path_2454" data-name="Path 2454" d="M21.593,36.543a2.73,2.73,0,1,1-2.731,2.731,2.73,2.73,0,0,1,2.731-2.731" transform="translate(29.78 57.696)" fill="#222"/>
  </g>
</svg>
