<svg xmlns="http://www.w3.org/2000/svg" xmlns:xlink="http://www.w3.org/1999/xlink" width="122.335" height="117.933" viewBox="0 0 122.335 117.933">
  <defs>
    <clipPath id="clip-path">
      <rect id="Rectangle_435" data-name="Rectangle 435" width="122.335" height="117.933" fill="none"/>
    </clipPath>
  </defs>
  <g id="Group_750" data-name="Group 750" clip-path="url(#clip-path)">
    <path id="Path_2376" data-name="Path 2376" d="M122.325,80.781c0-4.66-6.536-7.738-15.262-9.406l8.3-21.213-.109-.04,6.368-16.589a10.927,10.927,0,0,0-6.315-14.076l-49-18.73H66.3A10.92,10.92,0,0,0,52.2,7.022l-.641,1.661L6.5,28.856h0A10.927,10.927,0,0,0,.944,43.279l27.647,61.85a10.945,10.945,0,0,0,6.054,5.747,11.376,11.376,0,0,0,8.369-.152l2.576-1.156.04.089L57.6,104.4a4.812,4.812,0,0,0-.839,2.612c0,7.517,17,10.929,32.783,10.929s32.783-3.412,32.783-10.929a5.816,5.816,0,0,0-2.348-4.35,5.242,5.242,0,0,0,0-8.742,5.239,5.239,0,0,0,0-8.739,5.842,5.842,0,0,0,2.348-4.4" transform="translate(0 -0.001)" fill="#eef6ff"/>
    <path id="Path_2377" data-name="Path 2377" d="M34.14,5.619l.023-.066a6.551,6.551,0,0,1,8.455-3.8l49,18.64h0a6.558,6.558,0,0,1,3.8,8.458L89.061,45.483l-.119-.046L80.269,67.6a103.136,103.136,0,0,0-12.844-.789c-15.78,0-32.783,3.408-32.783,10.925a5.831,5.831,0,0,0,2.348,4.4,6.965,6.965,0,0,0-1.962,2.616L15.5,77.9l-.03.092-1.628-.621h0a6.559,6.559,0,0,1-3.8-8.458l5.529-14.446v-.175l5.423-14.2a2.247,2.247,0,0,0,.122-.324Z" transform="translate(22.118 3.042)" fill="#eef6ff"/>
    <path id="Path_2378" data-name="Path 2378" d="M38.249,96.536l-.1.046a6.552,6.552,0,0,1-8.637-3.369L1.86,31.367a6.607,6.607,0,0,1,3.369-8.613L46.285,4.377,41.8,16.065,32.72,20.022a2.068,2.068,0,0,0-1.136,1.2,2.19,2.19,0,0,0,0,1.684l4.085,9.148L31.73,42.325A7.629,7.629,0,1,0,26.416,56.2l-1.542,4.039a10.931,10.931,0,0,0,6.295,14.1l1.912.733-.056.159,5.727,2.011,7.606,2.91a2.019,2.019,0,0,0,.786.152,2.181,2.181,0,0,0,.261-.026l7.824,2.745a8.783,8.783,0,0,0,.822.822,5.821,5.821,0,0,0-2.348,4.35,4.644,4.644,0,0,0,.215,1.354L40.71,95.347l.03.073Z" transform="translate(3.061 10.078)" fill="#eef6ff"/>
    <path id="Path_2379" data-name="Path 2379" d="M20.44,32.43a7.506,7.506,0,0,0,2.731.525,7.808,7.808,0,0,0,3.124-.634,7.511,7.511,0,0,0,2.936-2.368l8.227,3.157c.046.02.086.066.135.083l10.592,4.043a6.541,6.541,0,0,0,4.181,6.275,6.759,6.759,0,0,0,2.338.436,6.57,6.57,0,1,0-4.957-10.8L41.2,29.874,47.43,13.549l8.508,3.309a6.469,6.469,0,0,0,.585,2.787A6.565,6.565,0,0,0,60.172,23.1a6.734,6.734,0,0,0,2.338.439A6.658,6.658,0,0,0,68.564,14.2c-.013-.03-.026-.063-.043-.092a6.555,6.555,0,0,0-8.7-3.207c-.03.013-.063.026-.092.043a6.473,6.473,0,0,0-2.3,1.807L46.9,8.74a2.181,2.181,0,0,0-2.817,1.245l-7,18.3-6.315-2.418A7.633,7.633,0,1,0,20.44,32.43" transform="translate(35.775 19.787)" fill="#eef6ff"/>
    <rect id="Rectangle_432" data-name="Rectangle 432" width="24.438" height="4.624" transform="translate(102.156 71.237) rotate(-68.639)" fill="#222"/>
    <rect id="Rectangle_433" data-name="Rectangle 433" width="4.624" height="24.441" transform="translate(36.084 85.298) rotate(-70.657)" fill="#222"/>
    <rect id="Rectangle_434" data-name="Rectangle 434" width="24.438" height="4.621" transform="matrix(0.915, -0.402, 0.402, 0.915, 43.77, 105.423)" fill="#222"/>
    <path id="Path_2380" data-name="Path 2380" d="M82.751,32.079c0-7.517-17-10.929-32.783-10.929S17.186,24.562,17.186,32.079a5.842,5.842,0,0,0,2.348,4.4,5.81,5.81,0,0,0-2.348,4.346,5.831,5.831,0,0,0,2.348,4.393,5.821,5.821,0,0,0-2.348,4.35,5.831,5.831,0,0,0,2.348,4.393,5.816,5.816,0,0,0-2.348,4.35c0,7.517,17,10.929,32.783,10.929s32.783-3.412,32.783-10.929a5.816,5.816,0,0,0-2.348-4.35,5.831,5.831,0,0,0,2.348-4.393,5.821,5.821,0,0,0-2.348-4.35,5.831,5.831,0,0,0,2.348-4.393A5.81,5.81,0,0,0,80.4,36.475a5.842,5.842,0,0,0,2.348-4.4" transform="translate(39.574 48.701)" fill="#222"/>
    <path id="Path_2381" data-name="Path 2381" d="M46.922,22.474c18.753,0,28.413,4.591,28.413,6.556,0,.594-.9,1.427-2.636,2.3a2.1,2.1,0,0,0-.192.1C68.39,33.419,59.8,35.586,46.922,35.586s-21.468-2.167-25.586-4.158a2.1,2.1,0,0,0-.192-.1c-1.741-.872-2.636-1.7-2.636-2.3,0-1.965,9.66-6.556,28.413-6.556" transform="translate(42.621 51.75)" fill="#eef6ff"/>
    <path id="Path_2382" data-name="Path 2382" d="M75.333,33.729c0,1.965-9.66,6.556-28.413,6.556s-28.41-4.591-28.41-6.556c0-.294.575-1.007,2.044-1.9,6.384,2.774,16.6,4.085,26.365,4.085s20-1.311,26.385-4.092c1.523.9,2.028,1.608,2.028,1.906" transform="translate(42.623 73.277)" fill="#eef6ff"/>
    <path id="Path_2383" data-name="Path 2383" d="M75.333,31.082c0,.591-.9,1.423-2.636,2.3-.069.026-.125.073-.192.1C68.387,35.474,59.8,37.638,46.92,37.638s-21.468-2.163-25.586-4.158c-.066-.03-.122-.076-.188-.1-1.744-.872-2.636-1.7-2.636-2.3,0-.294.575-1.007,2.044-1.9,6.384,2.774,16.6,4.085,26.365,4.085s20-1.311,26.385-4.092c1.523.9,2.028,1.612,2.028,1.906" transform="translate(42.623 67.182)" fill="#eef6ff"/>
    <path id="Path_2384" data-name="Path 2384" d="M75.333,28.435c0,.594-.9,1.427-2.636,2.3a2.165,2.165,0,0,0-.192.106C68.384,32.827,59.8,34.991,46.92,34.991s-21.464-2.163-25.583-4.155c-.066-.033-.126-.079-.195-.106-1.741-.869-2.632-1.7-2.632-2.3,0-.294.575-1.007,2.044-1.9,6.384,2.778,16.6,4.085,26.365,4.085s20-1.311,26.385-4.092c1.523.9,2.028,1.612,2.028,1.906" transform="translate(42.623 61.087)" fill="#eef6ff"/>
    <path id="Path_2385" data-name="Path 2385" d="M25.327,28.167H47.181a2.185,2.185,0,1,0,0-4.369H25.327a2.185,2.185,0,1,0,0,4.369" transform="translate(53.287 54.798)" fill="#ed1818"/>
    <path id="Path_2386" data-name="Path 2386" d="M49.591,102.9l-8.283,3.716-.1.046a6.552,6.552,0,0,1-8.637-3.369L4.922,41.445a6.6,6.6,0,0,1,3.365-8.613L49.343,14.456,44.861,26.144,35.779,30.1a2.068,2.068,0,0,0-1.136,1.2,2.19,2.19,0,0,0,0,1.684l4.085,9.148L34.791,52.4a7.63,7.63,0,1,0-5.317,13.871l-1.542,4.039a10.93,10.93,0,0,0,6.3,14.1l15.186,5.813a2.023,2.023,0,0,0,.789.152,2.185,2.185,0,0,0,1.047-4.151l-15.3-5.813v0a6.554,6.554,0,0,1-3.8-8.455l5.529-14.446v-.175l5.42-14.2a1.882,1.882,0,0,0,.122-.32L56.259,8.663l.023-.066a6.556,6.556,0,0,1,8.455-3.8l49,18.644a6.555,6.555,0,0,1,3.8,8.455L105.3,63.91a2.581,2.581,0,0,0-.119.3,2.187,2.187,0,1,0,4.185,1.272l12.26-31.95a10.93,10.93,0,0,0-6.318-14.076l-49-18.73h0A10.925,10.925,0,0,0,52.193,7.021l-.637,1.665L6.494,28.856h0A10.925,10.925,0,0,0,.945,43.278l27.644,61.85a10.923,10.923,0,0,0,6.054,5.747,11.09,11.09,0,0,0,3.914.723,10.95,10.95,0,0,0,4.459-.875l8.283-3.716a2.225,2.225,0,0,0-1.707-4.109" transform="translate(-0.001 -0.001)" fill="#222"/>
    <path id="Path_2387" data-name="Path 2387" d="M11.978,11.04l3.088-1.377-1.711,4.459Z" transform="translate(27.582 22.25)" fill="#ed1818"/>
    <path id="Path_2388" data-name="Path 2388" d="M8.441,21.384a3.32,3.32,0,0,1,5.786-3.171L12.315,23.22a3.245,3.245,0,0,1-3.874-1.836" transform="translate(18.839 38.654)" fill="#ed1818"/>
    <path id="Path_2389" data-name="Path 2389" d="M26.3,32.32a7.546,7.546,0,0,0,2.933-2.365l8.227,3.154c.05.023.086.066.139.086l10.588,4.039a6.537,6.537,0,0,0,4.185,6.275,6.749,6.749,0,0,0,2.338.439,6.571,6.571,0,1,0-4.961-10.8L41.2,29.873l6.229-16.325,8.508,3.309a6.465,6.465,0,0,0,.581,2.787A6.57,6.57,0,0,0,60.17,23.1a6.837,6.837,0,0,0,2.338.436A6.658,6.658,0,0,0,68.562,14.2l-.04-.092a6.558,6.558,0,0,0-8.7-3.207.791.791,0,0,0-.092.043,6.485,6.485,0,0,0-2.305,1.807L46.906,8.739a2.186,2.186,0,0,0-2.82,1.245l-7,18.3-6.311-2.418a7.633,7.633,0,1,0-10.337,6.562,7.506,7.506,0,0,0,2.731.525A7.82,7.82,0,0,0,26.3,32.32" transform="translate(35.774 19.785)" fill="#222"/>
    <path id="Path_2390" data-name="Path 2390" d="M28.019,16.826a2.51,2.51,0,0,1,.9-.175,2.454,2.454,0,0,1,.832.132,2.125,2.125,0,0,1,1.2,2.817v0a2.176,2.176,0,1,1-2.929-2.778" transform="translate(61.566 38.341)" fill="#ed1818"/>
    <path id="Path_2391" data-name="Path 2391" d="M31.291,10.484v-.02a2.446,2.446,0,0,1,.786.172,2.185,2.185,0,1,1-2.817,2.929,2.162,2.162,0,0,1,0-1.661,2.186,2.186,0,0,1,2.031-1.42" transform="translate(66.994 24.094)" fill="#ed1818"/>
    <path id="Path_2392" data-name="Path 2392" d="M16.843,15.914a3.279,3.279,0,0,1,3.319-3.237v-.023a3.739,3.739,0,0,1,1.245.241,3.335,3.335,0,0,1,1.813,1.724,3.241,3.241,0,0,1,.02,2.431c-.01.023-.033.036-.043.063s0,.05-.01.076a3.295,3.295,0,0,1-6.344-1.275" transform="translate(38.784 29.137)" fill="#ed1818"/>
  </g>
</svg>
