<svg xmlns="http://www.w3.org/2000/svg" xmlns:xlink="http://www.w3.org/1999/xlink" width="116.369" height="116.369" viewBox="0 0 116.369 116.369">
  <defs>
    <clipPath id="clip-path">
      <rect id="Rectangle_431" data-name="Rectangle 431" width="116.369" height="116.369" fill="none"/>
    </clipPath>
  </defs>
  <g id="Group_747" data-name="Group 747" clip-path="url(#clip-path)">
    <path id="Path_2362" data-name="Path 2362" d="M38.727,16.881A10.747,10.747,0,0,0,28,6.154,10.869,10.869,0,0,0,17.27,16.881a10.729,10.729,0,0,0,21.457,0" transform="translate(30.184 10.756)" fill="#222"/>
    <path id="Path_2363" data-name="Path 2363" d="M54.341,35.534H39.612a9.7,9.7,0,0,0-9.636,9.636v7.273a1.717,1.717,0,0,0,1.816,1.819H62.158a1.719,1.719,0,0,0,1.819-1.819V45.17a9.583,9.583,0,0,0-9.636-9.636" transform="translate(52.392 62.105)" fill="#222"/>
    <path id="Path_2364" data-name="Path 2364" d="M58.029,48.313H31.3V42.859a6.056,6.056,0,0,1,6-6H52.028a6.055,6.055,0,0,1,6,6Z" transform="translate(54.704 64.419)" fill="#ed1818"/>
    <path id="Path_2365" data-name="Path 2365" d="M24.365,35.534H9.636A9.583,9.583,0,0,0,0,45.17v7.273a1.719,1.719,0,0,0,1.819,1.819H32.185A1.717,1.717,0,0,0,34,52.444V45.17a9.583,9.583,0,0,0-9.636-9.636" transform="translate(0 62.105)" fill="#222"/>
    <path id="Path_2366" data-name="Path 2366" d="M28.052,48.313H1.324V42.859a6.055,6.055,0,0,1,6-6H22.051a6.054,6.054,0,0,1,6,6Z" transform="translate(2.314 64.419)" fill="#ed1818"/>
    <path id="Path_2367" data-name="Path 2367" d="M12.58,95.1a10.09,10.09,0,0,0,10-10A9.957,9.957,0,0,0,14.4,75.275V67.1H51.854v8.18A9.957,9.957,0,0,0,43.671,85.1a10,10,0,0,0,20,0,9.957,9.957,0,0,0-8.183-9.821V67.1H92.947v8.18a9.955,9.955,0,0,0-8.18,9.821,10,10,0,1,0,20,0,9.955,9.955,0,0,0-8.18-9.821v-10a1.719,1.719,0,0,0-1.819-1.819H55.492v-8h2A1.771,1.771,0,0,0,59.309,54L60.4,49.639a22.159,22.159,0,0,0,4.366-1.819l3.817,2.366A1.9,1.9,0,0,0,70.764,50l5.273-5.273a1.655,1.655,0,0,0,.181-2.182L73.856,38.73a44.294,44.294,0,0,0,1.819-4.366l4.363-1.091a1.765,1.765,0,0,0,1.454-1.816V23.821A1.77,1.77,0,0,0,80.038,22l-4.363-1.091a22.137,22.137,0,0,0-1.819-4.363l2.363-3.819a1.909,1.909,0,0,0-.181-2.182L70.583,5.454A1.658,1.658,0,0,0,68.4,5.273L64.582,7.455a24.2,24.2,0,0,0-4.363-1.819L59.128,1.272A1.47,1.47,0,0,0,57.493,0H49.854a1.769,1.769,0,0,0-1.816,1.454L46.947,5.82A22.311,22.311,0,0,0,42.58,7.636L38.764,5.273a1.443,1.443,0,0,0-2,.181L31.49,10.727a1.655,1.655,0,0,0-.181,2.182l2.363,3.819a45.214,45.214,0,0,0-1.819,4.363L27.49,22.183A1.959,1.959,0,0,0,26.036,24v7.636a1.772,1.772,0,0,0,1.454,1.819l4.363,1.091a45.505,45.505,0,0,0,1.819,4.363l-2.363,3.817a1.914,1.914,0,0,0,.181,2.184l5.273,5.273a1.659,1.659,0,0,0,2.182.181L42.765,48a24,24,0,0,0,4.363,1.819l1.091,4.363a1.958,1.958,0,0,0,1.816,1.456h1.819v8H12.58a1.719,1.719,0,0,0-1.819,1.819v10a9.952,9.952,0,0,0-8.18,9.818,9.818,9.818,0,0,0,10,9.818" transform="translate(4.511 0)" fill="#222"/>
    <path id="Path_2368" data-name="Path 2368" d="M31.587,35.017a6.364,6.364,0,1,1-6.364-6.364,6.443,6.443,0,0,1,6.364,6.364" transform="translate(32.961 50.079)" fill="#eef6ff"/>
    <path id="Path_2369" data-name="Path 2369" d="M46.542,35.017a6.364,6.364,0,1,1-6.364-6.364,6.325,6.325,0,0,1,6.364,6.364" transform="translate(59.099 50.079)" fill="#eef6ff"/>
    <path id="Path_2370" data-name="Path 2370" d="M33.054,45.507a1.794,1.794,0,0,0-1.272-1.272,24.494,24.494,0,0,1-5.457-2.182,1.642,1.642,0,0,0-1.816,0l-3.457,2.182-3.273-3.273,2.182-3.457a1.642,1.642,0,0,0,0-1.816,18.109,18.109,0,0,1-2.182-5.457,1.786,1.786,0,0,0-1.272-1.269l-4-.912V23.324l4-.91a1.79,1.79,0,0,0,1.272-1.272,19.082,19.082,0,0,1,2.182-5.273,1.646,1.646,0,0,0,0-1.819L17.779,10.6l3.273-3.819,3.457,2.182a1.642,1.642,0,0,0,1.816,0A14.832,14.832,0,0,1,31.6,6.777a1.8,1.8,0,0,0,1.275-1.272l1.091-4.182H38.69l.91,4A1.79,1.79,0,0,0,40.871,6.6a20,20,0,0,1,5.273,2.182,1.646,1.646,0,0,0,1.819,0l3.817-2,3.273,3.273-2.182,3.457a1.656,1.656,0,0,0,0,1.819A18.93,18.93,0,0,1,55.053,20.6a1.794,1.794,0,0,0,1.275,1.269l4,.912v4.726l-4,.91a1.531,1.531,0,0,0-1.275,1.272,22.738,22.738,0,0,1-2.182,5.454,1.656,1.656,0,0,0,0,1.819l2.182,3.454L51.78,43.688l-3.454-2.182a1.656,1.656,0,0,0-1.819,0,14.321,14.321,0,0,1-5.454,2.182,1.794,1.794,0,0,0-1.272,1.272l-.91,4H34.145Z" transform="translate(21.858 2.312)" fill="#eef6ff"/>
    <path id="Path_2371" data-name="Path 2371" d="M10.268,28.652a6.364,6.364,0,1,1,0,12.728A6.443,6.443,0,0,1,3.9,35.016a6.325,6.325,0,0,1,6.364-6.364" transform="translate(6.823 50.077)" fill="#eef6ff"/>
    <path id="Path_2372" data-name="Path 2372" d="M39.386,35.534H24.657a9.7,9.7,0,0,0-9.636,9.636v7.273a1.719,1.719,0,0,0,1.819,1.819H47.206a1.717,1.717,0,0,0,1.816-1.819V45.17a9.583,9.583,0,0,0-9.636-9.636" transform="translate(26.253 62.105)" fill="#222"/>
    <path id="Path_2373" data-name="Path 2373" d="M43.188,48.313H16.279V42.859a6.054,6.054,0,0,1,6-6H37.006a6.055,6.055,0,0,1,6,6v5.454Z" transform="translate(28.452 64.419)" fill="#ed1818"/>
    <path id="Path_2374" data-name="Path 2374" d="M17.534,16.422a10.018,10.018,0,0,1,10-10,10.187,10.187,0,0,1,10,10,10,10,0,1,1-20.009,0" transform="translate(30.646 11.215)" fill="#222"/>
    <path id="Path_2375" data-name="Path 2375" d="M18.594,14.569a7.1,7.1,0,0,1,7.092-7.092,7.22,7.22,0,0,1,7.089,7.092,7.091,7.091,0,1,1-14.181,0" transform="translate(32.498 13.068)" fill="#ed1818"/>
  </g>
</svg>
