<svg xmlns="http://www.w3.org/2000/svg" xmlns:xlink="http://www.w3.org/1999/xlink" width="106.71" height="109.871" viewBox="0 0 106.71 109.871">
  <defs>
    <clipPath id="clip-path">
      <rect id="Rectangle_443" data-name="Rectangle 443" width="106.71" height="109.871" fill="none"/>
    </clipPath>
  </defs>
  <g id="Group_754" data-name="Group 754" clip-path="url(#clip-path)">
    <path id="Path_2401" data-name="Path 2401" d="M70.59,12.814a4.9,4.9,0,0,0-1.438-3.3,4.973,4.973,0,0,0-3.617-1.438,8.735,8.735,0,0,0-8.426,8.986l.26,8.012-1.354,5.475A6.345,6.345,0,0,0,51.486,32.4l-8.91,8.916-3.083.534A9.93,9.93,0,0,0,34.181,44.6l-6.138,6.138a9.84,9.84,0,0,0-2.9,6.759l-.227,10.169a7.267,7.267,0,0,0-4.982,6.809L19.8,87.786a7.269,7.269,0,0,0,7.178,7.332l22.095.238h.078A7.278,7.278,0,0,0,56.4,88.178l.14-13.316a7.187,7.187,0,0,0-2.073-5.147,7.269,7.269,0,0,0-2.683-1.734l.045-.308a10.545,10.545,0,0,1,2.985-5.928L65.183,51.38a16.381,16.381,0,0,0,4.708-9.847l1.1-10.435a7.027,7.027,0,0,0,.123-1.178l0-.031v-.048c0-.067.011-.131.008-.2Z" transform="translate(35.583 14.513)" fill="#222"/>
    <path id="Path_2402" data-name="Path 2402" d="M50.529,34.418l-.143,13.316A3.575,3.575,0,0,1,49.3,50.26a3.684,3.684,0,0,1-2.549,1.029l-22.1-.235a3.606,3.606,0,0,1-3.553-3.631l.143-13.316a3.6,3.6,0,0,1,3.595-3.556h.039l22.095.238a3.606,3.606,0,0,1,3.553,3.628" transform="translate(37.936 54.918)" fill="#eef6ff"/>
    <path id="Path_2403" data-name="Path 2403" d="M56.941,46.436,46.573,56.8a14.164,14.164,0,0,0-4.017,7.984l-.053.378-19.563-.21.218-9.732a6.188,6.188,0,0,1,1.821-4.252l6.138-6.135a6.219,6.219,0,0,1,3.34-1.726l3.662-.635a1.629,1.629,0,0,0,.372-.106l.022-.011a1.839,1.839,0,0,0,.582-.386l.011-.006,9.318-9.327a2.689,2.689,0,0,1,3.8,3.8L41.518,47.152a1.832,1.832,0,0,0,2.593,2.588L54.82,39.034a6.323,6.323,0,0,0-.951-9.758l1.466-5.922a.37.37,0,0,1,.008-.059,1.478,1.478,0,0,0,.025-.19c.006-.062.014-.126.014-.187l0-.062-.269-8.264a5.064,5.064,0,0,1,4.865-5.209,1.216,1.216,0,0,1,.926.364,1.233,1.233,0,0,1,.366.836l.534,16.69-.123,1.175c-.006.045-.011.09-.014.131L60.6,38.793a12.737,12.737,0,0,1-3.656,7.643" transform="translate(41.234 16.867)" fill="#eef6ff"/>
    <path id="Path_2404" data-name="Path 2404" d="M32.07,31.414a3.135,3.135,0,1,1-3.133,3.133,3.132,3.132,0,0,1,3.133-3.133" transform="translate(52.014 56.467)" fill="#ed1818"/>
    <path id="Path_2405" data-name="Path 2405" d="M46.206,67.664l-.232-10.172a9.846,9.846,0,0,0-2.89-6.756L36.946,44.6a9.934,9.934,0,0,0-5.307-2.744l-3.091-.534L19.638,32.4a6.334,6.334,0,0,0-4.526-1.855l-1.354-5.477.26-8.015A8.738,8.738,0,0,0,5.575,8.075,4.922,4.922,0,0,0,.534,12.819L0,29.657c0,.073.008.143.008.213V29.9A6.511,6.511,0,0,0,.14,31.1l1.1,10.429a16.381,16.381,0,0,0,4.708,9.85L16.312,61.742a10.517,10.517,0,0,1,2.982,5.922l.045.316a7.253,7.253,0,0,0-4.753,6.882l.143,13.316a7.273,7.273,0,0,0,7.254,7.178h.078l22.092-.238a7.264,7.264,0,0,0,7.178-7.332l-.14-13.316a7.281,7.281,0,0,0-4.985-6.806" transform="translate(0 14.513)" fill="#222"/>
    <path id="Path_2406" data-name="Path 2406" d="M16.545,56.8,6.178,46.436A12.726,12.726,0,0,1,2.524,38.8L1.447,28.582a1.049,1.049,0,0,0-.014-.131L1.31,27.276l.534-16.687a1.221,1.221,0,0,1,.364-.839,1.263,1.263,0,0,1,.909-.366A5.064,5.064,0,0,1,8,14.589l-.269,8.267.006.062c0,.062.006.126.011.187a1.317,1.317,0,0,0,.025.187l.011.062,1.463,5.925a6.2,6.2,0,0,0-.951.775,6.36,6.36,0,0,0,0,8.983L19.007,49.742a1.833,1.833,0,1,0,2.593-2.59L10.891,36.446a2.689,2.689,0,0,1,3.8-3.8l9.321,9.327.011.006a1.826,1.826,0,0,0,.579.386l.022.011a1.647,1.647,0,0,0,.369.106l3.67.635A6.238,6.238,0,0,1,32,44.836l6.138,6.138a6.2,6.2,0,0,1,1.824,4.252l.215,9.732-19.56.207-.056-.383A14.149,14.149,0,0,0,16.545,56.8" transform="translate(2.355 16.867)" fill="#eef6ff"/>
    <path id="Path_2407" data-name="Path 2407" d="M34.916,49.971a3.562,3.562,0,0,1-2.523,1.083l-22.1.238a3.611,3.611,0,0,1-3.631-3.553L6.521,34.42a3.606,3.606,0,0,1,3.556-3.631l22.095-.238h.036A3.6,3.6,0,0,1,35.8,34.107l.143,13.316a3.561,3.561,0,0,1-1.027,2.549" transform="translate(11.721 54.916)" fill="#eef6ff"/>
    <path id="Path_2408" data-name="Path 2408" d="M10.1,31.414a3.135,3.135,0,1,1-3.133,3.133A3.134,3.134,0,0,1,10.1,31.414" transform="translate(12.525 56.467)" fill="#ed1818"/>
    <path id="Path_2409" data-name="Path 2409" d="M12.748,34.764h3.441a21.372,21.372,0,0,0,1.771,4.277l-2.437,2.437a3.861,3.861,0,0,0,0,5.452l3.419,3.421a3.86,3.86,0,0,0,5.452,0l2.437-2.437a21.667,21.667,0,0,0,4.277,1.768v3.441a3.865,3.865,0,0,0,3.861,3.861h4.823a3.863,3.863,0,0,0,3.861-3.861V49.683a21.621,21.621,0,0,0,4.28-1.768l2.434,2.437a3.86,3.86,0,0,0,5.452,0l3.421-3.421a3.861,3.861,0,0,0,0-5.452L56.8,39.042a21.363,21.363,0,0,0,1.768-4.277h3.441A3.865,3.865,0,0,0,65.872,30.9V26.081a3.862,3.862,0,0,0-3.861-3.858H58.57a21.387,21.387,0,0,0-1.768-4.28l2.437-2.437a3.861,3.861,0,0,0,0-5.452L55.82,6.633a3.955,3.955,0,0,0-5.455,0L47.931,9.069A21.455,21.455,0,0,0,43.651,7.3V3.861A3.865,3.865,0,0,0,39.791,0H34.968a3.866,3.866,0,0,0-3.861,3.861V7.3A21.509,21.509,0,0,0,26.83,9.072L24.393,6.636a3.952,3.952,0,0,0-5.455,0L15.52,10.054a3.861,3.861,0,0,0,0,5.452l2.437,2.437a21.73,21.73,0,0,0-1.771,4.28H12.748a3.862,3.862,0,0,0-3.861,3.858V30.9a3.866,3.866,0,0,0,3.861,3.861" transform="translate(15.974 0.001)" fill="#222"/>
    <path id="Path_2410" data-name="Path 2410" d="M10.2,23.728a.194.194,0,0,1,.2-.2h4.845l.011,0a1.722,1.722,0,0,0,.54-.092.651.651,0,0,0,.09-.028,1.8,1.8,0,0,0,.459-.255.837.837,0,0,0,.073-.062,1.821,1.821,0,0,0,.361-.4l.028-.05a1.851,1.851,0,0,0,.218-.532l.006-.017a17.937,17.937,0,0,1,2.409-5.819A1.825,1.825,0,0,0,19.579,16l.017-.034a1.835,1.835,0,0,0,.126-.652l0-.039a1.807,1.807,0,0,0-.126-.646l-.014-.042A1.834,1.834,0,0,0,19.2,14l-.008-.008-.014-.014,0-.006L15.76,10.56a.2.2,0,0,1,0-.274l3.421-3.419a.219.219,0,0,1,.274,0l3.43,3.43.022.017a1.919,1.919,0,0,0,.529.352l.134.05a1.8,1.8,0,0,0,.607.117h.006a1.857,1.857,0,0,0,.61-.117,1.829,1.829,0,0,0,.168-.078,1.724,1.724,0,0,0,.207-.092,17.865,17.865,0,0,1,5.819-2.409c.045-.011.084-.028.126-.042a1.83,1.83,0,0,0,.21-.067c.053-.025.1-.056.151-.084s.109-.056.157-.09.1-.078.143-.117a1.629,1.629,0,0,0,.126-.112,1.674,1.674,0,0,0,.112-.134,1.26,1.26,0,0,0,.109-.14c.031-.048.053-.1.081-.148a1.806,1.806,0,0,0,.087-.162c.022-.059.036-.12.056-.182s.034-.1.045-.157a2.329,2.329,0,0,0,.022-.241c0-.039.011-.076.011-.112V1.508a.19.19,0,0,1,.2-.2h4.82a.194.194,0,0,1,.2.2V6.353c0,.036.008.073.011.112a1.752,1.752,0,0,0,.025.241c.011.053.031.106.045.157a1.214,1.214,0,0,0,.056.179,1.142,1.142,0,0,0,.084.165,1.216,1.216,0,0,0,.081.145,1.372,1.372,0,0,0,.109.143,1.673,1.673,0,0,0,.112.134c.039.039.084.073.129.112s.09.081.14.117.106.059.157.09.1.059.154.081a1.8,1.8,0,0,0,.207.07c.045.011.084.031.126.042a17.84,17.84,0,0,1,5.819,2.409,1.509,1.509,0,0,0,.207.092,1.773,1.773,0,0,0,.778.2h.006a1.83,1.83,0,0,0,.61-.117l.131-.05a1.84,1.84,0,0,0,.529-.352l.022-.017,3.433-3.43a.219.219,0,0,1,.274,0L54.3,10.289a.2.2,0,0,1,0,.271l-3.413,3.413-.006.006-.014.014L50.86,14a1.816,1.816,0,0,0-.389.582l-.011.042a1.771,1.771,0,0,0-.126.646v.039a1.89,1.89,0,0,0,.129.652L50.48,16a1.836,1.836,0,0,0,.14.277,17.937,17.937,0,0,1,2.409,5.819l.008.017a1.753,1.753,0,0,0,.215.529l.028.05a1.821,1.821,0,0,0,.361.4c.025.02.048.042.076.062a1.751,1.751,0,0,0,.459.255c.028.011.059.02.087.028a1.75,1.75,0,0,0,.54.092l.011,0h4.848a.192.192,0,0,1,.2.2v4.823a.191.191,0,0,1-.2.2H54.813c-.039,0-.076.011-.115.014a1.631,1.631,0,0,0-.235.022,1.7,1.7,0,0,0-.171.048c-.056.02-.112.031-.165.053s-.126.062-.187.1c-.042.022-.084.042-.126.067a1.859,1.859,0,0,0-.165.129c-.036.031-.076.056-.109.09-.048.05-.092.106-.137.159-.028.036-.064.073-.09.109a1.633,1.633,0,0,0-.109.193.957.957,0,0,0-.064.117,1.492,1.492,0,0,0-.081.246c-.008.031-.022.059-.031.092A17.937,17.937,0,0,1,50.62,36a1.808,1.808,0,0,0-.14.274l-.017.036a1.874,1.874,0,0,0-.129.649V37a1.771,1.771,0,0,0,.126.646l.011.039a1.8,1.8,0,0,0,.389.585l.006.011.014.011.006.006L54.3,41.713a.2.2,0,0,1,0,.274L50.88,45.406a.2.2,0,0,1-.274,0L47.2,42l-.008-.008-.011-.011-.011-.006a1.8,1.8,0,0,0-.585-.389l-.042-.014a1.867,1.867,0,0,0-.643-.126l-.048,0a1.906,1.906,0,0,0-.643.126l-.036.02a1.716,1.716,0,0,0-.277.14,17.948,17.948,0,0,1-5.816,2.409.948.948,0,0,0-.1.031,2.247,2.247,0,0,0-.243.078c-.048.022-.09.05-.131.073a1.848,1.848,0,0,0-.179.1c-.045.034-.087.073-.129.109a1.405,1.405,0,0,0-.137.12.928.928,0,0,0-.106.129,1.376,1.376,0,0,0-.115.145,1.414,1.414,0,0,0-.078.143c-.031.056-.062.109-.087.168a1.778,1.778,0,0,0-.053.173,1.65,1.65,0,0,0-.048.168,1.137,1.137,0,0,0-.022.221c0,.042-.014.084-.014.129v4.845a.194.194,0,0,1-.2.2h-4.82a.194.194,0,0,1-.2-.2V45.926c0-.045-.011-.087-.014-.129a1.409,1.409,0,0,0-.022-.221,1.655,1.655,0,0,0-.048-.168,1.779,1.779,0,0,0-.053-.173c-.025-.059-.056-.112-.087-.168a1.413,1.413,0,0,0-.078-.143A1.375,1.375,0,0,0,32,44.779a1.157,1.157,0,0,0-.1-.129c-.045-.045-.092-.081-.137-.12s-.087-.076-.131-.109a1.847,1.847,0,0,0-.179-.1c-.042-.022-.084-.05-.131-.073a1.65,1.65,0,0,0-.243-.078.947.947,0,0,0-.1-.031,17.948,17.948,0,0,1-5.816-2.409,1.76,1.76,0,0,0-.28-.143l-.028-.014a1.884,1.884,0,0,0-.66-.129l-.028,0a1.87,1.87,0,0,0-.657.129l-.031.008a1.875,1.875,0,0,0-.59.392l-.008.006-.011.011L22.86,42l-3.41,3.407a.2.2,0,0,1-.274,0L15.757,41.99a.2.2,0,0,1,0-.274L19.17,38.3l.006-.006.014-.014.006-.011a1.816,1.816,0,0,0,.389-.582l.014-.039A1.9,1.9,0,0,0,19.724,37l0-.042a1.874,1.874,0,0,0-.129-.649l-.017-.036a1.583,1.583,0,0,0-.14-.274,17.963,17.963,0,0,1-2.409-5.819,1.061,1.061,0,0,0-.034-.1,1.538,1.538,0,0,0-.076-.235c-.022-.053-.056-.1-.081-.148a1.813,1.813,0,0,0-.092-.159,1.212,1.212,0,0,0-.12-.148c-.034-.039-.067-.084-.106-.123s-.092-.078-.143-.117-.087-.07-.131-.1a1.242,1.242,0,0,0-.159-.084,1.59,1.59,0,0,0-.154-.078,1.548,1.548,0,0,0-.193-.062,1.4,1.4,0,0,0-.145-.039,1.441,1.441,0,0,0-.246-.025c-.034,0-.07-.011-.106-.011H10.395a.194.194,0,0,1-.2-.2V23.728Z" transform="translate(18.327 2.354)" fill="#eef6ff"/>
    <path id="Path_2411" data-name="Path 2411" d="M25.588,26.842A10.141,10.141,0,1,0,15.447,16.7,10.152,10.152,0,0,0,25.588,26.842" transform="translate(27.766 11.793)" fill="#222"/>
    <path id="Path_2412" data-name="Path 2412" d="M23.235,7.869a6.479,6.479,0,1,1-6.479,6.479,6.486,6.486,0,0,1,6.479-6.479" transform="translate(30.119 14.146)" fill="#ed1818"/>
  </g>
</svg>
