<svg xmlns="http://www.w3.org/2000/svg" xmlns:xlink="http://www.w3.org/1999/xlink" width="100" height="100" viewBox="0 0 100 100">
  <defs>
    <clipPath id="clip-path">
      <rect id="Rectangle_430" data-name="Rectangle 430" width="100" height="100" fill="none"/>
    </clipPath>
  </defs>
  <g id="Group_745" data-name="Group 745" clip-path="url(#clip-path)">
    <path id="Path_2358" data-name="Path 2358" d="M97.988,18.575H90.711V11.3A2.013,2.013,0,0,0,88.7,9.29H81.424V2.011A2.017,2.017,0,0,0,79.413,0H2.013A2.017,2.017,0,0,0,0,2.011v77.4a2.014,2.014,0,0,0,2.014,2.011H9.289V88.7A2.012,2.012,0,0,0,11.3,90.71h7.274v7.279A2.014,2.014,0,0,0,20.588,100h77.4A2.017,2.017,0,0,0,100,97.989v-77.4a2.017,2.017,0,0,0-2.011-2.011" transform="translate(-0.001 0.001)" fill="#222"/>
    <path id="Path_2359" data-name="Path 2359" d="M6.9,8.913v66.1H1.633V1.634h73.38V6.9H8.912A2.012,2.012,0,0,0,6.9,8.913" transform="translate(2.387 2.389)" fill="#eef6ff"/>
    <path id="Path_2360" data-name="Path 2360" d="M10.672,12.683v66.1H5.407V5.407h73.38v5.265h-66.1a2.013,2.013,0,0,0-2.011,2.011" transform="translate(7.903 7.904)" fill="#ed1818"/>
    <rect id="Rectangle_429" data-name="Rectangle 429" width="73.38" height="73.38" transform="translate(22.595 22.597)" fill="#eef6ff"/>
    <path id="Path_2361" data-name="Path 2361" d="M56.222,16.814a2.009,2.009,0,0,0-1.5.672L29.164,46.814l-10.2-10.321A2.012,2.012,0,1,0,16.1,39.32L27.822,51.18a2.018,2.018,0,0,0,1.433.6h.084a2.023,2.023,0,0,0,1.43-.689L57.75,20.135a2.012,2.012,0,0,0-1.529-3.321" transform="translate(22.69 24.577)" fill="#ed1818"/>
  </g>
</svg>
