<svg xmlns="http://www.w3.org/2000/svg" xmlns:xlink="http://www.w3.org/1999/xlink" width="98.921" height="98.921" viewBox="0 0 98.921 98.921">
  <defs>
    <clipPath id="clip-path">
      <rect id="Rectangle_450" data-name="Rectangle 450" width="98.921" height="98.921" fill="none"/>
    </clipPath>
  </defs>
  <g id="Group_756" data-name="Group 756" clip-path="url(#clip-path)">
    <path id="Path_2413" data-name="Path 2413" d="M91.195,0H7.727A7.735,7.735,0,0,0,0,7.729V72.646a7.734,7.734,0,0,0,7.727,7.727H30.48l-.82,3.284A4.625,4.625,0,0,0,26.278,88.1v3.093a1.543,1.543,0,0,0,1.546,1.544h18.7a7.741,7.741,0,0,0,7.57,6.183H85.009a7.736,7.736,0,0,0,7.729-7.727V80.216a7.741,7.741,0,0,0,6.183-7.57V7.729A7.738,7.738,0,0,0,91.195,0" transform="translate(0 0)" fill="#222"/>
    <path id="Path_2414" data-name="Path 2414" d="M1.324,33.753V29.116H44.6v9.273H5.961a4.636,4.636,0,0,1-4.637-4.637" transform="translate(1.769 38.893)" fill="#eef6ff"/>
    <path id="Path_2415" data-name="Path 2415" d="M16.03,26.158,14.683,24.81l2.186-2.186,1.348,1.348a1.544,1.544,0,0,0,1.918.215A12.158,12.158,0,0,1,23.958,22.6a1.545,1.545,0,0,0,1.2-1.509v-1.9h6.183V39.283H11.249V33.1h1.9a1.545,1.545,0,0,0,1.509-1.2,12.213,12.213,0,0,1,1.586-3.824,1.545,1.545,0,0,0-.215-1.918" transform="translate(15.027 25.634)" fill="#eef6ff"/>
    <path id="Path_2416" data-name="Path 2416" d="M52.088,15.225a1.545,1.545,0,0,0-1.546,1.546c0,.026-.086,3.09-1.546,3.09H33.539c-1.458,0-1.546-3.065-1.546-3.09a1.545,1.545,0,0,0-1.544-1.546H21.176a4.634,4.634,0,0,1,4.634-4.637H56.725a4.636,4.636,0,0,1,4.637,4.637Z" transform="translate(28.287 14.143)" fill="#eef6ff"/>
    <path id="Path_2417" data-name="Path 2417" d="M61.363,13.9v54.1H21.175V13.9h7.874c.383,2.114,1.6,4.637,4.492,4.637H49c2.9,0,4.109-2.523,4.494-4.637Z" transform="translate(28.286 18.562)" fill="#eef6ff"/>
    <path id="Path_2418" data-name="Path 2418" d="M27.559,34.409V37.5H14.082l.775-3.093Z" transform="translate(18.81 45.964)" fill="#eef6ff"/>
    <path id="Path_2419" data-name="Path 2419" d="M12.573,38.6a1.547,1.547,0,0,1,1.546-1.546H29.575v3.093h-17Z" transform="translate(16.795 49.499)" fill="#eef6ff"/>
    <path id="Path_2420" data-name="Path 2420" d="M56.725,44.561H25.81a4.634,4.634,0,0,1-4.634-4.637V38.38H61.359v1.544a4.637,4.637,0,0,1-4.634,4.637" transform="translate(28.287 51.268)" fill="#eef6ff"/>
    <path id="Path_2421" data-name="Path 2421" d="M94.063,70.877a4.628,4.628,0,0,1-3.093,4.354V27.6a7.736,7.736,0,0,0-7.727-7.727H52.329A7.736,7.736,0,0,0,44.6,27.6V39.965H36.873a1.545,1.545,0,0,0-1.546,1.544v2.266a15.4,15.4,0,0,0-2.5,1.039l-1.6-1.6a1.545,1.545,0,0,0-2.184,0l-4.373,4.373a1.544,1.544,0,0,0,0,2.186l1.6,1.6a15.191,15.191,0,0,0-1.039,2.5H22.963a1.547,1.547,0,0,0-1.546,1.546v7.727H1.324V5.961A4.636,4.636,0,0,1,5.961,1.324H89.426a4.636,4.636,0,0,1,4.637,4.637Z" transform="translate(1.769 1.768)" fill="#eef6ff"/>
    <rect id="Rectangle_444" data-name="Rectangle 444" width="3.09" height="3.093" transform="translate(6.183 71.1)" fill="#222"/>
    <rect id="Rectangle_445" data-name="Rectangle 445" width="9.275" height="3.093" transform="translate(12.363 71.1)" fill="#222"/>
    <rect id="Rectangle_446" data-name="Rectangle 446" width="12.366" height="3.093" transform="translate(63.37 27.819)" fill="#222"/>
    <rect id="Rectangle_447" data-name="Rectangle 447" width="12.366" height="3.09" transform="translate(63.37 91.195)" fill="#222"/>
    <path id="Path_2422" data-name="Path 2422" d="M38.2,16.557H35.932a15.386,15.386,0,0,0-1.037-2.5l1.6-1.6a1.548,1.548,0,0,0,0-2.186L32.125,5.891a1.548,1.548,0,0,0-2.186,0l-1.6,1.6a15.607,15.607,0,0,0-2.5-1.039V4.193a1.545,1.545,0,0,0-1.544-1.546H18.105a1.545,1.545,0,0,0-1.546,1.546V6.457a15.421,15.421,0,0,0-2.5,1.039l-1.6-1.6a1.548,1.548,0,0,0-2.186,0L5.894,10.264a1.548,1.548,0,0,0,0,2.186l1.6,1.6a15.191,15.191,0,0,0-1.039,2.5H4.193A1.545,1.545,0,0,0,2.647,18.1v6.183a1.547,1.547,0,0,0,1.546,1.546H6.459a15.386,15.386,0,0,0,1.037,2.5l-1.6,1.6a1.548,1.548,0,0,0,0,2.186L10.266,36.5a1.548,1.548,0,0,0,2.186,0l1.6-1.6a15.411,15.411,0,0,0,2.5,1.037V38.2a1.545,1.545,0,0,0,1.546,1.546h6.183A1.545,1.545,0,0,0,25.832,38.2V35.93a15.386,15.386,0,0,0,2.5-1.037l1.6,1.6a1.548,1.548,0,0,0,2.186,0L36.5,32.125a1.548,1.548,0,0,0,0-2.186l-1.6-1.6a15.4,15.4,0,0,0,1.039-2.5H38.2a1.548,1.548,0,0,0,1.546-1.546V18.1A1.547,1.547,0,0,0,38.2,16.557M36.652,22.74h-1.9a1.543,1.543,0,0,0-1.509,1.2,12.284,12.284,0,0,1-1.588,3.821,1.548,1.548,0,0,0,.215,1.92l1.348,1.348-2.186,2.184-1.348-1.348a1.544,1.544,0,0,0-1.918-.215,12.229,12.229,0,0,1-3.821,1.588,1.542,1.542,0,0,0-1.2,1.509v1.9H19.649v-1.9a1.543,1.543,0,0,0-1.2-1.509,12.218,12.218,0,0,1-3.824-1.588,1.544,1.544,0,0,0-1.918.215L11.36,33.216,9.173,31.032l1.348-1.348a1.548,1.548,0,0,0,.215-1.92A12.168,12.168,0,0,1,9.15,23.943a1.547,1.547,0,0,0-1.509-1.2H5.74v-3.09h1.9a1.549,1.549,0,0,0,1.509-1.2,12.181,12.181,0,0,1,1.586-3.824,1.545,1.545,0,0,0-.215-1.918L9.173,11.357,11.36,9.171l1.348,1.35a1.547,1.547,0,0,0,1.918.213,12.268,12.268,0,0,1,3.824-1.586,1.545,1.545,0,0,0,1.2-1.509v-1.9h3.093v1.9a1.544,1.544,0,0,0,1.2,1.509,12.279,12.279,0,0,1,3.821,1.586,1.547,1.547,0,0,0,1.918-.213l1.348-1.35,2.186,2.186L31.87,12.7a1.545,1.545,0,0,0-.215,1.918,12.3,12.3,0,0,1,1.588,3.824,1.545,1.545,0,0,0,1.509,1.2h1.9Z" transform="translate(3.536 3.536)" fill="#222"/>
    <path id="Path_2423" data-name="Path 2423" d="M15.007,7.279a7.728,7.728,0,1,0,7.729,7.729,7.729,7.729,0,0,0-7.729-7.729" transform="translate(9.722 9.723)" fill="#222"/>
    <path id="Path_2424" data-name="Path 2424" d="M13.239,17.877a4.638,4.638,0,1,1,4.637-4.637,4.637,4.637,0,0,1-4.637,4.637" transform="translate(11.491 11.49)" fill="#ed1818"/>
    <path id="Path_2425" data-name="Path 2425" d="M22.287,25.589V22.5a7.736,7.736,0,0,0-7.729,7.727h3.093a4.636,4.636,0,0,1,4.637-4.637" transform="translate(19.447 30.054)" fill="#222"/>
    <path id="Path_2426" data-name="Path 2426" d="M22.5,35.53a17,17,0,1,0,17-17,17,17,0,0,0-17,17m30.912,0A13.911,13.911,0,1,1,39.5,21.618,13.913,13.913,0,0,1,53.411,35.53" transform="translate(30.054 24.75)" fill="#222"/>
    <path id="Path_2427" data-name="Path 2427" d="M31.758,27.81a1.548,1.548,0,0,0-2.186,0l-4.637,4.637a1.548,1.548,0,0,0,0,2.186l7.729,7.727a1.545,1.545,0,0,0,2.186,0l13.91-13.91a1.544,1.544,0,0,0,0-2.186l-4.637-4.637a1.548,1.548,0,0,0-2.186,0l-8.18,8.18Z" transform="translate(32.705 28.286)" fill="#222"/>
    <path id="Path_2428" data-name="Path 2428" d="M40.9,22.773l2.45,2.45L31.624,36.949l-5.543-5.543,2.45-2.453,2,2a1.544,1.544,0,0,0,2.186,0Z" transform="translate(34.839 30.42)" fill="#ed1818"/>
    <rect id="Rectangle_448" data-name="Rectangle 448" width="3.09" height="3.09" transform="translate(88.102 6.183)" fill="#ed1818"/>
    <rect id="Rectangle_449" data-name="Rectangle 449" width="20.093" height="3.09" transform="translate(64.917 6.183)" fill="#ed1818"/>
  </g>
</svg>
